<svg width="31" height="29" viewBox="0 0 31 29" fill="none" xmlns="http://www.w3.org/2000/svg">
<mask id="mask0" mask-type="alpha" maskUnits="userSpaceOnUse" x="0" y="0" width="31" height="29">
<path fill-rule="evenodd" clip-rule="evenodd" d="M0.0454102 0.0407104H30.9988V29H0.0454102V0.0407104Z" fill="white"/>
</mask>
<g mask="url(#mask0)">
<path fill-rule="evenodd" clip-rule="evenodd" d="M22.5535 0.0407104C27.8904 0.0407104 29.9899 3.85412 29.9899 3.85412C29.9899 3.85412 25.8836 5.96228 25.8836 11.0778C25.8836 16.8486 30.9988 18.8373 30.9988 18.8373C30.9988 18.8373 27.423 28.944 22.5932 28.944C20.3748 28.944 18.6503 27.4428 16.3129 27.4428C13.931 27.4428 11.5672 29 10.0277 29C5.6173 29 0.0454102 19.4129 0.0454102 11.7065C0.0454102 4.12439 4.76171 0.146939 9.1853 0.146939C12.0611 0.146939 14.2927 1.81228 15.7877 1.81228C17.0712 1.81228 19.4531 0.0407104 22.5535 0.0407104Z" fill="#A1B0BB"/>
</g>
</svg>
