<svg width="36" height="32" viewBox="0 0 36 32" fill="none" xmlns="http://www.w3.org/2000/svg">
<path fill-rule="evenodd" clip-rule="evenodd" d="M30.6936 18.2395C32.4744 17.5115 33.7344 15.7811 33.7344 13.7427V12.9419C33.7344 10.9035 32.4744 9.16748 30.6936 8.43948C30.4584 8.34428 30.2008 8.51788 30.2008 8.76988V17.9091C30.2008 18.1667 30.4584 18.3347 30.6936 18.2395ZM27.5016 18.4579C27.3336 16.3859 26.5104 14.5043 25.2336 13.0147C25.088 12.8411 25.1272 12.6059 25.3176 12.4827C27.0536 11.3739 28.14 9.34108 27.8768 7.07868C27.5912 4.61466 25.6256 2.57626 23.1728 2.20666C22.0248 2.03866 20.9272 2.21226 19.9752 2.64906C19.32 2.95146 18.6256 3.09706 17.9312 3.09706C17.2312 3.09706 16.5368 2.94586 15.8872 2.64906C14.9352 2.21226 13.8376 2.03306 12.6896 2.20666C10.2368 2.57066 8.2712 4.61466 7.9856 7.07868C7.7224 9.34668 8.8088 11.3739 10.5448 12.4827C10.7352 12.6059 10.7744 12.8411 10.6288 13.0147C9.3576 14.5043 8.5288 16.3859 8.3608 18.4579C8.344 18.6707 8.5008 18.8499 8.7136 18.8499H17.9312H27.1488C27.356 18.8499 27.5184 18.6651 27.5016 18.4579ZM8.4728 20.9555C9.2792 25.4523 13.1992 28.8739 17.9312 28.8739C22.6632 28.8739 26.5832 25.4579 27.3896 20.9555C27.4288 20.7315 27.2608 20.5299 27.0368 20.5299H17.9312H8.8256C8.6016 20.5299 8.4336 20.7371 8.4728 20.9555ZM5.1744 18.2395C5.4096 18.3347 5.6672 18.1611 5.6672 17.9091V8.76428C5.6672 8.50668 5.4096 8.33868 5.1744 8.43388C3.3936 9.16748 2.1336 10.8979 2.1336 12.9363V13.7427C2.1336 15.7755 3.3936 17.5115 5.1744 18.2395ZM30.0776 6.31708C30.548 6.22748 31.0408 6.27228 31.5 6.45708C34.1544 7.54908 35.8736 10.0915 35.8904 12.9363V13.7371C35.8904 16.5875 34.1768 19.1299 31.5224 20.2163C31.2144 20.3395 30.8896 20.4011 30.5704 20.4011C30.2736 20.4011 29.9824 20.3451 29.708 20.2443C29.596 20.1995 29.4784 20.3003 29.5008 20.4179C29.5568 20.7147 29.5624 21.0227 29.5064 21.3307C28.504 26.9419 23.6432 31.0131 17.9424 31.0131C12.2416 31.0131 7.3808 26.9419 6.3784 21.3307C6.3224 21.0227 6.328 20.7147 6.384 20.4179C6.4064 20.3003 6.2888 20.1995 6.1768 20.2443C5.8968 20.3451 5.6056 20.4011 5.3144 20.4011C4.9952 20.4011 4.676 20.3395 4.368 20.2163C1.7136 19.1243 0 16.5819 0 13.7371V12.9363C0 10.0859 1.7136 7.54348 4.368 6.45708C4.8272 6.26668 5.32 6.22748 5.7904 6.31708C5.88 6.33388 5.964 6.28348 5.9808 6.19388C6.6192 3.04106 9.1672 0.571463 12.3872 0.089865C13.8992 -0.139735 15.4224 0.073065 16.7888 0.700263C17.1528 0.868263 17.5448 0.952263 17.9368 0.952263C18.3288 0.952263 18.7208 0.868263 19.0848 0.700263C20.4512 0.0786651 21.9744 -0.134135 23.4864 0.089865C26.7064 0.571463 29.2544 3.04106 29.8928 6.19388C29.9096 6.28348 29.988 6.33388 30.0776 6.31708ZM12.236 7.53228C12.236 7.01708 12.656 6.59708 13.1712 6.59708H22.6912C23.2064 6.59708 23.6264 7.01708 23.6264 7.53228C23.6264 8.04748 23.2064 8.46748 22.6912 8.46748H13.1712C12.656 8.46748 12.236 8.04748 12.236 7.53228ZM18.6368 12.7179C18.6368 12.1019 19.1352 11.6035 19.7512 11.6035C20.3672 11.6035 20.8656 12.1019 20.8656 12.7179C20.8656 13.3339 20.3672 13.8323 19.7512 13.8323C19.1352 13.8323 18.6368 13.3339 18.6368 12.7179ZM16.1112 11.6035C15.4952 11.6035 14.9968 12.1019 14.9968 12.7179C14.9968 13.3339 15.4952 13.8323 16.1112 13.8323C16.7272 13.8323 17.2256 13.3339 17.2256 12.7179C17.2256 12.1019 16.7272 11.6035 16.1112 11.6035Z" fill="white"/>
</svg>
