<svg width="216" height="146" viewBox="0 0 216 146" fill="none" xmlns="http://www.w3.org/2000/svg">
<rect width="124.641" height="124.641" transform="matrix(0.866025 0.5 -0.866025 0.5 107.942 20.8586)" fill="#D3DCE4"/>
<path d="M215.964 83.228V72.3203L202.539 79.3124L215.964 83.228Z" fill="#D3DCE4"/>
<path d="M0.0488472 83.228V72.3203L13.4736 79.3124L0.0488472 83.228Z" fill="#D3DCE4"/>
<rect width="124.641" height="124.641" transform="matrix(0.866025 0.5 -0.866025 0.5 107.942 10)" fill="#F1F5F9"/>
<rect width="100.686" height="100.686" transform="matrix(0.866025 0.5 -0.866025 0.5 107.942 21.9774)" fill="white" stroke="white" stroke-width="0.559366"/>
<path d="M109.072 25.3404L96.3131 32.7092L91.4864 31.6151C90.979 31.5539 90.4663 31.6735 90.0384 31.953L61.6089 48.3639C61.156 48.6229 60.773 48.9882 60.4927 49.4283C60.2124 49.8683 60.0433 50.3699 60 50.8899L60.177 53.5606L62.2203 83.1968L108.718 56.3441L110.649 25.9839C110.713 25.0829 109.989 24.7933 109.072 25.3404Z" fill="#2C3E50"/>
<path d="M109.989 16.6522L101.188 21.7203C100.698 22.0159 100.281 22.4172 99.9654 22.8948L95.2191 29.7649L63.8454 47.8651C63.5617 48.0361 63.3212 48.2703 63.1426 48.5493C62.964 48.8283 62.8522 49.1448 62.8157 49.474L63.4431 82.6176L110.295 55.5718L110.938 20.5941V17.0545C111.019 16.5396 110.552 16.3144 109.989 16.6522Z" fill="#2C3E50"/>
<path d="M106.385 54.526L68.7202 76.2785V21.7364L106.385 0V54.526Z" fill="white"/>
<path d="M97.6324 6.43564L67.3044 23.9567V78.4827L104.969 56.7302V10.6832L97.6324 14.9146V6.43564Z" fill="white"/>
<path d="M104.969 10.6832L97.6323 14.9146V6.43564L104.969 10.6832Z" fill="url(#paint0_linear)"/>
<path d="M89.4432 24.7933L65.7761 38.453V30.3923L89.4432 16.7327V24.7933Z" fill="url(#paint1_linear)"/>
<path d="M101.494 25.5173L74.7537 40.9468V40.0458L101.494 24.6163V25.5173Z" fill="#9FB0BF"/>
<path d="M101.494 29.1213L72.9033 45.6287V44.7277L101.494 28.2203V29.1213Z" fill="#9FB0BF"/>
<path d="M101.494 32.7252L72.9033 49.2327V48.3317L101.494 31.8242V32.7252Z" fill="#9FB0BF"/>
<path d="M101.494 36.3292L72.9033 52.8366V51.9356L101.494 35.4282V36.3292Z" fill="#9FB0BF"/>
<path d="M101.494 39.9332L72.9033 56.4407V55.5397L101.494 39.0322V39.9332Z" fill="#9FB0BF"/>
<path d="M101.494 43.5372L72.9033 60.0446V59.1436L101.494 42.6362V43.5372Z" fill="#9FB0BF"/>
<path d="M101.494 47.1411L72.9033 63.6485V62.7475L101.494 46.2401V47.1411Z" fill="#9FB0BF"/>
<path d="M65.7761 38.453L67.3046 39.1287V37.5681L65.7761 38.453Z" fill="url(#paint2_linear)"/>
<path d="M69.1062 30.4406L70.9404 29.3948V29.8131L69.5406 30.6176V31.9208L70.8277 31.1807V31.599L69.5406 32.3391V34.125L69.1062 34.3824V30.4406Z" fill="white"/>
<path d="M72.0025 28.7351V32.677L71.5681 32.9183V28.9926L72.0025 28.7351Z" fill="white"/>
<path d="M72.7747 28.3007L73.2091 28.0433V31.5507L74.6732 30.7141V31.1324L72.7747 32.2265V28.3007Z" fill="white"/>
<path d="M76.9256 27.995L75.5902 28.7512V30.1671L77.0704 29.3144V29.7488L75.1558 30.8589V26.9171L76.9899 25.8552V26.2896L75.5902 27.0941V28.3329L76.9256 27.5767V27.995Z" fill="white"/>
<path d="M112.29 25.0347L110.343 55.604L109.844 55.8936L63.4913 82.6659L61.448 52.8045L61.2549 50.1337C61.2742 49.7315 61.3772 49.3378 61.5573 48.9776C61.7374 48.6175 61.9905 48.2989 62.3007 48.0421C62.4743 47.8685 62.6689 47.7172 62.8799 47.5916L91.5185 31.052C91.9459 30.7575 92.4694 30.6367 92.9826 30.7141L97.8093 31.7921L110.681 24.3911C111.598 23.8441 112.338 24.1337 112.29 25.0347Z" fill="#3D566E"/>
<path d="M109.844 55.9096L63.4913 82.6658L61.448 52.8044L61.2549 50.1336C61.2742 49.7315 61.3772 49.3377 61.5573 48.9776C61.7374 48.6175 61.9905 48.2988 62.3007 48.0421L109.844 55.9096Z" fill="#3D566E"/>
<path d="M125.274 33.1597L112.531 40.5124L107.704 39.4344C107.197 39.3644 106.681 39.4847 106.256 39.7723L77.8108 56.1832C77.3514 56.4344 76.963 56.7978 76.6817 57.2394C76.4004 57.6811 76.2354 58.1867 76.2019 58.7092L76.3789 61.3639L78.4061 91L124.952 64.2278L126.883 33.8676C126.931 32.9023 126.223 32.6127 125.274 33.1597Z" fill="#403487"/>
<path d="M125.917 24.4554L117.116 29.5235C116.626 29.8192 116.209 30.2204 115.893 30.698L111.067 37.5681L79.7895 55.6683C79.5049 55.8384 79.2638 56.0723 79.0851 56.3515C78.9064 56.6307 78.795 56.9476 78.7598 57.2772L79.4194 90.5012L126.255 63.4554L126.914 28.4777V24.9381C126.963 24.3267 126.496 24.1176 125.917 24.4554Z" fill="#403487"/>
<path d="M124.791 23.1039V62.4096L82.1223 87.042V47.7363L124.791 23.1039Z" fill="white"/>
<path d="M123.279 25.0508V64.3404L80.6104 88.9889V49.6832L123.279 25.0508Z" fill="white"/>
<path d="M128.234 32.8218L126.319 62.9728V63.4072L79.4195 90.4691L77.3762 60.6077L77.1831 57.9369C77.1977 57.5409 77.2938 57.1522 77.4654 56.7951C77.637 56.438 77.8805 56.1201 78.1806 55.8614C78.3718 55.6831 78.5823 55.5266 78.8081 55.3948L107.447 38.8552C107.877 38.5679 108.398 38.4478 108.911 38.5173L113.738 39.6114L126.609 32.1943C127.558 31.6473 128.282 31.9208 128.234 32.8218Z" fill="url(#paint3_linear)"/>
<path d="M126.319 62.9728V63.4072L79.4195 90.4691L77.3762 60.6077L77.1831 57.9369C77.1977 57.5409 77.2938 57.1522 77.4654 56.7951C77.637 56.438 77.8805 56.1201 78.1806 55.8614L126.319 62.9728Z" fill="url(#paint4_linear)"/>
<path d="M100.456 108.59C102.058 109.555 104.821 109.53 106.458 108.545C107.558 107.91 107.965 107.065 107.566 106.265L106.059 106.415C106.293 107.02 106.068 107.52 105.384 107.915C104.319 108.53 102.76 108.53 101.669 107.9C100.577 107.27 100.56 106.36 101.625 105.745C102.309 105.35 103.175 105.22 104.223 105.355L104.483 104.485C103.08 104.265 101.625 104.495 100.543 105.12C98.8454 106.06 98.7934 107.66 100.456 108.59ZM107.323 105.445C108.519 106.165 110.623 106.16 111.853 105.42C113.134 104.71 113.169 103.48 111.922 102.79C110.727 102.07 108.622 102.095 107.384 102.83C106.102 103.54 106.076 104.755 107.323 105.445ZM110.736 103.485C111.402 103.87 111.42 104.43 110.788 104.795C110.138 105.17 109.185 105.15 108.519 104.765C107.834 104.37 107.8 103.82 108.449 103.445C109.081 103.08 110.069 103.1 110.736 103.485ZM117.364 99.6483C116.082 98.9083 114.246 98.8683 113.051 99.5583C112.462 99.8983 112.185 100.318 112.307 100.718L111.77 100.408L110.696 101.028L116.541 104.403L117.711 103.728L115.736 102.588C116.385 102.603 117.018 102.448 117.537 102.148C118.732 101.458 118.646 100.388 117.364 99.6483ZM116.186 100.338C116.888 100.743 116.879 101.298 116.256 101.658C115.658 102.003 114.749 102.038 113.987 101.598C113.216 101.153 113.302 100.633 113.891 100.293C114.524 99.9283 115.467 99.9233 116.186 100.338ZM118.985 96.2425L120.682 98.5125L116.82 97.4925L115.581 98.2075L121.254 99.5825L121.418 99.8275C121.669 100.203 121.522 100.438 121.107 100.678C121.037 100.718 120.864 100.808 120.57 100.948L121.548 101.513C121.877 101.403 122.163 101.278 122.406 101.138C123.202 100.678 123.324 100.148 122.821 99.4075L120.215 95.5325L118.985 96.2425ZM124.813 99.0376L126.051 98.3226L122.778 91.2026L121.539 91.9176L124.813 99.0376ZM131.911 91.2498C130.629 90.5098 128.793 90.4698 127.598 91.1598C127.009 91.4998 126.732 91.9198 126.853 92.3198L126.316 92.0098L125.242 92.6298L131.088 96.0048L132.257 95.3298L130.282 94.1898C130.932 94.2048 131.564 94.0498 132.084 93.7498C133.279 93.0598 133.192 91.9898 131.911 91.2498ZM130.733 91.9398C131.434 92.3448 131.426 92.8998 130.802 93.2598C130.205 93.6048 129.295 93.6398 128.533 93.1998C127.762 92.7548 127.849 92.2348 128.438 91.8948C129.07 91.5298 130.014 91.5248 130.733 91.9398ZM136.023 88.4153C134.837 87.7303 133.469 87.7703 132.351 88.4153C131.598 88.8503 131.269 89.3803 131.364 90.0053L132.689 90.0703C132.663 89.6153 132.793 89.3303 133.235 89.0753C133.754 88.7753 134.309 88.7753 134.785 89.0503L134.976 89.1603L133.902 89.7803C132.906 90.3553 132.759 90.9903 133.529 91.4353C134.283 91.8703 135.383 91.8453 136.292 91.3203C136.837 91.0053 137.089 90.6303 137.08 90.2653L137.496 90.5053L138.57 89.8853L136.023 88.4153ZM135.798 89.6353C136.292 89.9203 136.257 90.3503 135.746 90.6453C135.374 90.8603 134.95 90.8953 134.664 90.7303C134.378 90.5653 134.447 90.3553 134.828 90.1353L135.746 89.6053L135.798 89.6353ZM138.578 89.0407C139.487 89.1157 140.431 88.9307 141.184 88.4957C141.669 88.2157 141.946 87.9157 142.016 87.5957C142.094 87.2707 141.912 86.9857 141.487 86.7407C140.855 86.3757 140.145 86.3957 138.976 86.6807L138.387 86.8207C137.911 86.9357 137.72 86.9557 137.556 86.8607C137.356 86.7457 137.426 86.5857 137.711 86.4207C138.067 86.2157 138.526 86.1107 139.08 86.1007L138.95 85.3457C138.136 85.3257 137.408 85.4957 136.768 85.8657C135.832 86.4057 135.668 87.0507 136.473 87.5157C137.105 87.8807 137.841 87.8657 138.95 87.5957L139.599 87.4407C140.058 87.3357 140.249 87.3057 140.431 87.4107C140.665 87.5457 140.552 87.7507 140.24 87.9307C139.816 88.1757 139.218 88.3007 138.456 88.2907L138.578 89.0407ZM145.411 84.8053C145.134 84.9953 144.961 85.1053 144.892 85.1453C144.337 85.4653 143.913 85.5003 143.428 85.2203L141.739 84.2453L142.952 83.5453L141.964 82.9753L140.752 83.6753L139.669 83.0503L138.5 83.7253L139.583 84.3503L138.907 84.7403L139.895 85.3103L140.57 84.9203L142.363 85.9553C143.437 86.5753 144.606 86.5203 145.688 85.8953C145.948 85.7453 146.182 85.5703 146.39 85.3703L145.411 84.8053ZM149.345 81.644C149.181 81.489 148.99 81.349 148.782 81.229C147.665 80.584 145.959 80.559 144.772 81.244C143.508 81.944 143.508 83.134 144.772 83.834C145.985 84.564 148.063 84.554 149.362 83.774C149.995 83.409 150.35 82.954 150.436 82.414L149.155 82.234C149.068 82.614 148.817 82.929 148.392 83.174C147.769 83.534 147.024 83.614 146.34 83.379L149.345 81.644ZM145.517 82.904C145.119 82.524 145.179 82.099 145.673 81.814C146.184 81.519 146.929 81.479 147.466 81.779L145.517 82.904ZM151.134 75.131L153.758 76.646C153.109 76.631 152.511 76.776 151.966 77.091C150.771 77.781 150.84 78.841 152.13 79.586C153.421 80.331 155.257 80.371 156.452 79.681C157.041 79.341 157.318 78.921 157.197 78.521L157.725 78.826L158.799 78.206L152.303 74.456L151.134 75.131ZM155.508 77.636C156.279 78.081 156.192 78.601 155.603 78.941C154.971 79.306 154.027 79.311 153.308 78.896C152.607 78.491 152.615 77.936 153.239 77.576C153.828 77.236 154.746 77.196 155.508 77.636ZM161.006 73.9915C159.82 73.3065 158.451 73.3465 157.334 73.9915C156.581 74.4265 156.252 74.9565 156.347 75.5815L157.672 75.6465C157.646 75.1915 157.776 74.9065 158.218 74.6515C158.737 74.3515 159.291 74.3515 159.768 74.6265L159.958 74.7365L158.884 75.3565C157.889 75.9315 157.741 76.5665 158.512 77.0115C159.266 77.4465 160.365 77.4215 161.275 76.8965C161.82 76.5815 162.071 76.2065 162.063 75.8415L162.478 76.0815L163.552 75.4615L161.006 73.9915ZM160.781 75.2115C161.275 75.4965 161.24 75.9265 160.729 76.2215C160.357 76.4365 159.932 76.4715 159.647 76.3065C159.361 76.1415 159.43 75.9315 159.811 75.7115L160.729 75.1815L160.781 75.2115ZM166.453 72.6568C166.176 72.8468 166.003 72.9568 165.933 72.9968C165.379 73.3168 164.955 73.3518 164.47 73.0718L162.781 72.0968L163.993 71.3968L163.006 70.8268L161.794 71.5268L160.711 70.9018L159.542 71.5768L160.624 72.2018L159.949 72.5918L160.936 73.1618L161.612 72.7718L163.404 73.8068C164.478 74.4268 165.647 74.3718 166.73 73.7468C166.99 73.5968 167.224 73.4218 167.431 73.2218L166.453 72.6568ZM169.328 69.1868C168.142 68.5018 166.773 68.5418 165.656 69.1868C164.903 69.6218 164.574 70.1518 164.669 70.7768L165.994 70.8418C165.968 70.3868 166.098 70.1018 166.54 69.8468C167.059 69.5468 167.613 69.5468 168.09 69.8218L168.28 69.9318L167.206 70.5518C166.21 71.1268 166.063 71.7618 166.834 72.2068C167.587 72.6418 168.687 72.6168 169.597 72.0918C170.142 71.7768 170.393 71.4018 170.385 71.0368L170.8 71.2768L171.874 70.6568L169.328 69.1868ZM169.103 70.4068C169.597 70.6918 169.562 71.1218 169.051 71.4168C168.679 71.6318 168.254 71.6668 167.969 71.5018C167.683 71.3368 167.752 71.1268 168.133 70.9068L169.051 70.3768L169.103 70.4068Z" fill="#002642"/>
<defs>
<linearGradient id="paint0_linear" x1="100.192" y1="13.5148" x2="102.178" y2="11.3358" gradientUnits="userSpaceOnUse">
<stop stop-color="#4F429F"/>
<stop offset="0.543707" stop-color="#6152BD"/>
<stop offset="1" stop-color="#6152BD"/>
</linearGradient>
<linearGradient id="paint1_linear" x1="74.0345" y1="34.8671" x2="78.8859" y2="28.1616" gradientUnits="userSpaceOnUse">
<stop stop-color="#4F429F"/>
<stop offset="0.543707" stop-color="#6152BD"/>
<stop offset="1" stop-color="#6152BD"/>
</linearGradient>
<linearGradient id="paint2_linear" x1="66.3095" y1="38.8711" x2="66.668" y2="38.4257" gradientUnits="userSpaceOnUse">
<stop stop-color="#4F429F"/>
<stop offset="0.543707" stop-color="#6152BD"/>
<stop offset="1" stop-color="#6152BD"/>
</linearGradient>
<linearGradient id="paint3_linear" x1="94.9975" y1="80.802" x2="108.698" y2="65.65" gradientUnits="userSpaceOnUse">
<stop stop-color="#5144A3"/>
<stop offset="0.543707" stop-color="#6152BD"/>
<stop offset="1" stop-color="#6C5DCC"/>
</linearGradient>
<linearGradient id="paint4_linear" x1="94.9975" y1="80.802" x2="108.698" y2="65.65" gradientUnits="userSpaceOnUse">
<stop stop-color="#5144A3"/>
<stop offset="0.543707" stop-color="#6152BD"/>
<stop offset="1" stop-color="#6C5DCC"/>
</linearGradient>
</defs>
</svg>
