<svg width="154" height="100" viewBox="0 0 154 100" fill="none" xmlns="http://www.w3.org/2000/svg">
<rect width="88.766" height="88.766" transform="matrix(0.866025 0.5 -0.866025 0.5 76.8735 10.7332)" fill="#D3DCE4"/>
<path d="M153.804 55.151V47.3829L144.244 52.3625L153.804 55.151Z" fill="#D3DCE4"/>
<path d="M0.0346565 55.151V47.3829L9.59546 52.3625L0.0346565 55.151Z" fill="#D3DCE4"/>
<rect width="88.766" height="88.766" transform="matrix(0.866025 0.5 -0.866025 0.5 76.8735 2.99988)" fill="#F1F5F9"/>
<rect width="71.706" height="71.706" transform="matrix(0.866025 0.5 -0.866025 0.5 76.8735 11.5299)" fill="white" stroke="white" stroke-width="0.398367"/>
<path d="M66.8497 31.1688L64.853 30.0091L82.4362 34.9002L84.4314 36.0599L66.8497 31.1688Z" fill="#FFCA28"/>
<g filter="url(#filter0_b)">
<path d="M66.8497 31.1688L64.853 30.0091L82.3512 5.095L84.3465 6.25475L66.8497 31.1688Z" fill="#403487"/>
</g>
<path d="M66.8496 31.1688L84.3464 6.25473L84.4314 36.0599L66.8496 31.1688Z" fill="url(#paint0_linear)"/>
<path d="M65.2095 30.7129L63.2129 29.5531L64.8527 30.0091L66.8493 31.1688L65.2095 30.7129Z" fill="#5244A3"/>
<g filter="url(#filter1_b)">
<path d="M63.5787 33.0578L61.582 31.8967L63.2133 29.5531L65.21 30.7129L63.5787 33.0578Z" fill="#403487"/>
</g>
<g filter="url(#filter2_b)">
<path d="M65.2096 30.7129L66.8494 31.1688L84.4312 36.0599L46.0815 58.2013L63.5783 33.0578L65.2096 30.7129Z" fill="#403487"/>
</g>
<path d="M46.0818 58.2014L44.0852 57.0416L61.582 31.8967L63.5786 33.0579L46.0818 58.2014Z" fill="#FFCA28"/>
<g filter="url(#filter3_b)">
<path d="M46.0816 58.2013L44.085 57.0416L44 27.2364L45.9966 28.3962L46.0816 58.2013Z" fill="#403487"/>
</g>
<g filter="url(#filter4_b)">
<path d="M45.9966 28.3962L44 27.2364L61.5818 31.8967L63.5784 33.0578L45.9966 28.3962Z" fill="#403487"/>
</g>
<path d="M45.9966 28.3962L63.5783 33.0579L46.0815 58.2014L45.9966 28.3962Z" fill="url(#paint1_linear)"/>
<path d="M65.8499 30.5897L64.853 30.0091L80.3688 7.91721L81.3671 8.49637L65.8499 30.5897Z" fill="#FBC02D"/>
<path d="M64.138 3.92957L63.1396 3.3504L80.3688 7.91719L81.3671 8.49635L64.138 3.92957Z" fill="#FFE082"/>
<path d="M64.1282 0.579168L63.1299 0L82.3514 5.09497L83.3498 5.67414L64.1282 0.579168Z" fill="#6D5DCD"/>
<path d="M46.991 28.3438L45.9927 27.7646L61.582 31.8981L62.5804 32.4772L46.991 28.3438Z" fill="#FBC02D"/>
<g filter="url(#filter5_b)">
<path d="M64.1382 3.92957L81.3674 8.49635L65.8503 30.5897L64.2119 30.1323L62.5806 32.4773L46.9912 28.3438L64.1382 3.92957Z" fill="#403487"/>
</g>
<path d="M46.991 28.3438L45.9927 27.7646L63.1397 3.3504L64.138 3.92957L46.991 28.3438Z" fill="#FFE082"/>
<g filter="url(#filter6_b)">
<path d="M44.9986 27.817L44.0002 27.2364L63.1298 0L64.1281 0.579168L44.9986 27.817Z" fill="#403487"/>
</g>
<path d="M83.3496 5.67413L65.85 30.5897L81.3671 8.49634L64.138 3.92955L46.9909 28.3438L62.5803 32.4773L44.9985 27.817L64.128 0.579163L83.3496 5.67413Z" fill="url(#paint2_linear)"/>
<path d="M46.7967 18.1227L46.2969 17.8338L73.6777 2.02496L74.1762 2.31526L46.7967 18.1227Z" fill="white"/>
<path d="M46.8251 28.4514L46.3266 28.1611L46.2969 17.8338L46.7967 18.1227L46.8251 28.4514Z" fill="#B0BEC5"/>
<g filter="url(#filter7_b)">
<path d="M82.4716 7.87044L82.4688 7.04063L74.2046 11.8127L74.1763 2.31525L46.7969 18.1227L46.8252 28.4514L63.0518 32.752L64.6831 30.4084L66.3229 30.8644L72.6725 21.8228L82.4716 7.87044Z" fill="url(#paint3_linear)" fill-opacity="0.8"/>
</g>
<path d="M74.6761 2.60554L74.1763 2.31525L82.4687 7.04063L82.9686 7.33092L74.6761 2.60554Z" fill="#ECEFF1"/>
<path d="M74.703 12.103L74.2032 11.8127L74.1763 2.31525L74.6761 2.60554L74.703 12.103Z" fill="#B0BEC5"/>
<path d="M74.6763 2.60553L82.9687 7.33091L74.7032 12.103L74.6763 2.60553Z" fill="#FAFAFA"/>
<path d="M70.6771 10.0738L72.6766 11.2137L63.9395 26.3429L61.9542 29.7825L55.5806 26.1503L57.5659 22.7107L61.9415 25.2044L70.6771 10.0738Z" fill="#FAFAFA"/>
<path d="M77.7028 60.6483C79.3136 61.6083 82.0849 61.5783 83.6957 60.6083C85.3758 59.6783 85.445 58.0683 83.7823 57.1383C82.1715 56.1783 79.3829 56.2183 77.772 57.1883C76.092 58.1183 76.04 59.7183 77.7028 60.6483ZM82.5785 57.8333C83.6783 58.4683 83.6697 59.3733 82.6218 59.9783C81.5652 60.5883 80.0064 60.5883 78.9065 59.9533C77.8067 59.3183 77.8067 58.4183 78.8632 57.8083C79.9111 57.2033 81.496 57.2083 82.5785 57.8333ZM89.9338 54.4067C88.6521 53.6667 86.8161 53.6267 85.621 54.3167C85.0321 54.6567 84.755 55.0767 84.8762 55.4767L84.3393 55.1667L83.2654 55.7867L89.1111 59.1617L90.2802 58.4867L88.3057 57.3467C88.9552 57.3617 89.5874 57.2067 90.107 56.9067C91.3021 56.2167 91.2155 55.1467 89.9338 54.4067ZM88.756 55.0967C89.4575 55.5017 89.4488 56.0567 88.8253 56.4167C88.2278 56.7617 87.3184 56.7967 86.5563 56.3567C85.7856 55.9117 85.8722 55.3917 86.4611 55.0517C87.0933 54.6867 88.0372 54.6817 88.756 55.0967ZM95.1898 51.8322C95.0252 51.6772 94.8347 51.5372 94.6269 51.4172C93.5097 50.7722 91.8036 50.7472 90.6172 51.4322C89.3528 52.1322 89.3528 53.3222 90.6172 54.0222C91.8296 54.7522 93.9081 54.7422 95.2071 53.9622C95.8393 53.5972 96.1944 53.1422 96.281 52.6022L94.9993 52.4222C94.9127 52.8022 94.6615 53.1172 94.2372 53.3622C93.6136 53.7222 92.8688 53.8022 92.1847 53.5672L95.1898 51.8322ZM91.362 53.0922C90.9636 52.7122 91.0242 52.2872 91.5178 52.0022C92.0288 51.7072 92.7736 51.6672 93.3105 51.9672L91.362 53.0922ZM99.2111 48.4605C98.1718 47.8605 96.8728 47.8205 95.8769 48.3955C95.3659 48.6905 95.1061 49.0505 95.1061 49.4005L94.7164 49.1755L93.6425 49.7955L97.9293 52.2705L99.0985 51.5955L96.5957 50.1505C96.102 49.8655 96.102 49.4755 96.5783 49.2005C97.0546 48.9255 97.7128 48.9355 98.2065 49.2205L100.709 50.6655L101.87 49.9955L99.2111 48.4605ZM89.7729 64.9596C89.6084 64.8046 89.4178 64.6646 89.21 64.5446C88.0928 63.8996 86.3867 63.8746 85.2003 64.5596C83.9359 65.2596 83.9359 66.4496 85.2003 67.1496C86.4127 67.8796 88.4912 67.8696 89.7902 67.0896C90.4224 66.7246 90.7775 66.2696 90.8641 65.7296L89.5824 65.5496C89.4958 65.9296 89.2446 66.2446 88.8203 66.4896C88.1967 66.8496 87.4519 66.9296 86.7678 66.6946L89.7729 64.9596ZM85.9451 66.2196C85.5467 65.8396 85.6073 65.4146 86.1009 65.1296C86.6119 64.8346 87.3567 64.7946 87.8936 65.0946L85.9451 66.2196ZM96.4615 60.0479C95.4223 59.4479 94.1233 59.4079 93.1187 59.9879C92.5298 60.3279 92.2613 60.7529 92.3046 61.1679C91.6118 61.0979 90.9796 61.2229 90.4167 61.5479C89.923 61.8329 89.6632 62.1829 89.6805 62.5229L89.2995 62.3029L88.2256 62.9229L92.5124 65.3979L93.6816 64.7229L91.1874 63.2829C90.6765 62.9879 90.6678 62.6229 91.1441 62.3479C91.6031 62.0829 92.2267 62.0929 92.7376 62.3879L95.2318 63.8279L96.4009 63.1529L93.8808 61.6979C93.4045 61.4229 93.4045 61.0429 93.8634 60.7779C94.3224 60.5129 94.946 60.5229 95.4569 60.8179L97.9511 62.2579L99.1202 61.5829L96.4615 60.0479ZM101.282 57.3949C100.095 56.7099 98.7271 56.7499 97.6099 57.3949C96.8564 57.8299 96.5274 58.3599 96.6226 58.9849L97.9476 59.0499C97.9217 58.5949 98.0516 58.3099 98.4932 58.0549C99.0128 57.7549 99.5671 57.7549 100.043 58.0299L100.234 58.1399L99.1601 58.7599C98.1641 59.3349 98.0169 59.9699 98.7877 60.4149C99.5411 60.8499 100.641 60.8249 101.55 60.2999C102.096 59.9849 102.347 59.6099 102.338 59.2449L102.754 59.4849L103.828 58.8649L101.282 57.3949ZM101.057 58.6149C101.55 58.8999 101.516 59.3299 101.005 59.6249C100.632 59.8399 100.208 59.8749 99.9222 59.7099C99.6364 59.5449 99.7057 59.3349 100.087 59.1149L101.005 58.5849L101.057 58.6149ZM104.953 58.2153L106.122 57.5403L101.835 55.0653L100.666 55.7403L104.953 58.2153ZM98.9429 54.9353C99.3499 55.1703 99.9908 55.1603 100.406 54.9203C100.822 54.6803 100.848 54.3053 100.441 54.0703C100.025 53.8303 99.3759 53.8453 98.9602 54.0853C98.5445 54.3253 98.5272 54.6953 98.9429 54.9353ZM107.279 56.8725L108.448 56.1975L101.953 52.4475L100.784 53.1225L107.279 56.8725ZM108.487 55.3348C109.397 55.4098 110.341 55.2248 111.094 54.7898C111.579 54.5098 111.856 54.2098 111.926 53.8898C112.003 53.5648 111.822 53.2798 111.397 53.0348C110.765 52.6698 110.055 52.6898 108.886 52.9748L108.297 53.1148C107.821 53.2298 107.63 53.2498 107.466 53.1548C107.266 53.0398 107.336 52.8798 107.621 52.7148C107.976 52.5098 108.435 52.4048 108.99 52.3948L108.86 51.6398C108.046 51.6198 107.318 51.7898 106.677 52.1598C105.742 52.6998 105.578 53.3448 106.383 53.8098C107.015 54.1748 107.751 54.1598 108.86 53.8898L109.509 53.7348C109.968 53.6298 110.159 53.5998 110.341 53.7048C110.575 53.8398 110.462 54.0448 110.15 54.2248C109.726 54.4698 109.128 54.5948 108.366 54.5848L108.487 55.3348Z" fill="#002642"/>
<defs>
<filter id="filter0_b" x="58.8141" y="-0.94392" width="31.5713" height="38.1517" filterUnits="userSpaceOnUse" color-interpolation-filters="sRGB">
<feFlood flood-opacity="0" result="BackgroundImageFix"/>
<feGaussianBlur in="BackgroundImage" stdDeviation="3.01946"/>
<feComposite in2="SourceAlpha" operator="in" result="effect1_backgroundBlur"/>
<feBlend mode="normal" in="SourceGraphic" in2="effect1_backgroundBlur" result="shape"/>
</filter>
<filter id="filter1_b" x="55.5431" y="23.5142" width="15.7058" height="15.5826" filterUnits="userSpaceOnUse" color-interpolation-filters="sRGB">
<feFlood flood-opacity="0" result="BackgroundImageFix"/>
<feGaussianBlur in="BackgroundImage" stdDeviation="3.01946"/>
<feComposite in2="SourceAlpha" operator="in" result="effect1_backgroundBlur"/>
<feBlend mode="normal" in="SourceGraphic" in2="effect1_backgroundBlur" result="shape"/>
</filter>
<filter id="filter2_b" x="40.0426" y="24.6739" width="50.4275" height="39.5663" filterUnits="userSpaceOnUse" color-interpolation-filters="sRGB">
<feFlood flood-opacity="0" result="BackgroundImageFix"/>
<feGaussianBlur in="BackgroundImage" stdDeviation="3.01946"/>
<feComposite in2="SourceAlpha" operator="in" result="effect1_backgroundBlur"/>
<feBlend mode="normal" in="SourceGraphic" in2="effect1_backgroundBlur" result="shape"/>
</filter>
<filter id="filter3_b" x="37.9611" y="21.1975" width="14.1594" height="43.0428" filterUnits="userSpaceOnUse" color-interpolation-filters="sRGB">
<feFlood flood-opacity="0" result="BackgroundImageFix"/>
<feGaussianBlur in="BackgroundImage" stdDeviation="3.01946"/>
<feComposite in2="SourceAlpha" operator="in" result="effect1_backgroundBlur"/>
<feBlend mode="normal" in="SourceGraphic" in2="effect1_backgroundBlur" result="shape"/>
</filter>
<filter id="filter4_b" x="37.9611" y="21.1975" width="31.6562" height="17.8993" filterUnits="userSpaceOnUse" color-interpolation-filters="sRGB">
<feFlood flood-opacity="0" result="BackgroundImageFix"/>
<feGaussianBlur in="BackgroundImage" stdDeviation="3.01946"/>
<feComposite in2="SourceAlpha" operator="in" result="effect1_backgroundBlur"/>
<feBlend mode="normal" in="SourceGraphic" in2="effect1_backgroundBlur" result="shape"/>
</filter>
<filter id="filter5_b" x="40.9523" y="-2.10936" width="46.454" height="40.6255" filterUnits="userSpaceOnUse" color-interpolation-filters="sRGB">
<feFlood flood-opacity="0" result="BackgroundImageFix"/>
<feGaussianBlur in="BackgroundImage" stdDeviation="3.01946"/>
<feComposite in2="SourceAlpha" operator="in" result="effect1_backgroundBlur"/>
<feBlend mode="normal" in="SourceGraphic" in2="effect1_backgroundBlur" result="shape"/>
</filter>
<filter id="filter6_b" x="37.9613" y="-6.03892" width="32.2057" height="39.8949" filterUnits="userSpaceOnUse" color-interpolation-filters="sRGB">
<feFlood flood-opacity="0" result="BackgroundImageFix"/>
<feGaussianBlur in="BackgroundImage" stdDeviation="3.01946"/>
<feComposite in2="SourceAlpha" operator="in" result="effect1_backgroundBlur"/>
<feBlend mode="normal" in="SourceGraphic" in2="effect1_backgroundBlur" result="shape"/>
</filter>
<filter id="filter7_b" x="40.758" y="-3.72367" width="47.7526" height="42.5146" filterUnits="userSpaceOnUse" color-interpolation-filters="sRGB">
<feFlood flood-opacity="0" result="BackgroundImageFix"/>
<feGaussianBlur in="BackgroundImage" stdDeviation="3.01946"/>
<feComposite in2="SourceAlpha" operator="in" result="effect1_backgroundBlur"/>
<feBlend mode="normal" in="SourceGraphic" in2="effect1_backgroundBlur" result="shape"/>
</filter>
<linearGradient id="paint0_linear" x1="72.9846" y1="31.1393" x2="79.7088" y2="26.1078" gradientUnits="userSpaceOnUse">
<stop stop-color="#5144A3"/>
<stop offset="0.543707" stop-color="#6152BD"/>
<stop offset="1" stop-color="#6C5DCC"/>
</linearGradient>
<linearGradient id="paint1_linear" x1="52.1315" y1="53.2808" x2="58.8558" y2="48.2493" gradientUnits="userSpaceOnUse">
<stop stop-color="#5144A3"/>
<stop offset="0.543707" stop-color="#6152BD"/>
<stop offset="1" stop-color="#6C5DCC"/>
</linearGradient>
<linearGradient id="paint2_linear" x1="58.3807" y1="27.2112" x2="65.2599" y2="16.7196" gradientUnits="userSpaceOnUse">
<stop stop-color="#5144A3"/>
<stop offset="0.543707" stop-color="#6152BD"/>
<stop offset="1" stop-color="#6C5DCC"/>
</linearGradient>
<linearGradient id="paint3_linear" x1="46.7969" y1="32.752" x2="82.4716" y2="32.752" gradientUnits="userSpaceOnUse">
<stop stop-color="#814EC4"/>
<stop offset="1" stop-color="#561FAA"/>
</linearGradient>
</defs>
</svg>
