<svg width="154" height="120" viewBox="0 0 154 120" fill="none" xmlns="http://www.w3.org/2000/svg">
<rect width="88.766" height="88.766" transform="matrix(0.866025 0.5 -0.866025 0.5 76.8735 30.7332)" fill="#D3DCE4"/>
<path d="M153.804 75.1512V67.3831L144.244 72.3626L153.804 75.1512Z" fill="#D3DCE4"/>
<path d="M0.0346565 75.1512V67.3831L9.59546 72.3626L0.0346565 75.1512Z" fill="#D3DCE4"/>
<rect width="88.766" height="88.766" transform="matrix(0.866025 0.5 -0.866025 0.5 76.8735 23)" fill="#F1F5F9"/>
<rect width="71.706" height="71.706" transform="matrix(0.866025 0.5 -0.866025 0.5 77 31.53)" fill="white" stroke="white" stroke-width="0.398367"/>
<path fill-rule="evenodd" clip-rule="evenodd" d="M45.72 79.56L40.14 76.33L39.67 75.94L39.31 75.39L39.08 74.68L39 73.82L39.01 41L44.6 44.22L44.58 77.05L44.66 77.9L44.89 78.61L45.25 79.17L45.72 79.56Z" fill="#403487"/>
<path fill-rule="evenodd" clip-rule="evenodd" d="M44.6 44.22L39.01 41L86.86 13.39L92.44 16.61L44.6 44.22Z" fill="#E6EAEB"/>
<path fill-rule="evenodd" clip-rule="evenodd" d="M44.6 44.22L39.01 41L39.02 30.36L39.04 29.89L39.1 29.41L39.19 28.92L39.33 28.44L39.49 27.95L39.68 27.47L39.91 27L40.16 26.53L40.43 26.08L40.74 25.65L41.06 25.24L41.39 24.86L41.75 24.5L42.12 24.18L42.51 23.89L42.9 23.63L82.99 0.509998L83.77 0.149998L84.49 0L85.15 0.0299988L85.73 0.25L91.31 3.47L90.74 3.25L90.08 3.22L89.35 3.38L88.57 3.74L48.48 26.86L48.09 27.11L47.7 27.4L47.33 27.72L46.98 28.08L46.64 28.47L46.32 28.88L46.02 29.31L45.74 29.75L45.49 30.22L45.27 30.69L45.07 31.17L44.91 31.66L44.78 32.15L44.68 32.63L44.62 33.11L44.6 33.58V44.22Z" fill="#2C3E50"/>
<path fill-rule="evenodd" clip-rule="evenodd" d="M48.4801 26.86L88.5701 3.73003C90.7101 2.50003 92.4501 3.51003 92.4501 5.98003V16.61L44.6001 44.19V33.58C44.6757 32.2344 45.0662 30.9253 45.7401 29.7582C46.414 28.591 47.3525 27.5983 48.4801 26.86Z" fill="#3D566E"/>
<path fill-rule="evenodd" clip-rule="evenodd" d="M73.9901 17.6C74.9901 17.01 75.8701 17.49 75.8701 18.69C75.8335 19.3398 75.6442 19.9719 75.3175 20.5348C74.9909 21.0978 74.5361 21.5758 73.9901 21.93C72.9901 22.53 72.1201 22.05 72.1201 20.85C72.1564 20.1999 72.3445 19.5673 72.6692 19.003C72.994 18.4386 73.4463 17.9581 73.9901 17.6Z" fill="#E6EAEB"/>
<path fill-rule="evenodd" clip-rule="evenodd" d="M80.41 13.88C81.41 13.28 82.28 13.76 82.28 14.96C82.2407 15.6067 82.0512 16.2352 81.7266 16.7959C81.402 17.3566 80.9512 17.8339 80.41 18.19C79.41 18.78 78.53 18.3 78.53 17.1C78.5682 16.4533 78.7583 15.8246 79.0849 15.2652C79.4116 14.7057 79.8656 14.2311 80.41 13.88Z" fill="#FFCB05"/>
<path fill-rule="evenodd" clip-rule="evenodd" d="M86.9 10.19C87.9 9.58998 88.78 10.08 88.78 11.27C88.7449 11.9215 88.5564 12.5555 88.2296 13.1204C87.9029 13.6852 87.4473 14.1647 86.9 14.52C85.9 15.12 85.03 14.63 85.03 13.44C85.0656 12.7897 85.2533 12.1568 85.5781 11.5923C85.9029 11.0279 86.3557 10.5475 86.9 10.19Z" fill="#C93E3E"/>
<path fill-rule="evenodd" clip-rule="evenodd" d="M92.4101 16.61V49.45C92.3397 50.7973 91.9538 52.1092 91.2833 53.28C90.6128 54.4507 89.6766 55.4475 88.5501 56.19L48.4601 79.29C46.3301 80.52 44.5801 79.51 44.5801 77.05V44.22L92.4101 16.61Z" fill="url(#paint0_linear)"/>
<path fill-rule="evenodd" clip-rule="evenodd" d="M78.383 42.1617L75.4085 40.4383L75.217 40.3617L75 40.3489L74.7574 40.4L74.5021 40.5277L64.2894 46.4128L64.1617 46.4894L64.034 46.5915L63.9064 46.6936L63.7915 46.8213L63.6766 46.9489L63.5745 47.0766L63.4723 47.217L63.383 47.3702L63.3064 47.5234L63.2298 47.6766L63.166 47.8426L63.1149 47.9957L63.0638 48.1617L63.0383 48.3149L63.0128 48.4809V48.634L63 55.4383L63.0255 55.7191L63.1021 55.9617L63.2298 56.1404L63.383 56.2681L66.3575 57.9915L66.2043 57.8638L66.0894 57.6723L66.0128 57.4426L65.9872 57.1617V50.3574V50.1915L66.0128 50.0383L66.0383 49.8851L66.0894 49.7191L66.1404 49.5532L66.2043 49.4L66.2809 49.2468L66.3575 49.0936L66.4596 48.9404L66.5489 48.8L66.6638 48.6596L66.7787 48.5319L66.8936 48.417L67.0085 48.3149L67.1362 48.2128L67.2638 48.1362L77.4766 42.2383L77.7319 42.1234L77.9745 42.0723L78.1915 42.0851L78.383 42.1617Z" fill="#F1F5F9"/>
<path fill-rule="evenodd" clip-rule="evenodd" d="M75.1404 42.2511L74.1191 41.6511C74.0967 41.6413 74.0775 41.6253 74.0639 41.6049C74.0504 41.5845 74.0429 41.5607 74.0425 41.5362C74.042 41.5099 74.0489 41.484 74.0625 41.4614C74.076 41.4388 74.0956 41.4205 74.1191 41.4085L75.1787 40.7958C75.2423 40.7575 75.3151 40.7373 75.3893 40.7373C75.4635 40.7373 75.5364 40.7575 75.6 40.7958L76.6212 41.3958C76.6447 41.4077 76.6643 41.426 76.6778 41.4486C76.6914 41.4712 76.6983 41.4971 76.6978 41.5234C76.6974 41.5479 76.69 41.5718 76.6764 41.5921C76.6628 41.6125 76.6437 41.6285 76.6212 41.6383L75.5617 42.2511C75.4981 42.2894 75.4252 42.3096 75.351 42.3096C75.2768 42.3096 75.204 42.2894 75.1404 42.2511Z" fill="#222F3B"/>
<path fill-rule="evenodd" clip-rule="evenodd" d="M75.6384 40.8468L76.6597 41.4468C76.6832 41.4588 76.7028 41.4771 76.7163 41.4997C76.7299 41.5222 76.7368 41.5482 76.7363 41.5745C76.7359 41.599 76.7285 41.6228 76.7149 41.6432C76.7013 41.6636 76.6821 41.6796 76.6597 41.6894L75.6384 42.2894V40.8468Z" fill="#3D566E"/>
<path fill-rule="evenodd" clip-rule="evenodd" d="M65.7064 47.7022L64.6723 47.1022C64.6642 47.0841 64.66 47.0646 64.66 47.0448C64.66 47.025 64.6642 47.0054 64.6723 46.9873C64.6622 46.9675 64.657 46.9457 64.657 46.9235C64.657 46.9013 64.6622 46.8794 64.6723 46.8596L65.7447 46.2469C65.8063 46.2097 65.8769 46.1901 65.9489 46.1901C66.0209 46.1901 66.0915 46.2097 66.1532 46.2469L67.1872 46.8469C67.2097 46.8567 67.2288 46.8727 67.2424 46.8931C67.256 46.9135 67.2634 46.9373 67.2638 46.9618C67.2643 46.9881 67.2574 47.014 67.2438 47.0366C67.2303 47.0592 67.2107 47.0775 67.1872 47.0894L66.1277 47.7022C66.0641 47.7405 65.9912 47.7607 65.917 47.7607C65.8428 47.7607 65.77 47.7405 65.7064 47.7022Z" fill="#222F3B"/>
<path fill-rule="evenodd" clip-rule="evenodd" d="M65.9363 46.1958C66.0064 46.1704 66.0832 46.1704 66.1533 46.1958L67.1873 46.7958C67.2098 46.8056 67.2289 46.8216 67.2425 46.842C67.2561 46.8623 67.2635 46.8862 67.2639 46.9107C67.2644 46.937 67.2575 46.9629 67.2439 46.9855C67.2304 47.0081 67.2108 47.0264 67.1873 47.0383L66.1278 47.6511C66.0651 47.6685 65.9989 47.6685 65.9363 47.6511V46.1958Z" fill="#3D566E"/>
<path fill-rule="evenodd" clip-rule="evenodd" d="M77.4767 42.2383L67.2639 48.1361C66.8923 48.3809 66.5833 48.7093 66.3616 49.0951C66.1399 49.4808 66.0117 49.9132 65.9873 50.3574V57.1617C65.9873 57.9787 66.5618 58.3106 67.2639 57.9021L77.4767 52.017C77.8475 51.7715 78.156 51.4429 78.3776 51.0573C78.5993 50.6717 78.7279 50.2397 78.7533 49.7957V42.9787C78.766 42.1234 78.1916 41.8425 77.4767 42.2383Z" fill="white"/>
<path fill-rule="evenodd" clip-rule="evenodd" d="M73.4043 49.783V52.0554C73.3859 52.3134 73.3069 52.5634 73.1738 52.7852C73.0408 53.007 72.8573 53.1943 72.6384 53.332L72.383 53.4852C72.2811 53.5651 72.1576 53.6128 72.0283 53.6221C71.8991 53.6315 71.77 53.6021 71.6576 53.5376C71.5452 53.4732 71.4546 53.3767 71.3973 53.2605C71.3401 53.1442 71.3188 53.0135 71.3362 52.8852V50.7149C71.1598 50.5928 71.0171 50.4282 70.9212 50.2363C70.8252 50.0444 70.7792 49.8315 70.7873 49.6171C70.8029 49.1065 70.9424 48.6073 71.1937 48.1626C71.445 47.7178 71.8006 47.3408 72.2299 47.0639C72.3983 46.9317 72.6025 46.853 72.816 46.8379C73.0296 46.8228 73.2428 46.872 73.4282 46.9791C73.6136 47.0862 73.7627 47.2463 73.8563 47.4389C73.9498 47.6315 73.9836 47.8477 73.9533 48.0596C73.9536 48.6772 73.7618 49.2795 73.4043 49.783Z" fill="url(#paint1_linear)"/>
<path fill-rule="evenodd" clip-rule="evenodd" d="M72.3704 47.3958C73.098 46.9745 73.647 47.3064 73.647 48.149C73.6194 48.7066 73.4285 49.2437 73.098 49.6937V52.0426C73.0879 52.2603 73.0258 52.4723 72.917 52.6611C72.8082 52.8499 72.6558 53.0098 72.4725 53.1277L72.2172 53.2809C71.8725 53.4852 71.5917 53.2809 71.5917 52.9235V50.5618C71.2597 50.4852 71.0427 50.1533 71.0427 49.6554C71.0689 49.2004 71.203 48.7582 71.4338 48.3653C71.6647 47.9724 71.9857 47.6401 72.3704 47.3958Z" fill="#3D566E"/>
<path fill-rule="evenodd" clip-rule="evenodd" d="M74.3619 38.1277L74.2981 37.9235V37.7447L74.2215 37.566L74.1321 37.4001L74.03 37.2341L73.9279 37.0937L73.813 36.966C74.3652 37.1204 74.8494 37.4563 75.1875 37.9195C75.5257 38.3826 75.698 38.9461 75.6768 39.5192C75.6768 39.6469 75.6768 41.6894 75.6768 41.8298C75.6832 41.9319 75.6832 42.0342 75.6768 42.1362L74.5789 41.4979C74.6131 40.3702 74.5405 39.2417 74.3619 38.1277Z" fill="#222F3B"/>
<path fill-rule="evenodd" clip-rule="evenodd" d="M70.1617 35.7021L70.4425 35.5617L70.7106 35.4213L70.9787 35.3191L71.2468 35.217L71.5021 35.1404L71.7574 35.0766L72 35.0383L72.2425 35.0128L72.4851 35H72.7149L72.9319 35.0128L73.1489 35.0511L73.3659 35.1021L73.5702 35.166L73.7617 35.2426L73.9404 35.3447L75.0383 35.9574L74.8468 35.8553L74.6553 35.7787L74.451 35.7149L74.2468 35.6638L74.0298 35.6255L73.8 35.6128L73.5702 35.6L73.3404 35.6255L73.0979 35.6511L72.8425 35.6894L72.5872 35.7532L72.3319 35.8298L72.0638 35.9319L71.8085 36.034L71.5276 36.1745L71.2596 36.3149L70.9787 36.4809L70.7106 36.6596L70.4425 36.8383L70.1745 37.0426L69.9191 37.2596L69.6638 37.4766L69.4213 37.7064L69.1787 37.9489L68.9362 38.2043L68.7064 38.4723L68.4766 38.7404L68.2596 39.0213L68.0553 39.3021L67.851 39.5957L67.6596 39.8894L67.4681 40.1957L67.3021 40.5021L67.1234 40.8085L66.9702 41.1277L66.817 41.4468L66.6766 41.766L66.5489 42.0851L66.434 42.417L66.3191 42.7362L66.2298 43.0681L66.1404 43.4L66.0766 43.7192L66.0127 44.0383L65.9617 44.3702L65.9362 44.6894L65.9106 46.8979V47.217V47.2936V47.3702V47.4468V47.5106V47.5872L65.9234 47.6638L64.8255 47.0255V46.9745V46.9106L64.8127 46.834V46.7574V46.6809V46.6043L64.8255 44.383L64.8383 44.0766L64.8766 43.7574L64.9276 43.4383L64.9787 43.1064L65.0553 42.7872L65.1447 42.4553L65.234 42.1362L65.3362 41.8043L65.4638 41.4851L65.5915 41.1532L65.7319 40.834L65.8723 40.5149L66.0383 40.1957L66.2042 39.8894L66.383 39.583L66.5617 39.2766L66.7659 38.983L66.9574 38.6894L67.1745 38.4085L67.3915 38.1277L67.6085 37.8596L67.8383 37.5915L68.0808 37.3362L68.3234 37.0936L68.5787 36.8638L68.8213 36.6468L69.0893 36.4298L69.3447 36.2255L69.6127 36.034L69.8936 35.8681L70.1617 35.7021Z" fill="#2C3E50"/>
<path fill-rule="evenodd" clip-rule="evenodd" d="M71.2595 36.3149C74.2085 34.6553 76.6085 36.0085 76.6085 39.3149V41.4979L75.6383 42.1234C75.6446 42.0214 75.6446 41.919 75.6383 41.817C75.6383 41.6766 75.6383 39.634 75.6383 39.5064C75.4468 37.1191 73.5829 36.2128 71.3106 37.4766C70.1013 38.2373 69.0817 39.2641 68.3295 40.4786C67.5773 41.6932 67.1124 43.0635 66.9702 44.4851C66.9702 44.5872 66.9702 46.5915 66.9702 46.6936C66.9702 46.7957 66.9702 46.9872 66.9702 47.1149L65.9617 47.7021C65.9617 47.5617 65.9617 47.4085 65.9617 47.2553C65.9617 47.1021 65.9617 45.0213 65.9617 44.8553C66.1498 43.1267 66.7278 41.4634 67.6521 39.9907C68.5765 38.5179 69.823 37.2742 71.2978 36.3532L71.2595 36.3149Z" fill="#3D566E"/>
<path fill-rule="evenodd" clip-rule="evenodd" d="M72.651 53.0255C72.6073 53.0696 72.5552 53.1043 72.4978 53.1277L72.2425 53.2809C71.8978 53.4851 71.6169 53.2809 71.6169 52.9234V52.4128L72.651 53.0255Z" fill="#2C3E50"/>
<path fill-rule="evenodd" clip-rule="evenodd" d="M72.3703 47.3958C73.0979 46.9745 73.6469 47.3064 73.6469 48.149C73.6365 48.4969 73.5584 48.8394 73.4171 49.1575L73.0979 49.6937L71.2852 48.6341C71.5116 48.12 71.8904 47.6878 72.3703 47.3958Z" fill="#2C3E50"/>
<path fill-rule="evenodd" clip-rule="evenodd" d="M63.2554 47.7149L63.2427 47.7404L63.1788 47.8936L63.1278 48.0596L63.0895 48.2128L63.0512 48.3787L63.0384 48.5319L63.0256 48.6851V55.4511L63.0512 55.7319L63.1278 55.9617L63.2427 56.1532L63.3958 56.2809L66.3576 57.9915L66.2044 57.8638L66.0895 57.6723L66.0129 57.4426L65.9873 57.1617V50.3958L66.0001 50.2426L66.0129 50.0894L66.0512 49.9234L66.0895 49.7702L66.1405 49.6043L66.2044 49.4511L66.2171 49.4255L63.2554 47.7149Z" fill="#D3DCE4"/>
<path fill-rule="evenodd" clip-rule="evenodd" d="M70.1616 35.7022L70.4425 35.5617L70.7106 35.4213L70.9787 35.3192L71.2467 35.217L71.5021 35.1404L71.7574 35.0766L71.9999 35.0383L72.1404 35.0256L73.1999 35.6383L73.0978 35.6511L72.8425 35.6894L72.5872 35.7532L72.3319 35.8298L72.0638 35.9319L71.8084 36.0341L71.5276 36.1745L71.2595 36.3149L70.9787 36.4809L70.7106 36.6596L70.4936 36.8128L69.4084 36.1873L69.6127 36.0341L69.8936 35.8681L70.1616 35.7022Z" fill="#354C61"/>
<path fill-rule="evenodd" clip-rule="evenodd" d="M67.5065 40.1447L67.4682 40.1958L67.3022 40.5022L67.1235 40.8086L66.9703 41.1277L66.8171 41.4469L66.6767 41.766L66.549 42.0852L66.4341 42.4171L66.3192 42.7362L66.2299 43.0681L66.1405 43.4L66.0767 43.7192L66.0128 44.0383L65.9618 44.3703L65.9363 44.6894V44.7149L64.8384 44.0894V44.0766L64.8767 43.7575L64.9277 43.4383L64.9788 43.1064L65.0554 42.7873L65.1448 42.4554L65.2341 42.1362L65.3363 41.8043L65.4639 41.4852L65.5916 41.1532L65.732 40.8341L65.8724 40.5149L66.0384 40.1958L66.2043 39.8894L66.3831 39.583L66.4214 39.5192L67.5065 40.1447Z" fill="#233140"/>
<path d="M76.7946 85.5906L80.4665 83.4706L79.41 82.8606L76.9072 84.3056L72.2479 81.6156L71.0788 82.2906L76.7946 85.5906ZM78.8341 81.9331C80.0293 82.6531 82.1337 82.6481 83.3635 81.9081C84.6452 81.1981 84.6798 79.9681 83.4327 79.2781C82.2376 78.5581 80.1332 78.5831 78.8948 79.3181C77.613 80.0281 77.5871 81.2431 78.8341 81.9331ZM82.2463 79.9731C82.9131 80.3581 82.9304 80.9181 82.2982 81.2831C81.6487 81.6581 80.6961 81.6381 80.0293 81.2531C79.3451 80.8581 79.3105 80.3081 79.96 79.9331C80.5922 79.5681 81.5794 79.5881 82.2463 79.9731ZM85.4367 75.6511L85.9736 75.9611C85.2635 75.9011 84.5534 76.0511 83.9385 76.4061C82.7693 77.0811 82.7347 78.0811 84.0078 78.8161C85.2635 79.5411 87.0042 79.5461 88.1907 78.8611C88.7363 78.5461 89.0134 78.1861 88.9874 77.8111L89.2212 77.9461C89.8881 78.3311 89.7842 78.7911 89.0913 79.1911C88.5717 79.4911 87.9742 79.6061 87.1428 79.6761L87.342 80.5011C88.4678 80.4611 89.4377 80.2111 90.2431 79.7461C91.5855 78.9711 91.7154 78.0361 90.3211 77.2311L86.5106 75.0311L85.4367 75.6511ZM87.3679 76.8561C88.1041 77.2811 88.0348 77.8111 87.4459 78.1511C86.8223 78.5111 85.8784 78.5261 85.1856 78.1261C84.4927 77.7261 84.5447 77.2061 85.1769 76.8411C85.7745 76.4961 86.6318 76.4311 87.3679 76.8561ZM94.3839 75.4354L95.553 74.7604L91.2662 72.2854L90.0971 72.9604L94.3839 75.4354ZM88.3737 72.1554C88.7807 72.3904 89.4216 72.3804 89.8373 72.1404C90.253 71.9004 90.2789 71.5254 89.8719 71.2904C89.4562 71.0504 88.8067 71.0654 88.391 71.3054C87.9753 71.5454 87.958 71.9154 88.3737 72.1554ZM97.9914 70.2826C96.9521 69.6826 95.6531 69.6426 94.6572 70.2176C94.1462 70.5126 93.8864 70.8726 93.8864 71.2226L93.4967 70.9976L92.4228 71.6176L96.7096 74.0926L97.8788 73.4176L95.376 71.9726C94.8823 71.6876 94.8823 71.2976 95.3586 71.0226C95.835 70.7476 96.4931 70.7576 96.9868 71.0426L99.4896 72.4876L100.65 71.8176L97.9914 70.2826ZM103.551 69.0128C103.274 69.2028 103.101 69.3128 103.031 69.3528C102.477 69.6728 102.053 69.7078 101.568 69.4278L99.879 68.4528L101.091 67.7528L100.104 67.1828L98.8917 67.8828L97.8092 67.2578L96.64 67.9328L97.7226 68.5578L97.0471 68.9478L98.0343 69.5178L98.7098 69.1278L100.502 70.1628C101.576 70.7828 102.746 70.7278 103.828 70.1028C104.088 69.9528 104.322 69.7778 104.53 69.5778L103.551 69.0128ZM102.904 68.0366C104.099 68.7566 106.203 68.7516 107.433 68.0116C108.715 67.3016 108.749 66.0716 107.502 65.3816C106.307 64.6616 104.203 64.6866 102.964 65.4216C101.682 66.1316 101.656 67.3466 102.904 68.0366ZM106.316 66.0766C106.983 66.4616 107 67.0216 106.368 67.3866C105.718 67.7616 104.766 67.7416 104.099 67.3566C103.415 66.9616 103.38 66.4116 104.029 66.0366C104.662 65.6716 105.649 65.6916 106.316 66.0766ZM90.9498 84.3481C89.9105 83.7481 88.6115 83.7081 87.6069 84.2881C87.018 84.6281 86.7495 85.0531 86.7928 85.4681C86.1 85.3981 85.4678 85.5231 84.9049 85.8481C84.4113 86.1331 84.1515 86.4831 84.1688 86.8231L83.7877 86.6031L82.7139 87.2231L87.0007 89.6981L88.1698 89.0231L85.6757 87.5831C85.1647 87.2881 85.1561 86.9231 85.6324 86.6481C86.0914 86.3831 86.7149 86.3931 87.2259 86.6881L89.72 88.1281L90.8891 87.4531L88.369 85.9981C87.8927 85.7231 87.8927 85.3431 88.3517 85.0781C88.8107 84.8131 89.4342 84.8231 89.9452 85.1181L92.4393 86.5581L93.6085 85.8831L90.9498 84.3481ZM93.3625 81.0751L95.0599 83.3451L91.1975 82.3251L89.959 83.0401L95.6315 84.4151L95.7961 84.6601C96.0472 85.0351 95.9 85.2701 95.4843 85.5101C95.415 85.5501 95.2418 85.6401 94.9474 85.7801L95.926 86.3451C96.2551 86.2351 96.5408 86.1101 96.7833 85.9701C97.5801 85.5101 97.7013 84.9801 97.199 84.2401L94.5923 80.3651L93.3625 81.0751ZM103.035 77.5008C101.848 76.8158 100.48 76.8558 99.3629 77.5008C98.6095 77.9358 98.2804 78.4658 98.3757 79.0908L99.7007 79.1558C99.6747 78.7008 99.8046 78.4158 100.246 78.1608C100.766 77.8608 101.32 77.8608 101.796 78.1358L101.987 78.2458L100.913 78.8658C99.9172 79.4408 99.77 80.0758 100.541 80.5208C101.294 80.9558 102.394 80.9308 103.303 80.4058C103.849 80.0908 104.1 79.7158 104.091 79.3508L104.507 79.5908L105.581 78.9708L103.035 77.5008ZM102.81 78.7208C103.303 79.0058 103.269 79.4358 102.758 79.7308C102.385 79.9458 101.961 79.9808 101.675 79.8158C101.389 79.6508 101.459 79.4408 101.84 79.2208L102.758 78.6908L102.81 78.7208ZM109.088 74.4661C107.806 73.7261 105.97 73.6861 104.775 74.3761C104.186 74.7161 103.909 75.1361 104.03 75.5361L103.493 75.2261L102.419 75.8461L108.265 79.2211L109.434 78.5461L107.46 77.4061C108.109 77.4211 108.741 77.2661 109.261 76.9661C110.456 76.2761 110.369 75.2061 109.088 74.4661ZM107.91 75.1561C108.611 75.5611 108.603 76.1161 107.979 76.4761C107.382 76.8211 106.472 76.8561 105.71 76.4161C104.939 75.9711 105.026 75.4511 105.615 75.1111C106.247 74.7461 107.191 74.7411 107.91 75.1561ZM114.534 71.3216C113.252 70.5816 111.417 70.5416 110.221 71.2316C109.633 71.5716 109.355 71.9916 109.477 72.3916L108.94 72.0816L107.866 72.7016L113.711 76.0766L114.881 75.4016L112.906 74.2616C113.556 74.2766 114.188 74.1216 114.707 73.8216C115.903 73.1316 115.816 72.0616 114.534 71.3216ZM113.356 72.0116C114.058 72.4166 114.049 72.9716 113.426 73.3316C112.828 73.6766 111.919 73.7116 111.157 73.2716C110.386 72.8266 110.473 72.3066 111.061 71.9666C111.694 71.6016 112.638 71.5966 113.356 72.0116Z" fill="#002642"/>
<defs>
<linearGradient id="paint0_linear" x1="61.9209" y1="62.1593" x2="83.9237" y2="49.1892" gradientUnits="userSpaceOnUse">
<stop stop-color="#4F429F"/>
<stop offset="0.543707" stop-color="#6152BD"/>
<stop offset="1" stop-color="#6152BD"/>
</linearGradient>
<linearGradient id="paint1_linear" x1="71.9385" y1="51.7276" x2="73.6771" y2="51.0936" gradientUnits="userSpaceOnUse">
<stop stop-color="#4F429F"/>
<stop offset="0.543707" stop-color="#6152BD"/>
<stop offset="1" stop-color="#6152BD"/>
</linearGradient>
</defs>
</svg>
