<svg width="154" height="123" viewBox="0 0 154 123" fill="none" xmlns="http://www.w3.org/2000/svg">
<rect width="88.766" height="88.766" transform="matrix(0.866025 0.5 -0.866025 0.5 76.8735 33.7332)" fill="#D3DCE4"/>
<path d="M153.804 78.1512V70.383L144.244 75.3626L153.804 78.1512Z" fill="#D3DCE4"/>
<path d="M0.0346565 78.1512V70.383L9.59546 75.3626L0.0346565 78.1512Z" fill="#D3DCE4"/>
<rect width="88.766" height="88.766" transform="matrix(0.866025 0.5 -0.866025 0.5 76.8735 26)" fill="#F1F5F9"/>
<rect width="71.706" height="71.706" transform="matrix(0.866025 0.5 -0.866025 0.5 76.8735 34.53)" fill="white" stroke="white" stroke-width="0.398367"/>
<path d="M45.2522 74.8989L68.1476 61.6774C69.3913 60.9598 70.3997 59.0328 70.3997 57.3744V1.97284C70.3997 0.314395 69.3913 -0.447875 68.1476 0.270287L45.2522 13.4918C44.0082 14.2094 43 16.1364 43 17.7948V73.1964C43 74.8546 44.0082 75.6165 45.2522 74.8989Z" fill="#3D566E"/>
<path d="M49.197 35.6391L66.2222 25.5959V24.431L49.197 34.4741V35.6391Z" fill="#CCDBF2"/>
<path d="M49.197 28.9334L58.6271 23.4543V16.731L49.197 22.21V28.9334Z" fill="#CCDBF2"/>
<path d="M49.197 39.6491L66.2222 29.6059V28.441L49.197 38.4841V39.6491Z" fill="#CCDBF2"/>
<path d="M49.197 43.6591L66.2222 33.6159V32.4509L49.197 42.4941V43.6591Z" fill="#CCDBF2"/>
<path d="M49.197 47.669L66.2222 37.6259V36.4609L49.197 46.5041V47.669Z" fill="#CCDBF2"/>
<path d="M49.197 51.679L66.2222 41.6359V40.4709L49.197 50.5141V51.679Z" fill="#CCDBF2"/>
<path d="M49.197 55.689L59.6992 49.4748V48.3098L49.197 54.5242V55.689Z" fill="#CCDBF2"/>
<path d="M61.12 54.8488C60.9395 54.9756 60.7349 55.0629 60.5618 55.1989C60.3992 55.3268 60.2446 55.4705 60.0906 55.6088C59.7491 55.9155 59.4409 56.2829 59.1563 56.6429C58.8544 57.0247 58.5948 57.4372 58.2822 57.8116C57.9764 58.178 57.6804 58.5889 57.3317 58.9143C57.2628 58.9786 57.1917 59.0411 57.1205 59.1032C56.9887 59.2187 56.8929 59.1646 56.7354 59.1438C56.5572 59.12 56.399 59.1821 56.2537 59.2807C55.9336 59.4977 55.6882 59.8362 55.506 60.177C55.29 60.5815 55.1326 61.112 54.7946 61.4317C54.6434 61.5745 54.5459 61.5958 54.3507 61.5314C54.2441 61.4964 54.1442 61.4371 54.0458 61.3835C53.858 61.2815 53.6669 61.1882 53.4572 61.1399C53.1769 61.0723 52.8824 61.0955 52.616 61.2059C52.6127 61.1506 52.6092 61.0951 52.6055 61.0398C52.5306 59.9036 52.2729 58.7022 52.7131 57.6091C52.7481 57.524 52.6081 57.4677 52.5659 57.5471C52.4312 57.7976 52.3569 58.0792 52.2398 58.3381C52.1084 58.6287 51.9701 58.9157 51.8394 59.2073C51.5894 59.7638 51.3318 60.3207 51.0636 60.8687C50.7946 61.4183 50.4945 61.952 50.1646 62.4673C49.8482 62.9614 49.4995 63.443 49.2074 63.9511C49.1568 64.0386 49.2926 64.1184 49.3432 64.0306C49.6364 63.523 49.9838 63.0406 50.302 62.5477C50.6336 62.0334 50.9346 61.5002 51.2036 60.9507C51.4721 60.4028 51.7301 59.846 51.9796 59.2892C52.0925 59.0376 52.2096 58.788 52.3246 58.5375C52.2708 59.0825 52.3198 59.6391 52.366 60.1905C52.3965 60.5563 52.4259 60.922 52.4462 61.2878C52.1114 61.4731 51.8273 61.7766 51.5861 62.1015C51.0459 62.8286 50.79 63.8146 50.5662 64.678C50.4741 65.0335 50.3775 65.5418 50.5406 65.8917C50.6631 66.1542 50.9175 66.3212 51.2007 66.2309C51.5355 66.1243 51.7634 65.7291 51.9169 65.4396C52.1161 65.0643 52.2715 64.6565 52.3905 64.2493C52.6645 63.3133 52.6772 62.3539 52.6263 61.3907C52.7428 61.3342 52.8687 61.2998 52.9977 61.2892C53.4607 61.2508 53.8029 61.4955 54.2041 61.6727C54.5214 61.8127 54.7169 61.7849 54.9578 61.5411C55.2165 61.2794 55.3875 60.877 55.5429 60.546C55.7246 60.1595 55.966 59.7165 56.3221 59.4704C56.4345 59.3929 56.5205 59.3458 56.665 59.3463C56.7646 59.3463 56.856 59.3813 56.9545 59.3836C57.0946 59.3862 57.1788 59.3101 57.278 59.2215C57.6377 58.9005 57.9198 58.5242 58.2363 58.1622C58.5559 57.7966 58.8428 57.4082 59.1241 57.0126C59.4071 56.6165 59.7211 56.2435 60.0631 55.8971C60.2268 55.7312 60.4081 55.582 60.5826 55.4273C60.7752 55.2572 61.0052 55.1571 61.2128 55.0095C61.3104 54.9407 61.2184 54.7799 61.12 54.8488ZM52.455 62.8843C52.4024 63.7505 52.1439 64.6605 51.7182 65.4187C51.6183 65.5969 51.5005 65.7816 51.3507 65.9218C51.0916 66.1639 50.7718 66.0662 50.6868 65.717C50.5818 65.2861 50.7104 64.8275 50.8357 64.4167C51.0983 63.5566 51.3276 62.6231 51.9617 61.951C52.1208 61.7824 52.2768 61.6149 52.4579 61.4898C52.4819 61.9543 52.4809 62.4198 52.455 62.8843Z" fill="white"/>
<path d="M71.853 30.7805L67.8797 27.6282L56.6998 34.0582L47.1973 39.8366L71.3575 35.2528L79.1314 32.6851L71.853 30.7805Z" fill="url(#paint0_linear)"/>
<path d="M69.2474 31.4031L82.6142 23.6842C83.0534 23.4305 83.4523 23.4242 83.754 23.6142V23.6112L85.4312 24.5826L84.3066 24.7927C84.3101 24.8502 84.3134 24.908 84.3134 24.9689V56.4959C84.3134 57.7476 83.5524 59.2018 82.6137 59.7437L69.4345 67.3541C69.5546 67.7306 69.81 68.5225 69.81 68.5225L68.1699 67.5713C67.7896 67.3753 67.5466 66.8845 67.5466 66.1777V34.6498C67.5475 33.3985 68.3085 31.9442 69.2474 31.4031Z" fill="#2C3E50"/>
<path d="M84.3139 56.4955C84.3139 57.747 83.5529 59.2012 82.6142 59.7431L69.435 67.3536C69.5551 67.7301 69.8105 68.5219 69.8105 68.5219L68.1704 67.5708C67.7901 67.3747 67.5471 66.884 67.5471 66.1772V34.6498C67.5471 33.9969 67.7556 33.29 68.0869 32.6851L84.3136 42.0535L84.3139 56.4955Z" fill="#2C3E50"/>
<path d="M70.9334 68.4388L84.3002 60.7198C85.2389 60.1772 85.9999 58.7244 85.9999 57.4721V25.9452C85.9999 24.6936 85.2389 24.1182 84.3002 24.6603L70.9334 32.3793C69.9947 32.9219 69.2336 34.3747 69.2336 35.627V67.154C69.2336 68.4052 69.9947 68.9809 70.9334 68.4388Z" fill="#F7F9FE"/>
<path d="M71.1823 67.395L84.0263 59.9782C84.7241 59.5756 85.2898 58.4944 85.2898 57.5641V26.4847C85.2898 25.5544 84.7241 25.1268 84.0263 25.5295L71.1823 32.9466C70.4847 33.3491 69.9189 34.4301 69.9189 35.3604V66.4399C69.9189 67.3704 70.4847 67.798 71.1823 67.395Z" fill="url(#paint1_linear)"/>
<path d="M73.1252 45.0638V41.8608L75.9018 40.2668" stroke="white" stroke-width="0.7" stroke-miterlimit="10"/>
<path d="M80.3381 38.0292L83.0575 36.4854L83.0498 40.3209" stroke="white" stroke-width="0.7" stroke-miterlimit="10"/>
<path d="M83.0576 47.1964V50.3992L80.281 51.9932" stroke="white" stroke-width="0.7" stroke-miterlimit="10"/>
<path d="M75.8446 54.2308L73.1252 55.7748L73.1331 51.9391" stroke="white" stroke-width="0.7" stroke-miterlimit="10"/>
<path d="M74.71 30.4998V31.9876C74.71 32.3646 74.9393 32.5379 75.2219 32.3747L80.4271 29.3689C80.7098 29.2058 80.939 28.7677 80.939 28.3906V26.9475" fill="#F7F9FE"/>
<path d="M47.1973 39.8366L67.8797 27.6282V27.2531L47.1973 39.4615V39.8366Z" fill="url(#paint2_linear)"/>
<path d="M81.7881 84.4807C83.0006 84.6707 84.2909 84.4957 85.2609 83.9357C86.4041 83.2757 86.5946 82.3957 85.5467 81.7907C84.7759 81.3457 83.8493 81.3307 82.4636 81.6407L81.5283 81.8507C80.8268 82.0057 80.5064 82.0307 80.2033 81.8557C79.8482 81.6507 79.9522 81.3607 80.3592 81.1257C80.7922 80.8757 81.3724 80.7907 82.1086 80.8757L82.2904 80.0607C81.2772 79.8857 80.1946 80.0207 79.32 80.5257C78.2374 81.1507 78.0642 81.9907 79.0428 82.5557C79.8049 82.9957 80.8095 82.9857 82.0739 82.7057L82.9659 82.5107C83.7627 82.3407 84.0658 82.3057 84.4035 82.5007C84.7932 82.7257 84.7326 83.0407 84.2217 83.3357C83.5981 83.6957 82.8707 83.7457 81.9873 83.6657L81.7881 84.4807ZM85.7164 81.0727C86.9375 81.7977 89.0333 81.7877 90.263 81.0477C91.0944 80.5677 91.3455 79.9527 91.0598 79.3577L89.6221 79.4677C89.7347 79.8527 89.6481 80.1627 89.2065 80.4177C88.5483 80.7977 87.587 80.7827 86.9028 80.3877C86.236 80.0027 86.2013 79.4427 86.8595 79.0627C87.3099 78.8027 87.8555 78.7577 88.5136 78.8277L88.6955 77.9927C87.6649 77.8277 86.617 77.9727 85.777 78.4577C84.5039 79.1927 84.4606 80.3477 85.7164 81.0727ZM93.9329 75.8689C92.7464 75.1839 91.3781 75.2239 90.2609 75.8689C89.5075 76.3039 89.1784 76.8339 89.2736 77.4589L90.5987 77.5239C90.5727 77.0689 90.7026 76.7839 91.1443 76.5289C91.6639 76.2289 92.2181 76.2289 92.6944 76.5039L92.885 76.6139L91.8111 77.2339C90.8152 77.8089 90.6679 78.4439 91.4387 78.8889C92.1921 79.3239 93.292 79.2989 94.2013 78.7739C94.7469 78.4589 94.9981 78.0839 94.9894 77.7189L95.4051 77.9589L96.479 77.3389L93.9329 75.8689ZM93.7077 77.0889C94.2013 77.3739 94.1667 77.8039 93.6557 78.0989C93.2833 78.3139 92.859 78.3489 92.5732 78.1839C92.2874 78.0189 92.3567 77.8089 92.7377 77.5889L93.6557 77.0589L93.7077 77.0889ZM98.8858 72.8793C97.8466 72.2793 96.5476 72.2393 95.5516 72.8143C95.0407 73.1093 94.7809 73.4693 94.7809 73.8193L94.3912 73.5943L93.3173 74.2143L97.6041 76.6893L98.7733 76.0143L96.2704 74.5693C95.7768 74.2843 95.7768 73.8943 96.2531 73.6193C96.7294 73.3443 97.3876 73.3543 97.8813 73.6393L100.384 75.0843L101.545 74.4143L98.8858 72.8793ZM80.5222 96.5515L82.3929 95.4715C84.2288 94.4415 84.3154 92.9515 82.6354 92.0115C80.9726 91.0215 78.4698 91.1165 76.6771 92.1715L74.8065 93.2515L80.5222 96.5515ZM80.6348 95.2665L77.0322 93.1865L77.725 92.7865C78.8941 92.1115 80.3231 92.0665 81.4316 92.7065C82.5314 93.3415 82.4795 94.2015 81.3277 94.8665L80.6348 95.2665ZM84.0334 92.0444C85.2285 92.7644 87.3329 92.7594 88.5627 92.0194C89.8444 91.3094 89.879 90.0794 88.632 89.3894C87.4369 88.6694 85.3324 88.6944 84.094 89.4294C82.8123 90.1394 82.7863 91.3544 84.0334 92.0444ZM87.4455 90.0844C88.1124 90.4694 88.1297 91.0294 87.4975 91.3944C86.848 91.7694 85.8953 91.7494 85.2285 91.3644C84.5443 90.9694 84.5097 90.4194 85.1592 90.0444C85.7914 89.6794 86.7787 89.6994 87.4455 90.0844ZM89.3023 89.0024C90.5234 89.7274 92.6191 89.7174 93.8489 88.9774C94.6803 88.4974 94.9314 87.8824 94.6456 87.2874L93.208 87.3974C93.3206 87.7824 93.234 88.0924 92.7923 88.3474C92.1342 88.7274 91.1729 88.7124 90.4887 88.3174C89.8219 87.9324 89.7872 87.3724 90.4454 86.9924C90.8957 86.7324 91.4413 86.6874 92.0995 86.7574L92.2814 85.9224C91.2508 85.7574 90.2029 85.9024 89.3629 86.3874C88.0898 87.1224 88.0465 88.2774 89.3023 89.0024ZM94.5396 86.2786C95.7347 86.9686 97.3715 86.9436 98.5147 86.2836C99.6318 85.6386 99.6838 84.6886 98.4887 83.9986L96.0898 82.6136L94.9207 83.2886L97.4148 84.7286C97.9085 85.0136 97.8911 85.4036 97.4408 85.6636C96.9645 85.9386 96.2976 85.9436 95.804 85.6586L93.3099 84.2186L92.1407 84.8936L94.5396 86.2786ZM105.444 79.0932C104.404 78.4932 103.105 78.4532 102.101 79.0332C101.512 79.3732 101.243 79.7982 101.287 80.2132C100.594 80.1432 99.9616 80.2682 99.3987 80.5932C98.9051 80.8782 98.6453 81.2282 98.6626 81.5682L98.2815 81.3482L97.2077 81.9682L101.494 84.4432L102.664 83.7682L100.169 82.3282C99.6585 82.0332 99.6498 81.6682 100.126 81.3932C100.585 81.1282 101.209 81.1382 101.72 81.4332L104.214 82.8732L105.383 82.1982L102.863 80.7432C102.386 80.4682 102.386 80.0882 102.845 79.8232C103.304 79.5582 103.928 79.5682 104.439 79.8632L106.933 81.3032L108.102 80.6282L105.444 79.0932ZM111.407 76.7002C111.242 76.5452 111.052 76.4052 110.844 76.2852C109.727 75.6402 108.021 75.6152 106.834 76.3002C105.57 77.0002 105.57 78.1902 106.834 78.8902C108.047 79.6202 110.125 79.6102 111.424 78.8302C112.057 78.4652 112.412 78.0102 112.498 77.4702L111.216 77.2902C111.13 77.6702 110.879 77.9852 110.454 78.2302C109.831 78.5902 109.086 78.6702 108.402 78.4352L111.407 76.7002ZM107.579 77.9602C107.181 77.5802 107.241 77.1552 107.735 76.8702C108.246 76.5752 108.991 76.5352 109.528 76.8352L107.579 77.9602ZM115.428 73.3285C114.389 72.7285 113.09 72.6885 112.094 73.2635C111.583 73.5585 111.323 73.9185 111.323 74.2685L110.934 74.0435L109.86 74.6635L114.147 77.1385L115.316 76.4635L112.813 75.0185C112.319 74.7335 112.319 74.3435 112.796 74.0685C113.272 73.7935 113.93 73.8035 114.424 74.0885L116.927 75.5335L118.087 74.8635L115.428 73.3285ZM120.988 72.0587C120.711 72.2487 120.537 72.3587 120.468 72.3987C119.914 72.7187 119.49 72.7537 119.005 72.4737L117.316 71.4987L118.528 70.7987L117.541 70.2287L116.329 70.9287L115.246 70.3037L114.077 70.9787L115.159 71.6037L114.484 71.9937L115.471 72.5637L116.147 72.1737L117.939 73.2087C119.013 73.8287 120.182 73.7737 121.265 73.1487C121.525 72.9987 121.759 72.8237 121.966 72.6237L120.988 72.0587Z" fill="#002642"/>
<defs>
<linearGradient id="paint0_linear" x1="58.775" y1="36.4264" x2="62.6175" y2="28.5971" gradientUnits="userSpaceOnUse">
<stop stop-color="#4F429F"/>
<stop offset="0.543707" stop-color="#6152BD"/>
<stop offset="1" stop-color="#6152BD"/>
</linearGradient>
<linearGradient id="paint1_linear" x1="75.4917" y1="55.7676" x2="84.3088" y2="53.2642" gradientUnits="userSpaceOnUse">
<stop stop-color="#4F429F"/>
<stop offset="0.543707" stop-color="#6152BD"/>
<stop offset="1" stop-color="#6152BD"/>
</linearGradient>
<linearGradient id="paint2_linear" x1="54.6957" y1="36.3216" x2="59.5535" y2="30.1022" gradientUnits="userSpaceOnUse">
<stop stop-color="#4F429F"/>
<stop offset="0.543707" stop-color="#6152BD"/>
<stop offset="1" stop-color="#6152BD"/>
</linearGradient>
</defs>
</svg>
