<svg width="185" height="135" viewBox="0 0 185 135" fill="none" xmlns="http://www.w3.org/2000/svg">
<rect width="106.243" height="106.243" transform="matrix(0.866025 0.5 -0.866025 0.5 92.0095 28.2559)" fill="#D3DCE4"/>
<path d="M184.087 81.4194V72.1217L172.644 78.0817L184.087 81.4194Z" fill="#D3DCE4"/>
<path d="M0.041851 81.4194V72.1217L11.4851 78.0817L0.041851 81.4194Z" fill="#D3DCE4"/>
<rect width="106.243" height="106.243" transform="matrix(0.866025 0.5 -0.866025 0.5 92.0095 19)" fill="#F1F5F9"/>
<rect width="85.8244" height="85.8244" transform="matrix(0.866025 0.5 -0.866025 0.5 92.0095 29.2095)" fill="white" stroke="white" stroke-width="0.476802"/>
<path d="M126.626 61.4124V61.4221C126.559 61.5106 126.475 61.5843 126.378 61.6386L76.8614 90.4159C76.6107 90.5479 76.3309 90.6145 76.0477 90.6096C75.7645 90.6139 75.4848 90.5473 75.234 90.4159L43.9048 72.3371C43.8104 72.2953 43.7289 72.2288 43.669 72.1446C43.6092 72.0604 43.5731 71.9616 43.5647 71.8587V73.7513C43.574 73.8543 43.6105 73.9529 43.6706 74.037C43.7307 74.1211 43.8121 74.1876 43.9065 74.2298L75.2128 92.3053C75.2651 92.3357 75.3195 92.3623 75.3756 92.3851C75.4211 92.403 75.4683 92.4176 75.5155 92.4323L75.6376 92.4616L75.7531 92.4827L75.867 92.4941C75.9045 92.4941 75.9435 92.4941 75.9809 92.4941H76.1014L76.2316 92.4844C76.2804 92.4844 76.3308 92.473 76.3797 92.4648C76.4541 92.4516 76.5275 92.4331 76.5994 92.4095C76.6874 92.3822 76.772 92.3451 76.8516 92.2988L126.37 63.5215L126.383 63.5133C126.436 63.4833 126.485 63.4472 126.53 63.4059C126.556 63.3819 126.58 63.3558 126.601 63.3278C126.607 63.3205 126.613 63.3129 126.618 63.305V63.2953C126.627 63.284 126.636 63.272 126.644 63.2595C126.655 63.2379 126.666 63.2156 126.675 63.1927C126.683 63.1715 126.689 63.1498 126.694 63.1276C126.696 63.1054 126.696 63.0831 126.694 63.0609V61.1682C126.695 61.2545 126.671 61.3391 126.626 61.4124Z" fill="#403487"/>
<path d="M126.361 60.6768C126.813 60.9372 126.815 61.3668 126.361 61.6272L76.8484 90.4013C76.5938 90.5305 76.3122 90.5979 76.0266 90.5979C75.741 90.5979 75.4594 90.5305 75.2048 90.4013L43.8984 72.3371C43.446 72.0768 43.4427 71.6488 43.8984 71.3867L93.417 42.6012C93.672 42.4729 93.9534 42.406 94.2389 42.406C94.5243 42.406 94.8058 42.4729 95.0607 42.6012L126.361 60.6768Z" fill="url(#paint0_linear)"/>
<path d="M93.9866 1.51416C93.9962 1.41277 93.9786 1.31066 93.9357 1.2183C93.8928 1.12593 93.8261 1.04663 93.7425 0.98851L92.1037 0.0462375C92.0901 0.0387542 92.076 0.0322297 92.0614 0.0267094C92.0475 0.0198924 92.0327 0.0149722 92.0175 0.0120683L91.9719 0.000675329C91.9551 -0.000194104 91.9383 -0.000194104 91.9215 0.000675329H91.8677H91.845C91.833 -0.00022511 91.8211 -0.00022511 91.8092 0.000675329C91.785 0.00398799 91.7611 0.00887512 91.7376 0.0153164C91.705 0.0250808 91.6741 0.0364762 91.6415 0.0494954C91.6022 0.0655242 91.5641 0.0845631 91.5276 0.106451L41.8072 29.1068C41.7077 29.1657 41.6163 29.2374 41.5354 29.32C41.5216 29.3333 41.5085 29.3474 41.4964 29.3623L41.4817 29.3769L41.4443 29.416L41.3792 29.499C41.3597 29.5234 41.3418 29.5478 41.3239 29.5738C41.306 29.5999 41.2913 29.621 41.2767 29.6455C41.262 29.6699 41.2474 29.6926 41.2327 29.7154C41.2181 29.7382 41.2327 29.7154 41.2327 29.7154L41.2002 29.7756C41.1872 29.8001 41.1758 29.8228 41.1644 29.8472C41.153 29.8717 41.1416 29.8944 41.1318 29.9189C41.1221 29.9433 41.1107 29.9677 41.1009 29.9937L41.0732 30.0718L41.0618 30.1125V30.1223L41.0521 30.1565C41.0521 30.1874 41.0358 30.2183 41.0293 30.2492C41.0228 30.2801 41.0146 30.3257 41.0098 30.3631C41.0033 30.4171 41 30.4715 41 30.5259L41.2929 70.0474C41.283 70.1488 41.3005 70.251 41.3434 70.3435C41.3863 70.4359 41.4532 70.5152 41.5371 70.573L43.1775 71.5169C43.1284 71.4807 43.0874 71.4347 43.057 71.3818C43.2019 71.5836 43.459 71.6357 43.7633 71.4583L93.4659 42.4629C93.7038 42.3053 93.9013 42.094 94.0426 41.8461C94.184 41.5982 94.2651 41.3206 94.2796 41.0356L93.9866 1.51416ZM93.4821 0.936432C93.5142 0.938944 93.5458 0.944945 93.5765 0.954331C93.5452 0.944941 93.5131 0.938942 93.4805 0.936432H93.4821ZM42.9268 70.9994C42.9251 71.1115 42.9478 71.2226 42.9936 71.3249C42.9478 71.2226 42.9251 71.1115 42.9268 70.9994Z" fill="#2C3E50"/>
<path d="M93.2119 1.1529C93.6626 0.889258 94.0369 1.09919 94.0402 1.61996L94.3331 41.1414C94.319 41.4265 94.2379 41.7042 94.0966 41.9521C93.9552 42.2001 93.7575 42.4113 93.5194 42.5687L43.8071 71.5723C43.3564 71.8359 42.9837 71.6244 42.9788 71.1052L42.6875 31.5821C42.7016 31.2972 42.7826 31.0197 42.9239 30.772C43.0653 30.5243 43.2631 30.3134 43.5012 30.1565L93.2119 1.1529Z" fill="#3D566E"/>
<path d="M91.8531 4.35724L92.1216 40.8029L44.8781 68.3679L44.6079 31.9222L91.8531 4.35724Z" fill="url(#paint1_linear)"/>
<path d="M100.729 70.4005C100.949 70.5275 100.949 70.7341 100.729 70.8611L90.0402 77.0712C89.9171 77.1335 89.7811 77.1659 89.6431 77.1659C89.5052 77.1659 89.3692 77.1335 89.246 77.0712L82.0741 72.9295C81.856 72.8026 81.8544 72.5959 82.0741 72.469L92.7612 66.2588C92.8842 66.1962 93.0203 66.1635 93.1583 66.1635C93.2963 66.1635 93.4324 66.1962 93.5554 66.2588L100.729 70.4005Z" fill="#7B6CD7"/>
<path d="M93.3244 46.3882C93.2913 46.3985 93.2623 46.4191 93.2417 46.4471C93.2211 46.475 93.21 46.5089 93.21 46.5436C93.21 46.5783 93.2211 46.6121 93.2417 46.6401C93.2623 46.6681 93.2913 46.6887 93.3244 46.699L93.9754 47.0814C94.0585 47.124 94.1505 47.1462 94.2439 47.1462C94.3373 47.1462 94.4293 47.124 94.5124 47.0814L95.7769 46.3507C95.8101 46.3404 95.8391 46.3198 95.8597 46.2918C95.8803 46.2639 95.8914 46.23 95.8914 46.1953C95.8914 46.1606 95.8803 46.1268 95.8597 46.0988C95.8391 46.0708 95.8101 46.0502 95.7769 46.0399L95.126 45.6575C95.0429 45.6149 94.9508 45.5927 94.8574 45.5927C94.7641 45.5927 94.672 45.6149 94.5889 45.6575L93.3244 46.3882Z" fill="#7B6CD7"/>
<path d="M90.9956 47.7324C90.9624 47.7427 90.9334 47.7633 90.9128 47.7913C90.8922 47.8193 90.8811 47.8531 90.8811 47.8878C90.8811 47.9225 90.8922 47.9564 90.9128 47.9843C90.9334 48.0123 90.9624 48.0329 90.9956 48.0432L91.6465 48.4257C91.7299 48.4682 91.8222 48.4904 91.9159 48.4904C92.0095 48.4904 92.1018 48.4682 92.1852 48.4257L93.4497 47.695C93.4829 47.6847 93.5119 47.664 93.5325 47.6361C93.5531 47.6081 93.5642 47.5743 93.5642 47.5395C93.5642 47.5048 93.5531 47.471 93.5325 47.443C93.5119 47.4151 93.4829 47.3944 93.4497 47.3841L92.7987 47.0017C92.7159 46.9591 92.6241 46.937 92.531 46.937C92.4379 46.937 92.3461 46.9591 92.2633 47.0017L90.9956 47.7324Z" fill="#7B6CD7"/>
<path d="M88.7417 49.0343C88.7085 49.0446 88.6795 49.0652 88.6589 49.0932C88.6383 49.1212 88.6272 49.155 88.6272 49.1897C88.6272 49.2245 88.6383 49.2583 88.6589 49.2862C88.6795 49.3142 88.7085 49.3348 88.7417 49.3451L89.3926 49.7276C89.4761 49.7698 89.5684 49.7918 89.662 49.7918C89.7555 49.7918 89.8478 49.7698 89.9313 49.7276L91.1958 48.9969C91.2289 48.9866 91.2579 48.9659 91.2785 48.938C91.2991 48.91 91.3102 48.8762 91.3102 48.8415C91.3102 48.8067 91.2991 48.7729 91.2785 48.745C91.2579 48.717 91.2289 48.6963 91.1958 48.686L90.5367 48.3036C90.4539 48.2611 90.3621 48.2389 90.269 48.2389C90.1759 48.2389 90.0841 48.2611 90.0013 48.3036L88.7417 49.0343Z" fill="#7B6CD7"/>
<path d="M86.4875 50.3363C86.4544 50.3466 86.4253 50.3672 86.4048 50.3952C86.3842 50.4231 86.373 50.4569 86.373 50.4917C86.373 50.5264 86.3842 50.5602 86.4048 50.5882C86.4253 50.6161 86.4544 50.6368 86.4875 50.6471L87.1385 51.0295C87.2222 51.0712 87.3143 51.0929 87.4078 51.0929C87.5013 51.0929 87.5935 51.0712 87.6772 51.0295L88.9417 50.2988C88.9748 50.2885 89.0038 50.2679 89.0244 50.2399C89.045 50.212 89.0561 50.1781 89.0561 50.1434C89.0561 50.1087 89.045 50.0749 89.0244 50.0469C89.0038 50.0189 88.9748 49.9983 88.9417 49.988L88.2907 49.6056C88.2076 49.563 88.1155 49.5408 88.0222 49.5408C87.9288 49.5408 87.8367 49.563 87.7536 49.6056L86.4875 50.3363Z" fill="#7B6CD7"/>
<path d="M84.2353 51.6366C84.2021 51.6469 84.1732 51.6675 84.1526 51.6955C84.132 51.7234 84.1208 51.7572 84.1208 51.792C84.1208 51.8267 84.132 51.8605 84.1526 51.8885C84.1732 51.9164 84.2021 51.9371 84.2353 51.9474L84.8863 52.3298C84.9694 52.3724 85.0614 52.3946 85.1548 52.3946C85.2482 52.3946 85.3402 52.3724 85.4233 52.3298L86.6878 51.6007C86.7216 51.5909 86.7513 51.5703 86.7725 51.5422C86.7936 51.514 86.805 51.4797 86.805 51.4445C86.805 51.4093 86.7936 51.375 86.7725 51.3469C86.7513 51.3187 86.7216 51.2982 86.6878 51.2883L86.0369 50.9059C85.9535 50.8642 85.8616 50.8425 85.7683 50.8425C85.6751 50.8425 85.5832 50.8642 85.4998 50.9059L84.2353 51.6366Z" fill="#7B6CD7"/>
<path d="M81.9813 52.9385C81.9487 52.9492 81.9204 52.9699 81.9003 52.9977C81.8802 53.0254 81.8694 53.0588 81.8694 53.0931C81.8694 53.1274 81.8802 53.1608 81.9003 53.1885C81.9204 53.2163 81.9487 53.237 81.9813 53.2477L82.6323 53.6318C82.7155 53.674 82.8075 53.6959 82.9008 53.6959C82.9941 53.6959 83.0861 53.674 83.1693 53.6318L84.4338 52.9027C84.4676 52.8928 84.4973 52.8723 84.5184 52.8441C84.5396 52.8159 84.551 52.7817 84.551 52.7465C84.551 52.7112 84.5396 52.677 84.5184 52.6488C84.4973 52.6206 84.4676 52.6001 84.4338 52.5902L83.7829 52.2078C83.6997 52.1652 83.6077 52.143 83.5143 52.143C83.421 52.143 83.3289 52.1652 83.2458 52.2078L81.9813 52.9385Z" fill="#7B6CD7"/>
<path d="M79.7273 54.2388C79.6941 54.2491 79.6651 54.2697 79.6445 54.2977C79.6239 54.3257 79.6128 54.3595 79.6128 54.3942C79.6128 54.4289 79.6239 54.4628 79.6445 54.4907C79.6651 54.5187 79.6941 54.5393 79.7273 54.5496L80.3864 54.9321C80.4696 54.9743 80.5616 54.9962 80.6549 54.9962C80.7482 54.9962 80.8402 54.9743 80.9234 54.9321L82.1895 54.2014C82.2233 54.1915 82.253 54.1709 82.2741 54.1428C82.2953 54.1146 82.3067 54.0803 82.3067 54.0451C82.3067 54.0099 82.2953 53.9757 82.2741 53.9475C82.253 53.9193 82.2233 53.8988 82.1895 53.8889L81.5386 53.5065C81.4554 53.4639 81.3634 53.4417 81.27 53.4417C81.1767 53.4417 81.0846 53.4639 81.0015 53.5065L79.7273 54.2388Z" fill="#7B6CD7"/>
<path d="M77.4685 55.5391C77.4353 55.5494 77.4063 55.57 77.3857 55.598C77.3651 55.626 77.354 55.6598 77.354 55.6945C77.354 55.7292 77.3651 55.763 77.3857 55.791C77.4063 55.819 77.4353 55.8396 77.4685 55.8499L78.1194 56.2324C78.2025 56.2749 78.2946 56.2971 78.388 56.2971C78.4813 56.2971 78.5734 56.2749 78.6565 56.2324L79.921 55.5017C79.9541 55.4914 79.9831 55.4707 80.0037 55.4427C80.0243 55.4148 80.0354 55.381 80.0354 55.3462C80.0354 55.3115 80.0243 55.2777 80.0037 55.2497C79.9831 55.2218 79.9541 55.2011 79.921 55.1908L79.27 54.8084C79.1869 54.7658 79.0949 54.7436 79.0015 54.7436C78.9081 54.7436 78.8161 54.7658 78.733 54.8084L77.4685 55.5391Z" fill="#7B6CD7"/>
<path d="M75.2195 56.841C75.1863 56.8513 75.1573 56.8719 75.1367 56.8999C75.1161 56.9279 75.105 56.9617 75.105 56.9964C75.105 57.0311 75.1161 57.065 75.1367 57.0929C75.1573 57.1209 75.1863 57.1415 75.2195 57.1518L75.8704 57.5343C75.9535 57.5768 76.0456 57.599 76.1389 57.599C76.2323 57.599 76.3243 57.5768 76.4075 57.5343L77.672 56.8052C77.7051 56.7949 77.7341 56.7742 77.7547 56.7463C77.7753 56.7183 77.7864 56.6845 77.7864 56.6498C77.7864 56.615 77.7753 56.5812 77.7547 56.5533C77.7341 56.5253 77.7051 56.5047 77.672 56.4944L77.021 56.1103C76.9376 56.0686 76.8457 56.0469 76.7525 56.0469C76.6593 56.0469 76.5673 56.0686 76.4839 56.1103L75.2195 56.841Z" fill="#7B6CD7"/>
<path d="M72.9655 58.1429C72.9324 58.1532 72.9034 58.1739 72.8828 58.2018C72.8622 58.2298 72.8511 58.2636 72.8511 58.2983C72.8511 58.3331 72.8622 58.3669 72.8828 58.3949C72.9034 58.4228 72.9324 58.4435 72.9655 58.4538L73.6165 58.8362C73.6999 58.8779 73.7918 58.8996 73.885 58.8996C73.9782 58.8996 74.0702 58.8779 74.1536 58.8362L75.4197 58.1055C75.4528 58.0952 75.4818 58.0746 75.5024 58.0466C75.523 58.0186 75.5341 57.9848 75.5341 57.9501C75.5341 57.9154 75.523 57.8815 75.5024 57.8536C75.4818 57.8256 75.4528 57.805 75.4197 57.7947L74.7687 57.4122C74.6856 57.3697 74.5936 57.3475 74.5002 57.3475C74.4068 57.3475 74.3148 57.3697 74.2317 57.4122L72.9655 58.1429Z" fill="#7B6CD7"/>
<path d="M70.7131 59.4432C70.6799 59.4535 70.6509 59.4741 70.6303 59.5021C70.6097 59.5301 70.5986 59.5639 70.5986 59.5986C70.5986 59.6333 70.6097 59.6672 70.6303 59.6951C70.6509 59.7231 70.6799 59.7437 70.7131 59.754L71.3641 60.1365C71.4475 60.1791 71.5398 60.2012 71.6334 60.2012C71.727 60.2012 71.8193 60.1791 71.9027 60.1365L73.1672 59.4074C73.201 59.3975 73.2307 59.377 73.2518 59.3488C73.273 59.3206 73.2844 59.2864 73.2844 59.2512C73.2844 59.2159 73.273 59.1817 73.2518 59.1535C73.2307 59.1254 73.201 59.1048 73.1672 59.0949L72.5163 58.7125C72.4329 58.6708 72.341 58.6491 72.2477 58.6491C72.1545 58.6491 72.0626 58.6708 71.9792 58.7125L70.7131 59.4432Z" fill="#7B6CD7"/>
<path d="M68.4593 60.7435C68.3112 60.8298 68.3096 60.9697 68.4593 61.0543L69.1103 61.4368C69.1937 61.4794 69.286 61.5015 69.3796 61.5015C69.4733 61.5015 69.5656 61.4794 69.649 61.4368L70.9135 60.7061C70.9466 60.6958 70.9756 60.6751 70.9962 60.6472C71.0168 60.6192 71.0279 60.5854 71.0279 60.5506C71.0279 60.5159 71.0168 60.4821 70.9962 60.4541C70.9756 60.4262 70.9466 60.4055 70.9135 60.3952L70.2625 60.0128C70.1797 59.9703 70.0879 59.9481 69.9948 59.9481C69.9017 59.9481 69.8099 59.9703 69.7271 60.0128L68.4593 60.7435Z" fill="#7B6CD7"/>
<path d="M66.2053 62.0454C66.1721 62.0557 66.1431 62.0764 66.1225 62.1043C66.1019 62.1323 66.0908 62.1661 66.0908 62.2008C66.0908 62.2356 66.1019 62.2694 66.1225 62.2973C66.1431 62.3253 66.1721 62.346 66.2053 62.3563L66.8563 62.7387C66.9398 62.7808 67.032 62.8027 67.1256 62.8027C67.2191 62.8027 67.3114 62.7808 67.3949 62.7387L68.6611 62.008C68.6949 61.9981 68.7246 61.9776 68.7457 61.9494C68.7668 61.9212 68.7782 61.887 68.7782 61.8518C68.7782 61.8165 68.7668 61.7823 68.7457 61.7541C68.7246 61.7259 68.6949 61.7054 68.6611 61.6955L68.0019 61.3131C67.9191 61.2705 67.8274 61.2484 67.7343 61.2484C67.6411 61.2484 67.5494 61.2705 67.4665 61.3131L66.2053 62.0454Z" fill="#7B6CD7"/>
<path d="M63.9609 63.3457C63.9277 63.356 63.8987 63.3767 63.8781 63.4046C63.8575 63.4326 63.8464 63.4664 63.8464 63.5011C63.8464 63.5359 63.8575 63.5697 63.8781 63.5977C63.8987 63.6256 63.9277 63.6463 63.9609 63.6566L64.6119 64.039C64.6953 64.0816 64.7876 64.1038 64.8812 64.1038C64.9748 64.1038 65.0671 64.0816 65.1505 64.039L66.4134 63.3083C66.4466 63.298 66.4756 63.2774 66.4962 63.2494C66.5168 63.2214 66.5279 63.1876 66.5279 63.1529C66.5279 63.1182 66.5168 63.0843 66.4962 63.0564C66.4756 63.0284 66.4466 63.0078 66.4134 62.9975L65.7624 62.615C65.6796 62.5725 65.5879 62.5503 65.4947 62.5503C65.4016 62.5503 65.3098 62.5725 65.227 62.615L63.9609 63.3457Z" fill="#7B6CD7"/>
<path d="M61.6989 64.6476C61.6658 64.6579 61.6368 64.6786 61.6162 64.7065C61.5956 64.7345 61.5845 64.7683 61.5845 64.8031C61.5845 64.8378 61.5956 64.8716 61.6162 64.8996C61.6368 64.9275 61.6658 64.9482 61.6989 64.9585L62.3499 65.3409C62.4333 65.3835 62.5256 65.4057 62.6192 65.4057C62.7129 65.4057 62.8052 65.3835 62.8886 65.3409L64.1514 64.6118C64.1853 64.602 64.2149 64.5814 64.2361 64.5533C64.2572 64.5251 64.2686 64.4908 64.2686 64.4556C64.2686 64.4204 64.2572 64.3861 64.2361 64.358C64.2149 64.3298 64.1853 64.3092 64.1514 64.2994L63.5005 63.9169C63.4174 63.8752 63.3257 63.8534 63.2328 63.8534C63.1398 63.8534 63.0481 63.8752 62.9651 63.9169L61.6989 64.6476Z" fill="#7B6CD7"/>
<path d="M59.4466 65.9479C59.2969 66.0342 59.2953 66.1742 59.4466 66.2604L60.0976 66.6429C60.1813 66.6846 60.2735 66.7062 60.3669 66.7062C60.4604 66.7062 60.5526 66.6846 60.6363 66.6429L61.9008 65.9122C61.9339 65.9019 61.9629 65.8812 61.9835 65.8532C62.0041 65.8253 62.0152 65.7915 62.0152 65.7567C62.0152 65.722 62.0041 65.6882 61.9835 65.6602C61.9629 65.6323 61.9339 65.6116 61.9008 65.6013L61.2498 65.2189C61.1667 65.1763 61.0746 65.1541 60.9813 65.1541C60.8879 65.1541 60.7959 65.1763 60.7128 65.2189L59.4466 65.9479Z" fill="#7B6CD7"/>
<path d="M55.6889 68.1173C55.6558 68.1276 55.6268 68.1482 55.6062 68.1762C55.5856 68.2042 55.5745 68.238 55.5745 68.2727C55.5745 68.3074 55.5856 68.3413 55.6062 68.3692C55.6268 68.3972 55.6558 68.4178 55.6889 68.4281L56.3399 68.8106C56.4231 68.8527 56.5151 68.8747 56.6084 68.8747C56.7017 68.8747 56.7937 68.8527 56.8769 68.8106L58.1414 68.0815C58.1752 68.0716 58.2049 68.0511 58.2261 68.0229C58.2472 67.9947 58.2586 67.9605 58.2586 67.9253C58.2586 67.89 58.2472 67.8558 58.2261 67.8276C58.2049 67.7995 58.1752 67.7789 58.1414 67.769L57.4905 67.3866C57.4074 67.344 57.3153 67.3218 57.222 67.3218C57.1286 67.3218 57.0365 67.344 56.9534 67.3866L55.6889 68.1173Z" fill="#7B6CD7"/>
<path d="M53.435 69.4176C53.4019 69.4279 53.3729 69.4485 53.3523 69.4765C53.3317 69.5044 53.3206 69.5382 53.3206 69.573C53.3206 69.6077 53.3317 69.6415 53.3523 69.6695C53.3729 69.6974 53.4019 69.7181 53.435 69.7284L54.086 70.1108C54.1691 70.1534 54.2611 70.1756 54.3545 70.1756C54.4479 70.1756 54.5399 70.1534 54.623 70.1108L55.8875 69.3801C55.9207 69.3698 55.9497 69.3492 55.9703 69.3212C55.9909 69.2933 56.002 69.2594 56.002 69.2247C56.002 69.19 55.9909 69.1562 55.9703 69.1282C55.9497 69.1002 55.9207 69.0796 55.8875 69.0693L55.2366 68.6868C55.1535 68.6443 55.0614 68.6221 54.968 68.6221C54.8747 68.6221 54.7826 68.6443 54.6995 68.6868L53.435 69.4176Z" fill="#7B6CD7"/>
<path d="M51.1811 70.7195C51.148 70.7298 51.119 70.7504 51.0984 70.7784C51.0778 70.8063 51.0667 70.8402 51.0667 70.8749C51.0667 70.9096 51.0778 70.9434 51.0984 70.9714C51.119 70.9994 51.148 71.02 51.1811 71.0303L51.8321 71.4127C51.9152 71.4553 52.0072 71.4775 52.1006 71.4775C52.194 71.4775 52.286 71.4553 52.3691 71.4127L53.6353 70.682C53.6684 70.6717 53.6974 70.6511 53.718 70.6231C53.7386 70.5952 53.7497 70.5613 53.7497 70.5266C53.7497 70.4919 53.7386 70.4581 53.718 70.4301C53.6974 70.4021 53.6684 70.3815 53.6353 70.3712L52.9843 69.9888C52.9012 69.9462 52.8091 69.924 52.7158 69.924C52.6224 69.924 52.5304 69.9462 52.4472 69.9888L51.1811 70.7195Z" fill="#7B6CD7"/>
<path d="M48.9287 72.0198C48.8955 72.0301 48.8665 72.0507 48.8459 72.0787C48.8253 72.1067 48.8142 72.1405 48.8142 72.1752C48.8142 72.2099 48.8253 72.2438 48.8459 72.2717C48.8665 72.2997 48.8955 72.3203 48.9287 72.3306L49.5796 72.7131C49.6629 72.7553 49.7549 72.7772 49.8482 72.7772C49.9415 72.7772 50.0335 72.7553 50.1167 72.7131L51.3812 71.9824C51.4143 71.9721 51.4433 71.9514 51.4639 71.9235C51.4845 71.8955 51.4956 71.8617 51.4956 71.8269C51.4956 71.7922 51.4845 71.7584 51.4639 71.7304C51.4433 71.7025 51.4143 71.6818 51.3812 71.6715L50.7302 71.2891C50.6471 71.2465 50.5551 71.2243 50.4617 71.2243C50.3683 71.2243 50.2763 71.2465 50.1932 71.2891L48.9287 72.0198Z" fill="#7B6CD7"/>
<path d="M57.7768 69.3313C57.7437 69.3416 57.7147 69.3623 57.6941 69.3902C57.6735 69.4182 57.6624 69.452 57.6624 69.4867C57.6624 69.5215 57.6735 69.5553 57.6941 69.5832C57.7147 69.6112 57.7437 69.6318 57.7768 69.6421L59.0332 70.3712C59.1164 70.4134 59.2084 70.4354 59.3017 70.4354C59.395 70.4354 59.487 70.4134 59.5702 70.3712L60.8347 69.6405C60.8679 69.6302 60.8969 69.6096 60.9175 69.5816C60.9381 69.5536 60.9492 69.5198 60.9492 69.4851C60.9492 69.4504 60.9381 69.4166 60.9175 69.3886C60.8969 69.3606 60.8679 69.34 60.8347 69.3297L59.5783 68.599C59.4955 68.5564 59.4038 68.5342 59.3107 68.5342C59.2175 68.5342 59.1258 68.5564 59.0429 68.599L57.7768 69.3313Z" fill="#7B6CD7"/>
<path d="M95.2624 47.6901C95.2292 47.7004 95.2003 47.721 95.1797 47.749C95.1591 47.777 95.1479 47.8108 95.1479 47.8455C95.1479 47.8802 95.1591 47.914 95.1797 47.942C95.2003 47.97 95.2292 47.9906 95.2624 48.0009L96.5188 48.73C96.602 48.7722 96.694 48.7942 96.7873 48.7942C96.8806 48.7942 96.9726 48.7722 97.0558 48.73L98.47 47.9163C98.5038 47.9064 98.5335 47.8859 98.5546 47.8577C98.5758 47.8295 98.5872 47.7953 98.5872 47.7601C98.5872 47.7248 98.5758 47.6906 98.5546 47.6624C98.5335 47.6342 98.5038 47.6137 98.47 47.6038L97.2153 46.8748C97.1322 46.8322 97.0401 46.81 96.9468 46.81C96.8534 46.81 96.7614 46.8322 96.6783 46.8748L95.2624 47.6901Z" fill="#7B6CD7"/>
<path d="M92.8589 49.0767C92.8257 49.087 92.7967 49.1076 92.7761 49.1356C92.7555 49.1635 92.7444 49.1974 92.7444 49.2321C92.7444 49.2668 92.7555 49.3006 92.7761 49.3286C92.7967 49.3566 92.8257 49.3772 92.8589 49.3875L94.1136 50.1182C94.197 50.1608 94.2893 50.183 94.3829 50.183C94.4766 50.183 94.5689 50.1608 94.6523 50.1182L96.0665 49.3045C96.1003 49.2946 96.13 49.2741 96.1511 49.2459C96.1722 49.2178 96.1836 49.1835 96.1836 49.1483C96.1836 49.1131 96.1722 49.0788 96.1511 49.0506C96.13 49.0225 96.1003 49.0019 96.0665 48.992L94.8101 48.2613C94.727 48.2188 94.635 48.1966 94.5416 48.1966C94.4482 48.1966 94.3562 48.2188 94.2731 48.2613L92.8589 49.0767Z" fill="#7B6CD7"/>
<path d="M90.4536 50.4648C90.4204 50.4751 90.3914 50.4958 90.3708 50.5237C90.3502 50.5517 90.3391 50.5855 90.3391 50.6202C90.3391 50.655 90.3502 50.6888 90.3708 50.7167C90.3914 50.7447 90.4204 50.7654 90.4536 50.7757L91.7099 51.5064C91.7933 51.5489 91.8857 51.5711 91.9793 51.5711C92.0729 51.5711 92.1652 51.5489 92.2486 51.5064L93.6628 50.6927C93.696 50.6824 93.725 50.6617 93.7456 50.6338C93.7662 50.6058 93.7773 50.572 93.7773 50.5372C93.7773 50.5025 93.7662 50.4687 93.7456 50.4407C93.725 50.4128 93.696 50.3921 93.6628 50.3818L92.4065 49.6511C92.3234 49.6086 92.2313 49.5864 92.138 49.5864C92.0446 49.5864 91.9525 49.6086 91.8694 49.6511L90.4536 50.4648Z" fill="#7B6CD7"/>
<path d="M87.9 51.9393C87.7519 52.0255 87.7503 52.1655 87.9 52.2501L89.1564 52.9808C89.2395 53.0234 89.3315 53.0456 89.4249 53.0456C89.5183 53.0456 89.6103 53.0234 89.6934 52.9808L91.1092 52.1671C91.1424 52.1568 91.1714 52.1361 91.192 52.1082C91.2126 52.0802 91.2237 52.0464 91.2237 52.0117C91.2237 51.9769 91.2126 51.9431 91.192 51.9152C91.1714 51.8872 91.1424 51.8666 91.1092 51.8563L89.8529 51.1256C89.7701 51.083 89.6783 51.0608 89.5852 51.0608C89.4921 51.0608 89.4003 51.083 89.3175 51.1256L87.9 51.9393Z" fill="#7B6CD7"/>
<path d="M85.498 53.3274C85.4648 53.3377 85.4358 53.3584 85.4153 53.3863C85.3947 53.4143 85.3835 53.4481 85.3835 53.4828C85.3835 53.5176 85.3947 53.5514 85.4153 53.5793C85.4358 53.6073 85.4648 53.6279 85.498 53.6383L86.7544 54.3673C86.8378 54.4099 86.9301 54.4321 87.0237 54.4321C87.1173 54.4321 87.2096 54.4099 87.293 54.3673L88.7073 53.5536C88.7404 53.5433 88.7694 53.5227 88.79 53.4947C88.8106 53.4668 88.8217 53.4329 88.8217 53.3982C88.8217 53.3635 88.8106 53.3297 88.79 53.3017C88.7694 53.2737 88.7404 53.2531 88.7073 53.2428L87.4509 52.5121C87.3681 52.4696 87.2763 52.4474 87.1832 52.4474C87.0901 52.4474 86.9983 52.4696 86.9155 52.5121L85.498 53.3274Z" fill="#7B6CD7"/>
<path d="M83.0928 54.7156C83.0596 54.7259 83.0306 54.7466 83.01 54.7745C82.9894 54.8025 82.9783 54.8363 82.9783 54.871C82.9783 54.9058 82.9894 54.9396 83.01 54.9676C83.0306 54.9955 83.0596 55.0162 83.0928 55.0265L84.3491 55.7555C84.4322 55.7981 84.5243 55.8203 84.6176 55.8203C84.711 55.8203 84.803 55.7981 84.8861 55.7555L86.3004 54.9418C86.3335 54.9315 86.3625 54.9109 86.3831 54.8829C86.4037 54.855 86.4148 54.8211 86.4148 54.7864C86.4148 54.7517 86.4037 54.7179 86.3831 54.6899C86.3625 54.6619 86.3335 54.6413 86.3004 54.631L85.044 53.9003C84.9609 53.8577 84.8689 53.8355 84.7755 53.8355C84.6821 53.8355 84.5901 53.8577 84.507 53.9003L83.0928 54.7156Z" fill="#7B6CD7"/>
<path d="M80.6892 56.1038C80.656 56.1141 80.627 56.1347 80.6064 56.1627C80.5858 56.1906 80.5747 56.2244 80.5747 56.2592C80.5747 56.2939 80.5858 56.3277 80.6064 56.3557C80.627 56.3837 80.656 56.4043 80.6892 56.4146L81.9455 57.1437C82.0288 57.1859 82.1208 57.2078 82.2141 57.2078C82.3074 57.2078 82.3994 57.1859 82.4826 57.1437L83.8968 56.33C83.9306 56.3201 83.9603 56.2996 83.9814 56.2714C84.0026 56.2432 84.014 56.209 84.014 56.1737C84.014 56.1385 84.0026 56.1043 83.9814 56.0761C83.9603 56.0479 83.9306 56.0274 83.8968 56.0175L82.6404 55.2868C82.5572 55.2446 82.4652 55.2227 82.3719 55.2227C82.2786 55.2227 82.1866 55.2446 82.1034 55.2868L80.6892 56.1038Z" fill="#7B6CD7"/>
<path d="M78.2821 57.492C78.2495 57.5027 78.2212 57.5234 78.2011 57.5511C78.181 57.5789 78.1702 57.6123 78.1702 57.6466C78.1702 57.6808 78.181 57.7142 78.2011 57.742C78.2212 57.7698 78.2495 57.7905 78.2821 57.8012L79.5368 58.5319C79.6202 58.5745 79.7125 58.5967 79.8062 58.5967C79.8998 58.5967 79.9921 58.5745 80.0755 58.5319L81.4913 57.7182C81.5245 57.7079 81.5535 57.6872 81.5741 57.6593C81.5947 57.6313 81.6058 57.5975 81.6058 57.5628C81.6058 57.528 81.5947 57.4942 81.5741 57.4663C81.5535 57.4383 81.5245 57.4177 81.4913 57.4074L80.235 56.6766C80.1519 56.6349 80.0602 56.6131 79.9673 56.6131C79.8743 56.6131 79.7826 56.6349 79.6996 56.6766L78.2821 57.492Z" fill="#7B6CD7"/>
<path d="M75.8818 58.8785C75.8486 58.8888 75.8196 58.9094 75.799 58.9374C75.7784 58.9654 75.7673 58.9992 75.7673 59.0339C75.7673 59.0686 75.7784 59.1025 75.799 59.1304C75.8196 59.1584 75.8486 59.179 75.8818 59.1893L77.1382 59.9184C77.2215 59.961 77.3139 59.9832 77.4075 59.9832C77.5011 59.9832 77.5934 59.961 77.6768 59.9184L79.091 59.1047C79.1242 59.0944 79.1532 59.0738 79.1738 59.0458C79.1944 59.0178 79.2055 58.984 79.2055 58.9493C79.2055 58.9146 79.1944 58.8807 79.1738 58.8528C79.1532 58.8248 79.1242 58.8042 79.091 58.7939L77.8347 58.0632C77.7516 58.0206 77.6595 57.9984 77.5662 57.9984C77.4728 57.9984 77.3807 58.0206 77.2976 58.0632L75.8818 58.8785Z" fill="#7B6CD7"/>
<path d="M73.478 60.2667C73.4448 60.277 73.4158 60.2976 73.3952 60.3256C73.3746 60.3536 73.3635 60.3874 73.3635 60.4221C73.3635 60.4568 73.3746 60.4906 73.3952 60.5186C73.4158 60.5466 73.4448 60.5672 73.478 60.5775L74.7343 61.3066C74.8175 61.3491 74.9095 61.3713 75.0029 61.3713C75.0962 61.3713 75.1883 61.3491 75.2714 61.3066L76.6856 60.4929C76.7188 60.4826 76.7478 60.4619 76.7684 60.434C76.789 60.406 76.8001 60.3722 76.8001 60.3375C76.8001 60.3027 76.789 60.2689 76.7684 60.241C76.7478 60.213 76.7188 60.1924 76.6856 60.1821L75.4292 59.4513C75.3461 59.4088 75.2541 59.3866 75.1607 59.3866C75.0673 59.3866 74.9753 59.4088 74.8922 59.4513L73.478 60.2667Z" fill="#7B6CD7"/>
<path d="M71.0744 61.6548C71.0413 61.6651 71.0123 61.6858 70.9917 61.7137C70.9711 61.7417 70.96 61.7755 70.96 61.8102C70.96 61.845 70.9711 61.8788 70.9917 61.9068C71.0123 61.9347 71.0413 61.9554 71.0744 61.9657L72.3308 62.6947C72.414 62.7369 72.506 62.7589 72.5993 62.7589C72.6926 62.7589 72.7846 62.7369 72.8678 62.6947L74.2821 61.881C74.3152 61.8707 74.3442 61.8501 74.3648 61.8221C74.3854 61.7942 74.3965 61.7604 74.3965 61.7256C74.3965 61.6909 74.3854 61.6571 74.3648 61.6291C74.3442 61.6011 74.3152 61.5805 74.2821 61.5702L73.0273 60.8395C72.9442 60.7969 72.8522 60.7747 72.7588 60.7747C72.6654 60.7747 72.5734 60.7969 72.4903 60.8395L71.0744 61.6548Z" fill="#7B6CD7"/>
<path d="M68.6706 63.043C68.6375 63.0533 68.6085 63.0739 68.5879 63.1019C68.5673 63.1299 68.5562 63.1637 68.5562 63.1984C68.5562 63.2331 68.5673 63.267 68.5879 63.2949C68.6085 63.3229 68.6375 63.3435 68.6706 63.3538L69.927 64.0829C70.0105 64.1251 70.1027 64.1471 70.1963 64.1471C70.2899 64.1471 70.3821 64.1251 70.4656 64.0829L71.8815 63.2692C71.9147 63.2589 71.9437 63.2383 71.9643 63.2103C71.9849 63.1824 71.996 63.1485 71.996 63.1138C71.996 63.0791 71.9849 63.0452 71.9643 63.0173C71.9437 62.9893 71.9147 62.9687 71.8815 62.9584L70.6251 62.2277C70.5418 62.186 70.4498 62.1643 70.3566 62.1643C70.2634 62.1643 70.1715 62.186 70.0881 62.2277L68.6706 63.043Z" fill="#7B6CD7"/>
<path d="M66.2655 64.4312C66.2329 64.4419 66.2046 64.4626 66.1845 64.4904C66.1644 64.5181 66.1536 64.5515 66.1536 64.5858C66.1536 64.6201 66.1644 64.6535 66.1845 64.6812C66.2046 64.709 66.2329 64.7297 66.2655 64.7404L67.5218 65.4711C67.6049 65.5137 67.697 65.5359 67.7904 65.5359C67.8837 65.5359 67.9758 65.5137 68.0589 65.4711L69.4747 64.6574C69.5079 64.6471 69.5369 64.6265 69.5575 64.5985C69.5781 64.5705 69.5892 64.5367 69.5892 64.502C69.5892 64.4673 69.5781 64.4334 69.5575 64.4055C69.5369 64.3775 69.5079 64.3569 69.4747 64.3466L68.2184 63.6159C68.135 63.5742 68.0431 63.5525 67.9498 63.5525C67.8566 63.5525 67.7647 63.5742 67.6813 63.6159L66.2655 64.4312Z" fill="#7B6CD7"/>
<path d="M61.5347 67.162C61.3866 67.2482 61.3833 67.3882 61.5347 67.4728L62.791 68.2035C62.8744 68.2461 62.9667 68.2683 63.0603 68.2683C63.154 68.2683 63.2463 68.2461 63.3297 68.2035L64.2801 67.6551L64.5942 67.4728L66.8465 66.1709C66.8797 66.1606 66.9087 66.14 66.9293 66.112C66.9499 66.084 66.961 66.0502 66.961 66.0155C66.961 65.9808 66.9499 65.9469 66.9293 65.919C66.9087 65.891 66.8797 65.8704 66.8465 65.8601L65.5902 65.1294C65.5068 65.0877 65.4148 65.066 65.3216 65.066C65.2284 65.066 65.1365 65.0877 65.0531 65.1294L62.8008 66.4313L62.4867 66.6119L61.5347 67.162Z" fill="#7B6CD7"/>
<path d="M96.5742 49.6983C96.541 49.7086 96.512 49.7293 96.4914 49.7572C96.4708 49.7852 96.4597 49.819 96.4597 49.8537C96.4597 49.8885 96.4708 49.9223 96.4914 49.9503C96.512 49.9782 96.541 49.9989 96.5742 50.0092L97.8305 50.7399C97.9136 50.7824 98.0057 50.8046 98.0991 50.8046C98.1924 50.8046 98.2845 50.7824 98.3676 50.7399L100.858 49.3012C100.891 49.2909 100.92 49.2703 100.94 49.2423C100.961 49.2144 100.972 49.1806 100.972 49.1458C100.972 49.1111 100.961 49.0773 100.94 49.0493C100.92 49.0214 100.891 49.0007 100.858 48.9904L99.6011 48.2613C99.5183 48.2188 99.4266 48.1966 99.3334 48.1966C99.2403 48.1966 99.1486 48.2188 99.0657 48.2613L96.5742 49.6983Z" fill="#7B6CD7"/>
<path d="M94.1949 51.0735C94.1624 51.0842 94.134 51.1049 94.1139 51.1326C94.0938 51.1604 94.083 51.1938 94.083 51.2281C94.083 51.2623 94.0938 51.2957 94.1139 51.3235C94.134 51.3513 94.1624 51.372 94.1949 51.3827L95.4513 52.1134C95.5341 52.1559 95.6259 52.1781 95.719 52.1781C95.8121 52.1781 95.9039 52.1559 95.9867 52.1134L97.4025 51.2997C97.4357 51.2894 97.4647 51.2687 97.4853 51.2408C97.5059 51.2128 97.517 51.179 97.517 51.1443C97.517 51.1095 97.5059 51.0757 97.4853 51.0477C97.4647 51.0198 97.4357 50.9991 97.4025 50.9888L96.1462 50.2581C96.0631 50.2163 95.9714 50.1946 95.8785 50.1946C95.7855 50.1946 95.6938 50.2163 95.6108 50.2581L94.1949 51.0735Z" fill="#7B6CD7"/>
<path d="M91.7895 52.46C91.7563 52.4703 91.7274 52.491 91.7068 52.5189C91.6862 52.5469 91.675 52.5807 91.675 52.6154C91.675 52.6502 91.6862 52.684 91.7068 52.712C91.7274 52.7399 91.7563 52.7606 91.7895 52.7709L93.0459 53.4999C93.129 53.5425 93.221 53.5647 93.3144 53.5647C93.4078 53.5647 93.4998 53.5425 93.5829 53.4999L94.9971 52.6862C95.0303 52.6759 95.0593 52.6553 95.0799 52.6273C95.1005 52.5994 95.1116 52.5656 95.1116 52.5308C95.1116 52.4961 95.1005 52.4623 95.0799 52.4343C95.0593 52.4063 95.0303 52.3857 94.9971 52.3754L93.7408 51.6447C93.6579 51.6022 93.5662 51.58 93.4731 51.58C93.3799 51.58 93.2882 51.6022 93.2053 51.6447L91.7895 52.46Z" fill="#7B6CD7"/>
<path d="M89.2378 53.9345C89.2046 53.9448 89.1756 53.9654 89.155 53.9934C89.1344 54.0213 89.1233 54.0551 89.1233 54.0899C89.1233 54.1246 89.1344 54.1584 89.155 54.1864C89.1756 54.2143 89.2046 54.235 89.2378 54.2453L90.4941 54.976C90.5772 55.0178 90.6689 55.0395 90.7618 55.0395C90.8548 55.0395 90.9465 55.0178 91.0295 54.976L92.4438 54.1623C92.4769 54.152 92.5059 54.1313 92.5265 54.1034C92.5471 54.0754 92.5582 54.0416 92.5582 54.0069C92.5582 53.9721 92.5471 53.9383 92.5265 53.9104C92.5059 53.8824 92.4769 53.8618 92.4438 53.8515L91.189 53.1208C91.1057 53.0791 91.0137 53.0574 90.9205 53.0574C90.8273 53.0574 90.7354 53.0791 90.652 53.1208L89.2378 53.9345Z" fill="#7B6CD7"/>
<path d="M86.8342 55.3226C86.801 55.3329 86.772 55.3536 86.7514 55.3815C86.7308 55.4095 86.7197 55.4433 86.7197 55.478C86.7197 55.5128 86.7308 55.5466 86.7514 55.5745C86.772 55.6025 86.801 55.6231 86.8342 55.6334L88.0889 56.3625C88.172 56.4051 88.2641 56.4273 88.3575 56.4273C88.4508 56.4273 88.5429 56.4051 88.626 56.3625L90.0402 55.5488C90.0734 55.5385 90.1024 55.5179 90.123 55.4899C90.1435 55.462 90.1547 55.4281 90.1547 55.3934C90.1547 55.3587 90.1435 55.3249 90.123 55.2969C90.1024 55.2689 90.0734 55.2483 90.0402 55.238L88.7838 54.5073C88.7008 54.4655 88.6091 54.4437 88.5161 54.4437C88.4232 54.4437 88.3315 54.4655 88.2484 54.5073L86.8342 55.3226Z" fill="#7B6CD7"/>
<path d="M84.4306 56.7141C84.3975 56.7244 84.3685 56.745 84.3479 56.773C84.3273 56.8009 84.3162 56.8348 84.3162 56.8695C84.3162 56.9042 84.3273 56.9381 84.3479 56.966C84.3685 56.994 84.3975 57.0146 84.4306 57.0249L85.687 57.754C85.7701 57.7966 85.8621 57.8188 85.9555 57.8188C86.0489 57.8188 86.1409 57.7966 86.224 57.754L87.6382 56.9403C87.7863 56.854 87.7896 56.7141 87.6382 56.6278L86.3819 55.8987C86.2988 55.8562 86.2067 55.834 86.1134 55.834C86.02 55.834 85.9279 55.8562 85.8448 55.8987L84.4306 56.7141Z" fill="#7B6CD7"/>
<path d="M82.0251 58.099C81.9919 58.1093 81.9629 58.1299 81.9424 58.1579C81.9218 58.1858 81.9106 58.2197 81.9106 58.2544C81.9106 58.2891 81.9218 58.3229 81.9424 58.3509C81.9629 58.3789 81.9919 58.3995 82.0251 58.4098L83.2815 59.1389C83.3646 59.1815 83.4566 59.2036 83.55 59.2036C83.6434 59.2036 83.7354 59.1815 83.8185 59.1389L85.2327 58.3252C85.2659 58.3149 85.2949 58.2943 85.3155 58.2663C85.3361 58.2383 85.3472 58.2045 85.3472 58.1698C85.3472 58.135 85.3361 58.1012 85.3155 58.0733C85.2949 58.0453 85.2659 58.0247 85.2327 58.0144L83.9764 57.2853C83.8933 57.2427 83.8012 57.2205 83.7078 57.2205C83.6145 57.2205 83.5224 57.2427 83.4393 57.2853L82.0251 58.099Z" fill="#7B6CD7"/>
<path d="M79.6233 59.4807C79.5901 59.491 79.5611 59.5116 79.5405 59.5396C79.5199 59.5675 79.5088 59.6013 79.5088 59.6361C79.5088 59.6708 79.5199 59.7046 79.5405 59.7326C79.5611 59.7606 79.5901 59.7812 79.6233 59.7915L80.8796 60.5222C80.9627 60.564 81.0543 60.5857 81.1473 60.5857C81.2403 60.5857 81.332 60.564 81.415 60.5222L82.8292 59.7085C82.8624 59.6982 82.8914 59.6776 82.912 59.6496C82.9326 59.6216 82.9437 59.5878 82.9437 59.5531C82.9437 59.5183 82.9326 59.4845 82.912 59.4566C82.8914 59.4286 82.8624 59.408 82.8292 59.3977L81.5745 58.6669C81.4911 58.6253 81.3992 58.6036 81.306 58.6036C81.2128 58.6036 81.1209 58.6253 81.0375 58.6669L79.6233 59.4807Z" fill="#7B6CD7"/>
<path d="M77.2194 60.8737C77.1863 60.884 77.1573 60.9046 77.1367 60.9326C77.1161 60.9606 77.105 60.9944 77.105 61.0291C77.105 61.0638 77.1161 61.0977 77.1367 61.1256C77.1573 61.1536 77.1863 61.1742 77.2194 61.1845L78.4742 61.9152C78.5576 61.9569 78.6495 61.9786 78.7427 61.9786C78.8359 61.9786 78.9278 61.9569 79.0112 61.9152L80.4254 61.1015C80.4586 61.0912 80.4876 61.0706 80.5082 61.0426C80.5288 61.0147 80.5399 60.9808 80.5399 60.9461C80.5399 60.9114 80.5288 60.8776 80.5082 60.8496C80.4876 60.8216 80.4586 60.801 80.4254 60.7907L79.1691 60.06C79.086 60.0182 78.9944 59.9964 78.9014 59.9964C78.8084 59.9964 78.7167 60.0182 78.6337 60.06L77.2194 60.8737Z" fill="#7B6CD7"/>
<path d="M74.8142 62.2619C74.781 62.2722 74.752 62.2928 74.7314 62.3208C74.7108 62.3487 74.6997 62.3826 74.6997 62.4173C74.6997 62.452 74.7108 62.4858 74.7314 62.5138C74.752 62.5418 74.781 62.5624 74.8142 62.5727L76.0705 63.3018C76.1537 63.3443 76.2457 63.3665 76.3391 63.3665C76.4324 63.3665 76.5245 63.3443 76.6076 63.3018L78.0218 62.4881C78.055 62.4778 78.084 62.4571 78.1046 62.4292C78.1252 62.4012 78.1363 62.3674 78.1363 62.3327C78.1363 62.2979 78.1252 62.2641 78.1046 62.2362C78.084 62.2082 78.055 62.1875 78.0218 62.1772L76.7654 61.4465C76.6822 61.4044 76.5902 61.3824 76.4969 61.3824C76.4036 61.3824 76.3116 61.4044 76.2284 61.4465L74.8142 62.2619Z" fill="#7B6CD7"/>
<path d="M72.4106 63.6501C72.3775 63.6604 72.3484 63.681 72.3278 63.709C72.3073 63.7369 72.2961 63.7708 72.2961 63.8055C72.2961 63.8402 72.3073 63.874 72.3278 63.902C72.3484 63.93 72.3775 63.9506 72.4106 63.9609L73.667 64.69C73.7498 64.7325 73.8416 64.7547 73.9347 64.7547C74.0278 64.7547 74.1196 64.7325 74.2024 64.69L75.6182 63.8763C75.6514 63.866 75.6804 63.8453 75.701 63.8174C75.7216 63.7894 75.7327 63.7556 75.7327 63.7209C75.7327 63.6861 75.7216 63.6523 75.701 63.6243C75.6804 63.5964 75.6514 63.5757 75.6182 63.5654L74.3635 62.8364C74.2804 62.7938 74.1884 62.7716 74.095 62.7716C74.0016 62.7716 73.9096 62.7938 73.8265 62.8364L72.4106 63.6501Z" fill="#7B6CD7"/>
<path d="M70.0068 65.0382C69.9736 65.0485 69.9446 65.0692 69.924 65.0971C69.9034 65.1251 69.8923 65.1589 69.8923 65.1936C69.8923 65.2284 69.9034 65.2622 69.924 65.2902C69.9446 65.3181 69.9736 65.3388 70.0068 65.3491L71.2632 66.0781C71.346 66.1207 71.4377 66.1429 71.5309 66.1429C71.624 66.1429 71.7157 66.1207 71.7986 66.0781L73.2144 65.2644C73.2476 65.2541 73.2766 65.2335 73.2972 65.2055C73.3178 65.1776 73.3289 65.1437 73.3289 65.109C73.3289 65.0743 73.3178 65.0405 73.2972 65.0125C73.2766 64.9845 73.2476 64.9639 73.2144 64.9536L71.9581 64.2245C71.8752 64.182 71.7835 64.1598 71.6903 64.1598C71.5972 64.1598 71.5055 64.182 71.4226 64.2245L70.0068 65.0382Z" fill="#7B6CD7"/>
<path d="M67.6032 66.4248C67.5701 66.4351 67.5411 66.4557 67.5205 66.4837C67.4999 66.5116 67.4888 66.5454 67.4888 66.5802C67.4888 66.6149 67.4999 66.6487 67.5205 66.6767C67.5411 66.7046 67.5701 66.7253 67.6032 66.7356L68.8596 67.4663C68.943 67.508 69.0349 67.5297 69.1281 67.5297C69.2213 67.5297 69.3133 67.508 69.3966 67.4663L70.8108 66.6526C70.844 66.6423 70.873 66.6216 70.8936 66.5937C70.9142 66.5657 70.9253 66.5319 70.9253 66.4972C70.9253 66.4624 70.9142 66.4286 70.8936 66.4007C70.873 66.3727 70.844 66.3521 70.8108 66.3418L69.5545 65.6111C69.4711 65.5694 69.3792 65.5477 69.286 65.5477C69.1928 65.5477 69.1008 65.5694 69.0174 65.6111L67.6032 66.4248Z" fill="#7B6CD7"/>
<path d="M63.8617 68.5941C63.7478 68.6592 63.7722 68.7845 63.9203 68.8691L65.1766 69.5999C65.248 69.6422 65.3282 69.6674 65.411 69.6733C65.4938 69.6792 65.5768 69.6658 65.6535 69.634L66.3939 69.206L66.638 69.0661L68.3891 68.0538C68.5047 67.9871 68.4803 67.8634 68.3322 67.7771L67.0758 67.0481C67.0045 67.0057 66.9242 66.9806 66.8414 66.9746C66.7587 66.9687 66.6757 66.9821 66.599 67.0139L64.8463 68.0245L64.6038 68.1661L63.8617 68.5941Z" fill="#7B6CD7"/>
<path d="M98.7112 51.2314C98.5647 51.3176 98.5615 51.4576 98.7112 51.5422L99.9675 52.2729C100.051 52.3151 100.143 52.3371 100.236 52.3371C100.329 52.3371 100.421 52.3151 100.505 52.2729L103.247 50.6894C103.28 50.6791 103.309 50.6585 103.33 50.6305C103.35 50.6026 103.361 50.5688 103.361 50.534C103.361 50.4993 103.35 50.4655 103.33 50.4375C103.309 50.4096 103.28 50.3889 103.247 50.3786L101.99 49.6495C101.907 49.607 101.815 49.5848 101.722 49.5848C101.628 49.5848 101.536 49.607 101.453 49.6495L98.7112 51.2314Z" fill="#7B6CD7"/>
<path d="M96.2829 52.6342C96.2498 52.6445 96.2208 52.6651 96.2002 52.6931C96.1796 52.721 96.1685 52.7549 96.1685 52.7896C96.1685 52.8243 96.1796 52.8581 96.2002 52.8861C96.2208 52.9141 96.2498 52.9347 96.2829 52.945L97.5393 53.6741C97.6221 53.7166 97.7139 53.7388 97.807 53.7388C97.9001 53.7388 97.9919 53.7166 98.0747 53.6741L99.4905 52.8604C99.5243 52.8505 99.554 52.8299 99.5752 52.8018C99.5963 52.7736 99.6077 52.7394 99.6077 52.7041C99.6077 52.6689 99.5963 52.6347 99.5752 52.6065C99.554 52.5783 99.5243 52.5578 99.4905 52.5479L98.2358 51.8188C98.1524 51.7763 98.0601 51.7541 97.9665 51.7541C97.8728 51.7541 97.7805 51.7763 97.6971 51.8188L96.2829 52.6342Z" fill="#7B6CD7"/>
<path d="M93.8791 54.0223C93.8459 54.0326 93.817 54.0532 93.7964 54.0812C93.7758 54.1092 93.7646 54.143 93.7646 54.1777C93.7646 54.2125 93.7758 54.2463 93.7964 54.2742C93.817 54.3022 93.8459 54.3228 93.8791 54.3331L95.1355 55.0622C95.2183 55.1048 95.3101 55.127 95.4032 55.127C95.4963 55.127 95.5881 55.1048 95.6709 55.0622L97.0867 54.2485C97.1199 54.2382 97.1489 54.2176 97.1695 54.1896C97.1901 54.1617 97.2012 54.1278 97.2012 54.0931C97.2012 54.0584 97.1901 54.0246 97.1695 53.9966C97.1489 53.9686 97.1199 53.948 97.0867 53.9377L95.8304 53.2086C95.7475 53.1661 95.6558 53.1439 95.5627 53.1439C95.4696 53.1439 95.3778 53.1661 95.295 53.2086L93.8791 54.0223Z" fill="#7B6CD7"/>
<path d="M91.3242 55.4968C91.291 55.5071 91.262 55.5277 91.2414 55.5557C91.2208 55.5836 91.2097 55.6175 91.2097 55.6522C91.2097 55.6869 91.2208 55.7207 91.2414 55.7487C91.262 55.7767 91.291 55.7973 91.3242 55.8076L92.5805 56.5367C92.6636 56.5793 92.7557 56.6014 92.8491 56.6014C92.9424 56.6014 93.0345 56.5793 93.1176 56.5367L94.5334 55.723C94.5666 55.7127 94.5956 55.6921 94.6162 55.6641C94.6368 55.6361 94.6479 55.6023 94.6479 55.5676C94.6479 55.5328 94.6368 55.499 94.6162 55.4711C94.5956 55.4431 94.5666 55.4225 94.5334 55.4122L93.2771 54.6831C93.194 54.6405 93.1019 54.6183 93.0085 54.6183C92.9152 54.6183 92.8231 54.6405 92.74 54.6831L91.3242 55.4968Z" fill="#7B6CD7"/>
<path d="M88.9222 56.8768C88.7741 56.9631 88.7725 57.103 88.9222 57.1876L90.1786 57.9183C90.2614 57.9609 90.3532 57.9831 90.4463 57.9831C90.5394 57.9831 90.6312 57.9609 90.714 57.9183L92.1282 57.1046C92.1614 57.0943 92.1904 57.0737 92.211 57.0457C92.2316 57.0178 92.2427 56.9839 92.2427 56.9492C92.2427 56.9145 92.2316 56.8807 92.211 56.8527C92.1904 56.8247 92.1614 56.8041 92.1282 56.7938L90.8735 56.0647C90.7904 56.0222 90.6983 56 90.605 56C90.5116 56 90.4195 56.0222 90.3364 56.0647L88.9222 56.8768Z" fill="#7B6CD7"/>
<path d="M86.5185 58.2715C86.4854 58.2818 86.4564 58.3024 86.4358 58.3304C86.4152 58.3584 86.4041 58.3922 86.4041 58.4269C86.4041 58.4616 86.4152 58.4954 86.4358 58.5234C86.4564 58.5514 86.4854 58.572 86.5185 58.5823L87.7732 59.313C87.8564 59.3556 87.9484 59.3778 88.0418 59.3778C88.1351 59.3778 88.2272 59.3556 88.3103 59.313L89.7245 58.4993C89.7577 58.489 89.7867 58.4684 89.8073 58.4404C89.8279 58.4124 89.839 58.3786 89.839 58.3439C89.839 58.3092 89.8279 58.2754 89.8073 58.2474C89.7867 58.2194 89.7577 58.1988 89.7245 58.1885L88.4681 57.4594C88.3853 57.4168 88.2935 57.3947 88.2004 57.3947C88.1073 57.3947 88.0156 57.4168 87.9327 57.4594L86.5185 58.2715Z" fill="#7B6CD7"/>
<path d="M84.113 59.6596C84.0798 59.6699 84.0508 59.6906 84.0302 59.7185C84.0096 59.7465 83.9985 59.7803 83.9985 59.8151C83.9985 59.8498 84.0096 59.8836 84.0302 59.9116C84.0508 59.9395 84.0798 59.9602 84.113 59.9705L85.3694 60.7012C85.4527 60.7429 85.5447 60.7646 85.6379 60.7646C85.7311 60.7646 85.823 60.7429 85.9064 60.7012L87.3206 59.8875C87.4687 59.8012 87.472 59.6613 87.3206 59.5766L86.0643 58.8459C85.981 58.8038 85.8891 58.7818 85.7958 58.7818C85.7024 58.7818 85.6105 58.8038 85.5272 58.8459L84.113 59.6596Z" fill="#7B6CD7"/>
<path d="M81.7095 61.0479C81.6763 61.0582 81.6473 61.0788 81.6267 61.1068C81.6061 61.1347 81.595 61.1685 81.595 61.2033C81.595 61.238 81.6061 61.2718 81.6267 61.2998C81.6473 61.3278 81.6763 61.3484 81.7095 61.3587L82.9658 62.0894C83.0492 62.1311 83.1411 62.1528 83.2343 62.1528C83.3275 62.1528 83.4195 62.1311 83.5028 62.0894L84.9171 61.2757C84.9502 61.2654 84.9792 61.2448 84.9998 61.2168C85.0204 61.1888 85.0315 61.155 85.0315 61.1203C85.0315 61.0855 85.0204 61.0517 84.9998 61.0238C84.9792 60.9958 84.9502 60.9752 84.9171 60.9649L83.6623 60.2358C83.5792 60.1932 83.4872 60.171 83.3938 60.171C83.3004 60.171 83.2084 60.1932 83.1253 60.2358L81.7095 61.0479Z" fill="#7B6CD7"/>
<path d="M79.3075 62.436C79.2749 62.4467 79.2466 62.4674 79.2265 62.4952C79.2064 62.523 79.1956 62.5564 79.1956 62.5906C79.1956 62.6249 79.2064 62.6583 79.2265 62.6861C79.2466 62.7138 79.2749 62.7345 79.3075 62.7452L80.5638 63.4759C80.6467 63.5185 80.7384 63.5407 80.8315 63.5407C80.9247 63.5407 81.0164 63.5185 81.0993 63.4759L82.5135 62.6622C82.5466 62.6519 82.5756 62.6313 82.5962 62.6033C82.6168 62.5754 82.6279 62.5415 82.6279 62.5068C82.6279 62.4721 82.6168 62.4383 82.5962 62.4103C82.5756 62.3823 82.5466 62.3617 82.5135 62.3514L81.2571 61.6223C81.1743 61.5798 81.0825 61.5576 80.9894 61.5576C80.8963 61.5576 80.8045 61.5798 80.7217 61.6223L79.3075 62.436Z" fill="#7B6CD7"/>
<path d="M76.9038 63.8226C76.7541 63.9088 76.7541 64.0488 76.9038 64.1334L78.1601 64.8641C78.2433 64.9067 78.3353 64.9289 78.4287 64.9289C78.522 64.9289 78.6141 64.9067 78.6972 64.8641L80.1114 64.0504C80.1446 64.0401 80.1736 64.0195 80.1942 63.9915C80.2148 63.9635 80.2259 63.9297 80.2259 63.895C80.2259 63.8603 80.2148 63.8265 80.1942 63.7985C80.1736 63.7705 80.1446 63.7499 80.1114 63.7396L78.855 63.0105C78.7722 62.9679 78.6805 62.9458 78.5873 62.9458C78.4942 62.9458 78.4025 62.9679 78.3196 63.0105L76.9038 63.8226Z" fill="#7B6CD7"/>
<path d="M74.4985 65.2107C74.4653 65.221 74.4363 65.2417 74.4157 65.2696C74.3951 65.2976 74.384 65.3314 74.384 65.3662C74.384 65.4009 74.3951 65.4347 74.4157 65.4627C74.4363 65.4906 74.4653 65.5113 74.4985 65.5216L75.7549 66.2523C75.838 66.2948 75.93 66.317 76.0234 66.317C76.1168 66.317 76.2088 66.2948 76.2919 66.2523L77.7061 65.4386C77.7393 65.4283 77.7683 65.4076 77.7889 65.3797C77.8095 65.3517 77.8206 65.3179 77.8206 65.2832C77.8206 65.2484 77.8095 65.2146 77.7889 65.1867C77.7683 65.1587 77.7393 65.138 77.7061 65.1277L76.4498 64.3987C76.3666 64.3561 76.2746 64.3339 76.1812 64.3339C76.0879 64.3339 75.9958 64.3561 75.9127 64.3987L74.4985 65.2107Z" fill="#7B6CD7"/>
<path d="M72.0981 66.5989C72.0649 66.6092 72.0359 66.6298 72.0153 66.6578C71.9948 66.6857 71.9836 66.7196 71.9836 66.7543C71.9836 66.789 71.9948 66.8229 72.0153 66.8508C72.0359 66.8788 72.0649 66.8994 72.0981 66.9097L73.3545 67.6404C73.4375 67.6822 73.5292 67.704 73.6222 67.704C73.7151 67.704 73.8068 67.6822 73.8899 67.6404L75.3057 66.8267C75.3383 66.816 75.3666 66.7953 75.3867 66.7675C75.4068 66.7398 75.4176 66.7064 75.4176 66.6721C75.4176 66.6378 75.4068 66.6045 75.3867 66.5767C75.3666 66.5489 75.3383 66.5282 75.3057 66.5175L74.051 65.7868C73.9679 65.7442 73.8758 65.722 73.7825 65.722C73.6891 65.722 73.5971 65.7442 73.5139 65.7868L72.0981 66.5989Z" fill="#7B6CD7"/>
<path d="M66.3843 69.896C66.1956 70.005 66.1614 70.1629 66.3095 70.2492L67.5642 70.9799C67.6625 71.0208 67.7691 71.0382 67.8754 71.0306C67.9816 71.0229 68.0846 70.9905 68.1761 70.9359L69.3836 70.2394L69.784 70.0083L72.6482 68.3549C72.837 68.2442 72.8712 68.0863 72.7231 68.0017L71.4667 67.271C71.369 67.2302 71.263 67.2127 71.1574 67.2201C71.0517 67.2274 70.9492 67.2594 70.8581 67.3133L67.9922 68.9684L67.5935 69.1978L66.3843 69.896Z" fill="#7B6CD7"/>
<path d="M100.2 53.1338C100.167 53.1441 100.138 53.1647 100.117 53.1927C100.097 53.2206 100.085 53.2544 100.085 53.2892C100.085 53.3239 100.097 53.3577 100.117 53.3857C100.138 53.4137 100.167 53.4343 100.2 53.4446L101.455 54.1737C101.538 54.2162 101.63 54.2384 101.723 54.2384C101.817 54.2384 101.909 54.2162 101.992 54.1737L105.634 52.0711C105.667 52.0608 105.696 52.0401 105.717 52.0122C105.737 51.9842 105.748 51.9504 105.748 51.9156C105.748 51.8809 105.737 51.8471 105.717 51.8191C105.696 51.7912 105.667 51.7705 105.634 51.7602L104.379 51.0311C104.296 50.9886 104.204 50.9664 104.111 50.9664C104.017 50.9664 103.925 50.9886 103.842 51.0311L100.2 53.1338Z" fill="#7B6CD7"/>
<path d="M97.6189 54.6293C97.5857 54.6396 97.5567 54.6603 97.5361 54.6883C97.5155 54.7162 97.5044 54.75 97.5044 54.7848C97.5044 54.8195 97.5155 54.8533 97.5361 54.8813C97.5567 54.9092 97.5857 54.9299 97.6189 54.9402L98.8752 55.6709C98.9586 55.7126 99.0505 55.7343 99.1437 55.7343C99.237 55.7343 99.3289 55.7126 99.4123 55.6709L100.828 54.8572C100.861 54.8469 100.89 54.8262 100.911 54.7983C100.931 54.7703 100.943 54.7365 100.943 54.7018C100.943 54.667 100.931 54.6332 100.911 54.6053C100.89 54.5773 100.861 54.5567 100.828 54.5464L99.5717 53.8173C99.4886 53.7747 99.3966 53.7525 99.3032 53.7525C99.2099 53.7525 99.1178 53.7747 99.0347 53.8173L97.6189 54.6293Z" fill="#7B6CD7"/>
<path d="M95.0656 56.1038C95.0325 56.1141 95.0035 56.1347 94.9829 56.1627C94.9623 56.1906 94.9512 56.2245 94.9512 56.2592C94.9512 56.2939 94.9623 56.3277 94.9829 56.3557C95.0035 56.3837 95.0325 56.4043 95.0656 56.4146L96.322 57.1453C96.405 57.1871 96.4967 57.2089 96.5897 57.2089C96.6827 57.2089 96.7744 57.1871 96.8574 57.1453L98.2732 56.3316C98.3058 56.3209 98.3342 56.3002 98.3543 56.2724C98.3744 56.2447 98.3852 56.2113 98.3852 56.177C98.3852 56.1427 98.3744 56.1093 98.3543 56.0816C98.3342 56.0538 98.3058 56.0331 98.2732 56.0224L97.0169 55.2917C96.9341 55.2492 96.8423 55.227 96.7492 55.227C96.6561 55.227 96.5643 55.2492 96.4815 55.2917L95.0656 56.1038Z" fill="#7B6CD7"/>
<path d="M92.6621 57.4919C92.6289 57.5022 92.5999 57.5229 92.5793 57.5508C92.5587 57.5788 92.5476 57.6126 92.5476 57.6473C92.5476 57.6821 92.5587 57.7159 92.5793 57.7439C92.5999 57.7718 92.6289 57.7925 92.6621 57.8028L93.9184 58.5319C94.0015 58.5744 94.0936 58.5966 94.187 58.5966C94.2803 58.5966 94.3724 58.5744 94.4555 58.5319L95.8697 57.7182C95.9028 57.7078 95.9319 57.6872 95.9525 57.6592C95.9731 57.6313 95.9842 57.5975 95.9842 57.5627C95.9842 57.528 95.9731 57.4942 95.9525 57.4662C95.9319 57.4382 95.9028 57.4176 95.8697 57.4073L94.6133 56.6782C94.5305 56.6357 94.4387 56.6135 94.3456 56.6135C94.2525 56.6135 94.1608 56.6357 94.0779 56.6782L92.6621 57.4919Z" fill="#7B6CD7"/>
<path d="M90.2582 58.8801C90.2256 58.8908 90.1973 58.9115 90.1772 58.9393C90.1571 58.9671 90.1462 59.0005 90.1462 59.0347C90.1462 59.069 90.1571 59.1024 90.1772 59.1302C90.1973 59.1579 90.2256 59.1786 90.2582 59.1893L91.5145 59.92C91.5976 59.9626 91.6897 59.9848 91.783 59.9848C91.8764 59.9848 91.9685 59.9626 92.0516 59.92L93.4658 59.1063C93.499 59.096 93.528 59.0754 93.5486 59.0474C93.5691 59.0195 93.5803 58.9857 93.5803 58.9509C93.5803 58.9162 93.5691 58.8824 93.5486 58.8544C93.528 58.8265 93.499 58.8058 93.4658 58.7955L92.2094 58.0664C92.1263 58.0239 92.0343 58.0017 91.9409 58.0017C91.8475 58.0017 91.7555 58.0239 91.6724 58.0664L90.2582 58.8801Z" fill="#7B6CD7"/>
<path d="M87.8546 60.2667C87.7065 60.3529 87.7049 60.4929 87.8546 60.5775L89.111 61.3082C89.1938 61.3507 89.2856 61.3729 89.3787 61.3729C89.4718 61.3729 89.5636 61.3507 89.6464 61.3082L91.0606 60.4945C91.2103 60.4082 91.2119 60.2699 91.0606 60.1837L89.8042 59.453C89.7211 59.4104 89.6291 59.3882 89.5357 59.3882C89.4423 59.3882 89.3503 59.4104 89.2672 59.453L87.8546 60.2667Z" fill="#7B6CD7"/>
<path d="M85.4509 61.6548C85.4177 61.6651 85.3887 61.6858 85.3681 61.7137C85.3475 61.7417 85.3364 61.7755 85.3364 61.8103C85.3364 61.845 85.3475 61.8788 85.3681 61.9068C85.3887 61.9347 85.4177 61.9554 85.4509 61.9657L86.7056 62.6964C86.7887 62.7389 86.8808 62.7611 86.9742 62.7611C87.0675 62.7611 87.1596 62.7389 87.2427 62.6964L88.6585 61.8827C88.8066 61.7964 88.8082 61.6565 88.6585 61.5718L87.4022 60.8411C87.3193 60.7986 87.2276 60.7764 87.1345 60.7764C87.0413 60.7764 86.9496 60.7986 86.8667 60.8411L85.4509 61.6548Z" fill="#7B6CD7"/>
<path d="M83.0471 63.043C83.0139 63.0533 82.9849 63.074 82.9643 63.1019C82.9437 63.1299 82.9326 63.1637 82.9326 63.1984C82.9326 63.2332 82.9437 63.267 82.9643 63.2949C82.9849 63.3229 83.0139 63.3436 83.0471 63.3539L84.3034 64.0829C84.3865 64.1255 84.4786 64.1477 84.572 64.1477C84.6653 64.1477 84.7574 64.1255 84.8405 64.0829L86.2547 63.2692C86.2879 63.2589 86.3169 63.2383 86.3375 63.2103C86.358 63.1824 86.3692 63.1485 86.3692 63.1138C86.3692 63.0791 86.358 63.0453 86.3375 63.0173C86.3169 62.9893 86.2879 62.9687 86.2547 62.9584L84.9983 62.2293C84.9152 62.1868 84.8232 62.1646 84.7298 62.1646C84.6364 62.1646 84.5444 62.1868 84.4613 62.2293L83.0471 63.043Z" fill="#7B6CD7"/>
<path d="M80.6435 64.4312C80.6104 64.4415 80.5814 64.4621 80.5608 64.4901C80.5402 64.5181 80.5291 64.5519 80.5291 64.5866C80.5291 64.6213 80.5402 64.6552 80.5608 64.6831C80.5814 64.7111 80.6104 64.7317 80.6435 64.742L81.8999 65.4711C81.9827 65.5137 82.0745 65.5358 82.1676 65.5358C82.2607 65.5358 82.3525 65.5137 82.4353 65.4711L83.8495 64.6574C83.8827 64.6471 83.9117 64.6265 83.9323 64.5985C83.9529 64.5705 83.964 64.5367 83.964 64.502C83.964 64.4673 83.9529 64.4334 83.9323 64.4055C83.9117 64.3775 83.8827 64.3569 83.8495 64.3466L82.5948 63.6175C82.5117 63.5749 82.4196 63.5527 82.3262 63.5527C82.2329 63.5527 82.1408 63.5749 82.0577 63.6175L80.6435 64.4312Z" fill="#7B6CD7"/>
<path d="M78.2399 65.8275C78.2073 65.8382 78.1789 65.8589 78.1588 65.8867C78.1387 65.9145 78.1279 65.9478 78.1279 65.9821C78.1279 66.0164 78.1387 66.0498 78.1588 66.0775C78.1789 66.1053 78.2073 66.126 78.2399 66.1367L79.4946 66.8674C79.5777 66.91 79.6697 66.9322 79.7631 66.9322C79.8565 66.9322 79.9485 66.91 80.0316 66.8674L81.4458 66.0537C81.479 66.0434 81.508 66.0228 81.5286 65.9948C81.5492 65.9669 81.5603 65.933 81.5603 65.8983C81.5603 65.8636 81.5492 65.8297 81.5286 65.8018C81.508 65.7738 81.479 65.7532 81.4458 65.7429L80.1895 65.0138C80.1067 64.9713 80.0149 64.9491 79.9218 64.9491C79.8287 64.9491 79.7369 64.9713 79.6541 65.0138L78.2399 65.8275Z" fill="#7B6CD7"/>
<path d="M75.8411 67.2059C75.6913 67.2922 75.6913 67.4321 75.8411 67.5168L77.0974 68.2475C77.1805 68.29 77.2726 68.3122 77.3659 68.3122C77.4593 68.3122 77.5513 68.29 77.6345 68.2475L79.0503 67.4338C79.1984 67.3475 79.2 67.2076 79.0503 67.1229L77.7939 66.3922C77.7108 66.3497 77.6188 66.3275 77.5254 66.3275C77.432 66.3275 77.34 66.3497 77.2569 66.3922L75.8411 67.2059Z" fill="#7B6CD7"/>
<path d="M70.933 70.0376C70.7702 70.132 70.754 70.2801 70.9021 70.3631L72.1568 71.0938C72.2459 71.1358 72.3437 71.156 72.4421 71.1529C72.5406 71.1498 72.6369 71.1234 72.7231 71.0759L73.7809 70.4656L74.1276 70.2654L76.6322 68.8187C76.7949 68.7243 76.8112 68.5778 76.6647 68.4932L75.4083 67.7625C75.319 67.7213 75.2214 67.7014 75.1231 67.7045C75.0248 67.7076 74.9285 67.7336 74.842 67.7804L72.3374 69.2255L71.9908 69.4273L70.933 70.0376Z" fill="#7B6CD7"/>
<path d="M68.6999 71.3265C68.5518 71.4128 68.5486 71.5511 68.6999 71.6374L69.9563 72.3681C70.0395 72.4102 70.1315 72.4322 70.2248 72.4322C70.3181 72.4322 70.4101 72.4102 70.4933 72.3681L71.709 71.6667C71.7422 71.6564 71.7712 71.6357 71.7918 71.6078C71.8124 71.5798 71.8235 71.546 71.8235 71.5112C71.8235 71.4765 71.8124 71.4427 71.7918 71.4147C71.7712 71.3868 71.7422 71.3661 71.709 71.3558L70.4527 70.6267C70.3695 70.5842 70.2775 70.562 70.1841 70.562C70.0908 70.562 69.9987 70.5842 69.9156 70.6267L68.6999 71.3265Z" fill="#7B6CD7"/>
<path d="M104.588 53.5439C104.554 53.5537 104.524 53.5743 104.503 53.6025C104.482 53.6306 104.47 53.6649 104.47 53.7001C104.47 53.7353 104.482 53.7696 104.503 53.7977C104.524 53.8259 104.554 53.8465 104.588 53.8563L105.844 54.5854C105.927 54.628 106.019 54.6502 106.113 54.6502C106.206 54.6502 106.298 54.628 106.381 54.5854L108.171 53.552C108.204 53.5417 108.233 53.5211 108.254 53.4931C108.275 53.4651 108.286 53.4313 108.286 53.3966C108.286 53.3619 108.275 53.328 108.254 53.3001C108.233 53.2721 108.204 53.2515 108.171 53.2412L106.915 52.5121C106.831 52.4695 106.739 52.4473 106.645 52.4473C106.552 52.4473 106.46 52.4695 106.376 52.5121L104.588 53.5439Z" fill="#7B6CD7"/>
<path d="M102.109 54.976C102.076 54.9863 102.047 55.0069 102.026 55.0349C102.006 55.0629 101.995 55.0967 101.995 55.1314C101.995 55.1661 102.006 55.2 102.026 55.2279C102.047 55.2559 102.076 55.2765 102.109 55.2868L103.365 56.0175C103.449 56.0592 103.541 56.0809 103.634 56.0809C103.727 56.0809 103.819 56.0592 103.902 56.0175L105.317 55.2038C105.35 55.1935 105.379 55.1729 105.399 55.1449C105.42 55.117 105.431 55.0831 105.431 55.0484C105.431 55.0137 105.42 54.9799 105.399 54.9519C105.379 54.9239 105.35 54.9033 105.317 54.893L104.06 54.1623C103.977 54.1201 103.885 54.0981 103.791 54.0981C103.697 54.0981 103.605 54.1201 103.522 54.1623L102.109 54.976Z" fill="#7B6CD7"/>
<path d="M99.5556 56.4504C99.5225 56.4607 99.4935 56.4814 99.4729 56.5093C99.4523 56.5373 99.4412 56.5711 99.4412 56.6058C99.4412 56.6406 99.4523 56.6744 99.4729 56.7024C99.4935 56.7303 99.5225 56.751 99.5556 56.7613L100.81 57.492C100.894 57.5337 100.986 57.5554 101.079 57.5554C101.172 57.5554 101.264 57.5337 101.347 57.492L102.762 56.6783C102.795 56.668 102.824 56.6473 102.844 56.6194C102.865 56.5914 102.876 56.5576 102.876 56.5228C102.876 56.4881 102.865 56.4543 102.844 56.4263C102.824 56.3984 102.795 56.3777 102.762 56.3674L101.505 55.6367C101.422 55.5946 101.33 55.5726 101.237 55.5726C101.143 55.5726 101.051 55.5946 100.968 55.6367L99.5556 56.4504Z" fill="#7B6CD7"/>
<path d="M97.1601 57.8386C97.127 57.8489 97.098 57.8695 97.0774 57.8975C97.0568 57.9255 97.0457 57.9593 97.0457 57.994C97.0457 58.0287 97.0568 58.0626 97.0774 58.0905C97.098 58.1185 97.127 58.1391 97.1601 58.1494L98.4165 58.8801C98.4998 58.9218 98.5918 58.9435 98.685 58.9435C98.7782 58.9435 98.8701 58.9218 98.9535 58.8801L100.368 58.0664C100.516 57.9802 100.519 57.8402 100.368 57.754L99.1114 57.0249C99.028 56.9823 98.9357 56.9601 98.842 56.9601C98.7484 56.9601 98.6561 56.9823 98.5727 57.0249L97.1601 57.8386Z" fill="#7B6CD7"/>
<path d="M85.132 64.7779C85.0989 64.7882 85.0699 64.8088 85.0493 64.8368C85.0287 64.8647 85.0176 64.8985 85.0176 64.9333C85.0176 64.968 85.0287 65.0018 85.0493 65.0298C85.0699 65.0577 85.0989 65.0784 85.132 65.0887L86.3884 65.8194C86.4715 65.8612 86.5631 65.8829 86.6561 65.8829C86.7491 65.8829 86.8408 65.8612 86.9238 65.8194L89.3291 64.4312L90.7433 63.6175L91.7328 63.0463L93.147 62.2326L94.1365 61.6614L95.5507 60.8477L96.5401 60.2764L96.877 60.0828L97.9544 59.4595C97.9875 59.4492 98.0165 59.4285 98.0371 59.4006C98.0577 59.3726 98.0688 59.3388 98.0688 59.3041C98.0688 59.2693 98.0577 59.2355 98.0371 59.2075C98.0165 59.1796 97.9875 59.1589 97.9544 59.1486L96.698 58.4196C96.6145 58.3774 96.5222 58.3554 96.4287 58.3554C96.3351 58.3554 96.2428 58.3774 96.1593 58.4196L95.082 59.0429L94.7435 59.2382L93.7557 59.8078L92.3414 60.6215L91.352 61.1927L89.9378 62.0064L88.9483 62.5776L87.5341 63.3913L85.132 64.7779Z" fill="#7B6CD7"/>
<path d="M82.4289 66.3385C82.3958 66.3488 82.3668 66.3694 82.3462 66.3974C82.3256 66.4254 82.3145 66.4592 82.3145 66.4939C82.3145 66.5286 82.3256 66.5625 82.3462 66.5904C82.3668 66.6184 82.3958 66.639 82.4289 66.6493L83.6853 67.38C83.7684 67.4226 83.8604 67.4448 83.9538 67.4448C84.0472 67.4448 84.1392 67.4226 84.2223 67.38L85.6382 66.5663C85.6713 66.556 85.7003 66.5354 85.7209 66.5074C85.7415 66.4795 85.7526 66.4456 85.7526 66.4109C85.7526 66.3762 85.7415 66.3424 85.7209 66.3144C85.7003 66.2864 85.6713 66.2658 85.6382 66.2555L84.3818 65.5248C84.2984 65.4822 84.2061 65.46 84.1125 65.46C84.0188 65.46 83.9265 65.4822 83.8431 65.5248L82.4289 66.3385Z" fill="#7B6CD7"/>
<path d="M80.0234 67.7267C79.9902 67.737 79.9612 67.7576 79.9406 67.7856C79.92 67.8136 79.9089 67.8474 79.9089 67.8821C79.9089 67.9168 79.92 67.9506 79.9406 67.9786C79.9612 68.0066 79.9902 68.0272 80.0234 68.0375L81.2798 68.7682C81.3627 68.8104 81.4544 68.8324 81.5475 68.8324C81.6405 68.8324 81.7322 68.8104 81.8152 68.7682L83.231 67.9545C83.2642 67.9442 83.2932 67.9236 83.3138 67.8956C83.3344 67.8676 83.3455 67.8338 83.3455 67.7991C83.3455 67.7644 83.3344 67.7306 83.3138 67.7026C83.2932 67.6746 83.2642 67.654 83.231 67.6437L81.9763 66.913C81.8929 66.8704 81.8006 66.8482 81.707 66.8482C81.6133 66.8482 81.521 66.8704 81.4376 66.913L80.0234 67.7267Z" fill="#7B6CD7"/>
<path d="M75.4864 70.3468C75.34 70.4315 75.3449 70.5682 75.4864 70.6544L76.7428 71.3835C76.8247 71.4252 76.9153 71.447 77.0073 71.447C77.0992 71.447 77.1898 71.4252 77.2717 71.3835L78.1993 70.8481L78.5053 70.6707L80.7023 69.4029C80.8487 69.3183 80.8455 69.1816 80.7023 69.0953L79.4459 68.3663C79.3639 68.3241 79.2729 68.3022 79.1807 68.3022C79.0884 68.3022 78.9975 68.3241 78.9154 68.3663L76.7184 69.634L76.4124 69.8114L75.4864 70.3468Z" fill="#7B6CD7"/>
<path d="M73.3398 71.5869C73.3066 71.5972 73.2776 71.6178 73.257 71.6458C73.2365 71.6738 73.2253 71.7076 73.2253 71.7423C73.2253 71.777 73.2365 71.8108 73.257 71.8388C73.2776 71.8668 73.3066 71.8874 73.3398 71.8977L74.5962 72.6268C74.6793 72.6694 74.7713 72.6915 74.8647 72.6915C74.9581 72.6915 75.0501 72.6694 75.1332 72.6268L76.2968 71.9547C76.3294 71.944 76.3577 71.9233 76.3778 71.8955C76.3979 71.8677 76.4087 71.8343 76.4087 71.8001C76.4087 71.7658 76.3979 71.7324 76.3778 71.7047C76.3577 71.6769 76.3294 71.6562 76.2968 71.6455L75.0404 70.9148C74.9573 70.8722 74.8653 70.85 74.7719 70.85C74.6786 70.85 74.5865 70.8722 74.5034 70.9148L73.3398 71.5869Z" fill="#7B6CD7"/>
<path d="M71.237 72.7993C71.2032 72.8092 71.1735 72.8297 71.1524 72.8579C71.1313 72.886 71.1199 72.9203 71.1199 72.9555C71.1199 72.9907 71.1313 73.025 71.1524 73.0532C71.1735 73.0813 71.2032 73.1019 71.237 73.1118L72.4934 73.8425C72.5768 73.885 72.6691 73.9072 72.7627 73.9072C72.8564 73.9072 72.9487 73.885 73.0321 73.8425L74.1957 73.1703C74.2288 73.16 74.2578 73.1394 74.2784 73.1114C74.299 73.0835 74.3101 73.0497 74.3101 73.0149C74.3101 72.9802 74.299 72.9464 74.2784 72.9184C74.2578 72.8904 74.2288 72.8698 74.1957 72.8595L72.9393 72.1304C72.8561 72.0883 72.7641 72.0663 72.6708 72.0663C72.5775 72.0663 72.4855 72.0883 72.4023 72.1304L71.237 72.7993Z" fill="#7B6CD7"/>
<path d="M55.5246 70.6316C55.4915 70.6419 55.4625 70.6626 55.4419 70.6905C55.4213 70.7185 55.4102 70.7523 55.4102 70.787C55.4102 70.8218 55.4213 70.8556 55.4419 70.8835C55.4625 70.9115 55.4915 70.9322 55.5246 70.9425L56.781 71.6732C56.8642 71.7153 56.9562 71.7373 57.0495 71.7373C57.1428 71.7373 57.2348 71.7153 57.318 71.6732L58.5825 70.9441C58.6163 70.9342 58.646 70.9136 58.6671 70.8855C58.6883 70.8573 58.6997 70.8231 58.6997 70.7878C58.6997 70.7526 58.6883 70.7184 58.6671 70.6902C58.646 70.662 58.6163 70.6415 58.5825 70.6316L57.3261 69.9025C57.2433 69.86 57.1516 69.8378 57.0584 69.8378C56.9653 69.8378 56.8736 69.86 56.7907 69.9025L55.5246 70.6316Z" fill="#7B6CD7"/>
<path d="M53.2707 71.9335C53.2376 71.9438 53.2086 71.9645 53.188 71.9925C53.1674 72.0204 53.1562 72.0542 53.1562 72.089C53.1562 72.1237 53.1674 72.1575 53.188 72.1855C53.2086 72.2134 53.2376 72.2341 53.2707 72.2444L54.5271 72.9735C54.6102 73.016 54.7022 73.0382 54.7956 73.0382C54.889 73.0382 54.981 73.016 55.0641 72.9735L56.3302 72.2428C56.364 72.2329 56.3937 72.2123 56.4149 72.1842C56.436 72.156 56.4474 72.1217 56.4474 72.0865C56.4474 72.0513 56.436 72.017 56.4149 71.9889C56.3937 71.9607 56.364 71.9401 56.3302 71.9303L55.0739 71.2012C54.9911 71.1587 54.8993 71.1365 54.8062 71.1365C54.7131 71.1365 54.6213 71.1587 54.5385 71.2012L53.2707 71.9335Z" fill="#7B6CD7"/>
<path d="M60.1676 70.7195C60.135 70.7302 60.1067 70.7509 60.0866 70.7787C60.0665 70.8064 60.0557 70.8398 60.0557 70.8741C60.0557 70.9084 60.0665 70.9418 60.0866 70.9695C60.1067 70.9973 60.135 71.018 60.1676 71.0287L61.4223 71.7594C61.5054 71.802 61.5975 71.8242 61.6909 71.8242C61.7842 71.8242 61.8762 71.802 61.9594 71.7594L63.2239 71.0287C63.2564 71.018 63.2848 70.9973 63.3049 70.9695C63.325 70.9418 63.3358 70.9084 63.3358 70.8741C63.3358 70.8398 63.325 70.8064 63.3049 70.7787C63.2848 70.7509 63.2564 70.7302 63.2239 70.7195L61.9675 69.9888C61.8847 69.9462 61.7929 69.9241 61.6998 69.9241C61.6067 69.9241 61.5149 69.9462 61.4321 69.9888L60.1676 70.7195Z" fill="#7B6CD7"/>
<path d="M57.9135 72.0198C57.8804 72.0301 57.8514 72.0507 57.8308 72.0787C57.8102 72.1067 57.7991 72.1405 57.7991 72.1752C57.7991 72.2099 57.8102 72.2438 57.8308 72.2717C57.8514 72.2997 57.8804 72.3203 57.9135 72.3306L59.1683 73.0613C59.2517 73.103 59.3436 73.1247 59.4368 73.1247C59.53 73.1247 59.6219 73.103 59.7053 73.0613L60.9698 72.3306C61.003 72.3203 61.032 72.2997 61.0526 72.2717C61.0732 72.2438 61.0843 72.2099 61.0843 72.1752C61.0843 72.1405 61.0732 72.1067 61.0526 72.0787C61.032 72.0507 61.003 72.0301 60.9698 72.0198L59.7135 71.2907C59.6306 71.2482 59.5389 71.226 59.4457 71.226C59.3526 71.226 59.2609 71.2482 59.178 71.2907L57.9135 72.0198Z" fill="#7B6CD7"/>
<path d="M55.6613 73.3217C55.6282 73.332 55.5992 73.3526 55.5786 73.3806C55.558 73.4086 55.5469 73.4424 55.5469 73.4771C55.5469 73.5118 55.558 73.5457 55.5786 73.5736C55.5992 73.6016 55.6282 73.6222 55.6613 73.6325L56.9161 74.3616C56.9992 74.4042 57.0912 74.4264 57.1846 74.4264C57.278 74.4264 57.37 74.4042 57.4531 74.3616L58.7192 73.6309C58.7524 73.6206 58.7814 73.6 58.802 73.572C58.8226 73.544 58.8337 73.5102 58.8337 73.4755C58.8337 73.4408 58.8226 73.4069 58.802 73.379C58.7814 73.351 58.7524 73.3304 58.7192 73.3201L57.4629 72.591C57.3798 72.5484 57.2877 72.5262 57.1944 72.5262C57.101 72.5262 57.0089 72.5484 56.9258 72.591L55.6613 73.3217Z" fill="#7B6CD7"/>
<path d="M62.555 72.106C62.4069 72.1923 62.4053 72.3322 62.555 72.4169L63.8114 73.1476C63.8945 73.1901 63.9865 73.2123 64.0799 73.2123C64.1733 73.2123 64.2653 73.1901 64.3484 73.1476L65.6129 72.4169C65.6461 72.4065 65.6751 72.3859 65.6957 72.3579C65.7163 72.33 65.7274 72.2962 65.7274 72.2614C65.7274 72.2267 65.7163 72.1929 65.6957 72.1649C65.6751 72.137 65.6461 72.1163 65.6129 72.106L64.3566 71.3769C64.2735 71.3344 64.1814 71.3122 64.0881 71.3122C63.9947 71.3122 63.9026 71.3344 63.8195 71.3769L62.555 72.106Z" fill="#7B6CD7"/>
<path d="M60.301 73.408C60.2678 73.4183 60.2388 73.4389 60.2182 73.4669C60.1976 73.4948 60.1865 73.5287 60.1865 73.5634C60.1865 73.5981 60.1976 73.6319 60.2182 73.6599C60.2388 73.6879 60.2678 73.7085 60.301 73.7188L61.5573 74.4495C61.6407 74.4912 61.7327 74.5129 61.8259 74.5129C61.9191 74.5129 62.011 74.4912 62.0944 74.4495L63.3573 73.7188C63.3904 73.7085 63.4194 73.6879 63.44 73.6599C63.4606 73.6319 63.4717 73.5981 63.4717 73.5634C63.4717 73.5287 63.4606 73.4948 63.44 73.4669C63.4194 73.4389 63.3904 73.4183 63.3573 73.408L62.1009 72.6789C62.0178 72.6363 61.9258 72.6141 61.8324 72.6141C61.739 72.6141 61.647 72.6363 61.5639 72.6789L60.301 73.408Z" fill="#7B6CD7"/>
<path d="M58.0471 74.7099C58.0139 74.7202 57.9849 74.7408 57.9643 74.7688C57.9437 74.7968 57.9326 74.8306 57.9326 74.8653C57.9326 74.9 57.9437 74.9338 57.9643 74.9618C57.9849 74.9898 58.0139 75.0104 58.0471 75.0207L59.3034 75.7498C59.3865 75.7923 59.4786 75.8145 59.572 75.8145C59.6653 75.8145 59.7574 75.7923 59.8405 75.7498L61.105 75.0191C61.1381 75.0088 61.1671 74.9881 61.1877 74.9602C61.2083 74.9322 61.2194 74.8984 61.2194 74.8637C61.2194 74.8289 61.2083 74.7951 61.1877 74.7672C61.1671 74.7392 61.1381 74.7185 61.105 74.7082L59.8502 73.9792C59.7671 73.9366 59.6751 73.9144 59.5817 73.9144C59.4883 73.9144 59.3963 73.9366 59.3132 73.9792L58.0471 74.7099Z" fill="#7B6CD7"/>
<path d="M51.0183 73.2338C50.9851 73.2441 50.9561 73.2648 50.9355 73.2927C50.9149 73.3207 50.9038 73.3545 50.9038 73.3892C50.9038 73.424 50.9149 73.4578 50.9355 73.4857C50.9561 73.5137 50.9851 73.5344 51.0183 73.5447L52.2746 74.2754C52.3579 74.3175 52.4498 74.3395 52.5432 74.3395C52.6365 74.3395 52.7285 74.3175 52.8117 74.2754L54.0762 73.5447C54.1093 73.5344 54.1383 73.5137 54.1589 73.4857C54.1795 73.4578 54.1906 73.424 54.1906 73.3892C54.1906 73.3545 54.1795 73.3207 54.1589 73.2927C54.1383 73.2648 54.1093 73.2441 54.0762 73.2338L52.8198 72.5047C52.737 72.4622 52.6452 72.44 52.5521 72.44C52.459 72.44 52.3672 72.4622 52.2844 72.5047L51.0183 73.2338Z" fill="#7B6CD7"/>
<path d="M53.4057 74.6155C53.3726 74.6258 53.3436 74.6464 53.323 74.6744C53.3024 74.7023 53.2913 74.7361 53.2913 74.7709C53.2913 74.8056 53.3024 74.8394 53.323 74.8674C53.3436 74.8954 53.3726 74.916 53.4057 74.9263L54.252 75.4145L54.6621 75.6521L57.0511 77.0403C57.1339 77.0828 57.2257 77.105 57.3188 77.105C57.4119 77.105 57.5037 77.0828 57.5865 77.0403L58.851 76.3112C58.8842 76.3009 58.9132 76.2803 58.9338 76.2523C58.9544 76.2243 58.9655 76.1905 58.9655 76.1558C58.9655 76.1211 58.9544 76.0873 58.9338 76.0593C58.9132 76.0313 58.8842 76.0107 58.851 76.0004L56.4636 74.6122L56.0535 74.3746L55.2073 73.8864C55.1239 73.8447 55.032 73.823 54.9387 73.823C54.8455 73.823 54.7536 73.8447 54.6702 73.8864L53.4057 74.6155Z" fill="#7B6CD7"/>
<path d="M64.9375 73.4942C64.9043 73.5045 64.8753 73.5251 64.8547 73.5531C64.8341 73.5811 64.823 73.6149 64.823 73.6496C64.823 73.6843 64.8341 73.7182 64.8547 73.7461C64.8753 73.7741 64.9043 73.7947 64.9375 73.805L66.1938 74.5357C66.2766 74.5783 66.3684 74.6005 66.4615 74.6005C66.5546 74.6005 66.6464 74.5783 66.7292 74.5357L67.9937 73.805C68.0269 73.7947 68.0559 73.7741 68.0765 73.7461C68.0971 73.7182 68.1082 73.6843 68.1082 73.6496C68.1082 73.6149 68.0971 73.5811 68.0765 73.5531C68.0559 73.5251 68.0269 73.5045 67.9937 73.4942L66.7374 72.7651C66.6546 72.7226 66.5628 72.7004 66.4697 72.7004C66.3766 72.7004 66.2848 72.7226 66.202 72.7651L64.9375 73.4942Z" fill="#7B6CD7"/>
<path d="M62.6902 74.7961C62.657 74.8064 62.628 74.8271 62.6074 74.855C62.5868 74.883 62.5757 74.9168 62.5757 74.9515C62.5757 74.9863 62.5868 75.0201 62.6074 75.0481C62.628 75.076 62.657 75.0967 62.6902 75.107L63.9465 75.8361C64.0293 75.8786 64.1211 75.9008 64.2142 75.9008C64.3073 75.9008 64.3991 75.8786 64.4819 75.8361L65.7513 75.1037C65.7845 75.0934 65.8135 75.0728 65.8341 75.0448C65.8547 75.0169 65.8658 74.983 65.8658 74.9483C65.8658 74.9136 65.8547 74.8797 65.8341 74.8518C65.8135 74.8238 65.7845 74.8032 65.7513 74.7929L64.495 74.0622C64.4119 74.0204 64.3202 73.9986 64.2272 73.9986C64.1343 73.9986 64.0426 74.0204 63.9595 74.0622L62.6902 74.7961Z" fill="#7B6CD7"/>
<path d="M60.436 76.098C60.4028 76.1083 60.3738 76.129 60.3532 76.1569C60.3326 76.1849 60.3215 76.2187 60.3215 76.2534C60.3215 76.2882 60.3326 76.322 60.3532 76.35C60.3738 76.3779 60.4028 76.3986 60.436 76.4089L61.6924 77.1379C61.7752 77.1805 61.8669 77.2027 61.9601 77.2027C62.0532 77.2027 62.1449 77.1805 62.2278 77.1379L63.4939 76.4072C63.5271 76.3969 63.5561 76.3763 63.5767 76.3483C63.5973 76.3204 63.6084 76.2866 63.6084 76.2518C63.6084 76.2171 63.5973 76.1833 63.5767 76.1553C63.5561 76.1273 63.5271 76.1067 63.4939 76.0964L62.2375 75.3673C62.1547 75.3248 62.0629 75.3026 61.9698 75.3026C61.8767 75.3026 61.7849 75.3248 61.7021 75.3673L60.436 76.098Z" fill="#7B6CD7"/>
<path d="M67.3313 74.8824C67.2981 74.8927 67.2691 74.9133 67.2485 74.9413C67.2279 74.9692 67.2168 75.003 67.2168 75.0378C67.2168 75.0725 67.2279 75.1063 67.2485 75.1343C67.2691 75.1622 67.2981 75.1829 67.3313 75.1932L68.5876 75.9239C68.671 75.9656 68.7629 75.9873 68.8561 75.9873C68.9494 75.9873 69.0413 75.9656 69.1247 75.9239L70.3892 75.1932C70.4223 75.1829 70.4513 75.1622 70.4719 75.1343C70.4925 75.1063 70.5036 75.0725 70.5036 75.0378C70.5036 75.003 70.4925 74.9692 70.4719 74.9413C70.4513 74.9133 70.4223 74.8927 70.3892 74.8824L69.1312 74.1517C69.0484 74.1091 68.9566 74.0869 68.8635 74.0869C68.7704 74.0869 68.6786 74.1091 68.5958 74.1517L67.3313 74.8824Z" fill="#7B6CD7"/>
<path d="M65.0774 76.1827C65.0442 76.193 65.0152 76.2136 64.9946 76.2416C64.974 76.2695 64.9629 76.3034 64.9629 76.3381C64.9629 76.3728 64.974 76.4066 64.9946 76.4346C65.0152 76.4626 65.0442 76.4832 65.0774 76.4935L66.3337 77.2242C66.4168 77.2668 66.5089 77.289 66.6022 77.289C66.6956 77.289 66.7876 77.2668 66.8708 77.2242L68.1353 76.4951C68.1684 76.4848 68.1974 76.4642 68.218 76.4362C68.2386 76.4083 68.2497 76.3744 68.2497 76.3397C68.2497 76.305 68.2386 76.2712 68.218 76.2432C68.1974 76.2152 68.1684 76.1946 68.1353 76.1843L66.8773 75.4536C66.7945 75.4111 66.7027 75.3889 66.6096 75.3889C66.5165 75.3889 66.4247 75.4111 66.3419 75.4536L65.0774 76.1827Z" fill="#7B6CD7"/>
<path d="M62.8217 77.4846C62.7886 77.4949 62.7596 77.5156 62.739 77.5435C62.7184 77.5715 62.7073 77.6053 62.7073 77.64C62.7073 77.6748 62.7184 77.7086 62.739 77.7366C62.7596 77.7645 62.7886 77.7852 62.8217 77.7955L64.0781 78.5262C64.1612 78.5687 64.2532 78.5909 64.3466 78.5909C64.44 78.5909 64.532 78.5687 64.6151 78.5262L65.8813 77.7955C65.9144 77.7852 65.9434 77.7645 65.964 77.7366C65.9846 77.7086 65.9957 77.6748 65.9957 77.64C65.9957 77.6053 65.9846 77.5715 65.964 77.5435C65.9434 77.5156 65.9144 77.4949 65.8813 77.4846L64.6233 76.7539C64.5402 76.7114 64.4481 76.6891 64.3548 76.6891C64.2614 76.6891 64.1693 76.7114 64.0862 76.7539L62.8217 77.4846Z" fill="#7B6CD7"/>
<path d="M58.1838 77.3983C58.1506 77.4086 58.1216 77.4293 58.101 77.4572C58.0804 77.4852 58.0693 77.519 58.0693 77.5538C58.0693 77.5885 58.0804 77.6223 58.101 77.6503C58.1216 77.6782 58.1506 77.6989 58.1838 77.7092L59.0284 78.1974L59.4385 78.4366L61.8276 79.8248C61.9107 79.8674 62.0027 79.8896 62.0961 79.8896C62.1895 79.8896 62.2815 79.8674 62.3646 79.8248L63.6291 79.0957C63.6623 79.0854 63.6913 79.0648 63.7118 79.0368C63.7324 79.0089 63.7436 78.975 63.7436 78.9403C63.7436 78.9056 63.7324 78.8718 63.7118 78.8438C63.6913 78.8158 63.6623 78.7952 63.6291 78.7849L61.2401 77.3967L60.8283 77.1575L59.9837 76.6693C59.9007 76.6275 59.809 76.6057 59.716 76.6057C59.623 76.6057 59.5314 76.6275 59.4483 76.6693L58.1838 77.3983Z" fill="#7B6CD7"/>
<path d="M55.7458 55.1713C55.8776 55.0948 55.9834 55.1713 55.9834 55.334C55.9811 55.4199 55.9585 55.504 55.9175 55.5796C55.8765 55.6551 55.8182 55.7198 55.7474 55.7685L52.1541 57.8435C52.0223 57.9183 51.9165 57.8435 51.9165 57.6807C51.9185 57.595 51.941 57.511 51.9821 57.4357C52.0231 57.3604 52.0815 57.296 52.1525 57.2478L55.7458 55.1713Z" fill="#78BCFF"/>
<path d="M75.4244 45.9455C75.5563 45.8706 75.6621 45.9455 75.6621 46.1082C75.6599 46.1938 75.6376 46.2776 75.5969 46.3528C75.5561 46.4281 75.4982 46.4926 75.4277 46.5411L66.9278 51.4478C66.7976 51.5242 66.6918 51.4478 66.6902 51.285C66.6927 51.1992 66.7154 51.1151 66.7564 51.0397C66.7974 50.9642 66.8555 50.8994 66.9262 50.8505L75.4244 45.9455Z" fill="#FF5A5A"/>
<path d="M79.2749 41.5792C79.4018 41.5059 79.5092 41.5792 79.5092 41.7419C79.5067 41.8269 79.4843 41.9102 79.4439 41.9851C79.4035 42.0599 79.3462 42.1244 79.2765 42.1732L66.8497 49.3484C66.7178 49.4249 66.6121 49.3484 66.6121 49.1857C66.6144 49.0998 66.6369 49.0156 66.678 48.9401C66.719 48.8646 66.7772 48.7998 66.848 48.7511L79.2749 41.5792Z" fill="#FF5A5A"/>
<path d="M67.8669 50.25C67.9938 50.1767 68.0996 50.25 68.0996 50.4127C68.0976 50.4977 68.0757 50.581 68.0355 50.6559C67.9954 50.7308 67.9382 50.7953 67.8685 50.844L59.1912 55.8531C59.0594 55.9296 58.9536 55.8531 58.9536 55.6904C58.9559 55.6045 58.9785 55.5204 59.0195 55.4448C59.0605 55.3693 59.1188 55.3046 59.1896 55.2559L67.8669 50.25Z" fill="#9688F3"/>
<path d="M65.0498 49.7992C65.1767 49.726 65.2825 49.7992 65.2825 49.962C65.2805 50.0469 65.2585 50.1303 65.2184 50.2052C65.1782 50.2801 65.121 50.3445 65.0514 50.3932L57.0771 54.9972C56.9485 55.072 56.8428 54.9972 56.8428 54.8344C56.8451 54.7493 56.8674 54.666 56.9078 54.5911C56.9482 54.5162 57.0056 54.4518 57.0755 54.4032L65.0498 49.7992Z" fill="#9688F3"/>
<path d="M86.1344 37.6262C86.263 37.5514 86.3687 37.6262 86.3687 37.789C86.3664 37.8743 86.3442 37.9579 86.3038 38.033C86.2633 38.1082 86.2059 38.1729 86.136 38.2219L80.7981 41.3025C80.6712 41.3774 80.5654 41.3025 80.5654 41.1398C80.5674 41.0546 80.5894 40.9711 80.6295 40.8959C80.6696 40.8207 80.7268 40.756 80.7965 40.7069L86.1344 37.6262Z" fill="#9688F3"/>
<path d="M57.863 56.0273C57.9916 55.9541 58.0974 56.0273 58.0974 56.19C58.0951 56.2751 58.0728 56.3585 58.0324 56.4334C57.992 56.5083 57.9345 56.5727 57.8647 56.6213L52.159 59.9152C52.0288 59.99 51.923 59.9152 51.9214 59.7524C51.9241 59.6668 51.9468 59.5831 51.9878 59.5079C52.0288 59.4327 52.0869 59.3682 52.1574 59.3195L57.863 56.0273Z" fill="#78BCFF"/>
<path d="M55.3146 43.6297C55.4415 43.5548 55.5473 43.6297 55.5489 43.7924C55.5461 43.8774 55.5236 43.9606 55.4832 44.0354C55.4429 44.1103 55.3857 44.1747 55.3162 44.2237L53.9866 44.9902C53.8564 45.0667 53.7507 44.9902 53.749 44.8275C53.7517 44.7417 53.7745 44.6577 53.8154 44.5822C53.8564 44.5068 53.9145 44.4419 53.985 44.393L55.3146 43.6297Z" fill="#78BCFF"/>
<path d="M84.4956 36.282C84.6274 36.2055 84.7332 36.282 84.7332 36.4448C84.7309 36.5307 84.7083 36.6148 84.6673 36.6903C84.6263 36.7658 84.568 36.8306 84.4972 36.8793L71.4617 44.4044C71.3348 44.4792 71.229 44.4044 71.229 44.2416C71.231 44.1564 71.253 44.0729 71.2931 43.9977C71.3332 43.9226 71.3904 43.8578 71.4601 43.8088L84.4956 36.282Z" fill="#9688F3"/>
<path d="M71.8654 41.1984C71.9972 41.1219 72.103 41.1984 72.103 41.3611C72.1004 41.447 72.0777 41.531 72.0368 41.6065C71.9958 41.682 71.9376 41.7468 71.867 41.7957L66.8221 44.7055C66.6902 44.7803 66.5845 44.7055 66.5845 44.5427C66.5867 44.457 66.6091 44.373 66.6498 44.2975C66.6905 44.222 66.7484 44.1572 66.8188 44.1082L71.8654 41.1984Z" fill="#9688F3"/>
<path d="M69.5854 44.891C69.7172 44.8145 69.8229 44.891 69.8229 45.0537C69.8204 45.1396 69.7977 45.2236 69.7567 45.2991C69.7157 45.3745 69.6576 45.4393 69.587 45.4882L63.6665 48.9058C63.5395 48.979 63.4338 48.9058 63.4321 48.743C63.4347 48.658 63.4571 48.5747 63.4975 48.4999C63.5379 48.425 63.5952 48.3606 63.6649 48.3118L69.5854 44.891Z" fill="#FF5A5A"/>
<path d="M62.2588 49.1206C62.3873 49.0458 62.4931 49.1206 62.4931 49.2834C62.4908 49.3687 62.4685 49.4522 62.4281 49.5274C62.3877 49.6026 62.3303 49.6672 62.2604 49.7162L59.0788 51.552C58.9519 51.6252 58.8461 51.552 58.8445 51.3892C58.8471 51.3042 58.8694 51.2209 58.9098 51.1461C58.9502 51.0712 59.0075 51.0068 59.0772 50.9579L62.2588 49.1206Z" fill="#9688F3"/>
<path d="M65.8276 44.6827C65.9561 44.6094 66.0619 44.6827 66.0619 44.8454C66.0599 44.9305 66.0377 45.014 65.9973 45.0889C65.9568 45.1639 65.8992 45.2282 65.8292 45.2767L59.0722 49.1824C58.9453 49.2557 58.8379 49.1824 58.8379 49.0197C58.8402 48.9346 58.8625 48.8513 58.9029 48.7763C58.9433 48.7014 59.0008 48.6371 59.0706 48.5884L65.8276 44.6827Z" fill="#9688F3"/>
<path d="M67.1685 41.5369C67.3003 41.462 67.4061 41.5369 67.4061 41.6996C67.4042 41.7856 67.3818 41.8699 67.3407 41.9455C67.2997 42.021 67.2412 42.0857 67.1701 42.1341L59.0657 46.8129C58.9371 46.8861 58.8313 46.8129 58.8313 46.6502C58.8336 46.5658 58.8559 46.4831 58.8964 46.409C58.9368 46.3349 58.9943 46.2714 59.064 46.2238L67.1685 41.5369Z" fill="#9688F3"/>
<path d="M64.4054 40.7557C64.5372 40.6809 64.643 40.7557 64.643 40.9185C64.6407 41.0037 64.6181 41.0872 64.577 41.1619C64.536 41.2366 64.4777 41.3005 64.407 41.3481L58.1366 44.9675C58.0064 45.044 57.9006 44.9756 57.9006 44.8047C57.9028 44.7192 57.9251 44.6354 57.9658 44.5601C58.0065 44.4849 58.0645 44.4204 58.135 44.3718L64.4054 40.7557Z" fill="#9688F3"/>
<path d="M67.8881 36.3715C68.015 36.2983 68.1208 36.3715 68.1208 36.5342C68.1188 36.6192 68.0968 36.7025 68.0567 36.7774C68.0165 36.8524 67.9593 36.9168 67.8897 36.9655L57.126 43.174C56.9958 43.2505 56.8933 43.174 56.8933 43.0113C56.8933 43.174 56.9958 43.2505 57.126 43.174L63.8114 39.3139C63.8821 39.2654 63.9403 39.2009 63.9813 39.1257C64.0223 39.0505 64.045 38.9666 64.0474 38.881C64.0474 38.7182 63.9416 38.645 63.8098 38.7182L67.8881 36.3715Z" fill="#FF5A5A"/>
<path d="M63.8163 38.7199C63.9481 38.645 64.0539 38.7199 64.0539 38.8826C64.0515 38.9682 64.0288 39.0521 63.9878 39.1273C63.9468 39.2026 63.8886 39.267 63.8179 39.3155L57.126 43.1741C56.9958 43.2505 56.8933 43.1741 56.8933 43.0113C56.8949 42.9263 56.9167 42.8428 56.9569 42.7678C56.9971 42.6929 57.0545 42.6285 57.1244 42.5801L63.8163 38.7199Z" fill="#9688F3"/>
<path d="M72.0981 38.6938C72.2267 38.619 72.3324 38.6938 72.3324 38.8566C72.3308 38.9418 72.3088 39.0254 72.2683 39.1004C72.2278 39.1754 72.17 39.2397 72.0997 39.2878L69.2859 40.9152C69.1541 40.9901 69.0483 40.9152 69.0483 40.7525C69.0509 40.6673 69.0736 40.584 69.1146 40.5093C69.1557 40.4346 69.2138 40.3707 69.2843 40.3229L72.0981 38.6938Z" fill="#FF5A5A"/>
<path d="M76.9525 33.5122C77.0811 33.4389 77.1869 33.5122 77.1869 33.6749C77.1846 33.7593 77.1623 33.842 77.1218 33.9161C77.0814 33.9902 77.0239 34.0537 76.9542 34.1013L65.8162 40.5328C65.686 40.6076 65.5802 40.5328 65.5786 40.37C65.5816 40.2843 65.6044 40.2004 65.6454 40.125C65.6863 40.0495 65.7443 39.9847 65.8146 39.9355L76.9525 33.5122Z" fill="#9688F3"/>
<path d="M81.1888 28.6901C81.3157 28.6169 81.4215 28.6901 81.4232 28.8529C81.4206 28.9379 81.3982 29.0212 81.3578 29.096C81.3174 29.1709 81.2601 29.2353 81.1904 29.2841L69.5496 36.0053C69.4178 36.0818 69.312 36.0053 69.312 35.8426C69.3143 35.7567 69.3369 35.6725 69.3779 35.597C69.4189 35.5215 69.4772 35.4568 69.548 35.4081L81.1888 28.6901Z" fill="#9688F3"/>
<path d="M69.5349 33.3396C69.6618 33.2664 69.7676 33.3396 69.7676 33.5024C69.7656 33.5876 69.7436 33.6711 69.7035 33.7463C69.6634 33.8215 69.6062 33.8862 69.5365 33.9353L59.5296 39.7109C59.4027 39.7858 59.2969 39.7109 59.2969 39.5482C59.2989 39.4632 59.3208 39.3799 59.361 39.305C59.4011 39.2301 59.4583 39.1657 59.528 39.1169L69.5349 33.3396Z" fill="#9688F3"/>
<path d="M88.4094 24.5224C88.5396 24.4459 88.6454 24.5224 88.647 24.6851C88.6443 24.771 88.6216 24.855 88.5806 24.9304C88.5396 25.0059 88.4816 25.0707 88.4111 25.1197L82.9593 28.2671C82.8291 28.3419 82.7266 28.2671 82.7266 28.1043C82.7279 28.0192 82.7496 27.9357 82.7898 27.8606C82.83 27.7856 82.8875 27.7213 82.9576 27.6731L88.4094 24.5224Z" fill="#9688F3"/>
<path d="M58.239 39.8623C58.3676 39.7874 58.4734 39.8623 58.4734 40.025C58.4711 40.1103 58.4488 40.1939 58.4084 40.2691C58.368 40.3443 58.3105 40.4089 58.2407 40.4579L53.9818 42.9169C53.8499 42.9934 53.7441 42.9169 53.7441 42.7542C53.7462 42.6684 53.7687 42.5844 53.8097 42.5091C53.8507 42.4339 53.9092 42.3695 53.9801 42.3213L58.239 39.8623Z" fill="#78BCFF"/>
<path d="M58.0731 46.7869C58.2001 46.7137 58.3075 46.7869 58.3075 46.9496C58.3053 47.035 58.2831 47.1186 58.2427 47.1938C58.2022 47.269 58.1447 47.3336 58.0747 47.3825L55.3879 48.9335C55.2561 49.0083 55.1536 48.9335 55.1536 48.7707C55.1556 48.686 55.1778 48.603 55.2182 48.5286C55.2587 48.4542 55.3163 48.3905 55.3863 48.3427L58.0731 46.7869Z" fill="#78BCFF"/>
<path d="M56.6931 45.2083C56.8249 45.1335 56.9307 45.2083 56.9307 45.3711C56.9284 45.4563 56.9058 45.5397 56.8647 45.6145C56.8237 45.6892 56.7654 45.753 56.6947 45.8007L53.9932 47.3598C53.863 47.4362 53.7572 47.3598 53.7556 47.197C53.7583 47.1114 53.7811 47.0277 53.822 46.9525C53.863 46.8773 53.9211 46.8128 53.9916 46.7641L56.6931 45.2083Z" fill="#78BCFF"/>
<path d="M58.0797 49.1564C58.2083 49.0832 58.3141 49.1564 58.3141 49.3191C58.3117 49.4042 58.2895 49.4876 58.2491 49.5625C58.2086 49.6374 58.1512 49.7017 58.0813 49.7504L55.3945 51.3029C55.2627 51.3778 55.1618 51.3029 55.1602 51.1402C55.162 51.055 55.184 50.9715 55.2244 50.8965C55.2649 50.8215 55.3226 50.7572 55.3929 50.7089L58.0797 49.1564Z" fill="#78BCFF"/>
<path d="M58.0861 51.5292C58.2146 51.4559 58.3204 51.5292 58.3204 51.6919C58.3181 51.777 58.2958 51.8603 58.2554 51.9352C58.215 52.0101 58.1576 52.0745 58.0877 52.1232L55.4009 53.6741C55.2707 53.7506 55.1681 53.6741 55.1665 53.5113C55.1686 53.426 55.1907 53.3423 55.2311 53.2671C55.2716 53.1919 55.3292 53.1273 55.3992 53.0784L58.0861 51.5292Z" fill="#78BCFF"/>
<path d="M49.8221 32.8173C49.9523 32.7408 50.0581 32.8173 50.0597 32.98C50.057 33.0659 50.0343 33.1499 49.9933 33.2253C49.9523 33.3008 49.8943 33.3656 49.8238 33.4146L48.888 33.9549C48.7562 34.0297 48.6504 33.9549 48.6504 33.7921C48.6524 33.7064 48.6749 33.6224 48.7159 33.5471C48.757 33.4718 48.8154 33.4074 48.8864 33.3592L49.8221 32.8173Z" fill="#78BCFF"/>
<path d="M49.827 34.8922C49.9588 34.8157 50.0646 34.8922 50.0646 35.0549C50.0626 35.1407 50.0401 35.2247 49.9991 35.3C49.958 35.3753 49.8996 35.4397 49.8286 35.4878L48.8929 36.0281C48.7627 36.1046 48.6569 36.0281 48.6553 35.8654C48.658 35.7798 48.6807 35.696 48.7217 35.6208C48.7627 35.5456 48.8208 35.4811 48.8912 35.4325L49.827 34.8922Z" fill="#78BCFF"/>
<path d="M49.8337 37.265C49.9655 37.1885 50.0713 37.265 50.0713 37.4277C50.0692 37.5137 50.0468 37.5979 50.0057 37.6734C49.9647 37.749 49.9063 37.8137 49.8353 37.8622L48.8995 38.4025C48.7694 38.4774 48.6636 38.4025 48.6636 38.2398C48.6657 38.1542 48.688 38.0704 48.7288 37.9952C48.7695 37.9199 48.8275 37.8554 48.8979 37.8069L49.8337 37.265Z" fill="#78BCFF"/>
<path d="M49.8399 39.3399C49.9718 39.2634 50.0775 39.3399 50.0775 39.5026C50.0752 39.5885 50.0527 39.6727 50.0116 39.7482C49.9706 39.8237 49.9124 39.8884 49.8416 39.9371L48.9058 40.4774C48.7756 40.5523 48.6682 40.4774 48.6682 40.3147C48.6709 40.2291 48.6936 40.1453 48.7346 40.0701C48.7756 39.995 48.8337 39.9304 48.9042 39.8818L49.8399 39.3399Z" fill="#78BCFF"/>
<path d="M49.8465 41.7126C49.9784 41.6361 50.0841 41.7126 50.0841 41.8754C50.0817 41.9606 50.0591 42.044 50.018 42.1187C49.977 42.1934 49.9188 42.2573 49.8482 42.305L48.9124 42.8453C48.7822 42.9218 48.6764 42.8453 48.6748 42.6826C48.6775 42.597 48.7002 42.5132 48.7412 42.438C48.7822 42.3628 48.8403 42.2983 48.9108 42.2497L49.8465 41.7126Z" fill="#78BCFF"/>
<path d="M49.8531 44.0838C49.9849 44.0089 50.0907 44.0838 50.0907 44.2465C50.0891 44.3326 50.0668 44.4169 50.0257 44.4925C49.9847 44.5682 49.926 44.6328 49.8548 44.681L48.919 45.2213C48.7888 45.2962 48.683 45.2213 48.6814 45.0586C48.6843 44.9735 48.7072 44.8903 48.7482 44.8157C48.7892 44.741 48.8471 44.6771 48.9174 44.629L49.8531 44.0838Z" fill="#78BCFF"/>
<path d="M49.8596 46.4614C49.9914 46.3849 50.0972 46.4614 50.0972 46.6242C50.095 46.7101 50.0725 46.7943 50.0314 46.8698C49.9904 46.9453 49.9321 47.0101 49.8612 47.0587L48.9254 47.599C48.7952 47.6738 48.6895 47.599 48.6895 47.4362C48.6917 47.3505 48.7141 47.2665 48.7548 47.191C48.7955 47.1155 48.8534 47.0507 48.9238 47.0017L49.8596 46.4614Z" fill="#78BCFF"/>
<path d="M49.8678 48.8244C49.998 48.7496 50.1037 48.8244 50.1054 48.9872C50.1027 49.0727 50.0799 49.1565 50.0389 49.2317C49.998 49.3069 49.9399 49.3714 49.8694 49.42L48.9336 49.9603C48.8018 50.0368 48.696 49.9603 48.696 49.7976C48.6981 49.7116 48.7206 49.6274 48.7616 49.5519C48.8026 49.4763 48.861 49.4116 48.932 49.3631L49.8678 48.8244Z" fill="#78BCFF"/>
<path d="M49.8741 51.1971C50.0043 51.1207 50.1101 51.1971 50.1117 51.3599C50.109 51.4455 50.0863 51.5292 50.0453 51.6044C50.0043 51.6796 49.9462 51.7441 49.8758 51.7928L48.94 52.3331C48.8082 52.4096 48.7024 52.3331 48.7024 52.1703C48.7044 52.0846 48.7269 52.0006 48.7679 51.9253C48.809 51.85 48.8674 51.7856 48.9384 51.7375L49.8741 51.1971Z" fill="#78BCFF"/>
<path d="M49.8807 53.5699C50.0109 53.4934 50.1167 53.5699 50.1183 53.7327C50.1161 53.8184 50.0936 53.9023 50.0526 53.9776C50.0115 54.0529 49.9532 54.1173 49.8823 54.1655L48.9466 54.7058C48.8148 54.7823 48.709 54.7058 48.709 54.5431C48.7111 54.4578 48.7337 54.3743 48.7747 54.2996C48.8158 54.2248 48.8742 54.161 48.9449 54.1135L49.8807 53.5699Z" fill="#78BCFF"/>
<path d="M49.8873 55.9378C50.0191 55.8613 50.1249 55.9378 50.1249 56.1005C50.1226 56.1864 50.1 56.2706 50.059 56.3461C50.018 56.4216 49.9597 56.4863 49.8889 56.535L48.9532 57.0753C48.8214 57.1502 48.7156 57.0753 48.7156 56.9126C48.718 56.8269 48.7407 56.7431 48.7817 56.6679C48.8227 56.5926 48.8809 56.5282 48.9516 56.4797L49.8873 55.9378Z" fill="#78BCFF"/>
<path d="M49.8939 58.3106C50.0257 58.2341 50.1315 58.3106 50.1315 58.4733C50.1289 58.5591 50.1062 58.6432 50.0653 58.7186C50.0243 58.7941 49.9661 58.8589 49.8955 58.9078L48.9598 59.4481C48.8296 59.523 48.7222 59.4481 48.7222 59.2854C48.7249 59.1998 48.7476 59.116 48.7886 59.0408C48.8296 58.9656 48.8877 58.9011 48.9581 58.8525L49.8939 58.3106Z" fill="#78BCFF"/>
<path d="M49.9002 60.6816C50.0321 60.6068 50.1378 60.6816 50.1378 60.8444C50.1354 60.93 50.1128 61.0139 50.0718 61.0891C50.0308 61.1644 49.9725 61.2288 49.9019 61.2773L48.9661 61.8176C48.8359 61.8941 48.7301 61.8176 48.7285 61.6548C48.7315 61.5691 48.7543 61.4852 48.7953 61.4097C48.8362 61.3343 48.8941 61.2695 48.9645 61.2203L49.9002 60.6816Z" fill="#78BCFF"/>
<path d="M66.6643 25.6762C66.7912 25.603 66.897 25.6762 66.8986 25.839C66.8964 25.9243 66.8742 26.0079 66.8338 26.0831C66.7934 26.1583 66.7359 26.2229 66.6659 26.2718L62.5616 28.6397C62.4314 28.7162 62.3256 28.6397 62.324 28.477C62.3268 28.3919 62.3496 28.3086 62.3906 28.234C62.4316 28.1593 62.4896 28.0954 62.56 28.0473L66.6643 25.6762Z" fill="#9688F3"/>
<path d="M65.4583 28.7439C65.5853 28.6706 65.6927 28.7439 65.6927 28.9066C65.6901 28.9917 65.6677 29.0749 65.6273 29.1498C65.5869 29.2246 65.5296 29.2891 65.46 29.3379L58.4101 33.4064C58.2799 33.4829 58.1741 33.4064 58.1741 33.2437C58.1762 33.1579 58.1985 33.0738 58.2393 32.9983C58.28 32.9228 58.3379 32.858 58.4084 32.8091L65.4583 28.7439Z" fill="#9688F3"/>
<path d="M64.1922 24.7275C64.324 24.651 64.4298 24.7275 64.4298 24.8902C64.4275 24.9761 64.4049 25.0603 64.3639 25.1358C64.3229 25.2113 64.2646 25.276 64.1938 25.3247L58.397 28.6707C58.2668 28.7472 58.1611 28.6707 58.1594 28.5079C58.1624 28.4222 58.1852 28.3383 58.2262 28.2629C58.2671 28.1874 58.3251 28.1226 58.3954 28.0734L64.1922 24.7275Z" fill="#9688F3"/>
<path d="M81.628 21.8551C81.7598 21.7786 81.8623 21.8551 81.8623 22.0178C81.8605 22.1032 81.8385 22.187 81.7981 22.2623C81.7576 22.3375 81.6999 22.4021 81.6296 22.4507L72.604 27.6584C72.4722 27.7333 72.3665 27.6584 72.3665 27.4957C72.3689 27.41 72.3915 27.3261 72.4325 27.2509C72.4735 27.1757 72.5318 27.1112 72.6024 27.0628L81.628 21.8551Z" fill="#9688F3"/>
<path d="M83.9668 18.1283C84.0986 18.0518 84.2011 18.1283 84.2011 18.2911C84.1993 18.3763 84.1772 18.4598 84.1368 18.5348C84.0963 18.6098 84.0386 18.6741 83.9684 18.7223L75.1804 23.7998C75.0486 23.8747 74.946 23.7998 74.946 23.6371C74.9476 23.5518 74.9695 23.4682 75.01 23.3932C75.0505 23.3181 75.1084 23.2539 75.1788 23.2058L83.9668 18.1283Z" fill="#9688F3"/>
<path d="M64.3338 31.8392C64.464 31.7644 64.5698 31.8392 64.5714 32.002C64.5685 32.0877 64.5456 32.1716 64.5047 32.247C64.4637 32.3224 64.4058 32.3873 64.3354 32.4365L58.5386 35.7824C58.4068 35.8589 58.301 35.7824 58.301 35.6197C58.3035 35.534 58.3261 35.4502 58.3671 35.3749C58.4081 35.2997 58.4663 35.2352 58.537 35.1868L64.3338 31.8392Z" fill="#9688F3"/>
<path d="M71.1347 27.909C71.2665 27.8341 71.369 27.909 71.369 28.0717C71.3672 28.1572 71.3452 28.2409 71.3047 28.3162C71.2643 28.3914 71.2065 28.456 71.1363 28.5046L65.333 31.8555C65.2012 31.9303 65.0986 31.8555 65.0986 31.6927C65.1002 31.6075 65.1221 31.5238 65.1626 31.4488C65.2031 31.3738 65.2609 31.3095 65.3314 31.2615L71.1347 27.909Z" fill="#9688F3"/>
<path d="M73.7677 24.0162C73.8963 23.943 74.002 24.0162 74.002 24.179C73.9997 24.2641 73.9775 24.3474 73.937 24.4223C73.8966 24.4972 73.8392 24.5616 73.7693 24.6102L67.1426 28.4363C67.0156 28.5095 66.9098 28.4363 66.9082 28.2735C66.9108 28.1885 66.9331 28.1052 66.9735 28.0304C67.0139 27.9555 67.0713 27.8911 67.1409 27.8423L73.7677 24.0162Z" fill="#9688F3"/>
<path d="M85.28 15.0037C85.4069 14.9288 85.5127 15.0037 85.5127 15.1664C85.5114 15.2515 85.4897 15.3351 85.4495 15.4101C85.4093 15.4851 85.3517 15.5494 85.2816 15.5977L67.8977 25.6306C67.7691 25.7039 67.6633 25.6306 67.6633 25.4679C67.6654 25.3832 67.6875 25.3002 67.728 25.2258C67.7685 25.1514 67.8261 25.0877 67.8961 25.0399L85.28 15.0037Z" fill="#FF5A5A"/>
<path d="M71.5837 20.5288C71.7123 20.4555 71.8181 20.5288 71.8181 20.6915C71.8157 20.7766 71.7935 20.8599 71.7531 20.9348C71.7126 21.0098 71.6552 21.0741 71.5853 21.1228L65.6648 24.5403C65.5346 24.6152 65.4289 24.5403 65.4272 24.3776C65.4299 24.292 65.4527 24.2082 65.4937 24.133C65.5347 24.0578 65.5927 23.9933 65.6632 23.9447L71.5837 20.5288Z" fill="#9688F3"/>
<path d="M75.5253 27.6958C75.6523 27.6226 75.758 27.6958 75.7597 27.8586C75.7571 27.9436 75.7347 28.0269 75.6943 28.1017C75.6539 28.1766 75.5966 28.241 75.5269 28.2899L65.3638 34.1583C65.2336 34.2331 65.1278 34.1583 65.1262 33.9955C65.1289 33.9099 65.1517 33.8262 65.1927 33.751C65.2336 33.6758 65.2917 33.6113 65.3622 33.5626L75.5253 27.6958Z" fill="#9688F3"/>
<path d="M61.2726 28.8594C61.4028 28.7829 61.5086 28.8513 61.5102 29.0221C61.508 29.1078 61.4855 29.1918 61.4445 29.2671C61.4034 29.3423 61.3451 29.4068 61.2742 29.455L57.3457 31.7236C57.2171 31.7969 57.1113 31.7236 57.1113 31.5609C57.1136 31.4765 57.1359 31.3938 57.1764 31.3197C57.2168 31.2456 57.2743 31.1821 57.344 31.1345L61.2726 28.8594Z" fill="#9688F3"/>
<path d="M57.279 28.7878C57.4092 28.713 57.515 28.7878 57.5166 28.9506C57.5136 29.0363 57.4908 29.1202 57.4498 29.1956C57.4089 29.2711 57.3509 29.3359 57.2806 29.3851L54.9355 30.7374C54.8086 30.8123 54.7012 30.7374 54.7012 30.5747C54.7035 30.4894 54.7257 30.4058 54.7662 30.3306C54.8066 30.2555 54.864 30.1908 54.9339 30.1418L57.279 28.7878Z" fill="#78BCFF"/>
<path d="M57.5687 35.7466C57.6989 35.6701 57.8046 35.7466 57.8063 35.9093C57.8033 35.9951 57.7805 36.079 57.7395 36.1544C57.6985 36.2298 57.6406 36.2947 57.5703 36.3439L54.9551 37.8524C54.8281 37.9257 54.7223 37.8524 54.7207 37.6897C54.7233 37.6047 54.7456 37.5214 54.786 37.4466C54.8264 37.3717 54.8838 37.3073 54.9534 37.2585L57.5687 35.7466Z" fill="#78BCFF"/>
<path d="M57.5604 33.3738C57.6923 33.2973 57.798 33.3738 57.798 33.5366C57.796 33.6225 57.7735 33.7067 57.7325 33.7823C57.6915 33.8578 57.633 33.9226 57.5621 33.9711L54.9484 35.4797C54.8215 35.5545 54.7157 35.4797 54.7141 35.3169C54.7169 35.232 54.7394 35.1488 54.7798 35.074C54.8202 34.9991 54.8773 34.9347 54.9468 34.8857L57.5604 33.3738Z" fill="#78BCFF"/>
<path d="M56.6377 31.5333C56.7679 31.4568 56.8737 31.5333 56.8753 31.696C56.8731 31.7817 56.8506 31.8657 56.8096 31.9409C56.7685 32.0162 56.7102 32.0806 56.6393 32.1289L54.9387 33.1053C54.8118 33.1786 54.706 33.1053 54.7043 32.9426C54.707 32.858 54.7295 32.7753 54.7699 32.701C54.8103 32.6266 54.8676 32.5628 54.9371 32.5146L56.6377 31.5333Z" fill="#78BCFF"/>
<path d="M57.5751 38.1177C57.7053 38.0429 57.8111 38.1177 57.8127 38.2805C57.81 38.366 57.7872 38.4498 57.7463 38.525C57.7053 38.6002 57.6472 38.6647 57.5767 38.7134L54.9615 40.2236C54.8345 40.2968 54.7288 40.2236 54.7288 40.0608C54.7308 39.9759 54.7527 39.8926 54.7929 39.8176C54.833 39.7427 54.8902 39.6783 54.9598 39.6296L57.5751 38.1177Z" fill="#78BCFF"/>
<path d="M61.9593 35.5871C62.0863 35.5139 62.1921 35.5871 62.1921 35.7499C62.1901 35.8348 62.1681 35.9181 62.128 35.993C62.0878 36.068 62.0306 36.1324 61.961 36.1811L58.4799 38.191C58.3514 38.2642 58.2456 38.191 58.2456 38.0282C58.2479 37.9431 58.2702 37.8598 58.3106 37.7849C58.351 37.71 58.4085 37.6456 58.4783 37.597L61.9593 35.5871Z" fill="#9688F3"/>
<path d="M99.1662 94.4587C100.379 94.6487 101.669 94.4737 102.639 93.9137C103.782 93.2537 103.973 92.3737 102.925 91.7687C102.154 91.3237 101.227 91.3087 99.8417 91.6187L98.9064 91.8287C98.2049 91.9837 97.8845 92.0087 97.5814 91.8337C97.2263 91.6287 97.3302 91.3387 97.7372 91.1037C98.1703 90.8537 98.7505 90.7687 99.4866 90.8537L99.6685 90.0387C98.6552 89.8637 97.5727 89.9987 96.698 90.5037C95.6155 91.1287 95.4423 91.9687 96.4209 92.5337C97.183 92.9737 98.1876 92.9637 99.452 92.6837L100.344 92.4887C101.141 92.3187 101.444 92.2837 101.782 92.4787C102.171 92.7037 102.111 93.0187 101.6 93.3137C100.976 93.6737 100.249 93.7237 99.3654 93.6437L99.1662 94.4587ZM103.094 91.0508C104.316 91.7758 106.411 91.7658 107.641 91.0258C108.472 90.5458 108.724 89.9308 108.438 89.3358L107 89.4458C107.113 89.8308 107.026 90.1408 106.585 90.3958C105.926 90.7758 104.965 90.7608 104.281 90.3658C103.614 89.9808 103.579 89.4208 104.238 89.0408C104.688 88.7808 105.234 88.7358 105.892 88.8058L106.074 87.9708C105.043 87.8058 103.995 87.9508 103.155 88.4358C101.882 89.1708 101.839 90.3258 103.094 91.0508ZM108.609 85.397C108.462 85.442 108.323 85.502 108.176 85.587C107.7 85.862 107.492 86.222 107.561 86.592L107.05 86.297L105.976 86.917L110.263 89.392L111.432 88.717L109.293 87.482C108.557 87.057 108.626 86.577 109.328 86.172L109.639 85.992L108.609 85.397ZM114.584 83.9573C113.397 83.2723 112.029 83.3123 110.912 83.9573C110.158 84.3923 109.829 84.9223 109.925 85.5473L111.25 85.6123C111.224 85.1573 111.354 84.8723 111.795 84.6173C112.315 84.3173 112.869 84.3173 113.345 84.5923L113.536 84.7023L112.462 85.3223C111.466 85.8973 111.319 86.5323 112.09 86.9773C112.843 87.4123 113.943 87.3873 114.852 86.8623C115.398 86.5473 115.649 86.1723 115.64 85.8073L116.056 86.0473L117.13 85.4273L114.584 83.9573ZM114.359 85.1773C114.852 85.4623 114.818 85.8923 114.307 86.1873C113.934 86.4023 113.51 86.4373 113.224 86.2723C112.938 86.1073 113.008 85.8973 113.389 85.6773L114.307 85.1473L114.359 85.1773ZM120.637 80.9227C119.355 80.1827 117.519 80.1427 116.324 80.8327C115.735 81.1727 115.458 81.5927 115.579 81.9927L115.042 81.6827L113.968 82.3027L119.814 85.6777L120.983 85.0027L119.009 83.8627C119.658 83.8777 120.29 83.7227 120.81 83.4227C122.005 82.7327 121.918 81.6627 120.637 80.9227ZM119.459 81.6127C120.16 82.0177 120.152 82.5727 119.528 82.9327C118.931 83.2777 118.021 83.3127 117.259 82.8727C116.488 82.4277 116.575 81.9077 117.164 81.5677C117.796 81.2027 118.74 81.1977 119.459 81.6127ZM125.893 78.3482C125.728 78.1932 125.538 78.0532 125.33 77.9332C124.213 77.2882 122.507 77.2632 121.32 77.9482C120.056 78.6482 120.056 79.8382 121.32 80.5382C122.532 81.2682 124.611 81.2582 125.91 80.4782C126.542 80.1132 126.897 79.6582 126.984 79.1182L125.702 78.9382C125.616 79.3182 125.364 79.6332 124.94 79.8782C124.317 80.2382 123.572 80.3182 122.888 80.0832L125.893 78.3482ZM122.065 79.6082C121.666 79.2282 121.727 78.8032 122.221 78.5182C122.732 78.2232 123.476 78.1832 124.013 78.4832L122.065 79.6082ZM104.98 97.4919L106.375 99.4469L102.703 98.6969L102.313 98.9219L103.681 101.062L100.226 100.237L98.9962 100.947L105.379 102.332L105.76 102.112L104.504 99.9569L108.228 100.687L108.609 100.467L106.21 96.7819L104.98 97.4919ZM113.207 95.6724C113.042 95.5174 112.852 95.3774 112.644 95.2574C111.527 94.6124 109.821 94.5874 108.634 95.2724C107.37 95.9724 107.37 97.1624 108.634 97.8624C109.847 98.5924 111.925 98.5824 113.224 97.8024C113.856 97.4374 114.211 96.9824 114.298 96.4424L113.016 96.2624C112.93 96.6424 112.678 96.9574 112.254 97.2024C111.631 97.5624 110.886 97.6424 110.202 97.4074L113.207 95.6724ZM109.379 96.9324C108.981 96.5524 109.041 96.1274 109.535 95.8424C110.046 95.5474 110.791 95.5074 111.327 95.8074L109.379 96.9324ZM118.337 92.2607C117.046 91.5157 115.21 91.4757 114.015 92.1657C113.469 92.4807 113.218 92.8257 113.244 93.2007L110.62 91.6857L109.451 92.3607L115.946 96.1107L117.02 95.4907L116.492 95.1857C117.202 95.2457 117.912 95.0957 118.501 94.7557C119.696 94.0657 119.627 93.0057 118.337 92.2607ZM117.141 92.9407C117.86 93.3557 117.852 93.9007 117.219 94.2657C116.63 94.6057 115.73 94.6557 114.959 94.2107C114.197 93.7707 114.258 93.2457 114.855 92.9007C115.479 92.5407 116.44 92.5357 117.141 92.9407ZM123.898 91.5198L125.769 90.4398C127.605 89.4098 127.691 87.9198 126.011 86.9798C124.348 85.9898 121.845 86.0848 120.053 87.1398L118.182 88.2198L123.898 91.5198ZM124.011 90.2348L120.408 88.1548L121.101 87.7548C122.27 87.0798 123.699 87.0348 124.807 87.6748C125.907 88.3098 125.855 89.1698 124.703 89.8348L124.011 90.2348ZM130.847 84.5677C129.661 83.8827 128.292 83.9227 127.175 84.5677C126.422 85.0027 126.093 85.5327 126.188 86.1577L127.513 86.2227C127.487 85.7677 127.617 85.4827 128.059 85.2277C128.578 84.9277 129.132 84.9277 129.609 85.2027L129.799 85.3127L128.725 85.9327C127.73 86.5077 127.582 87.1427 128.353 87.5877C129.107 88.0227 130.206 87.9977 131.116 87.4727C131.661 87.1577 131.912 86.7827 131.904 86.4177L132.319 86.6577L133.393 86.0377L130.847 84.5677ZM130.622 85.7877C131.116 86.0727 131.081 86.5027 130.57 86.7977C130.198 87.0127 129.773 87.0477 129.488 86.8827C129.202 86.7177 129.271 86.5077 129.652 86.2877L130.57 85.7577L130.622 85.7877ZM136.294 83.2331C136.017 83.4231 135.844 83.5331 135.774 83.5731C135.22 83.8931 134.796 83.9281 134.311 83.6481L132.622 82.6731L133.834 81.9731L132.847 81.4031L131.635 82.1031L130.552 81.4781L129.383 82.1531L130.465 82.7781L129.79 83.1681L130.777 83.7381L131.453 83.3481L133.245 84.3831C134.319 85.0031 135.488 84.9481 136.571 84.3231C136.831 84.1731 137.065 83.9981 137.272 83.7981L136.294 83.2331ZM139.169 79.763C137.983 79.078 136.614 79.118 135.497 79.763C134.744 80.198 134.415 80.728 134.51 81.353L135.835 81.418C135.809 80.963 135.939 80.678 136.381 80.423C136.9 80.123 137.454 80.123 137.931 80.398L138.121 80.508L137.047 81.128C136.051 81.703 135.904 82.338 136.675 82.783C137.428 83.218 138.528 83.193 139.438 82.668C139.983 82.353 140.234 81.978 140.226 81.613L140.641 81.853L141.715 81.233L139.169 79.763ZM138.944 80.983C139.438 81.268 139.403 81.698 138.892 81.993C138.52 82.208 138.095 82.243 137.81 82.078C137.524 81.913 137.593 81.703 137.974 81.483L138.892 80.953L138.944 80.983Z" fill="#002642"/>
<defs>
<linearGradient id="paint0_linear" x1="73.7013" y1="77.1364" x2="92.0682" y2="52.4536" gradientUnits="userSpaceOnUse">
<stop stop-color="#4F429F"/>
<stop offset="0.543707" stop-color="#6152BD"/>
<stop offset="1" stop-color="#6152BD"/>
</linearGradient>
<linearGradient id="paint1_linear" x1="61.834" y1="50.4877" x2="83.907" y2="37.7252" gradientUnits="userSpaceOnUse">
<stop stop-color="#4F429F"/>
<stop offset="0.543707" stop-color="#6152BD"/>
<stop offset="1" stop-color="#6152BD"/>
</linearGradient>
</defs>
</svg>
