<svg width="378" height="410" viewBox="0 0 378 410" fill="none" xmlns="http://www.w3.org/2000/svg">
<g opacity="0.5">
<g filter="url(#filter0_d)">
<rect x="-317" y="10" width="681" height="395" rx="10" fill="url(#paint0_linear)"/>
</g>
<rect x="-282" y="51" width="611" height="183" rx="10" fill="url(#paint1_linear)"/>
<g filter="url(#filter1_d)">
<path d="M302.099 294.245L302.095 294.236C301.898 293.755 301.668 293.32 301.367 292.957L281.88 271.632L281.878 271.631C281.492 271.204 281.015 270.888 280.46 270.599L302.099 294.245ZM302.099 294.245L302.102 294.253M302.099 294.245L302.102 294.253M302.102 294.253C302.389 294.888 302.5 295.625 302.5 296.42V353.207C302.5 356.111 300.385 358.5 297.835 358.5H241.281C238.717 358.5 236.5 356.096 236.5 353.207V275.227C236.5 272.388 238.693 270.167 241.281 270.167H278.48C279.212 270.167 279.873 270.296 280.459 270.599L302.102 294.253ZM278.708 277.656L277.84 276.714V277.995V293.349C277.84 295.047 279.347 296.478 280.923 296.478H294.904H296.044L295.272 295.639L278.708 277.656ZM247.958 295.245C247.721 295.245 247.437 295.288 247.192 295.415C246.935 295.548 246.667 295.814 246.667 296.234V298.746C246.667 299.105 246.88 299.409 247.083 299.597C247.294 299.791 247.607 299.968 247.958 299.968H264.428C264.807 299.968 265.103 299.775 265.291 299.545C265.473 299.32 265.58 299.03 265.58 298.746V296.234C265.58 295.903 265.436 295.621 265.173 295.444C264.941 295.287 264.664 295.245 264.428 295.245H247.958ZM247.958 325.023C247.721 325.023 247.437 325.066 247.192 325.193C246.935 325.326 246.667 325.591 246.667 326.012V328.524C246.667 328.883 246.88 329.186 247.083 329.374C247.294 329.569 247.607 329.745 247.958 329.745H276.386C276.781 329.745 277.068 329.535 277.234 329.278C277.388 329.039 277.444 328.759 277.444 328.524V326.012C277.444 325.751 277.373 325.461 277.127 325.254C276.901 325.064 276.618 325.023 276.386 325.023H247.958ZM283.831 344.634C284.226 344.634 284.512 344.424 284.678 344.167C284.832 343.928 284.889 343.648 284.889 343.413V340.901C284.889 340.64 284.817 340.35 284.572 340.143C284.345 339.952 284.062 339.912 283.831 339.912H247.958C247.721 339.912 247.437 339.955 247.192 340.082C246.935 340.215 246.667 340.48 246.667 340.901V343.413C246.667 343.772 246.88 344.075 247.083 344.263C247.294 344.458 247.607 344.634 247.958 344.634H283.831ZM291.275 314.857C291.67 314.857 291.956 314.647 292.122 314.389C292.277 314.15 292.333 313.87 292.333 313.635V311.123C292.333 310.862 292.261 310.573 292.016 310.366C291.79 310.175 291.507 310.134 291.275 310.134H247.958C247.721 310.134 247.437 310.177 247.192 310.304C246.935 310.437 246.667 310.703 246.667 311.123V313.635C246.667 313.994 246.88 314.297 247.083 314.486C247.294 314.68 247.607 314.857 247.958 314.857H291.275Z" fill="url(#paint2_linear)" stroke="#223145"/>
</g>
<g filter="url(#filter2_d)">
<path d="M212.099 294.245L212.095 294.236C211.898 293.755 211.668 293.32 211.367 292.957L191.88 271.632L191.878 271.631C191.492 271.204 191.015 270.888 190.46 270.599L212.099 294.245ZM212.099 294.245L212.102 294.253M212.099 294.245L212.102 294.253M212.102 294.253C212.389 294.888 212.5 295.625 212.5 296.42V353.207C212.5 356.111 210.385 358.5 207.835 358.5H151.281C148.717 358.5 146.5 356.096 146.5 353.207V275.227C146.5 272.388 148.693 270.167 151.281 270.167H188.48C189.212 270.167 189.873 270.296 190.459 270.599L212.102 294.253ZM188.708 277.656L187.84 276.714V277.995V293.349C187.84 295.047 189.347 296.478 190.923 296.478H204.904H206.044L205.272 295.639L188.708 277.656ZM157.958 295.245C157.721 295.245 157.437 295.288 157.192 295.415C156.935 295.548 156.667 295.814 156.667 296.234V298.746C156.667 299.105 156.88 299.409 157.083 299.597C157.294 299.791 157.607 299.968 157.958 299.968H174.428C174.807 299.968 175.103 299.775 175.291 299.545C175.473 299.32 175.58 299.03 175.58 298.746V296.234C175.58 295.903 175.436 295.621 175.173 295.444C174.941 295.287 174.664 295.245 174.428 295.245H157.958ZM157.958 325.023C157.721 325.023 157.437 325.066 157.192 325.193C156.935 325.326 156.667 325.591 156.667 326.012V328.524C156.667 328.883 156.88 329.186 157.083 329.374C157.294 329.569 157.607 329.745 157.958 329.745H186.386C186.781 329.745 187.068 329.535 187.234 329.278C187.388 329.039 187.444 328.759 187.444 328.524V326.012C187.444 325.751 187.373 325.461 187.127 325.254C186.901 325.064 186.618 325.023 186.386 325.023H157.958ZM193.831 344.634C194.226 344.634 194.512 344.424 194.678 344.167C194.832 343.928 194.889 343.648 194.889 343.413V340.901C194.889 340.64 194.817 340.35 194.572 340.143C194.345 339.952 194.062 339.912 193.831 339.912H157.958C157.721 339.912 157.437 339.955 157.192 340.082C156.935 340.215 156.667 340.48 156.667 340.901V343.413C156.667 343.772 156.88 344.075 157.083 344.263C157.294 344.458 157.607 344.634 157.958 344.634H193.831ZM201.275 314.857C201.67 314.857 201.956 314.647 202.122 314.389C202.277 314.15 202.333 313.87 202.333 313.635V311.123C202.333 310.862 202.261 310.573 202.016 310.366C201.79 310.175 201.507 310.134 201.275 310.134H157.958C157.721 310.134 157.437 310.177 157.192 310.304C156.935 310.437 156.667 310.703 156.667 311.123V313.635C156.667 313.994 156.88 314.297 157.083 314.486C157.294 314.68 157.607 314.857 157.958 314.857H201.275Z" fill="url(#paint3_linear)" stroke="#223145"/>
</g>
<g filter="url(#filter3_d)">
<path d="M122.099 294.245L122.095 294.236C121.898 293.755 121.668 293.32 121.367 292.957L101.88 271.632L101.878 271.631C101.492 271.204 101.015 270.888 100.46 270.599L122.099 294.245ZM122.099 294.245L122.102 294.253M122.099 294.245L122.102 294.253M122.102 294.253C122.389 294.888 122.5 295.625 122.5 296.42V353.207C122.5 356.111 120.385 358.5 117.835 358.5H61.2809C58.7173 358.5 56.5 356.096 56.5 353.207V275.227C56.5 272.388 58.693 270.167 61.2809 270.167H98.4799C99.2117 270.167 99.8726 270.296 100.459 270.599L122.102 294.253ZM98.708 277.656L97.8403 276.714V277.995V293.349C97.8403 295.047 99.3465 296.478 100.923 296.478H114.904H116.044L115.272 295.639L98.708 277.656ZM67.9576 295.245C67.7208 295.245 67.4368 295.288 67.1922 295.415C66.9354 295.548 66.6667 295.814 66.6667 296.234V298.746C66.6667 299.105 66.8798 299.409 67.0834 299.597C67.2938 299.791 67.607 299.968 67.9576 299.968H84.4285C84.807 299.968 85.103 299.775 85.2905 299.545C85.4728 299.32 85.5799 299.03 85.5799 298.746V296.234C85.5799 295.903 85.4357 295.621 85.1735 295.444C84.941 295.287 84.6642 295.245 84.4285 295.245H67.9576ZM67.9576 325.023C67.7208 325.023 67.4368 325.066 67.1922 325.193C66.9354 325.326 66.6667 325.591 66.6667 326.012V328.524C66.6667 328.883 66.8798 329.186 67.0834 329.374C67.2938 329.569 67.607 329.745 67.9576 329.745H96.3861C96.7814 329.745 97.0675 329.535 97.2336 329.278C97.3879 329.039 97.4444 328.759 97.4444 328.524V326.012C97.4444 325.751 97.3725 325.461 97.1273 325.254C96.901 325.064 96.6179 325.023 96.3861 325.023H67.9576ZM103.831 344.634C104.226 344.634 104.512 344.424 104.678 344.167C104.832 343.928 104.889 343.648 104.889 343.413V340.901C104.889 340.64 104.817 340.35 104.572 340.143C104.345 339.952 104.062 339.912 103.831 339.912H67.9576C67.7208 339.912 67.4368 339.955 67.1922 340.082C66.9354 340.215 66.6667 340.48 66.6667 340.901V343.413C66.6667 343.772 66.8798 344.075 67.0834 344.263C67.2938 344.458 67.607 344.634 67.9576 344.634H103.831ZM111.275 314.857C111.67 314.857 111.956 314.647 112.122 314.389C112.277 314.15 112.333 313.87 112.333 313.635V311.123C112.333 310.862 112.261 310.573 112.016 310.366C111.79 310.175 111.507 310.134 111.275 310.134H67.9576C67.7208 310.134 67.4368 310.177 67.1922 310.304C66.9354 310.437 66.6667 310.703 66.6667 311.123V313.635C66.6667 313.994 66.8798 314.297 67.0834 314.486C67.2938 314.68 67.607 314.857 67.9576 314.857H111.275Z" fill="url(#paint4_linear)" stroke="#223145"/>
</g>
<path d="M136.216 186.112C136.035 185.973 135.859 185.851 135.688 185.744C135.528 185.627 135.357 185.531 135.176 185.456C134.995 185.371 134.797 185.307 134.584 185.264C134.371 185.221 134.131 185.2 133.864 185.2C133.32 185.2 132.888 185.323 132.568 185.568C132.259 185.803 132.104 186.123 132.104 186.528C132.104 186.827 132.227 187.072 132.472 187.264C132.728 187.456 133.043 187.632 133.416 187.792C133.8 187.952 134.211 188.112 134.648 188.272C135.085 188.432 135.491 188.624 135.864 188.848C136.248 189.072 136.563 189.344 136.808 189.664C137.064 189.984 137.192 190.389 137.192 190.88C137.192 191.221 137.123 191.541 136.984 191.84C136.856 192.128 136.664 192.384 136.408 192.608C136.163 192.821 135.864 193.003 135.512 193.152C135.171 193.291 134.792 193.381 134.376 193.424V195.76H133.416V193.44C132.819 193.387 132.253 193.243 131.72 193.008C131.187 192.773 130.733 192.501 130.36 192.192L130.984 191.28C131.389 191.568 131.832 191.824 132.312 192.048C132.803 192.261 133.352 192.368 133.96 192.368C134.6 192.368 135.08 192.24 135.4 191.984C135.731 191.717 135.896 191.381 135.896 190.976C135.896 190.645 135.768 190.373 135.512 190.16C135.267 189.936 134.957 189.739 134.584 189.568C134.211 189.397 133.8 189.232 133.352 189.072C132.915 188.912 132.509 188.725 132.136 188.512C131.763 188.288 131.448 188.027 131.192 187.728C130.947 187.419 130.824 187.029 130.824 186.56C130.824 185.888 131.059 185.339 131.528 184.912C132.008 184.485 132.637 184.229 133.416 184.144V182.032H134.376V184.128C134.963 184.181 135.453 184.32 135.848 184.544C136.243 184.768 136.6 185.035 136.92 185.344L136.216 186.112ZM142.69 194.304C142.69 194.016 142.695 193.744 142.706 193.488C142.727 193.221 142.743 192.965 142.754 192.72C142.775 192.475 142.791 192.229 142.802 191.984C142.823 191.739 142.834 191.483 142.834 191.216C142.834 191.056 142.802 190.907 142.738 190.768C142.674 190.619 142.556 190.485 142.386 190.368C142.215 190.251 141.975 190.155 141.666 190.08C141.367 190.005 140.983 189.968 140.514 189.968V189.136C140.983 189.136 141.367 189.099 141.666 189.024C141.975 188.949 142.215 188.853 142.386 188.736C142.556 188.619 142.674 188.491 142.738 188.352C142.802 188.203 142.834 188.048 142.834 187.888C142.834 187.376 142.807 186.875 142.754 186.384C142.711 185.883 142.69 185.355 142.69 184.8C142.69 184.384 142.748 184.043 142.866 183.776C142.983 183.499 143.164 183.28 143.41 183.12C143.655 182.96 143.964 182.848 144.338 182.784C144.711 182.709 145.148 182.672 145.65 182.672H146.626V183.44H145.794C145.388 183.44 145.052 183.467 144.786 183.52C144.53 183.573 144.327 183.659 144.178 183.776C144.039 183.883 143.943 184.032 143.89 184.224C143.836 184.405 143.81 184.624 143.81 184.88C143.81 185.339 143.826 185.813 143.858 186.304C143.89 186.784 143.906 187.275 143.906 187.776C143.906 188.299 143.799 188.699 143.586 188.976C143.383 189.243 143.004 189.424 142.45 189.52V189.584C143.004 189.68 143.383 189.867 143.586 190.144C143.799 190.411 143.906 190.805 143.906 191.328C143.906 191.872 143.89 192.368 143.858 192.816C143.826 193.264 143.81 193.733 143.81 194.224C143.81 194.48 143.836 194.699 143.89 194.88C143.943 195.072 144.039 195.221 144.178 195.328C144.327 195.445 144.53 195.531 144.786 195.584C145.052 195.637 145.388 195.664 145.794 195.664H146.626V196.432H145.65C145.148 196.432 144.711 196.395 144.338 196.32C143.964 196.256 143.655 196.144 143.41 195.984C143.164 195.824 142.983 195.605 142.866 195.328C142.748 195.061 142.69 194.72 142.69 194.304ZM150.028 183.504H156.508V184.624H151.372V187.92H155.708V189.056H151.372V192.864H156.668V194H150.028V183.504ZM161.781 188.576L158.853 183.504H160.325L161.797 186.192C161.936 186.437 162.069 186.677 162.197 186.912C162.325 187.136 162.475 187.403 162.645 187.712H162.709C162.859 187.403 162.987 187.136 163.093 186.912C163.211 186.677 163.333 186.437 163.461 186.192L164.901 183.504H166.309L163.381 188.64L166.517 194H165.045L163.461 191.168C163.312 190.912 163.163 190.651 163.013 190.384C162.875 190.107 162.715 189.808 162.533 189.488H162.469C162.32 189.808 162.176 190.107 162.037 190.384C161.899 190.651 161.76 190.912 161.621 191.168L160.053 194H158.645L161.781 188.576ZM168.431 188.752C168.431 187.909 168.543 187.152 168.767 186.48C169.002 185.808 169.327 185.237 169.743 184.768C170.159 184.299 170.655 183.941 171.231 183.696C171.807 183.44 172.436 183.312 173.119 183.312C173.759 183.312 174.319 183.44 174.799 183.696C175.279 183.952 175.674 184.251 175.983 184.592L175.231 185.44C174.954 185.152 174.644 184.923 174.303 184.752C173.962 184.571 173.567 184.48 173.119 184.48C172.618 184.48 172.159 184.581 171.743 184.784C171.338 184.976 170.991 185.259 170.703 185.632C170.415 185.995 170.191 186.437 170.031 186.96C169.882 187.483 169.807 188.069 169.807 188.72C169.807 189.381 169.882 189.979 170.031 190.512C170.191 191.035 170.415 191.483 170.703 191.856C170.991 192.229 171.338 192.517 171.743 192.72C172.159 192.923 172.618 193.024 173.119 193.024C173.599 193.024 174.026 192.923 174.399 192.72C174.772 192.517 175.13 192.229 175.471 191.856L176.239 192.672C175.823 193.152 175.354 193.525 174.831 193.792C174.308 194.059 173.711 194.192 173.039 194.192C172.378 194.192 171.764 194.069 171.199 193.824C170.644 193.579 170.159 193.227 169.743 192.768C169.338 192.299 169.018 191.728 168.783 191.056C168.548 190.373 168.431 189.605 168.431 188.752ZM178.809 183.504H185.289V184.624H180.153V187.92H184.489V189.056H180.153V192.864H185.449V194H178.809V183.504ZM188.707 183.504H190.019V192.864H195.219V194H188.707V183.504ZM204.796 195.104V196.24H197.116V195.104H204.796ZM207.91 183.504H214.326V184.624H209.238V188.176H213.542V189.296H209.238V194H207.91V183.504ZM216.864 192.864H219.472V184.624H216.864V183.504H223.424V184.624H220.816V192.864H223.424V194H216.864V192.864ZM227.082 183.504H228.394V192.864H233.594V194H227.082V183.504ZM236.371 183.504H242.851V184.624H237.715V187.92H242.051V189.056H237.715V192.864H243.011V194H236.371V183.504ZM252.765 195.104V196.24H245.085V195.104H252.765ZM255.351 183.504H258.567C259.143 183.504 259.671 183.557 260.151 183.664C260.631 183.771 261.036 183.947 261.367 184.192C261.708 184.427 261.969 184.741 262.151 185.136C262.343 185.531 262.439 186.016 262.439 186.592C262.439 187.147 262.343 187.627 262.151 188.032C261.969 188.437 261.708 188.773 261.367 189.04C261.025 189.307 260.615 189.509 260.135 189.648C259.665 189.776 259.143 189.84 258.567 189.84H256.679V194H255.351V183.504ZM258.391 188.752C259.319 188.752 260.001 188.581 260.439 188.24C260.887 187.888 261.111 187.339 261.111 186.592C261.111 185.835 260.881 185.312 260.423 185.024C259.975 184.725 259.297 184.576 258.391 184.576H256.679V188.752H258.391ZM269.665 189.728L269.169 188.128C268.987 187.541 268.811 186.96 268.641 186.384C268.47 185.797 268.299 185.2 268.129 184.592H268.065C267.894 185.2 267.723 185.797 267.553 186.384C267.382 186.96 267.206 187.541 267.025 188.128L266.529 189.728H269.665ZM270.001 190.8H266.193L265.185 194H263.825L267.361 183.504H268.865L272.401 194H270.993L270.001 190.8ZM277.034 184.624H273.578V183.504H281.834V184.624H278.378V194H277.034V184.624ZM283.764 183.504H285.108V187.904H289.492V183.504H290.836V194H289.492V189.056H285.108V194H283.764V183.504ZM294.494 195.664C294.899 195.664 295.23 195.637 295.486 195.584C295.752 195.531 295.96 195.445 296.11 195.328C296.259 195.221 296.36 195.072 296.414 194.88C296.467 194.699 296.494 194.48 296.494 194.224C296.494 193.733 296.478 193.264 296.446 192.816C296.414 192.368 296.398 191.872 296.398 191.328C296.398 190.805 296.499 190.411 296.702 190.144C296.904 189.867 297.283 189.68 297.838 189.584V189.52C297.283 189.424 296.904 189.243 296.702 188.976C296.499 188.699 296.398 188.299 296.398 187.776C296.398 187.275 296.414 186.784 296.446 186.304C296.478 185.813 296.494 185.339 296.494 184.88C296.494 184.624 296.467 184.405 296.414 184.224C296.36 184.032 296.259 183.883 296.11 183.776C295.96 183.659 295.752 183.573 295.486 183.52C295.23 183.467 294.899 183.44 294.494 183.44H293.678V182.672H294.654C295.155 182.672 295.587 182.709 295.95 182.784C296.323 182.848 296.632 182.96 296.878 183.12C297.123 183.28 297.304 183.499 297.422 183.776C297.539 184.043 297.598 184.384 297.598 184.8C297.598 185.355 297.571 185.883 297.518 186.384C297.475 186.875 297.454 187.376 297.454 187.888C297.454 188.048 297.486 188.203 297.55 188.352C297.614 188.491 297.731 188.619 297.902 188.736C298.072 188.853 298.307 188.949 298.606 189.024C298.915 189.099 299.304 189.136 299.774 189.136V189.968C299.304 189.968 298.915 190.005 298.606 190.08C298.307 190.155 298.072 190.251 297.902 190.368C297.731 190.485 297.614 190.619 297.55 190.768C297.486 190.907 297.454 191.056 297.454 191.216C297.454 191.483 297.459 191.739 297.47 191.984C297.491 192.229 297.507 192.475 297.518 192.72C297.539 192.965 297.555 193.221 297.566 193.488C297.587 193.744 297.598 194.016 297.598 194.304C297.598 194.72 297.539 195.061 297.422 195.328C297.304 195.605 297.123 195.824 296.878 195.984C296.632 196.144 296.323 196.256 295.95 196.32C295.587 196.395 295.155 196.432 294.654 196.432H293.678V195.664H294.494Z" fill="white"/>
</g>
<defs>
<filter id="filter0_d" x="-331" y="0" width="709" height="423" filterUnits="userSpaceOnUse" color-interpolation-filters="sRGB">
<feFlood flood-opacity="0" result="BackgroundImageFix"/>
<feColorMatrix in="SourceAlpha" type="matrix" values="0 0 0 0 0 0 0 0 0 0 0 0 0 0 0 0 0 0 127 0"/>
<feOffset dy="4"/>
<feGaussianBlur stdDeviation="7"/>
<feColorMatrix type="matrix" values="0 0 0 0 0.843137 0 0 0 0 0.862745 0 0 0 0 0.890196 0 0 0 1 0"/>
<feBlend mode="normal" in2="BackgroundImageFix" result="effect1_dropShadow"/>
<feBlend mode="normal" in="SourceGraphic" in2="effect1_dropShadow" result="shape"/>
</filter>
<filter id="filter1_d" x="232" y="269.667" width="75" height="97.3333" filterUnits="userSpaceOnUse" color-interpolation-filters="sRGB">
<feFlood flood-opacity="0" result="BackgroundImageFix"/>
<feColorMatrix in="SourceAlpha" type="matrix" values="0 0 0 0 0 0 0 0 0 0 0 0 0 0 0 0 0 0 127 0"/>
<feOffset dy="4"/>
<feGaussianBlur stdDeviation="2"/>
<feColorMatrix type="matrix" values="0 0 0 0 0.164706 0 0 0 0 0.223529 0 0 0 0 0.305882 0 0 0 1 0"/>
<feBlend mode="normal" in2="BackgroundImageFix" result="effect1_dropShadow"/>
<feBlend mode="normal" in="SourceGraphic" in2="effect1_dropShadow" result="shape"/>
</filter>
<filter id="filter2_d" x="142" y="269.667" width="75" height="97.3333" filterUnits="userSpaceOnUse" color-interpolation-filters="sRGB">
<feFlood flood-opacity="0" result="BackgroundImageFix"/>
<feColorMatrix in="SourceAlpha" type="matrix" values="0 0 0 0 0 0 0 0 0 0 0 0 0 0 0 0 0 0 127 0"/>
<feOffset dy="4"/>
<feGaussianBlur stdDeviation="2"/>
<feColorMatrix type="matrix" values="0 0 0 0 0.164706 0 0 0 0 0.223529 0 0 0 0 0.305882 0 0 0 1 0"/>
<feBlend mode="normal" in2="BackgroundImageFix" result="effect1_dropShadow"/>
<feBlend mode="normal" in="SourceGraphic" in2="effect1_dropShadow" result="shape"/>
</filter>
<filter id="filter3_d" x="52" y="269.667" width="75" height="97.3333" filterUnits="userSpaceOnUse" color-interpolation-filters="sRGB">
<feFlood flood-opacity="0" result="BackgroundImageFix"/>
<feColorMatrix in="SourceAlpha" type="matrix" values="0 0 0 0 0 0 0 0 0 0 0 0 0 0 0 0 0 0 127 0"/>
<feOffset dy="4"/>
<feGaussianBlur stdDeviation="2"/>
<feColorMatrix type="matrix" values="0 0 0 0 0.164706 0 0 0 0 0.223529 0 0 0 0 0.305882 0 0 0 1 0"/>
<feBlend mode="normal" in2="BackgroundImageFix" result="effect1_dropShadow"/>
<feBlend mode="normal" in="SourceGraphic" in2="effect1_dropShadow" result="shape"/>
</filter>
<linearGradient id="paint0_linear" x1="23.5" y1="10" x2="23.5" y2="405" gradientUnits="userSpaceOnUse">
<stop stop-color="#4E5D71"/>
<stop offset="1" stop-color="#2E4056"/>
</linearGradient>
<linearGradient id="paint1_linear" x1="23.5" y1="51" x2="23.5" y2="234" gradientUnits="userSpaceOnUse">
<stop stop-color="#21334B"/>
<stop offset="1" stop-color="#132640"/>
</linearGradient>
<linearGradient id="paint2_linear" x1="269.5" y1="269.667" x2="269.5" y2="359" gradientUnits="userSpaceOnUse">
<stop stop-color="#64B58F"/>
<stop offset="1" stop-color="#539D76"/>
</linearGradient>
<linearGradient id="paint3_linear" x1="179.5" y1="269.667" x2="179.5" y2="359" gradientUnits="userSpaceOnUse">
<stop stop-color="#EB777B"/>
<stop offset="1" stop-color="#D76064"/>
</linearGradient>
<linearGradient id="paint4_linear" x1="89.5" y1="269.667" x2="89.5" y2="359" gradientUnits="userSpaceOnUse">
<stop stop-color="#8F48BE"/>
<stop offset="1" stop-color="#742DA3"/>
</linearGradient>
</defs>
</svg>
