<svg width="189" height="146" viewBox="0 0 189 146" fill="none" xmlns="http://www.w3.org/2000/svg">
<rect width="109.003" height="109.003" transform="matrix(0.866025 0.5 -0.866025 0.5 94.3994 36.4962)" fill="#D3DCE4"/>
<path d="M188.869 91.0406V81.5014L177.128 87.6163L188.869 91.0406Z" fill="#D3DCE4"/>
<path d="M0.0427179 91.0406V81.5014L11.7832 87.6163L0.0427179 91.0406Z" fill="#D3DCE4"/>
<rect width="109.003" height="109.003" transform="matrix(0.866025 0.5 -0.866025 0.5 94.3994 27)" fill="#F1F5F9"/>
<rect width="88.0536" height="88.0536" transform="matrix(0.866025 0.5 -0.866025 0.5 94 37)" fill="white" stroke="white" stroke-width="0.489187"/>
<g filter="url(#filter0_b)">
<path d="M81.658 56.7414L45.3159 35.7573V77.6964L81.658 98.6805V56.7414Z" fill="#403487"/>
<path d="M81.658 56.7414L45.3159 35.7573V77.6964L81.658 98.6805V56.7414Z" stroke="white" stroke-opacity="0.5" stroke-width="1.35161"/>
</g>
<path d="M81.658 56.7414L118 35.7573V77.6964L81.658 98.6805V56.7414Z" fill="url(#paint0_linear)"/>
<g filter="url(#filter1_b)">
<path d="M118 35.7573L81.658 14.7878L45.3159 35.7573L81.658 56.7414L118 35.7573Z" fill="#403487"/>
<path d="M118 35.7573L81.658 14.7878L45.3159 35.7573L81.658 56.7414L118 35.7573Z" stroke="white" stroke-opacity="0.5" stroke-width="1.35161"/>
</g>
<path opacity="0.2" d="M59.0134 58.2617L60.1948 58.9444V57.6904L59.0134 57.0077V58.2617Z" fill="white"/>
<path opacity="0.2" d="M56.5681 56.8528L57.7495 57.5354V56.2766L56.5681 55.5939V56.8528Z" fill="white"/>
<path opacity="0.2" d="M54.123 55.4389L55.3044 56.1216V54.8676L54.123 54.1849V55.4389Z" fill="white"/>
<path opacity="0.2" d="M56.5681 49.9678L57.7495 50.6505V49.3916L56.5681 48.7089V49.9678Z" fill="white"/>
<path opacity="0.2" d="M59.0134 69.7124L60.1948 70.3951V69.1411L59.0134 68.4584V69.7124Z" fill="white"/>
<path opacity="0.2" d="M56.5681 68.3034L57.7495 68.9861V67.7272L56.5681 67.0494V68.3034Z" fill="white"/>
<path opacity="0.2" d="M54.123 66.8945L55.3044 67.5723V66.3183L54.123 65.6356V66.8945Z" fill="white"/>
<path opacity="0.2" d="M61.4585 66.7493L62.6399 67.432V66.178L61.4585 65.4953V66.7493Z" fill="white"/>
<path opacity="0.2" d="M59.0134 65.3403L60.1948 66.023V64.7641L59.0134 64.0815V65.3403Z" fill="white"/>
<path opacity="0.2" d="M59.0134 76.636L60.1948 77.3139V76.0599L59.0134 75.3772V76.636Z" fill="white"/>
<path opacity="0.2" d="M56.5681 75.2223L57.7495 75.905V74.6461L56.5681 73.9683V75.2223Z" fill="white"/>
<path opacity="0.2" d="M61.4585 75.5079L62.6399 76.1906V74.9317L61.4585 74.2491V75.5079Z" fill="white"/>
<path opacity="0.2" d="M59.0134 74.0941L60.1948 74.7768V73.5228L59.0134 72.8401V74.0941Z" fill="white"/>
<path opacity="0.2" d="M54.123 71.2714L55.3044 71.9541V70.7001L54.123 70.0174V71.2714Z" fill="white"/>
<path opacity="0.2" d="M95.9602 35.1569L84.8242 41.5819C82.6309 42.8504 78.7962 42.6906 76.264 41.2284L66.4837 35.583C63.9515 34.1305 63.6755 31.9032 65.8688 30.6396L77.0048 24.2146C79.2029 22.946 83.0327 23.1058 85.5698 24.568L95.3501 30.2135C97.8775 31.6757 98.1535 33.8932 95.9602 35.1569Z" stroke="white" stroke-width="0.484173" stroke-miterlimit="10"/>
<g filter="url(#filter2_b)">
<path d="M95.9602 30.1941L84.8242 36.6191C82.6309 37.8876 78.7962 37.7279 76.264 36.2657L66.4837 30.6202C63.9515 29.1677 63.6755 26.9405 65.8688 25.6768L77.0048 19.2518C79.2029 17.9833 83.0327 18.1431 85.5698 19.6053L95.3452 25.2604C97.8775 26.7129 98.1535 28.9256 95.9602 30.1941Z" fill="url(#paint1_linear)" fill-opacity="0.8"/>
<path d="M95.9602 30.1941L84.8242 36.6191C82.6309 37.8876 78.7962 37.7279 76.264 36.2657L66.4837 30.6202C63.9515 29.1677 63.6755 26.9405 65.8688 25.6768L77.0048 19.2518C79.2029 17.9833 83.0327 18.1431 85.5698 19.6053L95.3452 25.2604C97.8775 26.7129 98.1535 28.9256 95.9602 30.1941Z" stroke="white" stroke-opacity="0.5" stroke-width="1.35161"/>
</g>
<path opacity="0.2" d="M90.1503 59.2542L86.8628 61.1522V59.8933L90.1503 58.0002V59.2542Z" fill="white"/>
<path opacity="0.2" d="M88.0442 62.9775L86.8628 63.6602V62.4062L88.0442 61.7235V62.9775Z" fill="white"/>
<path opacity="0.2" d="M92.3295 60.5083L89.2065 62.3094V61.0554L92.3295 59.2495V60.5083Z" fill="white"/>
<path opacity="0.2" d="M90.1503 64.2751L86.8628 66.1731V64.9142L90.1503 63.0211V64.2751Z" fill="white"/>
<path opacity="0.2" d="M96.6917 55.4777L91.3464 58.5618V57.3078L96.6917 54.2188V55.4777Z" fill="white"/>
<path opacity="0.2" d="M90.1503 70.7049L86.8628 72.6029V71.3489L90.1503 69.4509V70.7049Z" fill="white"/>
<path opacity="0.2" d="M92.6535 80.5288L86.8628 83.8696V82.6108L92.6535 79.27V80.5288Z" fill="white"/>
<path opacity="0.2" d="M96.6917 78.1951L93.8496 79.8364V78.5824L96.6917 76.9411V78.1951Z" fill="white"/>
<path opacity="0.2" d="M88.0442 74.4331L86.8628 75.1109V73.8569L88.0442 73.1743V74.4331Z" fill="white"/>
<path opacity="0.2" d="M92.3295 71.959L89.2065 73.7601V72.5061L92.3295 70.7001V71.959Z" fill="white"/>
<path opacity="0.2" d="M90.1503 75.7258L86.8628 77.6238V76.3649L90.1503 74.4718V75.7258Z" fill="white"/>
<path opacity="0.2" d="M90.1503 84.5136L86.8628 86.4067V85.1527L90.1503 83.2547V84.5136Z" fill="white"/>
<path opacity="0.2" d="M96.6917 66.9284L91.3464 70.0125V68.7585L96.6917 65.6743V66.9284Z" fill="white"/>
<path d="M96.1833 25.9431L84.965 32.5231C82.7523 33.8206 78.8934 33.6609 76.337 32.1648L66.4792 26.3789C63.9276 24.878 63.4677 22.1375 65.8159 20.99L77.0778 14.7491C79.2905 13.4515 83.1493 13.6161 85.7058 15.1122L95.5635 20.9029C98.1684 21.5904 98.3911 24.6456 96.1833 25.9431Z" fill="#B7D1FA"/>
<g filter="url(#filter3_b)">
<path d="M96.0619 25.2605L84.9259 31.6854C82.7326 32.9491 78.8979 32.7942 76.3657 31.3271L66.5854 25.6817C64.0484 24.2292 63.7724 22.0068 65.9705 20.7383L77.1065 14.3133C79.2998 13.0496 83.1345 13.2045 85.6667 14.6716L95.447 20.317C97.9841 21.755 98.26 23.9677 96.0619 25.2605Z" fill="url(#paint2_linear)" fill-opacity="0.8"/>
<path d="M96.0619 25.2605L84.9259 31.6854C82.7326 32.9491 78.8979 32.7942 76.3657 31.3271L66.5854 25.6817C64.0484 24.2292 63.7724 22.0068 65.9705 20.7383L77.1065 14.3133C79.2998 13.0496 83.1345 13.2045 85.6667 14.6716L95.447 20.317C97.9841 21.755 98.26 23.9677 96.0619 25.2605Z" stroke="white" stroke-opacity="0.5" stroke-width="1.35161"/>
</g>
<path d="M78.9764 25.4967L79.825 25.0068L74.1713 23.7295L73.908 23.8816L76.1144 27.1491L76.9631 26.6591L76.6763 26.2435L78.2565 25.3312L78.9764 25.4967ZM77.3318 25.1149L76.3017 25.7096L75.5116 24.6587L77.3318 25.1149ZM80.3525 24.7022L81.1426 24.246L79.779 23.4587L80.4403 23.0769C81.248 22.6106 81.3182 21.9753 80.5808 21.5496C79.8375 21.1204 78.7489 21.1677 77.9412 21.634L76.4898 22.472L80.3525 24.7022ZM79.0883 23.06L77.9763 22.418L78.6377 22.0362C78.9947 21.83 79.4454 21.8267 79.7731 22.0159C80.1067 22.2085 80.1184 22.4653 79.7497 22.6782L79.0883 23.06ZM83.8275 22.6959L84.6176 22.2397L80.7549 20.0096L79.9648 20.4657L83.8275 22.6959ZM84.6659 21.6442C85.2805 21.6949 85.9184 21.5698 86.4276 21.2759C86.7553 21.0866 86.9426 20.8839 86.9894 20.6676C87.0421 20.448 86.9192 20.2554 86.6324 20.0898C86.2052 19.8432 85.7253 19.8567 84.9352 20.0493L84.5372 20.1439C84.2153 20.2216 84.0865 20.2351 83.9753 20.1709C83.8407 20.0932 83.8875 19.9851 84.0807 19.8736C84.3206 19.735 84.6308 19.6641 85.0054 19.6573L84.9176 19.1471C84.3674 19.1336 83.8758 19.2484 83.4427 19.4985C82.8106 19.8634 82.6994 20.2993 83.2437 20.6136C83.671 20.8602 84.1685 20.8501 84.9176 20.6676L85.3565 20.5629C85.6667 20.4919 85.7955 20.4717 85.9184 20.5426C86.0764 20.6339 86.0003 20.7724 85.7896 20.894C85.5029 21.0596 85.099 21.1441 84.584 21.1373L84.6659 21.6442Z" fill="#DDE0F7"/>
<path d="M96.1833 13.2384L84.965 19.8135C82.7523 21.1062 78.8934 20.9465 76.337 19.4504L66.4792 13.6742C63.9276 12.1781 63.4677 9.43283 65.8159 8.28534L77.0778 2.04434C79.2905 0.746759 83.1493 0.911378 85.7058 2.40747L95.5635 8.18366C98.1684 8.88572 98.3911 11.9409 96.1833 13.2384Z" fill="#B7D1FA"/>
<g filter="url(#filter4_b)">
<path d="M96.0619 12.5315L84.9259 18.9565C82.7326 20.2202 78.8979 20.0652 76.3657 18.5982L66.5854 12.9527C64.0484 11.5002 63.7724 9.27783 65.9705 8.0093L77.1065 1.58432C79.2998 0.320632 83.1345 0.475562 85.6667 1.94261L95.447 7.58807C97.9841 9.05027 98.26 11.2629 96.0619 12.5315Z" fill="url(#paint3_linear)" fill-opacity="0.8"/>
<path d="M96.0619 12.5315L84.9259 18.9565C82.7326 20.2202 78.8979 20.0652 76.3657 18.5982L66.5854 12.9527C64.0484 11.5002 63.7724 9.27783 65.9705 8.0093L77.1065 1.58432C79.2998 0.320632 83.1345 0.475562 85.6667 1.94261L95.447 7.58807C97.9841 9.05027 98.26 11.2629 96.0619 12.5315Z" stroke="white" stroke-opacity="0.5" stroke-width="1.35161"/>
</g>
<path d="M78.9764 11.9806L79.825 11.4907L74.1713 10.2134L73.908 10.3654L76.1144 13.633L76.9631 13.143L76.6763 12.7274L78.2565 11.815L78.9764 11.9806ZM77.3318 11.5988L76.3017 12.1935L75.5116 11.1426L77.3318 11.5988ZM80.3525 11.1861L81.1426 10.7299L79.779 9.94261L80.4403 9.56078C81.248 9.09447 81.3182 8.45922 80.5808 8.03346C79.8375 7.60432 78.7489 7.65163 77.9412 8.11793L76.4898 8.95593L80.3525 11.1861ZM79.0883 9.54389L77.9763 8.90187L78.6377 8.52004C78.9947 8.31392 79.4454 8.31054 79.7731 8.49976C80.1067 8.69237 80.1184 8.94918 79.7497 9.16206L79.0883 9.54389ZM83.8275 9.1798L84.6176 8.72363L80.7549 6.49346L79.9648 6.94963L83.8275 9.1798ZM84.6659 8.12807C85.2805 8.17876 85.9184 8.05373 86.4276 7.75976C86.7553 7.57053 86.9426 7.36779 86.9894 7.15153C87.0421 6.93189 86.9192 6.73929 86.6324 6.57372C86.2052 6.32705 85.7253 6.34056 84.9352 6.53317L84.5372 6.62778C84.2153 6.7055 84.0865 6.71901 83.9753 6.65481C83.8407 6.5771 83.8875 6.46897 84.0807 6.35746C84.3206 6.21892 84.6308 6.14796 85.0054 6.1412L84.9176 5.63097C84.3674 5.61745 83.8758 5.73234 83.4427 5.98239C82.8106 6.34732 82.6994 6.78322 83.2437 7.09747C83.671 7.34414 84.1685 7.334 84.9176 7.15153L85.3565 7.04678C85.6667 6.97582 85.7955 6.95555 85.9184 7.02651C86.0764 7.11774 86.0003 7.25628 85.7896 7.37793C85.5029 7.5435 85.099 7.62797 84.584 7.62122L84.6659 8.12807Z" fill="#DDE0F7"/>
<path d="M92.6372 105.631C94.2394 106.596 97.002 106.571 98.6388 105.586C99.7386 104.951 100.146 104.106 99.7473 103.306L98.2404 103.456C98.4742 104.061 98.2491 104.561 97.5649 104.956C96.4997 105.571 94.9408 105.571 93.8497 104.941C92.7585 104.311 92.7411 103.401 93.8064 102.786C94.4905 102.391 95.3565 102.261 96.4044 102.396L96.6642 101.526C95.2613 101.306 93.8064 101.536 92.7238 102.161C91.0264 103.101 90.9744 104.701 92.6372 105.631ZM99.5045 102.486C100.7 103.206 102.804 103.201 104.034 102.461C105.315 101.751 105.35 100.521 104.103 99.8311C102.908 99.1111 100.803 99.1361 99.5651 99.8711C98.2834 100.581 98.2574 101.796 99.5045 102.486ZM102.917 100.526C103.583 100.911 103.601 101.471 102.969 101.836C102.319 102.211 101.366 102.191 100.7 101.806C100.015 101.411 99.9808 100.861 100.63 100.486C101.262 100.121 102.25 100.141 102.917 100.526ZM108.445 96.7341C107.406 96.1341 106.107 96.0941 105.111 96.6691C104.6 96.9641 104.34 97.3241 104.34 97.6741L103.951 97.4491L102.877 98.0691L107.164 100.544L108.333 99.8691L105.83 98.4241C105.336 98.1391 105.336 97.7491 105.813 97.4741C106.289 97.1991 106.947 97.2091 107.441 97.4941L109.944 98.9391L111.104 98.2691L108.445 96.7341ZM113.511 93.8093C112.472 93.2093 111.173 93.1693 110.177 93.7443C109.666 94.0393 109.406 94.3993 109.406 94.7493L109.017 94.5243L107.943 95.1443L112.229 97.6193L113.399 96.9443L110.896 95.4993C110.402 95.2143 110.402 94.8243 110.878 94.5493C111.355 94.2743 112.013 94.2843 112.507 94.5693L115.009 96.0143L116.17 95.3443L113.511 93.8093ZM119.486 91.4095C119.322 91.2545 119.131 91.1145 118.924 90.9945C117.806 90.3495 116.1 90.3245 114.914 91.0095C113.649 91.7095 113.649 92.8995 114.914 93.5995C116.126 94.3295 118.205 94.3195 119.504 93.5395C120.136 93.1745 120.491 92.7195 120.578 92.1795L119.296 91.9995C119.209 92.3795 118.958 92.6945 118.534 92.9395C117.91 93.2995 117.165 93.3795 116.481 93.1445L119.486 91.4095ZM115.659 92.6695C115.26 92.2895 115.321 91.8645 115.814 91.5795C116.325 91.2845 117.07 91.2445 117.607 91.5445L115.659 92.6695ZM119.836 90.7478C121.057 91.4728 123.153 91.4628 124.382 90.7228C125.214 90.2428 125.465 89.6278 125.179 89.0328L123.742 89.1428C123.854 89.5278 123.768 89.8378 123.326 90.0928C122.668 90.4728 121.706 90.4578 121.022 90.0628C120.355 89.6778 120.321 89.1178 120.979 88.7378C121.429 88.4778 121.975 88.4328 122.633 88.5028L122.815 87.6678C121.784 87.5028 120.736 87.6478 119.896 88.1328C118.623 88.8678 118.58 90.0228 119.836 90.7478ZM128.78 86.934C128.503 87.124 128.329 87.234 128.26 87.274C127.706 87.594 127.281 87.629 126.797 87.349L125.108 86.374L126.32 85.674L125.333 85.104L124.12 85.804L123.038 85.179L121.869 85.854L122.951 86.479L122.276 86.869L123.263 87.439L123.939 87.049L125.731 88.084C126.805 88.704 127.974 88.649 129.057 88.024C129.317 87.874 129.55 87.699 129.758 87.499L128.78 86.934ZM134.81 83.4526C134.533 83.6426 134.359 83.7526 134.29 83.7926C133.736 84.1126 133.312 84.1476 132.827 83.8676L131.138 82.8926L132.35 82.1926L131.363 81.6226L130.151 82.3226L129.068 81.6976L127.899 82.3726L128.981 82.9976L128.306 83.3876L129.293 83.9576L129.969 83.5676L131.761 84.6026C132.835 85.2226 134.004 85.1676 135.087 84.5426C135.347 84.3926 135.581 84.2176 135.788 84.0176L134.81 83.4526ZM134.162 82.4764C135.358 83.1964 137.462 83.1914 138.692 82.4514C139.973 81.7414 140.008 80.5114 138.761 79.8213C137.566 79.1014 135.461 79.1264 134.223 79.8613C132.941 80.5714 132.915 81.7864 134.162 82.4764ZM137.575 80.5164C138.241 80.9014 138.259 81.4614 137.626 81.8264C136.977 82.2014 136.024 82.1814 135.358 81.7964C134.673 81.4014 134.639 80.8514 135.288 80.4764C135.92 80.1114 136.908 80.1314 137.575 80.5164ZM122.589 101.638L123.845 100.913L115.479 99.0232L115.089 99.2482L118.354 104.083L119.61 103.358L119.186 102.743L121.524 101.393L122.589 101.638ZM120.156 101.073L118.631 101.953L117.462 100.398L120.156 101.073ZM124.625 100.463L125.795 99.7875L123.777 98.6225L124.755 98.0575C125.95 97.3675 126.054 96.4275 124.963 95.7975C123.863 95.1625 122.253 95.2325 121.057 95.9225L118.91 97.1625L124.625 100.463ZM122.755 98.0325L121.109 97.0825L122.088 96.5175C122.616 96.2125 123.283 96.2075 123.768 96.4875C124.262 96.7725 124.279 97.1525 123.733 97.4675L122.755 98.0325ZM129.767 97.4938L130.937 96.8188L125.221 93.5188L124.052 94.1938L129.767 97.4938ZM131.008 95.9375C131.917 96.0125 132.861 95.8275 133.615 95.3925C134.1 95.1125 134.377 94.8125 134.446 94.4925C134.524 94.1675 134.342 93.8825 133.918 93.6375C133.286 93.2725 132.576 93.2925 131.406 93.5775L130.818 93.7175C130.341 93.8325 130.151 93.8525 129.986 93.7575C129.787 93.6425 129.856 93.4825 130.142 93.3175C130.497 93.1125 130.956 93.0075 131.51 92.9975L131.38 92.2425C130.566 92.2225 129.839 92.3925 129.198 92.7625C128.263 93.3025 128.098 93.9475 128.904 94.4125C129.536 94.7775 130.272 94.7625 131.38 94.4925L132.03 94.3375C132.489 94.2325 132.679 94.2025 132.861 94.3075C133.095 94.4425 132.983 94.6475 132.671 94.8275C132.246 95.0725 131.649 95.1975 130.887 95.1875L131.008 95.9375Z" fill="#002642"/>
<defs>
<filter id="filter0_b" x="39.2337" y="29.1803" width="48.5066" height="76.0773" filterUnits="userSpaceOnUse" color-interpolation-filters="sRGB">
<feFlood flood-opacity="0" result="BackgroundImageFix"/>
<feGaussianBlur in="BackgroundImage" stdDeviation="2.70323"/>
<feComposite in2="SourceAlpha" operator="in" result="effect1_backgroundBlur"/>
<feBlend mode="normal" in="SourceGraphic" in2="effect1_backgroundBlur" result="shape"/>
</filter>
<filter id="filter1_b" x="38.5577" y="8.60105" width="86.2008" height="54.3271" filterUnits="userSpaceOnUse" color-interpolation-filters="sRGB">
<feFlood flood-opacity="0" result="BackgroundImageFix"/>
<feGaussianBlur in="BackgroundImage" stdDeviation="2.70323"/>
<feComposite in2="SourceAlpha" operator="in" result="effect1_backgroundBlur"/>
<feBlend mode="normal" in="SourceGraphic" in2="effect1_backgroundBlur" result="shape"/>
</filter>
<filter id="filter2_b" x="58.3057" y="12.3132" width="45.2174" height="31.2445" filterUnits="userSpaceOnUse" color-interpolation-filters="sRGB">
<feFlood flood-opacity="0" result="BackgroundImageFix"/>
<feGaussianBlur in="BackgroundImage" stdDeviation="2.70323"/>
<feComposite in2="SourceAlpha" operator="in" result="effect1_backgroundBlur"/>
<feBlend mode="normal" in="SourceGraphic" in2="effect1_backgroundBlur" result="shape"/>
</filter>
<filter id="filter3_b" x="58.4039" y="7.37715" width="45.2246" height="31.2444" filterUnits="userSpaceOnUse" color-interpolation-filters="sRGB">
<feFlood flood-opacity="0" result="BackgroundImageFix"/>
<feGaussianBlur in="BackgroundImage" stdDeviation="2.70323"/>
<feComposite in2="SourceAlpha" operator="in" result="effect1_backgroundBlur"/>
<feBlend mode="normal" in="SourceGraphic" in2="effect1_backgroundBlur" result="shape"/>
</filter>
<filter id="filter4_b" x="58.4039" y="-5.35183" width="45.2246" height="31.2445" filterUnits="userSpaceOnUse" color-interpolation-filters="sRGB">
<feFlood flood-opacity="0" result="BackgroundImageFix"/>
<feGaussianBlur in="BackgroundImage" stdDeviation="2.70323"/>
<feComposite in2="SourceAlpha" operator="in" result="effect1_backgroundBlur"/>
<feBlend mode="normal" in="SourceGraphic" in2="effect1_backgroundBlur" result="shape"/>
</filter>
<linearGradient id="paint0_linear" x1="94.3391" y1="88.2925" x2="108.448" y2="77.956" gradientUnits="userSpaceOnUse">
<stop stop-color="#5144A3"/>
<stop offset="0.543707" stop-color="#6152BD"/>
<stop offset="1" stop-color="#6C5DCC"/>
</linearGradient>
<linearGradient id="paint1_linear" x1="64.3884" y1="37.4755" x2="97.4405" y2="37.4755" gradientUnits="userSpaceOnUse">
<stop stop-color="#814EC4"/>
<stop offset="1" stop-color="#561FAA"/>
</linearGradient>
<linearGradient id="paint2_linear" x1="64.4866" y1="32.5394" x2="97.5459" y2="32.5394" gradientUnits="userSpaceOnUse">
<stop stop-color="#814EC4"/>
<stop offset="1" stop-color="#561FAA"/>
</linearGradient>
<linearGradient id="paint3_linear" x1="64.4866" y1="19.8104" x2="97.5459" y2="19.8104" gradientUnits="userSpaceOnUse">
<stop stop-color="#814EC4"/>
<stop offset="1" stop-color="#561FAA"/>
</linearGradient>
</defs>
</svg>
