<svg width="154" height="114" viewBox="0 0 154 114" fill="none" xmlns="http://www.w3.org/2000/svg">
<rect width="88.766" height="88.766" transform="matrix(0.866025 0.5 -0.866025 0.5 76.873 24.7332)" fill="#D3DCE4"/>
<path d="M153.805 69.1512V61.3831L144.244 66.3626L153.805 69.1512Z" fill="#D3DCE4"/>
<path d="M0.0349007 69.1512V61.3831L9.5957 66.3626L0.0349007 69.1512Z" fill="#D3DCE4"/>
<rect width="88.766" height="88.766" transform="matrix(0.866025 0.5 -0.866025 0.5 76.873 17)" fill="#F1F5F9"/>
<rect width="71.706" height="71.706" transform="matrix(0.866025 0.5 -0.866025 0.5 76.873 25.53)" fill="white" stroke="white" stroke-width="0.398367"/>
<g filter="url(#filter0_b)">
<path d="M75.8071 0L46 17.1812V30.5968V69.0139L48.141 70.25L82.6587 47.849V9.43184L77.9479 1.23592L75.8071 0Z" fill="#403487"/>
</g>
<path d="M74.7056 3.07982L48.1406 18.4171V31.833V70.25L84.7993 49.0849V10.6679V5.70894L77.9191 1.22311L74.7056 3.07982Z" fill="url(#paint0_linear)"/>
<g filter="url(#filter1_b)">
<path d="M77.2139 1.6306V9.27389L77.9194 9.68121L84.0941 5.30146L77.9194 1.22311L77.2139 1.6306Z" fill="#403487"/>
</g>
<g filter="url(#filter2_b)">
<path d="M77.9194 9.68121L84.7996 5.70894L77.9194 1.22311V9.68121Z" fill="#403487"/>
</g>
<path d="M56.898 16.0569L54.8599 17.2334L54.1922 19.2831C53.9927 19.9254 53.6787 20.9623 53.6787 20.9623L52.3417 18.6881L50.2919 19.8714L52.4939 23.1036L50.21 29.0345L52.248 27.8578L52.9038 25.8285C53.1498 25.0509 53.3491 24.4624 53.5131 23.8401L53.5365 23.8265C53.7588 24.2255 54.9538 26.2957 54.9538 26.2957L57.0153 25.1055L54.5721 21.9399L56.898 16.0569Z" fill="white"/>
<path d="M59.7712 14.3978L57.979 15.4324V24.5488L62.9102 21.7018V19.9706L59.7712 21.7829V14.3978Z" fill="white"/>
<path d="M67.0368 13.9088C66.0177 14.0512 65.5723 14.0518 65.5723 13.4703C65.5723 12.9966 65.9471 12.374 66.7195 11.9276C67.4919 11.4812 68.0548 11.4146 68.3714 11.4067L68.7699 9.51379C68.3012 9.54106 67.6455 9.70266 66.7552 10.2167C64.8932 11.2917 63.7687 13.1314 63.7687 14.6864C63.7687 16.0124 64.6235 16.3567 65.9354 16.1268C66.8831 15.9714 67.2588 16.0798 67.2588 16.6482C67.2588 17.2427 66.8254 17.8851 66.0054 18.3583C65.244 18.798 64.5062 18.9401 64.026 18.934L63.6631 20.8472C64.1081 20.8745 64.9984 20.6311 65.9002 20.1107C68.067 18.8597 69.0861 16.9729 69.0861 15.4444C69.0857 14.1594 68.4304 13.7002 67.0368 13.9088Z" fill="white"/>
<path d="M63.0146 40.2077V44.3026L71.3891 39.4738L72.0857 39.0717V34.9769L65.1849 38.9609L63.0146 40.2077Z" fill="white"/>
<path d="M63.0146 34.6304V38.7247L63.7114 38.3224L72.0857 33.4937V29.3994L63.7114 34.2281L63.0146 34.6304Z" fill="white"/>
<path d="M63.0146 45.7856V49.8801L65.1849 48.6332L72.0857 44.649V40.5547L65.1849 44.5389L63.0146 45.7856Z" fill="white"/>
<path d="M63.0146 51.3808V55.4755L72.0857 50.2445V46.1497L71.3891 46.5519L63.0146 51.3808Z" fill="white"/>
<path d="M72.9282 27.4298L77.5821 24.7429L80.3406 23.1503V19.0557L72.9282 23.335V27.4298Z" fill="white"/>
<path d="M72.9282 28.913V33.0074L79.836 29.0192L80.3406 28.7276V24.6335L79.836 24.9247L72.9282 28.913Z" fill="white"/>
<path d="M72.9282 34.4904V38.5852L73.433 38.2939L80.3406 34.3057V30.2109L77.5821 31.8036L72.9282 34.4904Z" fill="white"/>
<path d="M63.0146 33.1473L65.1849 31.9004L72.0857 27.9163V23.8215L63.0146 29.0525V33.1473Z" fill="white"/>
<path d="M52.4795 46.1304V50.2252L60.854 45.3964L61.5506 44.9941V40.8993L54.6498 44.8835L52.4795 46.1304Z" fill="white"/>
<path d="M52.4795 40.553V44.6473L53.1764 44.2449L61.5506 39.4161V35.3218L53.1764 40.1506L52.4795 40.553Z" fill="white"/>
<path d="M52.4795 51.7084V55.8027L54.6498 54.5558L61.5506 50.5715V46.4772L54.6498 50.4615L52.4795 51.7084Z" fill="white"/>
<path d="M52.4795 57.3034V61.3982L61.5506 56.1671V52.0723L60.854 52.4746L52.4795 57.3034Z" fill="white"/>
<path d="M52.4795 39.0698L54.6498 37.823L61.5506 33.8387V29.7441L52.4795 34.975V39.0698Z" fill="white"/>
<path d="M72.9282 45.6634V49.7582L80.3406 45.4787V41.3839L73.433 45.372L72.9282 45.6634Z" fill="white"/>
<path d="M72.9282 40.0684V44.1627L77.5821 41.4757L80.3406 39.883V35.7888L77.5821 37.3814L72.9282 40.0684Z" fill="white"/>
<path d="M76.2132 5.45209L74.1753 6.62882L73.5078 8.67838C73.3091 9.32062 72.9944 10.3575 72.9944 10.3575L71.6572 8.08337L69.6074 9.26609L71.8094 12.4989L69.5254 18.4298L71.5626 17.2532L72.2183 15.2237C72.4644 14.4462 72.6639 13.8576 72.8278 13.2354L72.8513 13.2219C73.0734 13.6209 74.2684 15.6909 74.2684 15.6909L76.3299 14.5007L73.8879 11.3351L76.2132 5.45209Z" fill="white"/>
<path d="M74.4667 78.3299C75.9823 79.2049 77.9568 79.1649 79.3598 78.3549C80.7454 77.5549 80.832 76.4049 79.3165 75.5299L75.9649 73.5949L74.7958 74.2699L78.2339 76.2549C79.0653 76.7349 79.0307 77.2949 78.2772 77.7299C77.5411 78.1549 76.5538 78.1849 75.7225 77.7049L72.2843 75.7199L71.1152 76.3949L74.4667 78.3299ZM85.2081 72.3783C83.9264 71.6383 82.0905 71.5983 80.8953 72.2883C80.3064 72.6283 80.0293 73.0483 80.1506 73.4483L79.6136 73.1383L78.5397 73.7583L84.3854 77.1333L85.5546 76.4583L83.58 75.3183C84.2295 75.3333 84.8617 75.1783 85.3814 74.8783C86.5765 74.1883 86.4899 73.1183 85.2081 72.3783ZM84.0304 73.0683C84.7318 73.4733 84.7232 74.0283 84.0996 74.3883C83.5021 74.7333 82.5927 74.7683 81.8306 74.3283C81.0599 73.8833 81.1465 73.3633 81.7354 73.0233C82.3676 72.6583 83.3115 72.6533 84.0304 73.0683ZM84.8956 67.5388L87.5196 69.0538C86.8701 69.0388 86.2725 69.1838 85.7269 69.4988C84.5318 70.1888 84.6011 71.2488 85.8915 71.9938C87.1819 72.7388 89.0178 72.7788 90.213 72.0888C90.8019 71.7488 91.079 71.3288 90.9577 70.9288L91.486 71.2338L92.5599 70.6138L86.0647 66.8638L84.8956 67.5388ZM89.269 70.0438C90.0398 70.4888 89.9532 71.0088 89.3643 71.3488C88.7321 71.7138 87.7881 71.7188 87.0693 71.3038C86.3678 70.8988 86.3765 70.3438 87 69.9838C87.5889 69.6438 88.5069 69.6038 89.269 70.0438ZM94.7674 66.3993C93.581 65.7143 92.2127 65.7543 91.0955 66.3993C90.3421 66.8343 90.013 67.3643 90.1082 67.9893L91.4332 68.0543C91.4073 67.5993 91.5372 67.3143 91.9788 67.0593C92.4985 66.7593 93.0527 66.7593 93.529 67.0343L93.7196 67.1443L92.6457 67.7643C91.6498 68.3393 91.5025 68.9743 92.2733 69.4193C93.0267 69.8543 94.1266 69.8293 95.0359 69.3043C95.5815 68.9893 95.8327 68.6143 95.824 68.2493L96.2397 68.4893L97.3136 67.8693L94.7674 66.3993ZM94.5423 67.6193C95.0359 67.9043 95.0013 68.3343 94.4903 68.6293C94.1179 68.8443 93.6936 68.8793 93.4078 68.7143C93.122 68.5493 93.1913 68.3393 93.5723 68.1193L94.4903 67.5893L94.5423 67.6193ZM100.214 65.0647C99.9369 65.2547 99.7637 65.3647 99.6945 65.4047C99.1402 65.7247 98.7158 65.7597 98.2309 65.4797L96.5421 64.5047L97.7546 63.8047L96.7673 63.2347L95.5548 63.9347L94.4723 63.3097L93.3032 63.9847L94.3857 64.6097L93.7102 64.9997L94.6975 65.5697L95.373 65.1797L97.1657 66.2147C98.2395 66.8347 99.4087 66.7797 100.491 66.1547C100.751 66.0047 100.985 65.8297 101.193 65.6297L100.214 65.0647ZM104.148 61.9034C103.983 61.7484 103.793 61.6084 103.585 61.4884C102.468 60.8434 100.762 60.8184 99.5754 61.5034C98.311 62.2034 98.311 63.3934 99.5754 64.0934C100.788 64.8234 102.866 64.8134 104.165 64.0334C104.798 63.6684 105.153 63.2134 105.239 62.6734L103.957 62.4934C103.871 62.8734 103.62 63.1884 103.195 63.4334C102.572 63.7934 101.827 63.8734 101.143 63.6384L104.148 61.9034ZM100.32 63.1634C99.9218 62.7834 99.9824 62.3584 100.476 62.0734C100.987 61.7784 101.732 61.7384 102.269 62.0384L100.32 63.1634ZM71.4929 91.4368C72.7054 91.6268 73.9958 91.4518 74.9657 90.8918C76.1089 90.2318 76.2994 89.3518 75.2515 88.7468C74.4807 88.3018 73.5541 88.2868 72.1684 88.5968L71.2331 88.8068C70.5317 88.9618 70.2112 88.9868 69.9081 88.8118C69.553 88.6068 69.657 88.3168 70.064 88.0818C70.497 87.8318 71.0772 87.7468 71.8134 87.8318L71.9952 87.0168C70.982 86.8418 69.8995 86.9768 69.0248 87.4818C67.9422 88.1068 67.769 88.9468 68.7476 89.5118C69.5097 89.9518 70.5143 89.9418 71.7787 89.6618L72.6707 89.4668C73.4675 89.2968 73.7706 89.2618 74.1083 89.4568C74.498 89.6818 74.4374 89.9968 73.9265 90.2918C73.3029 90.6518 72.5755 90.7018 71.6921 90.6218L71.4929 91.4368ZM80.193 85.2739C78.9113 84.5339 77.0753 84.4939 75.8802 85.1839C75.2913 85.5239 75.0141 85.9439 75.1354 86.3439L74.5985 86.0339L73.5246 86.6539L79.3703 90.0289L80.5394 89.3539L78.5648 88.2139C79.2144 88.2289 79.8466 88.0739 80.3662 87.7739C81.5613 87.0839 81.4747 86.0139 80.193 85.2739ZM79.0152 85.9639C79.7167 86.3689 79.708 86.9239 79.0845 87.2839C78.4869 87.6289 77.5776 87.6639 76.8155 87.2239C76.0447 86.7789 76.1313 86.2589 76.7202 85.9189C77.3524 85.5539 78.2964 85.5489 79.0152 85.9639ZM81.6038 81.9893C81.4566 82.0343 81.318 82.0943 81.1708 82.1793C80.6945 82.4543 80.4866 82.8143 80.5559 83.1843L80.0449 82.8893L78.9711 83.5093L83.2579 85.9843L84.427 85.3093L82.2879 84.0743C81.5518 83.6493 81.6211 83.1693 82.3226 82.7643L82.6344 82.5843L81.6038 81.9893ZM88.7219 80.8097C88.5574 80.6547 88.3668 80.5147 88.159 80.3947C87.0418 79.7497 85.3357 79.7247 84.1493 80.4097C82.8849 81.1097 82.8849 82.2997 84.1493 82.9997C85.3617 83.7297 87.4402 83.7197 88.7392 82.9397C89.3714 82.5747 89.7265 82.1197 89.8131 81.5797L88.5314 81.3997C88.4448 81.7797 88.1936 82.0947 87.7693 82.3397C87.1457 82.6997 86.401 82.7797 85.7168 82.5447L88.7219 80.8097ZM84.8941 82.0697C84.4957 81.6897 84.5563 81.2647 85.05 80.9797C85.5609 80.6847 86.3057 80.6447 86.8426 80.9447L84.8941 82.0697ZM92.5093 77.703C91.3229 77.018 89.9546 77.058 88.8374 77.703C88.084 78.138 87.7549 78.668 87.8501 79.293L89.1752 79.358C89.1492 78.903 89.2791 78.618 89.7207 78.363C90.2404 78.063 90.7946 78.063 91.2709 78.338L91.4615 78.448L90.3876 79.068C89.3917 79.643 89.2444 80.278 90.0152 80.723C90.7686 81.158 91.8685 81.133 92.7778 80.608C93.3234 80.293 93.5746 79.918 93.5659 79.553L93.9816 79.793L95.0555 79.173L92.5093 77.703ZM92.2842 78.923C92.7778 79.208 92.7432 79.638 92.2322 79.933C91.8598 80.148 91.4355 80.183 91.1497 80.018C90.8639 79.853 90.9332 79.643 91.3142 79.423L92.2322 78.893L92.2842 78.923ZM92.8031 72.9734L95.4272 74.4884C94.7777 74.4734 94.1801 74.6184 93.6345 74.9334C92.4394 75.6234 92.5087 76.6834 93.799 77.4284C95.0894 78.1734 96.9254 78.2134 98.1205 77.5234C98.7094 77.1834 98.9865 76.7634 98.8653 76.3634L99.3936 76.6684L100.467 76.0484L93.9723 72.2984L92.8031 72.9734ZM97.1765 75.4784C97.9473 75.9234 97.8607 76.4434 97.2718 76.7834C96.6396 77.1484 95.6956 77.1534 94.9768 76.7384C94.2754 76.3334 94.284 75.7784 94.9076 75.4184C95.4965 75.0784 96.4144 75.0384 97.1765 75.4784ZM100.51 75.1839C101.419 75.2589 102.363 75.0739 103.117 74.6389C103.602 74.3589 103.879 74.0589 103.948 73.7389C104.026 73.4139 103.844 73.1289 103.42 72.8839C102.788 72.5189 102.077 72.5389 100.908 72.8239L100.319 72.9639C99.8431 73.0789 99.6526 73.0989 99.488 73.0039C99.2888 72.8889 99.3581 72.7289 99.6439 72.5639C99.999 72.3589 100.458 72.2539 101.012 72.2439L100.882 71.4889C100.068 71.4689 99.3408 71.6389 98.6999 72.0089C97.7646 72.5489 97.6001 73.1939 98.4055 73.6589C99.0377 74.0239 99.7738 74.0089 100.882 73.7389L101.532 73.5839C101.991 73.4789 102.181 73.4489 102.363 73.5539C102.597 73.6889 102.484 73.8939 102.173 74.0739C101.748 74.3189 101.151 74.4439 100.389 74.4339L100.51 75.1839ZM106.85 69.2935C105.811 68.6935 104.503 68.6585 103.533 69.2185C103.057 69.4935 102.814 69.8335 102.814 70.1635L100.242 68.6785L99.073 69.3535L105.568 73.1035L106.737 72.4285L104.243 70.9885C103.75 70.7035 103.75 70.3135 104.226 70.0385C104.702 69.7635 105.36 69.7735 105.854 70.0585L108.348 71.4985L109.509 70.8285L106.85 69.2935ZM112.825 66.8937C112.661 66.7387 112.47 66.5987 112.262 66.4787C111.145 65.8337 109.439 65.8087 108.253 66.4937C106.988 67.1937 106.988 68.3837 108.253 69.0837C109.465 69.8137 111.543 69.8037 112.842 69.0237C113.475 68.6587 113.83 68.2037 113.916 67.6637L112.635 67.4837C112.548 67.8637 112.297 68.1787 111.873 68.4237C111.249 68.7837 110.504 68.8637 109.82 68.6287L112.825 66.8937ZM108.997 68.1537C108.599 67.7737 108.66 67.3487 109.153 67.0637C109.664 66.7687 110.409 66.7287 110.946 67.0287L108.997 68.1537ZM117.756 64.047C117.591 63.892 117.401 63.752 117.193 63.632C116.076 62.987 114.37 62.962 113.183 63.647C111.919 64.347 111.919 65.537 113.183 66.237C114.396 66.967 116.474 66.957 117.773 66.177C118.405 65.812 118.76 65.357 118.847 64.817L117.565 64.637C117.479 65.017 117.227 65.332 116.803 65.577C116.18 65.937 115.435 66.017 114.751 65.782L117.756 64.047ZM113.928 65.307C113.53 64.927 113.59 64.502 114.084 64.217C114.595 63.922 115.34 63.882 115.876 64.182L113.928 65.307ZM122.271 62.3303C121.994 62.5203 121.82 62.6303 121.751 62.6703C121.197 62.9903 120.772 63.0253 120.287 62.7453L118.599 61.7703L119.811 61.0703L118.824 60.5003L117.611 61.2003L116.529 60.5753L115.36 61.2503L116.442 61.8753L115.767 62.2653L116.754 62.8353L117.43 62.4453L119.222 63.4803C120.296 64.1003 121.465 64.0453 122.548 63.4203C122.808 63.2703 123.041 63.0953 123.249 62.8953L122.271 62.3303ZM122.981 62.2102C123.89 62.2852 124.834 62.1002 125.588 61.6652C126.073 61.3852 126.35 61.0852 126.419 60.7652C126.497 60.4402 126.315 60.1552 125.891 59.9102C125.259 59.5452 124.548 59.5652 123.379 59.8502L122.79 59.9902C122.314 60.1052 122.124 60.1252 121.959 60.0302C121.76 59.9152 121.829 59.7552 122.115 59.5902C122.47 59.3852 122.929 59.2802 123.483 59.2702L123.353 58.5152C122.539 58.4952 121.812 58.6652 121.171 59.0352C120.236 59.5752 120.071 60.2202 120.876 60.6852C121.509 61.0502 122.245 61.0352 123.353 60.7652L124.003 60.6102C124.462 60.5052 124.652 60.4752 124.834 60.5802C125.068 60.7152 124.955 60.9202 124.644 61.1002C124.219 61.3452 123.622 61.4702 122.86 61.4602L122.981 62.2102Z" fill="#002642"/>
<defs>
<filter id="filter0_b" x="39.9611" y="-6.03892" width="48.7365" height="82.3278" filterUnits="userSpaceOnUse" color-interpolation-filters="sRGB">
<feFlood flood-opacity="0" result="BackgroundImageFix"/>
<feGaussianBlur in="BackgroundImage" stdDeviation="3.01946"/>
<feComposite in2="SourceAlpha" operator="in" result="effect1_backgroundBlur"/>
<feBlend mode="normal" in="SourceGraphic" in2="effect1_backgroundBlur" result="shape"/>
</filter>
<filter id="filter1_b" x="71.1749" y="-4.81581" width="18.958" height="20.5359" filterUnits="userSpaceOnUse" color-interpolation-filters="sRGB">
<feFlood flood-opacity="0" result="BackgroundImageFix"/>
<feGaussianBlur in="BackgroundImage" stdDeviation="3.01946"/>
<feComposite in2="SourceAlpha" operator="in" result="effect1_backgroundBlur"/>
<feBlend mode="normal" in="SourceGraphic" in2="effect1_backgroundBlur" result="shape"/>
</filter>
<filter id="filter2_b" x="71.8805" y="-4.81581" width="18.958" height="20.5359" filterUnits="userSpaceOnUse" color-interpolation-filters="sRGB">
<feFlood flood-opacity="0" result="BackgroundImageFix"/>
<feGaussianBlur in="BackgroundImage" stdDeviation="3.01946"/>
<feComposite in2="SourceAlpha" operator="in" result="effect1_backgroundBlur"/>
<feBlend mode="normal" in="SourceGraphic" in2="effect1_backgroundBlur" result="shape"/>
</filter>
<linearGradient id="paint0_linear" x1="60.9322" y1="58.8543" x2="75.9755" y2="48.7201" gradientUnits="userSpaceOnUse">
<stop stop-color="#5144A3"/>
<stop offset="0.543707" stop-color="#6152BD"/>
<stop offset="1" stop-color="#6C5DCC"/>
</linearGradient>
</defs>
</svg>
