<svg width="387" height="243" viewBox="0 0 387 243" fill="none" xmlns="http://www.w3.org/2000/svg">
<rect width="222.825" height="222.825" transform="matrix(0.866025 0.5 -0.866025 0.5 192.972 19.4124)" fill="#321060"/>
<path d="M386.087 130.912V111.412L362.087 123.912L386.087 130.912Z" fill="#321060"/>
<path d="M0.0874023 130.912V111.412L24.0874 123.912L0.0874023 130.912Z" fill="#321060"/>
<rect width="222.825" height="222.825" transform="matrix(0.866025 0.5 -0.866025 0.5 192.972 0)" fill="#4D1F8F"/>
<g filter="url(#filter0_b)">
<rect width="180" height="180" transform="matrix(0.866025 0.5 -0.866025 0.5 192.972 21.4124)" fill="url(#paint0_linear)" fill-opacity="0.8"/>
<rect width="180" height="180" transform="matrix(0.866025 0.5 -0.866025 0.5 192.972 21.4124)" stroke="white" stroke-opacity="0.5"/>
</g>
<path fill-rule="evenodd" clip-rule="evenodd" d="M230.14 88.6896C233.122 84.6198 231.789 79.7686 226.017 76.4618L223.749 75.1627C217.976 71.856 209.491 71.0838 202.386 72.7917C201.451 73.0188 201.213 73.7183 201.926 74.1271L227.809 88.9531C228.538 89.371 229.743 89.2256 230.14 88.6896ZM221.719 94.2221C215.375 91.1334 207.715 89.4164 199.88 89.0712C198.976 89.0258 198.421 88.5806 198.612 88.0719C200.388 83.4569 197.708 78.3968 190.555 75.1537C182.768 71.6197 171.429 71.5016 163.436 74.8811C160.019 76.3384 157.536 78.1927 156.022 80.2269L155.633 80.7861C154.634 82.3395 153.08 83.7022 151.113 84.8287C149.378 85.8223 147.328 86.6212 145.047 87.1888L144.056 87.4178C140.123 88.2536 136.507 89.7434 133.747 91.8874C127.832 96.4569 128.054 102.961 134.223 107.422C139.901 111.528 148.718 113.054 156.775 112.037C157.663 111.928 158.44 112.246 158.519 112.764C159.138 117.242 162.119 121.639 167.512 125.273C168.067 125.646 169.018 125.682 169.621 125.337L221.83 95.4304C222.416 95.0942 222.353 94.531 221.719 94.2221ZM174.902 129.143C189.921 135.13 210.712 134.321 224.113 126.645C237.515 118.968 238.942 107.068 228.475 98.4555C227.951 98.0286 226.905 97.974 226.27 98.3374L174.696 127.88C174.062 128.244 174.173 128.852 174.902 129.143ZM157.869 130.088C158.805 129.861 159.043 129.161 158.329 128.752L132.431 113.917C131.701 113.5 130.496 113.645 130.1 114.181C127.134 118.26 128.466 123.111 134.239 126.418L136.523 127.726C142.279 131.024 150.764 131.796 157.869 130.088ZM194.631 70.3479C195.709 69.4395 197.232 68.7127 199.056 68.2676C209.666 65.733 221.735 67.0684 229.839 71.6561L232.107 72.9552C240.179 77.5792 242.526 84.4835 238.085 90.552C237.562 91.2515 236.817 91.8783 235.913 92.3961C235.072 92.8776 234.089 93.2592 233.026 93.5408C232.582 93.6498 232.535 94.0041 232.931 94.1585C233.93 94.5492 234.818 95.0397 235.532 95.6302C248.584 106.359 246.348 120.849 230.203 130.097C214.059 139.345 188.763 140.626 170.033 133.149C169.002 132.741 168.146 132.232 167.464 131.66C167.194 131.432 166.576 131.46 166.386 131.714C165.878 132.332 165.212 132.895 164.387 133.367C163.483 133.885 162.405 134.303 161.184 134.603C150.574 137.138 138.521 135.793 130.464 131.178L128.196 129.879C120.124 125.255 117.777 118.351 122.217 112.282C122.979 111.228 124.263 110.365 125.849 109.748C126.151 109.63 126.246 109.411 126.04 109.239C118.919 103.089 119.141 94.9489 126.896 88.944C130.528 86.1187 135.444 83.9929 141.09 82.7937C142.597 82.4758 143.945 81.9761 145.055 81.3402C145.98 80.8103 146.74 80.1857 147.289 79.4928L147.592 79.0691C149.702 75.8441 153.413 73.0279 158.329 70.9384C168.812 66.4961 183.022 66.3689 193.759 70.4479C194.06 70.566 194.425 70.5205 194.631 70.3479ZM147.545 101.263C146.086 100.427 146.086 99.0642 147.545 98.2284L174.506 82.7847C175.965 81.9489 178.344 81.9489 179.803 82.7847C181.262 83.6205 181.262 84.9831 179.803 85.8189L152.842 101.263C151.383 102.098 149.004 102.098 147.545 101.263ZM180.358 99.2913C178.613 98.292 178.613 96.675 180.358 95.6757C182.102 94.6764 184.925 94.6764 186.67 95.6757C188.414 96.675 188.414 98.292 186.67 99.2913C184.925 100.291 182.102 100.291 180.358 99.2913ZM170.049 101.581C168.305 102.58 168.305 104.197 170.049 105.196C171.794 106.196 174.617 106.196 176.361 105.196C178.106 104.197 178.106 102.58 176.361 101.581C174.617 100.581 171.794 100.581 170.049 101.581Z" fill="white"/>
<path d="M192.882 180.454C194.337 180.682 195.886 180.472 197.049 179.8C198.421 179.008 198.65 177.952 197.392 177.226C196.468 176.692 195.356 176.674 193.693 177.046L192.57 177.298C191.729 177.484 191.344 177.514 190.98 177.304C190.554 177.058 190.679 176.71 191.167 176.428C191.687 176.128 192.383 176.026 193.267 176.128L193.485 175.15C192.269 174.94 190.97 175.102 189.92 175.708C188.621 176.458 188.413 177.466 189.588 178.144C190.502 178.672 191.708 178.66 193.225 178.324L194.296 178.09C195.252 177.886 195.615 177.844 196.021 178.078C196.488 178.348 196.416 178.726 195.802 179.08C195.054 179.512 194.181 179.572 193.121 179.476L192.882 180.454ZM197.596 176.365C199.03 177.229 201.556 177.223 203.031 176.335C204.569 175.483 204.611 174.007 203.114 173.179C201.68 172.315 199.155 172.345 197.669 173.227C196.131 174.079 196.1 175.537 197.596 176.365ZM201.691 174.013C202.491 174.475 202.512 175.147 201.753 175.585C200.974 176.035 199.83 176.011 199.03 175.549C198.209 175.075 198.168 174.415 198.947 173.965C199.706 173.527 200.89 173.551 201.691 174.013ZM202.568 169.703C201.986 169.367 202.069 169.067 202.703 168.701C202.828 168.629 202.973 168.557 203.15 168.479L201.975 167.801C201.664 167.897 201.362 168.023 201.092 168.179C199.855 168.893 199.751 169.697 201.04 170.441L201.882 170.927L201.154 171.347L202.339 172.031L203.067 171.611L207.026 173.897L208.429 173.087L204.47 170.801L205.602 170.147L204.418 169.463L203.285 170.117L202.568 169.703ZM212.206 169.55C211.873 169.778 211.665 169.91 211.582 169.958C210.917 170.342 210.408 170.384 209.826 170.048L207.799 168.878L209.254 168.038L208.069 167.354L206.615 168.194L205.316 167.444L203.913 168.254L205.212 169.004L204.401 169.472L205.586 170.156L206.396 169.688L208.548 170.93C209.836 171.674 211.239 171.608 212.538 170.858C212.85 170.678 213.131 170.468 213.38 170.228L212.206 169.55ZM215.864 162.854L217.537 165.2L213.131 164.3L212.663 164.57L214.305 167.138L210.158 166.148L208.683 167L216.342 168.662L216.799 168.398L215.292 165.812L219.761 166.688L220.218 166.424L217.34 162.002L215.864 162.854ZM224.364 160.359C222.94 159.537 221.298 159.585 219.957 160.359C219.053 160.881 218.658 161.517 218.773 162.267L220.363 162.345C220.331 161.799 220.487 161.457 221.017 161.151C221.641 160.791 222.306 160.791 222.878 161.121L223.106 161.253L221.818 161.997C220.622 162.687 220.446 163.449 221.371 163.983C222.275 164.505 223.595 164.475 224.686 163.845C225.341 163.467 225.642 163.017 225.631 162.579L226.13 162.867L227.419 162.123L224.364 160.359ZM224.093 161.823C224.686 162.165 224.644 162.681 224.031 163.035C223.584 163.293 223.075 163.335 222.732 163.137C222.389 162.939 222.472 162.687 222.929 162.423L224.031 161.787L224.093 161.823ZM226.784 156.549C226.608 156.603 226.441 156.675 226.265 156.777C225.693 157.107 225.444 157.539 225.527 157.983L224.914 157.629L223.625 158.373L228.769 161.343L230.172 160.533L227.605 159.051C226.722 158.541 226.805 157.965 227.647 157.479L228.021 157.263L226.784 156.549ZM235.326 155.134C235.129 154.948 234.9 154.78 234.65 154.636C233.31 153.862 231.263 153.832 229.839 154.654C228.322 155.494 228.322 156.922 229.839 157.762C231.294 158.638 233.788 158.626 235.347 157.69C236.105 157.252 236.531 156.706 236.635 156.058L235.097 155.842C234.993 156.298 234.692 156.676 234.183 156.97C233.435 157.402 232.541 157.498 231.72 157.216L235.326 155.134ZM230.733 156.646C230.255 156.19 230.327 155.68 230.92 155.338C231.533 154.984 232.427 154.936 233.071 155.296L230.733 156.646ZM247.408 150.582L242.773 150.15C243.147 149.502 242.898 148.83 242.025 148.326C240.705 147.564 238.772 147.648 237.338 148.476L234.761 149.964L241.62 153.924L243.023 153.114L240.601 151.716L241.63 151.122L245.829 151.494L247.408 150.582ZM237.4 149.868L238.575 149.19C239.209 148.824 240.009 148.818 240.591 149.154C241.183 149.496 241.194 149.946 240.539 150.324L239.365 151.002L237.4 149.868ZM245.153 148.908C246.587 149.772 249.112 149.766 250.588 148.878C252.126 148.026 252.168 146.55 250.671 145.722C249.237 144.858 246.712 144.888 245.226 145.77C243.688 146.622 243.657 148.08 245.153 148.908ZM249.248 146.556C250.048 147.018 250.069 147.69 249.31 148.128C248.531 148.578 247.387 148.554 246.587 148.092C245.766 147.618 245.725 146.958 246.504 146.508C247.263 146.07 248.447 146.094 249.248 146.556ZM257.212 141.957C255.664 141.063 253.461 141.015 252.026 141.843C251.372 142.221 251.07 142.635 251.102 143.085L247.953 141.267L246.55 142.077L254.344 146.577L255.633 145.833L254.999 145.467C255.851 145.539 256.703 145.359 257.41 144.951C258.844 144.123 258.761 142.851 257.212 141.957ZM255.778 142.773C256.641 143.271 256.63 143.925 255.872 144.363C255.165 144.771 254.084 144.831 253.159 144.297C252.245 143.769 252.317 143.139 253.035 142.725C253.783 142.293 254.936 142.287 255.778 142.773ZM258.011 141.484C259.446 142.348 261.971 142.342 263.447 141.454C264.985 140.602 265.026 139.126 263.53 138.298C262.096 137.434 259.57 137.464 258.084 138.346C256.546 139.198 256.515 140.656 258.011 141.484ZM262.106 139.132C262.906 139.594 262.927 140.266 262.168 140.704C261.389 141.154 260.246 141.13 259.446 140.668C258.625 140.194 258.583 139.534 259.362 139.084C260.121 138.646 261.306 138.67 262.106 139.132ZM269.333 136.568C269 136.796 268.792 136.928 268.709 136.976C268.044 137.36 267.535 137.402 266.953 137.066L264.927 135.896L266.381 135.056L265.197 134.372L263.742 135.212L262.443 134.462L261.04 135.272L262.339 136.022L261.528 136.49L262.713 137.174L263.524 136.706L265.675 137.948C266.963 138.692 268.366 138.626 269.665 137.876C269.977 137.696 270.258 137.486 270.507 137.246L269.333 136.568ZM274.532 134.922L275.935 134.112L273.514 132.714L274.688 132.036C276.122 131.208 276.247 130.08 274.937 129.324C273.617 128.562 271.685 128.646 270.25 129.474L267.673 130.962L274.532 134.922ZM272.287 132.006L270.313 130.866L271.487 130.188C272.121 129.822 272.921 129.816 273.503 130.152C274.096 130.494 274.116 130.95 273.462 131.328L272.287 132.006ZM280.609 131.413L282.012 130.603L274.218 126.103L272.815 126.913L280.609 131.413ZM284.657 125.548C283.234 124.726 281.592 124.774 280.251 125.548C279.347 126.07 278.952 126.706 279.066 127.456L280.656 127.534C280.625 126.988 280.781 126.646 281.311 126.34C281.934 125.98 282.6 125.98 283.171 126.31L283.4 126.442L282.111 127.186C280.916 127.876 280.739 128.638 281.664 129.172C282.568 129.694 283.888 129.664 284.979 129.034C285.634 128.656 285.936 128.206 285.925 127.768L286.424 128.056L287.713 127.312L284.657 125.548ZM284.387 127.012C284.979 127.354 284.938 127.87 284.325 128.224C283.878 128.482 283.369 128.524 283.026 128.326C282.683 128.128 282.766 127.876 283.223 127.612L284.325 126.976L284.387 127.012ZM291.193 123.947C290.861 124.175 290.653 124.307 290.57 124.355C289.905 124.739 289.395 124.781 288.813 124.445L286.787 123.275L288.242 122.435L287.057 121.751L285.602 122.591L284.303 121.841L282.9 122.651L284.199 123.401L283.389 123.869L284.573 124.553L285.384 124.085L287.535 125.327C288.824 126.071 290.227 126.005 291.526 125.255C291.838 125.075 292.118 124.865 292.368 124.625L291.193 123.947ZM289.167 119.704C288.585 119.368 288.668 119.068 289.302 118.702C289.427 118.63 289.572 118.558 289.749 118.48L288.575 117.802C288.263 117.898 287.961 118.024 287.691 118.18C286.454 118.894 286.351 119.698 287.639 120.442L288.481 120.928L287.754 121.348L288.938 122.032L289.666 121.612L293.625 123.898L295.028 123.088L291.069 120.802L292.201 120.148L291.017 119.464L289.884 120.118L289.167 119.704ZM294.07 120.666C295.504 121.53 298.029 121.524 299.505 120.636C301.043 119.784 301.085 118.308 299.588 117.48C298.154 116.616 295.629 116.646 294.143 117.528C292.605 118.38 292.573 119.838 294.07 120.666ZM298.165 118.314C298.965 118.776 298.985 119.448 298.227 119.886C297.447 120.336 296.304 120.312 295.504 119.85C294.683 119.376 294.642 118.716 295.421 118.266C296.18 117.828 297.364 117.852 298.165 118.314ZM301.276 113.541C301.099 113.595 300.933 113.667 300.756 113.769C300.185 114.099 299.935 114.531 300.018 114.975L299.405 114.621L298.117 115.365L303.261 118.335L304.664 117.525L302.097 116.043C301.214 115.533 301.297 114.957 302.139 114.471L302.513 114.255L301.276 113.541ZM312.029 109.589C310.782 108.869 309.223 108.821 308.017 109.517C307.311 109.925 306.989 110.435 307.041 110.933C306.209 110.849 305.45 110.999 304.775 111.389C304.183 111.731 303.871 112.151 303.892 112.559L303.434 112.295L302.146 113.039L307.29 116.009L308.693 115.199L305.7 113.471C305.087 113.117 305.076 112.679 305.648 112.349C306.199 112.031 306.947 112.043 307.56 112.397L310.553 114.125L311.956 113.315L308.932 111.569C308.36 111.239 308.36 110.783 308.911 110.465C309.462 110.147 310.21 110.159 310.823 110.513L313.816 112.241L315.219 111.431L312.029 109.589Z" fill="white"/>
<defs>
<filter id="filter0_b" x="32.2214" y="16.9124" width="321.501" height="189" filterUnits="userSpaceOnUse" color-interpolation-filters="sRGB">
<feFlood flood-opacity="0" result="BackgroundImageFix"/>
<feGaussianBlur in="BackgroundImage" stdDeviation="2"/>
<feComposite in2="SourceAlpha" operator="in" result="effect1_backgroundBlur"/>
<feBlend mode="normal" in="SourceGraphic" in2="effect1_backgroundBlur" result="shape"/>
</filter>
<linearGradient id="paint0_linear" x1="3.20329e-05" y1="180" x2="180" y2="180" gradientUnits="userSpaceOnUse">
<stop stop-color="#814EC4"/>
<stop offset="1" stop-color="#561FAA"/>
</linearGradient>
</defs>
</svg>
