<svg width="167" height="187" viewBox="0 0 167 187" fill="none" xmlns="http://www.w3.org/2000/svg">
<path d="M80.8508 27.8545C80.7188 27.5531 80.6506 27.2275 80.6506 26.8985C80.6506 26.5694 80.7188 26.2438 80.8508 25.9424C80.9587 26.5752 80.9587 27.2217 80.8508 27.8545Z" fill="#424449"/>
<path d="M60.7294 13.8271C60.8519 13.6359 60.9745 13.6408 61.0971 13.8271C61.0737 13.8525 61.0453 13.8728 61.0136 13.8867C60.982 13.9005 60.9478 13.9077 60.9132 13.9077C60.8787 13.9077 60.8445 13.9005 60.8129 13.8867C60.7812 13.8728 60.7528 13.8525 60.7294 13.8271Z" fill="#424449"/>
<path d="M80.64 19.0195C80.4488 18.8724 80.4978 18.7547 80.6792 18.6469C80.7189 18.7032 80.7369 18.772 80.7297 18.8406C80.7225 18.9091 80.6906 18.9727 80.64 19.0195Z" fill="#424449"/>
<path d="M63.5927 14.0186C63.7594 13.7784 63.8819 13.8519 63.98 14.0774L63.5927 14.0186Z" fill="#424449"/>
<path d="M70.5107 12.6949C70.6583 12.6906 70.8032 12.6542 70.9353 12.5881C71.0674 12.5221 71.1835 12.428 71.2755 12.3124C71.516 12.2886 71.747 12.206 71.9479 12.0717C72.1489 11.9375 72.3137 11.7557 72.4277 11.5427C72.5528 11.5516 72.6773 11.519 72.782 11.4498C72.8866 11.3807 72.9655 11.2789 73.0062 11.1602C73.1308 11.1698 73.2551 11.1373 73.3591 11.068C73.463 10.9987 73.5408 10.8965 73.5799 10.7778C73.7043 10.7865 73.8282 10.7537 73.932 10.6845C74.0358 10.6153 74.1137 10.5136 74.1535 10.3954C74.2421 10.3625 74.3226 10.3108 74.3895 10.244C74.4563 10.1772 74.508 10.0967 74.5409 10.008C74.894 9.88121 75.2146 9.67787 75.48 9.41257C75.7453 9.14726 75.9486 8.82654 76.0755 8.47343C76.164 8.44286 76.2445 8.39255 76.3107 8.32629C76.377 8.26004 76.4273 8.17959 76.4579 8.09102C76.577 8.05098 76.6793 7.9723 76.7486 7.86748C76.8178 7.76267 76.8501 7.63774 76.8403 7.51248C77.2031 7.38991 77.2767 6.78683 77.8209 6.93882C77.9387 7.08028 78.0904 7.18956 78.2619 7.25645C78.4334 7.32333 78.619 7.34563 78.8015 7.32126C79.6942 7.74517 80.3833 8.50472 80.7185 9.43441C80.8362 10.8072 80.3116 12.0526 79.9243 13.3175C79.4683 14.8325 78.9436 16.323 78.6103 17.8772V18.4558C78.3112 18.6519 78.4534 18.9461 78.419 19.2206V24.2118C78.473 24.5354 78.272 24.9031 78.6103 25.1923V30.159C78.37 30.2963 78.4288 30.5267 78.419 30.7375V31.1199C78.3027 31.2126 78.2078 31.3295 78.141 31.4623C78.0741 31.5952 78.0368 31.741 78.0317 31.8897L77.6493 32.2721H74.3889C74.2516 32.0319 74.0211 32.0907 73.8103 32.0809H73.3985C72.7883 31.7984 72.1413 31.6036 71.4765 31.5024C71.3592 31.4628 71.2581 31.3856 71.189 31.2828C71.1199 31.18 71.0865 31.0573 71.0941 30.9336C72.1139 30.8405 73.1043 31.1984 74.129 31.1347C75.3302 31.066 75.3302 31.1347 75.1439 29.8844C75.1283 29.7214 75.1283 29.5572 75.1439 29.3941C75.2174 26.7171 74.7664 24.099 74.433 21.4514C74.0751 18.5734 72.1237 16.7642 70.7068 14.5481C69.1668 15.0623 67.5159 15.147 65.9314 14.7933L65.7352 14.6021L65.9264 14.0235H66.3138C67.7836 13.8473 69.2072 13.3966 70.5107 12.6949Z" fill="#313539"/>
<path d="M65.9067 14.8079C67.4913 15.1616 69.1422 15.0769 70.6822 14.5627C72.0991 16.7789 74.0505 18.588 74.4084 21.466C74.7418 24.1136 75.1929 26.7317 75.1193 29.4087C75.1037 29.5718 75.1037 29.7359 75.1193 29.899C75.3056 31.1296 75.3056 31.0806 74.1044 31.1492C73.0797 31.213 72.0893 30.8551 71.0695 30.9482C70.7067 30.7815 70.6283 30.4285 70.4959 30.1049C69.4221 27.4868 68.8289 24.7117 68.0101 22.02C67.3237 19.7745 66.7501 17.4996 65.946 15.2933C65.9116 15.1339 65.8984 14.9707 65.9067 14.8079Z" fill="#3F454B"/>
<path d="M78.5709 17.877C78.8896 16.3228 79.4289 14.8323 79.8849 13.3173C80.2722 12.0523 80.7968 10.807 80.6791 9.4342C81.3999 9.71857 81.0812 10.2971 80.9684 10.7188C80.5958 12.121 80.1398 13.5036 79.7231 14.901C79.5172 15.5972 79.3603 16.3081 79.125 16.9945C79.0171 17.3181 79.1102 17.8132 78.5709 17.877Z" fill="#2E3134"/>
<path d="M70.5107 12.6946C69.2008 13.4044 67.7685 13.8602 66.2893 14.038C66.2893 13.8762 66.3432 13.7094 66.5295 13.68C67.797 13.4777 69.0308 13.1033 70.1969 12.5671C70.2554 12.5426 70.3213 12.5422 70.3801 12.5661C70.4389 12.59 70.4858 12.6362 70.5107 12.6946Z" fill="#2E3134"/>
<path d="M78.5709 28.624V25.746C78.7327 25.746 78.9239 25.8195 78.9239 25.996C78.9239 26.7903 78.9239 27.5846 78.9239 28.3739C78.9239 28.5504 78.7327 28.6044 78.5709 28.624Z" fill="#2E3134"/>
<path d="M71.4667 31.5021C72.1314 31.6033 72.7784 31.7981 73.3886 32.0806C73.0472 32.188 72.6813 32.1903 72.3386 32.0871C71.9959 31.984 71.6921 31.7801 71.4667 31.5021Z" fill="#2E3134"/>
<path d="M78.5709 25.1724C78.2326 24.9027 78.4336 24.535 78.3797 24.1918C78.9975 24.4222 78.8161 24.7899 78.5709 25.1724Z" fill="#2E3134"/>
<path d="M75.3058 32.272H76.2864C75.9236 32.8211 75.6539 32.8211 75.3058 32.272Z" fill="#2E3134"/>
<path d="M65.9019 14.0382L65.7107 14.6168C65.3822 14.5873 65.2204 14.4157 65.4067 14.1265C65.5146 13.9107 65.6911 13.7538 65.9019 14.0382Z" fill="#2E3134"/>
<path d="M76.8304 32.272H77.6002C77.6002 32.5465 77.4384 32.6593 77.1687 32.6446C76.8991 32.6299 76.8599 32.4828 76.8304 32.272Z" fill="#2E3134"/>
<path d="M78.3797 19.2205C78.414 18.9558 78.2719 18.6518 78.5709 18.4557C78.8357 18.794 78.9436 19.0882 78.3797 19.2205Z" fill="#2E3134"/>
<path d="M77.9926 31.8894C77.9977 31.7407 78.035 31.5949 78.1018 31.462C78.1687 31.3291 78.2636 31.2123 78.3799 31.1196C78.6986 31.6001 78.4044 31.7717 77.9926 31.8894Z" fill="#2E3134"/>
<path d="M78.3796 30.7372C78.3796 30.5264 78.3306 30.296 78.5708 30.1587C78.8993 30.4823 78.7914 30.6637 78.3796 30.7372Z" fill="#2E3134"/>
<path d="M73.771 32.0807C73.9818 32.0807 74.2123 32.0316 74.3495 32.2719C74.0259 32.6004 73.8445 32.4974 73.771 32.0807Z" fill="#2E3134"/>
<path d="M0.104854 58.6544C0.703008 52.2316 3.34077 46.7257 8.17013 42.4013C12.1562 38.832 16.863 36.6796 22.0993 35.5372C22.5896 34.4929 23.0406 33.4094 23.5701 32.3651C31.5455 16.4176 44.1787 6.25059 61.4696 1.86413C67.062 0.487531 72.841 0.0288432 78.5807 0.506013C88.9595 1.26522 98.9258 4.88201 107.376 10.9559C115.826 17.0298 122.43 25.3237 126.458 34.9195C126.56 35.1924 126.731 35.4342 126.954 35.6214C127.178 35.8087 127.446 35.9351 127.732 35.9883C134.263 37.7926 139.793 41.1118 143.716 46.7747C145.991 50.0989 147.395 53.9408 147.8 57.9484C148.206 60.9594 148.134 64.0158 147.584 67.0041C147.272 68.3866 146.815 69.7325 146.221 71.0195C147.663 71.1078 149.026 71.0195 150.384 71.2059C152.374 71.5098 154.318 72.0582 156.174 72.8385C159.524 74.2149 162.535 76.3027 164.999 78.9573C167.75 81.8991 167.274 86.0764 165.896 88.719C165.298 89.8663 164.2 90.5527 162.984 91.092C161.543 91.7343 160.131 92.3913 158.508 92.3177C155.4 92.2015 152.353 91.4173 149.575 90.0183C148.661 89.5586 147.783 89.0326 146.947 88.4445C145.728 87.5873 144.35 86.9849 142.893 86.6732C141.437 86.3615 139.932 86.3469 138.47 86.6304C136.763 86.9099 135.655 87.9395 134.743 89.2436C131.493 93.9014 130.988 98.9024 133.008 104.183C133.831 106.33 134.802 108.419 135.763 110.508C136.901 112.988 137.901 115.538 138.131 118.264C138.622 123.961 137.974 129.452 134.469 134.252C134.253 134.513 134.116 134.83 134.074 135.167C134.032 135.503 134.088 135.844 134.234 136.15C136.582 142.808 136.754 149.422 133.562 155.899C132.632 157.688 131.407 159.307 129.939 160.689C126.909 163.675 123.933 166.714 121.162 169.945C120.952 170.137 120.785 170.371 120.672 170.632C120.603 170.676 120.721 170.745 120.765 170.73C122.609 170.048 124.413 169.259 126.359 168.886C128.355 168.421 130.435 168.455 132.415 168.984C133.595 169.299 134.654 169.958 135.459 170.877C137.42 173.25 139.053 175.814 139.803 178.859C139.944 179.536 139.97 180.232 139.882 180.918C139.518 181.078 139.115 181.124 138.725 181.05C129.458 181.05 120.19 181.024 110.92 180.972C110.612 180.946 110.303 181.001 110.023 181.131C109.743 181.26 109.501 181.461 109.322 181.712C107.022 184.541 103.963 185.439 100.433 185.017C99.7418 184.855 99.066 184.633 98.4129 184.355C97.4068 185.002 96.2783 185.436 95.0975 185.629C93.9167 185.822 92.7089 185.771 91.5489 185.478C90.5816 185.259 89.7062 184.745 89.0435 184.007C88.8305 183.778 88.5673 183.602 88.2746 183.492C87.9819 183.383 87.6678 183.342 87.3569 183.374C84.1896 183.468 82.047 181.943 80.7527 179.104C80.6154 178.805 80.6007 178.413 80.2624 178.226C76.1194 179.374 71.9667 178.981 67.8188 178.472C66.2205 184.164 62.7247 184.551 58.5033 183.374C57.9412 184.176 57.1879 184.825 56.3117 185.262C54.4143 186.032 53.8603 186.321 51.7079 186.076C51.3157 186.002 49.58 185.522 49.4084 185.095C48.4278 185.502 47.6581 186.154 45.2311 186.154C43.8361 186.158 42.4611 185.821 41.2255 185.174C39.7232 184.374 38.4493 183.204 37.5238 181.776C37.3817 181.516 37.1668 181.304 36.9055 181.164C36.6442 181.025 36.3479 180.965 36.0529 180.992C27.0381 181.018 18.0233 181.018 9.00851 180.992C8.61533 181.065 8.20893 181.014 7.84652 180.845C7.81528 180.089 7.85466 179.332 7.96419 178.584C8.59176 175.584 10.0871 173.015 11.8522 170.573C13.3231 168.548 15.3774 167.631 17.819 167.45C21.0795 167.229 24.1928 168.097 27.1346 169.367C27.2228 169.411 27.1934 169.181 27.0267 168.994C23.5554 165.873 20.1773 162.651 16.8924 159.331C15.2465 157.674 13.9348 155.717 13.0289 153.565C10.8912 148.544 10.7049 143.396 11.9895 138.13C13.225 133.046 16.4462 129.796 21.2363 127.991C23.9294 126.963 26.8279 126.588 29.6939 126.898C30.531 125.808 31.1927 124.594 31.655 123.299C33.0867 119.431 34.3467 115.499 35.6558 111.586C36.5439 108.784 38.5037 106.447 41.1078 105.085C41.8433 104.688 42.613 104.345 43.3533 103.987C43.3533 103.742 43.1621 103.688 43.0396 103.604C36.2068 99.0527 30.4575 93.0557 26.1981 86.0371C26.0771 85.8352 25.9101 85.6646 25.7108 85.5394C25.5114 85.4142 25.2853 85.3378 25.0508 85.3164C22.3599 84.8367 19.7167 84.1197 17.1523 83.1739C12.6808 81.5412 8.52804 79.3496 5.19407 75.844C2.35449 72.956 0.574796 69.1927 0.144085 65.1655C-0.0338909 62.9993 -0.0470114 60.8227 0.104854 58.6544ZM130.12 130.408C131.157 131.441 132.119 132.547 132.998 133.718C133.596 132.546 134.39 131.565 134.537 130.35C134.734 128.702 133.15 126.653 131.468 126.158C130.159 125.496 128.821 125.707 127.492 126.06C127.415 126.078 127.342 126.112 127.279 126.161C127.216 126.209 127.163 126.269 127.124 126.339C126.884 127.084 126.418 127.746 126.266 128.585C127.695 128.822 129.03 129.454 130.12 130.408ZM134.778 85.689C134.84 85.1178 134.754 84.5401 134.53 84.0113C134.305 83.4826 133.948 83.0203 133.493 82.6688C133.223 82.4482 132.954 82.2374 132.552 82.4139C130.506 83.2408 128.417 83.9593 126.296 84.5663C125.717 84.5663 125.178 84.8604 124.634 84.8604C123.423 84.8604 123.163 85.7037 122.834 86.6157C126.492 86.1254 129.659 86.8461 132.15 89.8173C132.781 88.6 133.638 87.5136 134.675 86.6157C134.745 86.5635 134.804 86.4974 134.847 86.4215C134.891 86.3457 134.918 86.2617 134.928 86.1747C134.937 86.0878 134.929 85.9999 134.903 85.9163C134.877 85.8327 134.835 85.7554 134.778 85.689ZM129.385 110.664C127.423 110.851 126.369 112.135 125.526 113.719C125.475 113.8 125.442 113.891 125.429 113.985C125.417 114.08 125.425 114.177 125.452 114.268C125.894 115.577 126.325 116.886 126.776 118.239C127.943 117.187 129.422 116.543 130.988 116.406C132.383 116.264 133.793 116.382 135.145 116.754C135.312 116.842 135.459 116.989 135.749 116.901C135.572 115.71 134.993 114.621 134.734 113.469C134.312 111.581 132.983 110.934 131.302 110.684C130.66 110.589 130.008 110.583 129.365 110.664H129.385ZM131.905 117.852C130.329 117.768 128.78 118.281 127.566 119.289C127.408 119.391 127.29 119.543 127.227 119.721C127.165 119.898 127.164 120.091 127.222 120.269C127.465 121.461 127.554 122.678 127.487 123.892C127.487 124.128 127.379 124.383 127.639 124.618C129.041 124.329 130.488 124.329 131.89 124.618C133.406 125.229 134.654 126.361 135.41 127.81C136.258 125.005 136.273 122.333 136.234 119.651C136.235 119.46 136.179 119.273 136.075 119.112C135.97 118.952 135.821 118.826 135.646 118.749C134.528 118.038 133.204 117.722 131.885 117.852H131.905ZM129.767 101.927C130.066 101.829 129.997 101.594 129.978 101.373C129.857 100.561 129.787 99.7427 129.767 98.922C129.769 98.7315 129.712 98.5451 129.605 98.3875C129.025 97.3803 128.103 96.6152 127.005 96.2317C125.908 95.8483 124.71 95.8721 123.629 96.2989C123.15 96.3319 122.685 96.4691 122.266 96.7009C120.197 97.6423 119.667 98.5052 120.005 100.486C120.331 102.165 120.824 103.808 121.476 105.389C121.579 105.35 121.613 105.35 121.628 105.33C121.761 105.149 121.898 104.972 122.011 104.786C123.148 102.933 124.869 102.026 126.948 101.682C127.894 101.511 128.801 101.927 129.747 101.927H129.767ZM126.276 103.536C124.379 103.992 123.231 105.286 122.418 106.968C122.381 107.038 122.361 107.116 122.361 107.196C122.361 107.275 122.381 107.353 122.418 107.424L124.629 112.174C124.879 111.841 125.09 111.571 125.286 111.297C125.665 110.739 126.154 110.264 126.722 109.9C127.29 109.537 127.925 109.291 128.59 109.179C129.726 108.965 130.893 108.981 132.022 109.228C132.238 109.277 132.586 109.61 132.748 109.11C132.135 107.639 131.527 106.168 130.909 104.698C130.848 104.517 130.736 104.359 130.586 104.242C129.223 103.452 127.821 102.874 126.257 103.536H126.276ZM135.724 80.9185C135.316 81.0168 134.949 81.2437 134.68 81.5657C135.252 82.028 135.703 82.6227 135.995 83.2983C136.286 83.974 136.408 84.7103 136.352 85.4439C138.832 84.3015 141.21 84.3505 143.672 84.9536C143.995 83.7328 144.652 82.6885 144.652 81.448C145 79.1682 144.26 77.2855 142.691 75.6577C141.965 76.3196 141.338 76.9079 140.691 77.4767C139.126 78.7597 137.459 79.9109 135.704 80.9185H135.724ZM129.973 95.1369C130.184 94.206 130.458 93.2904 130.792 92.3962C130.93 92.114 130.987 91.7988 130.956 91.4861C130.925 91.1733 130.807 90.8755 130.615 90.6262C130.289 90.0709 129.822 89.611 129.262 89.2927C127.639 88.4052 125.933 87.8218 124.04 88.1356C123.437 88.1094 122.834 88.201 122.266 88.4052C121.68 88.5151 121.152 88.8263 120.773 89.2848C120.393 89.7433 120.186 90.3202 120.187 90.9155C120.187 91.4058 120.098 91.9304 120.054 92.4354C119.942 93.7151 119.652 94.9996 119.858 96.3577C123.148 94.1612 126.438 93.3719 129.88 96.0832L129.973 95.1369ZM164.357 85.7577C164.732 84.9422 164.865 84.0362 164.741 83.1471C164.617 82.2581 164.24 81.4234 163.656 80.742C162.622 79.5255 161.422 78.4609 160.091 77.5796C159.777 77.237 159.364 77.0005 158.91 76.903C159.528 82.2962 156.694 85.9342 152.923 89.1603C153.964 89.5673 155.048 89.852 156.154 90.0085C158.17 90.3713 160.077 90.2291 161.807 88.9642C162.915 88.0915 164.043 87.2433 164.337 85.7381L164.357 85.7577ZM113.602 173.574C112.19 173.574 110.832 173.922 109.288 174.128C110.901 175.598 111.141 177.256 110.724 179.084H136.709C136.556 177.668 136.102 176.3 135.376 175.074C134.877 173.966 134.152 172.974 133.248 172.162C132.53 171.473 131.653 170.973 130.695 170.704C129.737 170.436 128.728 170.407 127.757 170.622C126.816 170.791 125.894 171.056 125.006 171.411C123.295 172.103 121.574 172.823 119.873 173.495C119.039 173.865 118.146 174.081 117.235 174.132C116.916 173.843 116.877 173.402 116.49 173.152C115.517 173.208 114.551 173.35 113.602 173.574ZM154.698 83.9975C155.165 83.435 155.556 82.8136 155.86 82.1491C156.391 81.2527 156.714 80.2483 156.804 79.2103C156.894 78.1723 156.749 77.1273 156.38 76.1529C156.333 75.8844 156.226 75.63 156.066 75.4091C155.906 75.1882 155.699 75.0067 155.458 74.8781C152.348 73.5247 148.985 72.8479 145.594 72.8925C145.304 72.8697 145.016 72.9462 144.776 73.1093C144.537 73.2724 144.36 73.5124 144.275 73.7897C144.136 73.8673 144.015 73.9727 143.919 74.0992C143.822 74.2257 143.753 74.3707 143.716 74.5251C144.5 75.1335 145.148 75.8993 145.618 76.7733C146.089 77.6473 146.371 78.61 146.447 79.5996C146.608 81.6049 146.353 83.522 145.084 85.2576C146.287 85.698 147.425 86.3 148.467 87.0471C148.931 87.3769 149.423 87.6657 149.938 87.91C150.12 88.0133 150.33 88.0591 150.539 88.0416C150.748 88.0241 150.946 87.9441 151.109 87.812C152.497 86.7088 153.806 85.5616 154.698 83.9975ZM12.0728 174.701C11.2984 175.981 10.7883 177.403 10.5725 178.883H36.6609C36.6119 177.162 36.3275 175.451 37.3081 173.824C35.896 173.475 34.6948 172.843 33.3857 172.402L31.4246 171.333C31.0078 171.617 31.101 172.142 30.7186 172.426C30.5568 172.426 30.3705 172.377 30.189 172.333C28.6446 171.931 27.1689 171.313 25.6686 170.794C23.7417 170.127 21.8296 169.382 19.7851 169.264C17.7406 169.146 15.8628 169.553 14.4262 171.225C13.4835 172.277 12.6915 173.456 12.0728 174.726V174.701ZM94.4023 176.834C94.4069 176.895 94.4271 176.954 94.4612 177.006C95.0787 178.935 96.398 180.562 98.158 181.565C101.835 183.595 104.502 183.526 107.562 181.178C108.395 180.518 108.968 179.584 109.179 178.542C109.39 177.501 109.225 176.418 108.714 175.486C108.577 175.137 108.318 174.85 107.985 174.677C107.653 174.504 107.269 174.457 106.905 174.544C106.596 175.5 106.361 176.476 105.728 177.251C105.096 178.025 104.576 178.825 103.438 178.722C104.463 177.658 105.365 176.54 105.493 174.971C105.537 174.481 105.596 173.956 105.64 173.451C105.772 171.823 105.914 170.181 105.424 168.43C104.125 169.377 102.737 169.411 101.32 169.313C98.5551 168.131 98.3394 165.562 98.0011 163.008C97.5893 163.317 97.2656 163.572 96.9323 163.807C95.3355 165.024 93.4965 165.885 91.5391 166.332C90.0682 166.621 88.5974 166.611 87.5236 165.278C87.2203 164.597 86.9997 163.883 86.8666 163.15C85.43 164.131 84.0965 165.351 82.1696 164.444C82.1108 164.655 82.0176 164.935 81.9588 165.199C81.3448 168.098 81.1533 171.071 81.3901 174.025C81.5421 175.775 81.8803 177.491 82.9443 178.962C83.3222 179.571 83.8583 180.067 84.4954 180.396C85.1326 180.725 85.847 180.875 86.5626 180.83L86.1655 177.766C86.2734 177.03 86.0772 176.177 86.9352 175.721C86.9352 177.001 86.9352 178.29 87.504 179.467C88.7738 182.173 90.9654 183.551 93.9219 183.693C95.0708 183.729 96.2146 183.526 97.2803 183.095C95.9909 181.624 94.672 180.359 94.2111 178.53C94.1768 178.119 94.1278 177.712 94.1033 177.3C94.1033 177.084 94.0739 176.809 94.4171 176.839L94.4023 176.834ZM93.3237 139.405C92.4331 136.54 91.0836 133.837 89.3278 131.404C86.8372 127.879 83.7974 124.971 79.7917 123.201C78.1762 122.473 76.4381 122.056 74.6682 121.97C74.5231 122.276 74.4801 122.62 74.5456 122.951C74.6045 124.873 74.5995 126.79 74.5456 128.707C74.5456 130.016 74.5456 131.325 74.575 132.629C74.4791 133.731 74.4529 134.838 74.4966 135.944C79.2426 138.366 83.4493 141.445 87.9845 144.009C89.7103 142.872 91.3871 141.71 93.1521 140.68C93.7797 140.371 93.8581 139.93 93.3237 139.43V139.405ZM73.1679 132.835C73.2061 132.616 73.2323 132.395 73.2463 132.173C73.2463 128.983 73.2463 125.788 73.2463 122.588C73.2659 122.481 73.263 122.37 73.2377 122.264C73.2123 122.158 73.1652 122.058 73.0993 121.97C72.6796 121.946 72.2589 121.946 71.8392 121.97C70.06 122.134 68.3247 122.616 66.7157 123.392C60.4841 126.525 56.6255 131.727 54.1005 138.037C53.8254 138.491 53.6298 138.989 53.522 139.508C55.8852 140.979 58.116 142.631 60.5919 143.882C64.7545 140.94 68.971 138.229 73.2659 135.605C73.2218 134.698 73.3983 133.772 73.1679 132.86V132.835ZM61.2538 182.114C64.5143 182.021 66.3774 179.888 66.647 176.888C66.8161 175.043 66.8456 173.187 66.7353 171.338C66.6194 168.355 65.7216 165.456 64.1318 162.929C63.97 162.684 63.8671 162.375 63.4945 162.228C63.4503 162.473 63.416 162.66 63.3866 162.846C63.0826 164.807 61.9157 165.459 60.1066 164.729C59.0783 164.286 58.1382 163.661 57.3315 162.885C56.7677 162.395 56.2284 161.846 55.6841 161.331C55.439 161.522 55.5763 161.718 55.5763 161.89C55.5126 164.993 53.9142 166.043 51.0509 164.832C49.4846 164.108 48.0233 163.177 46.7069 162.062C46.4256 161.749 46.0697 161.513 45.6724 161.375C45.7969 162.829 45.6607 164.293 45.2704 165.699C44.4614 167.092 43.3092 167.592 41.755 167.004C41.3137 168.656 41.5589 170.22 41.6668 171.764C41.8004 173.7 42.2995 175.594 43.1376 177.344C42.3558 177.007 41.6786 176.467 41.1765 175.78C40.6421 175.113 40.441 174.255 39.9556 173.564C39.5683 173.706 39.2243 173.946 38.9572 174.26C38.69 174.575 38.5087 174.953 38.4308 175.358C38.1527 176.344 38.1339 177.385 38.3761 178.381C38.6183 179.376 39.1134 180.293 39.8134 181.041C41.0638 182.416 42.6503 183.444 44.4173 184.022C45.264 184.342 46.1865 184.404 47.0687 184.201C47.9508 183.998 48.753 183.538 49.3741 182.879C50.2607 181.956 50.8969 180.822 51.2225 179.584C51.3987 178.701 51.6513 177.835 51.9775 176.996C52.154 179.521 52.0217 181.771 50.7812 183.83C51.0507 184.071 51.3657 184.255 51.7076 184.372C52.0495 184.49 52.4113 184.537 52.7718 184.512C55.4782 184.703 57.1844 183.654 58.2631 181.193C58.929 179.643 59.2775 177.976 59.2878 176.29C60.0869 176.903 60.0281 177.805 59.9644 178.633C59.9382 179.757 59.7618 180.871 59.4398 181.948C59.7144 182.098 60.0162 182.193 60.3276 182.225C60.639 182.258 60.9539 182.229 61.2538 182.139V182.114ZM84.6848 156.521C84.9398 156.296 84.8123 156.065 84.6848 155.84L83.3806 153.511C83.2494 153.486 83.1168 153.47 82.9835 153.462C77.404 153.442 71.8261 153.419 66.2499 153.393C66.029 153.376 65.8082 153.428 65.6183 153.542C65.4285 153.657 65.279 153.827 65.1909 154.031C64.5437 155.242 63.9553 156.482 63.4307 157.742C63.374 157.829 63.3363 157.927 63.3199 158.03C63.3035 158.132 63.3089 158.237 63.3358 158.337C63.3626 158.438 63.4102 158.531 63.4756 158.612C63.5409 158.693 63.6225 158.759 63.7151 158.806C63.7661 158.955 63.8335 159.098 63.9161 159.233C66.7353 163.111 67.7845 167.523 67.9708 172.235C68.0584 173.591 68.0453 174.951 67.9316 176.304C70.8733 177.158 78.0463 177.006 79.9339 176.079C79.8358 174.956 79.6986 173.848 79.6593 172.74C79.6709 171.051 79.7904 169.364 80.0172 167.69C80.2498 164.57 81.2759 161.561 82.9982 158.948C83.5424 158.154 84.121 157.355 84.675 156.546L84.6848 156.521ZM118.015 92.7198C114.092 97.201 109.763 101.231 104.679 104.379C104.765 104.535 104.907 104.652 105.076 104.707C106.605 105.403 107.966 106.419 109.066 107.689C110.166 108.958 110.979 110.45 111.45 112.062C112.43 115.244 113.582 118.372 114.627 121.534C115.486 124.084 116.685 126.507 118.191 128.737C120.23 128.293 122.324 128.154 124.403 128.325C125.609 125.997 125.905 123.303 125.232 120.769C124.335 116.847 122.78 113.121 121.025 109.493C120.01 107.437 119.154 105.306 118.466 103.119C117.485 99.9124 117.686 96.6764 118.088 93.4258C118.118 93.1905 118.284 92.9355 118.034 92.7149C118.069 92.8227 118.118 92.8767 118.206 92.7541L118.015 92.7198ZM28.4387 68.8083C28.5902 68.1871 28.6692 67.5504 28.6741 66.9109C29.3391 60.3747 28.4556 53.7738 26.0951 47.6425C24.7312 44.1529 22.8951 40.8667 20.6382 37.8759C15.6724 39.1252 11.2177 41.8871 7.89066 45.7794C7.41061 46.1405 7.01145 46.5982 6.71886 47.1228C2.98775 52.3346 1.67378 58.1544 2.30625 64.4791C2.75242 69.0437 4.92441 72.6767 8.25838 75.6724C12.0042 79.0456 16.4805 81.0656 21.2462 82.5365C22.2267 82.8355 23.2073 83.2425 24.2712 83.1984C24.4885 82.9466 24.6549 82.6553 24.7615 82.3404C25.5921 80.5252 26.2806 78.6483 26.8208 76.7265C27.5562 74.1329 28.2916 71.5294 28.4142 68.8132L28.4387 68.8083ZM140.166 45.7255C136.876 41.8898 132.485 39.1595 127.59 37.9054C127.316 38.0612 127.094 38.295 126.953 38.5771C120.668 47.3066 118.041 58.1456 119.633 68.7838C119.615 68.9467 119.615 69.1112 119.633 69.2741C120.117 72.5089 120.889 75.6938 121.942 78.7907C122.45 80.3307 123.072 81.8303 123.805 83.2768C124.134 83.2432 124.462 83.1924 124.786 83.1248C126.576 82.6947 128.335 82.1443 130.051 81.4774C134.337 79.781 138.293 77.5551 141.441 74.1231C143.977 71.4725 145.534 68.0359 145.853 64.381C146.223 60.7861 145.844 57.1536 144.74 53.7123C143.691 50.751 142.338 47.9955 140.142 45.7304L140.166 45.7255ZM109.817 54.4036C109.886 54.344 109.944 54.2726 109.989 54.1928C111.603 50.5047 111.995 46.3967 111.107 42.47C110.092 38.1848 107.748 34.8361 103.723 32.8456C100.345 31.1737 96.9126 31.4874 93.5051 32.8014C90.0976 34.1154 87.1755 36.2334 84.3514 38.4986C82.779 39.8083 81.006 40.8563 79.1004 41.6021C74.5211 43.3034 70.133 43.2985 65.995 40.2931C64.1458 38.9798 62.2295 37.7638 60.2536 36.6502C56.8952 34.7136 53.4288 33.027 49.5506 32.4092C45.8342 31.811 42.4365 32.4779 39.5193 34.9979C36.7321 37.3218 34.8213 40.5272 34.1028 44.0842C33.3842 47.6412 33.901 51.337 35.5675 54.5605C35.7342 54.9037 35.8813 55.2518 36.0578 55.5803C37.8169 58.5476 40.2051 61.0931 43.0543 63.0376C44.939 64.4381 46.9954 65.5915 49.1731 66.4697C48.9966 66.8717 48.57 66.9109 48.2464 67.0776C44.888 68.8133 41.7109 70.8038 39.1712 73.6622C36.2785 76.9177 34.8762 80.6832 35.3665 85.0713C35.1998 86.1107 35.5087 87.0962 35.7244 88.0865C36.7589 92.8277 38.7446 97.0589 42.3335 100.452C44.8225 102.796 47.663 104.737 50.7518 106.203C57.7728 109.576 65.2791 110.743 72.9718 110.968C78.0089 111.132 83.0475 110.691 87.9795 109.654C93.6032 108.458 98.913 106.497 103.635 103.134C104.875 102.34 105.987 101.363 106.934 100.236C108.738 97.8768 110.239 95.3006 111.401 92.5678C111.935 91.4837 112.308 90.3275 112.509 89.1358C112.679 88.836 112.775 88.4997 112.788 88.1552C114.22 81.2617 112.219 75.6087 106.586 71.3235C104.315 69.6578 101.765 68.4109 99.0552 67.6414C98.4865 67.4698 97.8638 67.465 97.3686 67.0776C101.106 65.3224 104.38 62.7164 106.929 59.4683C108.09 58.1183 108.999 56.5705 109.611 54.8988C109.682 54.8401 109.735 54.7639 109.767 54.6779C109.799 54.5918 109.808 54.499 109.793 54.4085L109.817 54.4036ZM117.833 67.3473C117.643 66.2116 117.52 65.0655 117.466 63.9152C117.492 62.1039 117.616 60.2954 117.838 58.4975C118.187 55.437 118.845 52.4196 119.799 49.4909C121.013 45.4854 122.93 41.7283 125.462 38.3956C125.752 38.0947 125.934 37.7062 125.979 37.291C126.024 36.8758 125.93 36.4573 125.712 36.1011C124.952 34.4537 124.241 32.7867 123.359 31.1982C120.49 25.8957 116.749 21.1139 112.293 17.0533C109.948 14.9329 107.434 13.0063 104.777 11.2924C100.104 8.29294 94.9955 6.03537 89.6318 4.59995C85.9873 3.61431 82.2482 3.01934 78.4777 2.82511C76.1511 2.68795 73.8176 2.72235 71.496 2.92805C69.6329 3.09965 67.76 3.25656 65.9263 3.58996C60.9075 4.48916 56.0403 6.09011 51.4677 8.34575C47.4004 10.3384 43.6097 12.8518 40.191 15.8227C33.3289 21.652 28.039 29.1098 24.8057 37.5131C24.6604 37.8255 24.5981 38.1701 24.6247 38.5136C24.6513 38.8571 24.766 39.188 24.9577 39.4743C25.5903 40.5045 26.1569 41.5738 26.654 42.6759C29.2783 48.4191 30.652 54.6544 30.6842 60.9686C30.7284 63.42 30.6842 65.8274 30.6842 68.2592C30.6115 68.6071 30.6563 68.9692 30.8117 69.2888C30.8983 69.3232 30.9889 69.3462 31.0814 69.3575H39.333C39.6882 69.3557 40.0329 69.2368 40.3136 69.0192C42.0345 67.7346 42.3973 64.7095 40.995 63.0817C40.5029 62.4907 39.9544 61.9488 39.3575 61.4638C37.7061 60.1567 36.2686 58.6002 35.0969 56.8502C33.67 54.6719 32.8136 52.17 32.6062 49.5743C32.3095 46.9767 32.3243 44.353 32.6503 41.759C33.1345 38.3534 34.2413 35.066 35.9156 32.0611C38.1721 28.0083 41.2537 24.4739 44.9615 21.6866C47.7498 19.5544 50.7997 17.7881 54.0368 16.4307C58.0884 14.7479 62.3346 13.5785 66.6764 12.9496C69.9293 12.4937 73.0629 11.4115 75.9037 9.76269C76.394 9.48323 76.8058 8.97824 77.5511 9.01257C76.8156 11.9543 75.0212 14.0822 72.8394 15.9845C77.8649 15.2 82.199 13.0428 86.1508 9.87057C85.6605 12.979 83.5424 15.2147 81.8362 17.7152C82.9117 17.8183 83.997 17.732 85.0427 17.4603C86.704 17.0491 88.3409 16.545 89.9456 15.9502C90.2952 15.8045 90.6701 15.7295 91.0488 15.7295C91.4274 15.7295 91.8024 15.8045 92.1519 15.9502C93.8238 16.7346 95.5104 17.4897 97.1087 18.431C99.8091 19.9987 102.32 21.8725 104.591 24.0154C105.657 25.0663 106.653 26.1867 107.572 27.369C109.338 29.5519 110.781 31.9775 111.857 34.5714C112.874 36.9762 113.534 39.5165 113.818 42.1121C114.118 44.6442 114.077 47.2051 113.695 49.7262C113.085 53.3558 111.603 56.783 109.376 59.7135C108.434 60.9784 107.537 62.2875 106.218 63.2582C105.404 63.8175 104.663 64.4764 104.012 65.2194C103.306 66.0823 103.492 66.8619 104.551 67.2149C105.301 67.4831 106.089 67.6256 106.885 67.6366C108.611 67.6366 110.317 67.6366 112.068 67.6366C113.97 67.6464 115.853 67.715 117.809 67.3522L117.833 67.3473ZM120.442 135.625C119.239 135.111 118.226 134.236 117.544 133.12C116.743 131.818 116.051 130.452 115.475 129.036C113.514 124.51 111.935 119.833 110.2 115.219C109.658 113.557 109.003 111.933 108.238 110.36C107.439 108.89 106.41 107.634 104.659 107.301C102.894 106.939 101.057 107.215 99.4768 108.081C98.1481 108.801 97.5598 110.003 97.5157 111.552C97.447 114.15 98.3737 116.42 99.6436 118.583C101.271 121.353 103.301 123.868 104.86 126.687C105.753 128.305 106.62 129.928 107.449 131.59C108.361 133.412 109.063 135.331 109.542 137.312C110.749 137.135 111.764 136.454 113.004 136.503C100.84 142.18 90.6467 150.133 83.3365 161.645C84.2477 161.845 85.2009 161.687 85.9988 161.204C86.7295 160.749 87.407 160.215 88.0188 159.61C88.4212 159.172 88.9017 158.813 89.4357 158.551C89.519 160.159 89.7691 161.267 90.2202 162.032C90.3656 162.357 90.6311 162.613 90.961 162.746C91.291 162.88 91.6598 162.88 91.9902 162.748C92.8756 162.484 93.7191 162.096 94.4955 161.596C97.5674 159.785 100.446 157.664 103.085 155.266C103.768 154.592 104.583 154.067 105.478 153.722C107.87 152.925 110.109 151.73 112.102 150.187C112.877 149.68 113.599 149.096 114.254 148.441C112.293 148.765 110.572 149.368 108.572 149.608C108.801 149.296 109.094 149.036 109.43 148.843C111.523 147.446 113.617 146.058 115.701 144.642C116.401 144.272 116.999 143.734 117.441 143.077C115.896 143.028 114.349 143.061 112.808 143.176C115.215 140.641 117.623 138.116 120.417 135.63L120.442 135.625ZM28.8751 135.552C27.316 136.218 25.8206 136.434 24.2271 136.826C24.7812 137.018 25.2077 137.155 25.6146 137.317C27.0463 137.866 28.4828 138.4 29.2477 139.895C29.3752 140.146 29.5762 140.484 29.7968 140.528C30.6499 140.704 31.5177 140.964 32.3365 140.68C32.6846 140.136 32.0914 139.665 32.3904 139.072C33.827 140.856 35.3322 142.504 36.6707 144.367C34.8027 143.999 33.6799 142.268 31.7384 142.445C33.6419 145.167 35.9102 147.616 38.4799 149.721C37.3003 149.443 36.1508 149.051 35.0478 148.549C34.9995 148.646 34.9849 148.757 35.0062 148.863C35.0275 148.97 35.0835 149.066 35.1655 149.137C36.303 150.687 37.916 151.559 39.632 152.28C41.1765 152.937 42.8042 153.388 44.0201 154.697C45.5842 156.379 46.9962 158.198 48.6828 159.757C49.5702 160.576 50.4331 161.444 51.5706 161.929C52.4776 162.316 52.9091 162.106 53.2621 161.189C53.6506 160.037 53.7168 158.801 53.4533 157.615C53.3679 157.263 53.3679 156.897 53.4533 156.546C54.7036 157.492 55.8018 158.507 57.1158 159.125C58.4298 159.742 59.7535 160.355 61.3568 160.105C61.0773 159.615 60.8665 159.223 60.587 158.831C58.0176 154.76 54.905 151.058 51.3353 147.828C49.4834 146.18 47.5457 144.63 45.5302 143.185C42.0982 140.734 38.3082 138.871 34.533 137.013C34.2437 136.866 33.8613 136.816 33.6848 136.385C34.5281 136.385 35.2047 136.763 35.9205 136.973C37.1953 137.351 37.1855 137.38 37.5336 136.174C37.5826 135.988 37.6513 135.806 37.7052 135.625C38.6319 132.58 40.1567 129.81 41.7207 127.07C42.9831 124.858 44.361 122.714 45.8489 120.647C47.5331 118.431 48.6901 115.86 49.2319 113.131C49.5555 111.307 49.3153 109.63 47.7611 108.385C46.904 107.766 45.9 107.382 44.8487 107.272C43.1719 106.997 41.5148 107.115 40.1468 108.277C39.1895 109.134 38.4686 110.223 38.0533 111.439C36.1673 116.407 34.2993 121.381 32.4493 126.359C31.8509 128.185 30.7922 129.826 29.3752 131.124C28.4933 131.819 27.5459 132.427 26.5462 132.938C27.0688 134 27.8641 134.903 28.8506 135.556L28.8751 135.552ZM52.9336 141.71C52.6551 143.089 52.4619 144.484 52.3551 145.887C52.3108 146.226 52.3543 146.571 52.4813 146.889C52.6084 147.206 52.8147 147.486 53.0807 147.701C56.0597 150.364 58.8943 153.184 61.5725 156.149C61.8716 156.492 62.0628 156.953 62.509 157.183C63.2395 155.678 63.8181 154.148 64.7937 152.824C65.034 152.496 65.2497 152.231 65.7106 152.261C66.6372 152.319 67.559 152.167 68.4807 152.163C73.3101 152.123 78.1394 152.123 82.9639 152.099C83.2821 152.068 83.6016 152.142 83.8741 152.309C84.1466 152.476 84.3571 152.728 84.474 153.025C84.8116 153.838 85.2694 154.595 85.8321 155.271C88.5042 152.403 91.4459 149.946 94.2749 147.363C94.4121 147.24 94.5985 147.078 94.6083 146.921C94.7351 145.496 94.587 144.06 94.1719 142.69L93.1619 143.288C91.7842 144.097 90.4947 145.039 89.0778 145.794C88.7164 145.999 88.3093 146.11 87.8938 146.117C87.4784 146.124 87.0678 146.026 86.6999 145.833C86.3262 145.654 85.9629 145.454 85.6115 145.235C82.9394 143.543 80.2771 141.832 77.6001 140.15C76.3891 139.391 75.2859 138.459 73.967 137.822C70.1183 140.342 66.2352 142.724 62.5384 145.421C62.0252 145.855 61.3826 146.107 60.7111 146.137C60.0395 146.168 59.3769 145.974 58.8269 145.588C56.8167 144.426 54.9487 143.097 52.9091 141.714L52.9336 141.71ZM64.1318 121.814C60.5583 120.694 57.2881 118.772 54.5712 116.195C54.3849 116.548 54.2378 116.788 54.1152 117.048C52.5201 120.441 50.9398 123.85 49.3741 127.275C48.6534 128.835 47.9473 130.404 47.2168 131.958C47.0501 132.316 46.9766 132.615 47.3198 132.894C48.6681 134.002 50.0115 135.11 51.3696 136.209C51.5081 136.284 51.6567 136.338 51.8108 136.37C54.6545 130.526 58.4788 125.491 64.1073 121.819L64.1318 121.814ZM99.5847 137.547C98.1482 128.928 95.0201 121.573 92.7795 119.132C90.4212 120.701 87.8766 122.015 85.3908 123.476C87.352 125.878 89.5534 127.972 91.2498 130.487C92.9462 133.002 94.3828 135.645 95.9125 138.263C97.1606 138.241 98.3952 138 99.5602 137.552L99.5847 137.547ZM122.962 134.282C123.526 135.414 124.055 136.537 124.648 137.63C125.428 139.077 126.487 140.214 128.193 140.572C129.577 140.794 130.983 140.85 132.38 140.739C132.919 140.752 133.449 140.596 133.895 140.293C132.115 131.119 125.457 128.839 118.868 130.801C119.441 133.129 120.466 134.213 122.918 134.287L122.962 134.282ZM28.5809 128.687C27.7982 128.662 27.0147 128.696 26.2373 128.79C23.6423 129.326 21.1886 130.4 19.0349 131.943C17.1281 133.229 15.5875 134.988 14.5635 137.047C13.7741 138.66 14.0732 139.234 15.7451 139.846C17.6572 140.548 19.6674 140.616 21.6286 140.768C21.752 140.801 21.8811 140.807 22.0071 140.786C22.1331 140.765 22.2531 140.717 22.3591 140.646C22.4102 140.545 22.4408 140.435 22.4492 140.322C22.4576 140.209 22.4437 140.096 22.4081 139.989C22.1023 138.718 21.9834 137.41 22.0552 136.106C22.0278 135.87 22.0623 135.631 22.1551 135.413C22.2479 135.194 22.396 135.004 22.5846 134.86C23.6044 134.934 24.5752 135.316 25.644 135.164C25.5019 133.958 24.6635 132.933 25.0116 131.683C26.4334 131.051 27.8945 130.472 28.5809 128.687Z" fill="#49177E"/>
<path d="M35.347 85.1005C34.8567 80.6879 36.259 76.9469 39.1517 73.6914C41.6914 70.833 44.8684 68.8424 48.2269 67.1068C48.5505 66.9401 48.9771 66.9009 49.1536 66.4989C49.4389 66.5259 49.7262 66.5259 50.0116 66.4989C53.6492 65.753 57.3305 65.2388 61.0333 64.9593C64.1074 64.6848 67.1864 64.469 70.2704 64.4249C75.3025 64.2816 80.3382 64.5292 85.3321 65.1653C87.7541 65.4937 90.1712 65.8222 92.5786 66.2439C94.172 66.5283 95.7311 66.9842 97.3491 67.1068C97.8394 67.4941 98.467 67.499 99.0357 67.6706C101.745 68.4401 104.295 69.687 106.567 71.3527C112.2 75.6378 114.2 81.2909 112.769 88.1844C112.755 88.5289 112.66 88.8652 112.489 89.165C112.398 89.1587 112.307 89.173 112.222 89.207C112.137 89.241 112.061 89.2936 111.999 89.3611C110.048 90.9517 108.005 92.4252 105.88 93.7737C102.116 96.1343 98.1085 98.0821 93.9269 99.5836C88.6287 101.494 83.0812 102.623 77.458 102.937C73.4131 103.181 69.3543 103.051 65.3331 102.55C62.5284 102.208 59.7537 101.654 57.0325 100.893C51.1343 99.2908 45.7371 96.2228 41.3432 91.9743C39.638 90.2549 38.0646 88.4094 36.6365 86.4536C36.259 85.9584 36.0775 85.2525 35.347 85.1005ZM46.4276 85.7623C46.4619 85.983 46.6286 86.0712 46.81 86.1497C48.1877 86.7282 49.5507 87.3509 50.9578 87.8657C57.4836 90.2534 64.2888 90.9594 71.1676 91.2536C73.1778 91.3419 75.1782 91.082 77.1834 91.0379C78.5797 90.9921 79.9717 90.8578 81.3509 90.6358C83.6749 90.2975 85.994 89.9739 88.3032 89.5572C92.0642 88.935 95.7695 88.0136 99.3838 86.8018C100.07 86.5615 100.889 86.4733 101.345 85.7623C102.326 85.5172 102.742 85.071 102.644 84.414C102.546 83.7571 102.046 83.4335 101.041 83.404H46.6972C46.3785 83.3846 46.0586 83.4077 45.746 83.4727C45.5149 83.5383 45.3105 83.6757 45.1626 83.8651C45.0147 84.0545 44.9308 84.286 44.9232 84.5262C44.9156 84.7664 44.9845 85.0028 45.1201 85.2013C45.2557 85.3997 45.4509 85.5498 45.6774 85.63C45.9234 85.7021 46.1766 85.7466 46.4325 85.7623H46.4276ZM66.1715 72.2205C66.1715 73.6914 67.0835 74.8436 68.2406 74.873C69.3976 74.9024 70.3684 73.7159 70.4077 72.2892C70.4469 70.8624 69.4859 69.5877 68.3043 69.5681C67.1227 69.5485 66.1666 70.6908 66.1715 72.2205ZM80.0419 72.196C80.0419 70.7252 79.1299 69.5828 77.9679 69.5681C76.8059 69.5534 75.8401 70.6908 75.8106 72.1323C75.7812 73.5737 76.7226 74.8485 77.8993 74.873C79.076 74.8975 80.0468 73.6963 80.0419 72.196Z" fill="#D4C2E8"/>
<g filter="url(#filter0_b)">
<path d="M117.809 67.3521C115.848 67.7297 113.97 67.6463 112.097 67.6512C110.366 67.6512 108.665 67.6512 106.915 67.6512C106.119 67.6402 105.33 67.4977 104.581 67.2296C103.522 66.8765 103.336 66.097 104.042 65.2341C104.693 64.491 105.434 63.8322 106.248 63.2729C107.567 62.2923 108.464 60.9931 109.405 59.7281C111.632 56.7977 113.114 53.3705 113.725 49.7409C114.106 47.2198 114.148 44.6588 113.847 42.1267C113.564 39.5311 112.903 36.9908 111.886 34.586C110.811 31.9922 109.368 29.5665 107.601 27.3837C106.682 26.2013 105.687 25.081 104.62 24.0301C102.349 21.8872 99.8387 20.0133 97.1384 18.4457C95.54 17.5043 93.8534 16.7493 92.1815 15.9648C91.832 15.8192 91.457 15.7442 91.0784 15.7442C90.6997 15.7442 90.3248 15.8192 89.9752 15.9648C88.3705 16.5596 86.7336 17.0638 85.0723 17.4749C84.0266 17.7467 82.9413 17.833 81.8658 17.7299C83.572 15.2392 85.6949 13.0035 86.1803 9.88521C82.2286 13.0378 77.8944 15.2147 72.869 15.9991C75.0508 14.0968 76.8452 11.9788 77.5807 9.0272C76.8354 8.99288 76.4138 9.51751 75.9333 9.77736C73.0924 11.4261 69.9588 12.5084 66.706 12.9642C62.3641 13.5931 58.118 14.7625 54.0663 16.4453C50.8198 17.7959 47.76 19.5573 44.9617 21.6865C41.2524 24.4672 38.1675 27.9947 35.906 32.0414C34.2363 35.044 33.1327 38.328 32.6505 41.7296C32.3221 44.3333 32.3073 46.967 32.6063 49.5742C32.8138 52.1873 33.6791 54.7055 35.1215 56.8942C36.2933 58.6442 37.7308 60.2008 39.3821 61.5079C39.9791 61.9929 40.5276 62.5347 41.0197 63.1258C42.422 64.7536 42.0591 67.7787 40.3382 69.0632C40.0575 69.2809 39.7128 69.3998 39.3576 69.4015H31.1061C31.0136 69.3903 30.923 69.3672 30.8364 69.3329C30.681 69.0133 30.6361 68.6511 30.7089 68.3033C30.7089 65.8518 30.7383 63.4396 30.7089 61.0127C30.675 54.6944 29.2979 48.4556 26.6689 42.7101C26.1718 41.6081 25.6052 40.5387 24.9725 39.5085C24.7808 39.2222 24.6662 38.8914 24.6395 38.5479C24.6129 38.2044 24.6752 37.8598 24.8205 37.5474C28.0538 29.1441 33.3438 21.6863 40.2058 15.8569C43.6245 12.8861 47.4153 10.3727 51.4825 8.38002C56.0551 6.12438 60.9224 4.52344 65.9412 3.62423C67.7748 3.29083 69.6478 3.13392 71.5109 2.96232C73.8324 2.75662 76.166 2.72219 78.4926 2.85935C82.2631 3.05358 86.0022 3.64858 89.6467 4.63422C95.0032 6.06037 100.107 8.30627 104.777 11.2923C107.42 13.0033 109.92 14.9249 112.254 17.0386C116.71 21.0992 120.451 25.8809 123.32 31.1834C124.202 32.7769 124.913 34.4438 125.673 36.0863C125.891 36.4426 125.985 36.8611 125.94 37.2763C125.895 37.6915 125.713 38.08 125.423 38.3809C122.891 41.7135 120.974 45.4706 119.76 49.4761C118.805 52.4048 118.148 55.4223 117.799 58.4828C117.577 60.2806 117.453 62.0891 117.427 63.9005C117.485 65.0576 117.613 66.2102 117.809 67.3521Z" fill="url(#paint0_linear)" fill-opacity="0.8"/>
</g>
<path d="M97.349 67.0823C95.731 66.9598 94.1719 66.5038 92.5785 66.2194C90.1711 65.7978 87.754 65.4693 85.332 65.1408C80.3381 64.5047 75.3024 64.2572 70.2703 64.4004C67.1863 64.4691 64.1073 64.6603 61.0332 64.9349C57.3304 65.2143 53.6491 65.7285 50.0115 66.4744C49.7261 66.5014 49.4388 66.5014 49.1535 66.4744C46.9757 65.5962 44.9194 64.4428 43.0346 63.0423C40.1855 61.0978 37.7973 58.5523 36.0382 55.585C35.8519 55.2565 35.7048 54.9084 35.5479 54.5652C35.8274 54.3201 35.6312 54.0504 35.6067 53.7759C35.4253 51.8147 35.3126 49.8241 36.3128 47.9806C37.9699 44.9163 40.7793 43.4062 43.9515 42.5286C46.3869 41.9168 48.9039 41.6951 51.4088 41.8716C53.6025 41.9407 55.7884 42.1685 57.9493 42.5531C61.5039 43.2297 65.0634 43.8867 68.6474 44.3819C69.5877 44.544 70.5438 44.5951 71.496 44.5339C73.4964 44.3132 75.5115 44.5829 77.5069 44.2397C78.8797 44.0044 80.2869 43.9504 81.6695 43.7494C83.7483 43.4749 85.8223 43.166 87.8913 42.862C90.279 42.509 92.6667 42.1707 95.0446 41.7784C97.0741 41.3917 99.1507 41.3173 101.203 41.5578C103.919 41.94 106.387 43.3426 108.106 45.4802C109.425 46.9696 110.165 48.8838 110.19 50.8733C110.19 52.0648 109.758 53.1875 109.797 54.3691C109.567 54.4672 109.616 54.678 109.596 54.8594C108.984 56.5311 108.075 58.0789 106.915 59.4289C104.369 62.6937 101.093 65.3152 97.349 67.0823ZM73.6827 47.5051C66.4607 47.5051 59.2338 47.4609 52.0119 47.5051C50.9207 47.5298 49.8518 47.8185 48.8966 48.3464C47.9414 48.8744 47.1283 49.6259 46.5269 50.5367C45.9255 51.4474 45.5537 52.4903 45.4433 53.5761C45.3329 54.662 45.4872 55.7584 45.893 56.7715C46.9913 59.5024 49.428 61.0763 52.6247 61.0812H94.7259C95.3333 61.0774 95.939 61.0166 96.5351 60.8998C97.5068 60.6986 98.4225 60.2863 99.2173 59.6921C100.012 59.0979 100.667 58.3362 101.134 57.461C101.602 56.5858 101.872 55.6185 101.924 54.6275C101.977 53.6365 101.811 52.6462 101.438 51.7264C100.242 48.9514 98.0648 47.5099 95.0642 47.4903C87.9403 47.4756 80.8115 47.5051 73.6827 47.5051Z" fill="#C3A8E0"/>
<g filter="url(#filter1_b)">
<path d="M120.417 135.63C117.622 138.116 115.215 140.641 112.769 143.171C114.31 143.056 115.857 143.024 117.402 143.073C116.96 143.73 116.362 144.267 115.661 144.637C113.578 146.054 111.484 147.441 109.391 148.839C109.054 149.031 108.762 149.292 108.533 149.603C110.533 149.363 112.254 148.76 114.215 148.437C113.559 149.091 112.838 149.676 112.063 150.182C110.07 151.725 107.83 152.921 105.439 153.717C104.544 154.062 103.729 154.588 103.046 155.261C100.414 157.658 97.5441 159.778 94.4808 161.591C93.7044 162.092 92.8609 162.48 91.9754 162.743C91.6451 162.876 91.2763 162.875 90.9464 162.742C90.6164 162.608 90.3509 162.352 90.2055 162.027C89.7544 161.262 89.5044 160.154 89.421 158.546C88.8871 158.808 88.4065 159.167 88.0041 159.605C87.3924 160.21 86.7148 160.745 85.9841 161.199C85.1862 161.682 84.2329 161.84 83.3218 161.64C90.632 150.128 100.825 142.175 112.989 136.498C111.749 136.449 110.734 137.13 109.528 137.307C109.049 135.327 108.346 133.407 107.434 131.585C106.606 129.933 105.738 128.31 104.846 126.682C103.286 123.863 101.257 121.348 99.6288 118.578C98.359 116.416 97.4323 114.165 97.501 111.547C97.5402 109.998 98.1286 108.797 99.4622 108.076C101.043 107.21 102.879 106.934 104.644 107.296C106.395 107.63 107.424 108.89 108.224 110.356C108.988 111.928 109.643 113.552 110.185 115.214C111.92 119.828 113.494 124.53 115.46 129.031C116.036 130.447 116.728 131.813 117.529 133.115C118.207 134.233 119.217 135.112 120.417 135.63Z" fill="url(#paint1_linear)" fill-opacity="0.8"/>
</g>
<g filter="url(#filter2_b)">
<path d="M28.8506 135.557C27.8532 134.907 27.0475 134.004 26.5168 132.938C27.5164 132.427 28.4639 131.82 29.3458 131.124C30.7627 129.826 31.8214 128.185 32.4199 126.359C34.2797 121.381 36.1477 116.408 38.0239 111.439C38.4391 110.223 39.1601 109.134 40.1174 108.277C41.4853 107.115 43.1425 106.997 44.8193 107.272C45.8705 107.382 46.8745 107.766 47.7316 108.385C49.3055 109.63 49.5457 111.326 49.2025 113.131C48.6607 115.861 47.5037 118.431 45.8195 120.647C44.3316 122.714 42.9536 124.858 41.6913 127.07C40.1321 129.81 38.6024 132.581 37.6758 135.625C37.6218 135.807 37.5532 135.988 37.5042 136.174C37.1561 137.381 37.1659 137.351 35.8911 136.974C35.1753 136.763 34.4987 136.361 33.6554 136.385C33.8319 136.817 34.2143 136.876 34.5036 137.013C38.2788 138.871 42.0541 140.739 45.5008 143.186C47.5263 144.629 49.4738 146.179 51.3353 147.829C54.9029 151.057 58.0138 154.757 60.5821 158.826C60.8371 159.218 61.0724 159.63 61.3519 160.101C59.7486 160.355 58.4102 159.757 57.1109 159.12C55.8116 158.483 54.6986 157.487 53.4484 156.541C53.363 156.892 53.363 157.259 53.4484 157.61C53.7119 158.796 53.6457 160.032 53.2572 161.184C52.9042 162.101 52.4727 162.312 51.5657 161.924C50.4282 161.434 49.5653 160.571 48.6779 159.752C46.9913 158.193 45.5793 156.374 44.0152 154.693C42.7993 153.384 41.1715 152.932 39.6271 152.276C37.9111 151.555 36.2981 150.682 35.1606 149.133C35.0786 149.062 35.0225 148.965 35.0012 148.859C34.9799 148.752 34.9946 148.642 35.0429 148.544C36.1459 149.046 37.2954 149.439 38.475 149.716C35.9022 147.613 33.6305 145.167 31.7236 142.445C33.6848 142.269 34.788 143.999 36.656 144.367C35.2979 142.489 33.8123 140.857 32.3757 139.072C32.0767 139.665 32.6699 140.136 32.3218 140.68C31.503 140.965 30.6352 140.68 29.7821 140.528C29.5615 140.484 29.3604 140.146 29.233 139.896C28.4681 138.4 27.0316 137.866 25.5999 137.317C25.1881 137.16 24.7664 137.023 24.2124 136.826C25.796 136.439 27.311 136.223 28.8506 135.557Z" fill="url(#paint2_linear)" fill-opacity="0.8"/>
</g>
<path d="M35.3469 85.1008C36.0774 85.2528 36.2588 85.9588 36.6216 86.4393C38.0498 88.3951 39.6231 90.2405 41.3284 91.96C45.7223 96.2085 51.1195 99.2764 57.0177 100.878C59.7439 101.637 62.5236 102.187 65.333 102.526C69.3542 103.027 73.413 103.157 77.4579 102.913C83.081 102.599 88.6286 101.469 93.9267 99.5595C98.0997 98.0579 102.099 96.1117 105.855 93.7544C107.981 92.4059 110.024 90.9325 111.974 89.3418C112.036 89.2744 112.112 89.2217 112.197 89.1878C112.282 89.1538 112.373 89.1394 112.465 89.1457C112.264 90.3375 111.891 91.4936 111.357 92.5778C110.194 95.3106 108.694 97.8868 106.89 100.246C105.943 101.373 104.83 102.35 103.59 103.144C98.8688 106.507 93.559 108.468 87.9354 109.664C83.0034 110.701 77.9647 111.142 72.9276 110.978C65.235 110.753 57.7286 109.586 50.7077 106.213C47.6188 104.746 44.7784 102.806 42.2894 100.462C38.7005 97.0688 36.7148 92.8376 35.6803 88.0965C35.4891 87.1257 35.1802 86.1402 35.3469 85.1008Z" fill="#C3A8E0"/>
<path d="M109.788 54.423C109.748 53.2414 110.195 52.1186 110.18 50.9272C110.155 48.9377 109.415 47.0235 108.096 45.5341C106.377 43.3965 103.909 41.9939 101.193 41.6117C99.1409 41.3712 97.0642 41.4456 95.0348 41.8324C92.6569 42.2246 90.2692 42.5629 87.8815 42.9159C85.8124 43.2199 83.7385 43.5288 81.6597 43.8033C80.277 43.9847 78.8699 44.0387 77.4971 44.2936C75.5016 44.6368 73.4865 44.3672 71.4861 44.5878C70.5339 44.649 69.5778 44.598 68.6376 44.4358C65.0535 43.9455 61.494 43.2836 57.9394 42.607C55.7785 42.2224 53.5927 41.9947 51.399 41.9255C48.8941 41.749 46.3771 41.9707 43.9416 42.5825C40.7695 43.4601 37.9601 44.9702 36.3029 48.0345C35.3224 49.878 35.4155 51.849 35.5969 53.8298C35.6214 54.1043 35.8176 54.374 35.5381 54.6191C33.8715 51.3956 33.3548 47.6998 34.0733 44.1428C34.7918 40.5858 36.7026 37.3804 39.4898 35.0566C42.4071 32.5365 45.8047 31.8697 49.5211 32.4678C53.3993 33.0856 56.8755 34.7722 60.2242 36.7088C62.2 37.8224 64.1164 39.0384 65.9655 40.3517C70.1035 43.3572 74.4916 43.3621 79.0709 41.6607C80.9765 40.9149 82.7496 39.867 84.322 38.5572C87.146 36.2921 90.0632 34.174 93.4756 32.86C96.8881 31.5461 100.34 31.2323 103.693 32.9042C107.719 34.8948 110.067 38.2434 111.077 42.5286C111.965 46.4553 111.574 50.5633 109.959 54.2514C109.911 54.3173 109.853 54.3752 109.788 54.423Z" fill="#D4C2E8"/>
<path d="M119.608 68.7887C118.017 58.1506 120.644 47.3115 126.928 38.582C127.07 38.2999 127.291 38.0661 127.566 37.9103C132.461 39.1644 136.852 41.8947 140.142 45.7304C140.107 46.0456 140.138 46.3647 140.235 46.6669C140.443 47.529 140.584 48.406 140.657 49.2899C140.852 51.676 140.597 54.0775 139.906 56.3697C138.887 59.6805 136.836 62.5786 134.052 64.6409C131.375 66.602 128.311 67.5826 125.1 68.2347C123.281 68.5975 121.447 68.5191 119.608 68.7887ZM134.856 48.4564C134.989 47.7685 134.928 47.0572 134.68 46.4021C133.778 44.3723 132.13 43.1858 130.169 42.3768C129.911 42.2819 129.63 42.2647 129.361 42.3274C129.093 42.3902 128.849 42.53 128.659 42.7298C127.716 43.4989 126.969 44.48 126.477 45.5931C126.157 46.1759 126.056 46.8544 126.193 47.5053C127.664 47.5053 129.135 47.4464 130.606 47.5053C132.076 47.5641 133.327 48.4662 134.856 48.4564Z" fill="#C3A8E0"/>
<path d="M7.87597 45.7842C11.203 41.8919 15.6577 39.13 20.6235 37.8807C22.8804 40.8715 24.7165 44.1576 26.0804 47.6473C28.4409 53.7786 29.3244 60.3795 28.6594 66.9157C28.6545 67.5551 28.5756 68.1919 28.424 68.8131C28.0219 68.724 27.6139 68.6633 27.2032 68.6317C24.3408 68.5853 21.5053 68.0703 18.8094 67.1069C14.0389 65.435 10.5628 62.3707 8.65554 57.659C7.55754 55.0077 7.13955 52.1241 7.4396 49.2702C7.55237 48.1033 7.94951 46.9707 7.87597 45.7842ZM13.6614 55.0507C13.9349 54.9318 14.1974 54.789 14.4459 54.6241C16.2391 53.0542 18.1743 51.6541 20.2264 50.442C21.8443 49.53 21.7463 46.9364 20.7559 45.848C20.1318 45.1709 19.3736 44.6311 18.5295 44.2631C17.6853 43.895 16.7738 43.7068 15.853 43.7103C15.1204 43.662 14.3899 43.8326 13.7545 44.2006C13.329 44.4836 12.9656 44.8505 12.6866 45.2787C12.4075 45.707 12.2187 46.1876 12.1317 46.6912C11.4061 49.6428 12.3327 52.3198 13.6614 55.0507Z" fill="#C3A8E0"/>
<path d="M7.87607 45.7843C7.94961 46.9708 7.55249 48.1034 7.42992 49.2703C7.12986 52.1242 7.54783 55.0078 8.64583 57.6591C10.5531 62.3708 14.039 65.4351 18.7997 67.107C21.4956 68.0703 24.3311 68.5854 27.1935 68.6318C27.6042 68.6634 28.0122 68.724 28.4143 68.8132C28.2819 71.5294 27.5563 74.1329 26.8209 76.7265C26.2785 78.6552 25.5868 80.5387 24.7519 82.3599C24.6453 82.6749 24.4788 82.9662 24.2616 83.2179C23.2124 83.2621 22.2269 82.8551 21.2365 82.5561C16.4709 81.0852 11.9945 79.0652 8.24869 75.692C4.91472 72.6963 2.74273 69.0633 2.29656 64.4987C1.6739 58.1739 2.98787 52.3542 6.70918 47.1424C6.99865 46.6129 7.39621 46.1502 7.87607 45.7843Z" fill="#D4C2E8"/>
<path d="M119.608 68.7889C121.432 68.5193 123.281 68.5977 125.1 68.2349C128.311 67.5926 131.375 66.6121 134.052 64.6411C136.836 62.5788 138.887 59.6807 139.906 56.3699C140.597 54.0777 140.852 51.6762 140.656 49.2901C140.584 48.4062 140.443 47.5292 140.235 46.6671C140.138 46.3649 140.106 46.0458 140.142 45.7306C142.338 47.9957 143.691 50.7512 144.701 53.6978C145.805 57.1391 146.184 60.7716 145.814 64.3665C145.495 68.0214 143.938 71.458 141.402 74.1086C138.254 77.5651 134.297 79.7714 130.012 81.4629C128.296 82.1298 126.537 82.6802 124.747 83.1103C124.423 83.1779 124.095 83.2287 123.766 83.2623C123.033 81.8158 122.411 80.3162 121.903 78.7762C120.85 75.6793 120.077 72.4944 119.594 69.2596C119.582 69.1027 119.587 68.9449 119.608 68.7889Z" fill="#D4C2E8"/>
<path d="M52.9091 141.715C54.9487 143.097 56.8314 144.426 58.7926 145.593C59.3426 145.979 60.0052 146.173 60.6768 146.142C61.3483 146.112 61.991 145.86 62.5041 145.426C66.2009 142.749 70.084 140.347 73.9328 137.827C75.2516 138.464 76.3548 139.395 77.5658 140.155C80.2428 141.837 82.905 143.548 85.5771 145.24C85.9285 145.459 86.292 145.659 86.6656 145.838C87.0335 146.031 87.4441 146.129 87.8596 146.122C88.275 146.115 88.6821 146.004 89.0435 145.799C90.4604 145.044 91.7499 144.102 93.1276 143.293L94.1376 142.695C94.5527 144.065 94.7008 145.501 94.5739 146.926C94.5739 147.083 94.3779 147.245 94.2406 147.368C91.4116 149.951 88.4699 152.408 85.7978 155.276C85.2351 154.6 84.7773 153.843 84.4397 153.03C84.3229 152.733 84.1123 152.481 83.8398 152.314C83.5673 152.147 83.2478 152.073 82.9295 152.104C78.1051 152.104 73.2758 152.104 68.4464 152.168C67.5247 152.168 66.6029 152.324 65.6763 152.266C65.2154 152.236 64.9997 152.501 64.7594 152.829C63.7788 154.153 63.2052 155.683 62.4747 157.188C62.0285 156.958 61.8373 156.497 61.5382 156.154C58.86 153.189 56.0253 150.369 53.0464 147.706C52.7804 147.491 52.5741 147.211 52.447 146.893C52.32 146.576 52.2765 146.231 52.3208 145.892C52.4308 144.489 52.6273 143.094 52.9091 141.715Z" fill="#C3A8E0"/>
<path d="M84.6751 156.546C84.1113 157.355 83.5328 158.154 82.9885 158.997C81.2705 161.609 80.2478 164.617 80.0174 167.734C79.7905 169.408 79.671 171.095 79.6595 172.784C79.6987 173.892 79.8359 175 79.934 176.123C78.0464 177.05 70.8783 177.202 67.9317 176.349C68.0454 174.995 68.0585 173.635 67.9709 172.279C67.7846 167.568 66.7354 163.155 63.9162 159.277C63.8336 159.143 63.7662 159 63.7152 158.85C64.3918 157.497 65.0635 156.139 65.7352 154.805C71.452 154.805 77.0609 154.805 82.6649 154.805C82.8522 154.802 83.0368 154.849 83.1998 154.941C83.3627 155.034 83.498 155.168 83.5916 155.33C83.9152 155.742 84.0377 156.384 84.6751 156.546Z" fill="#C3A8E0"/>
<path d="M59.3074 176.285C59.2972 177.971 58.9487 179.639 58.2827 181.188C57.2139 183.639 55.4979 184.698 52.7915 184.507C54.9586 181.972 55.0664 178.933 54.8213 175.844C54.7647 174.819 54.4493 173.826 53.9044 172.956C53.7034 172.657 53.4632 172.382 53.0562 172.466C52.6493 172.549 52.463 172.858 52.3846 173.279C52.3314 173.916 52.1406 174.533 51.8256 175.089C51.4628 175.113 51.3059 174.888 51.1196 174.721C49.0113 172.838 47.5895 170.485 46.4128 167.94C46.0647 167.185 46.0108 166.259 45.2606 165.709C45.651 164.303 45.7871 162.839 45.6627 161.385C46.0599 161.523 46.4158 161.759 46.6972 162.071C48.0136 163.187 49.4748 164.118 51.0412 164.842C53.9045 166.053 55.5028 165.003 55.5665 161.9C55.5665 161.728 55.4292 161.532 55.6744 161.341C56.2186 161.831 56.7579 162.39 57.3218 162.895C58.1285 163.671 59.0685 164.296 60.0968 164.739C61.9256 165.469 63.0729 164.802 63.3768 162.856C63.4063 162.67 63.4406 162.483 63.4847 162.238C63.8573 162.385 63.975 162.694 64.1221 162.939C65.7119 165.465 66.6097 168.365 66.7255 171.348C66.8358 173.197 66.8063 175.053 66.6373 176.898C66.3578 179.898 64.4947 182.031 61.2441 182.124C61.7997 180.503 61.9954 178.779 61.8177 177.074C61.6592 175.653 61.2838 174.264 60.7048 172.956C60.4704 172.536 60.1555 172.166 59.7781 171.867C59.6824 171.757 59.5509 171.684 59.4066 171.66C59.2623 171.637 59.1144 171.665 58.9887 171.74C58.675 171.921 58.7583 172.196 58.8318 172.495C59.1383 173.735 59.2979 175.007 59.3074 176.285Z" fill="#D4C2E8"/>
<path d="M54.1055 138.072C56.6305 131.747 60.4792 126.56 66.7206 123.427C68.3296 122.65 70.065 122.168 71.8442 122.005C72.2638 121.98 72.6845 121.98 73.1042 122.005C73.1702 122.092 73.2173 122.192 73.2426 122.298C73.2679 122.405 73.2709 122.515 73.2513 122.623C73.2513 125.819 73.2513 129.014 73.2513 132.208C73.2372 132.43 73.211 132.651 73.1728 132.87C72.9183 132.887 72.6723 132.968 72.457 133.105C71.0793 134.179 69.579 135.066 68.1572 136.086C65.8724 137.699 63.6269 139.361 61.3765 141.013C61.203 141.178 60.986 141.289 60.7513 141.333C60.5166 141.377 60.2741 141.353 60.0527 141.263C57.9734 140.391 55.982 139.322 54.1055 138.072Z" fill="#D4C2E8"/>
<path d="M74.5949 132.674C74.5949 131.364 74.541 130.055 74.5655 128.751C74.5998 126.834 74.6047 124.917 74.5655 122.995C74.5 122.664 74.543 122.32 74.688 122.015C76.458 122.1 78.1961 122.517 79.8116 123.245C83.8172 125.015 86.8571 127.923 89.3477 131.448C91.1035 133.881 92.453 136.584 93.3436 139.449C91.4609 140.023 89.6566 140.822 87.8278 141.548C87.6187 141.652 87.3842 141.695 87.1517 141.672C86.9191 141.648 86.6979 141.56 86.5138 141.415C85.2979 140.553 84.0706 139.704 82.8318 138.871C79.979 136.951 77.2295 134.883 74.5949 132.674Z" fill="#D4C2E8"/>
<path d="M45.2802 165.724C46.0303 166.273 46.0843 167.195 46.4324 167.955C47.6091 170.499 49.0309 172.858 51.1391 174.735C51.3255 174.902 51.4824 175.128 51.8452 175.103C52.1568 174.539 52.3409 173.913 52.3845 173.269C52.463 172.848 52.6149 172.534 53.0562 172.456C53.4975 172.377 53.7034 172.661 53.9044 172.946C54.4492 173.815 54.7646 174.809 54.8212 175.834C55.0664 178.922 54.9585 181.962 52.7914 184.497C52.4309 184.522 52.0691 184.475 51.7272 184.358C51.3853 184.241 51.0703 184.056 50.8008 183.816C52.0413 181.756 52.1737 179.506 51.9972 176.981C51.6709 177.82 51.4183 178.687 51.2421 179.57C50.9165 180.807 50.2803 181.941 49.3937 182.864C48.7715 183.537 47.962 184.007 47.0697 184.215C46.1774 184.423 45.2433 184.359 44.3879 184.031C42.6209 183.453 41.0344 182.426 39.784 181.05C39.084 180.302 38.5889 179.386 38.3467 178.391C38.1045 177.395 38.1233 176.354 38.4014 175.368C38.4793 174.963 38.6606 174.585 38.9278 174.27C39.1949 173.956 39.5389 173.716 39.9262 173.573C40.4165 174.265 40.6126 175.123 41.147 175.79C41.6492 176.477 42.3264 177.017 43.1082 177.354C42.2701 175.603 41.771 173.71 41.6373 171.774C41.5295 170.23 41.2843 168.666 41.7256 167.013C43.3043 167.616 44.4712 167.116 45.2802 165.724Z" fill="#C3A8E0"/>
<path d="M87.5189 165.337C88.5976 166.67 90.0488 166.68 91.5344 166.391C93.4918 165.944 95.3308 165.083 96.9276 163.866C97.261 163.63 97.5846 163.375 97.9964 163.067C98.3347 165.621 98.5504 168.19 101.316 169.372C101.386 170.482 101.318 171.597 101.115 172.691C100.624 174.814 99.3839 175.701 96.8589 175.397C96.4127 175.386 95.9803 175.24 95.6194 174.977C95.2586 174.714 94.9863 174.348 94.8389 173.926C94.7752 173.745 94.6576 173.578 94.383 173.672C94.1084 173.868 94.2555 174.162 94.2114 174.446C94.0888 175.28 94.4516 176.079 94.3928 176.898C94.0496 176.898 94.0643 177.143 94.079 177.358C94.079 177.77 94.1526 178.177 94.1869 178.589C92.1816 178.55 89.9164 176.697 89.5683 175.128C89.4195 174.54 89.2294 173.963 88.9996 173.402C88.8574 173.024 88.7251 172.612 88.2544 172.5C87.4801 173.429 87.011 174.574 86.911 175.78C86.053 176.236 86.2491 177.089 86.1412 177.824C85.92 177.831 85.6997 177.791 85.4951 177.707C85.2905 177.622 85.1063 177.495 84.9547 177.334C84.1035 176.598 83.5192 175.602 83.2927 174.5C82.6727 172.031 82.5345 169.466 82.8857 166.945C82.969 166.366 83.3073 166.312 83.7584 166.332C84.7778 166.355 85.7875 166.13 86.7001 165.675C86.9388 165.492 87.2211 165.376 87.5189 165.337Z" fill="#D4C2E8"/>
<g filter="url(#filter3_b)">
<path d="M64.1074 121.819C58.4788 125.491 54.6546 130.526 51.7913 136.37C51.6371 136.338 51.4885 136.284 51.35 136.209C49.9919 135.11 48.6485 134.002 47.3002 132.894C46.957 132.615 47.0306 132.316 47.1973 131.958C47.9278 130.404 48.6338 128.835 49.3545 127.275C50.9267 123.863 52.5055 120.456 54.0907 117.053C54.2133 116.793 54.3604 116.563 54.5467 116.2C57.2636 118.777 60.5338 120.699 64.1074 121.819Z" fill="url(#paint3_linear)" fill-opacity="0.8"/>
</g>
<g filter="url(#filter4_b)">
<path d="M99.5603 137.552C98.3879 138.005 97.1447 138.247 95.8881 138.268C94.3584 135.65 92.9169 132.997 91.2254 130.492C89.5339 127.986 87.3521 125.883 85.3665 123.481C87.8718 122.01 90.3968 120.706 92.7551 119.137C94.9957 121.578 98.1238 128.933 99.5603 137.552Z" fill="url(#paint4_linear)" fill-opacity="0.8"/>
</g>
<path d="M94.4122 176.883C94.471 176.054 94.1082 175.255 94.2308 174.432C94.2749 174.162 94.1278 173.853 94.4024 173.657C94.6769 173.564 94.7946 173.731 94.8584 173.912C95.0057 174.333 95.2779 174.7 95.6388 174.963C95.9997 175.225 96.4321 175.372 96.8784 175.383C99.4034 175.687 100.658 174.799 101.134 172.676C101.338 171.583 101.405 170.468 101.335 169.357C102.752 169.475 104.14 169.421 105.439 168.475C105.929 170.225 105.787 171.867 105.655 173.495C105.61 173.985 105.552 174.51 105.507 175.015C105.38 176.584 104.478 177.702 103.453 178.766C103.427 178.774 103.403 178.786 103.38 178.8C103.38 178.8 103.38 178.834 103.38 178.849L103.448 178.751C104.586 178.834 105.14 177.991 105.738 177.28C106.336 176.569 106.606 175.53 106.915 174.574C107.279 174.486 107.663 174.533 107.995 174.706C108.328 174.879 108.586 175.167 108.724 175.515C109.235 176.447 109.4 177.53 109.189 178.572C108.978 179.614 108.405 180.547 107.572 181.207C104.512 183.546 101.845 183.625 98.1678 181.595C96.4144 180.593 95.0991 178.972 94.4808 177.05L94.5446 176.981L94.422 176.878L94.4122 176.883Z" fill="#C3A8E0"/>
<path d="M12.0729 174.726C12.6866 173.462 13.472 172.289 14.4067 171.24C15.8285 169.578 17.7063 169.176 19.7655 169.279C21.8247 169.382 23.7418 170.142 25.649 170.808C27.1493 171.328 28.6251 171.946 30.1695 172.348C30.3509 172.392 30.5372 172.417 30.699 172.441C31.0814 172.157 30.9883 171.632 31.405 171.348L33.3662 172.417C33.0671 173.152 32.7092 173.887 32.4837 174.623C32.1012 175.888 31.9934 175.996 30.6745 176.064C30.4195 176.064 30.1842 176.064 29.9047 176.064C26.0805 176.123 22.266 175.937 18.4516 175.682C16.7723 175.602 15.0992 175.423 13.4408 175.147C12.9897 175.089 12.4357 175.216 12.0729 174.726Z" fill="#D4C2E8"/>
<path d="M12.0729 174.726C12.4357 175.216 12.9898 175.079 13.4752 175.167C15.1336 175.443 16.8067 175.621 18.4859 175.701C22.3004 175.956 26.1148 176.143 29.9391 176.084C30.194 176.084 30.4294 176.084 30.7089 176.084C32.0522 176.015 32.1356 175.907 32.518 174.642C32.7436 173.887 33.1015 173.171 33.4005 172.436C34.6949 172.858 35.8961 173.51 37.3229 173.858C36.3423 175.491 36.6266 177.197 36.6757 178.918H10.5726C10.7871 177.434 11.2973 176.009 12.0729 174.726Z" fill="#C3A8E0"/>
<g filter="url(#filter5_b)">
<path d="M122.918 134.287C120.466 134.213 119.422 133.13 118.824 130.811C125.413 128.849 132.062 131.129 133.851 140.303C133.405 140.606 132.875 140.762 132.336 140.749C130.939 140.86 129.533 140.804 128.149 140.582C126.443 140.219 125.384 139.082 124.604 137.64C124.031 136.542 123.501 135.419 122.918 134.287Z" fill="url(#paint5_linear)" fill-opacity="0.8"/>
</g>
<path d="M144.275 73.7897C144.36 73.5125 144.537 73.2724 144.777 73.1093C145.016 72.9462 145.305 72.8697 145.594 72.8925C148.985 72.8479 152.348 73.5248 155.458 74.8782C155.699 75.0067 155.907 75.1883 156.066 75.4091C156.226 75.63 156.333 75.8844 156.38 76.1529C156.749 77.1273 156.894 78.1723 156.804 79.2103C156.714 80.2483 156.391 81.2527 155.86 82.1492C155.556 82.8136 155.165 83.4351 154.698 83.9976C152.531 82.98 150.276 82.1595 147.962 81.5461C148.104 79.69 147.688 77.8337 146.765 76.2167C146.212 75.1655 145.34 74.3161 144.275 73.7897Z" fill="#D4C2E8"/>
<path d="M113.602 173.573C114.55 173.353 115.514 173.215 116.485 173.162C116.873 173.402 116.912 173.843 117.23 174.142C118.141 174.09 119.035 173.875 119.868 173.505C121.589 172.833 123.3 172.112 125.002 171.421C125.889 171.065 126.811 170.801 127.752 170.632C128.723 170.417 129.733 170.445 130.69 170.714C131.648 170.982 132.525 171.483 133.243 172.171C134.147 172.984 134.872 173.975 135.371 175.084C135.111 175.422 134.704 175.432 134.346 175.52C130.914 176.363 127.433 176.447 123.952 176.652C122.075 176.76 120.197 176.486 118.319 176.427C117.208 176.42 116.101 176.314 115.009 176.108C114.696 176.04 114.46 175.966 114.401 175.618C114.274 174.878 113.823 174.27 113.602 173.573Z" fill="#D4C2E8"/>
<path d="M113.602 173.574C113.823 174.27 114.274 174.878 114.401 175.613C114.46 175.957 114.696 176.03 115.009 176.104C116.101 176.309 117.208 176.416 118.319 176.422C120.197 176.481 122.074 176.756 123.952 176.648C127.433 176.442 130.934 176.359 134.346 175.515C134.704 175.427 135.111 175.417 135.371 175.079C136.097 176.305 136.551 177.673 136.705 179.089H110.719C111.136 177.261 110.896 175.604 109.283 174.133C110.832 173.922 112.19 173.584 113.602 173.574Z" fill="#C3A8E0"/>
<g filter="url(#filter6_b)">
<path d="M28.5809 128.687C27.8945 130.462 26.4334 131.05 25.0214 131.683C24.6733 132.933 25.5116 133.958 25.6538 135.164C24.585 135.316 23.6142 134.934 22.5944 134.86C22.4057 135.004 22.2577 135.194 22.1649 135.413C22.072 135.631 22.0376 135.87 22.0649 136.105C21.9932 137.41 22.1121 138.718 22.4179 139.988C22.4534 140.096 22.4674 140.209 22.459 140.322C22.4506 140.435 22.4199 140.545 22.3689 140.645C22.2629 140.717 22.1429 140.765 22.0169 140.786C21.8909 140.807 21.7618 140.801 21.6383 140.768C19.6478 140.616 17.6474 140.547 15.7549 139.846C14.0879 139.233 13.7937 138.66 14.5733 137.047C15.5945 134.988 17.1317 133.23 19.0349 131.943C21.1894 130.403 23.643 129.332 26.2373 128.8C27.0144 128.703 27.7979 128.665 28.5809 128.687Z" fill="url(#paint6_linear)" fill-opacity="0.8"/>
</g>
<path d="M86.9305 175.765C87.0305 174.56 87.4996 173.414 88.2739 172.485C88.7642 172.598 88.877 173.01 89.0192 173.387C89.249 173.948 89.4391 174.525 89.5879 175.113C89.936 176.682 92.2011 178.545 94.2064 178.574C94.6673 180.403 95.9862 181.683 97.2757 183.139C96.2099 183.57 95.0661 183.773 93.9172 183.737C90.9754 183.595 88.7691 182.217 87.4993 179.511C86.9502 178.334 86.9305 177.05 86.9305 175.765Z" fill="#C3A8E0"/>
<path d="M144.275 73.7896C145.339 74.3146 146.211 75.1622 146.765 76.2116C147.688 77.8286 148.104 79.6849 147.962 81.541C150.276 82.1544 152.531 82.9749 154.698 83.9925C153.821 85.5565 152.497 86.7038 151.129 87.8069C150.966 87.9391 150.767 88.0191 150.558 88.0366C150.349 88.0541 150.14 88.0082 149.957 87.905C149.443 87.6606 148.951 87.3719 148.486 87.0421C147.445 86.2949 146.307 85.6929 145.103 85.2525C146.373 83.5316 146.628 81.5999 146.466 79.5946C146.391 78.605 146.109 77.6422 145.638 76.7682C145.168 75.8942 144.52 75.1284 143.735 74.5201C143.771 74.3682 143.838 74.2252 143.931 74.0997C144.023 73.9741 144.14 73.8687 144.275 73.7896Z" fill="#C3A8E0"/>
<path d="M164.337 85.7381C164.043 87.2433 162.916 88.0915 161.788 88.9299C160.077 90.1949 158.15 90.3371 156.135 89.9742C155.029 89.8177 153.944 89.5331 152.904 89.126C156.674 85.9146 159.508 82.262 158.89 76.8688C159.345 76.9663 159.758 77.2027 160.072 77.5454C160.066 77.797 160.087 78.0486 160.136 78.2955C160.793 80.4675 160.219 82.4091 159.047 84.2428C158.787 84.5118 158.616 84.854 158.557 85.2233C159.895 85.7136 161.205 86.3118 162.739 85.9146C163.246 85.7112 163.799 85.6502 164.337 85.7381Z" fill="#C3A8E0"/>
<path d="M54.1054 138.072C55.9806 139.32 57.9703 140.387 60.0477 141.259C60.2691 141.348 60.5117 141.372 60.7464 141.328C60.9811 141.284 61.1981 141.173 61.3715 141.009C63.6219 139.356 65.8675 137.694 68.1522 136.081C69.5741 135.101 71.094 134.174 72.4521 133.1C72.6673 132.963 72.9134 132.882 73.1679 132.865C73.3885 133.777 73.2218 134.703 73.2708 135.63C68.9759 138.253 64.7594 140.955 60.5969 143.906C58.1454 142.656 55.8901 141.009 53.5269 139.533C53.6357 139.017 53.8314 138.523 54.1054 138.072Z" fill="#C3A8E0"/>
<path d="M74.5948 132.674C77.2235 134.876 79.9664 136.938 82.812 138.852C84.0475 139.685 85.2749 140.533 86.4941 141.396C86.6782 141.54 86.8993 141.629 87.1319 141.653C87.3645 141.676 87.599 141.633 87.8081 141.528C89.6369 140.803 91.4412 140.004 93.3239 139.43C93.8583 139.92 93.7798 140.371 93.1718 140.724C91.4068 141.754 89.7399 142.916 88.0042 144.053C83.469 141.489 79.2624 138.41 74.5163 135.988C74.4726 134.883 74.4988 133.776 74.5948 132.674Z" fill="#C3A8E0"/>
<path d="M87.5188 165.337C87.2327 165.37 86.9596 165.474 86.7245 165.641C85.8119 166.096 84.8022 166.321 83.7828 166.298C83.3317 166.298 82.9934 166.332 82.91 166.911C82.5588 169.432 82.697 171.997 83.317 174.466C83.5435 175.568 84.1278 176.564 84.9791 177.3C85.1307 177.461 85.3149 177.588 85.5195 177.673C85.7241 177.757 85.9443 177.797 86.1656 177.79L86.5627 180.855C85.847 180.899 85.1327 180.749 84.4955 180.42C83.8584 180.091 83.3223 179.596 82.9443 178.987C81.9 177.516 81.5421 175.8 81.3902 174.049C81.1534 171.096 81.3449 168.123 81.9589 165.224C82.0177 164.95 82.1109 164.68 82.1697 164.469C84.0965 165.376 85.4301 164.175 86.8667 163.175C86.9955 163.919 87.2145 164.645 87.5188 165.337Z" fill="#C3A8E0"/>
<path d="M124.021 88.1161C125.913 87.8121 127.62 88.3858 129.242 89.2732C129.802 89.5915 130.269 90.0514 130.596 90.6068C130.787 90.8561 130.905 91.1539 130.936 91.4666C130.967 91.7793 130.91 92.0946 130.772 92.3767C130.438 93.2709 130.164 94.1866 129.953 95.1175C129.612 94.9611 129.284 94.7775 128.973 94.5683C127.901 93.7038 126.542 93.2765 125.168 93.372C124.643 93.372 124.119 93.4309 123.462 93.4701C123.332 91.6665 123.522 89.8541 124.021 88.1161Z" fill="#D4C2E8"/>
<path d="M135.705 80.9185C137.442 79.9118 139.093 78.7639 140.642 77.4865C141.289 76.9177 141.917 76.3294 142.642 75.6675C144.236 77.2952 144.976 79.178 144.603 81.4578C142.069 81.3647 139.98 82.7571 137.622 83.5367C137.272 82.4848 136.602 81.5691 135.705 80.9185Z" fill="#D4C2E8"/>
<path d="M132.724 109.105C132.562 109.596 132.233 109.272 131.998 109.223C130.869 108.977 129.702 108.96 128.566 109.174C127.901 109.286 127.265 109.532 126.697 109.896C126.13 110.259 125.641 110.734 125.261 111.292C125.065 111.567 124.854 111.836 124.604 112.17L122.393 107.419C122.356 107.348 122.337 107.27 122.337 107.191C122.337 107.111 122.356 107.033 122.393 106.963C123.207 105.286 124.354 103.992 126.252 103.531C126.811 104.766 127.428 105.982 127.904 107.242C127.931 107.364 127.982 107.479 128.054 107.581C128.127 107.682 128.218 107.769 128.324 107.834C128.43 107.9 128.548 107.944 128.671 107.964C128.795 107.983 128.92 107.978 129.041 107.948C129.899 107.898 130.752 108.102 131.493 108.537C131.905 108.747 132.317 108.899 132.724 109.105Z" fill="#C3A8E0"/>
<path d="M129.747 101.927C128.801 101.927 127.894 101.511 126.933 101.667C124.854 102.011 123.133 102.918 121.996 104.771C121.883 104.957 121.746 105.134 121.613 105.315C121.613 105.315 121.564 105.315 121.462 105.374C120.809 103.793 120.316 102.15 119.991 100.471C119.652 98.51 120.182 97.6275 122.251 96.6861C122.67 96.4542 123.136 96.317 123.614 96.2841C123.859 97.9678 124.425 99.5888 125.281 101.059C125.477 101.015 125.6 100.981 125.722 100.961C127.193 100.726 128.61 100.751 129.747 101.927Z" fill="#C3A8E0"/>
<path d="M131.885 117.852C133.196 117.724 134.512 118.036 135.626 118.739C135.801 118.816 135.951 118.942 136.055 119.103C136.16 119.263 136.215 119.45 136.214 119.642C136.254 122.324 136.239 124.996 135.391 127.8C134.635 126.351 133.386 125.219 131.87 124.608C132.009 124.117 132.07 123.608 132.052 123.098C132.097 121.348 132.041 119.596 131.885 117.852Z" fill="#D4C2E8"/>
<path d="M164.337 85.7378C163.801 85.6619 163.253 85.733 162.754 85.9437C161.219 86.3409 159.91 85.7476 158.572 85.2524C158.631 84.8831 158.802 84.5409 159.062 84.2718C160.234 82.4382 160.807 80.4966 160.15 78.3246C160.102 78.0777 160.08 77.8261 160.087 77.5745C161.418 78.4557 162.617 79.5203 163.651 80.7368C164.23 81.4183 164.602 82.2511 164.724 83.1371C164.846 84.0232 164.711 84.9255 164.337 85.7378Z" fill="#D4C2E8"/>
<path d="M135.126 116.744C133.773 116.372 132.364 116.254 130.968 116.396C129.402 116.533 127.924 117.177 126.757 118.23C126.306 116.877 125.874 115.567 125.433 114.258C125.405 114.167 125.397 114.071 125.41 113.976C125.423 113.881 125.455 113.79 125.506 113.709C126.35 112.131 127.418 110.841 129.365 110.655C129.647 112.087 130.098 113.481 130.708 114.808C130.757 114.942 130.848 115.057 130.969 115.135C131.09 115.212 131.232 115.247 131.375 115.234C131.662 115.202 131.951 115.202 132.238 115.234C133.336 115.484 134.528 115.553 135.126 116.744Z" fill="#C3A8E0"/>
<path d="M124.021 88.1158C123.517 89.853 123.323 91.6653 123.447 93.4698C124.104 93.4306 124.629 93.3963 125.154 93.3717C126.527 93.2762 127.886 93.7035 128.958 94.5681C129.27 94.7772 129.598 94.9608 129.939 95.1172L129.846 96.0389C126.414 93.3276 123.114 94.117 119.824 96.3135C119.618 94.9799 119.907 93.6953 120.02 92.3912C120.064 91.9009 120.133 91.3811 120.153 90.8712C120.151 90.2759 120.359 89.699 120.738 89.2405C121.118 88.782 121.646 88.4709 122.231 88.361C122.806 88.1631 123.414 88.0799 124.021 88.1158Z" fill="#C3A8E0"/>
<path d="M84.6752 156.546C84.028 156.384 83.9054 155.742 83.5818 155.301C83.4882 155.138 83.3529 155.004 83.19 154.912C83.0271 154.82 82.8424 154.773 82.6552 154.776C77.0512 154.776 71.4422 154.776 65.7255 154.776C65.0538 156.11 64.3821 157.468 63.7055 158.821C63.6129 158.774 63.5313 158.708 63.4659 158.627C63.4006 158.546 63.3529 158.453 63.3261 158.352C63.2993 158.252 63.2939 158.147 63.3103 158.044C63.3266 157.942 63.3644 157.844 63.4211 157.757C63.9457 156.487 64.5341 155.256 65.1812 154.045C65.2694 153.842 65.4189 153.671 65.6087 153.557C65.7986 153.443 66.0194 153.391 66.2403 153.408C71.8132 153.444 77.3911 153.467 82.9739 153.477C83.1071 153.485 83.2397 153.501 83.371 153.526L84.6752 155.855C84.8125 156.09 84.9399 156.32 84.6752 156.546Z" fill="#D4C2E8"/>
<path d="M131.885 117.852C132.041 119.596 132.097 121.348 132.052 123.098C132.07 123.608 132.009 124.117 131.87 124.608C130.468 124.319 129.022 124.319 127.62 124.608C127.36 124.393 127.463 124.118 127.468 123.883C127.535 122.669 127.446 121.451 127.203 120.259C127.144 120.081 127.146 119.888 127.208 119.711C127.27 119.534 127.389 119.382 127.546 119.279C128.762 118.275 130.311 117.765 131.885 117.852Z" fill="#C3A8E0"/>
<path d="M126.296 84.5663C128.418 83.9593 130.506 83.2408 132.552 82.4139C132.954 82.2374 133.224 82.4482 133.493 82.6689C133.948 83.0203 134.305 83.4826 134.53 84.0114C134.755 84.5401 134.84 85.1178 134.778 85.689C133.993 86.1844 133.36 86.8868 132.949 87.7188C132.736 88.2363 132.368 88.6749 131.895 88.974C130.625 86.5225 128.419 85.7283 125.948 85.488C125.963 85.0321 126.316 84.8752 126.296 84.5663Z" fill="#D4C2E8"/>
<path d="M129.748 101.927C128.61 100.751 127.193 100.726 125.717 100.947C125.595 100.947 125.472 101.001 125.276 101.045C124.42 99.5743 123.854 97.9532 123.609 96.2695C124.69 95.8428 125.889 95.8189 126.986 96.2023C128.083 96.5858 129.006 97.3509 129.586 98.3582C129.693 98.5157 129.749 98.7022 129.748 98.8926C129.767 99.7133 129.838 100.532 129.958 101.344C129.978 101.594 130.047 101.829 129.748 101.927Z" fill="#D4C2E8"/>
<path d="M135.705 80.9186C136.616 81.5586 137.302 82.4696 137.666 83.522C140.024 82.7425 142.113 81.35 144.647 81.4432C144.647 82.6836 143.995 83.728 143.667 84.9488C141.215 84.3506 138.828 84.3016 136.347 85.4391C136.404 84.7055 136.281 83.9691 135.99 83.2935C135.699 82.6178 135.247 82.0232 134.675 81.5609C134.942 81.2433 135.302 81.0184 135.705 80.9186Z" fill="#C3A8E0"/>
<path d="M135.126 116.744C134.528 115.543 133.336 115.474 132.238 115.244C131.951 115.212 131.662 115.212 131.375 115.244C131.232 115.257 131.09 115.222 130.969 115.144C130.848 115.067 130.757 114.952 130.708 114.817C130.098 113.491 129.647 112.097 129.365 110.665C129.999 110.579 130.643 110.579 131.277 110.665C132.964 110.915 134.292 111.562 134.709 113.449C134.969 114.616 135.548 115.705 135.724 116.881C135.44 116.989 135.293 116.842 135.126 116.744Z" fill="#D4C2E8"/>
<path d="M59.3076 176.285C59.2921 175.012 59.1276 173.745 58.8173 172.51C58.7438 172.211 58.6604 171.936 58.9742 171.755C59.0998 171.68 59.2477 171.652 59.392 171.675C59.5364 171.698 59.6679 171.772 59.7636 171.882C60.1409 172.181 60.4558 172.551 60.6902 172.971C61.2693 174.279 61.6446 175.668 61.8032 177.089C61.9808 178.794 61.7851 180.517 61.2295 182.139C60.629 182.314 59.9837 182.243 59.4351 181.943C59.7571 180.867 59.9335 179.752 59.9597 178.629C60.0479 177.8 60.1068 176.898 59.3076 176.285Z" fill="#C3A8E0"/>
<path d="M131.468 126.158C133.15 126.648 134.734 128.702 134.538 130.35C134.391 131.566 133.596 132.546 132.998 133.718C132.12 132.547 131.158 131.441 130.12 130.409C130.745 129.054 131.198 127.625 131.468 126.158Z" fill="#D4C2E8"/>
<path d="M132.723 109.105C132.317 108.919 131.905 108.747 131.512 108.542C130.771 108.107 129.918 107.903 129.061 107.953C128.94 107.983 128.814 107.988 128.691 107.969C128.568 107.949 128.45 107.905 128.344 107.839C128.238 107.774 128.146 107.687 128.074 107.586C128.002 107.484 127.951 107.369 127.924 107.247C127.433 105.982 126.83 104.796 126.271 103.536C127.855 102.874 129.213 103.452 130.576 104.252C130.726 104.369 130.838 104.527 130.9 104.708C131.503 106.169 132.111 107.639 132.723 109.105Z" fill="#D4C2E8"/>
<path d="M131.468 126.158C131.198 127.625 130.745 129.053 130.12 130.409C129.03 129.454 127.696 128.822 126.266 128.585C126.418 127.746 126.884 127.084 127.124 126.339C127.163 126.27 127.216 126.209 127.279 126.161C127.342 126.113 127.415 126.078 127.492 126.06C128.801 125.707 130.159 125.496 131.468 126.158Z" fill="#C3A8E0"/>
<path d="M126.296 84.5664C126.296 84.8802 125.962 85.0567 125.948 85.4882C128.399 85.7284 130.625 86.5472 131.895 88.9741C132.368 88.675 132.736 88.2364 132.949 87.719C133.36 86.8869 133.993 86.1845 134.778 85.6892C134.833 85.7571 134.875 85.8357 134.898 85.9203C134.922 86.0048 134.928 86.0933 134.916 86.1803C134.905 86.2674 134.875 86.3509 134.829 86.4259C134.783 86.5008 134.722 86.5655 134.65 86.6158C133.614 87.5138 132.757 88.6002 132.125 89.8174C129.674 86.8463 126.492 86.1108 122.81 86.6158C123.158 85.7039 123.398 84.8606 124.609 84.8606C125.178 84.8753 125.717 84.5517 126.296 84.5664Z" fill="#C3A8E0"/>
<path d="M109.592 54.904C109.592 54.7177 109.562 54.5069 109.793 54.4137C109.806 54.5059 109.794 54.5999 109.759 54.6861C109.723 54.7723 109.666 54.8475 109.592 54.904Z" fill="#D5D2CF"/>
<path d="M118.015 92.72H118.181C118.093 92.8426 118.044 92.7886 118.01 92.6808L118.015 92.72Z" fill="#FCFCFC"/>
<path d="M94.4023 176.858L94.5249 176.961L94.4612 177.03C94.4272 176.979 94.4069 176.92 94.4023 176.858Z" fill="#CCC9C6"/>
<path d="M101.345 85.7624C100.884 86.4734 100.065 86.5616 99.3837 86.8019C95.7694 88.0137 92.0641 88.9351 88.3032 89.5573C85.9939 89.974 83.6748 90.2976 81.3508 90.6359C79.9716 90.858 78.5796 90.9922 77.1834 91.038C75.1781 91.0821 73.1777 91.342 71.1675 91.2537C64.3035 90.9595 57.4835 90.2731 50.9578 87.8658C49.5506 87.351 48.1876 86.7283 46.8099 86.1498C46.6285 86.0713 46.4618 85.9831 46.4275 85.7624C46.7756 85.7624 47.1237 85.7036 47.4767 85.7036C65.0814 85.7036 82.691 85.7036 100.305 85.7036C100.654 85.7036 101.002 85.7428 101.345 85.7624Z" fill="#C3A8E0"/>
<path d="M101.345 85.7625C100.997 85.7625 100.649 85.7037 100.301 85.7037C82.6895 85.7037 65.08 85.7037 47.472 85.7037C47.119 85.7037 46.7709 85.7429 46.4228 85.7625C46.1686 85.7464 45.917 85.702 45.6726 85.6301C45.4461 85.55 45.2509 85.3999 45.1153 85.2014C44.9797 85.003 44.9108 84.7666 44.9184 84.5264C44.9261 84.2862 45.0099 84.0547 45.1578 83.8653C45.3057 83.6759 45.5101 83.5385 45.7413 83.4729C46.0539 83.4079 46.3738 83.3848 46.6925 83.4042H101.041C102.022 83.4042 102.551 83.7327 102.644 84.4142C102.738 85.0957 102.326 85.5174 101.345 85.7625Z" fill="#220C39"/>
<path d="M66.1715 72.221C66.1715 70.6913 67.0883 69.544 68.3043 69.5685C69.5202 69.593 70.4468 70.8334 70.4076 72.2896C70.3684 73.7458 69.3731 74.9028 68.2405 74.8734C67.1079 74.844 66.1764 73.682 66.1715 72.221Z" fill="#220C39"/>
<path d="M80.0418 72.1963C80.0418 73.6966 79.0613 74.8978 77.8993 74.8733C76.7373 74.8488 75.7812 73.6084 75.8106 72.1326C75.84 70.6568 76.7912 69.5488 77.9679 69.5684C79.1446 69.588 80.0418 70.7353 80.0418 72.1963Z" fill="#220C39"/>
<g filter="url(#filter7_b)">
<path d="M73.6828 47.5052C80.8116 47.5052 87.9404 47.4758 95.0692 47.5052C98.0698 47.5052 100.247 48.9761 101.443 51.7413C101.816 52.661 101.982 53.6514 101.929 54.6424C101.877 55.6333 101.607 56.6007 101.139 57.4759C100.672 58.3511 100.017 59.1127 99.2223 59.707C98.4276 60.3012 97.5119 60.7135 96.5401 60.9146C95.944 61.0315 95.3384 61.0922 94.731 61.096H52.6248C49.4282 61.096 46.9914 59.5173 45.8932 56.7864C45.4874 55.7732 45.3331 54.6768 45.4435 53.591C45.5539 52.5052 45.9256 51.4623 46.527 50.5515C47.1284 49.6408 47.9415 48.8892 48.8967 48.3613C49.852 47.8333 50.9209 47.5446 52.012 47.5199C59.234 47.4562 66.4608 47.5199 73.6828 47.5199V47.5052ZM64.4997 59.3114C67.6816 59.3653 70.8734 59.3947 74.0407 59.3114C75.0454 59.4021 76.0562 59.4021 77.0609 59.3114C77.9688 59.3776 78.8807 59.3678 79.7869 59.282C80.1593 59.3697 80.5438 59.3946 80.9244 59.3555H93.6719C94.3086 59.3629 94.9448 59.3186 95.5743 59.2231C96.5462 59.1124 97.4604 58.7045 98.1921 58.0553C98.9239 57.406 99.4376 56.5469 99.6633 55.595C100.154 53.8103 99.6191 51.5991 98.0894 50.545C97.1089 49.5252 95.8684 49.2408 94.5397 49.2359C87.7345 49.2359 80.9309 49.2359 74.129 49.2359C67.0394 49.2359 59.9481 49.2359 52.8553 49.2359C51.3109 49.2359 49.9135 49.6478 48.8888 50.9274C47.4719 52.3297 47.212 54.0212 47.7857 55.8303C48.0351 56.6943 48.5254 57.4694 49.1991 58.065C49.8729 58.6606 50.7023 59.0521 51.5903 59.1937C52.314 59.3321 53.0502 59.3945 53.7868 59.38C57.3529 59.3473 60.9238 59.3245 64.4997 59.3114Z" fill="url(#paint7_linear)" fill-opacity="0.8"/>
</g>
<path d="M134.856 48.4566C133.327 48.4566 132.027 47.5937 130.591 47.5202C129.154 47.4466 127.649 47.5202 126.178 47.5202C126.041 46.8693 126.142 46.1909 126.463 45.608C126.954 44.4949 127.702 43.5138 128.644 42.7447C128.834 42.545 129.078 42.4051 129.347 42.3424C129.615 42.2796 129.896 42.2968 130.154 42.3917C132.116 43.2007 133.763 44.3872 134.665 46.417C134.916 47.0663 134.982 47.7721 134.856 48.4566Z" fill="#FDFDFD"/>
<path d="M13.6615 55.0507C12.3328 52.3198 11.4062 49.6575 12.1171 46.7158C12.2041 46.2121 12.3929 45.7315 12.6719 45.3033C12.951 44.875 13.3144 44.5082 13.7399 44.2251C14.3753 43.8572 15.1057 43.6865 15.8384 43.7348C16.7592 43.7313 17.6707 43.9196 18.5148 44.2876C19.3589 44.6556 20.1172 45.1954 20.7413 45.8725C21.7218 46.9609 21.8297 49.5546 20.2118 50.4665C18.1597 51.6787 16.2245 53.0787 14.4312 54.6487C14.1866 54.8044 13.929 54.9389 13.6615 55.0507Z" fill="#F4F3F2"/>
<path d="M103.438 178.766L103.37 178.863C103.37 178.863 103.37 178.824 103.37 178.815C103.393 178.8 103.417 178.789 103.443 178.781L103.438 178.766Z" fill="#2F3134"/>
<path d="M74.0407 59.2969C70.8587 59.395 67.6669 59.3656 64.4996 59.2969C64.5003 59.1064 64.5335 58.9174 64.5977 58.738C65.2204 56.7327 66.0686 54.8157 66.7893 52.8545C67.0713 52.2798 67.2537 51.6615 67.3286 51.0257C67.1665 50.9952 67.0028 50.9739 66.8383 50.962C63.6514 50.9326 60.4646 51.0208 57.2875 50.7855C54.483 50.5795 51.6884 51.0306 48.8839 50.9375C49.9037 49.6578 51.306 49.2509 52.8504 49.246C59.9432 49.246 67.0344 49.246 74.124 49.246C80.9293 49.246 87.7329 49.246 94.5348 49.246C95.8635 49.246 97.1186 49.5352 98.0845 50.555C95.2752 50.4619 92.4707 50.7512 89.6614 50.7757C87.558 50.7757 85.4547 50.908 83.3464 50.9816C83.2925 50.9816 83.2336 51.0306 83.1208 51.0895C82.3805 53.3546 81.2627 55.5021 80.2625 57.7231C80.0167 58.0974 79.8684 58.5271 79.831 58.9733C79.7084 59.0665 79.6643 59.1645 79.831 59.2773C78.9248 59.3631 78.0129 59.3729 77.105 59.3067C77.1698 58.866 77.2969 58.4369 77.4825 58.032C78.115 56.6788 78.7475 55.3207 79.3211 53.9381C79.7846 52.9967 80.1526 52.0112 80.4193 50.9963H77.1197L76.7079 52.3152C75.9332 54.7078 74.9526 56.9877 74.0407 59.2969Z" fill="#CEBBFD"/>
<path d="M79.8212 58.9731C79.8586 58.5269 80.0069 58.0971 80.2527 57.7228C81.2333 55.5116 82.3708 53.3544 83.1111 51.0892C83.2239 51.0304 83.2827 50.9813 83.3366 50.9813C85.4449 50.9078 87.5482 50.795 89.6516 50.7754C92.4609 50.7509 95.2654 50.4616 98.0747 50.5548C99.6044 51.6089 100.163 53.8201 99.6486 55.6048C99.4229 56.5567 98.9092 57.4158 98.1774 58.0651C97.4457 58.7143 96.5315 59.1222 95.5595 59.2329C94.9301 59.3285 94.2939 59.3727 93.6572 59.3653H80.9097C80.5291 59.4044 80.1446 59.3795 79.7722 59.2918L79.8212 58.9731Z" fill="#8C66F1"/>
<path d="M48.884 50.9372C51.6885 51.0303 54.4831 50.5793 57.2876 50.7852C60.4696 51.0205 63.6614 50.9323 66.8384 50.9617C67.0029 50.9737 67.1666 50.9949 67.3287 51.0254C67.2538 51.6612 67.0714 52.2796 66.7894 52.8542C66.0491 54.8154 65.2205 56.7471 64.5978 58.7377C64.5336 58.9171 64.5004 59.1061 64.4997 59.2966C60.9043 59.2966 57.3268 59.3146 53.7673 59.3506C53.0335 59.376 52.299 59.3251 51.5757 59.1986C50.6877 59.057 49.8583 58.6655 49.1845 58.0699C48.5108 57.4743 48.0205 56.6992 47.7711 55.8352C47.1974 54.0309 47.4573 52.3394 48.884 50.9372Z" fill="#8C66F1"/>
<path d="M74.0408 59.2967C74.9527 56.9874 75.9333 54.7075 76.6638 52.3296L77.0757 51.0107H80.3753C80.1085 52.0256 79.7406 53.0111 79.2771 53.9525C78.7034 55.3351 78.071 56.6932 77.4385 58.0464C77.2529 58.4513 77.1258 58.8805 77.0609 59.3212C76.0555 59.4037 75.0447 59.3955 74.0408 59.2967Z" fill="#8E6AED"/>
<path d="M79.8213 58.9731V59.2771C79.6546 59.1644 79.6987 59.0663 79.8213 58.9731Z" fill="#8E6AED"/>
<defs>
<filter id="filter0_b" x="20.4845" y="-1.37197" width="109.615" height="74.9226" filterUnits="userSpaceOnUse" color-interpolation-filters="sRGB">
<feFlood flood-opacity="0" result="BackgroundImageFix"/>
<feGaussianBlur in="BackgroundImage" stdDeviation="2.07453"/>
<feComposite in2="SourceAlpha" operator="in" result="effect1_backgroundBlur"/>
<feBlend mode="normal" in="SourceGraphic" in2="effect1_backgroundBlur" result="shape"/>
</filter>
<filter id="filter1_b" x="79.1727" y="102.992" width="45.3935" height="63.9993" filterUnits="userSpaceOnUse" color-interpolation-filters="sRGB">
<feFlood flood-opacity="0" result="BackgroundImageFix"/>
<feGaussianBlur in="BackgroundImage" stdDeviation="2.07453"/>
<feComposite in2="SourceAlpha" operator="in" result="effect1_backgroundBlur"/>
<feBlend mode="normal" in="SourceGraphic" in2="effect1_backgroundBlur" result="shape"/>
</filter>
<filter id="filter2_b" x="20.0633" y="102.999" width="45.4376" height="63.2595" filterUnits="userSpaceOnUse" color-interpolation-filters="sRGB">
<feFlood flood-opacity="0" result="BackgroundImageFix"/>
<feGaussianBlur in="BackgroundImage" stdDeviation="2.07453"/>
<feComposite in2="SourceAlpha" operator="in" result="effect1_backgroundBlur"/>
<feBlend mode="normal" in="SourceGraphic" in2="effect1_backgroundBlur" result="shape"/>
</filter>
<filter id="filter3_b" x="42.9083" y="112.051" width="25.3481" height="28.4687" filterUnits="userSpaceOnUse" color-interpolation-filters="sRGB">
<feFlood flood-opacity="0" result="BackgroundImageFix"/>
<feGaussianBlur in="BackgroundImage" stdDeviation="2.07453"/>
<feComposite in2="SourceAlpha" operator="in" result="effect1_backgroundBlur"/>
<feBlend mode="normal" in="SourceGraphic" in2="effect1_backgroundBlur" result="shape"/>
</filter>
<filter id="filter4_b" x="81.2174" y="114.988" width="22.492" height="27.4293" filterUnits="userSpaceOnUse" color-interpolation-filters="sRGB">
<feFlood flood-opacity="0" result="BackgroundImageFix"/>
<feGaussianBlur in="BackgroundImage" stdDeviation="2.07453"/>
<feComposite in2="SourceAlpha" operator="in" result="effect1_backgroundBlur"/>
<feBlend mode="normal" in="SourceGraphic" in2="effect1_backgroundBlur" result="shape"/>
</filter>
<filter id="filter5_b" x="114.675" y="126.011" width="23.3255" height="18.9424" filterUnits="userSpaceOnUse" color-interpolation-filters="sRGB">
<feFlood flood-opacity="0" result="BackgroundImageFix"/>
<feGaussianBlur in="BackgroundImage" stdDeviation="2.07453"/>
<feComposite in2="SourceAlpha" operator="in" result="effect1_backgroundBlur"/>
<feBlend mode="normal" in="SourceGraphic" in2="effect1_backgroundBlur" result="shape"/>
</filter>
<filter id="filter6_b" x="10.013" y="124.532" width="22.7169" height="20.4151" filterUnits="userSpaceOnUse" color-interpolation-filters="sRGB">
<feFlood flood-opacity="0" result="BackgroundImageFix"/>
<feGaussianBlur in="BackgroundImage" stdDeviation="2.07453"/>
<feComposite in2="SourceAlpha" operator="in" result="effect1_backgroundBlur"/>
<feBlend mode="normal" in="SourceGraphic" in2="effect1_backgroundBlur" result="shape"/>
</filter>
<filter id="filter7_b" x="41.2597" y="43.3425" width="64.828" height="21.9026" filterUnits="userSpaceOnUse" color-interpolation-filters="sRGB">
<feFlood flood-opacity="0" result="BackgroundImageFix"/>
<feGaussianBlur in="BackgroundImage" stdDeviation="2.07453"/>
<feComposite in2="SourceAlpha" operator="in" result="effect1_backgroundBlur"/>
<feBlend mode="normal" in="SourceGraphic" in2="effect1_backgroundBlur" result="shape"/>
</filter>
<linearGradient id="paint0_linear" x1="24.6336" y1="69.4016" x2="125.951" y2="69.4016" gradientUnits="userSpaceOnUse">
<stop stop-color="#310867"/>
<stop offset="1" stop-color="#561FAA"/>
</linearGradient>
<linearGradient id="paint1_linear" x1="83.3218" y1="162.842" x2="120.417" y2="162.842" gradientUnits="userSpaceOnUse">
<stop stop-color="#310867"/>
<stop offset="1" stop-color="#561FAA"/>
</linearGradient>
<linearGradient id="paint2_linear" x1="24.2124" y1="162.109" x2="61.3519" y2="162.109" gradientUnits="userSpaceOnUse">
<stop stop-color="#310867"/>
<stop offset="1" stop-color="#561FAA"/>
</linearGradient>
<linearGradient id="paint3_linear" x1="47.0574" y1="136.37" x2="64.1074" y2="136.37" gradientUnits="userSpaceOnUse">
<stop stop-color="#310867"/>
<stop offset="1" stop-color="#561FAA"/>
</linearGradient>
<linearGradient id="paint4_linear" x1="85.3665" y1="138.268" x2="99.5603" y2="138.268" gradientUnits="userSpaceOnUse">
<stop stop-color="#310867"/>
<stop offset="1" stop-color="#561FAA"/>
</linearGradient>
<linearGradient id="paint5_linear" x1="118.824" y1="140.804" x2="133.851" y2="140.804" gradientUnits="userSpaceOnUse">
<stop stop-color="#310867"/>
<stop offset="1" stop-color="#561FAA"/>
</linearGradient>
<linearGradient id="paint6_linear" x1="14.1621" y1="140.798" x2="28.5809" y2="140.798" gradientUnits="userSpaceOnUse">
<stop stop-color="#310867"/>
<stop offset="1" stop-color="#561FAA"/>
</linearGradient>
<linearGradient id="paint7_linear" x1="45.4088" y1="61.096" x2="101.939" y2="61.096" gradientUnits="userSpaceOnUse">
<stop stop-color="#310867"/>
<stop offset="1" stop-color="#561FAA"/>
</linearGradient>
</defs>
</svg>
