<svg width="185" height="135" viewBox="0 0 185 135" fill="none" xmlns="http://www.w3.org/2000/svg">
<g clip-path="url(#clip0)">
<path d="M184.019 81.3774L92.0095 28.2559L0.000433767 81.3774L92.0095 134.499L184.019 81.3774Z" fill="#D3DCE4"/>
<path d="M184.087 81.4193V72.1216L172.644 78.0816L184.087 81.4193Z" fill="#D3DCE4"/>
<path d="M0.041748 81.4193V72.1216L11.485 78.0816L0.041748 81.4193Z" fill="#D3DCE4"/>
<path d="M184.019 72.1215L92.0095 19L0.000433767 72.1215L92.0095 125.243L184.019 72.1215Z" fill="#F1F5F9"/>
<path d="M166.336 72.1217L92.0095 29.2095L17.6834 72.1217L92.0095 115.034L166.336 72.1217Z" fill="white" stroke="white" stroke-width="0.476802"/>
<path d="M126.626 61.4122V61.4219C126.559 61.5104 126.475 61.5841 126.378 61.6384L76.8614 90.4157C76.6107 90.5477 76.3309 90.6143 76.0477 90.6094C75.7645 90.6137 75.4848 90.5471 75.234 90.4157L43.9048 72.3369C43.8104 72.2951 43.7289 72.2286 43.669 72.1444C43.6092 72.0602 43.5731 71.9614 43.5647 71.8585V73.7511C43.574 73.8541 43.6105 73.9527 43.6706 74.0368C43.7307 74.1209 43.8121 74.1874 43.9065 74.2296L75.2128 92.3051C75.2651 92.3355 75.3195 92.3621 75.3756 92.3849C75.4211 92.4028 75.4683 92.4174 75.5155 92.4321L75.6376 92.4614L75.7531 92.4825L75.867 92.4939C75.9045 92.4939 75.9435 92.4939 75.9809 92.4939H76.1014L76.2316 92.4842C76.2804 92.4842 76.3308 92.4728 76.3797 92.4646C76.4541 92.4514 76.5275 92.4329 76.5994 92.4093C76.6874 92.382 76.772 92.3449 76.8516 92.2986L126.37 63.5213L126.383 63.5131C126.436 63.4831 126.485 63.447 126.53 63.4057C126.556 63.3817 126.58 63.3556 126.601 63.3276C126.607 63.3203 126.613 63.3127 126.618 63.3048V63.2951C126.627 63.2838 126.636 63.2718 126.644 63.2593C126.655 63.2377 126.666 63.2154 126.675 63.1925C126.683 63.1713 126.689 63.1496 126.694 63.1274C126.696 63.1052 126.696 63.0829 126.694 63.0607V61.168C126.695 61.2543 126.671 61.3389 126.626 61.4122Z" fill="#403487"/>
<path d="M126.361 60.6768C126.813 60.9372 126.815 61.3668 126.361 61.6272L76.8484 90.4013C76.5938 90.5305 76.3122 90.5979 76.0266 90.5979C75.741 90.5979 75.4594 90.5305 75.2048 90.4013L43.8984 72.3371C43.446 72.0768 43.4427 71.6488 43.8984 71.3867L93.417 42.6012C93.672 42.4729 93.9534 42.406 94.2389 42.406C94.5243 42.406 94.8058 42.4729 95.0607 42.6012L126.361 60.6768Z" fill="url(#paint0_linear)"/>
<path d="M93.9866 1.51416C93.9962 1.41277 93.9786 1.31066 93.9357 1.2183C93.8928 1.12593 93.8261 1.04663 93.7425 0.98851L92.1037 0.0462375C92.0901 0.0387542 92.076 0.0322297 92.0614 0.0267094C92.0475 0.0198924 92.0327 0.0149722 92.0175 0.0120683L91.9719 0.000675329C91.9551 -0.000194104 91.9383 -0.000194104 91.9215 0.000675329H91.8677H91.845C91.833 -0.00022511 91.8211 -0.00022511 91.8092 0.000675329C91.785 0.00398799 91.7611 0.00887512 91.7376 0.0153164C91.705 0.0250808 91.6741 0.0364762 91.6415 0.0494954C91.6022 0.0655242 91.5641 0.0845631 91.5276 0.106451L41.8072 29.1068C41.7077 29.1657 41.6163 29.2374 41.5354 29.32C41.5216 29.3333 41.5085 29.3474 41.4964 29.3623L41.4817 29.3769L41.4443 29.416L41.3792 29.499C41.3597 29.5234 41.3418 29.5478 41.3239 29.5738C41.306 29.5999 41.2913 29.621 41.2767 29.6455C41.262 29.6699 41.2474 29.6926 41.2327 29.7154C41.2181 29.7382 41.2327 29.7154 41.2327 29.7154L41.2002 29.7756C41.1872 29.8001 41.1758 29.8228 41.1644 29.8472C41.153 29.8717 41.1416 29.8944 41.1318 29.9189C41.1221 29.9433 41.1107 29.9677 41.1009 29.9937L41.0732 30.0718L41.0618 30.1125V30.1223L41.0521 30.1565C41.0521 30.1874 41.0358 30.2183 41.0293 30.2492C41.0228 30.2801 41.0146 30.3257 41.0098 30.3631C41.0033 30.4171 41 30.4715 41 30.5259L41.2929 70.0474C41.283 70.1488 41.3005 70.251 41.3434 70.3435C41.3863 70.4359 41.4532 70.5152 41.5371 70.573L43.1775 71.5169C43.1284 71.4807 43.0874 71.4347 43.057 71.3818C43.2019 71.5836 43.459 71.6357 43.7633 71.4583L93.4659 42.4629C93.7038 42.3053 93.9013 42.094 94.0426 41.8461C94.184 41.5982 94.2651 41.3206 94.2796 41.0356L93.9866 1.51416ZM93.4821 0.936432C93.5142 0.938944 93.5458 0.944945 93.5765 0.954331C93.5452 0.944941 93.5131 0.938942 93.4805 0.936432H93.4821ZM42.9268 70.9994C42.9251 71.1115 42.9478 71.2226 42.9936 71.3249C42.9478 71.2226 42.9251 71.1115 42.9268 70.9994Z" fill="#2C3E50"/>
<path d="M93.2119 1.15293C93.6626 0.889288 94.0369 1.09922 94.0402 1.61999L94.3331 41.1414C94.319 41.4265 94.2379 41.7042 94.0966 41.9521C93.9552 42.2001 93.7575 42.4113 93.5194 42.5687L43.8071 71.5723C43.3564 71.8359 42.9837 71.6244 42.9788 71.1052L42.6875 31.5821C42.7016 31.2972 42.7826 31.0197 42.9239 30.772C43.0653 30.5243 43.2631 30.3134 43.5012 30.1565L93.2119 1.15293Z" fill="#3D566E"/>
<path d="M91.8531 4.35718L92.1216 40.8028L44.8781 68.3678L44.6079 31.9221L91.8531 4.35718Z" fill="url(#paint1_linear)"/>
<path d="M100.729 70.4006C100.949 70.5276 100.949 70.7342 100.729 70.8612L90.0402 77.0713C89.9171 77.1336 89.7811 77.166 89.6431 77.166C89.5052 77.166 89.3692 77.1336 89.246 77.0713L82.0741 72.9296C81.856 72.8027 81.8544 72.596 82.0741 72.4691L92.7612 66.2589C92.8842 66.1963 93.0203 66.1636 93.1583 66.1636C93.2963 66.1636 93.4324 66.1963 93.5554 66.2589L100.729 70.4006Z" fill="#7B6CD7"/>
<path d="M93.3244 46.3883C93.2913 46.3986 93.2623 46.4192 93.2417 46.4472C93.2211 46.4751 93.21 46.509 93.21 46.5437C93.21 46.5784 93.2211 46.6122 93.2417 46.6402C93.2623 46.6682 93.2913 46.6888 93.3244 46.6991L93.9754 47.0815C94.0585 47.1241 94.1505 47.1463 94.2439 47.1463C94.3373 47.1463 94.4293 47.1241 94.5124 47.0815L95.7769 46.3508C95.8101 46.3405 95.8391 46.3199 95.8597 46.2919C95.8803 46.264 95.8914 46.2301 95.8914 46.1954C95.8914 46.1607 95.8803 46.1269 95.8597 46.0989C95.8391 46.0709 95.8101 46.0503 95.7769 46.04L95.126 45.6576C95.0429 45.615 94.9508 45.5928 94.8574 45.5928C94.7641 45.5928 94.672 45.615 94.5889 45.6576L93.3244 46.3883Z" fill="#7B6CD7"/>
<path d="M90.9956 47.7324C90.9624 47.7427 90.9334 47.7633 90.9128 47.7913C90.8922 47.8193 90.8811 47.8531 90.8811 47.8878C90.8811 47.9225 90.8922 47.9564 90.9128 47.9843C90.9334 48.0123 90.9624 48.0329 90.9956 48.0432L91.6465 48.4257C91.7299 48.4682 91.8222 48.4904 91.9159 48.4904C92.0095 48.4904 92.1018 48.4682 92.1852 48.4257L93.4497 47.695C93.4829 47.6847 93.5119 47.664 93.5325 47.6361C93.5531 47.6081 93.5642 47.5743 93.5642 47.5395C93.5642 47.5048 93.5531 47.471 93.5325 47.443C93.5119 47.4151 93.4829 47.3944 93.4497 47.3841L92.7987 47.0017C92.7159 46.9591 92.6241 46.937 92.531 46.937C92.4379 46.937 92.3461 46.9591 92.2633 47.0017L90.9956 47.7324Z" fill="#7B6CD7"/>
<path d="M88.7417 49.0344C88.7085 49.0447 88.6795 49.0653 88.6589 49.0933C88.6383 49.1213 88.6272 49.1551 88.6272 49.1898C88.6272 49.2246 88.6383 49.2584 88.6589 49.2863C88.6795 49.3143 88.7085 49.3349 88.7417 49.3452L89.3926 49.7277C89.4761 49.7699 89.5684 49.7919 89.662 49.7919C89.7555 49.7919 89.8478 49.7699 89.9313 49.7277L91.1958 48.997C91.2289 48.9867 91.2579 48.966 91.2785 48.9381C91.2991 48.9101 91.3102 48.8763 91.3102 48.8416C91.3102 48.8068 91.2991 48.773 91.2785 48.7451C91.2579 48.7171 91.2289 48.6964 91.1958 48.6861L90.5367 48.3037C90.4539 48.2612 90.3621 48.239 90.269 48.239C90.1759 48.239 90.0841 48.2612 90.0013 48.3037L88.7417 49.0344Z" fill="#7B6CD7"/>
<path d="M86.4875 50.3363C86.4544 50.3466 86.4253 50.3672 86.4048 50.3952C86.3842 50.4231 86.373 50.4569 86.373 50.4917C86.373 50.5264 86.3842 50.5602 86.4048 50.5882C86.4253 50.6161 86.4544 50.6368 86.4875 50.6471L87.1385 51.0295C87.2222 51.0712 87.3143 51.0929 87.4078 51.0929C87.5013 51.0929 87.5935 51.0712 87.6772 51.0295L88.9417 50.2988C88.9748 50.2885 89.0038 50.2679 89.0244 50.2399C89.045 50.212 89.0561 50.1781 89.0561 50.1434C89.0561 50.1087 89.045 50.0749 89.0244 50.0469C89.0038 50.0189 88.9748 49.9983 88.9417 49.988L88.2907 49.6056C88.2076 49.563 88.1155 49.5408 88.0222 49.5408C87.9288 49.5408 87.8367 49.563 87.7536 49.6056L86.4875 50.3363Z" fill="#7B6CD7"/>
<path d="M84.2354 51.6366C84.2022 51.6469 84.1733 51.6675 84.1527 51.6955C84.1321 51.7234 84.1208 51.7572 84.1208 51.792C84.1208 51.8267 84.1321 51.8605 84.1527 51.8885C84.1733 51.9164 84.2022 51.9371 84.2354 51.9474L84.8864 52.3298C84.9695 52.3724 85.0615 52.3946 85.1549 52.3946C85.2483 52.3946 85.3403 52.3724 85.4234 52.3298L86.6879 51.6007C86.7217 51.5909 86.7514 51.5703 86.7726 51.5422C86.7937 51.514 86.8051 51.4797 86.8051 51.4445C86.8051 51.4093 86.7937 51.375 86.7726 51.3469C86.7514 51.3187 86.7217 51.2982 86.6879 51.2883L86.037 50.9059C85.9536 50.8642 85.8617 50.8425 85.7684 50.8425C85.6752 50.8425 85.5833 50.8642 85.4999 50.9059L84.2354 51.6366Z" fill="#7B6CD7"/>
<path d="M81.9813 52.9386C81.9487 52.9493 81.9204 52.97 81.9003 52.9978C81.8802 53.0255 81.8694 53.0589 81.8694 53.0932C81.8694 53.1275 81.8802 53.1609 81.9003 53.1886C81.9204 53.2164 81.9487 53.2371 81.9813 53.2478L82.6323 53.6319C82.7155 53.6741 82.8075 53.696 82.9008 53.696C82.9941 53.696 83.0861 53.6741 83.1693 53.6319L84.4338 52.9028C84.4676 52.8929 84.4973 52.8724 84.5184 52.8442C84.5396 52.816 84.551 52.7818 84.551 52.7466C84.551 52.7113 84.5396 52.6771 84.5184 52.6489C84.4973 52.6207 84.4676 52.6002 84.4338 52.5903L83.7829 52.2079C83.6997 52.1653 83.6077 52.1431 83.5143 52.1431C83.421 52.1431 83.3289 52.1653 83.2458 52.2079L81.9813 52.9386Z" fill="#7B6CD7"/>
<path d="M79.7273 54.2388C79.6941 54.2491 79.6651 54.2696 79.6445 54.2976C79.6239 54.3256 79.6128 54.3594 79.6128 54.3941C79.6128 54.4288 79.6239 54.4628 79.6445 54.4907C79.6651 54.5187 79.6941 54.5392 79.7273 54.5495L80.3864 54.932C80.4696 54.9742 80.5616 54.9962 80.6549 54.9962C80.7482 54.9962 80.8402 54.9742 80.9234 54.932L82.1895 54.2014C82.2233 54.1915 82.253 54.1708 82.2741 54.1427C82.2953 54.1145 82.3067 54.0803 82.3067 54.0451C82.3067 54.0099 82.2953 53.9756 82.2741 53.9474C82.253 53.9192 82.2233 53.8988 82.1895 53.8889L81.5386 53.5065C81.4554 53.4639 81.3634 53.4417 81.27 53.4417C81.1767 53.4417 81.0846 53.4639 81.0015 53.5065L79.7273 54.2388Z" fill="#7B6CD7"/>
<path d="M77.4685 55.5392C77.4353 55.5495 77.4063 55.5701 77.3857 55.5981C77.3651 55.6261 77.354 55.6599 77.354 55.6946C77.354 55.7293 77.3651 55.7631 77.3857 55.7911C77.4063 55.8191 77.4353 55.8397 77.4685 55.85L78.1194 56.2325C78.2025 56.275 78.2946 56.2972 78.388 56.2972C78.4813 56.2972 78.5734 56.275 78.6565 56.2325L79.921 55.5018C79.9541 55.4915 79.9831 55.4708 80.0037 55.4428C80.0243 55.4149 80.0354 55.3811 80.0354 55.3463C80.0354 55.3116 80.0243 55.2778 80.0037 55.2498C79.9831 55.2219 79.9541 55.2012 79.921 55.1909L79.27 54.8085C79.1869 54.7659 79.0949 54.7437 79.0015 54.7437C78.9081 54.7437 78.8161 54.7659 78.733 54.8085L77.4685 55.5392Z" fill="#7B6CD7"/>
<path d="M75.2195 56.841C75.1863 56.8513 75.1573 56.8719 75.1367 56.8999C75.1161 56.9279 75.105 56.9617 75.105 56.9964C75.105 57.0311 75.1161 57.065 75.1367 57.0929C75.1573 57.1209 75.1863 57.1415 75.2195 57.1518L75.8704 57.5343C75.9535 57.5768 76.0456 57.599 76.1389 57.599C76.2323 57.599 76.3243 57.5768 76.4075 57.5343L77.672 56.8052C77.7051 56.7949 77.7341 56.7742 77.7547 56.7463C77.7753 56.7183 77.7864 56.6845 77.7864 56.6498C77.7864 56.615 77.7753 56.5812 77.7547 56.5533C77.7341 56.5253 77.7051 56.5047 77.672 56.4944L77.021 56.1103C76.9376 56.0686 76.8457 56.0469 76.7525 56.0469C76.6593 56.0469 76.5673 56.0686 76.4839 56.1103L75.2195 56.841Z" fill="#7B6CD7"/>
<path d="M72.9655 58.1431C72.9324 58.1534 72.9034 58.1741 72.8828 58.202C72.8622 58.23 72.8511 58.2638 72.8511 58.2985C72.8511 58.3333 72.8622 58.3671 72.8828 58.3951C72.9034 58.423 72.9324 58.4437 72.9655 58.454L73.6165 58.8364C73.6999 58.8781 73.7918 58.8998 73.885 58.8998C73.9782 58.8998 74.0702 58.8781 74.1536 58.8364L75.4197 58.1057C75.4528 58.0954 75.4818 58.0748 75.5024 58.0468C75.523 58.0188 75.5341 57.985 75.5341 57.9503C75.5341 57.9156 75.523 57.8817 75.5024 57.8538C75.4818 57.8258 75.4528 57.8052 75.4197 57.7949L74.7687 57.4124C74.6856 57.3699 74.5936 57.3477 74.5002 57.3477C74.4068 57.3477 74.3148 57.3699 74.2317 57.4124L72.9655 58.1431Z" fill="#7B6CD7"/>
<path d="M70.7131 59.443C70.6799 59.4533 70.6509 59.4739 70.6303 59.5019C70.6097 59.5299 70.5986 59.5637 70.5986 59.5984C70.5986 59.6331 70.6097 59.667 70.6303 59.6949C70.6509 59.7229 70.6799 59.7435 70.7131 59.7538L71.3641 60.1363C71.4475 60.1789 71.5398 60.201 71.6334 60.201C71.727 60.201 71.8193 60.1789 71.9027 60.1363L73.1672 59.4072C73.201 59.3973 73.2307 59.3768 73.2518 59.3486C73.273 59.3204 73.2844 59.2862 73.2844 59.251C73.2844 59.2157 73.273 59.1815 73.2518 59.1533C73.2307 59.1252 73.201 59.1046 73.1672 59.0947L72.5163 58.7123C72.4329 58.6706 72.341 58.6489 72.2477 58.6489C72.1545 58.6489 72.0626 58.6706 71.9792 58.7123L70.7131 59.443Z" fill="#7B6CD7"/>
<path d="M68.4593 60.7436C68.3112 60.8299 68.3096 60.9698 68.4593 61.0544L69.1103 61.4369C69.1937 61.4795 69.286 61.5016 69.3796 61.5016C69.4733 61.5016 69.5656 61.4795 69.649 61.4369L70.9135 60.7062C70.9466 60.6959 70.9756 60.6752 70.9962 60.6473C71.0168 60.6193 71.0279 60.5855 71.0279 60.5507C71.0279 60.516 71.0168 60.4822 70.9962 60.4542C70.9756 60.4263 70.9466 60.4056 70.9135 60.3953L70.2625 60.0129C70.1797 59.9704 70.0879 59.9482 69.9948 59.9482C69.9017 59.9482 69.8099 59.9704 69.7271 60.0129L68.4593 60.7436Z" fill="#7B6CD7"/>
<path d="M66.2053 62.0455C66.1721 62.0558 66.1431 62.0765 66.1225 62.1044C66.1019 62.1324 66.0908 62.1662 66.0908 62.2009C66.0908 62.2357 66.1019 62.2695 66.1225 62.2974C66.1431 62.3254 66.1721 62.3461 66.2053 62.3564L66.8563 62.7388C66.9398 62.7809 67.032 62.8028 67.1256 62.8028C67.2191 62.8028 67.3114 62.7809 67.3949 62.7388L68.6611 62.0081C68.6949 61.9982 68.7246 61.9777 68.7457 61.9495C68.7668 61.9213 68.7782 61.8871 68.7782 61.8519C68.7782 61.8166 68.7668 61.7824 68.7457 61.7542C68.7246 61.726 68.6949 61.7055 68.6611 61.6956L68.0019 61.3132C67.9191 61.2706 67.8274 61.2485 67.7343 61.2485C67.6411 61.2485 67.5494 61.2706 67.4665 61.3132L66.2053 62.0455Z" fill="#7B6CD7"/>
<path d="M63.9609 63.3457C63.9277 63.356 63.8987 63.3767 63.8781 63.4046C63.8575 63.4326 63.8464 63.4664 63.8464 63.5011C63.8464 63.5359 63.8575 63.5697 63.8781 63.5977C63.8987 63.6256 63.9277 63.6463 63.9609 63.6566L64.6119 64.039C64.6953 64.0816 64.7876 64.1038 64.8812 64.1038C64.9748 64.1038 65.0671 64.0816 65.1505 64.039L66.4134 63.3083C66.4466 63.298 66.4756 63.2774 66.4962 63.2494C66.5168 63.2214 66.5279 63.1876 66.5279 63.1529C66.5279 63.1182 66.5168 63.0843 66.4962 63.0564C66.4756 63.0284 66.4466 63.0078 66.4134 62.9975L65.7624 62.615C65.6796 62.5725 65.5879 62.5503 65.4947 62.5503C65.4016 62.5503 65.3098 62.5725 65.227 62.615L63.9609 63.3457Z" fill="#7B6CD7"/>
<path d="M61.6989 64.6477C61.6658 64.658 61.6368 64.6787 61.6162 64.7066C61.5956 64.7346 61.5845 64.7684 61.5845 64.8032C61.5845 64.8379 61.5956 64.8717 61.6162 64.8997C61.6368 64.9276 61.6658 64.9483 61.6989 64.9586L62.3499 65.341C62.4333 65.3836 62.5256 65.4058 62.6192 65.4058C62.7129 65.4058 62.8052 65.3836 62.8886 65.341L64.1514 64.6119C64.1853 64.6021 64.2149 64.5815 64.2361 64.5534C64.2572 64.5252 64.2686 64.4909 64.2686 64.4557C64.2686 64.4205 64.2572 64.3862 64.2361 64.3581C64.2149 64.3299 64.1853 64.3093 64.1514 64.2995L63.5005 63.917C63.4174 63.8753 63.3257 63.8535 63.2328 63.8535C63.1398 63.8535 63.0481 63.8753 62.9651 63.917L61.6989 64.6477Z" fill="#7B6CD7"/>
<path d="M59.4466 65.9481C59.2969 66.0344 59.2953 66.1744 59.4466 66.2606L60.0976 66.6431C60.1813 66.6848 60.2735 66.7064 60.3669 66.7064C60.4604 66.7064 60.5526 66.6848 60.6363 66.6431L61.9008 65.9124C61.9339 65.9021 61.9629 65.8814 61.9835 65.8534C62.0041 65.8255 62.0152 65.7917 62.0152 65.7569C62.0152 65.7222 62.0041 65.6884 61.9835 65.6604C61.9629 65.6325 61.9339 65.6118 61.9008 65.6015L61.2498 65.2191C61.1667 65.1765 61.0746 65.1543 60.9813 65.1543C60.8879 65.1543 60.7959 65.1765 60.7128 65.2191L59.4466 65.9481Z" fill="#7B6CD7"/>
<path d="M55.6889 68.1173C55.6558 68.1276 55.6268 68.1482 55.6062 68.1762C55.5856 68.2042 55.5745 68.238 55.5745 68.2727C55.5745 68.3074 55.5856 68.3413 55.6062 68.3692C55.6268 68.3972 55.6558 68.4178 55.6889 68.4281L56.3399 68.8106C56.4231 68.8527 56.5151 68.8747 56.6084 68.8747C56.7017 68.8747 56.7937 68.8527 56.8769 68.8106L58.1414 68.0815C58.1752 68.0716 58.2049 68.0511 58.2261 68.0229C58.2472 67.9947 58.2586 67.9605 58.2586 67.9253C58.2586 67.89 58.2472 67.8558 58.2261 67.8276C58.2049 67.7995 58.1752 67.7789 58.1414 67.769L57.4905 67.3866C57.4074 67.344 57.3153 67.3218 57.222 67.3218C57.1286 67.3218 57.0365 67.344 56.9534 67.3866L55.6889 68.1173Z" fill="#7B6CD7"/>
<path d="M53.435 69.4176C53.4019 69.4279 53.3729 69.4485 53.3523 69.4765C53.3317 69.5044 53.3206 69.5382 53.3206 69.573C53.3206 69.6077 53.3317 69.6415 53.3523 69.6695C53.3729 69.6974 53.4019 69.7181 53.435 69.7284L54.086 70.1108C54.1691 70.1534 54.2611 70.1756 54.3545 70.1756C54.4479 70.1756 54.5399 70.1534 54.623 70.1108L55.8875 69.3801C55.9207 69.3698 55.9497 69.3492 55.9703 69.3212C55.9909 69.2933 56.002 69.2594 56.002 69.2247C56.002 69.19 55.9909 69.1562 55.9703 69.1282C55.9497 69.1002 55.9207 69.0796 55.8875 69.0693L55.2366 68.6868C55.1535 68.6443 55.0614 68.6221 54.968 68.6221C54.8747 68.6221 54.7826 68.6443 54.6995 68.6868L53.435 69.4176Z" fill="#7B6CD7"/>
<path d="M51.181 70.7193C51.1479 70.7296 51.119 70.7502 51.0984 70.7782C51.0778 70.8061 51.0667 70.84 51.0667 70.8747C51.0667 70.9094 51.0778 70.9432 51.0984 70.9712C51.119 70.9992 51.1479 71.0198 51.181 71.0301L51.8321 71.4125C51.9152 71.4551 52.0072 71.4773 52.1006 71.4773C52.194 71.4773 52.2859 71.4551 52.369 71.4125L53.6353 70.6818C53.6684 70.6715 53.6973 70.6509 53.7179 70.6229C53.7385 70.595 53.7496 70.5611 53.7496 70.5264C53.7496 70.4917 53.7385 70.4579 53.7179 70.4299C53.6973 70.4019 53.6684 70.3813 53.6353 70.371L52.9842 69.9886C52.9011 69.946 52.8091 69.9238 52.7158 69.9238C52.6224 69.9238 52.5304 69.946 52.4472 69.9886L51.181 70.7193Z" fill="#7B6CD7"/>
<path d="M48.9287 72.0196C48.8955 72.0299 48.8665 72.0505 48.8459 72.0785C48.8253 72.1065 48.8142 72.1403 48.8142 72.175C48.8142 72.2097 48.8253 72.2436 48.8459 72.2715C48.8665 72.2995 48.8955 72.3201 48.9287 72.3304L49.5796 72.7129C49.6629 72.7551 49.7549 72.777 49.8482 72.777C49.9415 72.777 50.0335 72.7551 50.1167 72.7129L51.3812 71.9822C51.4143 71.9719 51.4433 71.9512 51.4639 71.9233C51.4845 71.8953 51.4956 71.8615 51.4956 71.8267C51.4956 71.792 51.4845 71.7582 51.4639 71.7302C51.4433 71.7023 51.4143 71.6816 51.3812 71.6713L50.7302 71.2889C50.6471 71.2463 50.5551 71.2241 50.4617 71.2241C50.3683 71.2241 50.2763 71.2463 50.1932 71.2889L48.9287 72.0196Z" fill="#7B6CD7"/>
<path d="M57.7768 69.3313C57.7437 69.3416 57.7147 69.3623 57.6941 69.3902C57.6735 69.4182 57.6624 69.452 57.6624 69.4867C57.6624 69.5215 57.6735 69.5553 57.6941 69.5832C57.7147 69.6112 57.7437 69.6318 57.7768 69.6421L59.0332 70.3712C59.1164 70.4134 59.2084 70.4354 59.3017 70.4354C59.395 70.4354 59.487 70.4134 59.5702 70.3712L60.8347 69.6405C60.8679 69.6302 60.8969 69.6096 60.9175 69.5816C60.9381 69.5536 60.9492 69.5198 60.9492 69.4851C60.9492 69.4504 60.9381 69.4166 60.9175 69.3886C60.8969 69.3606 60.8679 69.34 60.8347 69.3297L59.5783 68.599C59.4955 68.5564 59.4038 68.5342 59.3107 68.5342C59.2175 68.5342 59.1258 68.5564 59.0429 68.599L57.7768 69.3313Z" fill="#7B6CD7"/>
<path d="M95.2624 47.6902C95.2292 47.7005 95.2003 47.7211 95.1797 47.7491C95.1591 47.7771 95.1479 47.8109 95.1479 47.8456C95.1479 47.8803 95.1591 47.9141 95.1797 47.9421C95.2003 47.9701 95.2292 47.9907 95.2624 48.001L96.5188 48.7301C96.602 48.7723 96.694 48.7943 96.7873 48.7943C96.8806 48.7943 96.9726 48.7723 97.0558 48.7301L98.47 47.9164C98.5038 47.9065 98.5335 47.886 98.5546 47.8578C98.5758 47.8296 98.5872 47.7954 98.5872 47.7602C98.5872 47.7249 98.5758 47.6907 98.5546 47.6625C98.5335 47.6343 98.5038 47.6138 98.47 47.6039L97.2153 46.8749C97.1322 46.8323 97.0401 46.8101 96.9468 46.8101C96.8534 46.8101 96.7614 46.8323 96.6783 46.8749L95.2624 47.6902Z" fill="#7B6CD7"/>
<path d="M92.8589 49.0766C92.8257 49.0869 92.7967 49.1075 92.7761 49.1355C92.7555 49.1634 92.7444 49.1973 92.7444 49.232C92.7444 49.2667 92.7555 49.3005 92.7761 49.3285C92.7967 49.3565 92.8257 49.3771 92.8589 49.3874L94.1136 50.1181C94.197 50.1607 94.2893 50.1829 94.3829 50.1829C94.4766 50.1829 94.5689 50.1607 94.6523 50.1181L96.0665 49.3044C96.1003 49.2945 96.13 49.274 96.1511 49.2458C96.1722 49.2177 96.1836 49.1834 96.1836 49.1482C96.1836 49.113 96.1722 49.0787 96.1511 49.0505C96.13 49.0224 96.1003 49.0018 96.0665 48.9919L94.8101 48.2612C94.727 48.2187 94.635 48.1965 94.5416 48.1965C94.4482 48.1965 94.3562 48.2187 94.2731 48.2612L92.8589 49.0766Z" fill="#7B6CD7"/>
<path d="M90.4536 50.4648C90.4204 50.4751 90.3914 50.4958 90.3708 50.5237C90.3502 50.5517 90.3391 50.5855 90.3391 50.6202C90.3391 50.655 90.3502 50.6888 90.3708 50.7167C90.3914 50.7447 90.4204 50.7654 90.4536 50.7757L91.7099 51.5064C91.7933 51.5489 91.8857 51.5711 91.9793 51.5711C92.0729 51.5711 92.1652 51.5489 92.2486 51.5064L93.6628 50.6927C93.696 50.6824 93.725 50.6617 93.7456 50.6338C93.7662 50.6058 93.7773 50.572 93.7773 50.5372C93.7773 50.5025 93.7662 50.4687 93.7456 50.4407C93.725 50.4128 93.696 50.3921 93.6628 50.3818L92.4065 49.6511C92.3234 49.6086 92.2313 49.5864 92.138 49.5864C92.0446 49.5864 91.9525 49.6086 91.8694 49.6511L90.4536 50.4648Z" fill="#7B6CD7"/>
<path d="M87.9 51.9393C87.7519 52.0255 87.7503 52.1655 87.9 52.2501L89.1564 52.9808C89.2395 53.0234 89.3315 53.0456 89.4249 53.0456C89.5183 53.0456 89.6103 53.0234 89.6934 52.9808L91.1092 52.1671C91.1424 52.1568 91.1714 52.1361 91.192 52.1082C91.2126 52.0802 91.2237 52.0464 91.2237 52.0117C91.2237 51.9769 91.2126 51.9431 91.192 51.9152C91.1714 51.8872 91.1424 51.8666 91.1092 51.8563L89.8529 51.1256C89.7701 51.083 89.6783 51.0608 89.5852 51.0608C89.4921 51.0608 89.4003 51.083 89.3175 51.1256L87.9 51.9393Z" fill="#7B6CD7"/>
<path d="M85.498 53.3275C85.4648 53.3378 85.4358 53.3585 85.4153 53.3864C85.3947 53.4144 85.3835 53.4482 85.3835 53.4829C85.3835 53.5177 85.3947 53.5515 85.4153 53.5794C85.4358 53.6074 85.4648 53.628 85.498 53.6384L86.7544 54.3674C86.8378 54.41 86.9301 54.4322 87.0237 54.4322C87.1173 54.4322 87.2096 54.41 87.293 54.3674L88.7073 53.5537C88.7404 53.5434 88.7694 53.5228 88.79 53.4948C88.8106 53.4669 88.8217 53.433 88.8217 53.3983C88.8217 53.3636 88.8106 53.3298 88.79 53.3018C88.7694 53.2738 88.7404 53.2532 88.7073 53.2429L87.4509 52.5122C87.3681 52.4697 87.2763 52.4475 87.1832 52.4475C87.0901 52.4475 86.9983 52.4697 86.9155 52.5122L85.498 53.3275Z" fill="#7B6CD7"/>
<path d="M83.0928 54.7155C83.0596 54.7258 83.0306 54.7466 83.01 54.7745C82.9894 54.8025 82.9783 54.8362 82.9783 54.8709C82.9783 54.9057 82.9894 54.9396 83.01 54.9676C83.0306 54.9955 83.0596 55.0162 83.0928 55.0265L84.3491 55.7555C84.4322 55.7981 84.5243 55.8203 84.6176 55.8203C84.711 55.8203 84.803 55.7981 84.8861 55.7555L86.3004 54.9417C86.3335 54.9314 86.3625 54.9109 86.3831 54.8829C86.4037 54.855 86.4148 54.8211 86.4148 54.7864C86.4148 54.7517 86.4037 54.7178 86.3831 54.6898C86.3625 54.6618 86.3335 54.6413 86.3004 54.631L85.044 53.9002C84.9609 53.8576 84.8689 53.8354 84.7755 53.8354C84.6821 53.8354 84.5901 53.8576 84.507 53.9002L83.0928 54.7155Z" fill="#7B6CD7"/>
<path d="M80.6892 56.1038C80.656 56.1141 80.627 56.1347 80.6064 56.1627C80.5858 56.1906 80.5747 56.2244 80.5747 56.2592C80.5747 56.2939 80.5858 56.3277 80.6064 56.3557C80.627 56.3837 80.656 56.4043 80.6892 56.4146L81.9455 57.1437C82.0288 57.1859 82.1208 57.2078 82.2141 57.2078C82.3074 57.2078 82.3994 57.1859 82.4826 57.1437L83.8968 56.33C83.9306 56.3201 83.9603 56.2996 83.9814 56.2714C84.0026 56.2432 84.014 56.209 84.014 56.1737C84.014 56.1385 84.0026 56.1043 83.9814 56.0761C83.9603 56.0479 83.9306 56.0274 83.8968 56.0175L82.6404 55.2868C82.5572 55.2446 82.4652 55.2227 82.3719 55.2227C82.2786 55.2227 82.1866 55.2446 82.1034 55.2868L80.6892 56.1038Z" fill="#7B6CD7"/>
<path d="M78.2821 57.4922C78.2495 57.5029 78.2212 57.5236 78.2011 57.5513C78.181 57.5791 78.1702 57.6125 78.1702 57.6468C78.1702 57.681 78.181 57.7144 78.2011 57.7422C78.2212 57.77 78.2495 57.7907 78.2821 57.8014L79.5368 58.5321C79.6202 58.5747 79.7125 58.5969 79.8062 58.5969C79.8998 58.5969 79.9921 58.5747 80.0755 58.5321L81.4913 57.7184C81.5245 57.7081 81.5535 57.6874 81.5741 57.6595C81.5947 57.6315 81.6058 57.5977 81.6058 57.563C81.6058 57.5282 81.5947 57.4944 81.5741 57.4665C81.5535 57.4385 81.5245 57.4179 81.4913 57.4076L80.235 56.6768C80.1519 56.6351 80.0602 56.6133 79.9673 56.6133C79.8743 56.6133 79.7826 56.6351 79.6996 56.6768L78.2821 57.4922Z" fill="#7B6CD7"/>
<path d="M75.8818 58.8786C75.8486 58.8889 75.8196 58.9095 75.799 58.9375C75.7784 58.9655 75.7673 58.9993 75.7673 59.034C75.7673 59.0687 75.7784 59.1026 75.799 59.1305C75.8196 59.1585 75.8486 59.1791 75.8818 59.1894L77.1382 59.9185C77.2215 59.9611 77.3139 59.9833 77.4075 59.9833C77.5011 59.9833 77.5934 59.9611 77.6768 59.9185L79.091 59.1048C79.1242 59.0945 79.1532 59.0739 79.1738 59.0459C79.1944 59.0179 79.2055 58.9841 79.2055 58.9494C79.2055 58.9147 79.1944 58.8808 79.1738 58.8529C79.1532 58.8249 79.1242 58.8043 79.091 58.794L77.8347 58.0633C77.7516 58.0207 77.6595 57.9985 77.5662 57.9985C77.4728 57.9985 77.3807 58.0207 77.2976 58.0633L75.8818 58.8786Z" fill="#7B6CD7"/>
<path d="M73.478 60.2668C73.4448 60.2771 73.4158 60.2977 73.3952 60.3257C73.3746 60.3537 73.3635 60.3875 73.3635 60.4222C73.3635 60.4569 73.3746 60.4907 73.3952 60.5187C73.4158 60.5467 73.4448 60.5673 73.478 60.5776L74.7343 61.3067C74.8175 61.3492 74.9095 61.3714 75.0029 61.3714C75.0962 61.3714 75.1883 61.3492 75.2714 61.3067L76.6856 60.493C76.7188 60.4827 76.7478 60.462 76.7684 60.4341C76.789 60.4061 76.8001 60.3723 76.8001 60.3376C76.8001 60.3028 76.789 60.269 76.7684 60.2411C76.7478 60.2131 76.7188 60.1925 76.6856 60.1822L75.4292 59.4514C75.3461 59.4089 75.2541 59.3867 75.1607 59.3867C75.0673 59.3867 74.9753 59.4089 74.8922 59.4514L73.478 60.2668Z" fill="#7B6CD7"/>
<path d="M71.0744 61.655C71.0413 61.6653 71.0123 61.686 70.9917 61.7139C70.9711 61.7419 70.96 61.7757 70.96 61.8104C70.96 61.8452 70.9711 61.879 70.9917 61.907C71.0123 61.9349 71.0413 61.9556 71.0744 61.9659L72.3308 62.6949C72.414 62.7371 72.506 62.7591 72.5993 62.7591C72.6926 62.7591 72.7846 62.7371 72.8678 62.6949L74.2821 61.8812C74.3152 61.8709 74.3442 61.8503 74.3648 61.8223C74.3854 61.7944 74.3965 61.7606 74.3965 61.7258C74.3965 61.6911 74.3854 61.6573 74.3648 61.6293C74.3442 61.6013 74.3152 61.5807 74.2821 61.5704L73.0273 60.8397C72.9442 60.7971 72.8522 60.7749 72.7588 60.7749C72.6654 60.7749 72.5734 60.7971 72.4903 60.8397L71.0744 61.655Z" fill="#7B6CD7"/>
<path d="M68.6706 63.0428C68.6375 63.0531 68.6085 63.0737 68.5879 63.1017C68.5673 63.1297 68.5562 63.1635 68.5562 63.1982C68.5562 63.2329 68.5673 63.2668 68.5879 63.2947C68.6085 63.3227 68.6375 63.3433 68.6706 63.3536L69.927 64.0827C70.0105 64.1249 70.1027 64.1469 70.1963 64.1469C70.2899 64.1469 70.3821 64.1249 70.4656 64.0827L71.8815 63.269C71.9147 63.2587 71.9437 63.2381 71.9643 63.2101C71.9849 63.1822 71.996 63.1483 71.996 63.1136C71.996 63.0789 71.9849 63.045 71.9643 63.0171C71.9437 62.9891 71.9147 62.9685 71.8815 62.9582L70.6251 62.2275C70.5418 62.1858 70.4498 62.1641 70.3566 62.1641C70.2634 62.1641 70.1715 62.1858 70.0881 62.2275L68.6706 63.0428Z" fill="#7B6CD7"/>
<path d="M66.2655 64.4314C66.2329 64.4421 66.2046 64.4628 66.1845 64.4906C66.1644 64.5183 66.1536 64.5517 66.1536 64.586C66.1536 64.6203 66.1644 64.6537 66.1845 64.6814C66.2046 64.7092 66.2329 64.7299 66.2655 64.7406L67.5218 65.4713C67.6049 65.5139 67.697 65.5361 67.7904 65.5361C67.8837 65.5361 67.9758 65.5139 68.0589 65.4713L69.4747 64.6576C69.5079 64.6473 69.5369 64.6267 69.5575 64.5987C69.5781 64.5707 69.5892 64.5369 69.5892 64.5022C69.5892 64.4675 69.5781 64.4336 69.5575 64.4057C69.5369 64.3777 69.5079 64.3571 69.4747 64.3468L68.2184 63.6161C68.135 63.5744 68.0431 63.5527 67.9498 63.5527C67.8566 63.5527 67.7647 63.5744 67.6813 63.6161L66.2655 64.4314Z" fill="#7B6CD7"/>
<path d="M61.5347 67.1619C61.3866 67.2481 61.3833 67.3881 61.5347 67.4727L62.791 68.2034C62.8744 68.246 62.9667 68.2682 63.0603 68.2682C63.154 68.2682 63.2463 68.246 63.3297 68.2034L64.2801 67.655L64.5942 67.4727L66.8465 66.1708C66.8797 66.1605 66.9087 66.1399 66.9293 66.1119C66.9499 66.0839 66.961 66.0501 66.961 66.0154C66.961 65.9807 66.9499 65.9468 66.9293 65.9189C66.9087 65.8909 66.8797 65.8703 66.8465 65.86L65.5902 65.1293C65.5068 65.0876 65.4148 65.0659 65.3216 65.0659C65.2284 65.0659 65.1365 65.0876 65.0531 65.1293L62.8008 66.4312L62.4867 66.6118L61.5347 67.1619Z" fill="#7B6CD7"/>
<path d="M96.5742 49.6982C96.541 49.7085 96.512 49.7292 96.4914 49.7571C96.4708 49.7851 96.4597 49.8189 96.4597 49.8536C96.4597 49.8884 96.4708 49.9222 96.4914 49.9502C96.512 49.9781 96.541 49.9988 96.5742 50.0091L97.8305 50.7398C97.9136 50.7823 98.0057 50.8045 98.0991 50.8045C98.1924 50.8045 98.2845 50.7823 98.3676 50.7398L100.858 49.3011C100.891 49.2908 100.92 49.2702 100.94 49.2422C100.961 49.2143 100.972 49.1805 100.972 49.1457C100.972 49.111 100.961 49.0772 100.94 49.0492C100.92 49.0213 100.891 49.0006 100.858 48.9903L99.6011 48.2612C99.5183 48.2187 99.4266 48.1965 99.3334 48.1965C99.2403 48.1965 99.1486 48.2187 99.0657 48.2612L96.5742 49.6982Z" fill="#7B6CD7"/>
<path d="M94.1949 51.0735C94.1624 51.0842 94.134 51.1049 94.1139 51.1326C94.0938 51.1604 94.083 51.1938 94.083 51.2281C94.083 51.2623 94.0938 51.2957 94.1139 51.3235C94.134 51.3513 94.1624 51.372 94.1949 51.3827L95.4513 52.1134C95.5341 52.1559 95.6259 52.1781 95.719 52.1781C95.8121 52.1781 95.9039 52.1559 95.9867 52.1134L97.4025 51.2997C97.4357 51.2894 97.4647 51.2687 97.4853 51.2408C97.5059 51.2128 97.517 51.179 97.517 51.1443C97.517 51.1095 97.5059 51.0757 97.4853 51.0477C97.4647 51.0198 97.4357 50.9991 97.4025 50.9888L96.1462 50.2581C96.0631 50.2163 95.9714 50.1946 95.8785 50.1946C95.7855 50.1946 95.6938 50.2163 95.6108 50.2581L94.1949 51.0735Z" fill="#7B6CD7"/>
<path d="M91.7895 52.4601C91.7563 52.4704 91.7274 52.4911 91.7068 52.519C91.6862 52.547 91.675 52.5808 91.675 52.6155C91.675 52.6503 91.6862 52.6841 91.7068 52.7121C91.7274 52.74 91.7563 52.7607 91.7895 52.771L93.0459 53.5C93.129 53.5426 93.221 53.5648 93.3144 53.5648C93.4078 53.5648 93.4998 53.5426 93.5829 53.5L94.9971 52.6863C95.0303 52.676 95.0593 52.6554 95.0799 52.6274C95.1005 52.5995 95.1116 52.5657 95.1116 52.5309C95.1116 52.4962 95.1005 52.4624 95.0799 52.4344C95.0593 52.4064 95.0303 52.3858 94.9971 52.3755L93.7408 51.6448C93.6579 51.6023 93.5662 51.5801 93.4731 51.5801C93.3799 51.5801 93.2882 51.6023 93.2053 51.6448L91.7895 52.4601Z" fill="#7B6CD7"/>
<path d="M89.2378 53.9345C89.2046 53.9448 89.1756 53.9654 89.155 53.9934C89.1344 54.0213 89.1233 54.0551 89.1233 54.0899C89.1233 54.1246 89.1344 54.1584 89.155 54.1864C89.1756 54.2143 89.2046 54.235 89.2378 54.2453L90.4941 54.976C90.5772 55.0178 90.6689 55.0395 90.7618 55.0395C90.8548 55.0395 90.9465 55.0178 91.0295 54.976L92.4438 54.1623C92.4769 54.152 92.5059 54.1313 92.5265 54.1034C92.5471 54.0754 92.5582 54.0416 92.5582 54.0069C92.5582 53.9721 92.5471 53.9383 92.5265 53.9104C92.5059 53.8824 92.4769 53.8618 92.4438 53.8515L91.189 53.1208C91.1057 53.0791 91.0137 53.0574 90.9205 53.0574C90.8273 53.0574 90.7354 53.0791 90.652 53.1208L89.2378 53.9345Z" fill="#7B6CD7"/>
<path d="M86.8342 55.3228C86.801 55.3331 86.772 55.3537 86.7514 55.3816C86.7308 55.4096 86.7197 55.4434 86.7197 55.4781C86.7197 55.5129 86.7308 55.5467 86.7514 55.5746C86.772 55.6026 86.801 55.6232 86.8342 55.6335L88.0889 56.3626C88.172 56.4052 88.2641 56.4274 88.3575 56.4274C88.4508 56.4274 88.5429 56.4052 88.626 56.3626L90.0402 55.549C90.0734 55.5387 90.1024 55.518 90.123 55.49C90.1435 55.4621 90.1547 55.4282 90.1547 55.3935C90.1547 55.3588 90.1435 55.3251 90.123 55.2971C90.1024 55.2691 90.0734 55.2484 90.0402 55.2381L88.7838 54.5075C88.7008 54.4657 88.6091 54.4438 88.5161 54.4438C88.4232 54.4438 88.3315 54.4657 88.2484 54.5075L86.8342 55.3228Z" fill="#7B6CD7"/>
<path d="M84.4306 56.7141C84.3975 56.7244 84.3685 56.745 84.3479 56.773C84.3273 56.8009 84.3162 56.8348 84.3162 56.8695C84.3162 56.9042 84.3273 56.9381 84.3479 56.966C84.3685 56.994 84.3975 57.0146 84.4306 57.0249L85.687 57.754C85.7701 57.7966 85.8621 57.8188 85.9555 57.8188C86.0489 57.8188 86.1409 57.7966 86.224 57.754L87.6382 56.9403C87.7863 56.854 87.7896 56.7141 87.6382 56.6278L86.3819 55.8987C86.2988 55.8562 86.2067 55.834 86.1134 55.834C86.02 55.834 85.9279 55.8562 85.8448 55.8987L84.4306 56.7141Z" fill="#7B6CD7"/>
<path d="M82.0251 58.0992C81.9919 58.1095 81.9629 58.1301 81.9424 58.1581C81.9218 58.186 81.9106 58.2199 81.9106 58.2546C81.9106 58.2893 81.9218 58.3231 81.9424 58.3511C81.9629 58.3791 81.9919 58.3997 82.0251 58.41L83.2815 59.1391C83.3646 59.1817 83.4566 59.2038 83.55 59.2038C83.6434 59.2038 83.7354 59.1817 83.8185 59.1391L85.2327 58.3254C85.2659 58.3151 85.2949 58.2945 85.3155 58.2665C85.3361 58.2385 85.3472 58.2047 85.3472 58.17C85.3472 58.1352 85.3361 58.1014 85.3155 58.0735C85.2949 58.0455 85.2659 58.0249 85.2327 58.0146L83.9764 57.2855C83.8933 57.2429 83.8012 57.2207 83.7078 57.2207C83.6145 57.2207 83.5224 57.2429 83.4393 57.2855L82.0251 58.0992Z" fill="#7B6CD7"/>
<path d="M79.6233 59.4806C79.5901 59.4909 79.5611 59.5115 79.5405 59.5395C79.5199 59.5674 79.5088 59.6012 79.5088 59.636C79.5088 59.6707 79.5199 59.7045 79.5405 59.7325C79.5611 59.7605 79.5901 59.7811 79.6233 59.7914L80.8796 60.5221C80.9627 60.5639 81.0543 60.5856 81.1473 60.5856C81.2403 60.5856 81.332 60.5639 81.415 60.5221L82.8292 59.7084C82.8624 59.6981 82.8914 59.6775 82.912 59.6495C82.9326 59.6215 82.9437 59.5877 82.9437 59.553C82.9437 59.5182 82.9326 59.4844 82.912 59.4565C82.8914 59.4285 82.8624 59.4079 82.8292 59.3976L81.5745 58.6668C81.4911 58.6252 81.3992 58.6035 81.306 58.6035C81.2128 58.6035 81.1209 58.6252 81.0375 58.6668L79.6233 59.4806Z" fill="#7B6CD7"/>
<path d="M77.2194 60.8739C77.1863 60.8842 77.1573 60.9048 77.1367 60.9328C77.1161 60.9608 77.105 60.9946 77.105 61.0293C77.105 61.064 77.1161 61.0979 77.1367 61.1258C77.1573 61.1538 77.1863 61.1744 77.2194 61.1847L78.4742 61.9154C78.5576 61.9571 78.6495 61.9788 78.7427 61.9788C78.8359 61.9788 78.9278 61.9571 79.0112 61.9154L80.4254 61.1017C80.4586 61.0914 80.4876 61.0708 80.5082 61.0428C80.5288 61.0149 80.5399 60.981 80.5399 60.9463C80.5399 60.9116 80.5288 60.8778 80.5082 60.8498C80.4876 60.8218 80.4586 60.8012 80.4254 60.7909L79.1691 60.0602C79.086 60.0184 78.9944 59.9966 78.9014 59.9966C78.8084 59.9966 78.7167 60.0184 78.6337 60.0602L77.2194 60.8739Z" fill="#7B6CD7"/>
<path d="M74.8142 62.2618C74.781 62.2721 74.752 62.2927 74.7314 62.3207C74.7108 62.3486 74.6997 62.3825 74.6997 62.4172C74.6997 62.4519 74.7108 62.4857 74.7314 62.5137C74.752 62.5417 74.781 62.5623 74.8142 62.5726L76.0705 63.3017C76.1537 63.3442 76.2457 63.3664 76.3391 63.3664C76.4324 63.3664 76.5245 63.3442 76.6076 63.3017L78.0218 62.488C78.055 62.4777 78.084 62.457 78.1046 62.4291C78.1252 62.4011 78.1363 62.3673 78.1363 62.3326C78.1363 62.2978 78.1252 62.264 78.1046 62.2361C78.084 62.2081 78.055 62.1874 78.0218 62.1771L76.7654 61.4464C76.6822 61.4043 76.5902 61.3823 76.4969 61.3823C76.4036 61.3823 76.3116 61.4043 76.2284 61.4464L74.8142 62.2618Z" fill="#7B6CD7"/>
<path d="M72.4106 63.65C72.3775 63.6603 72.3484 63.6809 72.3278 63.7089C72.3073 63.7368 72.2961 63.7707 72.2961 63.8054C72.2961 63.8401 72.3073 63.8739 72.3278 63.9019C72.3484 63.9299 72.3775 63.9505 72.4106 63.9608L73.667 64.6899C73.7498 64.7324 73.8416 64.7546 73.9347 64.7546C74.0278 64.7546 74.1196 64.7324 74.2024 64.6899L75.6182 63.8762C75.6514 63.8659 75.6804 63.8452 75.701 63.8173C75.7216 63.7893 75.7327 63.7555 75.7327 63.7208C75.7327 63.686 75.7216 63.6522 75.701 63.6242C75.6804 63.5963 75.6514 63.5756 75.6182 63.5653L74.3635 62.8363C74.2804 62.7937 74.1884 62.7715 74.095 62.7715C74.0016 62.7715 73.9096 62.7937 73.8265 62.8363L72.4106 63.65Z" fill="#7B6CD7"/>
<path d="M70.0068 65.0381C69.9736 65.0484 69.9446 65.0691 69.924 65.097C69.9034 65.125 69.8923 65.1588 69.8923 65.1935C69.8923 65.2283 69.9034 65.2621 69.924 65.2901C69.9446 65.318 69.9736 65.3387 70.0068 65.349L71.2632 66.078C71.346 66.1206 71.4377 66.1428 71.5309 66.1428C71.624 66.1428 71.7157 66.1206 71.7986 66.078L73.2144 65.2643C73.2476 65.254 73.2766 65.2334 73.2972 65.2054C73.3178 65.1775 73.3289 65.1436 73.3289 65.1089C73.3289 65.0742 73.3178 65.0404 73.2972 65.0124C73.2766 64.9844 73.2476 64.9638 73.2144 64.9535L71.9581 64.2244C71.8752 64.1819 71.7835 64.1597 71.6903 64.1597C71.5972 64.1597 71.5055 64.1819 71.4226 64.2244L70.0068 65.0381Z" fill="#7B6CD7"/>
<path d="M67.6032 66.4249C67.5701 66.4352 67.5411 66.4559 67.5205 66.4839C67.4999 66.5118 67.4888 66.5456 67.4888 66.5804C67.4888 66.6151 67.4999 66.6488 67.5205 66.6768C67.5411 66.7047 67.5701 66.7255 67.6032 66.7358L68.8596 67.4665C68.943 67.5082 69.0349 67.5299 69.1281 67.5299C69.2213 67.5299 69.3133 67.5082 69.3966 67.4665L70.8108 66.6528C70.844 66.6425 70.873 66.6217 70.8936 66.5938C70.9142 66.5658 70.9253 66.5321 70.9253 66.4974C70.9253 66.4626 70.9142 66.4288 70.8936 66.4009C70.873 66.3729 70.844 66.3522 70.8108 66.3419L69.5545 65.6113C69.4711 65.5696 69.3792 65.5479 69.286 65.5479C69.1928 65.5479 69.1008 65.5696 69.0174 65.6113L67.6032 66.4249Z" fill="#7B6CD7"/>
<path d="M63.8617 68.594C63.7478 68.6591 63.7722 68.7844 63.9203 68.869L65.1766 69.5998C65.248 69.6421 65.3282 69.6673 65.411 69.6732C65.4938 69.6791 65.5768 69.6657 65.6535 69.6339L66.3939 69.2059L66.638 69.066L68.3891 68.0537C68.5047 67.987 68.4803 67.8633 68.3322 67.777L67.0758 67.048C67.0045 67.0056 66.9242 66.9805 66.8414 66.9745C66.7587 66.9686 66.6757 66.982 66.599 67.0138L64.8463 68.0244L64.6038 68.166L63.8617 68.594Z" fill="#7B6CD7"/>
<path d="M98.7112 51.2313C98.5647 51.3175 98.5615 51.4575 98.7112 51.5421L99.9675 52.2728C100.051 52.315 100.143 52.337 100.236 52.337C100.329 52.337 100.421 52.315 100.505 52.2728L103.247 50.6893C103.28 50.679 103.309 50.6584 103.33 50.6304C103.35 50.6025 103.361 50.5687 103.361 50.5339C103.361 50.4992 103.35 50.4654 103.33 50.4374C103.309 50.4095 103.28 50.3888 103.247 50.3785L101.99 49.6494C101.907 49.6069 101.815 49.5847 101.722 49.5847C101.628 49.5847 101.536 49.6069 101.453 49.6494L98.7112 51.2313Z" fill="#7B6CD7"/>
<path d="M96.2829 52.6343C96.2498 52.6446 96.2208 52.6651 96.2002 52.6931C96.1796 52.721 96.1685 52.7549 96.1685 52.7896C96.1685 52.8243 96.1796 52.8582 96.2002 52.8862C96.2208 52.9142 96.2498 52.9347 96.2829 52.945L97.5393 53.6741C97.6221 53.7166 97.7139 53.7388 97.807 53.7388C97.9001 53.7388 97.9919 53.7166 98.0747 53.6741L99.4905 52.8605C99.5243 52.8506 99.554 52.8299 99.5752 52.8018C99.5963 52.7736 99.6077 52.7395 99.6077 52.7042C99.6077 52.669 99.5963 52.6347 99.5752 52.6065C99.554 52.5783 99.5243 52.5579 99.4905 52.548L98.2358 51.8189C98.1524 51.7764 98.0601 51.7542 97.9665 51.7542C97.8728 51.7542 97.7805 51.7764 97.6971 51.8189L96.2829 52.6343Z" fill="#7B6CD7"/>
<path d="M93.8791 54.0222C93.8459 54.0325 93.817 54.0531 93.7964 54.0811C93.7758 54.1091 93.7646 54.1429 93.7646 54.1776C93.7646 54.2124 93.7758 54.2462 93.7964 54.2741C93.817 54.3021 93.8459 54.3227 93.8791 54.333L95.1355 55.0621C95.2183 55.1047 95.3101 55.1269 95.4032 55.1269C95.4963 55.1269 95.5881 55.1047 95.6709 55.0621L97.0867 54.2484C97.1199 54.2381 97.1489 54.2175 97.1695 54.1895C97.1901 54.1616 97.2012 54.1277 97.2012 54.093C97.2012 54.0583 97.1901 54.0245 97.1695 53.9965C97.1489 53.9685 97.1199 53.9479 97.0867 53.9376L95.8304 53.2085C95.7475 53.166 95.6558 53.1438 95.5627 53.1438C95.4696 53.1438 95.3778 53.166 95.295 53.2085L93.8791 54.0222Z" fill="#7B6CD7"/>
<path d="M91.3242 55.4967C91.291 55.507 91.262 55.5276 91.2414 55.5556C91.2208 55.5835 91.2097 55.6174 91.2097 55.6521C91.2097 55.6868 91.2208 55.7206 91.2414 55.7486C91.262 55.7766 91.291 55.7972 91.3242 55.8075L92.5805 56.5366C92.6636 56.5792 92.7557 56.6013 92.8491 56.6013C92.9424 56.6013 93.0345 56.5792 93.1176 56.5366L94.5334 55.7229C94.5666 55.7126 94.5956 55.692 94.6162 55.664C94.6368 55.636 94.6479 55.6022 94.6479 55.5675C94.6479 55.5327 94.6368 55.4989 94.6162 55.471C94.5956 55.443 94.5666 55.4224 94.5334 55.4121L93.2771 54.683C93.194 54.6404 93.1019 54.6182 93.0085 54.6182C92.9152 54.6182 92.8231 54.6404 92.74 54.683L91.3242 55.4967Z" fill="#7B6CD7"/>
<path d="M88.9222 56.8768C88.7741 56.9631 88.7725 57.103 88.9222 57.1876L90.1786 57.9183C90.2614 57.9609 90.3532 57.9831 90.4463 57.9831C90.5394 57.9831 90.6312 57.9609 90.714 57.9183L92.1282 57.1046C92.1614 57.0943 92.1904 57.0737 92.211 57.0457C92.2316 57.0178 92.2427 56.9839 92.2427 56.9492C92.2427 56.9145 92.2316 56.8807 92.211 56.8527C92.1904 56.8247 92.1614 56.8041 92.1282 56.7938L90.8735 56.0647C90.7904 56.0222 90.6983 56 90.605 56C90.5116 56 90.4195 56.0222 90.3364 56.0647L88.9222 56.8768Z" fill="#7B6CD7"/>
<path d="M86.5185 58.2713C86.4854 58.2816 86.4564 58.3022 86.4358 58.3302C86.4152 58.3582 86.4041 58.392 86.4041 58.4267C86.4041 58.4614 86.4152 58.4952 86.4358 58.5232C86.4564 58.5512 86.4854 58.5718 86.5185 58.5821L87.7732 59.3128C87.8564 59.3554 87.9484 59.3776 88.0418 59.3776C88.1351 59.3776 88.2272 59.3554 88.3103 59.3128L89.7245 58.4991C89.7577 58.4888 89.7867 58.4682 89.8073 58.4402C89.8279 58.4122 89.839 58.3784 89.839 58.3437C89.839 58.309 89.8279 58.2752 89.8073 58.2472C89.7867 58.2192 89.7577 58.1986 89.7245 58.1883L88.4681 57.4592C88.3853 57.4166 88.2935 57.3945 88.2004 57.3945C88.1073 57.3945 88.0156 57.4166 87.9327 57.4592L86.5185 58.2713Z" fill="#7B6CD7"/>
<path d="M84.113 59.6595C84.0798 59.6698 84.0508 59.6905 84.0302 59.7184C84.0096 59.7464 83.9985 59.7802 83.9985 59.815C83.9985 59.8497 84.0096 59.8835 84.0302 59.9115C84.0508 59.9394 84.0798 59.9601 84.113 59.9704L85.3694 60.7011C85.4527 60.7428 85.5447 60.7645 85.6379 60.7645C85.7311 60.7645 85.823 60.7428 85.9064 60.7011L87.3206 59.8874C87.4687 59.8011 87.472 59.6612 87.3206 59.5765L86.0643 58.8458C85.981 58.8037 85.8891 58.7817 85.7958 58.7817C85.7024 58.7817 85.6105 58.8037 85.5272 58.8458L84.113 59.6595Z" fill="#7B6CD7"/>
<path d="M81.7095 61.0478C81.6763 61.0581 81.6473 61.0787 81.6267 61.1067C81.6061 61.1346 81.595 61.1684 81.595 61.2032C81.595 61.2379 81.6061 61.2717 81.6267 61.2997C81.6473 61.3277 81.6763 61.3483 81.7095 61.3586L82.9658 62.0893C83.0492 62.131 83.1411 62.1527 83.2343 62.1527C83.3275 62.1527 83.4195 62.131 83.5028 62.0893L84.9171 61.2756C84.9502 61.2653 84.9792 61.2447 84.9998 61.2167C85.0204 61.1887 85.0315 61.1549 85.0315 61.1202C85.0315 61.0854 85.0204 61.0516 84.9998 61.0237C84.9792 60.9957 84.9502 60.9751 84.9171 60.9648L83.6623 60.2357C83.5792 60.1931 83.4872 60.1709 83.3938 60.1709C83.3004 60.1709 83.2084 60.1931 83.1253 60.2357L81.7095 61.0478Z" fill="#7B6CD7"/>
<path d="M79.3075 62.436C79.2749 62.4467 79.2466 62.4674 79.2265 62.4952C79.2064 62.523 79.1956 62.5564 79.1956 62.5906C79.1956 62.6249 79.2064 62.6583 79.2265 62.6861C79.2466 62.7138 79.2749 62.7345 79.3075 62.7452L80.5638 63.4759C80.6467 63.5185 80.7384 63.5407 80.8315 63.5407C80.9247 63.5407 81.0164 63.5185 81.0993 63.4759L82.5135 62.6622C82.5466 62.6519 82.5756 62.6313 82.5962 62.6033C82.6168 62.5754 82.6279 62.5415 82.6279 62.5068C82.6279 62.4721 82.6168 62.4383 82.5962 62.4103C82.5756 62.3823 82.5466 62.3617 82.5135 62.3514L81.2571 61.6223C81.1743 61.5798 81.0825 61.5576 80.9894 61.5576C80.8963 61.5576 80.8045 61.5798 80.7217 61.6223L79.3075 62.436Z" fill="#7B6CD7"/>
<path d="M76.9038 63.8226C76.7541 63.9088 76.7541 64.0488 76.9038 64.1334L78.1601 64.8641C78.2433 64.9067 78.3353 64.9289 78.4287 64.9289C78.522 64.9289 78.6141 64.9067 78.6972 64.8641L80.1114 64.0504C80.1446 64.0401 80.1736 64.0195 80.1942 63.9915C80.2148 63.9635 80.2259 63.9297 80.2259 63.895C80.2259 63.8603 80.2148 63.8265 80.1942 63.7985C80.1736 63.7705 80.1446 63.7499 80.1114 63.7396L78.855 63.0105C78.7722 62.9679 78.6805 62.9458 78.5873 62.9458C78.4942 62.9458 78.4025 62.9679 78.3196 63.0105L76.9038 63.8226Z" fill="#7B6CD7"/>
<path d="M74.4985 65.2108C74.4653 65.2211 74.4363 65.2418 74.4157 65.2697C74.3951 65.2977 74.384 65.3315 74.384 65.3663C74.384 65.401 74.3951 65.4348 74.4157 65.4628C74.4363 65.4907 74.4653 65.5114 74.4985 65.5217L75.7549 66.2524C75.838 66.2949 75.93 66.3171 76.0234 66.3171C76.1168 66.3171 76.2088 66.2949 76.2919 66.2524L77.7061 65.4387C77.7393 65.4284 77.7683 65.4077 77.7889 65.3798C77.8095 65.3518 77.8206 65.318 77.8206 65.2833C77.8206 65.2485 77.8095 65.2147 77.7889 65.1868C77.7683 65.1588 77.7393 65.1381 77.7061 65.1278L76.4498 64.3988C76.3666 64.3562 76.2746 64.334 76.1812 64.334C76.0879 64.334 75.9958 64.3562 75.9127 64.3988L74.4985 65.2108Z" fill="#7B6CD7"/>
<path d="M72.0981 66.5991C72.0649 66.6094 72.0359 66.63 72.0153 66.658C71.9948 66.6859 71.9836 66.7198 71.9836 66.7545C71.9836 66.7892 71.9948 66.8231 72.0153 66.851C72.0359 66.879 72.0649 66.8996 72.0981 66.9099L73.3545 67.6406C73.4375 67.6824 73.5292 67.7042 73.6222 67.7042C73.7151 67.7042 73.8068 67.6824 73.8899 67.6406L75.3057 66.8269C75.3383 66.8162 75.3666 66.7955 75.3867 66.7677C75.4068 66.74 75.4176 66.7066 75.4176 66.6723C75.4176 66.638 75.4068 66.6047 75.3867 66.5769C75.3666 66.5491 75.3383 66.5284 75.3057 66.5177L74.051 65.787C73.9679 65.7444 73.8758 65.7222 73.7825 65.7222C73.6891 65.7222 73.5971 65.7444 73.5139 65.787L72.0981 66.5991Z" fill="#7B6CD7"/>
<path d="M66.3843 69.8958C66.1956 70.0048 66.1614 70.1627 66.3095 70.249L67.5642 70.9797C67.6625 71.0206 67.7691 71.038 67.8754 71.0304C67.9816 71.0227 68.0846 70.9903 68.1761 70.9357L69.3836 70.2392L69.784 70.0081L72.6482 68.3547C72.837 68.244 72.8712 68.0861 72.7231 68.0015L71.4667 67.2708C71.369 67.23 71.263 67.2125 71.1574 67.2199C71.0517 67.2272 70.9492 67.2592 70.8581 67.3131L67.9922 68.9682L67.5935 69.1976L66.3843 69.8958Z" fill="#7B6CD7"/>
<path d="M100.2 53.1337C100.167 53.144 100.138 53.1646 100.117 53.1926C100.097 53.2205 100.085 53.2543 100.085 53.2891C100.085 53.3238 100.097 53.3576 100.117 53.3856C100.138 53.4136 100.167 53.4342 100.2 53.4445L101.455 54.1736C101.538 54.2161 101.63 54.2383 101.723 54.2383C101.817 54.2383 101.909 54.2161 101.992 54.1736L105.634 52.071C105.667 52.0607 105.696 52.04 105.717 52.0121C105.737 51.9841 105.748 51.9503 105.748 51.9155C105.748 51.8808 105.737 51.847 105.717 51.819C105.696 51.7911 105.667 51.7704 105.634 51.7601L104.379 51.031C104.296 50.9885 104.204 50.9663 104.111 50.9663C104.017 50.9663 103.925 50.9885 103.842 51.031L100.2 53.1337Z" fill="#7B6CD7"/>
<path d="M97.6189 54.6292C97.5857 54.6395 97.5567 54.6602 97.5361 54.6882C97.5155 54.7161 97.5044 54.7499 97.5044 54.7847C97.5044 54.8194 97.5155 54.8532 97.5361 54.8812C97.5567 54.9091 97.5857 54.9298 97.6189 54.9401L98.8752 55.6708C98.9586 55.7125 99.0505 55.7342 99.1437 55.7342C99.237 55.7342 99.3289 55.7125 99.4123 55.6708L100.828 54.8571C100.861 54.8468 100.89 54.8261 100.911 54.7982C100.931 54.7702 100.943 54.7364 100.943 54.7017C100.943 54.6669 100.931 54.6331 100.911 54.6052C100.89 54.5772 100.861 54.5566 100.828 54.5463L99.5717 53.8172C99.4886 53.7746 99.3966 53.7524 99.3032 53.7524C99.2099 53.7524 99.1178 53.7746 99.0347 53.8172L97.6189 54.6292Z" fill="#7B6CD7"/>
<path d="M95.0656 56.1039C95.0325 56.1142 95.0035 56.1348 94.9829 56.1628C94.9623 56.1907 94.9512 56.2246 94.9512 56.2593C94.9512 56.294 94.9623 56.3278 94.9829 56.3558C95.0035 56.3838 95.0325 56.4043 95.0656 56.4146L96.322 57.1454C96.405 57.1872 96.4967 57.209 96.5897 57.209C96.6827 57.209 96.7744 57.1872 96.8574 57.1454L98.2732 56.3316C98.3058 56.3209 98.3342 56.3002 98.3543 56.2724C98.3744 56.2447 98.3852 56.2113 98.3852 56.177C98.3852 56.1427 98.3744 56.1093 98.3543 56.0816C98.3342 56.0538 98.3058 56.0331 98.2732 56.0224L97.0169 55.2917C96.9341 55.2492 96.8423 55.2271 96.7492 55.2271C96.6561 55.2271 96.5643 55.2492 96.4815 55.2917L95.0656 56.1039Z" fill="#7B6CD7"/>
<path d="M92.6621 57.4917C92.6289 57.502 92.5999 57.5227 92.5793 57.5506C92.5587 57.5786 92.5476 57.6124 92.5476 57.6471C92.5476 57.6819 92.5587 57.7157 92.5793 57.7437C92.5999 57.7716 92.6289 57.7923 92.6621 57.8026L93.9184 58.5317C94.0015 58.5742 94.0936 58.5964 94.187 58.5964C94.2803 58.5964 94.3724 58.5742 94.4555 58.5317L95.8697 57.718C95.9028 57.7076 95.9319 57.687 95.9525 57.659C95.9731 57.6311 95.9842 57.5973 95.9842 57.5625C95.9842 57.5278 95.9731 57.494 95.9525 57.466C95.9319 57.438 95.9028 57.4174 95.8697 57.4071L94.6133 56.678C94.5305 56.6355 94.4387 56.6133 94.3456 56.6133C94.2525 56.6133 94.1608 56.6355 94.0779 56.678L92.6621 57.4917Z" fill="#7B6CD7"/>
<path d="M90.2582 58.8799C90.2256 58.8906 90.1973 58.9113 90.1772 58.9391C90.1571 58.9669 90.1462 59.0003 90.1462 59.0345C90.1462 59.0688 90.1571 59.1022 90.1772 59.13C90.1973 59.1577 90.2256 59.1784 90.2582 59.1891L91.5145 59.9198C91.5976 59.9624 91.6897 59.9846 91.783 59.9846C91.8764 59.9846 91.9685 59.9624 92.0516 59.9198L93.4658 59.1061C93.499 59.0958 93.528 59.0752 93.5486 59.0472C93.5691 59.0193 93.5803 58.9855 93.5803 58.9507C93.5803 58.916 93.5691 58.8822 93.5486 58.8542C93.528 58.8263 93.499 58.8056 93.4658 58.7953L92.2094 58.0662C92.1263 58.0237 92.0343 58.0015 91.9409 58.0015C91.8475 58.0015 91.7555 58.0237 91.6724 58.0662L90.2582 58.8799Z" fill="#7B6CD7"/>
<path d="M87.8546 60.2667C87.7065 60.3529 87.7049 60.4929 87.8546 60.5775L89.111 61.3082C89.1938 61.3507 89.2856 61.3729 89.3787 61.3729C89.4718 61.3729 89.5636 61.3507 89.6464 61.3082L91.0606 60.4945C91.2103 60.4082 91.2119 60.2699 91.0606 60.1837L89.8042 59.453C89.7211 59.4104 89.6291 59.3882 89.5357 59.3882C89.4423 59.3882 89.3503 59.4104 89.2672 59.453L87.8546 60.2667Z" fill="#7B6CD7"/>
<path d="M85.4509 61.6548C85.4177 61.6651 85.3887 61.6858 85.3681 61.7137C85.3475 61.7417 85.3364 61.7755 85.3364 61.8103C85.3364 61.845 85.3475 61.8788 85.3681 61.9068C85.3887 61.9347 85.4177 61.9554 85.4509 61.9657L86.7056 62.6964C86.7887 62.7389 86.8808 62.7611 86.9742 62.7611C87.0675 62.7611 87.1596 62.7389 87.2427 62.6964L88.6585 61.8827C88.8066 61.7964 88.8082 61.6565 88.6585 61.5718L87.4022 60.8411C87.3193 60.7986 87.2276 60.7764 87.1345 60.7764C87.0413 60.7764 86.9496 60.7986 86.8667 60.8411L85.4509 61.6548Z" fill="#7B6CD7"/>
<path d="M83.0471 63.0429C83.0139 63.0532 82.9849 63.0739 82.9643 63.1018C82.9437 63.1298 82.9326 63.1636 82.9326 63.1983C82.9326 63.2331 82.9437 63.2669 82.9643 63.2948C82.9849 63.3228 83.0139 63.3436 83.0471 63.3539L84.3034 64.0829C84.3865 64.1255 84.4786 64.1476 84.572 64.1476C84.6653 64.1476 84.7574 64.1255 84.8405 64.0829L86.2547 63.2691C86.2879 63.2588 86.3169 63.2383 86.3375 63.2103C86.358 63.1824 86.3692 63.1485 86.3692 63.1138C86.3692 63.0791 86.358 63.0453 86.3375 63.0173C86.3169 62.9893 86.2879 62.9687 86.2547 62.9584L84.9983 62.2293C84.9152 62.1868 84.8232 62.1646 84.7298 62.1646C84.6364 62.1646 84.5444 62.1868 84.4613 62.2293L83.0471 63.0429Z" fill="#7B6CD7"/>
<path d="M80.6435 64.4312C80.6104 64.4415 80.5814 64.4621 80.5608 64.4901C80.5402 64.5181 80.5291 64.5519 80.5291 64.5866C80.5291 64.6213 80.5402 64.6552 80.5608 64.6831C80.5814 64.7111 80.6104 64.7317 80.6435 64.742L81.8999 65.4711C81.9827 65.5137 82.0745 65.5358 82.1676 65.5358C82.2607 65.5358 82.3525 65.5137 82.4353 65.4711L83.8495 64.6574C83.8827 64.6471 83.9117 64.6265 83.9323 64.5985C83.9529 64.5705 83.964 64.5367 83.964 64.502C83.964 64.4673 83.9529 64.4334 83.9323 64.4055C83.9117 64.3775 83.8827 64.3569 83.8495 64.3466L82.5948 63.6175C82.5117 63.5749 82.4196 63.5527 82.3262 63.5527C82.2329 63.5527 82.1408 63.5749 82.0577 63.6175L80.6435 64.4312Z" fill="#7B6CD7"/>
<path d="M78.2399 65.8276C78.2073 65.8383 78.1789 65.859 78.1588 65.8868C78.1387 65.9146 78.1279 65.9479 78.1279 65.9822C78.1279 66.0165 78.1387 66.0499 78.1588 66.0776C78.1789 66.1054 78.2073 66.1261 78.2399 66.1368L79.4946 66.8675C79.5777 66.9101 79.6697 66.9323 79.7631 66.9323C79.8565 66.9323 79.9485 66.9101 80.0316 66.8675L81.4458 66.0538C81.479 66.0435 81.508 66.0229 81.5286 65.9949C81.5492 65.967 81.5603 65.9331 81.5603 65.8984C81.5603 65.8637 81.5492 65.8298 81.5286 65.8019C81.508 65.7739 81.479 65.7533 81.4458 65.743L80.1895 65.0139C80.1067 64.9714 80.0149 64.9492 79.9218 64.9492C79.8287 64.9492 79.7369 64.9714 79.6541 65.0139L78.2399 65.8276Z" fill="#7B6CD7"/>
<path d="M75.8411 67.206C75.6913 67.2923 75.6913 67.4322 75.8411 67.5169L77.0974 68.2476C77.1805 68.2901 77.2726 68.3123 77.3659 68.3123C77.4593 68.3123 77.5513 68.2901 77.6345 68.2476L79.0503 67.4339C79.1984 67.3476 79.2 67.2077 79.0503 67.123L77.7939 66.3923C77.7108 66.3498 77.6188 66.3276 77.5254 66.3276C77.432 66.3276 77.34 66.3498 77.2569 66.3923L75.8411 67.206Z" fill="#7B6CD7"/>
<path d="M70.933 70.0375C70.7702 70.1319 70.754 70.28 70.9021 70.363L72.1568 71.0937C72.2459 71.1357 72.3437 71.1559 72.4421 71.1528C72.5406 71.1497 72.6369 71.1233 72.7231 71.0758L73.7809 70.4655L74.1276 70.2653L76.6322 68.8186C76.7949 68.7242 76.8112 68.5777 76.6647 68.4931L75.4083 67.7624C75.319 67.7212 75.2214 67.7013 75.1231 67.7044C75.0248 67.7075 74.9285 67.7335 74.842 67.7803L72.3374 69.2254L71.9908 69.4272L70.933 70.0375Z" fill="#7B6CD7"/>
<path d="M68.6999 71.3265C68.5518 71.4128 68.5486 71.5511 68.6999 71.6374L69.9563 72.3681C70.0395 72.4102 70.1315 72.4322 70.2248 72.4322C70.3181 72.4322 70.4101 72.4102 70.4933 72.3681L71.709 71.6667C71.7422 71.6564 71.7712 71.6357 71.7918 71.6078C71.8124 71.5798 71.8235 71.546 71.8235 71.5112C71.8235 71.4765 71.8124 71.4427 71.7918 71.4147C71.7712 71.3868 71.7422 71.3661 71.709 71.3558L70.4527 70.6267C70.3695 70.5842 70.2775 70.562 70.1841 70.562C70.0908 70.562 69.9987 70.5842 69.9156 70.6267L68.6999 71.3265Z" fill="#7B6CD7"/>
<path d="M104.588 53.5439C104.554 53.5537 104.524 53.5743 104.503 53.6025C104.482 53.6306 104.47 53.6649 104.47 53.7001C104.47 53.7353 104.482 53.7696 104.503 53.7977C104.524 53.8259 104.554 53.8465 104.588 53.8563L105.844 54.5854C105.927 54.628 106.019 54.6502 106.113 54.6502C106.206 54.6502 106.298 54.628 106.381 54.5854L108.171 53.552C108.204 53.5417 108.233 53.5211 108.254 53.4931C108.275 53.4651 108.286 53.4313 108.286 53.3966C108.286 53.3619 108.275 53.328 108.254 53.3001C108.233 53.2721 108.204 53.2515 108.171 53.2412L106.915 52.5121C106.831 52.4695 106.739 52.4473 106.645 52.4473C106.552 52.4473 106.46 52.4695 106.376 52.5121L104.588 53.5439Z" fill="#7B6CD7"/>
<path d="M102.109 54.976C102.076 54.9863 102.047 55.0069 102.026 55.0349C102.006 55.0629 101.995 55.0967 101.995 55.1314C101.995 55.1661 102.006 55.2 102.026 55.2279C102.047 55.2559 102.076 55.2765 102.109 55.2868L103.365 56.0175C103.449 56.0592 103.541 56.0809 103.634 56.0809C103.727 56.0809 103.819 56.0592 103.902 56.0175L105.317 55.2038C105.35 55.1935 105.379 55.1729 105.399 55.1449C105.42 55.117 105.431 55.0831 105.431 55.0484C105.431 55.0137 105.42 54.9799 105.399 54.9519C105.379 54.9239 105.35 54.9033 105.317 54.893L104.06 54.1623C103.977 54.1201 103.885 54.0981 103.791 54.0981C103.697 54.0981 103.605 54.1201 103.522 54.1623L102.109 54.976Z" fill="#7B6CD7"/>
<path d="M99.5556 56.4506C99.5225 56.4609 99.4935 56.4816 99.4729 56.5095C99.4523 56.5375 99.4412 56.5713 99.4412 56.606C99.4412 56.6408 99.4523 56.6746 99.4729 56.7026C99.4935 56.7305 99.5225 56.7512 99.5556 56.7615L100.81 57.4922C100.894 57.5339 100.986 57.5556 101.079 57.5556C101.172 57.5556 101.264 57.5339 101.347 57.4922L102.762 56.6785C102.795 56.6682 102.824 56.6475 102.844 56.6196C102.865 56.5916 102.876 56.5578 102.876 56.523C102.876 56.4883 102.865 56.4545 102.844 56.4265C102.824 56.3986 102.795 56.3779 102.762 56.3676L101.505 55.6369C101.422 55.5948 101.33 55.5728 101.237 55.5728C101.143 55.5728 101.051 55.5948 100.968 55.6369L99.5556 56.4506Z" fill="#7B6CD7"/>
<path d="M97.1601 57.8385C97.127 57.8488 97.098 57.8694 97.0774 57.8974C97.0568 57.9254 97.0457 57.9592 97.0457 57.9939C97.0457 58.0286 97.0568 58.0625 97.0774 58.0904C97.098 58.1184 97.127 58.139 97.1601 58.1493L98.4165 58.88C98.4998 58.9217 98.5918 58.9434 98.685 58.9434C98.7782 58.9434 98.8701 58.9217 98.9535 58.88L100.368 58.0663C100.516 57.9801 100.519 57.8401 100.368 57.7539L99.1114 57.0248C99.028 56.9822 98.9357 56.96 98.842 56.96C98.7484 56.96 98.6561 56.9822 98.5727 57.0248L97.1601 57.8385Z" fill="#7B6CD7"/>
<path d="M85.132 64.778C85.0989 64.7883 85.0699 64.8089 85.0493 64.8369C85.0287 64.8648 85.0176 64.8986 85.0176 64.9334C85.0176 64.9681 85.0287 65.0019 85.0493 65.0299C85.0699 65.0578 85.0989 65.0785 85.132 65.0888L86.3884 65.8195C86.4715 65.8613 86.5631 65.883 86.6561 65.883C86.7491 65.883 86.8408 65.8613 86.9238 65.8195L89.3291 64.4313L90.7433 63.6176L91.7328 63.0464L93.147 62.2327L94.1365 61.6615L95.5507 60.8478L96.5401 60.2765L96.877 60.0829L97.9544 59.4596C97.9875 59.4493 98.0165 59.4286 98.0371 59.4007C98.0577 59.3727 98.0688 59.3389 98.0688 59.3042C98.0688 59.2694 98.0577 59.2356 98.0371 59.2076C98.0165 59.1797 97.9875 59.159 97.9544 59.1487L96.698 58.4197C96.6145 58.3775 96.5222 58.3555 96.4287 58.3555C96.3351 58.3555 96.2428 58.3775 96.1593 58.4197L95.082 59.043L94.7435 59.2383L93.7557 59.8079L92.3414 60.6216L91.352 61.1928L89.9378 62.0065L88.9483 62.5777L87.5341 63.3914L85.132 64.778Z" fill="#7B6CD7"/>
<path d="M82.4289 66.3385C82.3958 66.3488 82.3668 66.3694 82.3462 66.3974C82.3256 66.4254 82.3145 66.4592 82.3145 66.4939C82.3145 66.5286 82.3256 66.5625 82.3462 66.5904C82.3668 66.6184 82.3958 66.639 82.4289 66.6493L83.6853 67.38C83.7684 67.4226 83.8604 67.4448 83.9538 67.4448C84.0472 67.4448 84.1392 67.4226 84.2223 67.38L85.6382 66.5663C85.6713 66.556 85.7003 66.5354 85.7209 66.5074C85.7415 66.4795 85.7526 66.4456 85.7526 66.4109C85.7526 66.3762 85.7415 66.3424 85.7209 66.3144C85.7003 66.2864 85.6713 66.2658 85.6382 66.2555L84.3818 65.5248C84.2984 65.4822 84.2061 65.46 84.1125 65.46C84.0188 65.46 83.9265 65.4822 83.8431 65.5248L82.4289 66.3385Z" fill="#7B6CD7"/>
<path d="M80.0234 67.7266C79.9902 67.7369 79.9612 67.7575 79.9406 67.7855C79.92 67.8135 79.9089 67.8473 79.9089 67.882C79.9089 67.9167 79.92 67.9505 79.9406 67.9785C79.9612 68.0065 79.9902 68.0271 80.0234 68.0374L81.2798 68.7682C81.3627 68.8104 81.4544 68.8323 81.5475 68.8323C81.6405 68.8323 81.7322 68.8104 81.8152 68.7682L83.231 67.9544C83.2642 67.9441 83.2932 67.9235 83.3138 67.8955C83.3344 67.8675 83.3455 67.8337 83.3455 67.799C83.3455 67.7643 83.3344 67.7305 83.3138 67.7025C83.2932 67.6745 83.2642 67.6539 83.231 67.6436L81.9763 66.9129C81.8929 66.8703 81.8006 66.8481 81.707 66.8481C81.6133 66.8481 81.521 66.8703 81.4376 66.9129L80.0234 67.7266Z" fill="#7B6CD7"/>
<path d="M75.4864 70.3468C75.34 70.4315 75.3449 70.5682 75.4864 70.6544L76.7428 71.3835C76.8247 71.4252 76.9153 71.447 77.0073 71.447C77.0992 71.447 77.1898 71.4252 77.2717 71.3835L78.1993 70.8481L78.5053 70.6707L80.7023 69.4029C80.8487 69.3183 80.8455 69.1816 80.7023 69.0953L79.4459 68.3663C79.3639 68.3241 79.2729 68.3022 79.1807 68.3022C79.0884 68.3022 78.9975 68.3241 78.9154 68.3663L76.7184 69.634L76.4124 69.8114L75.4864 70.3468Z" fill="#7B6CD7"/>
<path d="M73.3398 71.587C73.3066 71.5973 73.2776 71.6179 73.257 71.6459C73.2365 71.6739 73.2253 71.7077 73.2253 71.7424C73.2253 71.7771 73.2365 71.8109 73.257 71.8389C73.2776 71.8669 73.3066 71.8875 73.3398 71.8978L74.5962 72.6269C74.6793 72.6695 74.7713 72.6916 74.8647 72.6916C74.9581 72.6916 75.0501 72.6695 75.1332 72.6269L76.2968 71.9548C76.3294 71.9441 76.3577 71.9234 76.3778 71.8956C76.3979 71.8678 76.4087 71.8344 76.4087 71.8002C76.4087 71.7659 76.3979 71.7325 76.3778 71.7048C76.3577 71.677 76.3294 71.6563 76.2968 71.6456L75.0404 70.9149C74.9573 70.8723 74.8653 70.8501 74.7719 70.8501C74.6786 70.8501 74.5865 70.8723 74.5034 70.9149L73.3398 71.587Z" fill="#7B6CD7"/>
<path d="M71.237 72.7994C71.2032 72.8093 71.1735 72.8298 71.1524 72.858C71.1313 72.8861 71.1199 72.9204 71.1199 72.9556C71.1199 72.9908 71.1313 73.0251 71.1524 73.0533C71.1735 73.0814 71.2032 73.102 71.237 73.1119L72.4934 73.8426C72.5768 73.8851 72.6691 73.9073 72.7627 73.9073C72.8564 73.9073 72.9487 73.8851 73.0321 73.8426L74.1957 73.1704C74.2288 73.1601 74.2578 73.1395 74.2784 73.1115C74.299 73.0836 74.3101 73.0498 74.3101 73.015C74.3101 72.9803 74.299 72.9465 74.2784 72.9185C74.2578 72.8905 74.2288 72.8699 74.1957 72.8596L72.9393 72.1305C72.8561 72.0884 72.7641 72.0664 72.6708 72.0664C72.5775 72.0664 72.4855 72.0884 72.4023 72.1305L71.237 72.7994Z" fill="#7B6CD7"/>
<path d="M55.5246 70.6317C55.4915 70.642 55.4625 70.6627 55.4419 70.6906C55.4213 70.7186 55.4102 70.7524 55.4102 70.7871C55.4102 70.8219 55.4213 70.8557 55.4419 70.8836C55.4625 70.9116 55.4915 70.9323 55.5246 70.9426L56.781 71.6733C56.8642 71.7154 56.9562 71.7374 57.0495 71.7374C57.1428 71.7374 57.2348 71.7154 57.318 71.6733L58.5825 70.9442C58.6163 70.9343 58.646 70.9137 58.6671 70.8856C58.6883 70.8574 58.6997 70.8232 58.6997 70.7879C58.6997 70.7527 58.6883 70.7185 58.6671 70.6903C58.646 70.6621 58.6163 70.6416 58.5825 70.6317L57.3261 69.9026C57.2433 69.8601 57.1516 69.8379 57.0584 69.8379C56.9653 69.8379 56.8736 69.8601 56.7907 69.9026L55.5246 70.6317Z" fill="#7B6CD7"/>
<path d="M53.2707 71.9337C53.2376 71.944 53.2086 71.9647 53.188 71.9927C53.1674 72.0206 53.1562 72.0544 53.1562 72.0892C53.1562 72.1239 53.1674 72.1577 53.188 72.1857C53.2086 72.2136 53.2376 72.2343 53.2707 72.2446L54.5271 72.9737C54.6102 73.0162 54.7023 73.0384 54.7957 73.0384C54.8891 73.0384 54.981 73.0162 55.0641 72.9737L56.3302 72.243C56.364 72.2331 56.3938 72.2125 56.415 72.1844C56.4361 72.1562 56.4474 72.1219 56.4474 72.0867C56.4474 72.0515 56.4361 72.0172 56.415 71.9891C56.3938 71.9609 56.364 71.9403 56.3302 71.9305L55.0739 71.2014C54.9911 71.1589 54.8993 71.1367 54.8062 71.1367C54.7131 71.1367 54.6214 71.1589 54.5386 71.2014L53.2707 71.9337Z" fill="#7B6CD7"/>
<path d="M60.1676 70.7197C60.135 70.7304 60.1067 70.7511 60.0866 70.7789C60.0665 70.8066 60.0557 70.84 60.0557 70.8743C60.0557 70.9086 60.0665 70.942 60.0866 70.9697C60.1067 70.9975 60.135 71.0182 60.1676 71.0289L61.4223 71.7596C61.5054 71.8022 61.5975 71.8244 61.6909 71.8244C61.7842 71.8244 61.8762 71.8022 61.9594 71.7596L63.2239 71.0289C63.2564 71.0182 63.2848 70.9975 63.3049 70.9697C63.325 70.942 63.3358 70.9086 63.3358 70.8743C63.3358 70.84 63.325 70.8066 63.3049 70.7789C63.2848 70.7511 63.2564 70.7304 63.2239 70.7197L61.9675 69.989C61.8847 69.9464 61.7929 69.9243 61.6998 69.9243C61.6067 69.9243 61.5149 69.9464 61.4321 69.989L60.1676 70.7197Z" fill="#7B6CD7"/>
<path d="M57.9135 72.0199C57.8804 72.0302 57.8514 72.0508 57.8308 72.0788C57.8102 72.1068 57.7991 72.1406 57.7991 72.1753C57.7991 72.21 57.8102 72.2439 57.8308 72.2718C57.8514 72.2998 57.8804 72.3204 57.9135 72.3307L59.1683 73.0614C59.2517 73.1031 59.3436 73.1248 59.4368 73.1248C59.53 73.1248 59.6219 73.1031 59.7053 73.0614L60.9698 72.3307C61.003 72.3204 61.032 72.2998 61.0526 72.2718C61.0732 72.2439 61.0843 72.21 61.0843 72.1753C61.0843 72.1406 61.0732 72.1068 61.0526 72.0788C61.032 72.0508 61.003 72.0302 60.9698 72.0199L59.7135 71.2908C59.6306 71.2483 59.5389 71.2261 59.4457 71.2261C59.3526 71.2261 59.2609 71.2483 59.178 71.2908L57.9135 72.0199Z" fill="#7B6CD7"/>
<path d="M55.6613 73.3219C55.6282 73.3322 55.5992 73.3528 55.5786 73.3808C55.558 73.4088 55.5469 73.4426 55.5469 73.4773C55.5469 73.512 55.558 73.5459 55.5786 73.5738C55.5992 73.6018 55.6282 73.6224 55.6613 73.6327L56.9161 74.3618C56.9992 74.4044 57.0912 74.4266 57.1846 74.4266C57.278 74.4266 57.37 74.4044 57.4531 74.3618L58.7192 73.6311C58.7524 73.6208 58.7814 73.6002 58.802 73.5722C58.8226 73.5442 58.8337 73.5104 58.8337 73.4757C58.8337 73.441 58.8226 73.4071 58.802 73.3792C58.7814 73.3512 58.7524 73.3306 58.7192 73.3203L57.4629 72.5912C57.3798 72.5486 57.2877 72.5264 57.1944 72.5264C57.101 72.5264 57.0089 72.5486 56.9258 72.5912L55.6613 73.3219Z" fill="#7B6CD7"/>
<path d="M62.555 72.1058C62.4069 72.1921 62.4053 72.332 62.555 72.4167L63.8114 73.1474C63.8945 73.1899 63.9865 73.2121 64.0799 73.2121C64.1733 73.2121 64.2653 73.1899 64.3484 73.1474L65.6129 72.4167C65.6461 72.4063 65.6751 72.3857 65.6957 72.3577C65.7163 72.3298 65.7274 72.296 65.7274 72.2612C65.7274 72.2265 65.7163 72.1927 65.6957 72.1647C65.6751 72.1368 65.6461 72.1161 65.6129 72.1058L64.3566 71.3767C64.2735 71.3342 64.1814 71.312 64.0881 71.312C63.9947 71.312 63.9026 71.3342 63.8195 71.3767L62.555 72.1058Z" fill="#7B6CD7"/>
<path d="M60.301 73.4082C60.2678 73.4185 60.2388 73.4391 60.2182 73.4671C60.1976 73.495 60.1865 73.5289 60.1865 73.5636C60.1865 73.5983 60.1976 73.6321 60.2182 73.6601C60.2388 73.6881 60.2678 73.7087 60.301 73.719L61.5573 74.4497C61.6407 74.4914 61.7327 74.5131 61.8259 74.5131C61.9191 74.5131 62.011 74.4914 62.0944 74.4497L63.3573 73.719C63.3904 73.7087 63.4194 73.6881 63.44 73.6601C63.4606 73.6321 63.4717 73.5983 63.4717 73.5636C63.4717 73.5289 63.4606 73.495 63.44 73.4671C63.4194 73.4391 63.3904 73.4185 63.3573 73.4082L62.1009 72.6791C62.0178 72.6365 61.9258 72.6143 61.8324 72.6143C61.739 72.6143 61.647 72.6365 61.5639 72.6791L60.301 73.4082Z" fill="#7B6CD7"/>
<path d="M58.0471 74.7101C58.0139 74.7204 57.9849 74.741 57.9643 74.769C57.9437 74.797 57.9326 74.8308 57.9326 74.8655C57.9326 74.9002 57.9437 74.934 57.9643 74.962C57.9849 74.99 58.0139 75.0106 58.0471 75.0209L59.3034 75.75C59.3865 75.7925 59.4786 75.8147 59.572 75.8147C59.6653 75.8147 59.7574 75.7925 59.8405 75.75L61.105 75.0192C61.1381 75.0089 61.1671 74.9883 61.1877 74.9604C61.2083 74.9324 61.2194 74.8986 61.2194 74.8639C61.2194 74.8291 61.2083 74.7952 61.1877 74.7673C61.1671 74.7393 61.1381 74.7187 61.105 74.7084L59.8502 73.9794C59.7671 73.9368 59.6751 73.9146 59.5817 73.9146C59.4883 73.9146 59.3963 73.9368 59.3132 73.9794L58.0471 74.7101Z" fill="#7B6CD7"/>
<path d="M51.0183 73.2337C50.9851 73.244 50.9561 73.2647 50.9355 73.2926C50.9149 73.3206 50.9038 73.3544 50.9038 73.3891C50.9038 73.4239 50.9149 73.4577 50.9355 73.4856C50.9561 73.5136 50.9851 73.5343 51.0183 73.5446L52.2746 74.2753C52.3579 74.3174 52.4498 74.3394 52.5432 74.3394C52.6365 74.3394 52.7285 74.3174 52.8117 74.2753L54.0762 73.5446C54.1093 73.5343 54.1383 73.5136 54.1589 73.4856C54.1795 73.4577 54.1906 73.4239 54.1906 73.3891C54.1906 73.3544 54.1795 73.3206 54.1589 73.2926C54.1383 73.2647 54.1093 73.244 54.0762 73.2337L52.8198 72.5046C52.737 72.4621 52.6452 72.4399 52.5521 72.4399C52.459 72.4399 52.3672 72.4621 52.2844 72.5046L51.0183 73.2337Z" fill="#7B6CD7"/>
<path d="M53.4057 74.6157C53.3726 74.626 53.3436 74.6466 53.323 74.6746C53.3024 74.7025 53.2913 74.7363 53.2913 74.7711C53.2913 74.8058 53.3024 74.8396 53.323 74.8676C53.3436 74.8956 53.3726 74.9162 53.4057 74.9265L54.252 75.4147L54.6621 75.6523L57.0511 77.0405C57.1339 77.083 57.2257 77.1052 57.3188 77.1052C57.4119 77.1052 57.5037 77.083 57.5865 77.0405L58.851 76.3114C58.8842 76.3011 58.9132 76.2805 58.9338 76.2525C58.9544 76.2245 58.9655 76.1907 58.9655 76.156C58.9655 76.1213 58.9544 76.0875 58.9338 76.0595C58.9132 76.0315 58.8842 76.0109 58.851 76.0006L56.4636 74.6124L56.0535 74.3748L55.2073 73.8866C55.1239 73.8449 55.032 73.8232 54.9387 73.8232C54.8455 73.8232 54.7536 73.8449 54.6702 73.8866L53.4057 74.6157Z" fill="#7B6CD7"/>
<path d="M64.9375 73.494C64.9043 73.5043 64.8753 73.5249 64.8547 73.5529C64.8341 73.5809 64.823 73.6147 64.823 73.6494C64.823 73.6841 64.8341 73.718 64.8547 73.7459C64.8753 73.7739 64.9043 73.7945 64.9375 73.8048L66.1938 74.5355C66.2766 74.5781 66.3684 74.6003 66.4615 74.6003C66.5546 74.6003 66.6464 74.5781 66.7292 74.5355L67.9937 73.8048C68.0269 73.7945 68.0559 73.7739 68.0765 73.7459C68.0971 73.718 68.1082 73.6841 68.1082 73.6494C68.1082 73.6147 68.0971 73.5809 68.0765 73.5529C68.0559 73.5249 68.0269 73.5043 67.9937 73.494L66.7374 72.7649C66.6546 72.7224 66.5628 72.7002 66.4697 72.7002C66.3766 72.7002 66.2848 72.7224 66.202 72.7649L64.9375 73.494Z" fill="#7B6CD7"/>
<path d="M62.6902 74.796C62.657 74.8063 62.628 74.827 62.6074 74.8549C62.5868 74.8829 62.5757 74.9167 62.5757 74.9514C62.5757 74.9862 62.5868 75.02 62.6074 75.048C62.628 75.0759 62.657 75.0966 62.6902 75.1069L63.9465 75.836C64.0293 75.8785 64.1211 75.9007 64.2142 75.9007C64.3073 75.9007 64.3991 75.8785 64.4819 75.836L65.7513 75.1036C65.7845 75.0933 65.8135 75.0727 65.8341 75.0447C65.8547 75.0168 65.8658 74.9829 65.8658 74.9482C65.8658 74.9135 65.8547 74.8796 65.8341 74.8517C65.8135 74.8237 65.7845 74.8031 65.7513 74.7928L64.495 74.0621C64.4119 74.0203 64.3202 73.9985 64.2272 73.9985C64.1343 73.9985 64.0426 74.0203 63.9595 74.0621L62.6902 74.796Z" fill="#7B6CD7"/>
<path d="M60.436 76.0981C60.4028 76.1084 60.3738 76.1291 60.3532 76.157C60.3326 76.185 60.3215 76.2188 60.3215 76.2535C60.3215 76.2883 60.3326 76.3221 60.3532 76.3501C60.3738 76.378 60.4028 76.3987 60.436 76.409L61.6924 77.138C61.7752 77.1806 61.8669 77.2028 61.9601 77.2028C62.0532 77.2028 62.1449 77.1806 62.2278 77.138L63.4939 76.4073C63.5271 76.397 63.5561 76.3764 63.5767 76.3484C63.5973 76.3205 63.6084 76.2867 63.6084 76.2519C63.6084 76.2172 63.5973 76.1834 63.5767 76.1554C63.5561 76.1274 63.5271 76.1068 63.4939 76.0965L62.2375 75.3674C62.1547 75.3249 62.0629 75.3027 61.9698 75.3027C61.8767 75.3027 61.7849 75.3249 61.7021 75.3674L60.436 76.0981Z" fill="#7B6CD7"/>
<path d="M67.3313 74.8824C67.2981 74.8927 67.2691 74.9133 67.2485 74.9413C67.2279 74.9692 67.2168 75.003 67.2168 75.0378C67.2168 75.0725 67.2279 75.1063 67.2485 75.1343C67.2691 75.1622 67.2981 75.1829 67.3313 75.1932L68.5876 75.9239C68.671 75.9656 68.7629 75.9873 68.8561 75.9873C68.9494 75.9873 69.0413 75.9656 69.1247 75.9239L70.3892 75.1932C70.4223 75.1829 70.4513 75.1622 70.4719 75.1343C70.4925 75.1063 70.5036 75.0725 70.5036 75.0378C70.5036 75.003 70.4925 74.9692 70.4719 74.9413C70.4513 74.9133 70.4223 74.8927 70.3892 74.8824L69.1312 74.1517C69.0484 74.1091 68.9566 74.0869 68.8635 74.0869C68.7704 74.0869 68.6786 74.1091 68.5958 74.1517L67.3313 74.8824Z" fill="#7B6CD7"/>
<path d="M65.0774 76.1825C65.0442 76.1928 65.0152 76.2134 64.9946 76.2414C64.974 76.2693 64.9629 76.3032 64.9629 76.3379C64.9629 76.3726 64.974 76.4064 64.9946 76.4344C65.0152 76.4624 65.0442 76.483 65.0774 76.4933L66.3337 77.224C66.4168 77.2666 66.5089 77.2888 66.6022 77.2888C66.6956 77.2888 66.7876 77.2666 66.8708 77.224L68.1353 76.4949C68.1684 76.4846 68.1974 76.464 68.218 76.436C68.2386 76.4081 68.2497 76.3742 68.2497 76.3395C68.2497 76.3048 68.2386 76.271 68.218 76.243C68.1974 76.215 68.1684 76.1944 68.1353 76.1841L66.8773 75.4534C66.7945 75.4109 66.7027 75.3887 66.6096 75.3887C66.5165 75.3887 66.4247 75.4109 66.3419 75.4534L65.0774 76.1825Z" fill="#7B6CD7"/>
<path d="M62.8217 77.4845C62.7886 77.4948 62.7596 77.5155 62.739 77.5434C62.7184 77.5714 62.7073 77.6052 62.7073 77.6399C62.7073 77.6747 62.7184 77.7085 62.739 77.7365C62.7596 77.7644 62.7886 77.7851 62.8217 77.7954L64.0781 78.5261C64.1612 78.5686 64.2532 78.5908 64.3466 78.5908C64.44 78.5908 64.532 78.5686 64.6151 78.5261L65.8813 77.7954C65.9144 77.7851 65.9434 77.7644 65.964 77.7365C65.9846 77.7085 65.9957 77.6747 65.9957 77.6399C65.9957 77.6052 65.9846 77.5714 65.964 77.5434C65.9434 77.5155 65.9144 77.4948 65.8813 77.4845L64.6233 76.7538C64.5402 76.7113 64.4481 76.689 64.3548 76.689C64.2614 76.689 64.1693 76.7113 64.0862 76.7538L62.8217 77.4845Z" fill="#7B6CD7"/>
<path d="M58.1838 77.3981C58.1506 77.4084 58.1216 77.4291 58.101 77.457C58.0804 77.485 58.0693 77.5188 58.0693 77.5536C58.0693 77.5883 58.0804 77.6221 58.101 77.6501C58.1216 77.678 58.1506 77.6987 58.1838 77.709L59.0284 78.1972L59.4385 78.4364L61.8276 79.8246C61.9107 79.8672 62.0027 79.8894 62.0961 79.8894C62.1895 79.8894 62.2815 79.8672 62.3646 79.8246L63.6291 79.0955C63.6623 79.0852 63.6913 79.0646 63.7118 79.0366C63.7324 79.0087 63.7436 78.9748 63.7436 78.9401C63.7436 78.9054 63.7324 78.8716 63.7118 78.8436C63.6913 78.8156 63.6623 78.795 63.6291 78.7847L61.2401 77.3965L60.8283 77.1573L59.9837 76.6691C59.9007 76.6273 59.809 76.6055 59.716 76.6055C59.623 76.6055 59.5314 76.6273 59.4483 76.6691L58.1838 77.3981Z" fill="#7B6CD7"/>
<path d="M55.7458 55.1714C55.8776 55.0949 55.9834 55.1714 55.9834 55.3341C55.9811 55.42 55.9585 55.5041 55.9175 55.5797C55.8765 55.6552 55.8182 55.7199 55.7474 55.7686L52.1541 57.8436C52.0223 57.9184 51.9165 57.8436 51.9165 57.6808C51.9185 57.5951 51.941 57.5111 51.9821 57.4358C52.0231 57.3605 52.0815 57.2961 52.1525 57.2479L55.7458 55.1714Z" fill="#78BCFF"/>
<path d="M75.4244 45.9454C75.5563 45.8705 75.6621 45.9454 75.6621 46.1081C75.6599 46.1937 75.6376 46.2775 75.5969 46.3527C75.5561 46.428 75.4982 46.4925 75.4277 46.541L66.9278 51.4477C66.7976 51.5241 66.6918 51.4477 66.6902 51.2849C66.6927 51.1991 66.7154 51.115 66.7564 51.0396C66.7974 50.9641 66.8555 50.8993 66.9262 50.8504L75.4244 45.9454Z" fill="#FF5A5A"/>
<path d="M79.2749 41.5792C79.4018 41.5059 79.5092 41.5792 79.5092 41.7419C79.5067 41.8269 79.4843 41.9102 79.4439 41.9851C79.4035 42.0599 79.3462 42.1244 79.2765 42.1732L66.8497 49.3484C66.7178 49.4249 66.6121 49.3484 66.6121 49.1857C66.6144 49.0998 66.6369 49.0156 66.678 48.9401C66.719 48.8646 66.7772 48.7998 66.848 48.7511L79.2749 41.5792Z" fill="#FF5A5A"/>
<path d="M67.8669 50.2499C67.9938 50.1766 68.0996 50.2499 68.0996 50.4126C68.0976 50.4976 68.0757 50.5809 68.0355 50.6558C67.9954 50.7307 67.9382 50.7952 67.8685 50.8439L59.1912 55.853C59.0594 55.9295 58.9536 55.853 58.9536 55.6903C58.9559 55.6044 58.9785 55.5203 59.0195 55.4447C59.0605 55.3692 59.1188 55.3045 59.1896 55.2558L67.8669 50.2499Z" fill="#9688F3"/>
<path d="M65.0498 49.7992C65.1767 49.726 65.2825 49.7992 65.2825 49.962C65.2805 50.0469 65.2585 50.1303 65.2184 50.2052C65.1782 50.2801 65.121 50.3445 65.0514 50.3932L57.0771 54.9972C56.9485 55.072 56.8428 54.9972 56.8428 54.8344C56.8451 54.7493 56.8674 54.666 56.9078 54.5911C56.9482 54.5162 57.0056 54.4518 57.0755 54.4032L65.0498 49.7992Z" fill="#9688F3"/>
<path d="M86.1344 37.6263C86.263 37.5515 86.3687 37.6263 86.3687 37.7891C86.3664 37.8744 86.3442 37.958 86.3038 38.0331C86.2633 38.1083 86.2059 38.173 86.136 38.222L80.7981 41.3026C80.6712 41.3775 80.5654 41.3026 80.5654 41.1399C80.5674 41.0547 80.5894 40.9712 80.6295 40.896C80.6696 40.8208 80.7268 40.7561 80.7965 40.707L86.1344 37.6263Z" fill="#9688F3"/>
<path d="M57.863 56.0274C57.9916 55.9542 58.0974 56.0274 58.0974 56.1901C58.0951 56.2752 58.0728 56.3586 58.0324 56.4335C57.992 56.5084 57.9345 56.5728 57.8647 56.6214L52.159 59.9153C52.0288 59.9901 51.923 59.9153 51.9214 59.7525C51.9241 59.6669 51.9468 59.5832 51.9878 59.508C52.0288 59.4328 52.0869 59.3683 52.1574 59.3196L57.863 56.0274Z" fill="#78BCFF"/>
<path d="M55.3146 43.6297C55.4415 43.5548 55.5473 43.6297 55.5489 43.7924C55.5461 43.8774 55.5236 43.9606 55.4832 44.0354C55.4429 44.1103 55.3857 44.1747 55.3162 44.2237L53.9866 44.9902C53.8564 45.0667 53.7507 44.9902 53.749 44.8275C53.7517 44.7417 53.7745 44.6577 53.8154 44.5822C53.8564 44.5068 53.9145 44.4419 53.985 44.393L55.3146 43.6297Z" fill="#78BCFF"/>
<path d="M84.4956 36.282C84.6274 36.2055 84.7332 36.282 84.7332 36.4448C84.7309 36.5307 84.7083 36.6148 84.6673 36.6903C84.6263 36.7658 84.568 36.8306 84.4972 36.8793L71.4617 44.4044C71.3348 44.4792 71.229 44.4044 71.229 44.2416C71.231 44.1564 71.253 44.0729 71.2931 43.9977C71.3332 43.9226 71.3904 43.8578 71.4601 43.8088L84.4956 36.282Z" fill="#9688F3"/>
<path d="M71.8654 41.1983C71.9972 41.1218 72.103 41.1983 72.103 41.361C72.1004 41.4469 72.0777 41.5309 72.0368 41.6064C71.9958 41.6819 71.9376 41.7467 71.867 41.7956L66.8221 44.7054C66.6902 44.7802 66.5845 44.7054 66.5845 44.5426C66.5867 44.4569 66.6091 44.3729 66.6498 44.2974C66.6905 44.2219 66.7484 44.1571 66.8188 44.1081L71.8654 41.1983Z" fill="#9688F3"/>
<path d="M69.5854 44.8909C69.7172 44.8144 69.8229 44.8909 69.8229 45.0536C69.8204 45.1395 69.7977 45.2235 69.7567 45.299C69.7157 45.3744 69.6576 45.4392 69.587 45.4881L63.6665 48.9057C63.5395 48.9789 63.4338 48.9057 63.4321 48.7429C63.4347 48.6579 63.4571 48.5746 63.4975 48.4998C63.5379 48.4249 63.5952 48.3605 63.6649 48.3117L69.5854 44.8909Z" fill="#FF5A5A"/>
<path d="M62.2588 49.1206C62.3873 49.0458 62.4931 49.1206 62.4931 49.2834C62.4908 49.3687 62.4685 49.4522 62.4281 49.5274C62.3877 49.6026 62.3303 49.6672 62.2604 49.7162L59.0788 51.552C58.9519 51.6252 58.8461 51.552 58.8445 51.3892C58.8471 51.3042 58.8694 51.2209 58.9098 51.1461C58.9502 51.0712 59.0075 51.0068 59.0772 50.9579L62.2588 49.1206Z" fill="#9688F3"/>
<path d="M65.8276 44.6828C65.9561 44.6095 66.0619 44.6828 66.0619 44.8455C66.0599 44.9306 66.0377 45.0141 65.9973 45.089C65.9568 45.164 65.8992 45.2282 65.8292 45.2767L59.0722 49.1824C58.9453 49.2557 58.8379 49.1824 58.8379 49.0197C58.8402 48.9346 58.8625 48.8513 58.9029 48.7763C58.9433 48.7014 59.0008 48.6372 59.0706 48.5885L65.8276 44.6828Z" fill="#9688F3"/>
<path d="M67.1685 41.537C67.3003 41.4621 67.4061 41.537 67.4061 41.6997C67.4042 41.7857 67.3818 41.87 67.3407 41.9456C67.2997 42.0211 67.2412 42.0858 67.1701 42.1342L59.0657 46.813C58.9371 46.8862 58.8313 46.813 58.8313 46.6503C58.8336 46.5659 58.8559 46.4832 58.8964 46.4091C58.9368 46.335 58.9943 46.2715 59.064 46.2239L67.1685 41.537Z" fill="#9688F3"/>
<path d="M64.4054 40.7557C64.5372 40.6809 64.643 40.7557 64.643 40.9185C64.6407 41.0037 64.6181 41.0872 64.577 41.1619C64.536 41.2366 64.4777 41.3005 64.407 41.3481L58.1366 44.9675C58.0064 45.044 57.9006 44.9756 57.9006 44.8047C57.9028 44.7192 57.9251 44.6354 57.9658 44.5601C58.0065 44.4849 58.0645 44.4204 58.135 44.3718L64.4054 40.7557Z" fill="#9688F3"/>
<path d="M67.8881 36.3714C68.015 36.2982 68.1208 36.3714 68.1208 36.5341C68.1188 36.6191 68.0968 36.7024 68.0567 36.7773C68.0165 36.8523 67.9593 36.9167 67.8897 36.9654L57.126 43.1739C56.9958 43.2504 56.8933 43.1739 56.8933 43.0112C56.8933 43.1739 56.9958 43.2504 57.126 43.1739L63.8114 39.3138C63.8821 39.2653 63.9403 39.2008 63.9813 39.1256C64.0223 39.0504 64.045 38.9665 64.0474 38.8809C64.0474 38.7181 63.9416 38.6449 63.8098 38.7181L67.8881 36.3714Z" fill="#FF5A5A"/>
<path d="M63.8163 38.7198C63.9481 38.6449 64.0539 38.7198 64.0539 38.8825C64.0515 38.9681 64.0288 39.052 63.9878 39.1272C63.9468 39.2025 63.8886 39.2669 63.8179 39.3154L57.126 43.174C56.9958 43.2504 56.8933 43.174 56.8933 43.0112C56.8949 42.9262 56.9167 42.8427 56.9569 42.7677C56.9971 42.6928 57.0545 42.6284 57.1244 42.58L63.8163 38.7198Z" fill="#9688F3"/>
<path d="M72.0981 38.6939C72.2267 38.6191 72.3324 38.6939 72.3324 38.8567C72.3308 38.9419 72.3088 39.0255 72.2683 39.1005C72.2278 39.1755 72.17 39.2398 72.0997 39.2879L69.2859 40.9153C69.1541 40.9902 69.0483 40.9153 69.0483 40.7526C69.0509 40.6674 69.0736 40.5841 69.1146 40.5094C69.1557 40.4347 69.2138 40.3708 69.2843 40.323L72.0981 38.6939Z" fill="#FF5A5A"/>
<path d="M76.9525 33.5121C77.0811 33.4388 77.1869 33.5121 77.1869 33.6748C77.1846 33.7592 77.1623 33.8419 77.1218 33.916C77.0814 33.9901 77.0239 34.0536 76.9542 34.1012L65.8162 40.5327C65.686 40.6075 65.5802 40.5327 65.5786 40.3699C65.5816 40.2842 65.6044 40.2003 65.6454 40.1249C65.6863 40.0494 65.7443 39.9846 65.8146 39.9354L76.9525 33.5121Z" fill="#9688F3"/>
<path d="M81.1888 28.69C81.3157 28.6168 81.4215 28.69 81.4232 28.8528C81.4206 28.9378 81.3982 29.0211 81.3578 29.0959C81.3174 29.1708 81.2601 29.2352 81.1904 29.284L69.5496 36.0052C69.4178 36.0817 69.312 36.0052 69.312 35.8425C69.3143 35.7566 69.3369 35.6724 69.3779 35.5969C69.4189 35.5214 69.4772 35.4567 69.548 35.408L81.1888 28.69Z" fill="#9688F3"/>
<path d="M69.5349 33.3397C69.6618 33.2665 69.7676 33.3397 69.7676 33.5025C69.7656 33.5877 69.7436 33.6712 69.7035 33.7464C69.6634 33.8216 69.6062 33.8863 69.5365 33.9354L59.5296 39.711C59.4027 39.7859 59.2969 39.711 59.2969 39.5483C59.2989 39.4633 59.3208 39.38 59.361 39.3051C59.4011 39.2302 59.4583 39.1658 59.528 39.117L69.5349 33.3397Z" fill="#9688F3"/>
<path d="M88.4094 24.5225C88.5396 24.446 88.6454 24.5225 88.647 24.6852C88.6443 24.7711 88.6216 24.8551 88.5806 24.9305C88.5396 25.006 88.4816 25.0708 88.4111 25.1198L82.9593 28.2672C82.8291 28.342 82.7266 28.2672 82.7266 28.1044C82.7279 28.0193 82.7496 27.9358 82.7898 27.8607C82.83 27.7857 82.8875 27.7214 82.9576 27.6732L88.4094 24.5225Z" fill="#9688F3"/>
<path d="M58.239 39.8624C58.3676 39.7875 58.4734 39.8624 58.4734 40.0251C58.4711 40.1104 58.4488 40.194 58.4084 40.2692C58.368 40.3444 58.3105 40.409 58.2407 40.458L53.9818 42.917C53.8499 42.9935 53.7441 42.917 53.7441 42.7543C53.7462 42.6685 53.7687 42.5845 53.8097 42.5092C53.8507 42.434 53.9092 42.3696 53.9801 42.3214L58.239 39.8624Z" fill="#78BCFF"/>
<path d="M58.0731 46.787C58.2001 46.7138 58.3075 46.787 58.3075 46.9497C58.3053 47.0351 58.2831 47.1187 58.2427 47.1939C58.2022 47.2691 58.1447 47.3337 58.0747 47.3826L55.3879 48.9336C55.2561 49.0084 55.1536 48.9336 55.1536 48.7708C55.1556 48.6861 55.1778 48.6031 55.2182 48.5287C55.2587 48.4543 55.3163 48.3906 55.3863 48.3428L58.0731 46.787Z" fill="#78BCFF"/>
<path d="M56.6931 45.2083C56.8249 45.1335 56.9307 45.2083 56.9307 45.3711C56.9284 45.4563 56.9058 45.5397 56.8647 45.6145C56.8237 45.6892 56.7654 45.753 56.6947 45.8007L53.9932 47.3598C53.863 47.4362 53.7572 47.3598 53.7556 47.197C53.7583 47.1114 53.7811 47.0277 53.822 46.9525C53.863 46.8773 53.9211 46.8128 53.9916 46.7641L56.6931 45.2083Z" fill="#78BCFF"/>
<path d="M58.0797 49.1563C58.2083 49.0831 58.3141 49.1563 58.3141 49.319C58.3117 49.4041 58.2895 49.4875 58.2491 49.5624C58.2086 49.6373 58.1512 49.7016 58.0813 49.7503L55.3945 51.3028C55.2627 51.3777 55.1618 51.3028 55.1602 51.1401C55.162 51.0549 55.184 50.9714 55.2244 50.8964C55.2649 50.8214 55.3226 50.7571 55.3929 50.7088L58.0797 49.1563Z" fill="#78BCFF"/>
<path d="M58.0861 51.5292C58.2146 51.4559 58.3204 51.5292 58.3204 51.6919C58.3181 51.777 58.2958 51.8603 58.2554 51.9352C58.215 52.0101 58.1576 52.0745 58.0877 52.1232L55.4009 53.6741C55.2707 53.7506 55.1681 53.6741 55.1665 53.5113C55.1686 53.426 55.1907 53.3423 55.2311 53.2671C55.2716 53.1919 55.3292 53.1273 55.3992 53.0784L58.0861 51.5292Z" fill="#78BCFF"/>
<path d="M49.8221 32.8172C49.9523 32.7407 50.0581 32.8172 50.0597 32.9799C50.057 33.0658 50.0343 33.1498 49.9933 33.2252C49.9523 33.3007 49.8943 33.3655 49.8238 33.4145L48.888 33.9548C48.7562 34.0296 48.6504 33.9548 48.6504 33.792C48.6524 33.7063 48.6749 33.6223 48.7159 33.547C48.757 33.4717 48.8154 33.4073 48.8864 33.3591L49.8221 32.8172Z" fill="#78BCFF"/>
<path d="M49.827 34.8921C49.9588 34.8156 50.0646 34.8921 50.0646 35.0548C50.0626 35.1406 50.0401 35.2246 49.9991 35.2999C49.958 35.3752 49.8996 35.4396 49.8286 35.4877L48.8929 36.028C48.7627 36.1045 48.6569 36.028 48.6553 35.8653C48.658 35.7797 48.6807 35.6959 48.7217 35.6207C48.7627 35.5455 48.8208 35.481 48.8912 35.4324L49.827 34.8921Z" fill="#78BCFF"/>
<path d="M49.8337 37.2649C49.9655 37.1884 50.0713 37.2649 50.0713 37.4276C50.0692 37.5136 50.0468 37.5978 50.0057 37.6733C49.9647 37.7489 49.9063 37.8136 49.8353 37.8621L48.8995 38.4024C48.7694 38.4773 48.6636 38.4024 48.6636 38.2397C48.6657 38.1541 48.688 38.0703 48.7288 37.9951C48.7695 37.9198 48.8275 37.8553 48.8979 37.8068L49.8337 37.2649Z" fill="#78BCFF"/>
<path d="M49.8399 39.3399C49.9718 39.2634 50.0775 39.3399 50.0775 39.5026C50.0752 39.5885 50.0527 39.6727 50.0116 39.7482C49.9706 39.8237 49.9124 39.8884 49.8416 39.9371L48.9058 40.4774C48.7756 40.5523 48.6682 40.4774 48.6682 40.3147C48.6709 40.2291 48.6936 40.1453 48.7346 40.0701C48.7756 39.995 48.8337 39.9304 48.9042 39.8818L49.8399 39.3399Z" fill="#78BCFF"/>
<path d="M49.8465 41.7127C49.9784 41.6362 50.0841 41.7127 50.0841 41.8755C50.0817 41.9607 50.0591 42.0441 50.018 42.1188C49.977 42.1935 49.9188 42.2574 49.8482 42.3051L48.9124 42.8454C48.7822 42.9219 48.6764 42.8454 48.6748 42.6827C48.6775 42.5971 48.7002 42.5133 48.7412 42.4381C48.7822 42.3629 48.8403 42.2984 48.9108 42.2498L49.8465 41.7127Z" fill="#78BCFF"/>
<path d="M49.8531 44.0838C49.9849 44.0089 50.0907 44.0838 50.0907 44.2465C50.0891 44.3326 50.0668 44.4169 50.0257 44.4925C49.9847 44.5682 49.926 44.6328 49.8548 44.681L48.919 45.2213C48.7888 45.2962 48.683 45.2213 48.6814 45.0586C48.6843 44.9735 48.7072 44.8903 48.7482 44.8157C48.7892 44.741 48.8471 44.6771 48.9174 44.629L49.8531 44.0838Z" fill="#78BCFF"/>
<path d="M49.8596 46.4615C49.9914 46.385 50.0972 46.4615 50.0972 46.6243C50.095 46.7102 50.0725 46.7944 50.0314 46.8699C49.9904 46.9454 49.9321 47.0102 49.8612 47.0588L48.9254 47.5991C48.7952 47.6739 48.6895 47.5991 48.6895 47.4363C48.6917 47.3506 48.7141 47.2666 48.7548 47.1911C48.7955 47.1156 48.8534 47.0508 48.9238 47.0018L49.8596 46.4615Z" fill="#78BCFF"/>
<path d="M49.8678 48.8245C49.998 48.7497 50.1037 48.8245 50.1054 48.9873C50.1027 49.0728 50.0799 49.1566 50.0389 49.2318C49.998 49.307 49.9399 49.3715 49.8694 49.4201L48.9336 49.9604C48.8018 50.0369 48.696 49.9604 48.696 49.7977C48.6981 49.7117 48.7206 49.6275 48.7616 49.552C48.8026 49.4764 48.861 49.4117 48.932 49.3632L49.8678 48.8245Z" fill="#78BCFF"/>
<path d="M49.8741 51.197C50.0043 51.1206 50.1101 51.197 50.1117 51.3598C50.109 51.4454 50.0863 51.5291 50.0453 51.6043C50.0043 51.6795 49.9462 51.744 49.8758 51.7927L48.94 52.333C48.8082 52.4095 48.7024 52.333 48.7024 52.1702C48.7044 52.0845 48.7269 52.0005 48.7679 51.9252C48.809 51.8499 48.8674 51.7855 48.9384 51.7374L49.8741 51.197Z" fill="#78BCFF"/>
<path d="M49.8807 53.5699C50.0109 53.4934 50.1167 53.5699 50.1183 53.7327C50.1161 53.8184 50.0936 53.9023 50.0526 53.9776C50.0115 54.0529 49.9532 54.1173 49.8823 54.1655L48.9466 54.7058C48.8148 54.7823 48.709 54.7058 48.709 54.5431C48.7111 54.4578 48.7337 54.3743 48.7747 54.2996C48.8158 54.2248 48.8742 54.161 48.9449 54.1135L49.8807 53.5699Z" fill="#78BCFF"/>
<path d="M49.8873 55.938C50.0191 55.8615 50.1249 55.938 50.1249 56.1007C50.1226 56.1866 50.1 56.2708 50.059 56.3463C50.018 56.4218 49.9597 56.4865 49.8889 56.5352L48.9532 57.0755C48.8214 57.1504 48.7156 57.0755 48.7156 56.9128C48.718 56.8271 48.7407 56.7433 48.7817 56.6681C48.8227 56.5928 48.8809 56.5284 48.9516 56.4799L49.8873 55.938Z" fill="#78BCFF"/>
<path d="M49.8939 58.3106C50.0257 58.2341 50.1315 58.3106 50.1315 58.4733C50.1289 58.5591 50.1062 58.6432 50.0653 58.7186C50.0243 58.7941 49.9661 58.8589 49.8955 58.9078L48.9598 59.4481C48.8296 59.523 48.7222 59.4481 48.7222 59.2854C48.7249 59.1998 48.7476 59.116 48.7886 59.0408C48.8296 58.9656 48.8877 58.9011 48.9581 58.8525L49.8939 58.3106Z" fill="#78BCFF"/>
<path d="M49.9002 60.6814C50.0321 60.6066 50.1378 60.6814 50.1378 60.8442C50.1354 60.9298 50.1128 61.0137 50.0718 61.0889C50.0308 61.1642 49.9725 61.2286 49.9019 61.2771L48.9661 61.8174C48.8359 61.8939 48.7301 61.8174 48.7285 61.6546C48.7315 61.5689 48.7543 61.485 48.7953 61.4095C48.8362 61.3341 48.8941 61.2693 48.9645 61.2201L49.9002 60.6814Z" fill="#78BCFF"/>
<path d="M66.6643 25.6761C66.7912 25.6029 66.897 25.6761 66.8986 25.8389C66.8964 25.9242 66.8742 26.0078 66.8338 26.083C66.7934 26.1582 66.7359 26.2228 66.6659 26.2717L62.5616 28.6396C62.4314 28.7161 62.3256 28.6396 62.324 28.4769C62.3268 28.3918 62.3496 28.3085 62.3906 28.2339C62.4316 28.1592 62.4896 28.0953 62.56 28.0472L66.6643 25.6761Z" fill="#9688F3"/>
<path d="M65.4583 28.7438C65.5853 28.6705 65.6927 28.7438 65.6927 28.9065C65.6901 28.9916 65.6677 29.0748 65.6273 29.1497C65.5869 29.2245 65.5296 29.289 65.46 29.3378L58.4101 33.4063C58.2799 33.4828 58.1741 33.4063 58.1741 33.2436C58.1762 33.1578 58.1985 33.0737 58.2393 32.9982C58.28 32.9227 58.3379 32.8579 58.4084 32.809L65.4583 28.7438Z" fill="#9688F3"/>
<path d="M64.1922 24.7276C64.324 24.6511 64.4298 24.7276 64.4298 24.8903C64.4275 24.9762 64.4049 25.0604 64.3639 25.1359C64.3229 25.2114 64.2646 25.2761 64.1938 25.3248L58.397 28.6708C58.2668 28.7473 58.1611 28.6708 58.1594 28.508C58.1624 28.4223 58.1852 28.3384 58.2262 28.263C58.2671 28.1875 58.3251 28.1227 58.3954 28.0735L64.1922 24.7276Z" fill="#9688F3"/>
<path d="M81.628 21.855C81.7598 21.7785 81.8623 21.855 81.8623 22.0177C81.8605 22.1031 81.8385 22.1869 81.7981 22.2622C81.7576 22.3374 81.6999 22.402 81.6296 22.4506L72.604 27.6583C72.4722 27.7332 72.3665 27.6583 72.3665 27.4956C72.3689 27.4099 72.3915 27.326 72.4325 27.2508C72.4735 27.1756 72.5318 27.1111 72.6024 27.0627L81.628 21.855Z" fill="#9688F3"/>
<path d="M83.9668 18.1282C84.0986 18.0517 84.2011 18.1282 84.2011 18.291C84.1993 18.3762 84.1772 18.4597 84.1368 18.5347C84.0963 18.6097 84.0386 18.674 83.9684 18.7222L75.1804 23.7997C75.0486 23.8746 74.946 23.7997 74.946 23.637C74.9476 23.5517 74.9695 23.4681 75.01 23.3931C75.0505 23.318 75.1084 23.2538 75.1788 23.2057L83.9668 18.1282Z" fill="#9688F3"/>
<path d="M64.3338 31.8392C64.464 31.7644 64.5698 31.8392 64.5714 32.002C64.5685 32.0877 64.5456 32.1716 64.5047 32.247C64.4637 32.3224 64.4058 32.3873 64.3354 32.4365L58.5386 35.7824C58.4068 35.8589 58.301 35.7824 58.301 35.6197C58.3035 35.534 58.3261 35.4502 58.3671 35.3749C58.4081 35.2997 58.4663 35.2352 58.537 35.1868L64.3338 31.8392Z" fill="#9688F3"/>
<path d="M71.1347 27.909C71.2665 27.8341 71.369 27.909 71.369 28.0717C71.3672 28.1572 71.3452 28.2409 71.3047 28.3162C71.2643 28.3914 71.2065 28.456 71.1363 28.5046L65.333 31.8555C65.2012 31.9303 65.0986 31.8555 65.0986 31.6927C65.1002 31.6075 65.1221 31.5238 65.1626 31.4488C65.2031 31.3738 65.2609 31.3095 65.3314 31.2615L71.1347 27.909Z" fill="#9688F3"/>
<path d="M73.7677 24.0162C73.8963 23.943 74.002 24.0162 74.002 24.179C73.9997 24.2641 73.9775 24.3474 73.937 24.4223C73.8966 24.4972 73.8392 24.5616 73.7693 24.6102L67.1426 28.4363C67.0156 28.5095 66.9098 28.4363 66.9082 28.2735C66.9108 28.1885 66.9331 28.1052 66.9735 28.0304C67.0139 27.9555 67.0713 27.8911 67.1409 27.8423L73.7677 24.0162Z" fill="#9688F3"/>
<path d="M85.28 15.0037C85.4069 14.9288 85.5127 15.0037 85.5127 15.1664C85.5114 15.2515 85.4897 15.3351 85.4495 15.4101C85.4093 15.4851 85.3517 15.5494 85.2816 15.5977L67.8977 25.6306C67.7691 25.7039 67.6633 25.6306 67.6633 25.4679C67.6654 25.3832 67.6875 25.3002 67.728 25.2258C67.7685 25.1514 67.8261 25.0877 67.8961 25.0399L85.28 15.0037Z" fill="#FF5A5A"/>
<path d="M71.5837 20.5287C71.7123 20.4554 71.8181 20.5287 71.8181 20.6914C71.8157 20.7765 71.7935 20.8598 71.7531 20.9347C71.7126 21.0097 71.6552 21.074 71.5853 21.1227L65.6648 24.5402C65.5346 24.6151 65.4289 24.5402 65.4272 24.3775C65.4299 24.2919 65.4527 24.2081 65.4937 24.1329C65.5347 24.0577 65.5927 23.9932 65.6632 23.9446L71.5837 20.5287Z" fill="#9688F3"/>
<path d="M75.5253 27.6959C75.6523 27.6227 75.758 27.6959 75.7597 27.8587C75.7571 27.9437 75.7347 28.027 75.6943 28.1018C75.6539 28.1767 75.5966 28.2411 75.5269 28.29L65.3638 34.1584C65.2336 34.2332 65.1278 34.1584 65.1262 33.9956C65.1289 33.91 65.1517 33.8263 65.1927 33.7511C65.2336 33.6759 65.2917 33.6114 65.3622 33.5627L75.5253 27.6959Z" fill="#9688F3"/>
<path d="M61.2726 28.8595C61.4028 28.783 61.5086 28.8514 61.5102 29.0222C61.508 29.1079 61.4855 29.1919 61.4445 29.2672C61.4034 29.3424 61.3451 29.4069 61.2742 29.4551L57.3457 31.7237C57.2171 31.797 57.1113 31.7237 57.1113 31.561C57.1136 31.4766 57.1359 31.3939 57.1764 31.3198C57.2168 31.2457 57.2743 31.1822 57.344 31.1346L61.2726 28.8595Z" fill="#9688F3"/>
<path d="M57.279 28.7879C57.4092 28.7131 57.515 28.7879 57.5166 28.9507C57.5136 29.0364 57.4908 29.1203 57.4498 29.1957C57.4089 29.2712 57.3509 29.336 57.2806 29.3852L54.9355 30.7375C54.8086 30.8124 54.7012 30.7375 54.7012 30.5748C54.7035 30.4895 54.7257 30.4059 54.7662 30.3307C54.8066 30.2556 54.864 30.1909 54.9339 30.1419L57.279 28.7879Z" fill="#78BCFF"/>
<path d="M57.5687 35.7466C57.6989 35.6701 57.8046 35.7466 57.8063 35.9093C57.8033 35.9951 57.7805 36.079 57.7395 36.1544C57.6985 36.2298 57.6406 36.2947 57.5703 36.3439L54.9551 37.8524C54.8281 37.9257 54.7223 37.8524 54.7207 37.6897C54.7233 37.6047 54.7456 37.5214 54.786 37.4466C54.8264 37.3717 54.8838 37.3073 54.9534 37.2585L57.5687 35.7466Z" fill="#78BCFF"/>
<path d="M57.5604 33.3738C57.6923 33.2973 57.798 33.3738 57.798 33.5366C57.796 33.6225 57.7735 33.7067 57.7325 33.7823C57.6915 33.8578 57.633 33.9226 57.5621 33.9711L54.9484 35.4797C54.8215 35.5545 54.7157 35.4797 54.7141 35.3169C54.7169 35.232 54.7394 35.1488 54.7798 35.074C54.8202 34.9991 54.8773 34.9347 54.9468 34.8857L57.5604 33.3738Z" fill="#78BCFF"/>
<path d="M56.6377 31.5332C56.7679 31.4567 56.8737 31.5332 56.8753 31.6959C56.8731 31.7816 56.8506 31.8656 56.8096 31.9408C56.7685 32.0161 56.7102 32.0805 56.6393 32.1288L54.9387 33.1052C54.8118 33.1785 54.706 33.1052 54.7043 32.9425C54.707 32.8579 54.7295 32.7752 54.7699 32.7009C54.8103 32.6265 54.8676 32.5627 54.9371 32.5145L56.6377 31.5332Z" fill="#78BCFF"/>
<path d="M57.5751 38.1177C57.7053 38.0429 57.8111 38.1177 57.8127 38.2805C57.81 38.366 57.7872 38.4498 57.7463 38.525C57.7053 38.6002 57.6472 38.6647 57.5767 38.7134L54.9615 40.2236C54.8345 40.2968 54.7288 40.2236 54.7288 40.0608C54.7308 39.9759 54.7527 39.8926 54.7929 39.8176C54.833 39.7427 54.8902 39.6783 54.9598 39.6296L57.5751 38.1177Z" fill="#78BCFF"/>
<path d="M61.9593 35.587C62.0863 35.5138 62.1921 35.587 62.1921 35.7498C62.1901 35.8347 62.1681 35.918 62.128 35.9929C62.0878 36.0679 62.0306 36.1323 61.961 36.181L58.4799 38.1909C58.3514 38.2641 58.2456 38.1909 58.2456 38.0281C58.2479 37.943 58.2702 37.8597 58.3106 37.7848C58.351 37.7099 58.4085 37.6455 58.4783 37.5969L61.9593 35.587Z" fill="#9688F3"/>
<path d="M99.1662 94.4587C100.379 94.6487 101.669 94.4737 102.639 93.9137C103.782 93.2537 103.973 92.3737 102.925 91.7687C102.154 91.3237 101.227 91.3087 99.8417 91.6187L98.9064 91.8287C98.2049 91.9837 97.8845 92.0087 97.5814 91.8337C97.2263 91.6287 97.3302 91.3387 97.7372 91.1037C98.1703 90.8537 98.7505 90.7687 99.4866 90.8537L99.6685 90.0387C98.6552 89.8637 97.5727 89.9987 96.698 90.5037C95.6155 91.1287 95.4423 91.9687 96.4209 92.5337C97.183 92.9737 98.1876 92.9637 99.452 92.6837L100.344 92.4887C101.141 92.3187 101.444 92.2837 101.782 92.4787C102.171 92.7037 102.111 93.0187 101.6 93.3137C100.976 93.6737 100.249 93.7237 99.3654 93.6437L99.1662 94.4587ZM103.094 91.0508C104.316 91.7758 106.411 91.7658 107.641 91.0258C108.472 90.5458 108.724 89.9308 108.438 89.3358L107 89.4458C107.113 89.8308 107.026 90.1408 106.585 90.3958C105.926 90.7758 104.965 90.7608 104.281 90.3658C103.614 89.9808 103.579 89.4208 104.238 89.0408C104.688 88.7808 105.234 88.7358 105.892 88.8058L106.074 87.9708C105.043 87.8058 103.995 87.9508 103.155 88.4358C101.882 89.1708 101.839 90.3258 103.094 91.0508ZM108.609 85.397C108.462 85.442 108.323 85.502 108.176 85.587C107.7 85.862 107.492 86.222 107.561 86.592L107.05 86.297L105.976 86.917L110.263 89.392L111.432 88.717L109.293 87.482C108.557 87.057 108.626 86.577 109.328 86.172L109.639 85.992L108.609 85.397ZM114.584 83.9573C113.397 83.2723 112.029 83.3123 110.912 83.9573C110.158 84.3923 109.829 84.9223 109.925 85.5473L111.25 85.6123C111.224 85.1573 111.354 84.8723 111.795 84.6173C112.315 84.3173 112.869 84.3173 113.345 84.5923L113.536 84.7023L112.462 85.3223C111.466 85.8973 111.319 86.5323 112.09 86.9773C112.843 87.4123 113.943 87.3873 114.852 86.8623C115.398 86.5473 115.649 86.1723 115.64 85.8073L116.056 86.0473L117.13 85.4273L114.584 83.9573ZM114.359 85.1773C114.852 85.4623 114.818 85.8923 114.307 86.1873C113.934 86.4023 113.51 86.4373 113.224 86.2723C112.938 86.1073 113.008 85.8973 113.389 85.6773L114.307 85.1473L114.359 85.1773ZM120.637 80.9227C119.355 80.1827 117.519 80.1427 116.324 80.8327C115.735 81.1727 115.458 81.5927 115.579 81.9927L115.042 81.6827L113.968 82.3027L119.814 85.6777L120.983 85.0027L119.009 83.8627C119.658 83.8777 120.29 83.7227 120.81 83.4227C122.005 82.7327 121.918 81.6627 120.637 80.9227ZM119.459 81.6127C120.16 82.0177 120.152 82.5727 119.528 82.9327C118.931 83.2777 118.021 83.3127 117.259 82.8727C116.488 82.4277 116.575 81.9077 117.164 81.5677C117.796 81.2027 118.74 81.1977 119.459 81.6127ZM125.893 78.3482C125.728 78.1932 125.538 78.0532 125.33 77.9332C124.213 77.2882 122.507 77.2632 121.32 77.9482C120.056 78.6482 120.056 79.8382 121.32 80.5382C122.532 81.2682 124.611 81.2582 125.91 80.4782C126.542 80.1132 126.897 79.6582 126.984 79.1182L125.702 78.9382C125.616 79.3182 125.364 79.6332 124.94 79.8782C124.317 80.2382 123.572 80.3182 122.888 80.0832L125.893 78.3482ZM122.065 79.6082C121.666 79.2282 121.727 78.8032 122.221 78.5182C122.732 78.2232 123.476 78.1832 124.013 78.4832L122.065 79.6082ZM104.98 97.4919L106.375 99.4469L102.703 98.6969L102.313 98.9219L103.681 101.062L100.226 100.237L98.9962 100.947L105.379 102.332L105.76 102.112L104.504 99.9569L108.228 100.687L108.609 100.467L106.21 96.7819L104.98 97.4919ZM113.207 95.6724C113.042 95.5174 112.852 95.3774 112.644 95.2574C111.527 94.6124 109.821 94.5874 108.634 95.2724C107.37 95.9724 107.37 97.1624 108.634 97.8624C109.847 98.5924 111.925 98.5824 113.224 97.8024C113.856 97.4374 114.211 96.9824 114.298 96.4424L113.016 96.2624C112.93 96.6424 112.678 96.9574 112.254 97.2024C111.631 97.5624 110.886 97.6424 110.202 97.4074L113.207 95.6724ZM109.379 96.9324C108.981 96.5524 109.041 96.1274 109.535 95.8424C110.046 95.5474 110.791 95.5074 111.327 95.8074L109.379 96.9324ZM118.337 92.2607C117.046 91.5157 115.21 91.4757 114.015 92.1657C113.469 92.4807 113.218 92.8257 113.244 93.2007L110.62 91.6857L109.451 92.3607L115.946 96.1107L117.02 95.4907L116.492 95.1857C117.202 95.2457 117.912 95.0957 118.501 94.7557C119.696 94.0657 119.627 93.0057 118.337 92.2607ZM117.141 92.9407C117.86 93.3557 117.852 93.9007 117.219 94.2657C116.63 94.6057 115.73 94.6557 114.959 94.2107C114.197 93.7707 114.258 93.2457 114.855 92.9007C115.479 92.5407 116.44 92.5357 117.141 92.9407ZM123.898 91.5198L125.769 90.4398C127.605 89.4098 127.691 87.9198 126.011 86.9798C124.348 85.9898 121.845 86.0848 120.053 87.1398L118.182 88.2198L123.898 91.5198ZM124.011 90.2348L120.408 88.1548L121.101 87.7548C122.27 87.0798 123.699 87.0348 124.807 87.6748C125.907 88.3098 125.855 89.1698 124.703 89.8348L124.011 90.2348ZM130.847 84.5677C129.661 83.8827 128.292 83.9227 127.175 84.5677C126.422 85.0027 126.093 85.5327 126.188 86.1577L127.513 86.2227C127.487 85.7677 127.617 85.4827 128.059 85.2277C128.578 84.9277 129.132 84.9277 129.609 85.2027L129.799 85.3127L128.725 85.9327C127.73 86.5077 127.582 87.1427 128.353 87.5877C129.107 88.0227 130.206 87.9977 131.116 87.4727C131.661 87.1577 131.912 86.7827 131.904 86.4177L132.319 86.6577L133.393 86.0377L130.847 84.5677ZM130.622 85.7877C131.116 86.0727 131.081 86.5027 130.57 86.7977C130.198 87.0127 129.773 87.0477 129.488 86.8827C129.202 86.7177 129.271 86.5077 129.652 86.2877L130.57 85.7577L130.622 85.7877ZM136.294 83.2331C136.017 83.4231 135.844 83.5331 135.774 83.5731C135.22 83.8931 134.796 83.9281 134.311 83.6481L132.622 82.6731L133.834 81.9731L132.847 81.4031L131.635 82.1031L130.552 81.4781L129.383 82.1531L130.465 82.7781L129.79 83.1681L130.777 83.7381L131.453 83.3481L133.245 84.3831C134.319 85.0031 135.488 84.9481 136.571 84.3231C136.831 84.1731 137.065 83.9981 137.272 83.7981L136.294 83.2331ZM139.169 79.763C137.983 79.078 136.614 79.118 135.497 79.763C134.744 80.198 134.415 80.728 134.51 81.353L135.835 81.418C135.809 80.963 135.939 80.678 136.381 80.423C136.9 80.123 137.454 80.123 137.931 80.398L138.121 80.508L137.047 81.128C136.051 81.703 135.904 82.338 136.675 82.783C137.428 83.218 138.528 83.193 139.438 82.668C139.983 82.353 140.234 81.978 140.226 81.613L140.641 81.853L141.715 81.233L139.169 79.763ZM138.944 80.983C139.438 81.268 139.403 81.698 138.892 81.993C138.52 82.208 138.095 82.243 137.81 82.078C137.524 81.913 137.593 81.703 137.974 81.483L138.892 80.953L138.944 80.983Z" fill="#002642"/>
</g>
<defs>
<linearGradient id="paint0_linear" x1="73.7013" y1="77.1364" x2="92.0682" y2="52.4536" gradientUnits="userSpaceOnUse">
<stop stop-color="#4F429F"/>
<stop offset="0.543707" stop-color="#6152BD"/>
<stop offset="1" stop-color="#6152BD"/>
</linearGradient>
<linearGradient id="paint1_linear" x1="61.834" y1="50.4876" x2="83.907" y2="37.7251" gradientUnits="userSpaceOnUse">
<stop stop-color="#4F429F"/>
<stop offset="0.543707" stop-color="#6152BD"/>
<stop offset="1" stop-color="#6152BD"/>
</linearGradient>
<clipPath id="clip0">
<rect width="185" height="135" fill="white"/>
</clipPath>
</defs>
</svg>
