<svg width="154" height="97" viewBox="0 0 154 97" fill="none" xmlns="http://www.w3.org/2000/svg">
<g clip-path="url(#clip0)">
<path d="M153.747 52.1164L76.8735 7.7334L-3.6416e-05 52.1164L76.8735 96.4994L153.747 52.1164Z" fill="#D3DCE4"/>
<path d="M153.804 52.151V44.3828L144.244 49.3624L153.804 52.151Z" fill="#D3DCE4"/>
<path d="M0.034668 52.151V44.3828L9.59547 49.3624L0.034668 52.151Z" fill="#D3DCE4"/>
<path d="M153.747 44.383L76.8735 0L-3.6416e-05 44.383L76.8735 88.766L153.747 44.383Z" fill="#F1F5F9"/>
<path d="M138.973 44.3828L76.8735 8.52979L14.7743 44.3828L76.8735 80.2358L138.973 44.3828Z" fill="white" stroke="white" stroke-width="0.398367"/>
<path fill-rule="evenodd" clip-rule="evenodd" d="M90.3774 40.7183C91.2891 39.4639 90.8818 37.9687 89.1165 36.9495L88.4229 36.5491C86.6576 35.5299 84.063 35.2919 81.8903 35.8183C81.6042 35.8883 81.5315 36.1039 81.7497 36.2299L89.6645 40.7995C89.8876 40.9283 90.2561 40.8835 90.3774 40.7183ZM87.8022 42.4235C85.8623 41.4715 83.5199 40.9423 81.1241 40.8359C80.8476 40.8219 80.6779 40.6847 80.7361 40.5279C81.2793 39.1055 80.4597 37.5459 78.2724 36.5463C75.8912 35.457 72.4236 35.4206 69.9794 36.4622C68.8397 36.9522 68.0395 37.5878 67.5933 38.2822C67.2878 38.761 66.8125 39.181 66.2111 39.5282C65.6049 39.8782 64.8726 40.1498 64.053 40.3262C62.8502 40.5838 61.7445 41.043 60.9006 41.7038C59.0917 43.1122 59.1596 45.117 61.0461 46.4919C62.7824 47.7575 65.4788 48.2279 67.9425 47.9143C68.2141 47.8807 68.4517 47.9787 68.476 48.1383C68.6651 49.5187 69.5768 50.8739 71.2258 51.9939C71.3955 52.1087 71.6865 52.1199 71.8708 52.0135L79.8534 47.4047L87.8361 42.7959C88.0156 42.6923 87.9962 42.5187 87.8022 42.4235ZM73.4857 53.1867C78.0784 55.0319 84.4365 54.7827 88.5345 52.4167C92.6325 50.0507 93.069 46.3827 89.8682 43.7283C89.7081 43.5967 89.388 43.5799 89.1941 43.6919L81.3084 48.2447L73.4227 52.7975C73.2287 52.9095 73.2626 53.0971 73.4857 53.1867ZM68.2771 53.4779C68.5632 53.4079 68.636 53.1923 68.4178 53.0663L60.4981 48.4939C60.275 48.3651 59.9065 48.4099 59.7852 48.5751C58.8783 49.8323 59.2857 51.3275 61.051 52.3467L61.7494 52.7499C63.5098 53.7663 66.1044 54.0043 68.2771 53.4779ZM79.5188 35.0651C79.8486 34.7851 80.3142 34.5611 80.8719 34.4239C84.1164 33.6427 87.807 34.0543 90.2852 35.4683L90.9788 35.8687C93.4473 37.2939 94.165 39.4219 92.8071 41.2923C92.6471 41.5079 92.4191 41.7011 92.1427 41.8607C91.8857 42.0091 91.585 42.1267 91.26 42.2135C91.1242 42.2471 91.1097 42.3563 91.2309 42.4039C91.5365 42.5243 91.8081 42.6755 92.0263 42.8575C96.0176 46.1643 95.3338 50.6303 90.3968 53.4807C85.4597 56.3311 77.7244 56.7259 71.9969 54.4215C71.6816 54.2955 71.4197 54.1387 71.2112 53.9623C71.1288 53.8923 70.9396 53.9007 70.8814 53.9791C70.7262 54.1695 70.5225 54.3431 70.2704 54.4887C69.9939 54.6483 69.6641 54.7771 69.2907 54.8695C66.0462 55.6507 62.3604 55.2363 59.8968 53.8139L59.2032 53.4135C56.7347 51.9883 56.017 49.8603 57.3749 47.9899C57.6077 47.6651 58.0005 47.3991 58.4855 47.2087C58.5776 47.1723 58.6067 47.1051 58.5437 47.0519C56.3661 45.1562 56.434 42.6474 58.8056 40.7966C59.9161 39.9258 61.4196 39.2706 63.1461 38.901C63.6068 38.803 64.019 38.649 64.3585 38.453C64.698 38.257 64.9647 38.019 65.1345 37.753C65.7795 36.759 66.9143 35.891 68.4177 35.247C71.6234 33.8778 75.9688 33.8386 79.2521 35.0959C79.3442 35.1323 79.4558 35.1183 79.5188 35.0651ZM65.1199 44.5935C64.6738 44.3359 64.6738 43.9159 65.1199 43.6583L73.3645 38.8983C73.8107 38.6407 74.5381 38.6407 74.9843 38.8983C75.4305 39.1559 75.4305 39.5759 74.9843 39.8335L66.7397 44.5935C66.2936 44.8511 65.5661 44.8511 65.1199 44.5935ZM75.154 43.9859C74.6206 43.6779 74.6206 43.1795 75.154 42.8715C75.6875 42.5635 76.5508 42.5635 77.0842 42.8715C77.6177 43.1795 77.6177 43.6779 77.0842 43.9859C76.5508 44.2939 75.6875 44.2939 75.154 43.9859ZM72.0017 44.6915C71.4682 44.9995 71.4682 45.4979 72.0017 45.8059C72.5352 46.1139 73.3984 46.1139 73.9319 45.8059C74.4654 45.4979 74.4654 44.9995 73.9319 44.6915C73.3984 44.3835 72.5352 44.3835 72.0017 44.6915Z" fill="#182332"/>
</g>
<defs>
<clipPath id="clip0">
<rect width="154" height="97" fill="white"/>
</clipPath>
</defs>
</svg>
