<svg width="216" height="146" viewBox="0 0 216 146" fill="none" xmlns="http://www.w3.org/2000/svg">
<g clip-path="url(#clip0)">
<path d="M215.884 83.1791L107.942 20.8586L-0.000322876 83.1791L107.942 145.5L215.884 83.1791Z" fill="#D3DCE4"/>
<path d="M215.964 83.228V72.3203L202.539 79.3124L215.964 83.228Z" fill="#D3DCE4"/>
<path d="M0.0488281 83.228V72.3203L13.4736 79.3124L0.0488281 83.228Z" fill="#D3DCE4"/>
<path d="M215.884 72.3205L107.942 10L-0.000322876 72.3205L107.942 134.641L215.884 72.3205Z" fill="#F1F5F9"/>
<path d="M195.138 72.3203L107.942 21.9773L20.7453 72.3203L107.942 122.663L195.138 72.3203Z" fill="white" stroke="white" stroke-width="0.559366"/>
<path d="M109.072 25.3405L96.3131 32.7093L91.4864 31.6152C90.979 31.554 90.4663 31.6736 90.0384 31.9531L61.6089 48.364C61.156 48.623 60.773 48.9883 60.4927 49.4284C60.2124 49.8684 60.0433 50.37 60 50.89L60.177 53.5607L62.2203 83.1969L108.718 56.3442L110.649 25.984C110.713 25.083 109.989 24.7934 109.072 25.3405Z" fill="#2C3E50"/>
<path d="M109.989 16.6523L101.188 21.7204C100.698 22.016 100.281 22.4173 99.9654 22.8949L95.2191 29.765L63.8454 47.8652C63.5617 48.0362 63.3212 48.2704 63.1426 48.5494C62.964 48.8284 62.8522 49.1449 62.8157 49.4741L63.4431 82.6177L110.295 55.5719L110.938 20.5942V17.0546C111.019 16.5397 110.552 16.3145 109.989 16.6523Z" fill="#2C3E50"/>
<path d="M106.385 54.526L68.7202 76.2785V21.7364L106.385 0V54.526Z" fill="white"/>
<path d="M97.6324 6.43555L67.3044 23.9566V78.4826L104.969 56.7301V10.6831L97.6324 14.9145V6.43555Z" fill="white"/>
<path d="M104.969 10.6831L97.6323 14.9145V6.43555L104.969 10.6831Z" fill="url(#paint0_linear)"/>
<path d="M89.4432 24.7933L65.7761 38.453V30.3923L89.4432 16.7327V24.7933Z" fill="url(#paint1_linear)"/>
<path d="M101.494 25.5172L74.7537 40.9467V40.0457L101.494 24.6162V25.5172Z" fill="#9FB0BF"/>
<path d="M101.494 29.1212L72.9033 45.6286V44.7276L101.494 28.2202V29.1212Z" fill="#9FB0BF"/>
<path d="M101.494 32.7252L72.9033 49.2327V48.3317L101.494 31.8242V32.7252Z" fill="#9FB0BF"/>
<path d="M101.494 36.3292L72.9033 52.8366V51.9356L101.494 35.4282V36.3292Z" fill="#9FB0BF"/>
<path d="M101.494 39.9332L72.9033 56.4407V55.5397L101.494 39.0322V39.9332Z" fill="#9FB0BF"/>
<path d="M101.494 43.5372L72.9033 60.0446V59.1436L101.494 42.6362V43.5372Z" fill="#9FB0BF"/>
<path d="M101.494 47.141L72.9033 63.6484V62.7474L101.494 46.24V47.141Z" fill="#9FB0BF"/>
<path d="M65.7761 38.453L67.3046 39.1287V37.5681L65.7761 38.453Z" fill="url(#paint2_linear)"/>
<path d="M69.1062 30.4406L70.9404 29.3948V29.8131L69.5406 30.6176V31.9208L70.8277 31.1807V31.599L69.5406 32.3391V34.125L69.1062 34.3824V30.4406Z" fill="white"/>
<path d="M72.0025 28.7351V32.677L71.5681 32.9183V28.9926L72.0025 28.7351Z" fill="white"/>
<path d="M72.7747 28.3006L73.2091 28.0432V31.5506L74.6732 30.714V31.1323L72.7747 32.2264V28.3006Z" fill="white"/>
<path d="M76.9256 27.995L75.5902 28.7512V30.1671L77.0704 29.3144V29.7488L75.1558 30.8589V26.9171L76.9899 25.8552V26.2896L75.5902 27.0941V28.3329L76.9256 27.5767V27.995Z" fill="white"/>
<path d="M112.29 25.0348L110.343 55.6041L109.844 55.8937L63.4913 82.666L61.448 52.8046L61.2549 50.1338C61.2742 49.7316 61.3772 49.3379 61.5573 48.9777C61.7374 48.6176 61.9905 48.299 62.3007 48.0422C62.4743 47.8686 62.6689 47.7173 62.8799 47.5917L91.5185 31.0521C91.9459 30.7576 92.4694 30.6368 92.9826 30.7142L97.8093 31.7922L110.681 24.3912C111.598 23.8442 112.338 24.1338 112.29 25.0348Z" fill="#3D566E"/>
<path d="M109.844 55.9095L63.4913 82.6657L61.448 52.8043L61.2549 50.1335C61.2742 49.7314 61.3772 49.3376 61.5573 48.9775C61.7374 48.6174 61.9905 48.2987 62.3007 48.042L109.844 55.9095Z" fill="#3D566E"/>
<path d="M125.274 33.1596L112.531 40.5123L107.704 39.4343C107.197 39.3643 106.681 39.4846 106.256 39.7722L77.8108 56.1831C77.3514 56.4343 76.963 56.7977 76.6817 57.2393C76.4004 57.681 76.2354 58.1866 76.2019 58.7091L76.3789 61.3638L78.4061 90.9999L124.952 64.2277L126.883 33.8675C126.931 32.9022 126.223 32.6126 125.274 33.1596Z" fill="#403487"/>
<path d="M125.917 24.4555L117.116 29.5236C116.626 29.8193 116.209 30.2205 115.893 30.6981L111.067 37.5682L79.7895 55.6684C79.5049 55.8385 79.2638 56.0724 79.0851 56.3516C78.9064 56.6308 78.795 56.9477 78.7598 57.2773L79.4194 90.5013L126.255 63.4555L126.914 28.4778V24.9382C126.963 24.3268 126.496 24.1177 125.917 24.4555Z" fill="#403487"/>
<path d="M124.791 23.104V62.4097L82.1223 87.0421V47.7364L124.791 23.104Z" fill="white"/>
<path d="M123.279 25.0508V64.3404L80.6104 88.9889V49.6832L123.279 25.0508Z" fill="white"/>
<path d="M128.234 32.8217L126.319 62.9727V63.4071L79.4195 90.469L77.3762 60.6076L77.1831 57.9368C77.1977 57.5408 77.2938 57.1521 77.4654 56.795C77.637 56.4379 77.8805 56.12 78.1806 55.8613C78.3718 55.683 78.5823 55.5265 78.8081 55.3947L107.447 38.8551C107.877 38.5678 108.398 38.4477 108.911 38.5172L113.738 39.6113L126.609 32.1942C127.558 31.6472 128.282 31.9207 128.234 32.8217Z" fill="url(#paint3_linear)"/>
<path d="M126.319 62.9727V63.4071L79.4195 90.469L77.3762 60.6076L77.1831 57.9368C77.1977 57.5408 77.2938 57.1521 77.4654 56.795C77.637 56.4379 77.8805 56.12 78.1806 55.8613L126.319 62.9727Z" fill="url(#paint4_linear)"/>
<path d="M100.456 108.59C102.058 109.555 104.821 109.53 106.458 108.545C107.558 107.91 107.965 107.065 107.566 106.265L106.059 106.415C106.293 107.02 106.068 107.52 105.384 107.915C104.319 108.53 102.76 108.53 101.669 107.9C100.577 107.27 100.56 106.36 101.625 105.745C102.309 105.35 103.175 105.22 104.223 105.355L104.483 104.485C103.08 104.265 101.625 104.495 100.543 105.12C98.8453 106.06 98.7933 107.66 100.456 108.59ZM107.323 105.445C108.519 106.165 110.623 106.16 111.853 105.42C113.134 104.71 113.169 103.48 111.922 102.79C110.727 102.07 108.622 102.095 107.384 102.83C106.102 103.54 106.076 104.755 107.323 105.445ZM110.736 103.485C111.402 103.87 111.42 104.43 110.788 104.795C110.138 105.17 109.185 105.15 108.519 104.765C107.834 104.37 107.8 103.82 108.449 103.445C109.081 103.08 110.069 103.1 110.736 103.485ZM117.364 99.6484C116.082 98.9084 114.246 98.8683 113.051 99.5583C112.462 99.8983 112.185 100.318 112.307 100.718L111.77 100.408L110.696 101.028L116.541 104.403L117.711 103.728L115.736 102.588C116.385 102.603 117.018 102.448 117.537 102.148C118.732 101.458 118.646 100.388 117.364 99.6484ZM116.186 100.338C116.888 100.743 116.879 101.298 116.256 101.658C115.658 102.003 114.749 102.038 113.987 101.598C113.216 101.153 113.302 100.633 113.891 100.293C114.524 99.9284 115.467 99.9234 116.186 100.338ZM118.985 96.2426L120.682 98.5126L116.82 97.4926L115.581 98.2076L121.254 99.5826L121.418 99.8276C121.669 100.203 121.522 100.438 121.107 100.678C121.037 100.718 120.864 100.808 120.57 100.948L121.548 101.513C121.877 101.403 122.163 101.278 122.406 101.138C123.202 100.678 123.324 100.148 122.821 99.4076L120.215 95.5326L118.985 96.2426ZM124.813 99.0377L126.051 98.3227L122.778 91.2027L121.539 91.9177L124.813 99.0377ZM131.911 91.2499C130.629 90.5099 128.793 90.4699 127.598 91.1599C127.009 91.4999 126.732 91.9199 126.853 92.3199L126.316 92.0099L125.242 92.6299L131.088 96.0049L132.257 95.3299L130.282 94.1898C130.932 94.2048 131.564 94.0499 132.084 93.7499C133.279 93.0599 133.192 91.9899 131.911 91.2499ZM130.733 91.9398C131.434 92.3448 131.426 92.8999 130.802 93.2599C130.205 93.6049 129.295 93.6399 128.533 93.1999C127.762 92.7549 127.849 92.2349 128.438 91.8949C129.07 91.5299 130.014 91.5248 130.733 91.9398ZM136.023 88.4154C134.837 87.7304 133.469 87.7704 132.351 88.4154C131.598 88.8504 131.269 89.3804 131.364 90.0054L132.689 90.0704C132.663 89.6154 132.793 89.3304 133.235 89.0754C133.754 88.7754 134.309 88.7754 134.785 89.0504L134.976 89.1604L133.902 89.7803C132.906 90.3553 132.759 90.9904 133.529 91.4354C134.283 91.8704 135.383 91.8454 136.292 91.3204C136.837 91.0054 137.089 90.6304 137.08 90.2654L137.496 90.5054L138.57 89.8854L136.023 88.4154ZM135.798 89.6354C136.292 89.9204 136.257 90.3504 135.746 90.6454C135.374 90.8604 134.95 90.8954 134.664 90.7304C134.378 90.5654 134.447 90.3554 134.828 90.1354L135.746 89.6054L135.798 89.6354ZM138.578 89.0408C139.487 89.1158 140.431 88.9308 141.184 88.4958C141.669 88.2158 141.946 87.9158 142.016 87.5958C142.094 87.2708 141.912 86.9858 141.487 86.7408C140.855 86.3758 140.145 86.3958 138.976 86.6808L138.387 86.8208C137.911 86.9358 137.72 86.9558 137.556 86.8608C137.356 86.7458 137.426 86.5858 137.711 86.4208C138.067 86.2158 138.526 86.1108 139.08 86.1008L138.95 85.3458C138.136 85.3258 137.408 85.4958 136.768 85.8658C135.832 86.4058 135.668 87.0508 136.473 87.5158C137.105 87.8808 137.841 87.8658 138.95 87.5958L139.599 87.4408C140.058 87.3358 140.249 87.3058 140.431 87.4108C140.665 87.5458 140.552 87.7508 140.24 87.9308C139.816 88.1758 139.218 88.3008 138.456 88.2908L138.578 89.0408ZM145.411 84.8054C145.134 84.9954 144.961 85.1054 144.892 85.1454C144.337 85.4654 143.913 85.5004 143.428 85.2204L141.739 84.2454L142.952 83.5454L141.964 82.9754L140.752 83.6754L139.669 83.0504L138.5 83.7254L139.583 84.3504L138.907 84.7404L139.895 85.3104L140.57 84.9204L142.363 85.9554C143.437 86.5754 144.606 86.5204 145.688 85.8954C145.948 85.7454 146.182 85.5704 146.39 85.3704L145.411 84.8054ZM149.345 81.644C149.181 81.489 148.99 81.349 148.782 81.229C147.665 80.584 145.959 80.5591 144.772 81.2441C143.508 81.9441 143.508 83.1341 144.772 83.8341C145.985 84.5641 148.063 84.5541 149.362 83.7741C149.995 83.4091 150.35 82.9541 150.436 82.4141L149.155 82.2341C149.068 82.6141 148.817 82.9291 148.392 83.1741C147.769 83.5341 147.024 83.6141 146.34 83.3791L149.345 81.644ZM145.517 82.9041C145.119 82.5241 145.179 82.0991 145.673 81.8141C146.184 81.5191 146.929 81.4791 147.466 81.7791L145.517 82.9041ZM151.134 75.131L153.758 76.6461C153.109 76.6311 152.511 76.7761 151.966 77.0911C150.771 77.7811 150.84 78.8411 152.13 79.5861C153.421 80.3311 155.257 80.3711 156.452 79.6811C157.041 79.3411 157.318 78.9211 157.197 78.5211L157.725 78.826L158.799 78.2061L152.303 74.4561L151.134 75.131ZM155.508 77.6361C156.279 78.0811 156.192 78.6011 155.603 78.9411C154.971 79.3061 154.027 79.3111 153.308 78.8961C152.607 78.4911 152.615 77.936 153.239 77.576C153.828 77.236 154.746 77.1961 155.508 77.6361ZM161.006 73.9916C159.82 73.3066 158.451 73.3466 157.334 73.9916C156.581 74.4266 156.252 74.9566 156.347 75.5816L157.672 75.6466C157.646 75.1916 157.776 74.9065 158.218 74.6515C158.737 74.3515 159.291 74.3516 159.768 74.6266L159.958 74.7366L158.884 75.3566C157.889 75.9316 157.741 76.5665 158.512 77.0115C159.266 77.4465 160.365 77.4216 161.275 76.8966C161.82 76.5816 162.071 76.2066 162.063 75.8416L162.478 76.0816L163.552 75.4616L161.006 73.9916ZM160.781 75.2116C161.275 75.4966 161.24 75.9265 160.729 76.2215C160.357 76.4365 159.932 76.4716 159.647 76.3066C159.361 76.1416 159.43 75.9316 159.811 75.7116L160.729 75.1816L160.781 75.2116ZM166.453 72.6569C166.176 72.8469 166.003 72.9569 165.933 72.9969C165.379 73.3169 164.955 73.3519 164.47 73.0719L162.781 72.0969L163.993 71.3969L163.006 70.8269L161.794 71.5269L160.711 70.9019L159.542 71.5769L160.624 72.2019L159.949 72.5918L160.936 73.1618L161.612 72.7719L163.404 73.8069C164.478 74.4269 165.647 74.3719 166.73 73.7469C166.99 73.5969 167.224 73.4219 167.431 73.2219L166.453 72.6569ZM169.328 69.1869C168.142 68.5019 166.773 68.5419 165.656 69.1869C164.903 69.6219 164.574 70.1519 164.669 70.7769L165.994 70.8418C165.968 70.3868 166.098 70.1019 166.54 69.8469C167.059 69.5469 167.613 69.5469 168.09 69.8219L168.28 69.9319L167.206 70.5519C166.21 71.1269 166.063 71.7619 166.834 72.2069C167.587 72.6419 168.687 72.6168 169.597 72.0918C170.142 71.7768 170.393 71.4018 170.385 71.0368L170.8 71.2769L171.874 70.6569L169.328 69.1869ZM169.103 70.4069C169.597 70.6919 169.562 71.1219 169.051 71.4169C168.679 71.6319 168.254 71.6669 167.969 71.5019C167.683 71.3369 167.752 71.1269 168.133 70.9069L169.051 70.3769L169.103 70.4069Z" fill="#002642"/>
</g>
<defs>
<linearGradient id="paint0_linear" x1="100.192" y1="13.5147" x2="102.178" y2="11.3357" gradientUnits="userSpaceOnUse">
<stop stop-color="#4F429F"/>
<stop offset="0.543707" stop-color="#6152BD"/>
<stop offset="1" stop-color="#6152BD"/>
</linearGradient>
<linearGradient id="paint1_linear" x1="74.0345" y1="34.8671" x2="78.8859" y2="28.1616" gradientUnits="userSpaceOnUse">
<stop stop-color="#4F429F"/>
<stop offset="0.543707" stop-color="#6152BD"/>
<stop offset="1" stop-color="#6152BD"/>
</linearGradient>
<linearGradient id="paint2_linear" x1="66.3095" y1="38.8711" x2="66.668" y2="38.4257" gradientUnits="userSpaceOnUse">
<stop stop-color="#4F429F"/>
<stop offset="0.543707" stop-color="#6152BD"/>
<stop offset="1" stop-color="#6152BD"/>
</linearGradient>
<linearGradient id="paint3_linear" x1="94.9975" y1="80.8019" x2="108.698" y2="65.6499" gradientUnits="userSpaceOnUse">
<stop stop-color="#5144A3"/>
<stop offset="0.543707" stop-color="#6152BD"/>
<stop offset="1" stop-color="#6C5DCC"/>
</linearGradient>
<linearGradient id="paint4_linear" x1="94.9975" y1="80.8019" x2="108.698" y2="65.6499" gradientUnits="userSpaceOnUse">
<stop stop-color="#5144A3"/>
<stop offset="0.543707" stop-color="#6152BD"/>
<stop offset="1" stop-color="#6C5DCC"/>
</linearGradient>
<clipPath id="clip0">
<rect width="216" height="146" fill="white"/>
</clipPath>
</defs>
</svg>
