<svg width="185" height="116" viewBox="0 0 185 116" fill="none" xmlns="http://www.w3.org/2000/svg">
<path d="M184.018 62.3774L92.0093 9.25586L0.000189626 62.3774L92.0093 115.499L184.018 62.3774Z" fill="#D3DCE4"/>
<path d="M0.0415039 62.4193V53.1216L11.4848 59.0816L0.0415039 62.4193Z" fill="#D3DCE4"/>
<path d="M184.018 53.1215L92.0093 0L0.000189626 53.1215L92.0093 106.243L184.018 53.1215Z" fill="#F1F5F9"/>
<path d="M166.335 53.1217L92.0093 10.2095L17.6832 53.1217L92.0093 96.0339L166.335 53.1217Z" fill="white" stroke="white" stroke-width="0.476802"/>
<path d="M73.5594 42.7151C63.3051 48.6355 63.3051 58.2255 73.5594 64.1458C82.2816 69.1816 95.5054 69.9057 105.621 66.422C105.295 66.3418 104.924 66.1804 104.6 65.9934L101.445 64.1714L99.1242 65.511C97.8716 66.2342 96.1546 66.5835 94.6225 66.288C92.9055 65.9934 91.0954 65.0559 88.4971 65.3231C87.6615 65.377 87.6615 64.9483 88.2175 64.6802C89.47 64.2781 90.909 64.1987 92.6244 64.3319C94.3413 64.4659 94.8989 64.4121 96.2905 63.6087C96.9397 63.2339 97.9142 62.6183 98.7024 62.0009C97.9127 60.9558 97.6347 59.7776 98.1464 58.8401C91.187 62.0009 85.1548 61.9471 80.9785 59.536C79.1683 58.4909 78.2396 57.0445 78.0548 55.4368C76.1988 54.8467 72.6717 53.4542 72.6733 52.1146C75.458 50.5068 78.9377 50.588 79.8175 50.6144C80.7447 49.5429 81.9989 48.4978 83.5752 47.5877C85.199 46.6502 86.9618 45.9535 88.8177 45.4182C88.7703 44.9093 88.6329 42.9003 91.416 41.2934C93.6432 41.2934 96.1483 43.3289 97.1229 44.4278C99.8618 44.508 102.367 45.0971 104.177 46.1422C108.353 48.5534 108.492 52.0097 102.972 55.9465C105.57 55.4641 109.282 56.2137 111.138 57.2853L115.365 59.7256C115.504 59.8059 115.597 59.9126 115.736 59.9928C120.468 54.368 118.799 47.4035 110.679 42.7151C100.424 36.7948 83.8137 36.7948 73.5594 42.7151Z" fill="black"/>
</svg>
