<svg width="154" height="123" viewBox="0 0 154 123" fill="none" xmlns="http://www.w3.org/2000/svg">
<g clip-path="url(#clip0)">
<path d="M153.747 78.1164L76.8735 33.7334L-3.6416e-05 78.1164L76.8735 122.499L153.747 78.1164Z" fill="#D3DCE4"/>
<path d="M153.804 78.151V70.3828L144.244 75.3624L153.804 78.151Z" fill="#D3DCE4"/>
<path d="M0.034668 78.151V70.3828L9.59547 75.3624L0.034668 78.151Z" fill="#D3DCE4"/>
<path d="M153.747 70.383L76.8735 26L-3.6416e-05 70.383L76.8735 114.766L153.747 70.383Z" fill="#F1F5F9"/>
<path d="M138.973 70.3828L76.8735 34.5298L14.7743 70.3828L76.8735 106.236L138.973 70.3828Z" fill="white" stroke="white" stroke-width="0.398367"/>
<path d="M45.2522 74.8989L68.1476 61.6774C69.3913 60.9598 70.3997 59.0328 70.3997 57.3744V1.97284C70.3997 0.314395 69.3913 -0.447875 68.1476 0.270287L45.2522 13.4918C44.0082 14.2094 43 16.1364 43 17.7948V73.1964C43 74.8546 44.0082 75.6165 45.2522 74.8989Z" fill="#3D566E"/>
<path d="M49.197 35.6393L66.2222 25.5961V24.4312L49.197 34.4743V35.6393Z" fill="#CCDBF2"/>
<path d="M49.197 28.9334L58.6271 23.4543V16.731L49.197 22.21V28.9334Z" fill="#CCDBF2"/>
<path d="M49.197 39.649L66.2222 29.6058V28.4409L49.197 38.484V39.649Z" fill="#CCDBF2"/>
<path d="M49.197 43.6589L66.2222 33.6157V32.4507L49.197 42.4939V43.6589Z" fill="#CCDBF2"/>
<path d="M49.197 47.669L66.2222 37.6259V36.4609L49.197 46.5041V47.669Z" fill="#CCDBF2"/>
<path d="M49.197 51.6788L66.2222 41.6357V40.4707L49.197 50.5139V51.6788Z" fill="#CCDBF2"/>
<path d="M49.197 55.6888L59.6992 49.4746V48.3096L49.197 54.524V55.6888Z" fill="#CCDBF2"/>
<path d="M61.12 54.8488C60.9395 54.9756 60.7349 55.0629 60.5618 55.1989C60.3992 55.3268 60.2446 55.4705 60.0906 55.6088C59.7491 55.9155 59.4409 56.2829 59.1563 56.6429C58.8544 57.0247 58.5948 57.4372 58.2822 57.8116C57.9764 58.178 57.6804 58.5889 57.3317 58.9143C57.2628 58.9786 57.1917 59.0411 57.1205 59.1032C56.9887 59.2187 56.8929 59.1646 56.7354 59.1438C56.5572 59.12 56.399 59.1821 56.2537 59.2807C55.9336 59.4977 55.6882 59.8362 55.506 60.177C55.29 60.5815 55.1326 61.112 54.7946 61.4317C54.6434 61.5745 54.5459 61.5958 54.3507 61.5314C54.2441 61.4964 54.1442 61.4371 54.0458 61.3835C53.858 61.2815 53.6669 61.1882 53.4572 61.1399C53.1769 61.0723 52.8824 61.0955 52.616 61.2059C52.6127 61.1506 52.6092 61.0951 52.6055 61.0398C52.5306 59.9036 52.2729 58.7022 52.7131 57.6091C52.7481 57.524 52.6081 57.4677 52.5659 57.5471C52.4312 57.7976 52.3569 58.0792 52.2398 58.3381C52.1084 58.6287 51.9701 58.9157 51.8394 59.2073C51.5894 59.7638 51.3318 60.3207 51.0636 60.8687C50.7946 61.4183 50.4945 61.952 50.1646 62.4673C49.8482 62.9614 49.4995 63.443 49.2074 63.9511C49.1568 64.0386 49.2926 64.1184 49.3432 64.0306C49.6364 63.523 49.9838 63.0406 50.302 62.5477C50.6336 62.0334 50.9346 61.5002 51.2036 60.9507C51.4721 60.4028 51.7301 59.846 51.9796 59.2892C52.0925 59.0376 52.2096 58.788 52.3246 58.5375C52.2708 59.0825 52.3198 59.6391 52.366 60.1905C52.3965 60.5563 52.4259 60.922 52.4462 61.2878C52.1114 61.4731 51.8273 61.7766 51.5861 62.1015C51.0459 62.8286 50.79 63.8146 50.5662 64.678C50.4741 65.0335 50.3775 65.5418 50.5406 65.8917C50.6631 66.1542 50.9175 66.3212 51.2007 66.2309C51.5355 66.1243 51.7634 65.7291 51.9169 65.4396C52.1161 65.0643 52.2715 64.6565 52.3905 64.2493C52.6645 63.3133 52.6772 62.3539 52.6263 61.3907C52.7428 61.3342 52.8687 61.2998 52.9977 61.2892C53.4607 61.2508 53.8029 61.4955 54.2041 61.6727C54.5214 61.8127 54.7169 61.7849 54.9578 61.5411C55.2165 61.2794 55.3875 60.877 55.5429 60.546C55.7246 60.1595 55.966 59.7165 56.3221 59.4704C56.4345 59.3929 56.5205 59.3458 56.665 59.3463C56.7646 59.3463 56.856 59.3813 56.9545 59.3836C57.0946 59.3862 57.1788 59.3101 57.278 59.2215C57.6377 58.9005 57.9198 58.5242 58.2363 58.1622C58.5559 57.7966 58.8428 57.4082 59.1241 57.0126C59.4071 56.6165 59.7211 56.2435 60.0631 55.8971C60.2268 55.7312 60.4081 55.582 60.5826 55.4273C60.7752 55.2572 61.0052 55.1571 61.2128 55.0095C61.3104 54.9407 61.2184 54.7799 61.12 54.8488ZM52.455 62.8843C52.4024 63.7505 52.1439 64.6605 51.7182 65.4187C51.6183 65.5969 51.5005 65.7816 51.3507 65.9218C51.0916 66.1639 50.7718 66.0662 50.6868 65.717C50.5818 65.2861 50.7104 64.8275 50.8357 64.4167C51.0983 63.5566 51.3276 62.6231 51.9617 61.951C52.1208 61.7824 52.2768 61.6149 52.4579 61.4898C52.4819 61.9543 52.4809 62.4198 52.455 62.8843Z" fill="white"/>
<path d="M71.853 30.7807L67.8797 27.6284L56.6998 34.0584L47.1973 39.8368L71.3575 35.253L79.1314 32.6853L71.853 30.7807Z" fill="url(#paint0_linear)"/>
<path d="M69.2474 31.403L82.6142 23.6841C83.0534 23.4304 83.4523 23.4241 83.754 23.6141V23.6111L85.4312 24.5825L84.3066 24.7926C84.3101 24.8501 84.3134 24.9079 84.3134 24.9688V56.4958C84.3134 57.7475 83.5524 59.2017 82.6137 59.7436L69.4345 67.354C69.5546 67.7305 69.81 68.5224 69.81 68.5224L68.1699 67.5712C67.7896 67.3752 67.5466 66.8844 67.5466 66.1776V34.6497C67.5475 33.3984 68.3085 31.9441 69.2474 31.403Z" fill="#2C3E50"/>
<path d="M84.3139 56.4955C84.3139 57.747 83.5529 59.2012 82.6142 59.7431L69.435 67.3536C69.5551 67.7301 69.8105 68.5219 69.8105 68.5219L68.1704 67.5708C67.7901 67.3747 67.5471 66.884 67.5471 66.1772V34.6498C67.5471 33.9969 67.7556 33.29 68.0869 32.6851L84.3136 42.0535L84.3139 56.4955Z" fill="#2C3E50"/>
<path d="M70.9334 68.4386L84.3002 60.7196C85.2389 60.177 85.9999 58.7242 85.9999 57.4719V25.945C85.9999 24.6934 85.2389 24.118 84.3002 24.6601L70.9334 32.3791C69.9947 32.9217 69.2336 34.3745 69.2336 35.6268V67.1538C69.2336 68.405 69.9947 68.9807 70.9334 68.4386Z" fill="#F7F9FE"/>
<path d="M71.1823 67.395L84.0263 59.9782C84.7241 59.5756 85.2898 58.4944 85.2898 57.5641V26.4847C85.2898 25.5544 84.7241 25.1268 84.0263 25.5295L71.1823 32.9466C70.4847 33.3491 69.9189 34.4301 69.9189 35.3604V66.4399C69.9189 67.3704 70.4847 67.798 71.1823 67.395Z" fill="url(#paint1_linear)"/>
<path d="M73.1252 45.0636V41.8606L75.9018 40.2666" stroke="white" stroke-width="0.7" stroke-miterlimit="10"/>
<path d="M80.3381 38.0292L83.0575 36.4854L83.0498 40.3209" stroke="white" stroke-width="0.7" stroke-miterlimit="10"/>
<path d="M83.0576 47.1963V50.3991L80.281 51.9931" stroke="white" stroke-width="0.7" stroke-miterlimit="10"/>
<path d="M75.8446 54.2307L73.1252 55.7747L73.1331 51.939" stroke="white" stroke-width="0.7" stroke-miterlimit="10"/>
<path d="M74.71 30.4996V31.9874C74.71 32.3644 74.9393 32.5377 75.2219 32.3745L80.4271 29.3687C80.7098 29.2056 80.939 28.7675 80.939 28.3904V26.9473" fill="#F7F9FE"/>
<path d="M47.1973 39.8364L67.8797 27.628V27.2529L47.1973 39.4613V39.8364Z" fill="url(#paint2_linear)"/>
<path d="M81.788 84.4805C83.0005 84.6705 84.2908 84.4955 85.2608 83.9355C86.404 83.2755 86.5945 82.3955 85.5466 81.7905C84.7758 81.3455 83.8492 81.3305 82.4635 81.6405L81.5282 81.8505C80.8267 82.0055 80.5063 82.0305 80.2032 81.8555C79.8481 81.6505 79.9521 81.3605 80.3591 81.1255C80.7921 80.8755 81.3723 80.7905 82.1085 80.8755L82.2903 80.0605C81.2771 79.8855 80.1945 80.0205 79.3199 80.5255C78.2373 81.1505 78.0641 81.9905 79.0427 82.5555C79.8048 82.9955 80.8094 82.9855 82.0738 82.7055L82.9658 82.5105C83.7626 82.3405 84.0657 82.3055 84.4034 82.5005C84.7931 82.7255 84.7325 83.0405 84.2216 83.3355C83.598 83.6955 82.8706 83.7455 81.9872 83.6655L81.788 84.4805ZM85.7163 81.0725C86.9374 81.7975 89.0332 81.7875 90.2629 81.0475C91.0943 80.5675 91.3454 79.9525 91.0597 79.3575L89.622 79.4675C89.7346 79.8525 89.648 80.1625 89.2064 80.4175C88.5482 80.7975 87.5869 80.7825 86.9027 80.3875C86.2359 80.0025 86.2012 79.4425 86.8594 79.0625C87.3098 78.8025 87.8554 78.7575 88.5135 78.8275L88.6954 77.9925C87.6648 77.8275 86.6169 77.9725 85.7769 78.4575C84.5038 79.1925 84.4605 80.3475 85.7163 81.0725ZM93.9328 75.8687C92.7463 75.1837 91.378 75.2237 90.2608 75.8687C89.5074 76.3037 89.1783 76.8337 89.2735 77.4587L90.5986 77.5237C90.5726 77.0687 90.7025 76.7837 91.1442 76.5287C91.6638 76.2287 92.218 76.2287 92.6943 76.5037L92.8849 76.6137L91.811 77.2337C90.8151 77.8087 90.6678 78.4437 91.4386 78.8887C92.192 79.3237 93.2919 79.2987 94.2012 78.7737C94.7468 78.4587 94.998 78.0837 94.9893 77.7187L95.405 77.9587L96.4789 77.3387L93.9328 75.8687ZM93.7076 77.0887C94.2012 77.3737 94.1666 77.8037 93.6556 78.0987C93.2832 78.3137 92.8589 78.3487 92.5731 78.1837C92.2873 78.0187 92.3566 77.8087 92.7376 77.5887L93.6556 77.0587L93.7076 77.0887ZM98.8857 72.8791C97.8465 72.2791 96.5475 72.2391 95.5515 72.8141C95.0406 73.1091 94.7808 73.4691 94.7808 73.8191L94.3911 73.5941L93.3172 74.2141L97.604 76.6891L98.7732 76.0141L96.2703 74.5691C95.7767 74.2841 95.7767 73.8941 96.253 73.6191C96.7293 73.3441 97.3875 73.3541 97.8812 73.6391L100.384 75.0841L101.545 74.4141L98.8857 72.8791ZM80.5221 96.5513L82.3928 95.4713C84.2287 94.4413 84.3153 92.9513 82.6353 92.0113C80.9725 91.0213 78.4697 91.1163 76.677 92.1713L74.8064 93.2513L80.5221 96.5513ZM80.6347 95.2663L77.0321 93.1863L77.7249 92.7863C78.894 92.1113 80.323 92.0663 81.4315 92.7063C82.5313 93.3413 82.4794 94.2013 81.3276 94.8663L80.6347 95.2663ZM84.0333 92.0442C85.2284 92.7642 87.3328 92.7592 88.5626 92.0192C89.8443 91.3092 89.8789 90.0792 88.6319 89.3892C87.4368 88.6692 85.3323 88.6942 84.0939 89.4292C82.8122 90.1392 82.7862 91.3542 84.0333 92.0442ZM87.4454 90.0842C88.1123 90.4692 88.1296 91.0292 87.4974 91.3942C86.8479 91.7692 85.8952 91.7492 85.2284 91.3642C84.5442 90.9692 84.5096 90.4192 85.1591 90.0442C85.7913 89.6792 86.7786 89.6992 87.4454 90.0842ZM89.3022 89.0022C90.5233 89.7272 92.619 89.7172 93.8488 88.9772C94.6802 88.4972 94.9313 87.8822 94.6455 87.2872L93.2079 87.3972C93.3205 87.7822 93.2339 88.0922 92.7922 88.3472C92.1341 88.7272 91.1728 88.7122 90.4886 88.3172C89.8218 87.9322 89.7871 87.3722 90.4453 86.9922C90.8956 86.7322 91.4412 86.6872 92.0994 86.7572L92.2813 85.9222C91.2507 85.7572 90.2028 85.9022 89.3628 86.3872C88.0897 87.1222 88.0464 88.2772 89.3022 89.0022ZM94.5395 86.2784C95.7346 86.9684 97.3714 86.9434 98.5146 86.2834C99.6317 85.6384 99.6837 84.6884 98.4886 83.9984L96.0897 82.6134L94.9206 83.2884L97.4147 84.7284C97.9084 85.0134 97.891 85.4034 97.4407 85.6634C96.9644 85.9384 96.2975 85.9434 95.8039 85.6584L93.3098 84.2184L92.1406 84.8934L94.5395 86.2784ZM105.444 79.093C104.404 78.493 103.105 78.453 102.101 79.033C101.512 79.373 101.243 79.798 101.287 80.213C100.594 80.143 99.9615 80.268 99.3986 80.593C98.905 80.878 98.6452 81.228 98.6625 81.568L98.2814 81.348L97.2076 81.968L101.494 84.443L102.664 83.768L100.169 82.328C99.6584 82.033 99.6497 81.668 100.126 81.393C100.585 81.128 101.209 81.138 101.72 81.433L104.214 82.873L105.383 82.198L102.863 80.743C102.386 80.468 102.386 80.088 102.845 79.823C103.304 79.558 103.928 79.568 104.439 79.863L106.933 81.303L108.102 80.628L105.444 79.093ZM111.407 76.7C111.242 76.545 111.052 76.405 110.844 76.285C109.727 75.64 108.021 75.615 106.834 76.3C105.57 77 105.57 78.19 106.834 78.89C108.047 79.62 110.125 79.61 111.424 78.83C112.057 78.465 112.412 78.01 112.498 77.47L111.216 77.29C111.13 77.67 110.879 77.985 110.454 78.23C109.831 78.59 109.086 78.67 108.402 78.435L111.407 76.7ZM107.579 77.96C107.181 77.58 107.241 77.155 107.735 76.87C108.246 76.575 108.991 76.535 109.528 76.835L107.579 77.96ZM115.428 73.3283C114.389 72.7283 113.09 72.6883 112.094 73.2633C111.583 73.5583 111.323 73.9183 111.323 74.2683L110.934 74.0433L109.86 74.6633L114.147 77.1383L115.316 76.4633L112.813 75.0183C112.319 74.7333 112.319 74.3433 112.796 74.0683C113.272 73.7933 113.93 73.8033 114.424 74.0883L116.927 75.5333L118.087 74.8633L115.428 73.3283ZM120.988 72.0585C120.711 72.2485 120.537 72.3585 120.468 72.3985C119.914 72.7185 119.49 72.7535 119.005 72.4735L117.316 71.4985L118.528 70.7985L117.541 70.2285L116.329 70.9285L115.246 70.3035L114.077 70.9785L115.159 71.6035L114.484 71.9935L115.471 72.5635L116.147 72.1735L117.939 73.2085C119.013 73.8285 120.182 73.7735 121.265 73.1485C121.525 72.9985 121.759 72.8235 121.966 72.6235L120.988 72.0585Z" fill="#002642"/>
</g>
<defs>
<linearGradient id="paint0_linear" x1="58.775" y1="36.4266" x2="62.6175" y2="28.5973" gradientUnits="userSpaceOnUse">
<stop stop-color="#4F429F"/>
<stop offset="0.543707" stop-color="#6152BD"/>
<stop offset="1" stop-color="#6152BD"/>
</linearGradient>
<linearGradient id="paint1_linear" x1="75.4917" y1="55.7676" x2="84.3088" y2="53.2642" gradientUnits="userSpaceOnUse">
<stop stop-color="#4F429F"/>
<stop offset="0.543707" stop-color="#6152BD"/>
<stop offset="1" stop-color="#6152BD"/>
</linearGradient>
<linearGradient id="paint2_linear" x1="54.6957" y1="36.3214" x2="59.5535" y2="30.102" gradientUnits="userSpaceOnUse">
<stop stop-color="#4F429F"/>
<stop offset="0.543707" stop-color="#6152BD"/>
<stop offset="1" stop-color="#6152BD"/>
</linearGradient>
<clipPath id="clip0">
<rect width="154" height="123" fill="white"/>
</clipPath>
</defs>
</svg>
