<svg width="216" height="136" viewBox="0 0 216 136" fill="none" xmlns="http://www.w3.org/2000/svg">
<path d="M215.885 73.1789L107.942 10.8584L0.000165405 73.1789L107.942 135.499L215.885 73.1789Z" fill="#D3DCE4"/>
<path d="M215.885 62.3205L107.942 0L0.000165405 62.3205L107.942 124.641L215.885 62.3205Z" fill="#F1F5F9"/>
<path d="M195.139 62.3205L107.942 11.9775L20.7458 62.3205L107.942 112.664L195.139 62.3205Z" fill="white" stroke="white" stroke-width="0.559366"/>
<path d="M91.0514 55.7106C90.9744 53.545 92.3447 51.3831 95.1731 49.7501C98.933 47.5793 104.31 46.8959 109.169 47.6842C110.009 46.4162 111.312 45.2282 113.08 44.2075C119.861 40.2923 130.905 40.3199 137.745 44.2693C144.587 48.2192 144.634 54.5952 137.853 58.5105C137.041 58.9797 136.15 59.4009 135.193 59.7677C136.399 62.2402 135.322 65.0031 131.957 66.9457C130.548 67.7589 128.891 68.3403 127.126 68.6911C129.235 71.7093 128.173 75.2919 123.939 77.7368C119.529 80.2827 112.981 80.8416 107.625 79.4152C107.128 79.8565 106.545 80.2739 105.875 80.6608C100.624 83.6921 92.068 83.6668 86.7624 80.6037C83.207 78.551 82.0151 75.6546 83.1956 73.0552C81.2647 72.6158 79.4536 71.9459 77.8917 71.0441C71.7902 67.5215 71.7976 61.806 77.9072 58.2786C81.4942 56.2076 86.3876 55.3518 91.0514 55.7106Z" fill="#00A1E0"/>
<path d="M91.9245 74.0583C91.9822 74.1328 92.0504 74.116 92.0779 74.1188C92.2629 74.1019 92.4277 74.0715 92.5997 74.0443C93.4889 73.8869 94.1274 73.6221 94.7011 73.2909C95.8694 72.6164 95.9733 71.8388 94.9729 71.2612L94.9534 71.25C94.0284 70.7159 92.8739 70.9946 91.8629 71.2982L91.7307 71.3371C90.9631 71.5629 90.3011 71.7578 89.9197 71.5376L89.8995 71.5259C89.5733 71.3376 89.6252 71.0303 90.0779 70.7689C90.581 70.4784 91.3453 70.2302 91.9425 70.1309C91.9425 70.1309 92.1283 70.1079 92.0601 70.0208C92.0244 69.9739 91.695 69.5589 91.6585 69.5144C91.6187 69.4661 91.5343 69.4624 91.4703 69.4712C90.7643 69.5706 89.9749 69.8156 89.3469 70.1781L89.2309 70.246C88.1615 70.8634 88.0609 71.6673 88.9867 72.2018L89.0062 72.213C89.9822 72.7765 91.1222 72.4838 92.1145 72.1657L92.2768 72.1161C93.0119 71.8912 93.6448 71.6972 94.0407 71.9259L94.0602 71.9371C94.4221 72.146 94.3767 72.4833 93.8687 72.7765C93.6715 72.8904 93.0387 73.2511 91.9303 73.3953C91.8004 73.415 91.7178 73.4225 91.6163 73.437C91.562 73.444 91.4419 73.4712 91.5158 73.556L91.9245 74.0583ZM109.029 64.1831C109.086 64.2576 109.155 64.2407 109.182 64.2435C109.367 64.2267 109.532 64.1962 109.704 64.1691C110.593 64.0117 111.232 63.7469 111.805 63.4158C112.974 62.7412 113.078 61.9636 112.077 61.386L112.058 61.3748C111.133 60.8407 109.978 61.1195 108.967 61.423L108.835 61.4619C108.067 61.6877 107.405 61.8826 107.024 61.6624L107.004 61.6507C106.677 61.4624 106.729 61.1551 107.182 60.8937C107.685 60.6033 108.45 60.355 109.047 60.2557C109.047 60.2557 109.233 60.2327 109.164 60.1456C109.129 60.0988 108.799 59.6837 108.763 59.6392C108.723 59.5909 108.639 59.5872 108.574 59.5961C107.869 59.6954 107.079 59.9404 106.451 60.303L106.335 60.3709C105.266 60.9883 105.165 61.7922 106.091 62.3266L106.11 62.3379C107.086 62.9014 108.226 62.6086 109.219 62.2906L109.381 62.2409C110.116 62.0161 110.75 61.8216 111.146 62.0502L111.165 62.0615C111.527 62.2704 111.481 62.6082 110.973 62.9014C110.776 63.0152 110.143 63.3759 109.034 63.5202C108.905 63.5399 108.823 63.5487 108.721 63.5614C108.686 63.5656 108.549 63.6008 108.62 63.6809L109.029 64.1831ZM118.746 56.3102C119.311 56.6367 119.651 56.9547 119.759 57.2564C119.865 57.5548 119.706 57.8218 119.273 58.0719C118.839 58.3225 118.379 58.4139 117.864 58.3502C117.346 58.287 116.796 58.0893 116.23 57.7627C115.665 57.4367 115.324 57.1201 115.217 56.8221C115.111 56.5275 115.27 56.2623 115.704 56.0117C116.137 55.7616 116.598 55.6689 117.113 55.7278C117.631 55.7882 118.181 55.9841 118.746 56.3102ZM118.673 55.1418C118.253 55.0102 117.819 54.9315 117.382 54.909C116.945 54.8861 116.502 54.9207 116.064 55.0126C115.627 55.1044 115.204 55.2669 114.809 55.495C114.413 55.7237 114.132 55.9677 113.973 56.2197C113.814 56.4727 113.754 56.7285 113.793 56.9814C113.833 57.2334 113.969 57.4845 114.196 57.7267C114.423 57.9675 114.727 58.1984 115.101 58.4144C115.475 58.6304 115.876 58.8065 116.292 58.9371C116.712 59.0679 117.146 59.147 117.584 59.1695C118.021 59.1925 118.464 59.1568 118.898 59.0631C119.332 58.969 119.752 58.806 120.148 58.5773C120.543 58.3492 120.826 58.1066 120.989 57.856C121.151 57.6058 121.212 57.3501 121.173 57.0975C121.134 56.8455 120.998 56.5945 120.77 56.3523C120.543 56.111 120.238 55.8796 119.865 55.6641C119.492 55.4486 119.091 55.2725 118.673 55.1418ZM129.368 52.0689C129.241 52.0329 129.185 52.1064 129.185 52.1064C129.097 52.2198 128.996 52.336 128.861 52.4432C128.723 52.5519 128.557 52.6629 128.364 52.774C127.892 53.0466 127.377 53.182 126.831 53.1768C126.284 53.1721 125.684 53.0002 125.079 52.6489C124.528 52.3289 124.246 52.0123 124.169 51.6914C124.092 51.3724 124.292 51.0702 124.775 50.7915C125.177 50.5591 125.53 50.4087 125.953 50.2818C125.953 50.2818 126.063 50.2565 125.999 50.1774C125.847 49.9914 125.741 49.857 125.572 49.6541C125.524 49.5965 125.429 49.6148 125.397 49.6227C125.221 49.6672 124.842 49.7933 124.583 49.9038C124.339 50.0069 124.075 50.1394 123.801 50.2978C123.391 50.5344 123.096 50.7855 122.923 51.0464C122.75 51.3063 122.677 51.5696 122.707 51.8282C122.736 52.0868 122.862 52.3434 123.079 52.5913C123.296 52.8381 123.596 53.0733 123.97 53.2892C124.779 53.7563 125.651 54.0078 126.561 54.0354C127.473 54.0636 128.365 53.8303 129.211 53.3421C129.71 53.0536 130.122 52.699 130.345 52.4024C130.345 52.4024 130.381 52.342 130.269 52.3125L129.368 52.0689ZM128.895 49.8252C128.627 49.6173 128.452 49.4163 128.383 49.2214C128.276 48.9263 128.414 48.6504 128.848 48.4002C129.281 48.1501 129.738 48.0831 130.251 48.1426C130.591 48.1814 130.923 48.3047 131.249 48.4658L128.895 49.8252ZM131.488 47.5308C131.093 47.3982 130.572 47.3345 130.293 47.3289C129.851 47.3195 129.484 47.3471 129.188 47.4146C128.804 47.5036 128.405 47.646 128.051 47.8503C127.639 48.0882 127.334 48.344 127.173 48.6016C127.011 48.8597 126.951 49.1197 126.993 49.3755C127.034 49.6308 127.171 49.8842 127.403 50.1283C127.631 50.3719 127.937 50.6047 128.311 50.8206C128.692 51.0404 129.097 51.216 129.515 51.3425C129.937 51.4699 130.381 51.5407 130.833 51.5505C131.286 51.5618 131.75 51.5074 132.213 51.3888C132.673 51.2713 133.143 51.0768 133.605 50.8089C134.555 50.2566 134.845 49.8439 134.938 49.6584C134.954 49.6256 134.953 49.5849 134.807 49.5512L133.987 49.3267C133.864 49.2935 133.806 49.3656 133.806 49.3656C133.657 49.5526 133.479 49.8373 132.694 50.2885C132.181 50.5836 131.651 50.7157 131.177 50.7167C130.691 50.7181 130.216 50.5817 129.694 50.3044L132.998 48.4002C132.998 48.4002 133.084 48.3492 133.008 48.2952C132.976 48.2728 132.444 47.8381 131.488 47.5308ZM102.455 65.0903C102.188 64.8819 102.013 64.6813 101.943 64.4865C101.836 64.1914 101.974 63.9155 102.408 63.6653C102.841 63.4152 103.298 63.3482 103.812 63.4072C104.151 63.4466 104.483 63.5698 104.809 63.7309L102.455 65.0903ZM105.047 62.7963C104.652 62.6638 104.132 62.5996 103.853 62.5939C103.411 62.5846 103.044 62.6122 102.748 62.6796C102.364 62.7687 101.965 62.9111 101.611 63.1153C101.2 63.3528 100.894 63.6091 100.733 63.8667C100.572 64.1248 100.511 64.3848 100.553 64.6406C100.594 64.8959 100.731 65.1493 100.963 65.3933C101.192 65.6365 101.497 65.8698 101.871 66.0857C102.252 66.3054 102.657 66.4811 103.076 66.6075C103.497 66.7349 103.941 66.8056 104.393 66.8155C104.846 66.8267 105.31 66.7724 105.773 66.6539C106.233 66.5363 106.703 66.3419 107.166 66.0739C108.116 65.5216 108.405 65.1089 108.498 64.9234C108.514 64.8906 108.513 64.8499 108.367 64.8162L107.548 64.5913C107.424 64.5585 107.366 64.6306 107.366 64.6306C107.218 64.8175 107.04 65.1019 106.254 65.554C105.742 65.8486 105.211 65.9807 104.737 65.9816C104.251 65.9831 103.777 65.8467 103.254 65.5694L106.559 63.6652C106.559 63.6652 106.644 63.6142 106.568 63.5603C106.536 63.5379 106.004 63.1032 105.047 62.7963ZM97.4805 70.4584C97.2484 70.4734 97.2047 70.4687 97.0943 70.4556C96.928 70.4345 96.7503 70.3703 96.5669 70.2644C96.2764 70.0967 96.1637 69.9211 96.2221 69.7252C96.2206 69.7271 96.2587 69.4184 96.941 69.0348C97.4205 68.7654 97.913 68.5617 97.913 68.5617L99.4141 69.4283L99.4151 69.4278C99.4151 69.4278 99.0854 69.722 98.6415 70.011C98.0103 70.4223 97.4773 70.4593 97.4805 70.4584ZM96.4744 68.3607C96.3308 68.4324 96.1514 68.5293 95.9437 68.6493C95.6606 68.8127 95.4228 68.9912 95.2354 69.1791C95.0464 69.3678 94.9223 69.5641 94.8654 69.7618C94.8083 69.959 94.8308 70.1611 94.9311 70.3525C95.0318 70.5455 95.2289 70.7277 95.5162 70.8936C95.8082 71.0622 96.1125 71.1798 96.4209 71.2416C96.73 71.3039 97.0488 71.3203 97.3677 71.2908C97.6849 71.2623 98.0095 71.1882 98.3316 71.0707C98.6496 70.9554 98.9733 70.8032 99.2951 70.6176C99.6331 70.4223 99.9431 70.2115 100.214 69.9904C100.482 69.7716 100.8 69.4957 100.885 69.4175C100.944 69.3621 101.001 69.3062 101.057 69.2498C101.119 69.1908 101.024 69.1439 101.024 69.1439L98.0038 67.4018C97.3417 67.0195 96.6739 66.8382 96.0216 66.8635C95.3717 66.8884 94.7079 67.0945 94.0483 67.4753C93.8008 67.6182 93.4366 67.8679 93.2459 68.0332C93.2459 68.0332 92.6641 68.5303 92.5992 68.8357C92.5992 68.8357 92.5749 68.8966 92.7015 68.9285L93.5632 69.1561C93.6735 69.1861 93.7247 69.1247 93.7247 69.1247C93.7247 69.1247 93.7401 69.1046 93.7523 69.0779C94.042 68.5115 94.8557 68.0538 94.8557 68.0538C95.2128 67.8477 95.5584 67.7306 95.8853 67.7058C96.2034 67.6814 96.5035 67.7489 96.9433 68.0028L97.0829 68.0833C96.7583 68.2239 96.4744 68.3607 96.4744 68.3607ZM121.401 52.0051C121.351 51.9475 121.263 51.9573 121.233 51.9653C121.155 51.9849 120.815 52.1128 120.585 52.2299C120.145 52.4548 119.984 52.6281 119.871 52.8005C119.759 52.9719 119.681 53.1893 119.724 53.3603L119.322 53.1284C119.266 53.0961 119.182 53.0933 119.127 53.1251L118.28 53.6137C118.225 53.6456 118.23 53.6943 118.286 53.7266L123.21 56.5696C123.265 56.6014 123.356 56.6014 123.411 56.5696L124.279 56.0688C124.305 56.0534 124.32 56.0326 124.32 56.0109C124.32 55.9892 124.305 55.9684 124.278 55.9531L121.818 54.5328C121.488 54.3422 121.195 54.1309 121.061 53.9693C120.928 53.81 120.861 53.6592 120.864 53.5219C120.868 53.3847 120.923 53.2582 121.027 53.1448C121.133 53.0291 121.287 52.9223 121.407 52.853C121.58 52.7532 121.815 52.6693 121.815 52.6693C121.885 52.637 121.882 52.5939 121.845 52.5485C121.751 52.4286 121.46 52.0749 121.401 52.0051Z" fill="white"/>
<path d="M110.977 55.3877C110.839 55.4299 110.722 55.4725 110.573 55.5311C110.424 55.5911 110.262 55.6716 110.09 55.7704C109.493 56.1153 109.191 56.4844 109.194 56.8671C109.196 57.248 109.477 57.6677 110.028 58.1151L110.21 58.2673L109.461 58.7001C109.461 58.7001 109.367 58.7507 109.446 58.8191L110.011 59.2866C110.067 59.3293 110.137 59.3367 110.224 59.2861L110.954 58.865L114.345 61.6776C114.62 61.9029 114.827 62.0992 114.961 62.2617C115.093 62.4215 115.176 62.5507 115.2 62.666C115.223 62.7765 115.223 62.8683 115.131 62.9747C115.056 63.0623 114.942 63.1485 114.799 63.2314C114.719 63.2773 114.6 63.3311 114.505 63.3672C114.412 63.4033 114.353 63.4173 114.269 63.437C114.269 63.437 114.151 63.4675 114.202 63.5363C114.246 63.5926 114.586 64.0136 114.628 64.0652C114.671 64.1163 114.755 64.1271 114.812 64.1121C114.943 64.0755 115.038 64.047 115.202 63.9889C115.428 63.9078 115.586 63.8198 115.731 63.7359C116.034 63.5607 116.269 63.3757 116.416 63.1953C116.563 63.014 116.618 62.814 116.601 62.5976C116.58 62.3639 116.479 62.1657 116.29 61.9235C116.104 61.6841 115.829 61.4119 115.472 61.1159L112.008 58.2566L113.095 57.6288C113.095 57.6288 113.19 57.5778 113.109 57.5094L112.545 57.0419C112.488 56.9993 112.42 56.9918 112.331 57.0429L111.276 57.6523C111.258 57.6355 110.934 57.3933 110.705 57.1216C110.609 57.0059 110.585 56.8799 110.584 56.7847C110.585 56.691 110.62 56.6039 110.689 56.5256C110.76 56.4456 110.863 56.3673 110.993 56.2919C111.092 56.2348 111.202 56.1847 111.291 56.1509C111.415 56.1046 111.466 56.0882 111.501 56.0774C111.642 56.0338 111.625 56.0071 111.594 55.965L111.153 55.4192C111.105 55.3611 111.009 55.3798 110.977 55.3877ZM103.369 68.0252C103.424 68.0571 103.429 68.1058 103.374 68.1376L102.498 68.6431C102.443 68.675 102.359 68.6717 102.304 68.6398L95.2586 64.5718C95.2035 64.54 95.1978 64.4917 95.2529 64.4599L96.1284 63.9544C96.1836 63.9226 96.268 63.9254 96.3231 63.9572L103.369 68.0252Z" fill="white"/>
</svg>
