<svg width="154" height="120" viewBox="0 0 154 120" fill="none" xmlns="http://www.w3.org/2000/svg">
<g clip-path="url(#clip0)">
<path d="M153.747 75.1162L76.8735 30.7332L-3.6416e-05 75.1162L76.8735 119.499L153.747 75.1162Z" fill="#D3DCE4"/>
<path d="M153.804 75.1514V67.3833L144.244 72.3628L153.804 75.1514Z" fill="#D3DCE4"/>
<path d="M0.034668 75.1514V67.3833L9.59547 72.3628L0.034668 75.1514Z" fill="#D3DCE4"/>
<path d="M153.747 67.383L76.8735 23L-3.6416e-05 67.383L76.8735 111.766L153.747 67.383Z" fill="#F1F5F9"/>
<path d="M139.099 67.383L77 31.53L14.9008 67.383L77 103.236L139.099 67.383Z" fill="white" stroke="white" stroke-width="0.398367"/>
<path fill-rule="evenodd" clip-rule="evenodd" d="M45.72 79.56L40.14 76.33L39.67 75.94L39.31 75.39L39.08 74.68L39 73.82L39.01 41L44.6 44.22L44.58 77.05L44.66 77.9L44.89 78.61L45.25 79.17L45.72 79.56Z" fill="#403487"/>
<path fill-rule="evenodd" clip-rule="evenodd" d="M44.6 44.2199L39.01 40.9999L86.86 13.3899L92.44 16.6099L44.6 44.2199Z" fill="#E6EAEB"/>
<path fill-rule="evenodd" clip-rule="evenodd" d="M44.6 44.22L39.01 41L39.02 30.36L39.04 29.89L39.1 29.41L39.19 28.92L39.33 28.44L39.49 27.95L39.68 27.47L39.91 27L40.16 26.53L40.43 26.08L40.74 25.65L41.06 25.24L41.39 24.86L41.75 24.5L42.12 24.18L42.51 23.89L42.9 23.63L82.99 0.509998L83.77 0.149998L84.49 0L85.15 0.0299988L85.73 0.25L91.31 3.47L90.74 3.25L90.08 3.22L89.35 3.38L88.57 3.74L48.48 26.86L48.09 27.11L47.7 27.4L47.33 27.72L46.98 28.08L46.64 28.47L46.32 28.88L46.02 29.31L45.74 29.75L45.49 30.22L45.27 30.69L45.07 31.17L44.91 31.66L44.78 32.15L44.68 32.63L44.62 33.11L44.6 33.58V44.22Z" fill="#2C3E50"/>
<path fill-rule="evenodd" clip-rule="evenodd" d="M48.4801 26.86L88.5701 3.73003C90.7101 2.50003 92.4501 3.51003 92.4501 5.98003V16.61L44.6001 44.19V33.58C44.6757 32.2344 45.0662 30.9253 45.7401 29.7582C46.414 28.591 47.3525 27.5983 48.4801 26.86Z" fill="#3D566E"/>
<path fill-rule="evenodd" clip-rule="evenodd" d="M73.9901 17.6C74.9901 17.01 75.8701 17.49 75.8701 18.69C75.8335 19.3398 75.6442 19.9719 75.3175 20.5348C74.9909 21.0978 74.5361 21.5758 73.9901 21.93C72.9901 22.53 72.1201 22.05 72.1201 20.85C72.1564 20.1999 72.3445 19.5673 72.6692 19.003C72.994 18.4386 73.4463 17.9581 73.9901 17.6Z" fill="#E6EAEB"/>
<path fill-rule="evenodd" clip-rule="evenodd" d="M80.41 13.8799C81.41 13.2799 82.28 13.7599 82.28 14.9599C82.2407 15.6066 82.0512 16.2351 81.7266 16.7958C81.402 17.3565 80.9512 17.8338 80.41 18.1899C79.41 18.7799 78.53 18.2999 78.53 17.0999C78.5682 16.4532 78.7583 15.8245 79.0849 15.2651C79.4116 14.7056 79.8656 14.231 80.41 13.8799Z" fill="#FFCB05"/>
<path fill-rule="evenodd" clip-rule="evenodd" d="M86.9 10.1901C87.9 9.59009 88.78 10.0801 88.78 11.2701C88.7449 11.9216 88.5564 12.5556 88.2296 13.1205C87.9029 13.6853 87.4473 14.1648 86.9 14.5201C85.9 15.1201 85.03 14.6301 85.03 13.4401C85.0656 12.7898 85.2533 12.1569 85.5781 11.5924C85.9029 11.028 86.3557 10.5476 86.9 10.1901Z" fill="#C93E3E"/>
<path fill-rule="evenodd" clip-rule="evenodd" d="M92.4101 16.6101V49.4501C92.3397 50.7974 91.9538 52.1093 91.2833 53.2801C90.6128 54.4508 89.6766 55.4476 88.5501 56.1901L48.4601 79.2901C46.3301 80.5201 44.5801 79.5101 44.5801 77.0501V44.2201L92.4101 16.6101Z" fill="url(#paint0_linear)"/>
<path fill-rule="evenodd" clip-rule="evenodd" d="M78.383 42.1619L75.4085 40.4385L75.217 40.3619L75 40.3491L74.7574 40.4002L74.5021 40.5279L64.2894 46.413L64.1617 46.4896L64.034 46.5917L63.9064 46.6938L63.7915 46.8215L63.6766 46.9491L63.5745 47.0768L63.4723 47.2172L63.383 47.3704L63.3064 47.5236L63.2298 47.6768L63.166 47.8428L63.1149 47.9959L63.0638 48.1619L63.0383 48.3151L63.0128 48.4811V48.6342L63 55.4385L63.0255 55.7193L63.1021 55.9619L63.2298 56.1406L63.383 56.2683L66.3575 57.9917L66.2043 57.864L66.0894 57.6725L66.0128 57.4428L65.9872 57.1619V50.3576V50.1917L66.0128 50.0385L66.0383 49.8853L66.0894 49.7193L66.1404 49.5534L66.2043 49.4002L66.2809 49.247L66.3575 49.0938L66.4596 48.9406L66.5489 48.8002L66.6638 48.6598L66.7787 48.5321L66.8936 48.4172L67.0085 48.3151L67.1362 48.213L67.2638 48.1364L77.4766 42.2385L77.7319 42.1236L77.9745 42.0725L78.1915 42.0853L78.383 42.1619Z" fill="#F1F5F9"/>
<path fill-rule="evenodd" clip-rule="evenodd" d="M75.1404 42.2511L74.1191 41.6511C74.0967 41.6413 74.0775 41.6253 74.0639 41.6049C74.0504 41.5845 74.0429 41.5607 74.0425 41.5362C74.042 41.5099 74.0489 41.484 74.0625 41.4614C74.076 41.4388 74.0956 41.4205 74.1191 41.4085L75.1787 40.7958C75.2423 40.7575 75.3151 40.7373 75.3893 40.7373C75.4635 40.7373 75.5364 40.7575 75.6 40.7958L76.6212 41.3958C76.6447 41.4077 76.6643 41.426 76.6778 41.4486C76.6914 41.4712 76.6983 41.4971 76.6978 41.5234C76.6974 41.5479 76.69 41.5718 76.6764 41.5921C76.6628 41.6125 76.6437 41.6285 76.6212 41.6383L75.5617 42.2511C75.4981 42.2894 75.4252 42.3096 75.351 42.3096C75.2768 42.3096 75.204 42.2894 75.1404 42.2511Z" fill="#222F3B"/>
<path fill-rule="evenodd" clip-rule="evenodd" d="M75.6384 40.8467L76.6597 41.4467C76.6832 41.4587 76.7028 41.477 76.7163 41.4996C76.7299 41.5221 76.7368 41.5481 76.7363 41.5744C76.7359 41.5989 76.7285 41.6227 76.7149 41.6431C76.7013 41.6635 76.6821 41.6795 76.6597 41.6893L75.6384 42.2893V40.8467Z" fill="#3D566E"/>
<path fill-rule="evenodd" clip-rule="evenodd" d="M65.7064 47.702L64.6723 47.102C64.6642 47.0839 64.66 47.0644 64.66 47.0446C64.66 47.0248 64.6642 47.0052 64.6723 46.9871C64.6622 46.9673 64.657 46.9455 64.657 46.9233C64.657 46.9011 64.6622 46.8792 64.6723 46.8594L65.7447 46.2467C65.8063 46.2095 65.8769 46.1899 65.9489 46.1899C66.0209 46.1899 66.0915 46.2095 66.1532 46.2467L67.1872 46.8467C67.2097 46.8565 67.2288 46.8725 67.2424 46.8929C67.256 46.9133 67.2634 46.9371 67.2638 46.9616C67.2643 46.9879 67.2574 47.0138 67.2438 47.0364C67.2303 47.059 67.2107 47.0773 67.1872 47.0892L66.1277 47.702C66.0641 47.7403 65.9912 47.7605 65.917 47.7605C65.8428 47.7605 65.77 47.7403 65.7064 47.702Z" fill="#222F3B"/>
<path fill-rule="evenodd" clip-rule="evenodd" d="M65.9363 46.1958C66.0064 46.1704 66.0832 46.1704 66.1533 46.1958L67.1873 46.7958C67.2098 46.8056 67.2289 46.8216 67.2425 46.842C67.2561 46.8623 67.2635 46.8862 67.2639 46.9107C67.2644 46.937 67.2575 46.9629 67.2439 46.9855C67.2304 47.0081 67.2108 47.0264 67.1873 47.0383L66.1278 47.6511C66.0651 47.6685 65.9989 47.6685 65.9363 47.6511V46.1958Z" fill="#3D566E"/>
<path fill-rule="evenodd" clip-rule="evenodd" d="M77.4767 42.2383L67.2639 48.1361C66.8923 48.3809 66.5833 48.7093 66.3616 49.0951C66.1399 49.4808 66.0117 49.9132 65.9873 50.3574V57.1617C65.9873 57.9787 66.5618 58.3106 67.2639 57.9021L77.4767 52.017C77.8475 51.7715 78.156 51.4429 78.3776 51.0573C78.5993 50.6717 78.7279 50.2397 78.7533 49.7957V42.9787C78.766 42.1234 78.1916 41.8425 77.4767 42.2383Z" fill="white"/>
<path fill-rule="evenodd" clip-rule="evenodd" d="M73.4043 49.7832V52.0556C73.3859 52.3136 73.3069 52.5636 73.1738 52.7854C73.0408 53.0072 72.8573 53.1945 72.6384 53.3322L72.383 53.4854C72.2811 53.5653 72.1576 53.613 72.0283 53.6223C71.8991 53.6317 71.77 53.6023 71.6576 53.5378C71.5452 53.4734 71.4546 53.3769 71.3973 53.2607C71.3401 53.1444 71.3188 53.0137 71.3362 52.8854V50.7151C71.1598 50.593 71.0171 50.4284 70.9212 50.2365C70.8252 50.0446 70.7792 49.8317 70.7873 49.6173C70.8029 49.1067 70.9424 48.6075 71.1937 48.1628C71.445 47.718 71.8006 47.341 72.2299 47.0641C72.3983 46.9319 72.6025 46.8532 72.816 46.8381C73.0296 46.823 73.2428 46.8722 73.4282 46.9793C73.6136 47.0864 73.7627 47.2465 73.8563 47.4391C73.9498 47.6317 73.9836 47.8479 73.9533 48.0598C73.9536 48.6774 73.7618 49.2797 73.4043 49.7832Z" fill="url(#paint1_linear)"/>
<path fill-rule="evenodd" clip-rule="evenodd" d="M72.3704 47.3958C73.098 46.9745 73.647 47.3064 73.647 48.149C73.6194 48.7066 73.4285 49.2437 73.098 49.6937V52.0426C73.0879 52.2603 73.0258 52.4723 72.917 52.6611C72.8082 52.8499 72.6558 53.0098 72.4725 53.1277L72.2172 53.2809C71.8725 53.4852 71.5917 53.2809 71.5917 52.9235V50.5618C71.2597 50.4852 71.0427 50.1533 71.0427 49.6554C71.0689 49.2004 71.203 48.7582 71.4338 48.3653C71.6647 47.9724 71.9857 47.6401 72.3704 47.3958Z" fill="#3D566E"/>
<path fill-rule="evenodd" clip-rule="evenodd" d="M74.3619 38.1278L74.2981 37.9236V37.7448L74.2215 37.5661L74.1321 37.4002L74.03 37.2342L73.9279 37.0938L73.813 36.9661C74.3652 37.1205 74.8494 37.4564 75.1875 37.9196C75.5257 38.3827 75.698 38.9462 75.6768 39.5193C75.6768 39.647 75.6768 41.6895 75.6768 41.8299C75.6832 41.932 75.6832 42.0343 75.6768 42.1363L74.5789 41.498C74.6131 40.3703 74.5405 39.2418 74.3619 38.1278Z" fill="#222F3B"/>
<path fill-rule="evenodd" clip-rule="evenodd" d="M70.1617 35.7021L70.4425 35.5617L70.7106 35.4213L70.9787 35.3191L71.2468 35.217L71.5021 35.1404L71.7574 35.0766L72 35.0383L72.2425 35.0128L72.4851 35H72.7149L72.9319 35.0128L73.1489 35.0511L73.3659 35.1021L73.5702 35.166L73.7617 35.2426L73.9404 35.3447L75.0383 35.9574L74.8468 35.8553L74.6553 35.7787L74.451 35.7149L74.2468 35.6638L74.0298 35.6255L73.8 35.6128L73.5702 35.6L73.3404 35.6255L73.0979 35.6511L72.8425 35.6894L72.5872 35.7532L72.3319 35.8298L72.0638 35.9319L71.8085 36.034L71.5276 36.1745L71.2596 36.3149L70.9787 36.4809L70.7106 36.6596L70.4425 36.8383L70.1745 37.0426L69.9191 37.2596L69.6638 37.4766L69.4213 37.7064L69.1787 37.9489L68.9362 38.2043L68.7064 38.4723L68.4766 38.7404L68.2596 39.0213L68.0553 39.3021L67.851 39.5957L67.6596 39.8894L67.4681 40.1957L67.3021 40.5021L67.1234 40.8085L66.9702 41.1277L66.817 41.4468L66.6766 41.766L66.5489 42.0851L66.434 42.417L66.3191 42.7362L66.2298 43.0681L66.1404 43.4L66.0766 43.7192L66.0127 44.0383L65.9617 44.3702L65.9362 44.6894L65.9106 46.8979V47.217V47.2936V47.3702V47.4468V47.5106V47.5872L65.9234 47.6638L64.8255 47.0255V46.9745V46.9106L64.8127 46.834V46.7574V46.6809V46.6043L64.8255 44.383L64.8383 44.0766L64.8766 43.7574L64.9276 43.4383L64.9787 43.1064L65.0553 42.7872L65.1447 42.4553L65.234 42.1362L65.3362 41.8043L65.4638 41.4851L65.5915 41.1532L65.7319 40.834L65.8723 40.5149L66.0383 40.1957L66.2042 39.8894L66.383 39.583L66.5617 39.2766L66.7659 38.983L66.9574 38.6894L67.1745 38.4085L67.3915 38.1277L67.6085 37.8596L67.8383 37.5915L68.0808 37.3362L68.3234 37.0936L68.5787 36.8638L68.8213 36.6468L69.0893 36.4298L69.3447 36.2255L69.6127 36.034L69.8936 35.8681L70.1617 35.7021Z" fill="#2C3E50"/>
<path fill-rule="evenodd" clip-rule="evenodd" d="M71.2595 36.3148C74.2085 34.6552 76.6085 36.0084 76.6085 39.3148V41.4978L75.6383 42.1233C75.6446 42.0213 75.6446 41.9189 75.6383 41.8169C75.6383 41.6765 75.6383 39.6339 75.6383 39.5063C75.4468 37.119 73.5829 36.2127 71.3106 37.4765C70.1013 38.2372 69.0817 39.264 68.3295 40.4785C67.5773 41.6931 67.1124 43.0634 66.9702 44.485C66.9702 44.5871 66.9702 46.5914 66.9702 46.6935C66.9702 46.7956 66.9702 46.9871 66.9702 47.1148L65.9617 47.702C65.9617 47.5616 65.9617 47.4084 65.9617 47.2552C65.9617 47.102 65.9617 45.0212 65.9617 44.8552C66.1498 43.1266 66.7278 41.4633 67.6521 39.9906C68.5765 38.5178 69.823 37.2741 71.2978 36.3531L71.2595 36.3148Z" fill="#3D566E"/>
<path fill-rule="evenodd" clip-rule="evenodd" d="M72.651 53.0253C72.6073 53.0694 72.5552 53.1041 72.4978 53.1275L72.2425 53.2807C71.8978 53.4849 71.6169 53.2807 71.6169 52.9232V52.4126L72.651 53.0253Z" fill="#2C3E50"/>
<path fill-rule="evenodd" clip-rule="evenodd" d="M72.3703 47.3958C73.0979 46.9745 73.6469 47.3064 73.6469 48.149C73.6365 48.4969 73.5584 48.8394 73.4171 49.1575L73.0979 49.6937L71.2852 48.6341C71.5116 48.12 71.8904 47.6878 72.3703 47.3958Z" fill="#2C3E50"/>
<path fill-rule="evenodd" clip-rule="evenodd" d="M63.2554 47.7148L63.2427 47.7403L63.1788 47.8935L63.1278 48.0595L63.0895 48.2127L63.0512 48.3786L63.0384 48.5318L63.0256 48.685V55.451L63.0512 55.7318L63.1278 55.9616L63.2427 56.1531L63.3958 56.2808L66.3576 57.9914L66.2044 57.8637L66.0895 57.6722L66.0129 57.4425L65.9873 57.1616V50.3957L66.0001 50.2425L66.0129 50.0893L66.0512 49.9233L66.0895 49.7701L66.1405 49.6042L66.2044 49.451L66.2171 49.4254L63.2554 47.7148Z" fill="#D3DCE4"/>
<path fill-rule="evenodd" clip-rule="evenodd" d="M70.1616 35.7022L70.4425 35.5617L70.7106 35.4213L70.9787 35.3192L71.2467 35.217L71.5021 35.1404L71.7574 35.0766L71.9999 35.0383L72.1404 35.0256L73.1999 35.6383L73.0978 35.6511L72.8425 35.6894L72.5872 35.7532L72.3319 35.8298L72.0638 35.9319L71.8084 36.0341L71.5276 36.1745L71.2595 36.3149L70.9787 36.4809L70.7106 36.6596L70.4936 36.8128L69.4084 36.1873L69.6127 36.0341L69.8936 35.8681L70.1616 35.7022Z" fill="#354C61"/>
<path fill-rule="evenodd" clip-rule="evenodd" d="M67.5065 40.1445L67.4682 40.1956L67.3022 40.502L67.1235 40.8084L66.9703 41.1275L66.8171 41.4467L66.6767 41.7658L66.549 42.085L66.4341 42.4169L66.3192 42.736L66.2299 43.0679L66.1405 43.3998L66.0767 43.719L66.0128 44.0381L65.9618 44.3701L65.9363 44.6892V44.7147L64.8384 44.0892V44.0764L64.8767 43.7573L64.9277 43.4381L64.9788 43.1062L65.0554 42.7871L65.1448 42.4552L65.2341 42.136L65.3363 41.8041L65.4639 41.485L65.5916 41.153L65.732 40.8339L65.8724 40.5147L66.0384 40.1956L66.2043 39.8892L66.3831 39.5828L66.4214 39.519L67.5065 40.1445Z" fill="#233140"/>
<path d="M76.7947 85.5904L80.4666 83.4704L79.4101 82.8604L76.9073 84.3054L72.248 81.6154L71.0789 82.2904L76.7947 85.5904ZM78.8342 81.9329C80.0294 82.6529 82.1338 82.6479 83.3636 81.9079C84.6453 81.1979 84.6799 79.9679 83.4328 79.2779C82.2377 78.5579 80.1333 78.5829 78.8949 79.3179C77.6131 80.0279 77.5872 81.2429 78.8342 81.9329ZM82.2464 79.9729C82.9132 80.3579 82.9305 80.9179 82.2983 81.2829C81.6488 81.6579 80.6962 81.6379 80.0294 81.2529C79.3452 80.8579 79.3106 80.3079 79.9601 79.9329C80.5923 79.5679 81.5795 79.5879 82.2464 79.9729ZM85.4368 75.6509L85.9737 75.9609C85.2636 75.9009 84.5535 76.0509 83.9386 76.4059C82.7694 77.0809 82.7348 78.0809 84.0079 78.8159C85.2636 79.5409 87.0043 79.5459 88.1908 78.8609C88.7364 78.5459 89.0135 78.1859 88.9875 77.8109L89.2213 77.9459C89.8882 78.3309 89.7843 78.7909 89.0914 79.1909C88.5718 79.4909 87.9743 79.6059 87.1429 79.6759L87.3421 80.5009C88.4679 80.4609 89.4378 80.2109 90.2432 79.7459C91.5856 78.9709 91.7155 78.0359 90.3212 77.2309L86.5107 75.0309L85.4368 75.6509ZM87.368 76.8559C88.1042 77.2809 88.0349 77.8109 87.446 78.1509C86.8224 78.5109 85.8785 78.5259 85.1857 78.1259C84.4928 77.7259 84.5448 77.2059 85.177 76.8409C85.7746 76.4959 86.6319 76.4309 87.368 76.8559ZM94.384 75.4352L95.5531 74.7602L91.2663 72.2852L90.0972 72.9602L94.384 75.4352ZM88.3738 72.1552C88.7808 72.3902 89.4217 72.3802 89.8374 72.1402C90.2531 71.9002 90.279 71.5252 89.872 71.2902C89.4563 71.0502 88.8068 71.0652 88.3911 71.3052C87.9754 71.5452 87.9581 71.9152 88.3738 72.1552ZM97.9915 70.2824C96.9522 69.6824 95.6532 69.6424 94.6573 70.2174C94.1463 70.5124 93.8865 70.8724 93.8865 71.2224L93.4968 70.9974L92.4229 71.6174L96.7097 74.0924L97.8789 73.4174L95.3761 71.9724C94.8824 71.6874 94.8824 71.2974 95.3587 71.0224C95.8351 70.7474 96.4932 70.7574 96.9869 71.0424L99.4897 72.4874L100.65 71.8174L97.9915 70.2824ZM103.551 69.0126C103.274 69.2026 103.101 69.3126 103.031 69.3526C102.477 69.6726 102.053 69.7076 101.568 69.4276L99.8791 68.4526L101.091 67.7526L100.104 67.1826L98.8918 67.8826L97.8093 67.2576L96.6401 67.9326L97.7227 68.5576L97.0472 68.9476L98.0344 69.5176L98.7099 69.1276L100.502 70.1626C101.576 70.7826 102.746 70.7276 103.828 70.1026C104.088 69.9526 104.322 69.7776 104.53 69.5776L103.551 69.0126ZM102.904 68.0364C104.099 68.7564 106.203 68.7514 107.433 68.0114C108.715 67.3014 108.749 66.0714 107.502 65.3814C106.307 64.6614 104.203 64.6864 102.964 65.4214C101.682 66.1314 101.656 67.3464 102.904 68.0364ZM106.316 66.0764C106.983 66.4614 107 67.0214 106.368 67.3864C105.718 67.7614 104.766 67.7414 104.099 67.3564C103.415 66.9614 103.38 66.4114 104.029 66.0364C104.662 65.6714 105.649 65.6914 106.316 66.0764ZM90.9499 84.3479C89.9106 83.7479 88.6116 83.7079 87.607 84.2879C87.0181 84.6279 86.7496 85.0529 86.7929 85.4679C86.1001 85.3979 85.4679 85.5229 84.905 85.8479C84.4114 86.1329 84.1516 86.4829 84.1689 86.8229L83.7878 86.6029L82.714 87.2229L87.0008 89.6979L88.1699 89.0229L85.6758 87.5829C85.1648 87.2879 85.1562 86.9229 85.6325 86.6479C86.0915 86.3829 86.715 86.3929 87.226 86.6879L89.7201 88.1279L90.8892 87.4529L88.3691 85.9979C87.8928 85.7229 87.8928 85.3429 88.3518 85.0779C88.8108 84.8129 89.4343 84.8229 89.9453 85.1179L92.4394 86.5579L93.6086 85.8829L90.9499 84.3479ZM93.3626 81.0749L95.06 83.3449L91.1976 82.3249L89.9591 83.0399L95.6316 84.4149L95.7962 84.6599C96.0473 85.0349 95.9001 85.2699 95.4844 85.5099C95.4151 85.5499 95.2419 85.6399 94.9475 85.7799L95.9261 86.3449C96.2552 86.2349 96.5409 86.1099 96.7834 85.9699C97.5802 85.5099 97.7014 84.9799 97.1991 84.2399L94.5924 80.3649L93.3626 81.0749ZM103.035 77.5006C101.848 76.8156 100.48 76.8556 99.363 77.5006C98.6096 77.9356 98.2805 78.4656 98.3758 79.0906L99.7008 79.1556C99.6748 78.7006 99.8047 78.4156 100.246 78.1606C100.766 77.8606 101.32 77.8606 101.796 78.1356L101.987 78.2456L100.913 78.8656C99.9173 79.4406 99.7701 80.0756 100.541 80.5206C101.294 80.9556 102.394 80.9306 103.303 80.4056C103.849 80.0906 104.1 79.7156 104.091 79.3506L104.507 79.5906L105.581 78.9706L103.035 77.5006ZM102.81 78.7206C103.303 79.0056 103.269 79.4356 102.758 79.7306C102.385 79.9456 101.961 79.9806 101.675 79.8156C101.389 79.6506 101.459 79.4406 101.84 79.2206L102.758 78.6906L102.81 78.7206ZM109.088 74.4659C107.806 73.7259 105.97 73.6859 104.775 74.3759C104.186 74.7159 103.909 75.1359 104.03 75.5359L103.493 75.2259L102.419 75.8459L108.265 79.2209L109.434 78.5459L107.46 77.4059C108.109 77.4209 108.741 77.2659 109.261 76.9659C110.456 76.2759 110.369 75.2059 109.088 74.4659ZM107.91 75.1559C108.611 75.5609 108.603 76.1159 107.979 76.4759C107.382 76.8209 106.472 76.8559 105.71 76.4159C104.939 75.9709 105.026 75.4509 105.615 75.1109C106.247 74.7459 107.191 74.7409 107.91 75.1559ZM114.534 71.3214C113.252 70.5814 111.417 70.5414 110.221 71.2314C109.633 71.5714 109.355 71.9914 109.477 72.3914L108.94 72.0814L107.866 72.7014L113.711 76.0764L114.881 75.4014L112.906 74.2614C113.556 74.2764 114.188 74.1214 114.707 73.8214C115.903 73.1314 115.816 72.0614 114.534 71.3214ZM113.356 72.0114C114.058 72.4164 114.049 72.9714 113.426 73.3314C112.828 73.6764 111.919 73.7114 111.157 73.2714C110.386 72.8264 110.473 72.3064 111.061 71.9664C111.694 71.6014 112.638 71.5964 113.356 72.0114Z" fill="#002642"/>
</g>
<defs>
<linearGradient id="paint0_linear" x1="61.9209" y1="62.1594" x2="83.9237" y2="49.1893" gradientUnits="userSpaceOnUse">
<stop stop-color="#4F429F"/>
<stop offset="0.543707" stop-color="#6152BD"/>
<stop offset="1" stop-color="#6152BD"/>
</linearGradient>
<linearGradient id="paint1_linear" x1="71.9385" y1="51.7278" x2="73.6771" y2="51.0938" gradientUnits="userSpaceOnUse">
<stop stop-color="#4F429F"/>
<stop offset="0.543707" stop-color="#6152BD"/>
<stop offset="1" stop-color="#6152BD"/>
</linearGradient>
<clipPath id="clip0">
<rect width="154" height="120" fill="white"/>
</clipPath>
</defs>
</svg>
