<svg width="154" height="97" viewBox="0 0 154 97" fill="none" xmlns="http://www.w3.org/2000/svg">
<path d="M153.747 52.1164L76.8735 7.7334L-3.6416e-05 52.1164L76.8735 96.4994L153.747 52.1164Z" fill="#D3DCE4"/>
<path d="M153.747 44.383L76.8735 0L-3.6416e-05 44.383L76.8735 88.766L153.747 44.383Z" fill="#F1F5F9"/>
<path d="M138.973 44.3833L76.8735 8.53027L14.7743 44.3833L76.8735 80.2363L138.973 44.3833Z" fill="white" stroke="white" stroke-width="0.398367"/>
<path d="M74.0785 50.7724L72.3949 53.2083L76.2971 52.3051L78.2976 49.8004L74.0785 50.7724ZM71.226 54.2491L76.832 57.5999L83.0516 56.2048L77.1287 52.7853L71.226 54.2491ZM80.1003 49.1255L77.6839 52.2363L83.2697 55.4612L85.5871 52.2934L80.1003 49.1255ZM67.007 36.1908L65.3031 38.6384L69.2255 37.7235L71.226 35.2188L67.007 36.1908ZM64.571 39.542L70.2759 42.8357L75.0299 41.3264L69.9589 38.2611L64.571 39.542ZM73.1283 34.9673L71.1278 37.838L76.7338 41.0746L78.6355 38.1469L73.1283 34.9673ZM61.0809 48.8837L59.3973 51.3195L63.2995 50.4163L65.3 47.9116L61.0809 48.8837ZM58.2285 52.3603L63.8345 55.7112L70.054 54.3161L64.1311 50.8965L58.2285 52.3603ZM67.1027 47.2368L64.6864 50.3475L70.2721 53.5724L72.5895 50.4046L67.1027 47.2368ZM70.3786 43.2726L68.695 45.7085L72.5971 44.8053L74.5976 42.3006L70.3786 43.2726ZM67.5261 46.7493L73.1321 50.1001L79.3517 48.7051L73.4294 45.2858L67.5261 46.7493ZM76.4004 41.6258L73.9841 44.7365L79.5698 47.9614L81.8872 44.7936L76.4004 41.6258ZM76.2939 30.829L74.6103 33.2649L78.5125 32.3616L80.513 29.857L76.2939 30.829ZM73.4414 34.3057L79.0474 37.6565L85.267 36.2614L79.3447 32.8422L73.4414 34.3057ZM82.3157 29.1821L79.8993 32.2929L85.4851 35.5178L87.8025 32.35L82.3157 29.1821Z" fill="#F7A80D"/>
</svg>
