<svg width="189" height="146" viewBox="0 0 189 146" fill="none" xmlns="http://www.w3.org/2000/svg">
<path d="M188.799 90.9976L94.3994 36.4961L9.55748e-05 90.9976L94.3994 145.499L188.799 90.9976Z" fill="#D3DCE4"/>
<path d="M188.869 91.0407V81.5015L177.128 87.6164L188.869 91.0407Z" fill="#D3DCE4"/>
<path d="M0.0427246 91.0407V81.5015L11.7832 87.6164L0.0427246 91.0407Z" fill="#D3DCE4"/>
<path d="M188.799 81.5015L94.3994 27L9.55748e-05 81.5015L94.3994 136.003L188.799 81.5015Z" fill="#F1F5F9"/>
<path d="M170.257 81.0268L94 37L17.7434 81.0268L94 125.054L170.257 81.0268Z" fill="white" stroke="white" stroke-width="0.489187"/>
<path d="M81.658 56.7414L45.3159 35.7573V77.6964L81.658 98.6805V56.7414Z" fill="#403487"/>
<path d="M81.658 56.7414L45.3159 35.7573V77.6964L81.658 98.6805V56.7414Z" stroke="white" stroke-opacity="0.5" stroke-width="1.35161"/>
<path d="M81.658 56.7414L118 35.7573V77.6964L81.658 98.6805V56.7414Z" fill="url(#paint0_linear)"/>
<path d="M118 35.7573L81.658 14.7878L45.3159 35.7573L81.658 56.7414L118 35.7573Z" fill="#403487"/>
<path d="M118 35.7573L81.658 14.7878L45.3159 35.7573L81.658 56.7414L118 35.7573Z" stroke="white" stroke-opacity="0.5" stroke-width="1.35161"/>
<path opacity="0.2" d="M59.0134 58.2618L60.1948 58.9445V57.6905L59.0134 57.0078V58.2618Z" fill="white"/>
<path opacity="0.2" d="M56.5681 56.8529L57.7495 57.5355V56.2767L56.5681 55.594V56.8529Z" fill="white"/>
<path opacity="0.2" d="M54.123 55.4388L55.3044 56.1215V54.8675L54.123 54.1848V55.4388Z" fill="white"/>
<path opacity="0.2" d="M56.5681 49.9679L57.7495 50.6506V49.3917L56.5681 48.709V49.9679Z" fill="white"/>
<path opacity="0.2" d="M59.0134 69.7125L60.1948 70.3952V69.1412L59.0134 68.4585V69.7125Z" fill="white"/>
<path opacity="0.2" d="M56.5681 68.3033L57.7495 68.986V67.7271L56.5681 67.0493V68.3033Z" fill="white"/>
<path opacity="0.2" d="M54.123 66.8946L55.3044 67.5724V66.3184L54.123 65.6357V66.8946Z" fill="white"/>
<path opacity="0.2" d="M61.4585 66.7491L62.6399 67.4318V66.1778L61.4585 65.4951V66.7491Z" fill="white"/>
<path opacity="0.2" d="M59.0134 65.3403L60.1948 66.023V64.7641L59.0134 64.0815V65.3403Z" fill="white"/>
<path opacity="0.2" d="M59.0134 76.6358L60.1948 77.3137V76.0597L59.0134 75.377V76.6358Z" fill="white"/>
<path opacity="0.2" d="M56.5681 75.2223L57.7495 75.905V74.6461L56.5681 73.9683V75.2223Z" fill="white"/>
<path opacity="0.2" d="M61.4585 75.5078L62.6399 76.1905V74.9316L61.4585 74.249V75.5078Z" fill="white"/>
<path opacity="0.2" d="M59.0134 74.0943L60.1948 74.777V73.523L59.0134 72.8403V74.0943Z" fill="white"/>
<path opacity="0.2" d="M54.123 71.2716L55.3044 71.9543V70.7003L54.123 70.0176V71.2716Z" fill="white"/>
<path opacity="0.2" d="M95.9602 35.1568L84.8242 41.5818C82.6309 42.8503 78.7962 42.6905 76.264 41.2283L66.4837 35.5829C63.9515 34.1304 63.6755 31.9031 65.8688 30.6395L77.0048 24.2145C79.2029 22.9459 83.0327 23.1057 85.5698 24.5679L95.3501 30.2134C97.8775 31.6756 98.1535 33.8931 95.9602 35.1568Z" stroke="white" stroke-width="0.484173" stroke-miterlimit="10"/>
<path d="M95.9602 30.1941L84.8242 36.6191C82.6309 37.8876 78.7962 37.7279 76.264 36.2657L66.4837 30.6202C63.9515 29.1677 63.6755 26.9405 65.8688 25.6768L77.0048 19.2518C79.2029 17.9833 83.0327 18.1431 85.5698 19.6053L95.3452 25.2604C97.8775 26.7129 98.1535 28.9256 95.9602 30.1941Z" fill="url(#paint1_linear)" fill-opacity="0.8"/>
<path d="M95.9602 30.1941L84.8242 36.6191C82.6309 37.8876 78.7962 37.7279 76.264 36.2657L66.4837 30.6202C63.9515 29.1677 63.6755 26.9405 65.8688 25.6768L77.0048 19.2518C79.2029 17.9833 83.0327 18.1431 85.5698 19.6053L95.3452 25.2604C97.8775 26.7129 98.1535 28.9256 95.9602 30.1941Z" stroke="white" stroke-opacity="0.5" stroke-width="1.35161"/>
<path opacity="0.2" d="M90.1503 59.2542L86.8628 61.1522V59.8933L90.1503 58.0002V59.2542Z" fill="white"/>
<path opacity="0.2" d="M88.0442 62.9774L86.8628 63.6601V62.4061L88.0442 61.7234V62.9774Z" fill="white"/>
<path opacity="0.2" d="M92.3295 60.5083L89.2065 62.3094V61.0554L92.3295 59.2495V60.5083Z" fill="white"/>
<path opacity="0.2" d="M90.1503 64.275L86.8628 66.173V64.9141L90.1503 63.021V64.275Z" fill="white"/>
<path opacity="0.2" d="M96.6917 55.4776L91.3464 58.5617V57.3078L96.6917 54.2188V55.4776Z" fill="white"/>
<path opacity="0.2" d="M90.1503 70.7047L86.8628 72.6027V71.3487L90.1503 69.4507V70.7047Z" fill="white"/>
<path opacity="0.2" d="M92.6535 80.5288L86.8628 83.8696V82.6108L92.6535 79.27V80.5288Z" fill="white"/>
<path opacity="0.2" d="M96.6917 78.1949L93.8496 79.8362V78.5822L96.6917 76.9409V78.1949Z" fill="white"/>
<path opacity="0.2" d="M88.0442 74.4331L86.8628 75.1109V73.8569L88.0442 73.1743V74.4331Z" fill="white"/>
<path opacity="0.2" d="M92.3295 71.9591L89.2065 73.7602V72.5062L92.3295 70.7002V71.9591Z" fill="white"/>
<path opacity="0.2" d="M90.1503 75.7257L86.8628 77.6237V76.3648L90.1503 74.4717V75.7257Z" fill="white"/>
<path opacity="0.2" d="M90.1503 84.5138L86.8628 86.4069V85.1529L90.1503 83.2549V84.5138Z" fill="white"/>
<path opacity="0.2" d="M96.6917 66.9284L91.3464 70.0125V68.7585L96.6917 65.6743V66.9284Z" fill="white"/>
<path d="M96.1833 25.9432L84.965 32.5232C82.7523 33.8207 78.8934 33.661 76.337 32.1649L66.4792 26.379C63.9276 24.8781 63.4677 22.1376 65.8159 20.9901L77.0778 14.7492C79.2905 13.4516 83.1493 13.6162 85.7058 15.1123L95.5635 20.903C98.1684 21.5905 98.3911 24.6457 96.1833 25.9432Z" fill="#B7D1FA"/>
<path d="M96.0619 25.2606L84.9259 31.6855C82.7326 32.9492 78.8979 32.7943 76.3657 31.3272L66.5854 25.6818C64.0484 24.2293 63.7724 22.0069 65.9705 20.7384L77.1065 14.3134C79.2998 13.0497 83.1345 13.2046 85.6667 14.6717L95.447 20.3171C97.9841 21.7551 98.26 23.9678 96.0619 25.2606Z" fill="url(#paint2_linear)" fill-opacity="0.8"/>
<path d="M96.0619 25.2606L84.9259 31.6855C82.7326 32.9492 78.8979 32.7943 76.3657 31.3272L66.5854 25.6818C64.0484 24.2293 63.7724 22.0069 65.9705 20.7384L77.1065 14.3134C79.2998 13.0497 83.1345 13.2046 85.6667 14.6717L95.447 20.3171C97.9841 21.7551 98.26 23.9678 96.0619 25.2606Z" stroke="white" stroke-opacity="0.5" stroke-width="1.35161"/>
<path d="M78.9764 25.4967L79.825 25.0068L74.1713 23.7295L73.908 23.8816L76.1144 27.1491L76.9631 26.6591L76.6763 26.2435L78.2565 25.3312L78.9764 25.4967ZM77.3318 25.1149L76.3017 25.7096L75.5116 24.6587L77.3318 25.1149ZM80.3525 24.7022L81.1426 24.246L79.779 23.4587L80.4403 23.0769C81.248 22.6106 81.3182 21.9753 80.5808 21.5496C79.8375 21.1204 78.7489 21.1677 77.9412 21.634L76.4898 22.472L80.3525 24.7022ZM79.0883 23.06L77.9763 22.418L78.6377 22.0362C78.9947 21.83 79.4454 21.8267 79.7731 22.0159C80.1067 22.2085 80.1184 22.4653 79.7497 22.6782L79.0883 23.06ZM83.8275 22.6959L84.6176 22.2397L80.7549 20.0096L79.9648 20.4657L83.8275 22.6959ZM84.6659 21.6442C85.2805 21.6949 85.9184 21.5698 86.4276 21.2759C86.7553 21.0866 86.9426 20.8839 86.9894 20.6676C87.0421 20.448 86.9192 20.2554 86.6324 20.0898C86.2052 19.8432 85.7253 19.8567 84.9352 20.0493L84.5372 20.1439C84.2153 20.2216 84.0865 20.2351 83.9753 20.1709C83.8407 20.0932 83.8875 19.9851 84.0807 19.8736C84.3206 19.735 84.6308 19.6641 85.0054 19.6573L84.9176 19.1471C84.3674 19.1336 83.8758 19.2484 83.4427 19.4985C82.8106 19.8634 82.6994 20.2993 83.2437 20.6136C83.671 20.8602 84.1685 20.8501 84.9176 20.6676L85.3565 20.5629C85.6667 20.4919 85.7955 20.4717 85.9184 20.5426C86.0764 20.6339 86.0003 20.7724 85.7896 20.894C85.5029 21.0596 85.099 21.1441 84.584 21.1373L84.6659 21.6442Z" fill="#DDE0F7"/>
<path d="M96.1833 13.2384L84.965 19.8135C82.7523 21.1062 78.8934 20.9465 76.337 19.4504L66.4792 13.6742C63.9276 12.1781 63.4677 9.43283 65.8159 8.28534L77.0778 2.04434C79.2905 0.746759 83.1493 0.911379 85.7058 2.40747L95.5635 8.18366C98.1684 8.88572 98.3911 11.9409 96.1833 13.2384Z" fill="#B7D1FA"/>
<path d="M96.0619 12.5316L84.9259 18.9566C82.7326 20.2203 78.8979 20.0653 76.3657 18.5983L66.5854 12.9528C64.0484 11.5003 63.7724 9.27789 65.9705 8.00936L77.1065 1.58438C79.2998 0.320693 83.1345 0.475623 85.6667 1.94267L95.447 7.58813C97.9841 9.05033 98.26 11.263 96.0619 12.5316Z" fill="url(#paint3_linear)" fill-opacity="0.8"/>
<path d="M96.0619 12.5316L84.9259 18.9566C82.7326 20.2203 78.8979 20.0653 76.3657 18.5983L66.5854 12.9528C64.0484 11.5003 63.7724 9.27789 65.9705 8.00936L77.1065 1.58438C79.2998 0.320693 83.1345 0.475623 85.6667 1.94267L95.447 7.58813C97.9841 9.05033 98.26 11.263 96.0619 12.5316Z" stroke="white" stroke-opacity="0.5" stroke-width="1.35161"/>
<path d="M78.9764 11.9806L79.825 11.4907L74.1713 10.2134L73.908 10.3654L76.1144 13.633L76.9631 13.143L76.6763 12.7274L78.2565 11.815L78.9764 11.9806ZM77.3318 11.5988L76.3017 12.1935L75.5116 11.1426L77.3318 11.5988ZM80.3525 11.1861L81.1426 10.7299L79.779 9.94259L80.4403 9.56076C81.248 9.09445 81.3182 8.4592 80.5808 8.03344C79.8375 7.6043 78.7489 7.65161 77.9412 8.11791L76.4898 8.95591L80.3525 11.1861ZM79.0883 9.54387L77.9763 8.90185L78.6377 8.52002C78.9947 8.3139 79.4454 8.31052 79.7731 8.49974C80.1067 8.69235 80.1184 8.94916 79.7497 9.16204L79.0883 9.54387ZM83.8275 9.17978L84.6176 8.72361L80.7549 6.49344L79.9648 6.94961L83.8275 9.17978ZM84.6659 8.12805C85.2805 8.17874 85.9184 8.05371 86.4276 7.75974C86.7553 7.57051 86.9426 7.36777 86.9894 7.15151C87.0421 6.93187 86.9192 6.73927 86.6324 6.5737C86.2052 6.32703 85.7253 6.34054 84.9352 6.53315L84.5372 6.62776C84.2153 6.70548 84.0865 6.71899 83.9753 6.65479C83.8407 6.57708 83.8875 6.46895 84.0807 6.35744C84.3206 6.2189 84.6308 6.14794 85.0054 6.14118L84.9176 5.63095C84.3674 5.61743 83.8758 5.73232 83.4427 5.98237C82.8106 6.3473 82.6994 6.7832 83.2437 7.09745C83.671 7.34412 84.1685 7.33398 84.9176 7.15151L85.3565 7.04676C85.6667 6.9758 85.7955 6.95553 85.9184 7.02649C86.0764 7.11772 86.0003 7.25626 85.7896 7.37791C85.5029 7.54348 85.099 7.62795 84.584 7.6212L84.6659 8.12805Z" fill="#DDE0F7"/>
<path d="M92.6372 105.631C94.2394 106.596 97.002 106.571 98.6388 105.586C99.7386 104.951 100.146 104.106 99.7473 103.306L98.2404 103.456C98.4742 104.061 98.2491 104.561 97.5649 104.956C96.4997 105.571 94.9408 105.571 93.8497 104.941C92.7585 104.311 92.7411 103.401 93.8064 102.786C94.4905 102.391 95.3565 102.261 96.4044 102.396L96.6642 101.526C95.2613 101.306 93.8064 101.536 92.7238 102.161C91.0264 103.101 90.9744 104.701 92.6372 105.631ZM99.5045 102.486C100.7 103.206 102.804 103.201 104.034 102.461C105.315 101.751 105.35 100.521 104.103 99.831C102.908 99.111 100.803 99.136 99.5651 99.871C98.2834 100.581 98.2574 101.796 99.5045 102.486ZM102.917 100.526C103.583 100.911 103.601 101.471 102.969 101.836C102.319 102.211 101.366 102.191 100.7 101.806C100.015 101.411 99.9808 100.861 100.63 100.486C101.262 100.121 102.25 100.141 102.917 100.526ZM108.445 96.734C107.406 96.134 106.107 96.094 105.111 96.669C104.6 96.964 104.34 97.324 104.34 97.674L103.951 97.449L102.877 98.069L107.164 100.544L108.333 99.869L105.83 98.424C105.336 98.139 105.336 97.749 105.813 97.474C106.289 97.199 106.947 97.209 107.441 97.494L109.944 98.939L111.104 98.269L108.445 96.734ZM113.511 93.8092C112.472 93.2092 111.173 93.1692 110.177 93.7442C109.666 94.0392 109.406 94.3992 109.406 94.7492L109.017 94.5242L107.943 95.1442L112.229 97.6192L113.399 96.9442L110.896 95.4992C110.402 95.2142 110.402 94.8242 110.878 94.5492C111.355 94.2742 112.013 94.2842 112.507 94.5692L115.009 96.0142L116.17 95.3442L113.511 93.8092ZM119.486 91.4094C119.322 91.2544 119.131 91.1144 118.924 90.9944C117.806 90.3494 116.1 90.3244 114.914 91.0094C113.649 91.7094 113.649 92.8994 114.914 93.5994C116.126 94.3294 118.205 94.3194 119.504 93.5394C120.136 93.1744 120.491 92.7194 120.578 92.1794L119.296 91.9994C119.209 92.3794 118.958 92.6944 118.534 92.9394C117.91 93.2994 117.165 93.3794 116.481 93.1444L119.486 91.4094ZM115.659 92.6694C115.26 92.2894 115.321 91.8644 115.814 91.5794C116.325 91.2844 117.07 91.2444 117.607 91.5444L115.659 92.6694ZM119.836 90.7477C121.057 91.4727 123.153 91.4627 124.382 90.7227C125.214 90.2427 125.465 89.6277 125.179 89.0327L123.742 89.1427C123.854 89.5277 123.768 89.8377 123.326 90.0927C122.668 90.4727 121.706 90.4577 121.022 90.0627C120.355 89.6777 120.321 89.1177 120.979 88.7377C121.429 88.4777 121.975 88.4327 122.633 88.5027L122.815 87.6677C121.784 87.5027 120.736 87.6477 119.896 88.1327C118.623 88.8677 118.58 90.0227 119.836 90.7477ZM128.78 86.9339C128.503 87.1239 128.329 87.2339 128.26 87.2739C127.706 87.5939 127.281 87.6289 126.797 87.3489L125.108 86.3739L126.32 85.6739L125.333 85.1039L124.12 85.8039L123.038 85.1789L121.869 85.8539L122.951 86.4789L122.276 86.8689L123.263 87.4389L123.939 87.0489L125.731 88.0839C126.805 88.7039 127.974 88.6489 129.057 88.0239C129.317 87.8739 129.55 87.6989 129.758 87.4989L128.78 86.9339ZM134.81 83.4525C134.533 83.6425 134.359 83.7525 134.29 83.7925C133.736 84.1125 133.312 84.1475 132.827 83.8675L131.138 82.8925L132.35 82.1925L131.363 81.6225L130.151 82.3225L129.068 81.6975L127.899 82.3725L128.981 82.9975L128.306 83.3875L129.293 83.9575L129.969 83.5675L131.761 84.6025C132.835 85.2225 134.004 85.1675 135.087 84.5425C135.347 84.3925 135.581 84.2175 135.788 84.0175L134.81 83.4525ZM134.162 82.4763C135.358 83.1963 137.462 83.1913 138.692 82.4513C139.973 81.7413 140.008 80.5113 138.761 79.8212C137.566 79.1013 135.461 79.1263 134.223 79.8612C132.941 80.5713 132.915 81.7863 134.162 82.4763ZM137.575 80.5163C138.241 80.9013 138.259 81.4613 137.626 81.8263C136.977 82.2013 136.024 82.1813 135.358 81.7963C134.673 81.4013 134.639 80.8513 135.288 80.4763C135.92 80.1113 136.908 80.1313 137.575 80.5163ZM122.589 101.638L123.845 100.913L115.479 99.0231L115.089 99.2481L118.354 104.083L119.61 103.358L119.186 102.743L121.524 101.393L122.589 101.638ZM120.156 101.073L118.631 101.953L117.462 100.398L120.156 101.073ZM124.625 100.463L125.795 99.7874L123.777 98.6224L124.755 98.0574C125.95 97.3674 126.054 96.4274 124.963 95.7974C123.863 95.1624 122.253 95.2324 121.057 95.9224L118.91 97.1624L124.625 100.463ZM122.755 98.0324L121.109 97.0824L122.088 96.5174C122.616 96.2124 123.283 96.2074 123.768 96.4874C124.262 96.7724 124.279 97.1524 123.733 97.4674L122.755 98.0324ZM129.767 97.4937L130.937 96.8187L125.221 93.5187L124.052 94.1937L129.767 97.4937ZM131.008 95.9374C131.917 96.0124 132.861 95.8274 133.615 95.3924C134.1 95.1124 134.377 94.8124 134.446 94.4924C134.524 94.1674 134.342 93.8824 133.918 93.6374C133.286 93.2724 132.576 93.2924 131.406 93.5774L130.818 93.7174C130.341 93.8324 130.151 93.8524 129.986 93.7574C129.787 93.6424 129.856 93.4824 130.142 93.3174C130.497 93.1124 130.956 93.0074 131.51 92.9974L131.38 92.2424C130.566 92.2224 129.839 92.3924 129.198 92.7624C128.263 93.3024 128.098 93.9474 128.904 94.4124C129.536 94.7774 130.272 94.7624 131.38 94.4924L132.03 94.3374C132.489 94.2324 132.679 94.2024 132.861 94.3074C133.095 94.4424 132.983 94.6474 132.671 94.8274C132.246 95.0724 131.649 95.1974 130.887 95.1874L131.008 95.9374Z" fill="#002642"/>
<defs>
<linearGradient id="paint0_linear" x1="94.3391" y1="88.2925" x2="108.448" y2="77.956" gradientUnits="userSpaceOnUse">
<stop stop-color="#5144A3"/>
<stop offset="0.543707" stop-color="#6152BD"/>
<stop offset="1" stop-color="#6C5DCC"/>
</linearGradient>
<linearGradient id="paint1_linear" x1="64.3884" y1="37.4755" x2="97.4405" y2="37.4755" gradientUnits="userSpaceOnUse">
<stop stop-color="#814EC4"/>
<stop offset="1" stop-color="#561FAA"/>
</linearGradient>
<linearGradient id="paint2_linear" x1="64.4866" y1="32.5395" x2="97.5459" y2="32.5395" gradientUnits="userSpaceOnUse">
<stop stop-color="#814EC4"/>
<stop offset="1" stop-color="#561FAA"/>
</linearGradient>
<linearGradient id="paint3_linear" x1="64.4866" y1="19.8105" x2="97.5459" y2="19.8105" gradientUnits="userSpaceOnUse">
<stop stop-color="#814EC4"/>
<stop offset="1" stop-color="#561FAA"/>
</linearGradient>
</defs>
</svg>
