<svg width="189" height="119" viewBox="0 0 189 119" fill="none" xmlns="http://www.w3.org/2000/svg">
<path d="M188.799 63.9976L94.3994 9.49609L9.55748e-05 63.9976L94.3994 118.499L188.799 63.9976Z" fill="#D3DCE4"/>
<path d="M188.799 54.5015L94.3994 0L9.55748e-05 54.5015L94.3994 109.003L188.799 54.5015Z" fill="#F1F5F9"/>
<path d="M170.257 54.0268L94 10L17.7434 54.0268L94 98.0536L170.257 54.0268Z" fill="white" stroke="white" stroke-width="0.489187"/>
<path d="M96.482 36.8237L65 54.9999L72.4957 59.3276L103.978 41.1514L96.482 36.8237Z" fill="#6859C6"/>
<path d="M106.477 42.5942L74.9946 60.7704L82.4904 65.0981L113.972 46.9219L106.477 42.5942Z" fill="#6859C6"/>
<path d="M116.471 48.3643L84.9883 66.5404L92.484 70.8681L123.966 52.6919L116.471 48.3643Z" fill="#6859C6"/>
<path d="M72.4957 53.5576L69.9971 55.0002L72.4957 56.4428L74.9943 55.0002L72.4957 53.5576Z" fill="white"/>
<path d="M77.4932 50.6724L74.9946 52.1149L77.4932 53.5575L79.9918 52.1149L77.4932 50.6724Z" fill="white"/>
<path d="M82.4902 47.7876L79.9917 49.2302L82.4902 50.6727L84.9888 49.2302L82.4902 47.7876Z" fill="white"/>
<path d="M82.4902 59.3281L79.9917 60.7706L82.4902 62.2132L84.9888 60.7706L82.4902 59.3281Z" fill="white"/>
<path d="M87.4869 56.4424L84.9883 57.885L87.4869 59.3275L89.9855 57.885L87.4869 56.4424Z" fill="white"/>
<path d="M92.4849 53.5576L89.9863 55.0002L92.4849 56.4428L94.9834 55.0002L92.4849 53.5576Z" fill="white"/>
<path d="M92.4849 65.0981L89.9863 66.5406L92.4849 67.9832L94.9834 66.5406L92.4849 65.0981Z" fill="white"/>
<path d="M97.4815 62.2134L94.9829 63.656L97.4815 65.0985L99.9801 63.656L97.4815 62.2134Z" fill="white"/>
<path d="M102.479 59.3281L99.98 60.7706L102.479 62.2132L104.977 60.7706L102.479 59.3281Z" fill="white"/>
</svg>
