<svg width="210" height="138" viewBox="0 0 210 138" fill="none" xmlns="http://www.w3.org/2000/svg">
<g clip-path="url(#clip0)">
<path d="M209.51 77.0186L104.755 16.5381L-0.000362437 77.0186L104.755 137.499L209.51 77.0186Z" fill="#D3DCE4"/>
<path d="M209.589 77.0661V66.4805L196.561 73.2661L209.589 77.0661Z" fill="#D3DCE4"/>
<path d="M0.0476074 77.0661V66.4805L13.0761 73.2661L0.0476074 77.0661Z" fill="#D3DCE4"/>
<path d="M209.51 66.4805L104.755 6L-0.000362437 66.4805L104.755 126.961L209.51 66.4805Z" fill="#F1F5F9"/>
<path d="M189.377 66.4806L104.755 17.6238L20.1325 66.4806L104.755 115.337L189.377 66.4806Z" fill="white" stroke="white" stroke-width="0.542853"/>
<path d="M101.844 10.8286L88.1219 18.7466L82.9242 17.5857C82.3773 17.5103 81.8218 17.6399 81.3648 17.9496L50.7326 35.622C50.2379 35.8926 49.8196 36.2839 49.5167 36.7594C49.2138 37.235 49.036 37.7795 49 38.3422L49.1906 41.201L51.3736 73.1153L101.498 44.285L103.577 11.591C103.629 10.5514 102.866 10.2396 101.844 10.8286Z" fill="#403487"/>
<path d="M102.537 1.45543L93.0594 6.91309C92.5318 7.23147 92.082 7.66357 91.7426 8.17789L86.5448 15.576L52.8633 35.0677C52.5569 35.2509 52.2972 35.5027 52.1048 35.8034C51.9123 36.1041 51.7924 36.4453 51.7544 36.8003L52.4648 72.5783L102.901 43.4535L103.611 5.78691V1.97521C103.663 1.31682 103.16 1.09158 102.537 1.45543Z" fill="#403487"/>
<path d="M101.324 0V42.3272L55.376 68.8532V26.526L101.324 0Z" fill="white"/>
<path d="M99.6959 2.09644V44.4063L53.7476 70.9496V28.6224L99.6959 2.09644Z" fill="white"/>
<path d="M105.032 10.4648L102.97 42.9336V43.4014L52.4649 72.5436L50.2645 40.3867L50.0566 37.5106C50.0723 37.0842 50.1758 36.6656 50.3606 36.281C50.5455 35.8964 50.8077 35.5541 51.1308 35.2755C51.3367 35.0835 51.5634 34.9149 51.8066 34.7731L82.6467 16.962C83.1103 16.6527 83.671 16.5233 84.2234 16.5982L89.4211 17.7763L103.282 9.78906C104.304 9.19998 105.084 9.49453 105.032 10.4648Z" fill="url(#paint0_linear)"/>
<path d="M102.97 42.9337V43.4015L52.4649 72.5437L50.2645 40.3868L50.0566 37.5107C50.0723 37.0843 50.1758 36.6657 50.3606 36.2811C50.5455 35.8965 50.8077 35.5542 51.1308 35.2756L102.97 42.9337Z" fill="url(#paint1_linear)"/>
<path d="M128 44.0577L102.968 58.5102L68.228 38.4525L93.2595 24L128 44.0577Z" fill="white"/>
<path d="M128 67.0425L102.968 81.495V58.5101L128 44.0576V67.0425Z" fill="url(#paint2_linear)"/>
<path d="M102.968 58.5101V81.4949L68.228 61.4355V38.4524L102.968 58.5101Z" fill="#403487"/>
<g style="mix-blend-mode:multiply" opacity="0.1">
<g style="mix-blend-mode:multiply" opacity="0.1">
<path d="M102.969 73.6582L68.2283 53.687L68.2266 55.5762L101.623 74.9332L126.033 60.8354L126.267 59.1642L102.969 73.6582Z" fill="black"/>
</g>
</g>
<g style="mix-blend-mode:multiply" opacity="0.1">
<g style="mix-blend-mode:multiply" opacity="0.1">
<path d="M68.228 41.3328V40.8259V44.3794L100.74 63.1517L102.531 61.138L68.228 41.3328Z" fill="black"/>
</g>
</g>
<path opacity="0.2" d="M68.2282 41.3328V40.8259L66 42.1113L100.74 62.1708L102.531 61.138L68.2282 41.3328Z" fill="white"/>
<g style="mix-blend-mode:multiply">
<g style="mix-blend-mode:multiply">
<path d="M128 54.32L102.968 68.7725L68.228 48.7148L102.975 68.5545L128 54.32Z" fill="#DEE5E9"/>
</g>
</g>
<g style="mix-blend-mode:multiply">
<g style="mix-blend-mode:multiply">
<path d="M128 63.9249L102.968 78.3773L68.228 58.3179L102.975 78.1576L128 63.9249Z" fill="#DEE5E9"/>
</g>
</g>
<path opacity="0.2" d="M102.968 72.6165L69.2056 53.1228L67.4722 54.1228L102.212 74.1805L127.244 59.728L126.266 59.164L102.968 72.6165Z" fill="white"/>
<path d="M75.958 39.8988L95.9154 51.4224L115.873 39.8988L95.9154 28.377L75.958 39.8988ZM97.8928 29.5378L95.9136 30.6796L93.9362 29.5378L95.9136 28.396L97.8928 29.5378ZM93.9138 38.7397L91.9364 37.5979L93.9138 36.4561L95.8912 37.5979L93.9138 38.7397ZM95.9067 37.6066L97.8841 38.7484L95.9067 39.8902L93.9293 38.7484L95.9067 37.6066ZM93.9138 38.7484L91.9364 39.8902L89.959 38.7484L91.9364 37.6066L93.9138 38.7484ZM93.9311 38.7588L95.9085 39.9006L93.9311 41.0424L91.9537 39.9006L93.9311 38.7588ZM93.9138 41.051L91.9364 42.1928L89.959 41.051L91.9364 39.9092L93.9138 41.051ZM93.9311 41.0614L95.9085 42.2032L93.9311 43.3433L91.9537 42.2032L93.9311 41.0614ZM93.9466 41.051L95.924 39.9092L97.9014 41.051L95.924 42.1928L93.9466 41.051ZM97.9256 41.0614L99.903 42.2032L97.9101 43.3433L95.9327 42.2032L97.9256 41.0614ZM97.9412 41.051L99.9186 39.9092L101.896 41.051L99.9186 42.1928L97.9412 41.051ZM97.9256 41.051L95.9482 39.9092L97.9256 38.7674L99.903 39.9092L97.9256 41.051ZM97.9412 38.757L99.9186 37.6152L101.896 38.757L99.9186 39.8988L97.9412 38.757ZM97.9256 38.757L95.9482 37.6152L97.9256 36.4734L99.903 37.6152L97.9256 38.757ZM95.9309 37.6048L93.9535 36.463L95.9309 35.3212L97.9083 36.463L95.9309 37.6048ZM93.938 36.4544L91.9606 35.3126L93.938 34.1708L95.9154 35.3126L93.938 36.4544ZM93.9207 36.463L91.9433 37.6048L89.9659 36.463L91.9433 35.3212L93.9207 36.463ZM91.9277 37.6152L89.9347 38.7397L87.9556 37.5979L89.9347 36.4561L91.9277 37.6152ZM89.933 38.7657L87.9556 39.9075L85.9557 38.7484L87.9331 37.6066L89.933 38.7657ZM89.9503 38.7761L91.9277 39.9179L89.9347 41.0424L87.9556 39.9006L89.9503 38.7761ZM89.933 41.0683L87.9556 42.2101L85.9557 41.051L87.9331 39.9092L89.933 41.0683ZM89.9503 41.0787L91.9277 42.2205L89.9347 43.3433L87.9556 42.2032L89.9503 41.0787ZM91.9433 42.2292L93.9207 43.371L91.9433 44.5128L89.9659 43.371L91.9433 42.2292ZM93.938 43.3796L95.9154 44.5214L93.9224 45.6442L91.945 44.5024L93.938 43.3796ZM93.9535 43.371L95.9309 42.2292L97.9083 43.371L95.9309 44.5128L93.9535 43.371ZM97.9326 43.3796L99.91 44.5214L97.9101 45.6442L95.9327 44.5024L97.9326 43.3796ZM97.9481 43.371L99.9255 42.2292L101.903 43.371L99.9255 44.5128L97.9481 43.371ZM99.9428 42.2205L101.92 41.0787L103.898 42.2205L101.92 43.3606L99.9428 42.2205ZM101.938 41.0683L103.915 39.9265L105.892 41.0683L103.915 42.2101L101.938 41.0683ZM101.92 41.0683L99.9428 39.9265L101.92 38.7847L103.898 39.9265L101.92 41.0683ZM101.938 38.7743L103.915 37.6325L105.892 38.7743L103.915 39.9161L101.938 38.7743ZM101.92 38.7743L99.9428 37.6325L101.92 36.4907L103.898 37.6325L101.92 38.7743ZM99.9255 37.6222L97.9481 36.4803L99.9255 35.3385L101.903 36.4803L99.9255 37.6222ZM97.9326 36.4717L95.9552 35.3299L97.9326 34.1881L99.91 35.3299L97.9326 36.4717ZM95.9379 35.3195L93.9605 34.1777L95.9379 33.0359L97.9153 34.1777L95.9379 35.3195ZM93.9449 34.1691L91.9675 33.0273L93.9449 31.8854L95.9223 33.0273L93.9449 34.1691ZM93.9276 34.1777L91.9502 35.3195L89.9728 34.1777L91.9502 33.0359L93.9276 34.1777ZM91.9346 35.3299L89.9347 36.4371L87.9556 35.2953L89.9347 34.1535L91.9346 35.3299ZM89.9399 36.4803L87.9625 37.6222L85.9557 36.4457L87.9331 35.3039L89.9399 36.4803ZM87.9452 37.6325L85.9678 38.7743L83.9904 37.6325L85.9678 36.4907L87.9452 37.6325ZM85.9523 38.783L83.9749 39.9248L81.9767 38.7484L83.9541 37.6066L85.9523 38.783ZM85.9678 38.7934L87.9452 39.9352L85.9678 41.077L83.9904 39.9352L85.9678 38.7934ZM85.9523 41.0856L83.9749 42.2274L81.9767 41.051L83.9541 39.9092L85.9523 41.0856ZM85.9678 41.096L87.9452 42.2378L85.9678 43.3796L83.9904 42.2378L85.9678 41.096ZM87.9625 42.2465L89.9399 43.3883L87.9625 44.5301L85.9557 43.3537L87.9625 42.2465ZM89.9347 43.3623L91.9121 44.5041L89.9347 45.6442L87.9556 44.5024L89.9347 43.3623ZM91.9277 44.5145L93.9051 45.6563L91.9277 46.7981L89.9503 45.6563L91.9277 44.5145ZM93.9224 45.665L95.8998 46.8068L93.9224 47.9486L91.945 46.8068L93.9224 45.665ZM93.938 45.6563L95.9154 44.5145L97.8928 45.6563L95.9154 46.7981L93.938 45.6563ZM97.917 45.665L99.8944 46.8068L97.917 47.9486L95.9396 46.8068L97.917 45.665ZM97.9326 45.6563L99.91 44.5145L101.887 45.6563L99.91 46.7981L97.9326 45.6563ZM99.9273 44.5041L101.905 43.3623L103.882 44.5041L101.898 45.6442L99.9273 44.5041ZM101.922 43.3537L103.899 42.2119L105.877 43.3537L103.899 44.4955L101.922 43.3537ZM103.915 42.2032L105.892 41.0614L107.87 42.2032L105.885 43.3433L103.915 42.2032ZM105.91 41.051L107.887 39.9092L109.864 41.051L107.887 42.1928L105.91 41.051ZM105.892 41.051L103.915 39.9092L105.892 38.7674L107.87 39.9092L105.892 41.051ZM105.91 38.757L107.887 37.6152L109.864 38.757L107.887 39.8988L105.91 38.757ZM105.892 38.757L103.915 37.6152L105.892 36.4734L107.87 37.6152L105.892 38.757ZM103.899 37.6048L101.922 36.463L103.899 35.3212L105.877 36.463L103.899 37.6048ZM101.905 36.4544L99.9273 35.3126L101.905 34.1708L103.882 35.3126L101.905 36.4544ZM99.91 35.3022L97.9326 34.1604L99.91 33.0186L101.887 34.1604L99.91 35.3022ZM97.917 34.1518L95.9396 33.01L97.917 31.8681L99.8944 33.01L97.917 34.1518ZM95.9223 32.9996L93.9449 31.8578L95.9223 30.716L97.8997 31.8578L95.9223 32.9996ZM93.9293 31.8491L91.9502 30.7056L93.9138 29.5551L95.8929 30.6969L93.9293 31.8491ZM93.912 31.8578L91.9346 32.9996L89.9555 31.8578L91.9329 30.716L93.912 31.8578ZM91.9191 33.01L89.9347 34.1345L87.9556 32.9909L89.933 31.8491L91.9191 33.01ZM89.9244 34.1604L87.947 35.3022L85.9557 34.1431L87.9331 33.0013L89.9244 34.1604ZM87.9297 35.3126L85.9523 36.4544L83.9749 35.3109L85.9523 34.1691L87.9297 35.3126ZM85.9367 36.463L83.9593 37.6048L81.9767 36.4457L83.9541 35.3039L85.9367 36.463ZM83.942 37.6152L81.9646 38.757L79.9872 37.6135L81.9629 36.4717L83.942 37.6152ZM81.949 38.7657L79.9716 39.9075L77.9925 38.7657L79.9699 37.6239L81.949 38.7657ZM81.9646 38.7761L83.942 39.9179L81.9646 41.0597L79.9872 39.9179L81.9646 38.7761ZM81.949 41.0683L79.9699 42.2101L77.9925 41.0683L79.9716 39.9265L81.949 41.0683ZM81.9646 41.0787L83.942 42.2205L81.9646 43.3623L79.9872 42.2205L81.9646 41.0787ZM83.9593 42.2292L85.9367 43.371L83.9593 44.5128L81.9767 43.3537L83.9593 42.2292ZM85.9523 43.3796L87.9297 44.5214L85.9453 45.6442L83.9679 44.5041L85.9523 43.3796ZM87.947 44.5318L89.9244 45.6736L87.947 46.8154L85.9557 45.6563L87.947 44.5318ZM89.9347 45.665L91.9121 46.8068L89.9347 47.9486L87.9556 46.8068L89.9347 45.665ZM91.9277 46.8171L93.9051 47.9589L91.9277 49.1042L89.9503 47.9624L91.9277 46.8171ZM93.9224 47.9676L95.8998 49.1094L93.9224 50.2512L91.945 49.1042L93.9224 47.9676ZM93.938 47.9589L95.9154 46.8171L97.8928 47.9589L95.9154 49.1042L93.938 47.9589ZM97.917 47.9676L99.8944 49.1094L97.917 50.2512L95.9327 49.1042L97.917 47.9676ZM97.9326 47.9589L99.91 46.8171L101.887 47.9589L99.903 49.1042L97.9326 47.9589ZM99.9273 46.8068L101.905 45.665L103.882 46.8068L101.905 47.9486L99.9273 46.8068ZM101.922 45.6563L103.899 44.5145L105.875 45.6563L103.898 46.7981L101.922 45.6563ZM103.915 44.5041L105.892 43.3623L107.87 44.5041L105.885 45.6442L103.915 44.5041ZM105.91 43.3537L107.887 42.2119L109.864 43.3537L107.887 44.4955L105.91 43.3537ZM107.903 42.2032L109.88 41.0614L111.857 42.2015L109.88 43.3433L107.903 42.2032ZM109.897 41.051L111.875 39.9092L113.852 41.051L111.875 42.1928L109.897 41.051ZM109.88 41.051L107.903 39.9092L109.88 38.7674L111.859 39.9092L109.88 41.051ZM109.897 38.757L111.875 37.6152L113.852 38.757L111.875 39.8988L109.897 38.757ZM109.88 38.757L107.903 37.6152L109.882 36.4717L111.859 37.6135L109.88 38.757ZM107.887 37.6048L105.91 36.463L107.887 35.3212L109.864 36.463L107.887 37.6048ZM105.892 36.4544L103.915 35.3126L105.892 34.1708L107.871 35.3126L105.892 36.4544ZM103.899 35.3022L101.922 34.1604L103.899 33.0186L105.877 34.1604L103.899 35.3022ZM101.905 34.1518L99.9273 33.01L101.905 31.8681L103.882 33.01L101.905 34.1518ZM99.91 32.9996L97.9326 31.8578L99.9117 30.716L101.889 31.8578L99.91 32.9996ZM97.917 31.8491L95.9396 30.7073L97.9101 29.5551L99.8875 30.6969L97.917 31.8491ZM77.9752 38.7691L79.9543 39.9127L77.9769 41.0545L75.9978 39.9109L77.9752 38.7691ZM93.9449 50.2737L95.9223 49.1319L97.8997 50.2737L95.9223 51.4155L93.9449 50.2737ZM113.868 41.0528L111.892 39.9127L113.869 38.7691L115.847 39.9109L113.868 41.0528Z" fill="#889AA5"/>
<path d="M95.915 51.412L92.8252 49.6179L94.0172 48.0142V45.7116L97.0084 45.1355L98.0048 43.4089V41.1063L101.233 40.6669L103.278 39.5458L103.892 37.5961L101.897 34.143L97.9097 29.5378L115.855 39.8988L95.915 51.412Z" fill="#403487"/>
<path d="M95.915 51.412L92.8252 49.6179L94.0172 48.0142V45.7116L97.0084 45.1355L98.0048 43.4089V41.1063L101.233 40.6669L103.278 39.5458L103.892 37.5961L101.897 34.143L97.9097 29.5378L115.855 39.8988L95.915 51.412Z" stroke="white" stroke-opacity="0.5" stroke-width="0.838222"/>
<path d="M92.858 49.6697L92.6885 49.6265L93.9237 48.002V45.6717L96.9339 45.0921L97.9114 43.4002V41.0629L101.188 40.6183L103.191 39.5181L103.795 37.5995L101.811 34.1637L97.8249 29.5619L97.9927 29.5134L101.986 34.1256L103.987 37.5926L103.364 39.5717L101.28 40.7169L98.0982 41.1477V43.4175L97.081 45.1786L94.1105 45.7495V48.0245L92.858 49.6697Z" fill="#403487"/>
<path d="M92.858 49.6697L92.6885 49.6265L93.9237 48.002V45.6717L96.9339 45.0921L97.9114 43.4002V41.0629L101.188 40.6183L103.191 39.5181L103.795 37.5995L101.811 34.1637L97.8249 29.5619L97.9927 29.5134L101.986 34.1256L103.987 37.5926L103.364 39.5717L101.28 40.7169L98.0982 41.1477V43.4175L97.081 45.1786L94.1105 45.7495V48.0245L92.858 49.6697Z" stroke="white" stroke-opacity="0.5" stroke-width="0.838222"/>
<path d="M98.2388 29.351C98.139 29.2999 98.0284 29.2732 97.9162 29.2732C97.804 29.2732 97.6934 29.2999 97.5936 29.351C97.5545 29.3642 97.5205 29.3894 97.4965 29.4229C97.4724 29.4564 97.4595 29.4966 97.4595 29.5379C97.4595 29.5791 97.4724 29.6193 97.4965 29.6528C97.5205 29.6864 97.5545 29.7115 97.5936 29.7247C97.6937 29.7751 97.8042 29.8013 97.9162 29.8013C98.0283 29.8013 98.1387 29.7751 98.2388 29.7247C98.2779 29.7115 98.3119 29.6864 98.3359 29.6528C98.36 29.6193 98.3729 29.5791 98.3729 29.5379C98.3729 29.4966 98.36 29.4564 98.3359 29.4229C98.3119 29.3894 98.2779 29.3642 98.2388 29.351Z" fill="#403487"/>
<path d="M101.898 34.406C102.15 34.406 102.354 34.2883 102.354 34.1431C102.354 33.9978 102.15 33.8801 101.898 33.8801C101.645 33.8801 101.441 33.9978 101.441 34.1431C101.441 34.2883 101.645 34.406 101.898 34.406Z" fill="#403487"/>
<path d="M104.214 37.4094C104.114 37.3591 104.004 37.3328 103.892 37.3328C103.78 37.3328 103.669 37.3591 103.569 37.4094C103.53 37.4226 103.496 37.4478 103.472 37.4813C103.448 37.5148 103.435 37.555 103.435 37.5963C103.435 37.6375 103.448 37.6777 103.472 37.7112C103.496 37.7448 103.53 37.7699 103.569 37.7831C103.669 37.8343 103.78 37.8609 103.892 37.8609C104.004 37.8609 104.115 37.8343 104.214 37.7831C104.254 37.7699 104.287 37.7448 104.312 37.7112C104.336 37.6777 104.349 37.6375 104.349 37.5963C104.349 37.555 104.336 37.5148 104.312 37.4813C104.287 37.4478 104.254 37.4226 104.214 37.4094Z" fill="#403487"/>
<path d="M103.602 39.3556C103.502 39.3053 103.391 39.2791 103.279 39.2791C103.167 39.2791 103.056 39.3053 102.956 39.3556C102.917 39.3689 102.883 39.394 102.859 39.4275C102.835 39.461 102.822 39.5012 102.822 39.5425C102.822 39.5837 102.835 39.624 102.859 39.6575C102.883 39.691 102.917 39.7161 102.956 39.7293C103.056 39.7805 103.167 39.8072 103.279 39.8072C103.391 39.8072 103.502 39.7805 103.602 39.7293C103.641 39.7161 103.675 39.691 103.699 39.6575C103.723 39.624 103.736 39.5837 103.736 39.5425C103.736 39.5012 103.723 39.461 103.699 39.4275C103.675 39.394 103.641 39.3689 103.602 39.3556Z" fill="#403487"/>
<path d="M101.546 40.4749C101.447 40.4237 101.336 40.397 101.224 40.397C101.112 40.397 101.001 40.4237 100.901 40.4749C100.862 40.4881 100.828 40.5132 100.804 40.5467C100.78 40.5802 100.767 40.6205 100.767 40.6617C100.767 40.703 100.78 40.7432 100.804 40.7767C100.828 40.8102 100.862 40.8354 100.901 40.8486C101.001 40.8989 101.112 40.9251 101.224 40.9251C101.336 40.9251 101.446 40.8989 101.546 40.8486C101.586 40.8354 101.62 40.8102 101.644 40.7767C101.668 40.7432 101.681 40.703 101.681 40.6617C101.681 40.6205 101.668 40.5802 101.644 40.5467C101.62 40.5132 101.586 40.4881 101.546 40.4749Z" fill="#403487"/>
<path d="M98.3509 40.9228C98.2505 40.8724 98.1397 40.8462 98.0274 40.8462C97.9151 40.8462 97.8043 40.8724 97.7039 40.9228C97.6648 40.936 97.6309 40.9612 97.6068 40.9947C97.5828 41.0282 97.5698 41.0684 97.5698 41.1097C97.5698 41.1509 97.5828 41.1911 97.6068 41.2246C97.6309 41.2582 97.6648 41.2833 97.7039 41.2965C97.8043 41.3469 97.9151 41.3731 98.0274 41.3731C98.1397 41.3731 98.2505 41.3469 98.3509 41.2965C98.39 41.2833 98.424 41.2582 98.448 41.2246C98.4721 41.1911 98.485 41.1509 98.485 41.1097C98.485 41.0684 98.4721 41.0282 98.448 40.9947C98.424 40.9612 98.39 40.936 98.3509 40.9228Z" fill="#403487"/>
<path d="M98.3168 43.2222C98.2166 43.171 98.1057 43.1443 97.9932 43.1443C97.8808 43.1443 97.7699 43.171 97.6697 43.2222C97.6306 43.2354 97.5967 43.2605 97.5726 43.294C97.5486 43.3276 97.5356 43.3678 97.5356 43.409C97.5356 43.4503 97.5486 43.4905 97.5726 43.524C97.5967 43.5575 97.6306 43.5827 97.6697 43.5959C97.7701 43.6462 97.8809 43.6725 97.9932 43.6725C98.1056 43.6725 98.2163 43.6462 98.3168 43.5959C98.3558 43.5827 98.3898 43.5575 98.4138 43.524C98.4379 43.4905 98.4508 43.4503 98.4508 43.409C98.4508 43.3678 98.4379 43.3276 98.4138 43.294C98.3898 43.2605 98.3558 43.2354 98.3168 43.2222Z" fill="#403487"/>
<path d="M97.315 44.9401C97.2148 44.8889 97.1039 44.8623 96.9915 44.8623C96.879 44.8623 96.7681 44.8889 96.668 44.9401C96.6287 44.9528 96.5944 44.9777 96.5701 45.0111C96.5458 45.0445 96.5327 45.0848 96.5327 45.1261C96.5327 45.1674 96.5458 45.2077 96.5701 45.2411C96.5944 45.2745 96.6287 45.2993 96.668 45.3121C96.7681 45.3632 96.879 45.3899 96.9915 45.3899C97.1039 45.3899 97.2148 45.3632 97.315 45.3121C97.3543 45.2993 97.3885 45.2745 97.4128 45.2411C97.4371 45.2077 97.4502 45.1674 97.4502 45.1261C97.4502 45.0848 97.4371 45.0445 97.4128 45.0111C97.3885 44.9777 97.3543 44.9528 97.315 44.9401Z" fill="#403487"/>
<path d="M94.3599 45.5368C94.2597 45.4857 94.1489 45.459 94.0364 45.459C93.9239 45.459 93.813 45.4857 93.7129 45.5368C93.6736 45.5496 93.6393 45.5744 93.615 45.6078C93.5907 45.6413 93.5776 45.6815 93.5776 45.7228C93.5776 45.7641 93.5907 45.8044 93.615 45.8378C93.6393 45.8712 93.6736 45.8961 93.7129 45.9088C93.813 45.96 93.9239 45.9867 94.0364 45.9867C94.1489 45.9867 94.2597 45.96 94.3599 45.9088C94.3992 45.8961 94.4335 45.8712 94.4578 45.8378C94.4821 45.8044 94.4951 45.7641 94.4951 45.7228C94.4951 45.6815 94.4821 45.6413 94.4578 45.6078C94.4335 45.5744 94.3992 45.5496 94.3599 45.5368Z" fill="#403487"/>
<path d="M94.3096 47.8101C94.2095 47.7589 94.0986 47.7322 93.9861 47.7322C93.8736 47.7322 93.7627 47.7589 93.6626 47.8101C93.6233 47.8228 93.589 47.8477 93.5647 47.8811C93.5404 47.9145 93.5273 47.9548 93.5273 47.9961C93.5273 48.0374 93.5404 48.0776 93.5647 48.1111C93.589 48.1445 93.6233 48.1693 93.6626 48.1821C93.7627 48.2332 93.8736 48.2599 93.9861 48.2599C94.0986 48.2599 94.2095 48.2332 94.3096 48.1821C94.3489 48.1693 94.3832 48.1445 94.4075 48.1111C94.4318 48.0776 94.4449 48.0374 94.4449 47.9961C94.4449 47.9548 94.4318 47.9145 94.4075 47.8811C94.3832 47.8477 94.3489 47.8228 94.3096 47.8101Z" fill="#403487"/>
<path d="M93.0972 49.4622C92.997 49.411 92.8862 49.3843 92.7737 49.3843C92.6612 49.3843 92.5503 49.411 92.4502 49.4622C92.4109 49.4749 92.3766 49.4997 92.3523 49.5332C92.328 49.5666 92.3149 49.6068 92.3149 49.6481C92.3149 49.6894 92.328 49.7297 92.3523 49.7631C92.3766 49.7965 92.4109 49.8214 92.4502 49.8341C92.5503 49.8853 92.6612 49.912 92.7737 49.912C92.8862 49.912 92.997 49.8853 93.0972 49.8341C93.1365 49.8214 93.1708 49.7965 93.1951 49.7631C93.2194 49.7297 93.2325 49.6894 93.2325 49.6481C93.2325 49.6068 93.2194 49.5666 93.1951 49.5332C93.1708 49.4997 93.1365 49.4749 93.0972 49.4622Z" fill="#403487"/>
<path d="M96.3135 38.8538L94.6769 39.7984C94.4209 39.9455 94.4209 40.1877 94.6769 40.3347L95.1353 40.5994C95.2795 40.6728 95.439 40.711 95.6007 40.711C95.7625 40.711 95.9219 40.6728 96.0661 40.5994L96.5764 40.3053L97.3134 40.7309L97.1283 39.9853L97.7027 39.6548C97.9587 39.5078 97.9587 39.2656 97.7027 39.1185L97.2442 38.8538C97.1001 38.7805 96.9406 38.7422 96.7789 38.7422C96.6171 38.7422 96.4576 38.7805 96.3135 38.8538Z" fill="#403487"/>
<path d="M96.6818 39.1912L95.1317 40.0856L95.0244 40.0234L96.5745 39.1289L96.6818 39.1912Z" fill="#EEF5F9"/>
<path d="M96.9117 39.3245L95.3617 40.2189L95.2544 40.1566L96.8045 39.2622L96.9117 39.3245Z" fill="#EEF5F9"/>
<path d="M96.5103 39.8209L95.5916 40.352L95.4844 40.2897L96.403 39.7603L96.5103 39.8209Z" fill="#EEF5F9"/>
<path d="M105.212 41.9801L106.849 41.0355C107.105 40.8867 107.105 40.6462 106.849 40.4974L106.39 40.2328C106.246 40.1603 106.086 40.1226 105.925 40.1226C105.763 40.1226 105.604 40.1603 105.459 40.2328L104.949 40.5286L104.212 40.1082L104.397 40.8521L103.823 41.1825C103.567 41.3313 103.567 41.5735 103.823 41.7206L104.281 41.9853C104.426 42.0569 104.586 42.0937 104.747 42.0928C104.909 42.0919 105.068 42.0533 105.212 41.9801Z" fill="white"/>
<path d="M105.851 40.648L104.301 41.5424L104.193 41.4818L105.745 40.5857L105.851 40.648Z" fill="#403487"/>
<path d="M106.083 40.7811L104.533 41.6754L104.425 41.6148L105.975 40.7188L106.083 40.7811Z" fill="#403487"/>
<path d="M105.681 41.2793L104.763 41.8087L104.655 41.7482L105.574 41.217L105.681 41.2793Z" fill="#403487"/>
<path d="M92.2908 43.4402L90.6559 44.3848C90.3999 44.5319 90.3999 44.7741 90.6559 44.9211L91.1143 45.1858C91.2585 45.2592 91.418 45.2974 91.5797 45.2974C91.7415 45.2974 91.9009 45.2592 92.0451 45.1858L92.5554 44.8917L93.2924 45.3173L93.1073 44.5734L93.6799 44.2412C93.936 44.0942 93.936 43.852 93.6799 43.7049L93.2215 43.4402C93.0773 43.3668 92.9179 43.3286 92.7561 43.3286C92.5944 43.3286 92.4349 43.3668 92.2908 43.4402Z" fill="#403487"/>
<path d="M92.6608 43.7774L91.1107 44.6718L91.0034 44.6095L92.5535 43.7151L92.6608 43.7774Z" fill="#EEF5F9"/>
<path d="M92.8912 43.9089L91.3411 44.8051L91.2339 44.7428L92.784 43.8484L92.8912 43.9089Z" fill="#EEF5F9"/>
<path d="M92.4898 44.4073L91.5711 44.9384L91.4639 44.8761L92.3825 44.3467L92.4898 44.4073Z" fill="#EEF5F9"/>
<path d="M88.8185 29.3025L77.5181 35.8281L77.8087 35.9942L89.1091 29.4703L88.8185 29.3025Z" fill="#403487"/>
<path d="M93.974 27.2661L73.9907 38.8036L74.2796 38.9714L94.2647 27.4322L93.974 27.2661Z" fill="#403487"/>
<path d="M123.626 44.3865L103.643 55.9239L103.745 55.9828L123.73 44.4453L123.626 44.3865Z" fill="#2A71C9"/>
<g style="mix-blend-mode:multiply" opacity="0.5">
<g style="mix-blend-mode:multiply" opacity="0.5">
<path d="M106.664 47.0974L98.5659 51.7719L98.6957 51.8671L106.794 47.1908L106.664 47.0974Z" fill="#586770"/>
</g>
</g>
<g style="mix-blend-mode:multiply" opacity="0.5">
<g style="mix-blend-mode:multiply" opacity="0.5">
<path d="M117.512 40.833L108.336 46.132L108.463 46.2271L117.64 40.9281L117.512 40.833Z" fill="#586770"/>
</g>
</g>
<g style="mix-blend-mode:multiply" opacity="0.5">
<g style="mix-blend-mode:multiply" opacity="0.5">
<path d="M107.223 47.4192L98.0449 52.7182L98.1729 52.8133L107.351 47.516L107.223 47.4192Z" fill="#586770"/>
</g>
</g>
<g style="mix-blend-mode:multiply" opacity="0.5">
<g style="mix-blend-mode:multiply" opacity="0.5">
<path d="M118.071 41.1548L108.896 46.4538L109.022 46.5506L118.199 41.2516L118.071 41.1548Z" fill="#586770"/>
</g>
</g>
<g style="mix-blend-mode:multiply" opacity="0.5">
<g style="mix-blend-mode:multiply" opacity="0.5">
<path d="M107.781 47.7427L98.6055 53.0417L98.7318 53.1368L107.909 47.8378L107.781 47.7427Z" fill="#586770"/>
</g>
</g>
<g style="mix-blend-mode:multiply" opacity="0.5">
<g style="mix-blend-mode:multiply" opacity="0.5">
<path d="M118.632 41.4783L109.455 46.7773L109.581 46.8725L118.759 41.5735L118.632 41.4783Z" fill="#586770"/>
</g>
</g>
<g style="mix-blend-mode:multiply" opacity="0.5">
<g style="mix-blend-mode:multiply" opacity="0.5">
<path d="M108.34 48.0645L99.1641 53.3635L99.2903 53.4604L108.468 48.1614L108.34 48.0645Z" fill="#586770"/>
</g>
</g>
<g style="mix-blend-mode:multiply" opacity="0.5">
<g style="mix-blend-mode:multiply" opacity="0.5">
<path d="M119.191 41.8L110.013 47.0991L110.141 47.1959L119.317 41.8969L119.191 41.8Z" fill="#586770"/>
</g>
</g>
<g style="mix-blend-mode:multiply" opacity="0.5">
<g style="mix-blend-mode:multiply" opacity="0.5">
<path d="M105.008 50.6353L99.7139 53.6922L99.8488 53.7822L105.144 50.7253L105.008 50.6353Z" fill="#586770"/>
</g>
</g>
<g style="mix-blend-mode:multiply" opacity="0.5">
<g style="mix-blend-mode:multiply" opacity="0.5">
<path d="M119.749 42.1235L110.572 47.4225L110.7 47.5177L119.877 42.2204L119.749 42.1235Z" fill="#586770"/>
</g>
</g>
<g style="mix-blend-mode:multiply" opacity="0.5">
<g style="mix-blend-mode:multiply" opacity="0.5">
<path d="M109.459 48.7114L101.368 53.3824L101.498 53.4759L109.587 48.8048L109.459 48.7114Z" fill="#586770"/>
</g>
</g>
<g style="mix-blend-mode:multiply" opacity="0.5">
<g style="mix-blend-mode:multiply" opacity="0.5">
<path d="M116.168 44.8362L111.122 47.7495L111.258 47.8412L116.303 44.9279L116.168 44.8362Z" fill="#586770"/>
</g>
</g>
<g style="mix-blend-mode:multiply" opacity="0.5">
<g style="mix-blend-mode:multiply" opacity="0.5">
<path d="M110.019 49.0332L100.841 54.3322L100.967 54.4274L110.145 49.1284L110.019 49.0332Z" fill="#586770"/>
</g>
</g>
<g style="mix-blend-mode:multiply" opacity="0.5">
<g style="mix-blend-mode:multiply" opacity="0.5">
<path d="M120.867 42.7688L112.564 47.5627L112.694 47.6578L120.997 42.864L120.867 42.7688Z" fill="#586770"/>
</g>
</g>
<g style="mix-blend-mode:multiply" opacity="0.5">
<g style="mix-blend-mode:multiply" opacity="0.5">
<path d="M110.577 49.3567L101.399 54.6557L101.527 54.7508L110.703 49.4518L110.577 49.3567Z" fill="#586770"/>
</g>
</g>
<g style="mix-blend-mode:multiply" opacity="0.5">
<g style="mix-blend-mode:multiply" opacity="0.5">
<path d="M121.426 43.0923L112.249 48.3914L112.377 48.4865L121.554 43.1875L121.426 43.0923Z" fill="#586770"/>
</g>
</g>
<g style="mix-blend-mode:multiply" opacity="0.5">
<g style="mix-blend-mode:multiply" opacity="0.5">
<path d="M111.136 49.6785L101.958 54.9775L102.087 55.0727L111.264 49.7754L111.136 49.6785Z" fill="#586770"/>
</g>
</g>
<g style="mix-blend-mode:multiply" opacity="0.5">
<g style="mix-blend-mode:multiply" opacity="0.5">
<path d="M121.985 43.4141L112.809 48.7131L112.935 48.8083L122.113 43.511L121.985 43.4141Z" fill="#586770"/>
</g>
</g>
<path d="M117.453 79.2534L118.129 82.4334L112.621 82.0434L112.24 82.2634L118.06 85.6234L119.229 84.9484L116.18 83.1884L119.419 83.3984L119.8 83.1784L119.437 81.3084L122.485 83.0684L123.654 82.3934L117.834 79.0334L117.453 79.2534ZM122.459 80.6036C123.654 81.3236 125.758 81.3186 126.988 80.5786C128.27 79.8686 128.304 78.6386 127.057 77.9486C125.862 77.2286 123.758 77.2536 122.519 77.9886C121.238 78.6986 121.212 79.9136 122.459 80.6036ZM125.871 78.6436C126.538 79.0286 126.555 79.5886 125.923 79.9536C125.273 80.3286 124.321 80.3086 123.654 79.9236C122.97 79.5286 122.935 78.9786 123.585 78.6036C124.217 78.2386 125.204 78.2586 125.871 78.6436ZM128.58 74.5993L129.923 76.6243L126.415 75.8493L125.186 76.5593L131.698 77.8693L132.088 77.6443L129.819 73.8843L128.58 74.5993ZM136.808 72.7789C136.644 72.6239 136.453 72.4839 136.245 72.3639C135.128 71.7189 133.422 71.6939 132.236 72.3789C130.971 73.0789 130.971 74.2689 132.236 74.9689C133.448 75.6989 135.526 75.6889 136.826 74.9089C137.458 74.5439 137.813 74.0889 137.899 73.5489L136.618 73.3689C136.531 73.7489 136.28 74.0639 135.856 74.3089C135.232 74.6689 134.487 74.7489 133.803 74.5139L136.808 72.7789ZM132.98 74.0389C132.582 73.6589 132.643 73.2339 133.136 72.9489C133.647 72.6539 134.392 72.6139 134.929 72.9139L132.98 74.0389ZM110.668 99.891L111.837 99.216L109.663 97.961L111.785 96.736L110.729 96.126L108.607 97.351L107.178 96.526L109.767 95.031L108.711 94.421L104.952 96.591L110.668 99.891ZM115.225 97.2602L116.394 96.5852L112.107 94.1102L110.938 94.7852L115.225 97.2602ZM109.214 93.9802C109.621 94.2152 110.262 94.2052 110.678 93.9652C111.094 93.7252 111.12 93.3502 110.713 93.1152C110.297 92.8752 109.647 92.8902 109.232 93.1302C108.816 93.3702 108.799 93.7402 109.214 93.9802ZM117.55 95.9175L118.72 95.2425L112.224 91.4925L111.055 92.1675L117.55 95.9175ZM122.067 91.2897C121.903 91.1347 121.712 90.9947 121.504 90.8747C120.387 90.2297 118.681 90.2047 117.495 90.8897C116.23 91.5897 116.23 92.7797 117.495 93.4797C118.707 94.2097 120.785 94.1997 122.084 93.4197C122.717 93.0547 123.072 92.5997 123.158 92.0597L121.877 91.8797C121.79 92.2597 121.539 92.5747 121.115 92.8197C120.491 93.1797 119.746 93.2597 119.062 93.0247L122.067 91.2897ZM118.239 92.5497C117.841 92.1697 117.902 91.7447 118.395 91.4597C118.906 91.1647 119.651 91.1247 120.188 91.4247L118.239 92.5497ZM123.69 91.533C124.599 91.608 125.543 91.423 126.296 90.988C126.781 90.708 127.058 90.408 127.128 90.088C127.206 89.763 127.024 89.478 126.599 89.233C125.967 88.868 125.257 88.888 124.088 89.173L123.499 89.313C123.023 89.428 122.832 89.448 122.668 89.353C122.468 89.238 122.538 89.078 122.824 88.913C123.179 88.708 123.638 88.603 124.192 88.593L124.062 87.838C123.248 87.818 122.52 87.988 121.88 88.358C120.944 88.898 120.78 89.543 121.585 90.008C122.217 90.373 122.953 90.358 124.062 90.088L124.711 89.933C125.17 89.828 125.361 89.798 125.543 89.903C125.777 90.038 125.664 90.243 125.352 90.423C124.928 90.668 124.33 90.793 123.568 90.783L123.69 91.533ZM129.241 90.3776L130.48 89.6626L127.206 82.5426L125.968 83.2576L129.241 90.3776ZM134.644 86.0482L135.813 85.3732L133.64 84.1182L135.762 82.8932L134.705 82.2832L132.583 83.5082L131.154 82.6832L133.744 81.1882L132.687 80.5782L128.929 82.7482L134.644 86.0482ZM136.599 82.4395C137.794 83.1595 139.899 83.1545 141.129 82.4145C142.41 81.7045 142.445 80.4745 141.198 79.7845C140.003 79.0645 137.898 79.0895 136.66 79.8245C135.378 80.5345 135.352 81.7495 136.599 82.4395ZM140.011 80.4795C140.678 80.8645 140.696 81.4245 140.063 81.7895C139.414 82.1645 138.461 82.1445 137.794 81.7595C137.11 81.3645 137.076 80.8145 137.725 80.4395C138.357 80.0745 139.345 80.0945 140.011 80.4795ZM144.258 80.4975L145.428 79.8225L138.932 76.0725L137.763 76.7475L144.258 80.4975ZM143.207 73.6048L145.831 75.1198C145.181 75.1048 144.584 75.2498 144.038 75.5648C142.843 76.2548 142.912 77.3148 144.203 78.0598C145.493 78.8048 147.329 78.8448 148.524 78.1548C149.113 77.8148 149.39 77.3948 149.269 76.9948L149.797 77.2998L150.871 76.6798L144.376 72.9298L143.207 73.6048ZM147.58 76.1098C148.351 76.5548 148.264 77.0748 147.675 77.4148C147.043 77.7798 146.099 77.7848 145.38 77.3698C144.679 76.9648 144.688 76.4098 145.311 76.0498C145.9 75.7098 146.818 75.6698 147.58 76.1098ZM154.222 72.7252C154.057 72.5702 153.867 72.4302 153.659 72.3102C152.542 71.6652 150.836 71.6402 149.649 72.3252C148.385 73.0252 148.385 74.2152 149.649 74.9152C150.862 75.6452 152.94 75.6352 154.239 74.8552C154.871 74.4902 155.226 74.0352 155.313 73.4952L154.031 73.3152C153.945 73.6952 153.693 74.0102 153.269 74.2552C152.646 74.6152 151.901 74.6952 151.217 74.4602L154.222 72.7252ZM150.394 73.9852C149.996 73.6052 150.056 73.1802 150.55 72.8952C151.061 72.6002 151.806 72.5602 152.342 72.8602L150.394 73.9852ZM155.307 69.1686C155.16 69.2136 155.021 69.2736 154.874 69.3586C154.398 69.6336 154.19 69.9936 154.259 70.3636L153.748 70.0686L152.674 70.6886L156.961 73.1636L158.13 72.4886L155.991 71.2536C155.255 70.8286 155.325 70.3486 156.026 69.9436L156.338 69.7636L155.307 69.1686ZM159.202 71.0301C160.111 71.1051 161.055 70.9201 161.808 70.4851C162.293 70.2051 162.57 69.9051 162.64 69.5851C162.718 69.2601 162.536 68.9751 162.112 68.7301C161.479 68.3651 160.769 68.3851 159.6 68.6701L159.011 68.8101C158.535 68.9251 158.344 68.9451 158.18 68.8501C157.981 68.7351 158.05 68.5751 158.336 68.4101C158.691 68.2051 159.15 68.1001 159.704 68.0901L159.574 67.3351C158.76 67.3151 158.033 67.4851 157.392 67.8551C156.456 68.3951 156.292 69.0401 157.097 69.5051C157.729 69.8701 158.466 69.8551 159.574 69.5851L160.224 69.4301C160.683 69.3251 160.873 69.2951 161.055 69.4001C161.289 69.5351 161.176 69.7401 160.864 69.9201C160.44 70.1651 159.843 70.2901 159.08 70.2801L159.202 71.0301Z" fill="#002642"/>
</g>
<defs>
<linearGradient id="paint0_linear" x1="69.2404" y1="62.1334" x2="83.994" y2="45.8166" gradientUnits="userSpaceOnUse">
<stop stop-color="#5144A3"/>
<stop offset="0.543707" stop-color="#6152BD"/>
<stop offset="1" stop-color="#6C5DCC"/>
</linearGradient>
<linearGradient id="paint1_linear" x1="69.2404" y1="62.1335" x2="83.994" y2="45.8167" gradientUnits="userSpaceOnUse">
<stop stop-color="#5144A3"/>
<stop offset="0.543707" stop-color="#6152BD"/>
<stop offset="1" stop-color="#6C5DCC"/>
</linearGradient>
<linearGradient id="paint2_linear" x1="111.703" y1="75.3144" x2="120.388" y2="67.9477" gradientUnits="userSpaceOnUse">
<stop stop-color="#5144A3"/>
<stop offset="0.543707" stop-color="#6152BD"/>
<stop offset="1" stop-color="#6C5DCC"/>
</linearGradient>
<clipPath id="clip0">
<rect width="210" height="138" fill="white"/>
</clipPath>
</defs>
</svg>
