<svg width="210" height="132" viewBox="0 0 210 132" fill="none" xmlns="http://www.w3.org/2000/svg">
<path d="M209.511 71.0186L104.755 10.5381L0.000125844 71.0186L104.755 131.499L209.511 71.0186Z" fill="#D3DCE4"/>
<path d="M0.0483398 71.0661V60.4805L13.0768 67.2661L0.0483398 71.0661Z" fill="#D3DCE4"/>
<path d="M209.511 60.4805L104.755 0L0.000125844 60.4805L104.755 120.961L209.511 60.4805Z" fill="#F1F5F9"/>
<path d="M189.623 60.8568L105 12L20.3781 60.8568L105 109.714L189.623 60.8568Z" fill="white" stroke="white" stroke-width="0.542853"/>
<path d="M135.939 56.8478L112.499 43.3149L109.47 56.2164L123.551 56.7361V56.9596L109.18 57.4792L108.067 62.2118L99.8695 62.8544L98.9694 71.1518H98.5823L97.6726 63.0276L75.3555 64.7821L98.7759 78.3038L135.939 56.8478Z" fill="#172334"/>
<path d="M110.361 43.0078L74.7749 63.553L106.122 61.0889L110.361 43.0078Z" fill="#172334"/>
</svg>
