<svg width="154" height="114" viewBox="0 0 154 114" fill="none" xmlns="http://www.w3.org/2000/svg">
<g clip-path="url(#clip0)">
<path d="M153.747 69.1164L76.873 24.7334L-0.000524697 69.1164L76.873 113.499L153.747 69.1164Z" fill="#D3DCE4"/>
<path d="M153.805 69.1514V61.3833L144.244 66.3628L153.805 69.1514Z" fill="#D3DCE4"/>
<path d="M0.0349121 69.1514V61.3833L9.59571 66.3628L0.0349121 69.1514Z" fill="#D3DCE4"/>
<path d="M153.747 61.383L76.873 17L-0.000524697 61.383L76.873 105.766L153.747 61.383Z" fill="#F1F5F9"/>
<path d="M138.972 61.3828L76.873 25.5298L14.7739 61.3828L76.873 97.2358L138.972 61.3828Z" fill="white" stroke="white" stroke-width="0.398367"/>
<path d="M75.8071 0L46 17.1812V30.5968V69.0139L48.141 70.25L82.6587 47.849V9.43184L77.9479 1.23592L75.8071 0Z" fill="#403487"/>
<path d="M74.7056 3.07985L48.1406 18.4171V31.833V70.25L84.7993 49.0849V10.6679V5.70897L77.9191 1.22314L74.7056 3.07985Z" fill="url(#paint0_linear)"/>
<path d="M77.2139 1.63063V9.27392L77.9194 9.68124L84.0941 5.30149L77.9194 1.22314L77.2139 1.63063Z" fill="#403487"/>
<path d="M77.9194 9.68124L84.7996 5.70897L77.9194 1.22314V9.68124Z" fill="#403487"/>
<path d="M56.898 16.0571L54.8599 17.2336L54.1922 19.2833C53.9927 19.9256 53.6787 20.9625 53.6787 20.9625L52.3417 18.6883L50.2919 19.8716L52.4939 23.1038L50.21 29.0347L52.248 27.858L52.9038 25.8287C53.1498 25.0511 53.3491 24.4626 53.5131 23.8403L53.5365 23.8267C53.7588 24.2257 54.9538 26.2959 54.9538 26.2959L57.0153 25.1057L54.5721 21.9401L56.898 16.0571Z" fill="white"/>
<path d="M59.7712 14.3979L57.979 15.4325V24.5489L62.9102 21.7019V19.9707L59.7712 21.783V14.3979Z" fill="white"/>
<path d="M67.0368 13.9087C66.0177 14.0511 65.5723 14.0517 65.5723 13.4702C65.5723 12.9965 65.9471 12.3739 66.7195 11.9275C67.4919 11.4811 68.0548 11.4145 68.3714 11.4066L68.7699 9.51367C68.3012 9.54094 67.6455 9.70254 66.7552 10.2166C64.8932 11.2916 63.7687 13.1313 63.7687 14.6863C63.7687 16.0123 64.6235 16.3566 65.9354 16.1267C66.8831 15.9713 67.2588 16.0797 67.2588 16.6481C67.2588 17.2426 66.8254 17.885 66.0054 18.3582C65.244 18.7979 64.5062 18.94 64.026 18.9339L63.6631 20.8471C64.1081 20.8744 64.9984 20.631 65.9002 20.1106C68.067 18.8596 69.0861 16.9728 69.0861 15.4443C69.0857 14.1593 68.4304 13.7001 67.0368 13.9087Z" fill="white"/>
<path d="M63.0146 40.2079V44.3028L71.3891 39.474L72.0858 39.0719V34.9771L65.1849 38.9611L63.0146 40.2079Z" fill="white"/>
<path d="M63.0146 34.6304V38.7247L63.7114 38.3224L72.0858 33.4937V29.3994L63.7114 34.2281L63.0146 34.6304Z" fill="white"/>
<path d="M63.0146 45.7856V49.8801L65.1849 48.6332L72.0858 44.649V40.5547L65.1849 44.5389L63.0146 45.7856Z" fill="white"/>
<path d="M63.0146 51.381V55.4757L72.0858 50.2447V46.1499L71.3891 46.5521L63.0146 51.381Z" fill="white"/>
<path d="M72.9282 27.4298L77.5821 24.7429L80.3406 23.1503V19.0557L72.9282 23.335V27.4298Z" fill="white"/>
<path d="M72.9282 28.9128V33.0072L79.836 29.019L80.3406 28.7274V24.6333L79.836 24.9245L72.9282 28.9128Z" fill="white"/>
<path d="M72.9282 34.4904V38.5852L73.433 38.2939L80.3406 34.3057V30.2109L77.5821 31.8036L72.9282 34.4904Z" fill="white"/>
<path d="M63.0146 33.1471L65.1849 31.9002L72.0858 27.9161V23.8213L63.0146 29.0523V33.1471Z" fill="white"/>
<path d="M52.4795 46.1305V50.2253L60.854 45.3965L61.5506 44.9942V40.8994L54.6498 44.8836L52.4795 46.1305Z" fill="white"/>
<path d="M52.4795 40.553V44.6473L53.1764 44.2449L61.5506 39.4161V35.3218L53.1764 40.1506L52.4795 40.553Z" fill="white"/>
<path d="M52.4795 51.7083V55.8026L54.6498 54.5557L61.5506 50.5714V46.4771L54.6498 50.4613L52.4795 51.7083Z" fill="white"/>
<path d="M52.4795 57.3034V61.3982L61.5506 56.1671V52.0723L60.854 52.4746L52.4795 57.3034Z" fill="white"/>
<path d="M52.4795 39.0698L54.6498 37.823L61.5506 33.8387V29.7441L52.4795 34.975V39.0698Z" fill="white"/>
<path d="M72.9282 45.6633V49.7581L80.3406 45.4786V41.3838L73.433 45.3719L72.9282 45.6633Z" fill="white"/>
<path d="M72.9282 40.0682V44.1625L77.5821 41.4755L80.3406 39.8828V35.7886L77.5821 37.3812L72.9282 40.0682Z" fill="white"/>
<path d="M76.2132 5.45215L74.1753 6.62888L73.5078 8.67844C73.3091 9.32068 72.9944 10.3576 72.9944 10.3576L71.6572 8.08343L69.6074 9.26615L71.8094 12.499L69.5254 18.4299L71.5626 17.2533L72.2183 15.2238C72.4644 14.4463 72.6639 13.8577 72.8278 13.2355L72.8513 13.222C73.0734 13.621 74.2684 15.691 74.2684 15.691L76.3299 14.5008L73.8879 11.3352L76.2132 5.45215Z" fill="white"/>
<path d="M74.4666 78.33C75.9822 79.205 77.9567 79.1649 79.3597 78.3549C80.7453 77.5549 80.8319 76.4049 79.3164 75.5299L75.9648 73.5949L74.7957 74.2699L78.2338 76.2549C79.0652 76.7349 79.0306 77.2949 78.2771 77.7299C77.541 78.1549 76.5537 78.185 75.7224 77.705L72.2842 75.7199L71.1151 76.3949L74.4666 78.33ZM85.208 72.3784C83.9263 71.6384 82.0904 71.5983 80.8952 72.2883C80.3063 72.6283 80.0292 73.0484 80.1505 73.4484L79.6135 73.1383L78.5396 73.7583L84.3853 77.1333L85.5545 76.4583L83.5799 75.3183C84.2294 75.3333 84.8616 75.1784 85.3813 74.8784C86.5764 74.1884 86.4898 73.1184 85.208 72.3784ZM84.0303 73.0683C84.7317 73.4733 84.7231 74.0283 84.0995 74.3883C83.502 74.7333 82.5926 74.7683 81.8305 74.3283C81.0598 73.8833 81.1464 73.3633 81.7353 73.0233C82.3675 72.6583 83.3114 72.6533 84.0303 73.0683ZM84.8955 67.5389L87.5195 69.0539C86.87 69.0389 86.2724 69.1838 85.7268 69.4988C84.5317 70.1888 84.601 71.2488 85.8914 71.9938C87.1818 72.7388 89.0177 72.7788 90.2129 72.0888C90.8018 71.7488 91.0789 71.3289 90.9576 70.9289L91.4859 71.2339L92.5598 70.6138L86.0646 66.8638L84.8955 67.5389ZM89.2689 70.0438C90.0397 70.4888 89.9531 71.0088 89.3642 71.3488C88.732 71.7138 87.788 71.7189 87.0692 71.3039C86.3677 70.8989 86.3764 70.3439 86.9999 69.9839C87.5888 69.6439 88.5068 69.6038 89.2689 70.0438ZM94.7673 66.3993C93.5809 65.7143 92.2126 65.7543 91.0954 66.3993C90.342 66.8343 90.0129 67.3644 90.1081 67.9894L91.4331 68.0543C91.4072 67.5993 91.5371 67.3144 91.9787 67.0594C92.4984 66.7594 93.0526 66.7593 93.5289 67.0343L93.7195 67.1444L92.6456 67.7643C91.6497 68.3393 91.5024 68.9743 92.2732 69.4193C93.0266 69.8543 94.1265 69.8293 95.0358 69.3043C95.5814 68.9893 95.8326 68.6143 95.8239 68.2493L96.2396 68.4894L97.3135 67.8693L94.7673 66.3993ZM94.5422 67.6193C95.0358 67.9043 95.0012 68.3344 94.4902 68.6294C94.1178 68.8444 93.6935 68.8793 93.4077 68.7143C93.1219 68.5493 93.1912 68.3393 93.5722 68.1193L94.4902 67.5893L94.5422 67.6193ZM100.214 65.0647C99.9368 65.2547 99.7636 65.3647 99.6944 65.4047C99.1401 65.7247 98.7157 65.7597 98.2308 65.4797L96.542 64.5047L97.7545 63.8047L96.7672 63.2347L95.5547 63.9347L94.4722 63.3097L93.3031 63.9847L94.3856 64.6098L93.7101 64.9998L94.6974 65.5697L95.3729 65.1798L97.1656 66.2147C98.2394 66.8347 99.4086 66.7797 100.491 66.1547C100.751 66.0047 100.985 65.8297 101.193 65.6297L100.214 65.0647ZM104.148 61.9034C103.983 61.7484 103.793 61.6084 103.585 61.4884C102.468 60.8434 100.762 60.8184 99.5753 61.5034C98.3109 62.2034 98.3109 63.3934 99.5753 64.0934C100.788 64.8234 102.866 64.8134 104.165 64.0334C104.798 63.6684 105.153 63.2134 105.239 62.6734L103.957 62.4934C103.871 62.8734 103.62 63.1884 103.195 63.4334C102.572 63.7934 101.827 63.8734 101.143 63.6384L104.148 61.9034ZM100.32 63.1634C99.9217 62.7834 99.9823 62.3584 100.476 62.0734C100.987 61.7784 101.732 61.7384 102.269 62.0384L100.32 63.1634ZM71.4928 91.4368C72.7053 91.6268 73.9957 91.4518 74.9656 90.8918C76.1088 90.2318 76.2993 89.3519 75.2514 88.7469C74.4806 88.3019 73.554 88.2868 72.1683 88.5968L71.233 88.8068C70.5316 88.9618 70.2111 88.9868 69.908 88.8118C69.5529 88.6068 69.6569 88.3169 70.0639 88.0819C70.4969 87.8319 71.0771 87.7469 71.8133 87.8319L71.9951 87.0168C70.9819 86.8418 69.8994 86.9768 69.0247 87.4818C67.9421 88.1068 67.7689 88.9469 68.7475 89.5119C69.5096 89.9519 70.5142 89.9418 71.7786 89.6618L72.6706 89.4668C73.4674 89.2968 73.7705 89.2619 74.1082 89.4569C74.4979 89.6819 74.4373 89.9968 73.9264 90.2918C73.3028 90.6518 72.5754 90.7019 71.692 90.6219L71.4928 91.4368ZM80.1929 85.274C78.9112 84.534 77.0752 84.4939 75.8801 85.1839C75.2912 85.5239 75.014 85.944 75.1353 86.344L74.5984 86.0339L73.5245 86.6539L79.3702 90.0289L80.5393 89.3539L78.5647 88.2139C79.2143 88.2289 79.8465 88.074 80.3661 87.774C81.5612 87.084 81.4746 86.014 80.1929 85.274ZM79.0151 85.9639C79.7166 86.3689 79.7079 86.9239 79.0844 87.2839C78.4868 87.6289 77.5775 87.6639 76.8154 87.2239C76.0446 86.7789 76.1312 86.2589 76.7201 85.9189C77.3523 85.5539 78.2963 85.5489 79.0151 85.9639ZM81.6037 81.9894C81.4565 82.0344 81.3179 82.0943 81.1707 82.1793C80.6944 82.4543 80.4865 82.8144 80.5558 83.1844L80.0448 82.8893L78.971 83.5093L83.2578 85.9843L84.4269 85.3094L82.2878 84.0744C81.5517 83.6494 81.621 83.1693 82.3225 82.7643L82.6343 82.5843L81.6037 81.9894ZM88.7218 80.8097C88.5573 80.6547 88.3667 80.5147 88.1589 80.3947C87.0417 79.7497 85.3356 79.7247 84.1492 80.4097C82.8848 81.1097 82.8848 82.2998 84.1492 82.9998C85.3616 83.7298 87.4401 83.7197 88.7391 82.9397C89.3713 82.5747 89.7264 82.1197 89.813 81.5797L88.5313 81.3997C88.4447 81.7797 88.1935 82.0947 87.7692 82.3397C87.1456 82.6997 86.4009 82.7797 85.7167 82.5447L88.7218 80.8097ZM84.894 82.0697C84.4956 81.6897 84.5562 81.2647 85.0499 80.9797C85.5608 80.6847 86.3056 80.6447 86.8425 80.9447L84.894 82.0697ZM92.5092 77.7031C91.3228 77.0181 89.9545 77.0581 88.8373 77.7031C88.0839 78.1381 87.7548 78.668 87.85 79.293L89.1751 79.358C89.1491 78.903 89.279 78.618 89.7206 78.363C90.2403 78.063 90.7945 78.063 91.2708 78.338L91.4614 78.448L90.3875 79.068C89.3916 79.643 89.2443 80.278 90.0151 80.723C90.7685 81.158 91.8684 81.133 92.7777 80.608C93.3233 80.293 93.5745 79.918 93.5658 79.553L93.9815 79.793L95.0554 79.173L92.5092 77.7031ZM92.2841 78.923C92.7777 79.208 92.7431 79.638 92.2321 79.933C91.8597 80.148 91.4354 80.183 91.1496 80.018C90.8638 79.853 90.9331 79.643 91.3141 79.423L92.2321 78.893L92.2841 78.923ZM92.803 72.9734L95.4271 74.4885C94.7776 74.4735 94.18 74.6185 93.6344 74.9335C92.4393 75.6235 92.5086 76.6834 93.7989 77.4284C95.0893 78.1734 96.9253 78.2134 98.1204 77.5234C98.7093 77.1834 98.9864 76.7635 98.8652 76.3635L99.3935 76.6685L100.467 76.0484L93.9722 72.2984L92.803 72.9734ZM97.1764 75.4784C97.9472 75.9234 97.8606 76.4434 97.2717 76.7834C96.6395 77.1484 95.6955 77.1535 94.9767 76.7385C94.2753 76.3335 94.2839 75.7785 94.9075 75.4185C95.4964 75.0785 96.4143 75.0384 97.1764 75.4784ZM100.51 75.1839C101.419 75.2589 102.363 75.0739 103.117 74.6389C103.602 74.3589 103.879 74.0589 103.948 73.7389C104.026 73.4139 103.844 73.129 103.42 72.884C102.788 72.519 102.077 72.5389 100.908 72.8239L100.319 72.9639C99.843 73.0789 99.6525 73.0989 99.4879 73.0039C99.2887 72.8889 99.358 72.729 99.6438 72.564C99.9989 72.359 100.458 72.2539 101.012 72.2439L100.882 71.4889C100.068 71.4689 99.3407 71.639 98.6998 72.009C97.7645 72.549 97.6 73.1939 98.4054 73.6589C99.0376 74.0239 99.7737 74.0089 100.882 73.7389L101.532 73.5839C101.991 73.4789 102.181 73.4489 102.363 73.5539C102.597 73.6889 102.484 73.8939 102.173 74.0739C101.748 74.3189 101.151 74.4439 100.389 74.4339L100.51 75.1839ZM106.85 69.2936C105.811 68.6936 104.503 68.6585 103.533 69.2185C103.057 69.4935 102.814 69.8335 102.814 70.1635L100.242 68.6785L99.0729 69.3535L105.568 73.1035L106.737 72.4285L104.243 70.9886C103.75 70.7036 103.75 70.3135 104.226 70.0385C104.702 69.7635 105.36 69.7735 105.854 70.0585L108.348 71.4985L109.509 70.8285L106.85 69.2936ZM112.825 66.8937C112.661 66.7387 112.47 66.5987 112.262 66.4787C111.145 65.8337 109.439 65.8087 108.253 66.4937C106.988 67.1937 106.988 68.3837 108.253 69.0837C109.465 69.8137 111.543 69.8037 112.842 69.0237C113.475 68.6587 113.83 68.2037 113.916 67.6637L112.635 67.4838C112.548 67.8638 112.297 68.1787 111.873 68.4237C111.249 68.7837 110.504 68.8637 109.82 68.6287L112.825 66.8937ZM108.997 68.1537C108.599 67.7737 108.66 67.3487 109.153 67.0637C109.664 66.7687 110.409 66.7287 110.946 67.0287L108.997 68.1537ZM117.756 64.047C117.591 63.892 117.401 63.752 117.193 63.632C116.076 62.987 114.37 62.962 113.183 63.647C111.919 64.347 111.919 65.537 113.183 66.237C114.396 66.967 116.474 66.957 117.773 66.177C118.405 65.812 118.76 65.357 118.847 64.817L117.565 64.637C117.479 65.017 117.227 65.3321 116.803 65.5771C116.18 65.9371 115.435 66.017 114.751 65.782L117.756 64.047ZM113.928 65.307C113.53 64.927 113.59 64.5021 114.084 64.2171C114.595 63.9221 115.34 63.882 115.876 64.182L113.928 65.307ZM122.271 62.3303C121.994 62.5203 121.82 62.6303 121.751 62.6703C121.197 62.9903 120.772 63.0253 120.287 62.7453L118.599 61.7703L119.811 61.0703L118.824 60.5003L117.611 61.2003L116.529 60.5753L115.36 61.2503L116.442 61.8753L115.767 62.2653L116.754 62.8353L117.43 62.4453L119.222 63.4803C120.296 64.1003 121.465 64.0453 122.548 63.4203C122.808 63.2703 123.041 63.0953 123.249 62.8953L122.271 62.3303ZM122.981 62.2102C123.89 62.2852 124.834 62.1002 125.588 61.6652C126.073 61.3852 126.35 61.0852 126.419 60.7652C126.497 60.4402 126.315 60.1552 125.891 59.9102C125.259 59.5452 124.548 59.5652 123.379 59.8502L122.79 59.9902C122.314 60.1052 122.124 60.1252 121.959 60.0302C121.76 59.9152 121.829 59.7552 122.115 59.5902C122.47 59.3852 122.929 59.2802 123.483 59.2702L123.353 58.5152C122.539 58.4952 121.812 58.6652 121.171 59.0352C120.236 59.5752 120.071 60.2202 120.876 60.6852C121.509 61.0502 122.245 61.0352 123.353 60.7652L124.003 60.6102C124.462 60.5052 124.652 60.4752 124.834 60.5802C125.068 60.7152 124.955 60.9202 124.644 61.1002C124.219 61.3452 123.622 61.4702 122.86 61.4602L122.981 62.2102Z" fill="#002642"/>
</g>
<defs>
<linearGradient id="paint0_linear" x1="60.9322" y1="58.8543" x2="75.9755" y2="48.7201" gradientUnits="userSpaceOnUse">
<stop stop-color="#5144A3"/>
<stop offset="0.543707" stop-color="#6152BD"/>
<stop offset="1" stop-color="#6C5DCC"/>
</linearGradient>
<clipPath id="clip0">
<rect width="154" height="114" fill="white"/>
</clipPath>
</defs>
</svg>
