<svg width="154" height="100" viewBox="0 0 154 100" fill="none" xmlns="http://www.w3.org/2000/svg">
<g clip-path="url(#clip0)">
<path d="M153.747 55.1162L76.8735 10.7332L-3.6416e-05 55.1162L76.8735 99.4992L153.747 55.1162Z" fill="#D3DCE4"/>
<path d="M153.804 55.1509V47.3828L144.244 52.3624L153.804 55.1509Z" fill="#D3DCE4"/>
<path d="M0.034668 55.1509V47.3828L9.59547 52.3624L0.034668 55.1509Z" fill="#D3DCE4"/>
<path d="M153.747 47.383L76.8735 3L-3.6416e-05 47.383L76.8735 91.766L153.747 47.383Z" fill="#F1F5F9"/>
<path d="M138.973 47.3828L76.8735 11.5298L14.7743 47.3828L76.8735 83.2358L138.973 47.3828Z" fill="white" stroke="white" stroke-width="0.398367"/>
<path d="M66.8497 31.169L64.853 30.0093L82.4362 34.9004L84.4314 36.0601L66.8497 31.169Z" fill="#FFCA28"/>
<path d="M66.8497 31.1688L64.853 30.0091L82.3512 5.09497L84.3465 6.25472L66.8497 31.1688Z" fill="#403487"/>
<path d="M66.8496 31.1687L84.3464 6.25464L84.4314 36.0598L66.8496 31.1687Z" fill="url(#paint0_linear)"/>
<path d="M65.2095 30.713L63.2129 29.5532L64.8527 30.0092L66.8493 31.1689L65.2095 30.713Z" fill="#5244A3"/>
<path d="M63.5787 33.0579L61.582 31.8968L63.2133 29.5532L65.21 30.713L63.5787 33.0579Z" fill="#403487"/>
<path d="M65.2096 30.7129L66.8494 31.1688L84.4312 36.0599L46.0815 58.2013L63.5783 33.0578L65.2096 30.7129Z" fill="#403487"/>
<path d="M46.0818 58.2012L44.0852 57.0414L61.582 31.8965L63.5786 33.0577L46.0818 58.2012Z" fill="#FFCA28"/>
<path d="M46.0816 58.2012L44.085 57.0415L44 27.2363L45.9966 28.3961L46.0816 58.2012Z" fill="#403487"/>
<path d="M45.9966 28.3961L44 27.2363L61.5818 31.8966L63.5784 33.0577L45.9966 28.3961Z" fill="#403487"/>
<path d="M45.9966 28.396L63.5783 33.0577L46.0815 58.2012L45.9966 28.396Z" fill="url(#paint1_linear)"/>
<path d="M65.8499 30.5897L64.853 30.0091L80.3688 7.91724L81.3671 8.4964L65.8499 30.5897Z" fill="#FBC02D"/>
<path d="M64.1381 3.92951L63.1396 3.35034L80.3688 7.91713L81.3672 8.49629L64.1381 3.92951Z" fill="#FFE082"/>
<path d="M64.1282 0.579168L63.1299 0L82.3514 5.09497L83.3498 5.67414L64.1282 0.579168Z" fill="#6D5DCD"/>
<path d="M46.991 28.3438L45.9927 27.7646L61.582 31.8981L62.5804 32.4772L46.991 28.3438Z" fill="#FBC02D"/>
<path d="M64.1382 3.92969L81.3674 8.49647L65.8503 30.5898L64.2119 30.1324L62.5806 32.4774L46.9912 28.3439L64.1382 3.92969Z" fill="#403487"/>
<path d="M46.991 28.3437L45.9927 27.7645L63.1397 3.35034L64.138 3.92951L46.991 28.3437Z" fill="#FFE082"/>
<path d="M44.9986 27.817L44.0002 27.2364L63.1298 0L64.1281 0.579168L44.9986 27.817Z" fill="#403487"/>
<path d="M83.3496 5.67407L65.85 30.5896L81.3671 8.49628L64.138 3.92949L46.9909 28.3437L62.5803 32.4772L44.9985 27.8169L64.128 0.579102L83.3496 5.67407Z" fill="url(#paint2_linear)"/>
<path d="M46.7967 18.1226L46.2969 17.8337L73.6777 2.0249L74.1762 2.3152L46.7967 18.1226Z" fill="white"/>
<path d="M46.8251 28.4513L46.3266 28.161L46.2969 17.8337L46.7967 18.1226L46.8251 28.4513Z" fill="#B0BEC5"/>
<path d="M82.4716 7.87038L82.4688 7.04057L74.2046 11.8126L74.1763 2.31519L46.7969 18.1226L46.8252 28.4513L63.0518 32.7519L64.6831 30.4083L66.3229 30.8643L72.6725 21.8227L82.4716 7.87038Z" fill="url(#paint3_linear)" fill-opacity="0.8"/>
<path d="M74.6761 2.60548L74.1763 2.31519L82.4687 7.04057L82.9686 7.33086L74.6761 2.60548Z" fill="#ECEFF1"/>
<path d="M74.703 12.1029L74.2032 11.8126L74.1763 2.31519L74.6761 2.60548L74.703 12.1029Z" fill="#B0BEC5"/>
<path d="M74.6763 2.60547L82.9687 7.33085L74.7032 12.1029L74.6763 2.60547Z" fill="#FAFAFA"/>
<path d="M70.6771 10.0737L72.6766 11.2136L63.9395 26.3428L61.9542 29.7824L55.5806 26.1502L57.5659 22.7106L61.9415 25.2043L70.6771 10.0737Z" fill="#FAFAFA"/>
<path d="M77.7028 60.6481C79.3136 61.6081 82.0849 61.5781 83.6957 60.6081C85.3758 59.6781 85.445 58.0681 83.7823 57.1381C82.1715 56.1781 79.3829 56.2181 77.772 57.1881C76.092 58.1181 76.04 59.7181 77.7028 60.6481ZM82.5785 57.8331C83.6783 58.4681 83.6697 59.3731 82.6218 59.9781C81.5652 60.5881 80.0064 60.5881 78.9065 59.9531C77.8067 59.3181 77.8067 58.4181 78.8632 57.8081C79.9111 57.2031 81.496 57.2081 82.5785 57.8331ZM89.9338 54.4065C88.6521 53.6665 86.8161 53.6265 85.621 54.3165C85.0321 54.6565 84.755 55.0765 84.8762 55.4765L84.3393 55.1665L83.2654 55.7865L89.1111 59.1615L90.2802 58.4865L88.3057 57.3465C88.9552 57.3615 89.5874 57.2065 90.107 56.9065C91.3021 56.2165 91.2155 55.1465 89.9338 54.4065ZM88.756 55.0965C89.4575 55.5015 89.4488 56.0565 88.8253 56.4165C88.2278 56.7615 87.3184 56.7965 86.5563 56.3565C85.7856 55.9115 85.8722 55.3915 86.4611 55.0515C87.0933 54.6865 88.0372 54.6815 88.756 55.0965ZM95.1898 51.832C95.0252 51.677 94.8347 51.537 94.6269 51.417C93.5097 50.772 91.8036 50.747 90.6172 51.432C89.3528 52.132 89.3528 53.322 90.6172 54.022C91.8296 54.752 93.9081 54.742 95.2071 53.962C95.8393 53.597 96.1944 53.142 96.281 52.602L94.9993 52.422C94.9127 52.802 94.6615 53.117 94.2372 53.362C93.6136 53.722 92.8688 53.802 92.1847 53.567L95.1898 51.832ZM91.362 53.092C90.9636 52.712 91.0242 52.287 91.5178 52.002C92.0288 51.707 92.7736 51.667 93.3105 51.967L91.362 53.092ZM99.2111 48.4603C98.1718 47.8603 96.8728 47.8203 95.8769 48.3953C95.3659 48.6903 95.1061 49.0503 95.1061 49.4003L94.7164 49.1753L93.6425 49.7953L97.9293 52.2703L99.0985 51.5953L96.5957 50.1503C96.102 49.8653 96.102 49.4753 96.5783 49.2003C97.0546 48.9253 97.7128 48.9353 98.2065 49.2203L100.709 50.6653L101.87 49.9953L99.2111 48.4603ZM89.7729 64.9594C89.6084 64.8044 89.4178 64.6644 89.21 64.5444C88.0928 63.8994 86.3867 63.8744 85.2003 64.5594C83.9359 65.2594 83.9359 66.4494 85.2003 67.1494C86.4127 67.8794 88.4912 67.8694 89.7902 67.0894C90.4224 66.7244 90.7775 66.2694 90.8641 65.7294L89.5824 65.5494C89.4958 65.9294 89.2446 66.2444 88.8203 66.4894C88.1967 66.8494 87.4519 66.9294 86.7678 66.6944L89.7729 64.9594ZM85.9451 66.2194C85.5467 65.8394 85.6073 65.4144 86.1009 65.1294C86.6119 64.8344 87.3567 64.7944 87.8936 65.0944L85.9451 66.2194ZM96.4615 60.0477C95.4223 59.4477 94.1233 59.4077 93.1187 59.9877C92.5298 60.3277 92.2613 60.7527 92.3046 61.1677C91.6118 61.0977 90.9796 61.2227 90.4167 61.5477C89.923 61.8327 89.6632 62.1827 89.6805 62.5227L89.2995 62.3027L88.2256 62.9227L92.5124 65.3977L93.6816 64.7227L91.1874 63.2827C90.6765 62.9877 90.6678 62.6227 91.1441 62.3477C91.6031 62.0827 92.2267 62.0927 92.7376 62.3877L95.2318 63.8277L96.4009 63.1527L93.8808 61.6977C93.4045 61.4227 93.4045 61.0427 93.8634 60.7777C94.3224 60.5127 94.946 60.5227 95.4569 60.8177L97.9511 62.2577L99.1202 61.5827L96.4615 60.0477ZM101.282 57.3947C100.095 56.7097 98.7271 56.7497 97.6099 57.3947C96.8564 57.8297 96.5274 58.3597 96.6226 58.9847L97.9476 59.0497C97.9217 58.5947 98.0516 58.3097 98.4932 58.0547C99.0128 57.7547 99.5671 57.7547 100.043 58.0297L100.234 58.1397L99.1601 58.7597C98.1641 59.3347 98.0169 59.9697 98.7877 60.4147C99.5411 60.8497 100.641 60.8247 101.55 60.2997C102.096 59.9847 102.347 59.6097 102.338 59.2447L102.754 59.4847L103.828 58.8647L101.282 57.3947ZM101.057 58.6147C101.55 58.8997 101.516 59.3297 101.005 59.6247C100.632 59.8397 100.208 59.8747 99.9222 59.7097C99.6364 59.5447 99.7057 59.3347 100.087 59.1147L101.005 58.5847L101.057 58.6147ZM104.953 58.2151L106.122 57.5401L101.835 55.0651L100.666 55.7401L104.953 58.2151ZM98.9429 54.9351C99.3499 55.1701 99.9908 55.1601 100.406 54.9201C100.822 54.6801 100.848 54.3051 100.441 54.0701C100.025 53.8301 99.3759 53.8451 98.9602 54.0851C98.5445 54.3251 98.5272 54.6951 98.9429 54.9351ZM107.279 56.8723L108.448 56.1973L101.953 52.4473L100.784 53.1223L107.279 56.8723ZM108.487 55.3346C109.397 55.4096 110.341 55.2246 111.094 54.7896C111.579 54.5096 111.856 54.2096 111.926 53.8896C112.003 53.5646 111.822 53.2796 111.397 53.0346C110.765 52.6696 110.055 52.6896 108.886 52.9746L108.297 53.1146C107.821 53.2296 107.63 53.2496 107.466 53.1546C107.266 53.0396 107.336 52.8796 107.621 52.7146C107.976 52.5096 108.435 52.4046 108.99 52.3946L108.86 51.6396C108.046 51.6196 107.318 51.7896 106.677 52.1596C105.742 52.6996 105.578 53.3446 106.383 53.8096C107.015 54.1746 107.751 54.1596 108.86 53.8896L109.509 53.7346C109.968 53.6296 110.159 53.5996 110.341 53.7046C110.575 53.8396 110.462 54.0446 110.15 54.2246C109.726 54.4696 109.128 54.5946 108.366 54.5846L108.487 55.3346Z" fill="#002642"/>
</g>
<defs>
<linearGradient id="paint0_linear" x1="72.9846" y1="31.1392" x2="79.7088" y2="26.1077" gradientUnits="userSpaceOnUse">
<stop stop-color="#5144A3"/>
<stop offset="0.543707" stop-color="#6152BD"/>
<stop offset="1" stop-color="#6C5DCC"/>
</linearGradient>
<linearGradient id="paint1_linear" x1="52.1315" y1="53.2806" x2="58.8558" y2="48.2491" gradientUnits="userSpaceOnUse">
<stop stop-color="#5144A3"/>
<stop offset="0.543707" stop-color="#6152BD"/>
<stop offset="1" stop-color="#6C5DCC"/>
</linearGradient>
<linearGradient id="paint2_linear" x1="58.3807" y1="27.2111" x2="65.2599" y2="16.7195" gradientUnits="userSpaceOnUse">
<stop stop-color="#5144A3"/>
<stop offset="0.543707" stop-color="#6152BD"/>
<stop offset="1" stop-color="#6C5DCC"/>
</linearGradient>
<linearGradient id="paint3_linear" x1="46.7969" y1="32.7519" x2="82.4716" y2="32.7519" gradientUnits="userSpaceOnUse">
<stop stop-color="#814EC4"/>
<stop offset="1" stop-color="#561FAA"/>
</linearGradient>
<clipPath id="clip0">
<rect width="154" height="100" fill="white"/>
</clipPath>
</defs>
</svg>
