<svg width="915" height="380" viewBox="0 0 915 380" fill="none" xmlns="http://www.w3.org/2000/svg">
<g clip-path="url(#clip0)">
<path d="M644.944 267.825L451.972 156.413L259 267.825L451.972 379.238L644.944 267.825Z" fill="#321060"/>
<path d="M645.087 267.912V248.412L621.087 260.912L645.087 267.912Z" fill="#321060"/>
<path d="M259.087 267.912V248.412L283.087 260.912L259.087 267.912Z" fill="#321060"/>
<path d="M644.944 248.412L451.972 137L259 248.412L451.972 359.825L644.944 248.412Z" fill="#4D1F8F"/>
<path d="M607.856 248.413L451.972 158.413L296.087 248.413L451.972 338.413L607.856 248.413Z" fill="url(#paint0_linear)" fill-opacity="0.8"/>
<path d="M607.856 248.413L451.972 158.413L296.087 248.413L451.972 338.413L607.856 248.413Z" stroke="white" stroke-opacity="0.5"/>
<path fill-rule="evenodd" clip-rule="evenodd" d="M489.14 225.69C492.122 221.62 490.789 216.769 485.017 213.462L482.749 212.163C476.976 208.856 468.491 208.084 461.386 209.792C460.451 210.019 460.213 210.718 460.926 211.127L486.809 225.953C487.538 226.371 488.743 226.226 489.14 225.69ZM480.719 231.222C474.375 228.133 466.715 226.416 458.88 226.071C457.976 226.026 457.421 225.581 457.612 225.072C459.388 220.457 456.708 215.397 449.555 212.154C441.768 208.62 430.429 208.502 422.436 211.881C419.019 213.338 416.536 215.193 415.022 217.227L414.633 217.786C413.634 219.339 412.08 220.702 410.113 221.829C408.378 222.822 406.328 223.621 404.047 224.189L403.056 224.418C399.123 225.254 395.507 226.743 392.747 228.887C386.832 233.457 387.054 239.961 393.223 244.422C398.901 248.528 407.718 250.054 415.775 249.037C416.663 248.928 417.44 249.246 417.519 249.764C418.138 254.242 421.119 258.639 426.512 262.273C427.067 262.646 428.018 262.682 428.621 262.337L480.83 232.43C481.416 232.094 481.353 231.531 480.719 231.222ZM433.902 266.143C448.921 272.13 469.712 271.321 483.113 263.645C496.515 255.968 497.942 244.068 487.475 235.455C486.951 235.029 485.905 234.974 485.27 235.337L433.696 264.88C433.062 265.244 433.173 265.852 433.902 266.143ZM416.869 267.088C417.805 266.861 418.043 266.161 417.329 265.752L391.431 250.917C390.701 250.5 389.496 250.645 389.1 251.181C386.134 255.26 387.466 260.111 393.239 263.418L395.523 264.726C401.279 268.024 409.764 268.796 416.869 267.088ZM453.631 207.348C454.709 206.439 456.232 205.713 458.056 205.268C468.666 202.733 480.735 204.068 488.839 208.656L491.107 209.955C499.179 214.579 501.526 221.483 497.085 227.552C496.562 228.251 495.817 228.878 494.913 229.396C494.072 229.878 493.089 230.259 492.026 230.541C491.582 230.65 491.535 231.004 491.931 231.158C492.93 231.549 493.818 232.04 494.532 232.63C507.584 243.359 505.348 257.849 489.203 267.097C473.059 276.345 447.763 277.626 429.033 270.149C428.002 269.741 427.146 269.232 426.464 268.66C426.194 268.432 425.576 268.46 425.386 268.714C424.878 269.332 424.212 269.895 423.387 270.367C422.483 270.885 421.405 271.303 420.184 271.603C409.574 274.138 397.521 272.793 389.464 268.178L387.196 266.879C379.124 262.255 376.777 255.351 381.217 249.282C381.979 248.228 383.263 247.365 384.849 246.748C385.151 246.63 385.246 246.411 385.04 246.239C377.919 240.089 378.141 231.949 385.896 225.944C389.528 223.119 394.444 220.993 400.09 219.794C401.597 219.476 402.945 218.976 404.055 218.34C404.98 217.81 405.74 217.186 406.289 216.493L406.592 216.069C408.702 212.844 412.413 210.028 417.329 207.938C427.812 203.496 442.022 203.369 452.759 207.448C453.06 207.566 453.425 207.52 453.631 207.348ZM406.545 238.263C405.086 237.427 405.086 236.064 406.545 235.228L433.506 219.785C434.965 218.949 437.344 218.949 438.803 219.785C440.262 220.62 440.262 221.983 438.803 222.819L411.842 238.263C410.383 239.098 408.004 239.098 406.545 238.263ZM439.358 236.291C437.613 235.292 437.613 233.675 439.358 232.676C441.102 231.676 443.925 231.676 445.67 232.676C447.414 233.675 447.414 235.292 445.67 236.291C443.925 237.291 441.102 237.291 439.358 236.291ZM429.049 238.581C427.305 239.58 427.305 241.197 429.049 242.196C430.794 243.196 433.617 243.196 435.361 242.196C437.106 241.197 437.106 239.58 435.361 238.581C433.617 237.581 430.794 237.581 429.049 238.581Z" fill="white"/>
<path d="M451.882 317.454C453.337 317.682 454.886 317.472 456.049 316.8C457.421 316.008 457.65 314.952 456.392 314.226C455.468 313.692 454.356 313.674 452.693 314.046L451.57 314.298C450.729 314.484 450.344 314.514 449.98 314.304C449.554 314.058 449.679 313.71 450.167 313.428C450.687 313.128 451.383 313.026 452.267 313.128L452.485 312.15C451.269 311.94 449.97 312.102 448.92 312.708C447.621 313.458 447.413 314.466 448.588 315.144C449.502 315.672 450.708 315.66 452.225 315.324L453.296 315.09C454.252 314.886 454.615 314.844 455.021 315.078C455.488 315.348 455.416 315.726 454.802 316.08C454.054 316.512 453.181 316.572 452.121 316.476L451.882 317.454ZM456.596 313.365C458.03 314.229 460.556 314.223 462.031 313.335C463.569 312.483 463.611 311.007 462.114 310.179C460.68 309.315 458.155 309.345 456.669 310.227C455.131 311.079 455.1 312.537 456.596 313.365ZM460.691 311.013C461.491 311.475 461.512 312.147 460.753 312.585C459.974 313.035 458.83 313.011 458.03 312.549C457.209 312.075 457.168 311.415 457.947 310.965C458.706 310.527 459.89 310.551 460.691 311.013ZM461.568 306.703C460.986 306.367 461.069 306.067 461.703 305.701C461.828 305.629 461.973 305.557 462.15 305.479L460.975 304.801C460.664 304.897 460.362 305.023 460.092 305.179C458.855 305.893 458.751 306.697 460.04 307.441L460.882 307.927L460.154 308.347L461.339 309.031L462.067 308.611L466.026 310.897L467.429 310.087L463.47 307.801L464.602 307.147L463.418 306.463L462.285 307.117L461.568 306.703ZM471.206 306.55C470.873 306.778 470.665 306.91 470.582 306.958C469.917 307.342 469.408 307.384 468.826 307.048L466.799 305.878L468.254 305.038L467.069 304.354L465.615 305.194L464.316 304.444L462.913 305.254L464.212 306.004L463.401 306.472L464.586 307.156L465.396 306.688L467.548 307.93C468.836 308.674 470.239 308.608 471.538 307.858C471.85 307.678 472.131 307.468 472.38 307.228L471.206 306.55ZM474.864 299.854L476.537 302.2L472.131 301.3L471.663 301.57L473.305 304.138L469.158 303.148L467.683 304L475.342 305.662L475.799 305.398L474.292 302.812L478.761 303.688L479.218 303.424L476.34 299.002L474.864 299.854ZM483.364 297.359C481.94 296.537 480.298 296.585 478.957 297.359C478.053 297.881 477.658 298.517 477.773 299.267L479.363 299.345C479.331 298.799 479.487 298.457 480.017 298.151C480.641 297.791 481.306 297.791 481.878 298.121L482.106 298.253L480.818 298.997C479.622 299.687 479.446 300.449 480.371 300.983C481.275 301.505 482.595 301.475 483.686 300.845C484.341 300.467 484.642 300.017 484.631 299.579L485.13 299.867L486.419 299.123L483.364 297.359ZM483.093 298.823C483.686 299.165 483.644 299.681 483.031 300.035C482.584 300.293 482.075 300.335 481.732 300.137C481.389 299.939 481.472 299.687 481.929 299.423L483.031 298.787L483.093 298.823ZM485.784 293.549C485.608 293.603 485.441 293.675 485.265 293.777C484.693 294.107 484.444 294.539 484.527 294.983L483.914 294.629L482.625 295.373L487.769 298.343L489.172 297.533L486.605 296.051C485.722 295.541 485.805 294.965 486.647 294.479L487.021 294.263L485.784 293.549ZM494.326 292.134C494.129 291.948 493.9 291.78 493.65 291.636C492.31 290.862 490.263 290.832 488.839 291.654C487.322 292.494 487.322 293.922 488.839 294.762C490.294 295.638 492.788 295.626 494.347 294.69C495.105 294.252 495.531 293.706 495.635 293.058L494.097 292.842C493.993 293.298 493.692 293.676 493.183 293.97C492.435 294.402 491.541 294.498 490.72 294.216L494.326 292.134ZM489.733 293.646C489.255 293.19 489.327 292.68 489.92 292.338C490.533 291.984 491.427 291.936 492.071 292.296L489.733 293.646ZM506.408 287.582L501.773 287.15C502.147 286.502 501.898 285.83 501.025 285.326C499.705 284.564 497.772 284.648 496.338 285.476L493.761 286.964L500.62 290.924L502.023 290.114L499.601 288.716L500.63 288.122L504.829 288.494L506.408 287.582ZM496.4 286.868L497.575 286.19C498.209 285.824 499.009 285.818 499.591 286.154C500.183 286.496 500.194 286.946 499.539 287.324L498.365 288.002L496.4 286.868ZM504.153 285.908C505.587 286.772 508.112 286.766 509.588 285.878C511.126 285.026 511.168 283.55 509.671 282.722C508.237 281.858 505.712 281.888 504.226 282.77C502.688 283.622 502.657 285.08 504.153 285.908ZM508.248 283.556C509.048 284.018 509.069 284.69 508.31 285.128C507.531 285.578 506.387 285.554 505.587 285.092C504.766 284.618 504.725 283.958 505.504 283.508C506.263 283.07 507.447 283.094 508.248 283.556ZM516.212 278.957C514.664 278.063 512.461 278.015 511.026 278.843C510.372 279.221 510.07 279.635 510.102 280.085L506.953 278.267L505.55 279.077L513.344 283.577L514.633 282.833L513.999 282.467C514.851 282.539 515.703 282.359 516.41 281.951C517.844 281.123 517.761 279.851 516.212 278.957ZM514.778 279.773C515.641 280.271 515.63 280.925 514.872 281.363C514.165 281.771 513.084 281.831 512.159 281.297C511.245 280.769 511.317 280.139 512.035 279.725C512.783 279.293 513.936 279.287 514.778 279.773ZM517.011 278.484C518.446 279.348 520.971 279.342 522.447 278.454C523.985 277.602 524.026 276.126 522.53 275.298C521.096 274.434 518.57 274.464 517.084 275.346C515.546 276.198 515.515 277.656 517.011 278.484ZM521.106 276.132C521.906 276.594 521.927 277.266 521.168 277.704C520.389 278.154 519.246 278.13 518.446 277.668C517.625 277.194 517.583 276.534 518.362 276.084C519.121 275.646 520.306 275.67 521.106 276.132ZM528.333 273.568C528 273.796 527.792 273.928 527.709 273.976C527.044 274.36 526.535 274.402 525.953 274.066L523.927 272.896L525.381 272.056L524.197 271.372L522.742 272.212L521.443 271.462L520.04 272.272L521.339 273.022L520.528 273.49L521.713 274.174L522.524 273.706L524.675 274.948C525.963 275.692 527.366 275.626 528.665 274.876C528.977 274.696 529.258 274.486 529.507 274.246L528.333 273.568ZM533.532 271.922L534.935 271.112L532.514 269.714L533.688 269.036C535.122 268.208 535.247 267.08 533.937 266.324C532.617 265.562 530.685 265.646 529.25 266.474L526.673 267.962L533.532 271.922ZM531.287 269.006L529.313 267.866L530.487 267.188C531.121 266.822 531.921 266.816 532.503 267.152C533.096 267.494 533.116 267.95 532.462 268.328L531.287 269.006ZM539.609 268.413L541.012 267.603L533.218 263.103L531.815 263.913L539.609 268.413ZM543.657 262.548C542.234 261.726 540.592 261.774 539.251 262.548C538.347 263.07 537.952 263.706 538.066 264.456L539.656 264.534C539.625 263.988 539.781 263.646 540.311 263.34C540.934 262.98 541.6 262.98 542.171 263.31L542.4 263.442L541.111 264.186C539.916 264.876 539.739 265.638 540.664 266.172C541.568 266.694 542.888 266.664 543.979 266.034C544.634 265.656 544.936 265.206 544.925 264.768L545.424 265.056L546.713 264.312L543.657 262.548ZM543.387 264.012C543.979 264.354 543.938 264.87 543.325 265.224C542.878 265.482 542.369 265.524 542.026 265.326C541.683 265.128 541.766 264.876 542.223 264.612L543.325 263.976L543.387 264.012ZM550.193 260.947C549.861 261.175 549.653 261.307 549.57 261.355C548.905 261.739 548.395 261.781 547.813 261.445L545.787 260.275L547.242 259.435L546.057 258.751L544.602 259.591L543.303 258.841L541.9 259.651L543.199 260.401L542.389 260.869L543.573 261.553L544.384 261.085L546.535 262.327C547.824 263.071 549.227 263.005 550.526 262.255C550.838 262.075 551.118 261.865 551.368 261.625L550.193 260.947ZM548.167 256.704C547.585 256.368 547.668 256.068 548.302 255.702C548.427 255.63 548.572 255.558 548.749 255.48L547.575 254.802C547.263 254.898 546.961 255.024 546.691 255.18C545.454 255.894 545.351 256.698 546.639 257.442L547.481 257.928L546.754 258.348L547.938 259.032L548.666 258.612L552.625 260.898L554.028 260.088L550.069 257.802L551.201 257.148L550.017 256.464L548.884 257.118L548.167 256.704ZM553.07 257.666C554.504 258.53 557.029 258.524 558.505 257.636C560.043 256.784 560.085 255.308 558.588 254.48C557.154 253.616 554.629 253.646 553.143 254.528C551.605 255.38 551.573 256.838 553.07 257.666ZM557.165 255.314C557.965 255.776 557.985 256.448 557.227 256.886C556.447 257.336 555.304 257.312 554.504 256.85C553.683 256.376 553.642 255.716 554.421 255.266C555.18 254.828 556.364 254.852 557.165 255.314ZM560.276 250.541C560.099 250.595 559.933 250.667 559.756 250.769C559.185 251.099 558.935 251.531 559.018 251.975L558.405 251.621L557.117 252.365L562.261 255.335L563.664 254.525L561.097 253.043C560.214 252.533 560.297 251.957 561.139 251.471L561.513 251.255L560.276 250.541ZM571.029 246.589C569.782 245.869 568.223 245.821 567.017 246.517C566.311 246.925 565.989 247.435 566.041 247.933C565.209 247.849 564.45 247.999 563.775 248.389C563.183 248.731 562.871 249.151 562.892 249.559L562.434 249.295L561.146 250.039L566.29 253.009L567.693 252.199L564.7 250.471C564.087 250.117 564.076 249.679 564.648 249.349C565.199 249.031 565.947 249.043 566.56 249.397L569.553 251.125L570.956 250.315L567.932 248.569C567.36 248.239 567.36 247.783 567.911 247.465C568.462 247.147 569.21 247.159 569.823 247.513L572.816 249.241L574.219 248.431L571.029 246.589Z" fill="white"/>
</g>
<path d="M110 129.035L156.517 155.892C161.3 158.653 169.055 158.653 173.838 155.892L225.489 126.071C230.272 123.31 238.026 123.31 242.809 126.071L289.327 152.928" stroke="white" stroke-opacity="0.7" stroke-width="11"/>
<path opacity="0.5" d="M110 129.035L156.517 155.892C161.3 158.653 169.055 158.653 173.838 155.892L225.489 126.071C230.272 123.31 238.026 123.31 242.809 126.071L289.327 152.928" stroke="white" stroke-dasharray="4 4"/>
<path d="M311.933 60L358.451 86.8567C363.233 89.6181 363.233 94.0953 358.451 96.8567L282.587 140.656C277.804 143.418 277.804 147.895 282.587 150.656L329.105 177.513" stroke="white" stroke-opacity="0.7" stroke-width="11"/>
<path opacity="0.5" d="M311.933 60L358.451 86.8567C363.233 89.6181 363.233 94.0953 358.451 96.8567L282.587 140.656C277.804 143.418 277.804 147.895 282.587 150.656L329.105 177.513" stroke="white" stroke-dasharray="4 4"/>
<path d="M142 9L195.041 39.9804C199.777 42.7464 199.754 47.2012 194.991 49.9514L161.21 69.455C156.421 72.2199 156.428 76.7038 161.225 79.4638L354.136 190.444" stroke="white" stroke-opacity="0.7" stroke-width="11"/>
<path opacity="0.5" d="M142 9L195.041 39.9804C199.777 42.7464 199.754 47.2012 194.991 49.9513L161.21 69.455C156.421 72.2199 156.428 76.7038 161.225 79.4638L354.136 190.444" stroke="white" stroke-dasharray="4 4"/>
<g clip-path="url(#clip1)">
<path d="M598.125 78.8101L571.506 94.1782C566.723 96.9396 566.723 101.417 571.506 104.178L633.802 140.145C638.585 142.906 638.585 147.383 633.802 150.145L607.184 165.513" stroke="white" stroke-opacity="0.7" stroke-width="11"/>
<path opacity="0.5" d="M598.125 78.8101L571.506 94.1782C566.723 96.9396 566.723 101.417 571.506 104.178L633.802 140.145C638.585 142.906 638.585 147.383 633.802 150.145L607.184 165.513" stroke="white" stroke-dasharray="4 4"/>
</g>
<path d="M799.823 205.151L763.123 226.34C758.34 229.101 750.585 229.101 745.802 226.34L631.021 160.071C626.238 157.31 618.483 157.31 613.7 160.071L577 181.26" stroke="white" stroke-opacity="0.7" stroke-width="11"/>
<path opacity="0.5" d="M799.823 205.151L763.123 226.34C758.34 229.101 750.585 229.101 745.802 226.34L631.021 160.071C626.238 157.31 618.483 157.31 613.7 160.071L577 181.26" stroke="white" stroke-dasharray="4 4"/>
<path d="M781.136 5L728.095 35.9804C723.359 38.7464 723.381 43.2012 728.145 45.9513L761.926 65.4549C766.715 68.2198 766.708 72.7039 761.911 75.4638L569 186.444" stroke="white" stroke-opacity="0.7" stroke-width="11"/>
<path opacity="0.5" d="M781.136 5L728.095 35.9804C723.359 38.7464 723.381 43.2012 728.145 45.9513L761.926 65.4549C766.715 68.2198 766.708 72.7039 761.911 75.4638L569 186.444" stroke="white" stroke-dasharray="4 4"/>
<path d="M3 48L64.4951 83.1444C69.285 85.8818 77.0057 85.8705 81.7714 83.119L115.052 63.9047C119.84 61.1402 127.605 61.1437 132.386 63.9126L350.073 189.989" stroke="white" stroke-opacity="0.7" stroke-width="11"/>
<path opacity="0.5" d="M3 48L64.4951 83.1444C69.285 85.8818 77.0057 85.8705 81.7714 83.119L115.052 63.9047C119.84 61.1402 127.605 61.1437 132.386 63.9126L350.073 189.989" stroke="white" stroke-dasharray="4 4"/>
<path d="M912.162 53L850.347 88.3015C845.556 91.0372 837.838 91.0251 833.074 88.2743L795.947 66.8391C791.158 64.0744 783.392 64.0782 778.612 66.8476L560 193.488" stroke="white" stroke-opacity="0.7" stroke-width="11"/>
<path opacity="0.5" d="M912.162 53L850.347 88.3015C845.556 91.0372 837.838 91.0251 833.074 88.2743L795.947 66.8391C791.158 64.0744 783.392 64.0782 778.612 66.8475L560 193.488" stroke="white" stroke-dasharray="4 4"/>
<defs>
<linearGradient id="paint0_linear" x1="296.087" y1="248.413" x2="374.03" y2="383.413" gradientUnits="userSpaceOnUse">
<stop stop-color="#814EC4"/>
<stop offset="1" stop-color="#561FAA"/>
</linearGradient>
<clipPath id="clip0">
<rect width="387" height="243" fill="white" transform="translate(259 137)"/>
</clipPath>
<clipPath id="clip1">
<rect width="151" height="93" fill="white" transform="translate(527 76)"/>
</clipPath>
</defs>
</svg>
