<svg width="712" height="423" viewBox="0 0 712 423" fill="none" xmlns="http://www.w3.org/2000/svg">
<g filter="url(#filter0_d)">
<path d="M687.956 10H24.0441C18.4969 10 14 14.4772 14 20V395C14 400.523 18.4969 405 24.0441 405H687.956C693.503 405 698 400.523 698 395V20C698 14.4772 693.503 10 687.956 10Z" fill="url(#paint0_linear)"/>
</g>
<path d="M642.949 51H69.0508C63.4999 51 59 55.4772 59 61V354C59 359.523 63.4999 364 69.0508 364H642.949C648.5 364 653 359.523 653 354V61C653 55.4772 648.5 51 642.949 51Z" fill="url(#paint1_linear)"/>
<path d="M616.465 221H95.5353C90.2691 221 86 225.253 86 230.5V339.5C86 344.747 90.2691 349 95.5353 349H616.465C621.731 349 626 344.747 626 339.5V230.5C626 225.253 621.731 221 616.465 221Z" fill="#1A2D46" stroke="#4CA9FF"/>
<path d="M112 253.934V255H105V253.934H107.947V246.567H105.733V245.737C106.286 245.653 106.769 245.553 107.181 245.439C107.593 245.313 107.963 245.168 108.288 245H109.281V253.934H112Z" fill="#4DA9FF"/>
<path d="M184.911 75H92.0893C86.5171 75 82 79.4772 82 85V97C82 102.523 86.5171 107 92.0893 107H184.911C190.483 107 195 102.523 195 97V85C195 79.4772 190.483 75 184.911 75Z" fill="#8494F8"/>
<path d="M154.878 121H92.122C86.5318 121 82 125.477 82 131V143C82 148.523 86.5318 153 92.122 153H154.878C160.468 153 165 148.523 165 143V131C165 125.477 160.468 121 154.878 121Z" fill="#8494F8"/>
<path d="M154.878 167H92.122C86.5318 167 82 171.477 82 177V189C82 194.523 86.5318 199 92.122 199H154.878C160.468 199 165 194.523 165 189V177C165 171.477 160.468 167 154.878 167Z" fill="#244266"/>
<path d="M285 167H183C177.477 167 173 171.477 173 177V189C173 194.523 177.477 199 183 199H285C290.523 199 295 194.523 295 189V177C295 171.477 290.523 167 285 167Z" fill="#244266"/>
<path d="M445.934 167H313.066C307.507 167 303 171.477 303 177V189C303 194.523 307.507 199 313.066 199H445.934C451.493 199 456 194.523 456 189V177C456 171.477 451.493 167 445.934 167Z" fill="#244266"/>
<path d="M506 75H404C398.477 75 394 79.4772 394 85V97C394 102.523 398.477 107 404 107H506C511.523 107 516 102.523 516 97V85C516 79.4772 511.523 75 506 75Z" fill="#ECA864"/>
<path opacity="0.5" d="M366.537 263.194L366.533 263.184C366.327 262.661 366.087 262.188 365.772 261.793L345.412 238.594L345.41 238.593C345.007 238.128 344.509 237.784 343.929 237.47L366.537 263.194ZM366.537 263.194L366.54 263.203L366.537 263.194ZM366.537 263.194L366.54 263.203L366.537 263.194ZM366.54 263.203C366.84 263.894 366.956 264.695 366.956 265.56V327.338C366.956 330.497 364.746 333.096 362.082 333.096H302.995C300.316 333.096 298 330.481 298 327.338V242.505C298 239.416 300.291 237 302.995 237H341.86C342.625 237 343.315 237.14 343.928 237.47L366.54 263.203ZM342.098 245.147L341.191 244.122V245.516V262.219C341.191 264.067 342.766 265.623 344.412 265.623H359.02H360.211L359.404 264.711L342.098 245.147ZM309.971 264.282C309.724 264.282 309.427 264.329 309.171 264.467C308.902 264.612 308.622 264.901 308.622 265.358V268.091C308.622 268.481 308.845 268.812 309.057 269.017C309.277 269.228 309.604 269.42 309.971 269.42H327.179C327.575 269.42 327.884 269.21 328.08 268.96C328.271 268.715 328.382 268.4 328.382 268.091V265.358C328.382 264.998 328.232 264.691 327.957 264.499C327.715 264.328 327.425 264.282 327.179 264.282H309.971ZM309.971 296.677C309.724 296.677 309.427 296.724 309.171 296.862C308.902 297.007 308.622 297.295 308.622 297.753V300.486C308.622 300.876 308.845 301.206 309.057 301.411C309.277 301.623 309.604 301.814 309.971 301.814H339.672C340.085 301.814 340.385 301.586 340.558 301.306C340.719 301.046 340.778 300.742 340.778 300.486V297.753C340.778 297.469 340.704 297.154 340.447 296.929C340.21 296.722 339.915 296.677 339.672 296.677H309.971ZM347.451 318.012C347.863 318.012 348.162 317.783 348.336 317.504C348.497 317.244 348.556 316.939 348.556 316.683V313.951C348.556 313.667 348.481 313.351 348.225 313.126C347.988 312.918 347.692 312.875 347.451 312.875H309.971C309.724 312.875 309.427 312.922 309.171 313.06C308.902 313.204 308.622 313.493 308.622 313.951V316.683C308.622 317.074 308.845 317.404 309.057 317.608C309.277 317.82 309.604 318.012 309.971 318.012H347.451ZM355.228 285.618C355.641 285.618 355.94 285.389 356.113 285.109C356.275 284.849 356.334 284.544 356.334 284.288V281.556C356.334 281.272 356.258 280.957 356.002 280.732C355.766 280.524 355.47 280.48 355.228 280.48H309.971C309.724 280.48 309.427 280.526 309.171 280.665C308.902 280.809 308.622 281.099 308.622 281.556V284.288C308.622 284.679 308.845 285.009 309.057 285.214C309.277 285.425 309.604 285.618 309.971 285.618H355.228Z" fill="url(#paint2_linear)" stroke="#223145"/>
<g filter="url(#filter1_d)">
<path opacity="0.5" d="M194.839 263.194L194.835 263.184C194.628 262.661 194.387 262.188 194.071 261.793L173.621 238.594L173.619 238.593C173.214 238.128 172.713 237.784 172.131 237.47L194.839 263.194ZM194.839 263.194L194.842 263.203L194.839 263.194ZM194.839 263.194L194.842 263.203L194.839 263.194ZM194.842 263.203C195.143 263.894 195.26 264.695 195.26 265.56V327.338C195.26 330.497 193.04 333.096 190.364 333.096H131.017C128.326 333.096 126 330.481 126 327.338V242.505C126 239.416 128.301 237 131.017 237H170.053C170.821 237 171.515 237.14 172.13 237.47L194.842 263.203ZM170.293 245.147L169.382 244.122V245.516V262.219C169.382 264.067 170.963 265.623 172.617 265.623H187.288H188.485L187.675 264.711L170.293 245.147ZM138.024 264.282C137.775 264.282 137.477 264.329 137.22 264.467C136.95 264.612 136.669 264.901 136.669 265.358V268.091C136.669 268.481 136.893 268.812 137.106 269.017C137.327 269.228 137.656 269.42 138.024 269.42H155.307C155.705 269.42 156.016 269.21 156.213 268.96C156.404 268.715 156.516 268.4 156.516 268.091V265.358C156.516 264.998 156.365 264.691 156.089 264.499C155.846 264.328 155.555 264.282 155.307 264.282H138.024ZM138.024 296.677C137.775 296.677 137.477 296.724 137.22 296.862C136.95 297.007 136.669 297.295 136.669 297.753V300.486C136.669 300.876 136.893 301.206 137.106 301.411C137.327 301.623 137.656 301.814 138.024 301.814H167.856C168.27 301.814 168.572 301.586 168.746 301.306C168.907 301.046 168.966 300.742 168.966 300.486V297.753C168.966 297.469 168.892 297.154 168.633 296.929C168.396 296.722 168.099 296.677 167.856 296.677H138.024ZM175.669 318.012C176.083 318.012 176.383 317.783 176.557 317.504C176.719 317.244 176.779 316.939 176.779 316.683V313.951C176.779 313.667 176.703 313.351 176.446 313.126C176.208 312.918 175.911 312.875 175.669 312.875H138.024C137.775 312.875 137.477 312.922 137.22 313.06C136.95 313.204 136.669 313.493 136.669 313.951V316.683C136.669 317.074 136.893 317.404 137.106 317.608C137.327 317.82 137.656 318.012 138.024 318.012H175.669ZM183.48 285.618C183.895 285.618 184.195 285.389 184.369 285.109C184.532 284.849 184.59 284.544 184.59 284.288V281.556C184.59 281.272 184.515 280.957 184.258 280.732C184.021 280.524 183.724 280.48 183.48 280.48H138.024C137.775 280.48 137.477 280.526 137.22 280.665C136.95 280.809 136.669 281.099 136.669 281.556V284.288C136.669 284.679 136.893 285.009 137.106 285.214C137.327 285.425 137.656 285.618 138.024 285.618H183.48Z" fill="url(#paint3_linear)" stroke="#223145"/>
</g>
<path d="M277.581 263.168L277.577 263.158C277.371 262.635 277.13 262.163 276.816 261.768L256.443 238.592L256.441 238.591C256.037 238.127 255.538 237.784 254.958 237.47L277.581 263.168ZM277.581 263.168L277.584 263.177L277.581 263.168ZM277.581 263.168L277.584 263.177L277.581 263.168ZM277.584 263.177C277.884 263.867 278 264.668 278 265.532V327.248C278 330.404 275.789 333 273.123 333H213.998C211.318 333 209 330.387 209 327.248V242.499C209 239.414 211.293 237 213.998 237H252.888C253.653 237 254.344 237.14 254.957 237.47L277.584 263.177ZM253.127 245.139L252.219 244.115V245.507V262.194C252.219 264.04 253.795 265.595 255.442 265.595H270.059H271.251L270.443 264.683L253.127 245.139ZM220.979 264.255C220.731 264.255 220.434 264.301 220.178 264.439C219.909 264.584 219.629 264.873 219.629 265.33V268.06C219.629 268.45 219.852 268.78 220.064 268.984C220.285 269.195 220.612 269.388 220.979 269.388H238.197C238.594 269.388 238.903 269.178 239.1 268.928C239.29 268.683 239.402 268.368 239.402 268.06V265.33C239.402 264.97 239.251 264.663 238.976 264.471C238.734 264.3 238.444 264.255 238.197 264.255H220.979ZM220.979 296.617C220.731 296.617 220.434 296.664 220.178 296.802C219.909 296.947 219.629 297.235 219.629 297.692V300.422C219.629 300.812 219.852 301.142 220.064 301.346C220.285 301.558 220.612 301.749 220.979 301.749H250.699C251.112 301.749 251.412 301.521 251.586 301.242C251.747 300.982 251.805 300.678 251.805 300.422V297.692C251.805 297.408 251.731 297.093 251.474 296.868C251.237 296.662 250.942 296.617 250.699 296.617H220.979ZM258.482 317.93C258.895 317.93 259.194 317.702 259.368 317.423C259.529 317.163 259.589 316.859 259.589 316.603V313.873C259.589 313.59 259.513 313.275 259.257 313.05C259.02 312.842 258.724 312.799 258.482 312.799H220.979C220.731 312.799 220.434 312.845 220.178 312.983C219.909 313.128 219.629 313.416 219.629 313.873V316.603C219.629 316.994 219.852 317.323 220.064 317.527C220.285 317.739 220.612 317.93 220.979 317.93H258.482ZM266.265 285.569C266.678 285.569 266.977 285.341 267.15 285.06C267.312 284.801 267.371 284.496 267.371 284.241V281.511C267.371 281.227 267.296 280.913 267.039 280.688C266.803 280.481 266.507 280.436 266.265 280.436H220.979C220.731 280.436 220.434 280.483 220.178 280.621C219.909 280.765 219.629 281.054 219.629 281.511V284.241C219.629 284.631 219.852 284.96 220.064 285.166C220.285 285.377 220.612 285.569 220.979 285.569H266.265Z" fill="url(#paint4_linear)" stroke="#223145"/>
<g filter="url(#filter2_d)">
<path d="M687.956 10H24.0441C18.4969 10 14 14.4772 14 20V395C14 400.523 18.4969 405 24.0441 405H687.956C693.503 405 698 400.523 698 395V20C698 14.4772 693.503 10 687.956 10Z" fill="url(#paint5_linear)"/>
</g>
<path d="M642.949 51H69.0508C63.4999 51 59 55.4772 59 61V354C59 359.523 63.4999 364 69.0508 364H642.949C648.5 364 653 359.523 653 354V61C653 55.4772 648.5 51 642.949 51Z" fill="url(#paint6_linear)"/>
<path d="M616.465 221H95.5353C90.2691 221 86 225.253 86 230.5V339.5C86 344.747 90.2691 349 95.5353 349H616.465C621.731 349 626 344.747 626 339.5V230.5C626 225.253 621.731 221 616.465 221Z" fill="#1A2D46" stroke="#4CA9FF"/>
<path d="M112 253.934V255H105V253.934H107.947V246.567H105.733V245.737C106.286 245.653 106.769 245.553 107.181 245.439C107.593 245.313 107.963 245.168 108.288 245H109.281V253.934H112Z" fill="#4DA9FF"/>
<path d="M184.911 75H92.0893C86.5171 75 82 79.4772 82 85V97C82 102.523 86.5171 107 92.0893 107H184.911C190.483 107 195 102.523 195 97V85C195 79.4772 190.483 75 184.911 75Z" fill="#8494F8"/>
<path d="M154.878 121H92.122C86.5318 121 82 125.477 82 131V143C82 148.523 86.5318 153 92.122 153H154.878C160.468 153 165 148.523 165 143V131C165 125.477 160.468 121 154.878 121Z" fill="#8494F8"/>
<path d="M154.878 167H92.122C86.5318 167 82 171.477 82 177V189C82 194.523 86.5318 199 92.122 199H154.878C160.468 199 165 194.523 165 189V177C165 171.477 160.468 167 154.878 167Z" fill="#244266"/>
<path d="M285 167H183C177.477 167 173 171.477 173 177V189C173 194.523 177.477 199 183 199H285C290.523 199 295 194.523 295 189V177C295 171.477 290.523 167 285 167Z" fill="#244266"/>
<path d="M445.934 167H313.066C307.507 167 303 171.477 303 177V189C303 194.523 307.507 199 313.066 199H445.934C451.493 199 456 194.523 456 189V177C456 171.477 451.493 167 445.934 167Z" fill="#244266"/>
<path d="M506 75H404C398.477 75 394 79.4772 394 85V97C394 102.523 398.477 107 404 107H506C511.523 107 516 102.523 516 97V85C516 79.4772 511.523 75 506 75Z" fill="#ECA864"/>
<path opacity="0.5" d="M366.537 263.194L366.533 263.184C366.327 262.661 366.087 262.188 365.772 261.793L345.412 238.594L345.41 238.593C345.007 238.128 344.509 237.784 343.929 237.47L366.537 263.194ZM366.537 263.194L366.54 263.203L366.537 263.194ZM366.537 263.194L366.54 263.203L366.537 263.194ZM366.54 263.203C366.84 263.894 366.956 264.695 366.956 265.56V327.338C366.956 330.497 364.746 333.096 362.082 333.096H302.995C300.316 333.096 298 330.481 298 327.338V242.505C298 239.416 300.291 237 302.995 237H341.86C342.625 237 343.315 237.14 343.928 237.47L366.54 263.203ZM342.098 245.147L341.191 244.122V245.516V262.219C341.191 264.067 342.766 265.623 344.412 265.623H359.02H360.211L359.404 264.711L342.098 245.147ZM309.971 264.282C309.724 264.282 309.427 264.329 309.171 264.467C308.902 264.612 308.622 264.901 308.622 265.358V268.091C308.622 268.481 308.845 268.812 309.057 269.017C309.277 269.228 309.604 269.42 309.971 269.42H327.179C327.575 269.42 327.884 269.21 328.08 268.96C328.271 268.715 328.382 268.4 328.382 268.091V265.358C328.382 264.998 328.232 264.691 327.957 264.499C327.715 264.328 327.425 264.282 327.179 264.282H309.971ZM309.971 296.677C309.724 296.677 309.427 296.724 309.171 296.862C308.902 297.007 308.622 297.295 308.622 297.753V300.486C308.622 300.876 308.845 301.206 309.057 301.411C309.277 301.623 309.604 301.814 309.971 301.814H339.672C340.085 301.814 340.385 301.586 340.558 301.306C340.719 301.046 340.778 300.742 340.778 300.486V297.753C340.778 297.469 340.704 297.154 340.447 296.929C340.21 296.722 339.915 296.677 339.672 296.677H309.971ZM347.451 318.012C347.863 318.012 348.162 317.783 348.336 317.504C348.497 317.244 348.556 316.939 348.556 316.683V313.951C348.556 313.667 348.481 313.351 348.225 313.126C347.988 312.918 347.692 312.875 347.451 312.875H309.971C309.724 312.875 309.427 312.922 309.171 313.06C308.902 313.204 308.622 313.493 308.622 313.951V316.683C308.622 317.074 308.845 317.404 309.057 317.608C309.277 317.82 309.604 318.012 309.971 318.012H347.451ZM355.228 285.618C355.641 285.618 355.94 285.389 356.113 285.109C356.275 284.849 356.334 284.544 356.334 284.288V281.556C356.334 281.272 356.258 280.957 356.002 280.732C355.766 280.524 355.47 280.48 355.228 280.48H309.971C309.724 280.48 309.427 280.526 309.171 280.665C308.902 280.809 308.622 281.099 308.622 281.556V284.288C308.622 284.679 308.845 285.009 309.057 285.214C309.277 285.425 309.604 285.618 309.971 285.618H355.228Z" fill="url(#paint7_linear)" stroke="#223145"/>
<g filter="url(#filter3_d)">
<path opacity="0.5" d="M194.839 263.194L194.835 263.184C194.628 262.661 194.387 262.188 194.071 261.793L173.621 238.594L173.619 238.593C173.214 238.128 172.713 237.784 172.131 237.47L194.839 263.194ZM194.839 263.194L194.842 263.203L194.839 263.194ZM194.839 263.194L194.842 263.203L194.839 263.194ZM194.842 263.203C195.143 263.894 195.26 264.695 195.26 265.56V327.338C195.26 330.497 193.04 333.096 190.364 333.096H131.017C128.326 333.096 126 330.481 126 327.338V242.505C126 239.416 128.301 237 131.017 237H170.053C170.821 237 171.515 237.14 172.13 237.47L194.842 263.203ZM170.293 245.147L169.382 244.122V245.516V262.219C169.382 264.067 170.963 265.623 172.617 265.623H187.288H188.485L187.675 264.711L170.293 245.147ZM138.024 264.282C137.775 264.282 137.477 264.329 137.22 264.467C136.95 264.612 136.669 264.901 136.669 265.358V268.091C136.669 268.481 136.893 268.812 137.106 269.017C137.327 269.228 137.656 269.42 138.024 269.42H155.307C155.705 269.42 156.016 269.21 156.213 268.96C156.404 268.715 156.516 268.4 156.516 268.091V265.358C156.516 264.998 156.365 264.691 156.089 264.499C155.846 264.328 155.555 264.282 155.307 264.282H138.024ZM138.024 296.677C137.775 296.677 137.477 296.724 137.22 296.862C136.95 297.007 136.669 297.295 136.669 297.753V300.486C136.669 300.876 136.893 301.206 137.106 301.411C137.327 301.623 137.656 301.814 138.024 301.814H167.856C168.27 301.814 168.572 301.586 168.746 301.306C168.907 301.046 168.966 300.742 168.966 300.486V297.753C168.966 297.469 168.892 297.154 168.633 296.929C168.396 296.722 168.099 296.677 167.856 296.677H138.024ZM175.669 318.012C176.083 318.012 176.383 317.783 176.557 317.504C176.719 317.244 176.779 316.939 176.779 316.683V313.951C176.779 313.667 176.703 313.351 176.446 313.126C176.208 312.918 175.911 312.875 175.669 312.875H138.024C137.775 312.875 137.477 312.922 137.22 313.06C136.95 313.204 136.669 313.493 136.669 313.951V316.683C136.669 317.074 136.893 317.404 137.106 317.608C137.327 317.82 137.656 318.012 138.024 318.012H175.669ZM183.48 285.618C183.895 285.618 184.195 285.389 184.369 285.109C184.532 284.849 184.59 284.544 184.59 284.288V281.556C184.59 281.272 184.515 280.957 184.258 280.732C184.021 280.524 183.724 280.48 183.48 280.48H138.024C137.775 280.48 137.477 280.526 137.22 280.665C136.95 280.809 136.669 281.099 136.669 281.556V284.288C136.669 284.679 136.893 285.009 137.106 285.214C137.327 285.425 137.656 285.618 138.024 285.618H183.48Z" fill="url(#paint8_linear)" stroke="#223145"/>
</g>
<path d="M277.581 263.168L277.577 263.158C277.371 262.635 277.13 262.163 276.816 261.768L256.443 238.592L256.441 238.591C256.037 238.127 255.538 237.784 254.958 237.47L277.581 263.168ZM277.581 263.168L277.584 263.177L277.581 263.168ZM277.581 263.168L277.584 263.177L277.581 263.168ZM277.584 263.177C277.884 263.867 278 264.668 278 265.532V327.248C278 330.404 275.789 333 273.123 333H213.998C211.318 333 209 330.387 209 327.248V242.499C209 239.414 211.293 237 213.998 237H252.888C253.653 237 254.344 237.14 254.957 237.47L277.584 263.177ZM253.127 245.139L252.219 244.115V245.507V262.194C252.219 264.04 253.795 265.595 255.442 265.595H270.059H271.251L270.443 264.683L253.127 245.139ZM220.979 264.255C220.731 264.255 220.434 264.301 220.178 264.439C219.909 264.584 219.629 264.873 219.629 265.33V268.06C219.629 268.45 219.852 268.78 220.064 268.984C220.285 269.195 220.612 269.388 220.979 269.388H238.197C238.594 269.388 238.903 269.178 239.1 268.928C239.29 268.683 239.402 268.368 239.402 268.06V265.33C239.402 264.97 239.251 264.663 238.976 264.471C238.734 264.3 238.444 264.255 238.197 264.255H220.979ZM220.979 296.617C220.731 296.617 220.434 296.664 220.178 296.802C219.909 296.947 219.629 297.235 219.629 297.692V300.422C219.629 300.812 219.852 301.142 220.064 301.346C220.285 301.558 220.612 301.749 220.979 301.749H250.699C251.112 301.749 251.412 301.521 251.586 301.242C251.747 300.982 251.805 300.678 251.805 300.422V297.692C251.805 297.408 251.731 297.093 251.474 296.868C251.237 296.662 250.942 296.617 250.699 296.617H220.979ZM258.482 317.93C258.895 317.93 259.194 317.702 259.368 317.423C259.529 317.163 259.589 316.859 259.589 316.603V313.873C259.589 313.59 259.513 313.275 259.257 313.05C259.02 312.842 258.724 312.799 258.482 312.799H220.979C220.731 312.799 220.434 312.845 220.178 312.983C219.909 313.128 219.629 313.416 219.629 313.873V316.603C219.629 316.994 219.852 317.323 220.064 317.527C220.285 317.739 220.612 317.93 220.979 317.93H258.482ZM266.265 285.569C266.678 285.569 266.977 285.341 267.15 285.06C267.312 284.801 267.371 284.496 267.371 284.241V281.511C267.371 281.227 267.296 280.913 267.039 280.688C266.803 280.481 266.507 280.436 266.265 280.436H220.979C220.731 280.436 220.434 280.483 220.178 280.621C219.909 280.765 219.629 281.054 219.629 281.511V284.241C219.629 284.631 219.852 284.96 220.064 285.166C220.285 285.377 220.612 285.569 220.979 285.569H266.265Z" fill="url(#paint9_linear)" stroke="#223145"/>
<defs>
<filter id="filter0_d" x="0" y="0" width="712" height="423" filterUnits="userSpaceOnUse" color-interpolation-filters="sRGB">
<feFlood flood-opacity="0" result="BackgroundImageFix"/>
<feColorMatrix in="SourceAlpha" type="matrix" values="0 0 0 0 0 0 0 0 0 0 0 0 0 0 0 0 0 0 127 0"/>
<feOffset dy="4"/>
<feGaussianBlur stdDeviation="7"/>
<feColorMatrix type="matrix" values="0 0 0 0 0.843137 0 0 0 0 0.862745 0 0 0 0 0.890196 0 0 0 1 0"/>
<feBlend mode="normal" in2="BackgroundImageFix" result="effect1_dropShadow"/>
<feBlend mode="normal" in="SourceGraphic" in2="effect1_dropShadow" result="shape"/>
</filter>
<filter id="filter1_d" x="121.5" y="236.5" width="78.2596" height="105.096" filterUnits="userSpaceOnUse" color-interpolation-filters="sRGB">
<feFlood flood-opacity="0" result="BackgroundImageFix"/>
<feColorMatrix in="SourceAlpha" type="matrix" values="0 0 0 0 0 0 0 0 0 0 0 0 0 0 0 0 0 0 127 0"/>
<feOffset dy="4"/>
<feGaussianBlur stdDeviation="2"/>
<feColorMatrix type="matrix" values="0 0 0 0 0.164706 0 0 0 0 0.223529 0 0 0 0 0.305882 0 0 0 1 0"/>
<feBlend mode="normal" in2="BackgroundImageFix" result="effect1_dropShadow"/>
<feBlend mode="normal" in="SourceGraphic" in2="effect1_dropShadow" result="shape"/>
</filter>
<filter id="filter2_d" x="0" y="0" width="712" height="423" filterUnits="userSpaceOnUse" color-interpolation-filters="sRGB">
<feFlood flood-opacity="0" result="BackgroundImageFix"/>
<feColorMatrix in="SourceAlpha" type="matrix" values="0 0 0 0 0 0 0 0 0 0 0 0 0 0 0 0 0 0 127 0"/>
<feOffset dy="4"/>
<feGaussianBlur stdDeviation="7"/>
<feColorMatrix type="matrix" values="0 0 0 0 0.843137 0 0 0 0 0.862745 0 0 0 0 0.890196 0 0 0 1 0"/>
<feBlend mode="normal" in2="BackgroundImageFix" result="effect1_dropShadow"/>
<feBlend mode="normal" in="SourceGraphic" in2="effect1_dropShadow" result="shape"/>
</filter>
<filter id="filter3_d" x="121.5" y="236.5" width="78.2596" height="105.096" filterUnits="userSpaceOnUse" color-interpolation-filters="sRGB">
<feFlood flood-opacity="0" result="BackgroundImageFix"/>
<feColorMatrix in="SourceAlpha" type="matrix" values="0 0 0 0 0 0 0 0 0 0 0 0 0 0 0 0 0 0 127 0"/>
<feOffset dy="4"/>
<feGaussianBlur stdDeviation="2"/>
<feColorMatrix type="matrix" values="0 0 0 0 0.164706 0 0 0 0 0.223529 0 0 0 0 0.305882 0 0 0 1 0"/>
<feBlend mode="normal" in2="BackgroundImageFix" result="effect1_dropShadow"/>
<feBlend mode="normal" in="SourceGraphic" in2="effect1_dropShadow" result="shape"/>
</filter>
<linearGradient id="paint0_linear" x1="356" y1="10" x2="356" y2="405" gradientUnits="userSpaceOnUse">
<stop stop-color="#4E5D71"/>
<stop offset="1" stop-color="#2E4056"/>
</linearGradient>
<linearGradient id="paint1_linear" x1="356" y1="51" x2="356" y2="364" gradientUnits="userSpaceOnUse">
<stop stop-color="#21334B"/>
<stop offset="1" stop-color="#132640"/>
</linearGradient>
<linearGradient id="paint2_linear" x1="332.478" y1="236.456" x2="332.478" y2="333.64" gradientUnits="userSpaceOnUse">
<stop stop-color="#64B58F"/>
<stop offset="1" stop-color="#539D76"/>
</linearGradient>
<linearGradient id="paint3_linear" x1="160.63" y1="236.456" x2="160.63" y2="333.64" gradientUnits="userSpaceOnUse">
<stop stop-color="#64B58F"/>
<stop offset="1" stop-color="#539D76"/>
</linearGradient>
<linearGradient id="paint4_linear" x1="243.5" y1="236.457" x2="243.5" y2="333.543" gradientUnits="userSpaceOnUse">
<stop stop-color="#EB777B"/>
<stop offset="1" stop-color="#D76064"/>
</linearGradient>
<linearGradient id="paint5_linear" x1="356" y1="10" x2="356" y2="405" gradientUnits="userSpaceOnUse">
<stop stop-color="#4E5D71"/>
<stop offset="1" stop-color="#2E4056"/>
</linearGradient>
<linearGradient id="paint6_linear" x1="356" y1="51" x2="356" y2="364" gradientUnits="userSpaceOnUse">
<stop stop-color="#21334B"/>
<stop offset="1" stop-color="#132640"/>
</linearGradient>
<linearGradient id="paint7_linear" x1="332.478" y1="236.456" x2="332.478" y2="333.64" gradientUnits="userSpaceOnUse">
<stop stop-color="#64B58F"/>
<stop offset="1" stop-color="#539D76"/>
</linearGradient>
<linearGradient id="paint8_linear" x1="160.63" y1="236.456" x2="160.63" y2="333.64" gradientUnits="userSpaceOnUse">
<stop stop-color="#64B58F"/>
<stop offset="1" stop-color="#539D76"/>
</linearGradient>
<linearGradient id="paint9_linear" x1="243.5" y1="236.457" x2="243.5" y2="333.543" gradientUnits="userSpaceOnUse">
<stop stop-color="#EB777B"/>
<stop offset="1" stop-color="#D76064"/>
</linearGradient>
</defs>
</svg>
